<?xml version="1.0" encoding="utf-8"?>
<!-- Generator: Adobe Illustrator 21.1.0, SVG Export Plug-In . SVG Version: 6.00 Build 0)  -->
<svg version="1.1" id="Laag_1" xmlns="http://www.w3.org/2000/svg" xmlns:xlink="http://www.w3.org/1999/xlink" x="0px" y="0px"
	 viewBox="0 0 906.8 591" style="enable-background:new 0 0 906.8 591;" xml:space="preserve">
<style type="text/css">
	.st0{fill:#FFFFFF;}
	.st1{fill:#1CA6EE;}
</style>
<g id="_x23_ffffffff">
	<path class="st0" d="M13.4,11.6C32.3,8,51.6,9.4,70.7,8.2c18.3-0.6,36.7-0.2,55-0.4c20.5,0.3,41.1-0.2,61.6,1.6
		c9.2,1,18.7-0.6,27.7,2.1c-34.7,2.7-69.5,2.7-104.3,2.8c-15.3-0.4-30.7,0.3-46-0.5C47.6,13.6,30.5,12.4,13.4,11.6z"/>
	<path class="st0" d="M3.5,14.8C14,14,24.3,16.3,34.8,16c14,0.8,28,0.7,42,1.6c12.7,0.4,25.4-0.2,38,0c9.6-0.1,19.3,0.3,28.9-0.2
		c15.7-1.4,31.4,0.2,47.1-1.4c11.4-0.5,22.7-1.3,34-1.9c0.2,4.6,0.6,9.2,0.5,13.9c-0.3,45.7,0.2,91.3-0.4,137
		c-4.9-1.5-9.9-2.4-14.6-4.4c-3.7-1.5-4.9-5.7-7.8-8.1c-2.7-1.7-6.5-2.1-9,0.2c-4.3,3.9-6.4,10.2-5.1,15.9c1.6,4.7,5.2,8.8,5.5,13.9
		c0.4,6.2,1.6,12.4,4.4,18c4.2,8.4,9,16.7,15.3,23.8c2.8,3.2,5.2,6.6,7.8,9.9c-17.6,7.1-36.6,9.1-55.2,11.6
		c-6.8,0.6-13.7,1.2-20.5,1.9c-7.3,0.8-14.6,0.3-21.8,0.5c-7.7,0.1-15.3,1.1-23,0.6c-5.7-0.4-11.3-0.6-17-0.6
		c-13.2,0.1-26.3-1.7-39.3-3.8c-11-1.7-22.2-3.3-32.6-7.4c-2.4-1.2-5.6-2.3-6.2-5.2c-0.8-4.4-0.2-8.8,0-13.2
		c11.7,2.9,23.1,6.7,35,8.4c14,2.4,28.1,3.3,42.2,3.9c12.6,1,25.3,0.9,38,0.2c17.9-0.8,35.8-1.5,53.6-3.5
		c0.2-59.2,0-118.3,0.1-177.5c-10.8-0.4-21.5,0.2-32.2,1.3c-24.4,1.1-49,2.6-73.4,0.4c-12.1-1.1-24.4-1-36.3-3.5
		c-9.7-1.9-19.5-2.6-28.9-5.6C3.1,33.5,3.3,24.1,3.5,14.8 M13.2,26.6C8.2,27.9,6.9,35,10,38.7c2.2,3,6.3,3.3,9.7,3.2
		c2.4-0.2,5.1-0.3,7-1.9c2.4-2.6,3.5-7.1,1.1-10.1C24.6,25.3,18.1,25.6,13.2,26.6z"/>
	<path class="st0" d="M13,30.2c3.1-0.8,6.4-0.8,9.5,0c2.6,0.5,3.4,3.5,3.7,5.8c-2.9,2.8-7.4,3-11.1,1.9C12,37,10.1,32.3,13,30.2z"/>
	<path class="st0" d="M7.4,48.8c8.6-0.4,16.8,2.6,25.4,3.3c10,0.9,19.9,2.5,30,2.7c9.7,0.3,19.3,1.1,29,1
		c21.4-0.1,42.9,0.4,64.3-1.6c4.1-0.6,8.1-0.6,12.2-0.3c-6.2,5.6-14.9,4.1-22.5,4.6c-16.3,1.2-32.7,1.2-49.1,0.7
		c-9.3,0.4-18.7-0.2-28-0.8c-8.4,0.1-16.7-1-25-1.4c-8.7-0.3-17.1-2.8-25.7-3.2C13.9,53.8,10.2,51.8,7.4,48.8z"/>
	<path class="st0" d="M12.7,57c5.9,0.5,11.8,1.3,17.6,2.3c19.1,1.8,38.2,3,57.4,3.6c13.6-0.3,27.3,0.2,40.9-0.2
		c11.1-0.9,22.3-0.5,33.4-1.9c0.4,3.4,1.2,6.8,1.2,10.3c-0.4,48.2,0.2,96.5-0.4,144.8c-10.8,1.7-21.9,1-32.7,2.6
		c-4.5,0.6-9,0.8-13.5,0.8c-13-0.1-26,0.2-39-0.1c-17.7-1.2-35.5-3-52.5-8.5c-4.4-1.6-9.4-3.1-12.4-6.9c-1.1-4.8-0.4-9.8-0.5-14.7
		c0-38.3,0-76.7,0-115C12.3,68.3,12.5,62.6,12.7,57z"/>
	<path class="st0" d="M166.4,61.5c1.1-2.1,3-3.4,4.6-5c1,5.8,1.4,11.7,1,17.5c0,33-0.2,66-0.1,99c-0.3,16.4,0.5,32.8-0.4,49.1
		c-1.7-1.9-3.8-3.6-5-5.9c-1-2.9-1-6.1-1.1-9.2c0.3-22.3,0-44.7,0.1-67c-0.2-23.3,0.4-46.7,0-70C165.6,67.2,165.5,64.2,166.4,61.5z"
		/>
	<path class="st0" d="M5.7,213c1.5-1.9,2.7-4,3.4-6.3c8.6,4.8,17.9,8.4,27.6,10.3c9,2,18.2,3.8,27.4,4.5c9.6,0.8,19.2,0.1,28.7,0.8
		c9,0.7,18-0.1,27-0.1c8.4,0,16.7-1.3,25-1.5c5.7-0.1,11.3-1.5,17-1.5c3.4-0.2,5.3,3.2,7.5,5.1c-3.7,0.6-7.3,1.3-11,1.5
		c-10.2,0.2-20.4,1.5-30.6,1.4c-8.7-0.1-17.3,1.2-26,0.6c-9.1-0.6-18.2,0.5-27.3-0.8c-14.4-2-29.1-1.9-43.4-5.3
		C22.4,219.7,13.4,217.8,5.7,213z"/>
	<path class="st0" d="M140.1,251.4c28.2-1.8,56.6-5.1,83.7-13.5c0.1,5,0.8,10-0.1,14.9c-0.2,2.1-2.1,3.4-3.7,4.5
		c-6.4,4.4-14.1,6.1-21.4,8.5c-3.9,1.3-7.9,2.4-12,3c-10.9,1.5-21.8,3.8-32.8,4.5c-18.3,1.3-36.6,2.8-55,1.9
		c-17.1-0.3-34.4-0.8-51.3-4c-11.1-1.7-22.5-3.3-32.8-8.2c-3.4-1.7-7.5-3.5-8.8-7.4c-1.8-5.5-0.3-11.2,0.5-16.8
		c26.9,9.9,55.8,12.7,84.2,13.1c7.3,0.3,14.5,1.2,21.8,0.6C121.7,251.7,131,251.9,140.1,251.4z"/>
</g>
<g id="_x23_a2a0a6ff">
	<path d="M98.8,4.9c12-1.4,24,0.5,36,0.1c10.3,0.1,20.7,0.2,31,0.2c16,0.1,32,2.1,48.1,2.1c4.9-0.1,9.7,1.2,14.5,2.3
		c0.3,51.8-0.1,103.7,0,155.6c-0.3,4,3.3,6.3,6.3,8.1c9,5.4,16.7,12.6,25.3,18.7c13.1,10,27.7,17.6,41.4,26.6
		c6.7,4.1,13.6,7.7,20.4,11.7c11.1,6.1,22.9,10.7,33.8,17.2c4.9,2.9,9.9,5.6,15,8c6,2.8,11.6,6.5,17.7,9.3c4.6,2.1,9.3,3.9,13.9,6.1
		c8.8,4.1,18.2,6.7,26.9,11.1c5.5,2.8,11.5,4.5,17.3,6.9c4.3,1.7,9,4.4,13.6,2.5c10.5-4.1,16.3-14.6,25.5-20.6
		c7.7-6,17.2-10.2,27.2-9.1c16.8,1.8,31.8,10.2,48,14.1c13.6,3.2,27.1,7.1,40.7,10.2c6,1.4,11.9,3,17.5,5.4
		c7.4,3.1,15.3,5.5,22.2,9.8c6.8,4.2,13.3,8.6,19.7,13.3c14.8,10.9,30.5,20.4,46.6,29.3c22.6,13.3,45.3,26.4,68.6,38.5
		c26.1,14.3,53.6,26,79.8,40.2c13.8,6.4,27.5,13,41.2,19.7c10.1,5,20.6,9.3,30.8,14c-0.4,1-0.9,2-1.3,3c-2.7-0.9-5.4-1.7-7.9-2.8
		c-10.2-4.9-20.7-9.2-30.9-14.1c-10.9-5.6-22.1-10.5-33-16c-18.8-9.6-37.7-19-56.6-28.4c-14.9-6.9-29.1-15-43.7-22.3
		c-14.4-8.3-29-16.2-43.2-24.7c-19.3-11.4-38.9-22.6-56.8-36.1c-12.3-9.4-26.5-16-41.1-21c-10.2-3.7-21-5.4-31.4-8.7
		c-5.2-1.7-10.5-3.1-15.9-4c-7.5-1.3-14.6-4.2-21.9-6.3c-11-3.5-21.8-8.7-33.6-9.3c-10,0-19.2,5-26.5,11.4
		c-6.7,5.6-11.9,13.1-19.8,17.2c-4.8,2.6-10.5,2-15.5,0.2c-6.8-2.5-13.6-4.8-20.1-8c-10.9-5.6-22.7-9.1-33.8-14.2
		c-21.3-8.5-40.1-21.8-61-31.1c-21.6-10.3-41.4-23.9-62-36c-9.2-5.7-17.2-13-26.5-18.5c-3.7,3.2-7.9,6.4-13,6.8
		c-9.2,1-17.5-4.7-23.7-11c-2.9-3.5-5.9-6.9-9.8-9.4c-2.2,9.9,0.6,20.2,5,29c3.7,6.8,6.7,14.2,12.2,19.8c5.4,5.6,9.6,12.3,15.8,17.2
		c6.3,5.1,12.2,10.7,18.9,15.2c4.9,3.4,9,7.6,13.7,11.2c15.9,11.7,32.7,21.9,48.9,33.1c5.3,3.4,10.9,6.4,16.2,9.9
		c13,8.1,25.5,17,39.4,23.7c8.4,3.6,16.2,8.6,25.3,10.2c-2-4.9-3.6-9.9-5.1-14.9c5.2,3.1,6.2,9.5,9.1,14.3c3,5.2,7,9.7,10.2,14.7
		c5.9,8.9,14.6,15.5,20.6,24.4c5.3,7.7,13,13.1,19.5,19.6c4.6,4.7,7.4,10.6,10.8,16.1c8,12.6,13,26.8,20.4,39.7
		c0.9,1,2.3,4.1,3.7,2.2c3.9-7.1,3.1-15.5,3.5-23.3c0.7,0,2.2,0,2.9,0c0.1,10.9-1.3,21.9-5.5,32c-4.6,11.1-15.9,18.4-27.5,20.3
		c-14.6,2.7-29.2-0.9-43.7-1.8c-6.1-0.5-11.9,1.3-17.8,2.4c-2,0.7-3.3-1.3-4.6-2.3c9.7-5.7,21.2-3.3,31.9-3.9c-2.1-2.1-4-4.3-6.4-6
		c-10.5-6.8-21.5-13.5-33.8-16.3c-8.9-2.1-17.9,0.7-26.5,3c-4.7,1.2-8.9,3.8-12.9,6.4c6.8,6.6,13.1,13.8,18.1,21.8
		c1.6,2.7,3.1,5.5,3.5,8.6c1,6.3-0.8,12.8,0.8,19c1.5,6.3,3,12.6,4.5,18.9c1.8,6.7,4.5,14.5,11.5,17.2c11.2,4.2,23.4,3.2,35.2,4.1
		c9.8,0.9,19.6-0.6,29.5,0.2c8.5,0.7,17.1-0.1,25.7,0.7c19.5,3,39.3,4.5,58.7,8.1c5.2,1,10.5,1.7,15.7,2.1c14.6,1.4,29,4.2,43.6,5.6
		c15.4,1,30.7,3.3,46.1,3.2c13.8,1,27.6-0.9,41.3-2.3c10-0.6,19.8-2.7,29.8-3c13.4-1.6,26.8-3.4,40.3-3.8c9.9-0.1,19.8-1.3,29.7-0.5
		c14.3,0.3,28.5,1.6,42.7,3.6c9.4,1.3,18.9,1.9,28.2,3.8c8.6,1.9,17.6,2,26.2,4.5c10,3,20.7,3.2,30.6,6.5c0,1.2,0,2.5,0.1,3.7
		c-6.6-0.6-13-2.1-19.3-3.7c-18.5-3.4-36.8-7.4-55.5-9.5c-15.3-1.6-30.5-4.2-45.9-4.9c-25.6-1.2-51.2,0.7-76.5,4.3
		c-14.3,1.6-28.7,2.8-43,4.2c-7.3,0.5-14.7,0.5-22,1.1c-8.9,0.8-17.7-0.6-26.6-0.8c-7.7-0.1-15.3-1.5-23-2
		c-14.3-1-28.3-3.9-42.5-5.4c-15.4-1.3-30.4-4.8-45.8-6.2c-21.1-2.8-42.3-5.9-63.7-5.4c-17.6-0.3-35.3,1-52.8-2
		c-7-1.1-14.6-4.1-18.2-10.6c-4.9-9.5-5.8-20.3-8.5-30.5c-2.5-9.2-9.7-15.8-14-24.1c-3.6-7-8-14.1-8.9-22.1
		c-0.5-5.2,3.4-9.7,7.8-11.8c7.9-4,16.9-4.6,25.3-6.6c-2.3-3.9-4.8-7.7-7.3-11.4c-3.7-5.5-5.8-11.7-8.4-17.7
		c-2.9-6.8-4.7-14.5-3-21.9c3.5-10.1,10.9-18.2,18.1-25.8c8.4-9.7,18.1-18.3,24.7-29.4c-3.7-1.6-7.3-3.4-11-4.9
		c-13.8-5.5-26.8-12.7-39.6-20.2c-9.6-5.7-18.6-12.3-28.5-17.6c-12.2-8-24.3-16.3-36.5-24.4c-8.5-6.2-17.7-11.4-25.5-18.5
		c-5.8-5.4-12.7-9.2-18.4-14.7c-2.9-2.7-6-5.1-9.1-7.6c-0.3,5.6-0.9,11.2-0.6,16.8c-7.1,4.3-14.5,8-22.5,10.3
		c-27.7,7.9-56.6,10-85.2,10.7c-18.3,0.1-36.7-0.2-55-1.9c-11.3-1.7-22.8-2.2-33.8-5.2c-8.4-2.2-17.3-4.1-24.5-9.4
		c-1.8-1.4-4-2.9-4.2-5.4c-0.6-5.6,0-11.2-0.1-16.8c0.2-7.3-0.3-14.6,0-22c0.2-8.6,9-14.2,8.9-23C10,153.4,10,111.7,10.1,70
		c-0.1-4.2,0.5-8.6-0.5-12.7c-2.7-5.4-8.9-8.9-9.3-15.5C-0.2,31,0.1,20.2,0.2,9.5c10.7-2.2,21.7-2.3,32.5-3.2
		C54.7,4.3,76.8,5.7,98.8,4.9 M13.4,11.6c17.1,0.8,34.2,2,51.4,2.2c15.3,0.8,30.7,0,46,0.5c34.8-0.1,69.6-0.1,104.3-2.8
		c-9-2.6-18.5-1.1-27.7-2.1c-20.5-1.8-41.1-1.2-61.6-1.6c-18.3,0.2-36.7-0.2-55,0.4C51.6,9.4,32.3,8,13.4,11.6 M3.5,14.8
		c-0.3,9.4-0.4,18.7,0.1,28.1c9.4,3,19.3,3.7,28.9,5.6c12,2.4,24.2,2.3,36.3,3.5c24.4,2.2,49,0.7,73.4-0.4
		c10.7-1.1,21.4-1.7,32.2-1.3c-0.1,59.2,0,118.3-0.1,177.5c-17.8,2-35.7,2.7-53.6,3.5c-12.6,0.8-25.3,0.8-38-0.2
		c-14.1-0.6-28.3-1.6-42.2-3.9c-11.9-1.7-23.4-5.6-35-8.4c-0.1,4.4-0.8,8.9,0,13.2c0.6,2.9,3.8,4,6.2,5.2
		c10.4,4.1,21.6,5.6,32.6,7.4c13,2.1,26.1,3.9,39.3,3.8c5.7-0.1,11.3,0.1,17,0.6c7.7,0.5,15.3-0.5,23-0.6c7.3-0.2,14.6,0.3,21.8-0.5
		c6.8-0.7,13.7-1.3,20.5-1.9c18.6-2.4,37.6-4.5,55.2-11.6c-2.6-3.3-5-6.8-7.8-9.9c-6.3-7.1-11.1-15.4-15.3-23.8
		c-2.8-5.6-3.9-11.8-4.4-18c-0.3-5.2-3.9-9.2-5.5-13.9c-1.3-5.7,0.8-12,5.1-15.9c2.5-2.3,6.3-1.9,9-0.2c2.9,2.5,4.1,6.7,7.8,8.1
		c4.7,2,9.8,2.9,14.6,4.4c0.6-45.7,0.1-91.3,0.4-137c0.1-4.6-0.3-9.2-0.5-13.9c-11.3,0.6-22.7,1.5-34,1.9c-15.6,1.6-31.4,0-47.1,1.4
		c-9.6,0.5-19.3,0.1-28.9,0.2c-12.7-0.2-25.3,0.3-38,0c-14-0.9-28-0.8-42-1.6C24.3,16.3,14,14,3.5,14.8 M7.4,48.8
		c2.8,2.9,6.5,4.9,10.6,4.9c8.7,0.4,17.1,2.9,25.7,3.2c8.3,0.4,16.6,1.5,25,1.4c9.3,0.6,18.7,1.2,28,0.8c16.4,0.5,32.8,0.5,49.1-0.7
		c7.6-0.5,16.3,1.1,22.5-4.6c-4.1-0.3-8.2-0.3-12.2,0.3c-21.4,2.1-42.9,1.5-64.3,1.6c-9.7,0.1-19.3-0.7-29-1
		c-10.1-0.2-20-1.9-30-2.7C24.2,51.5,16,48.5,7.4,48.8 M12.7,57c-0.2,5.7-0.4,11.4-0.3,17c0,38.3-0.1,76.7,0,115
		c0.1,4.9-0.6,9.9,0.5,14.7c3,3.8,8,5.3,12.4,6.9c17,5.5,34.8,7.3,52.5,8.5c13,0.3,26-0.1,39,0.1c4.5,0,9-0.2,13.5-0.8
		c10.8-1.6,21.9-0.9,32.7-2.6c0.5-48.2-0.1-96.5,0.4-144.8c0-3.5-0.8-6.9-1.2-10.3c-11.1,1.4-22.3,1-33.4,1.9
		c-13.6,0.4-27.3-0.1-40.9,0.2c-19.2-0.6-38.3-1.8-57.4-3.6C24.5,58.3,18.6,57.5,12.7,57 M166.4,61.5c-0.9,2.7-0.8,5.7-0.8,8.5
		c0.4,23.3-0.1,46.7,0,70c-0.1,22.3,0.2,44.7-0.1,67c0.1,3.1,0.1,6.3,1.1,9.2c1.2,2.3,3.2,4,5,5.9c0.9-16.4,0.1-32.8,0.4-49.1
		c-0.1-33,0.1-66,0.1-99c0.4-5.9,0-11.7-1-17.5C169.4,58.1,167.4,59.4,166.4,61.5 M195.5,154.6c-4.4,2.1-5.9,8.1-3.7,12.3
		c0.5,0.9,0.9,2.6,2.3,1.9c3.3-4.3,8.4-7.4,9.6-13C201.1,155.2,198.3,153.7,195.5,154.6 M201.4,165.6c3.2,6.1,7.1,11.9,12.4,16.4
		c5.2,4.4,11.8,8.2,18.8,7.2c3.5-0.3,5.9-3.3,8.5-5.3c-6.7-6.4-14.6-11.3-22.7-15.7C213.3,165.3,207.3,163.8,201.4,165.6 M5.7,213
		c7.8,4.7,16.7,6.6,25.4,8.8c14.2,3.3,28.9,3.3,43.4,5.3c9.1,1.3,18.2,0.2,27.3,0.8c8.7,0.6,17.3-0.7,26-0.6
		c10.2,0.1,20.4-1.2,30.6-1.4c3.7-0.1,7.3-0.9,11-1.5c-2.2-2-4.1-5.3-7.5-5.1c-5.7,0-11.3,1.4-17,1.5c-8.4,0.2-16.7,1.5-25,1.5
		c-9,0-18,0.8-27,0.1c-9.6-0.7-19.2,0-28.7-0.8c-9.2-0.7-18.4-2.4-27.4-4.5c-9.7-2-19-5.5-27.6-10.3C8.4,209.1,7.1,211.1,5.7,213
		 M140.1,251.4c-9.2,0.5-18.4,0.2-27.6,1c-7.3,0.6-14.5-0.2-21.8-0.6c-28.4-0.3-57.4-3.1-84.2-13.1c-0.8,5.5-2.3,11.3-0.5,16.8
		c1.2,4,5.4,5.7,8.8,7.4c10.3,4.9,21.7,6.5,32.8,8.2c16.9,3.3,34.1,3.7,51.3,4c18.3,1,36.7-0.6,55-1.9c11-0.8,21.9-3,32.8-4.5
		c4.1-0.6,8.1-1.7,12-3c7.3-2.4,15-4.1,21.4-8.5c1.6-1.1,3.5-2.4,3.7-4.5c0.8-4.9,0.1-10,0.1-14.9
		C196.7,246.3,168.4,249.6,140.1,251.4 M399.1,353.5c-6.4,6.9-12.8,13.8-19.5,20.4c-5.6,5.5-10.1,11.9-15.4,17.6
		c-5.5,6-9,14.2-7.8,22.3c1.4,9.1,6,17.3,10.6,25.1c2.9,4.7,4.2,10.4,8.4,14.2c5.9,2.7,12.6,2.9,18.5,5.6
		c10.4,4.6,20.4,10.5,29.1,17.8c3.4,2.6,5.8,7.3,10.6,7.4c5.4,0.8,10.7,0,16-0.6c-1.8-8.8-5.8-16.8-9.5-24.8
		c-3.9-8.8-10.6-16.3-12.8-25.9c-7.7,1.3-15.6,3.7-23.5,2c-5.3-0.8-10.1-3.1-15-5.1c0.1-1.2,0.2-2.4,0.3-3.6
		c9.5,3,19.6,6.4,29.7,4.2c7.5-1.6,13.4-7.3,17.8-13.3c2.9-4.1,6.2-8.1,7.6-13.1c-1.2-3.8-5-6.1-7.8-8.8c-6-4.8-9.9-11.4-15.1-16.9
		C414,370.1,406.9,361.5,399.1,353.5 M429.4,430.9c9.4,16.7,20.9,32.8,25.7,51.6c9.6,0.2,18.9-5.7,23.2-14.2c1.8-3-0.3-6.3-1.7-9
		c-3.9-6.5-7.6-13.2-10.7-20.2c-3.3-7.5-7.9-14.3-11.4-21.8c-1.4-3.3-4-5.9-6.5-8.4C442.9,417.2,436.4,424.3,429.4,430.9 M343,477.3
		c2,8.7,6.9,16.2,11.8,23.5c1.6,2.7,4.2,4.5,6.9,5.9c-1-4-2-8.1-3.9-11.7C354.2,488.1,350.2,480.9,343,477.3z"/>
	<path d="M13.2,26.6c4.9-1,11.5-1.3,14.7,3.3c2.4,3,1.3,7.5-1.1,10.1c-1.9,1.7-4.6,1.8-7,1.9c-3.4,0.1-7.5-0.2-9.7-3.2
		C6.9,35,8.2,27.9,13.2,26.6 M13,30.2c-2.9,2.2-1.1,6.8,2.1,7.7c3.7,1.1,8.2,0.9,11.1-1.9c-0.3-2.2-1-5.2-3.7-5.8
		C19.4,29.4,16.1,29.3,13,30.2z"/>
	<path d="M8,178.3C8.5,178.8,8.5,178.8,8,178.3z"/>
</g>
<g id="_x23_1ca6eeff">
	<path class="st1" d="M418,115.3c5.1-3.1,10-6.4,15.1-9.7c0.2,4.3,0.3,8.6,0.3,12.9c21.5,0.3,42.9,0.3,64.4,0.2
		c5.2-0.1,10.4,0.4,15.6,0.6c0.7,6.1,0.8,12.3,0.1,18.5c-11.9,0.6-23.8,0.2-35.7,0.2c-14.5-0.9-29,0.4-43.6,0.1
		c0,4.4-0.2,8.7-0.6,13.1c-6-4.1-11.9-8.2-18.3-11.7c-6.5-3.9-13.4-7-19.7-11.2C402.7,123.4,410.4,119.5,418,115.3z"/>
	<path class="st1" d="M195.5,154.6c2.7-0.9,5.6,0.6,8.2,1.2c-1.2,5.6-6.3,8.7-9.6,13c-1.4,0.7-1.8-1-2.3-1.9
		C189.7,162.7,191.2,156.7,195.5,154.6z"/>
</g>
</svg>
