<?xml version="1.0" encoding="utf-8"?>
<!-- Generator: Adobe Illustrator 21.1.0, SVG Export Plug-In . SVG Version: 6.00 Build 0)  -->
<svg version="1.1"
	 id="Laag_1" inkscape:version="0.91 r13725" sodipodi:docname="xiaomi_button_icon.svg" xmlns:cc="http://creativecommons.org/ns#" xmlns:dc="http://purl.org/dc/elements/1.1/" xmlns:inkscape="http://www.inkscape.org/namespaces/inkscape" xmlns:rdf="http://www.w3.org/1999/02/22-rdf-syntax-ns#" xmlns:sodipodi="http://sodipodi.sourceforge.net/DTD/sodipodi-0.dtd" xmlns:svg="http://www.w3.org/2000/svg"
	 xmlns="http://www.w3.org/2000/svg" xmlns:xlink="http://www.w3.org/1999/xlink" x="0px" y="0px" viewBox="0 0 595.3 595.3"
	 style="enable-background:new 0 0 595.3 595.3;" xml:space="preserve">
<style type="text/css">
	.st0{fill:#2B2A29;}
</style>
<g id="Слой_x0020_1">
	
		<sodipodi:namedview  bordercolor="#666666" borderopacity="1" gridtolerance="10" guidetolerance="10" id="namedview12" inkscape:current-layer="svg2" inkscape:cx="423.125" inkscape:cy="423.125" inkscape:pageopacity="0" inkscape:pageshadow="2" inkscape:window-height="728" inkscape:window-maximized="0" inkscape:window-width="1408" inkscape:window-x="0" inkscape:window-y="0" inkscape:zoom="0.2788774" objecttolerance="10" pagecolor="#ffffff" showgrid="false">
		</sodipodi:namedview>
	<path class="st0" d="M365,16.5L270.1,31L128.2,52.7c-4.3,0.7-7,1.8-8.1,3.7c-1.1,1.8-0.9,4.6,0.6,8.7
		c31.5,85.1,63.2,169.5,95.5,252c32.4,82.5,65.4,163.1,99.6,240.6c0.5,1,1.2,2.1,2.2,3.2c1.6,1.8,3.8,3.4,6.1,4.3
		c2.1,0.8,4.3,1,6.2,0.1c0.7-0.3,1.3-0.7,1.9-1.2l110.6-101.7l0.1-0.1l76.2-67c5.1-4.5,2.4-11.5,0.3-16.8c-0.4-1-0.8-2.1-0.9-2.4
		c-28.1-78.4-44.7-124-63.4-170.9c-18.8-47-39.8-95.7-76.8-180.3c-1.9-4.3-3.2-6.9-4.8-8C371.8,15.9,369.4,15.8,365,16.5z
		 M123.5,380.5l48.7-12.8L144.9,294L102.6,305c3.6,1.6,6.5,4.3,8.1,8.4l18.8,47.8c2.8,7.1-1.4,12.9-5.3,18.2
		C124,379.8,123.8,380.1,123.5,380.5z M174.2,373L120,387.2c0,0.3,0,0.7,0.1,1l2.2,5.6l6.3-1.2l35-8.1c2.1-0.5,5,0.6,5,2.7
		c0,2.1-1.6,4.3-3.7,4.8l-39.7,9.2l6.3,16.1l6.5-1.3l35-8.1c2.1-0.5,5,0.6,5,2.7c0,2.2-1.6,4.3-3.8,4.8l-39.8,9.2l6.1,15.7l6.2-1.2
		l35-8.1c2.1-0.5,5,0.6,5,2.7c0,2.1-1.6,4.3-3.7,4.8l-39.5,9.2l6.3,16.1l5.4-1l35-8.1c2.1-0.5,5,0.6,5,2.7c0,2.2-1.7,4.4-3.8,4.8
		l-38.7,9l0.3,0.8c1,2.6,2.9,5.1,5.3,6.8c1.9,1.4,4,2.2,5.8,1.9l47-8.5l-7.6-20.5L174.2,373z M87.1,303.3l55.9-14.7l-42.1-113.9
		c-2.6,1.2-4.6,2.5-5.8,4s-1.5,3.6-0.3,6.7l28.1,76.2l0,0.1c0.5,1.5-0.4,3.1-1.8,3.5l-27.9,8.7c-4.8,1.5-8.6,3.5-10.6,6.2
		c-1.8,2.5-2.2,5.9-0.4,10.4L87.1,303.3z M146.9,472.7L146.9,472.7l-0.1-0.2h0.1l-32.1-82.5c0-0.1-0.1-0.2-0.1-0.3
		c-1.3-4.9,1.8-9.1,5-13.6c3-4.2,6.3-8.6,4.6-12.8l-18.8-47.8c-1.3-3.3-3.9-5.1-7.1-6c-3.6-1-8.1-0.8-12.6-0.1
		c-1.4,0.2-2.6-0.6-3.1-1.8l-5.8-15c-2.6-6.6-1.8-11.7,1.1-15.8c2.8-3.8,7.6-6.4,13.5-8.3l25-7.9l-27.1-73.4
		c-1.9-5.2-1.2-9,1.2-12.1c1.9-2.4,4.8-4.2,8.3-5.8L69.1,88.7c-2.5-6.7-1.6-11.5,1.4-15.4c2.8-3.6,7.4-6.1,12.8-8.6l27-12.2
		c0.1-0.1,0.3-0.1,0.5-0.1l9.3-3.2c2-1,4.4-1.6,7.3-2.1l141.9-21.6l94.8-14.5c5.9-0.9,9.5-0.7,12.5,1.4c2.8,1.9,4.5,5.2,6.8,10.5
		c36.9,84.5,57.9,133.1,76.8,180.4c18.9,47.4,35.5,92.9,63.5,171.1c0.4,1.2,0.6,1.7,0.9,2.2c2.7,7,6.2,16-1.8,23.1l-76.2,66.9v0
		L335.9,568.2c-1.1,1-2.2,1.8-3.4,2.3c-3.4,1.5-7.1,1.2-10.5-0.1c-2.1-0.8-4.1-2-5.9-3.5l-12.9,11.8l-38,6
		c-3.5,0.6-7.1-0.7-10.2-2.9c-3.2-2.3-5.9-5.8-7.1-9.3l-35-94.7l-48,8.6c-3.5,0.6-7.1-0.6-10.1-2.9c-3.2-2.4-5.9-5.8-7.3-9.3
		L146.9,472.7z M152.4,471.3l0.7-0.1c2.1-0.5,3.4-2.2,3.6-4.7c0.1-1.6-1.4-3.1-7.1-2.3L152.4,471.3z M143.2,447.7l1.5-0.3
		c2.1-0.5,3.4-2.1,3.6-4.7c0.1-1.6-1.5-3.2-7.9-2.2L143.2,447.7z M134.2,424.5l1.8-0.4c2.1-0.5,3.4-2.2,3.6-4.8
		c0.1-1.7-1.6-3.2-8.2-2.1L134.2,424.5z M125.1,401l1.6-0.4c2.1-0.5,3.4-2.1,3.6-4.7c0.1-1.6-1.5-3.2-8-2.2L125.1,401z M113.9,57.3
		l-0.7,0.3c-1.4,1.7-1.9,3.8-1.9,5.9c0,2.6,0.7,5.4,1.6,7.8l181.5,496.5c0.6,1.5,1.9,3,3.6,4.1c1.2,0.8,2.5,1.3,3.7,1.4l10.7-10.3
		c-0.7-1-1.3-2-1.7-2.9c-34.2-77.5-67.3-158.2-99.7-240.8S146.8,152.1,115.4,67C114,63.2,113.5,60,113.9,57.3z M105.8,60.8
		l-20.2,9.1c-4.7,2.2-8.6,4.2-10.7,6.9c-1.8,2.3-2.3,5.4-0.6,9.9l178.8,483.8c0.9,2.5,2.9,5,5.2,6.7c1.9,1.4,4.1,2.2,6,2l28.1-4.5
		c-1.6-1.5-2.8-3.3-3.5-5.1L107.6,73.1c-1.1-2.9-1.9-6.3-1.9-9.7C105.6,62.6,105.7,61.7,105.8,60.8z"/>
</g>
</svg>
