<?xml version="1.0" encoding="utf-8"?>
<!-- Generator: Adobe Illustrator 21.1.0, SVG Export Plug-In . SVG Version: 6.00 Build 0)  -->
<svg version="1.1" id="Laag_1" xmlns="http://www.w3.org/2000/svg" xmlns:xlink="http://www.w3.org/1999/xlink" x="0px" y="0px"
	 viewBox="0 0 430 918" style="enable-background:new 0 0 430 918;" xml:space="preserve">
<style type="text/css">
	.st0{fill:#FFFFFF;}
</style>
<g id="_x23_ffffffff">
	<path class="st0" d="M222.9,329c-1.7-12.6-4.8-25.1-5.1-37.8c-0.2-10.6,0.6-21.1,1.3-31.6c-1-7.2-0.8-14.6,0-21.9
		c-0.2-0.5-0.3-1.1-0.3-1.7v-31c0-2.6,1.6-4.1,3.5-4.6c-3.1-25.2-6.5-50.5-3.2-75.9c4.5-34-1.2-68.4-1.3-102.5
		c0-1.5,0.5-2.6,1.3-3.4c0.3-1.9,1.5-3.7,3.7-4.1c0,0,0-0.1,0-0.1c-57-0.2-114,0.1-171,0c-5.3,0.1-11.5-1-15.6,3.1
		c-4.2,3.2-2.9,8.9-3.1,13.6c0,117.6,0.2,235.3,0.1,353c-0.3,6.1,4.3,12.5,10.7,12.5c10.9,0.5,21.9,0.1,32.9,0.1
		c8.1-0.1,16.2,0.6,24.3-0.2c1.2-6.4,3-12.6,4.2-18.9c2.7-18.5,4-37.1,5.9-55.6c0.7-14,1.7-28.5,8.4-41.1
		c7.3-11.9,25.4-14.2,36.1-5.7c6.7,6.7,7.9,16.7,8.8,25.7c1.6,12,0,24.1,1.5,36.1c2.4,19.9,0,39.9,2.2,59.8
		c7.5,0.1,15.1,0.2,22.6,0.4c7,0.2,14-0.7,21-0.2c3.5,0.2,7,0.1,10.5-0.1c-4-0.6-5-5.4-3-8.1c0,0,0,0,0,0c0-0.2,0.1-0.4,0.2-0.5
		c-0.9-1.5-0.9-3.5,0-5.1c-1-5,0.2-11.6,0.6-15.5c0.5-4.9,0.9-9.2,0.1-14.1c-1.1-6.6-2.7-13.1-2.9-19.8
		C217.4,330.3,220.3,328.7,222.9,329z"/>
	<path class="st0" d="M417.6,25.9c0.3-6.6-6.1-12.1-12.5-12c-15-0.6-30.1,0.1-45.1-0.1c-14.7-0.3-29.3,0.6-44,0.1
		c-7-0.3-14,0.1-21,0.2c-22.7-0.1-45.4-0.1-68.1,0.1c0,0.1,0,0.1,0,0.2c5.6,0.3,6,8.5,1.1,9.8c0.2,19.2,1.9,38.3,2.6,57.4
		c0.3,8.6,0.5,17.2,0.1,25.7c-0.3,8.4-1.6,16.6-2.3,25c-1.4,16.1-0.2,32.3,1.6,48.3c3.6,31.5,9.5,63.1,3.7,94.7
		c-0.5,2.8-3.3,3.9-5.8,3.5c-0.2,4.1-0.3,8.2-0.2,12.4c0.4,18.8,6.9,36.9,6.1,55.8c-0.1,2.7-2,4.3-4.1,4.7c0.7,4.5,1.2,9.1,0.6,13.7
		c-0.4,2.9-0.7,6-0.8,9c-0.1,1.7-0.2,3.4-0.1,5.2c0,0.3,0.2,1.5,0.1,1.8c1.6,1.2,0.8,1.2,0.3,0.8c0.4,0.7,0.6,1.4,0.7,2.1
		c0.6,0.8,0.9,1.8,0.9,3.1c0,0.8-0.2,1.6-0.5,2.3c1.1,2.7,0,6.3-3.3,7c59.9,0.2,119.6-0.2,179.4,0c2.6-0.1,5.5,0.2,7.9-0.9
		c1.8-0.8,2.7-2.8,2.6-4.7C417.7,269.3,417.5,147.6,417.6,25.9z"/>
	<path class="st0" d="M124,285.8c3.3-5.5,9.4-9.6,16-9.5c4.8,0,10.4,1,13.3,5.3c4.5,6.6,5.7,14.7,6.2,22.4
		c0.3,8.3,1.3,16.6,1.1,24.9c-0.3,8.4,1.2,16.6,1.1,25c-0.1,7.4,1,14.7,0.9,22c-0.1,14.3,0,28.7,0,43c-0.1,7.4,0.3,14.9-0.6,22.2
		c-0.6,5.2-1,10.3-0.8,15.5c0.7,15.7,0,31.5,0.4,47.3c0.6,11.1,2.1,22.1,4.3,33c2,8.3,3.2,16.9,6,25c1.2-0.3,2.4-0.7,3.7-1
		c-0.7-7.9-2.8-15.6-4.1-23.5c-2.1-11.4-3.8-23-4.5-34.6c-1.1-12-0.4-24-0.8-36.1c0.2-2.3-0.6-5.5,2-6.7c8.7-4.8,20.3-4.6,28.6,0.9
		c8.1,6.5,9.6,17.4,12.2,26.7c6.6,23.2,12.7,46.6,22,69c3.9,9.5,3.2,20,3.6,30c0.7,0.5,2.1,1.6,2.8,2.1c3-5.9,1.9-12.7,1.8-19
		c-0.1-8.8-4.4-16.8-7.4-24.9c-3.5-8.8-6-18-8.8-27.1c-3.1-10.1-6.5-20.1-8.1-30.6c9.8-1.3,21.3-0.9,28.4,7
		c9.8,11.9,15.4,26.5,21.5,40.4c6.8,14.5,15.2,28.2,22.6,42.3c4.4,7.5,8.6,15.3,14.6,21.7c0.6-1.5,2.4-2.9,1.8-4.7
		c-1.4-4.2-4.4-7.6-6.7-11.4c-10.3-17-20-34.5-28.6-52.4c-0.9-2.2-1.2-4.6-1.6-7c3.8-0.1,8-0.8,11.6,1c5.1,2.7,8.5,7.6,11.5,12.4
		c7.7,12.9,16,25.5,23.4,38.5c5.6,8.8,9.7,18.5,13.9,28c6.3,14.5,9.4,31.1,5.6,46.7c-7.4,28.2-17.6,55.6-28.4,82.6
		c-7.5,20.4-16.2,40.4-24.3,60.6c-7.4,18.9-7.9,39.5-5.8,59.5c0.7,9.1,2.8,18.1,5.5,26.8c3.2,13,7.6,25.7,12.1,38.3H96.3
		c0.7-17-0.5-33.9-2.3-50.8c-1.2-9.9-2.9-20-7-29.2c-2.7-6.1-5.7-12.1-9.2-17.9c-14.4-24.2-28.2-49-37-75.8
		c-8.4-22.8-17.6-45.4-22.9-69.2c-1.9-8.6-4.6-17.6-3-26.5c2.6-11.8,7.7-22.8,12.2-33.9c6.7-14,13.8-27.9,21.4-41.4
		c6.1-10.4,13.4-19.9,20-29.9c1.7-2.8,4.1-5.1,6.8-7.1c0.3,5.2,0.1,10.5-0.4,15.7c-0.5,5.6-0.3,11.3-1.2,16.8c-1.1,7-4.9,13.3-7,20
		c-4.2,12.6-6.9,25.7-8.2,38.9c-0.4,4.7-1.6,9.4-1.5,14.1c-0.1,2,1.9,2.9,3,4.2c2.9-6.8,2.4-14.2,3.9-21.3c1.5-7.5,2-15.2,4.4-22.5
		c2.2-6.8,3.8-13.8,6.8-20.3c1.7-3.8,3.3-7.7,3.7-11.9c1.1-12.8,1.3-25.7,3-38.4c1.6-12.6,2.3-25.5,6.3-37.6
		c3.3-10.4,5.3-21.1,7.3-31.8c1.6-11.2,4.5-22.1,5.7-33.3c2.3-14.4,4.9-28.8,7.8-43.1c1.9-13.1,4.8-26.1,5.4-39.4
		c0.5-12.4,2.2-24.7,3.2-37.1C118.4,301.3,119.7,292.9,124,285.8 M134.2,279c-5.9,0.8-10.3,6.1-10.7,11.9c-0.8,8-3.4,16.6,0.2,24.3
		c2.1,5.1,8.6,4.9,13.2,5.1c6.1-0.3,13.6-0.4,17.5-5.8c0.4-8.2,1.1-16.4,0.9-24.6c0.2-4.1-3-7.3-6.4-8.9
		C144.4,279,139.2,278.1,134.2,279 M122,420.1c-1.7,0.2-1.5,2.2-2,3.4c6.6,0.7,13.1,1.5,19.7,2.4c-1.3-1.1-2-2.8-3.3-3.8
		c3.5,0.3,6.9,0.4,10.4,0.1c-1.1-3.8-5.5-3.9-8.7-4.1C132.6,418,127.2,418.5,122,420.1 M114.6,430.6c2.6,1.5,5.4,2.9,8.4,3.4
		c8.6,1.4,17.7,1.3,25.8-2.1c-0.1-0.6-0.3-1.9-0.5-2.5c-5.4,1.1-10.8,2.8-16.4,2.3c-4.5-0.1-8.7-1.7-13.1-2.4
		C117.2,428.9,115.9,430,114.6,430.6z"/>
	<path class="st0" d="M133.3,283.2c5-1.4,10.5-0.8,15.2,1.4c4.1,2.1,4.2,7.2,4.1,11.2c-0.4,5.8,0.1,11.8-1.4,17.5
		c-4.8,3.6-11.2,3.5-17,3.4c-3.9,0-9.2-1.9-9-6.6c-0.2-6.7,0.2-13.6,1.9-20.1C127.8,286.8,130.3,284.2,133.3,283.2z"/>
</g>
<path d="M422.6,23.9c0.2-9.2-8.6-16.7-17.6-16.3c-116.6,0-233.3,0-350,0.1c-6,0-12.3-0.5-17.7,2.5c-4.4,2.5-8.8,6.4-9.2,12
	c-0.8,6-0.2,12-0.3,18v197c0,27.3-0.1,54.7,0.4,82c-0.7,21-0.2,42-0.3,63c-0.2,7.6,2.4,17,10.4,19.8c8.3,2.5,17.2,1,25.8,1.4
	c11.9,0.4,23.9-0.6,35.8,0.1c-2.1,16.4-4.7,32.8-7.7,49c-2.4,11.1-3.7,22.4-6.8,33.3c-1.8,6.5-3.9,12.9-5,19.6
	c-1,5.5-1.3,11.1-2.8,16.6c-1.2,4.7-5.1,8-8.1,11.6c-6,6.6-10.1,14.6-15.2,21.9c-5.7,8.2-11,16.7-15.5,25.6
	c-11.5,20-21.1,41.1-28,63.1c-3.6,11.7-0.3,23.9,2.8,35.3c2.7,10.6,5.7,21.2,9.6,31.5c4.1,10.2,7.1,20.7,11.1,30.9
	c3.6,9.1,6.4,18.5,10.4,27.5c6.7,14.7,14.3,28.9,22.2,42.9c5.9,10.2,12.6,20.1,16.7,31.2c6,15.4,6.2,32.1,7.6,48.3
	c0.8,8.8,0.3,17.6,0.6,26.4h4.6c0.7-17-0.5-33.9-2.3-50.8c-1.3-10-2.9-20-7-29.2c-2.8-6.1-5.7-12.2-9.2-17.9
	c-14.4-24.2-28.2-49-37-75.8c-8.4-22.8-17.6-45.4-22.9-69.2c-1.9-8.7-4.6-17.6-3-26.5c2.6-11.8,7.7-22.8,12.3-33.3
	c6.7-14,13.7-27.9,21.4-41.4c6-10.4,13.3-19.9,20-29.9c1.7-2.9,4.1-5.2,6.8-7.1c0.3,5.2,0.1,10.5-0.4,15.7
	c-0.6,5.6-0.3,11.2-1.2,16.8c-1.1,7.1-4.8,13.3-7,20c-4.1,12.6-6.9,25.7-8.2,38.9c-0.4,4.7-1.6,9.4-1.5,14.1c-0.2,2,1.9,2.9,3,4.2
	c2.8-6.8,2.4-14.2,3.9-21.3c1.5-7.5,2-15.2,4.4-22.5c2.2-6.8,3.8-13.8,6.8-20.3c1.7-3.8,3.3-7.7,3.7-11.9c1.1-12.8,1.2-25.7,3-38.4
	c1.6-12.6,2.2-25.5,6.3-37.6c3.3-10.4,5.3-21.1,7.3-31.8c1.6-11.1,4.5-22.1,5.7-33.3c2.3-14.4,4.9-28.8,7.8-43.1
	c2-13.1,4.9-26.1,5.4-39.4c0.5-12.4,2.2-24.7,3.2-37.1c0.7-8.1,2-16.5,6.3-23.6c3.3-5.5,9.4-9.6,16-9.5c4.8,0,10.4,1,13.3,5.3
	c4.5,6.5,5.7,14.6,6.2,22.4c0.3,8.3,1.3,16.6,1.1,24.9c-0.2,8.4,1.2,16.6,1.1,25c-0.1,7.3,1,14.6,0.9,22c-0.1,14.3,0,28.7,0,43
	c-0.1,7.4,0.2,14.8-0.6,22.2c-0.6,5.1-1.1,10.3-0.8,15.5c0.7,15.8,0,31.5,0.4,47.3c0.7,11.1,2.2,22.1,4.3,33c1.9,8.3,3.2,16.9,6,25
	c1.3-0.4,2.5-0.7,3.7-1c-0.7-8-2.8-15.7-4.1-23.5c-2.1-11.5-3.8-23-4.5-34.6c-1.1-12-0.5-24.1-0.8-36.1c0.3-2.2-0.5-5.5,2-6.7
	c8.7-4.8,20.2-4.6,28.6,0.9c8,6.5,9.6,17.3,12.2,26.7c6.6,23.2,12.7,46.7,22,69c3.8,9.5,3.1,20,3.6,30c0.7,0.5,2.1,1.6,2.8,2.1
	c3-5.9,1.8-12.6,1.8-19c-0.1-8.9-4.4-16.8-7.4-24.9c-3.5-8.9-6-18-8.8-27.1c-3-10.1-6.5-20.1-8.1-30.6c9.7-1.3,21.3-0.9,28.4,7
	c9.8,11.8,15.4,26.4,21.5,40.4c6.7,14.5,15.2,28.1,22.6,42.3c4.4,7.5,8.6,15.3,14.6,21.7c0.7-1.5,2.4-2.9,1.8-4.7
	c-1.4-4.2-4.4-7.6-6.7-11.4c-10.2-17.1-20-34.5-28.6-52.4c-0.9-2.3-1.2-4.6-1.6-7c3.9-0.2,8.1-0.9,11.6,1c5.1,2.8,8.6,7.6,11.5,12.4
	c7.6,12.9,15.9,25.4,23.4,38.5c5.6,8.8,9.7,18.5,13.9,28c6.2,14.5,9.4,31.1,5.6,46.7c-7.4,28.2-17.6,55.5-28.4,82.6
	c-7.5,20.4-16.2,40.4-24.3,60.6c-7.4,18.9-7.9,39.6-5.8,59.5c0.6,9.1,2.7,18.1,5.5,26.8c3.1,13,7.6,25.7,12.1,38.3h5.4
	c-1.8-4.7-3.2-9.5-5.1-14.2c-3.4-8.7-5.4-17.9-8.2-26.8c-3.8-12.3-5.7-25.1-5.8-38c0-8.8-0.6-17.7,1.5-26.3
	c3.4-17.4,11.8-33.3,18.3-49.7c7.4-17.9,13.9-36,21-54c7.1-20.3,15-40.5,19.5-61.6c3-18-2.3-36.2-9.5-52.6
	c-6.6-15.9-16.2-30.3-25-45c-4.7-8.4-9.3-17-15.7-24.3c-2.9-3.2-6.1-6.3-10.1-7.9c-4.8-1.6-9.9-0.3-14.8,0
	c-3.8-6.9-7.2-14-11.6-20.5c-3.7-5.5-7.3-11.8-13.9-14.2c-7.1-2.9-14.8-2.3-22.3-2c-2.6,0.5-3.5-2.4-4.2-4.3
	c-2-5.7-3.5-11.9-7.4-16.8c-3.9-5-10.1-7.4-16.1-8.8c-6.8-1.5-13.8-0.5-20.5,0.7c-0.1-5.1,0-10.1,0.5-15.1c1-10.9-0.1-21.8,0.9-32.7
	c6.7-0.7,13.3-0.6,20-0.5c73.7,0,147.4-0.1,221.1,0c3.6-0.1,7.5-0.7,10.1-3.4c2.2-2.1,2.4-5.3,2.5-8.1
	C422.6,269.3,422.5,146.6,422.6,23.9z M414.9,395.8c-2.5,1.1-5.3,0.8-7.9,0.9c-60-0.3-119.9,0.1-179.8,0c0,0,0,0,0,0
	c-0.2,0-0.4,0-0.5,0c-0.5,0.2-1.1,0.3-1.7,0.3c-0.3,0-0.5,0-0.8-0.1c-0.3,0-0.6,0.1-0.9,0.1c-0.3,0-0.5,0-0.7-0.1
	c-3.5,0.3-7,0.3-10.5,0.1c-7-0.5-14,0.4-21,0.2c-7.5-0.2-15.1-0.3-22.6-0.4c-2.2-19.9,0.2-40-2.2-59.8c-1.5-12,0.1-24.1-1.5-36.1
	c-0.9-9-2.1-19-8.8-25.7c-10.7-8.4-28.8-6.2-36.1,5.7c-6.7,12.6-7.7,27.1-8.4,41.1c-1.9,18.6-3.2,37.2-5.9,55.6
	c-1.2,6.3-3,12.6-4.2,18.9c-8.1,0.7-16.2,0-24.3,0.2c-10.9,0-21.9,0.4-32.9-0.1c-6.4,0-11.1-6.4-10.7-12.5
	c0.1-117.6-0.1-235.3-0.1-353c0.2-4.6-1.1-10.4,3.1-13.6c4.1-4.1,10.3-3.1,15.6-3.1c57,0.1,114-0.2,171,0c0,0,0,0.1,0,0.1
	c0.3-0.1,0.7-0.1,1.1-0.1c0.2,0,0.5,0,0.7,0c0,0,0,0,0,0c0.2,0,0.5,0,0.7,0c0.2,0,0.4,0,0.6,0c0.2,0,0.3,0,0.5,0c0.1,0,0.2,0,0.3,0
	c0-0.1,0-0.1,0-0.2c22.7-0.1,45.4-0.1,68,0c7-0.1,14-0.5,21-0.2c14.7,0.6,29.3-0.3,44-0.1c15,0.2,30.1-0.5,45.1,0.1
	c6.4-0.1,12.8,5.4,12.5,12c-0.1,121.7,0.1,243.4,0,365.1C417.7,393,416.7,395,414.9,395.8z"/>
<path d="M134.2,279c4.9-0.9,10.1,0,14.7,2c3.5,1.6,6.6,4.8,6.4,8.9c0.2,8.2-0.5,16.4-0.9,24.6c-3.9,5.4-11.5,5.5-17.5,5.8
	c-4.6-0.2-11.1,0-13.2-5.1c-3.5-7.7-1-16.3-0.2-24.3C123.9,285.1,128.4,279.8,134.2,279 M133.3,283.2c-3.1,1-5.5,3.6-6.2,6.8
	c-1.7,6.5-2.1,13.4-1.9,20.1c-0.2,4.7,5.1,6.6,9,6.6c5.7,0,12.1,0.1,17-3.4c1.5-5.7,1-11.7,1.4-17.5c0.1-4,0-9.1-4.1-11.2
	C143.8,282.4,138.3,281.8,133.3,283.2z"/>
<path d="M122,420.1c5.2-1.6,10.6-2,16-2.1c3.2,0.2,7.6,0.4,8.7,4.1c-3.5,0.3-6.9,0.2-10.4-0.1c1.3,1.1,2.1,2.7,3.3,3.8
	c-6.6-0.9-13.1-1.7-19.7-2.4C120.6,422.2,120.3,420.3,122,420.1z"/>
<path d="M114.6,430.6c1.3-0.6,2.6-1.8,4.2-1.3c4.4,0.6,8.7,2.2,13.1,2.4c5.6,0.5,11-1.3,16.4-2.3c0.1,0.6,0.4,1.9,0.5,2.5
	c-8.1,3.4-17.2,3.6-25.8,2.1C120,433.5,117.2,432.1,114.6,430.6z"/>
</svg>
