<svg height="960" viewBox="0 0 960 960" width="960" xmlns="http://www.w3.org/2000/svg"><path d="m276.459953-.4003595c2.390547 0 4.834582.0998988 7.339327.29325792.367384.028361.734358.06179712 1.100818.10029878l15.676201 1.64700007c.288502.0303111.576666.06375974.86444.10033997l2.785855.34764863 2.524038.30153762c.199355.02320237.395954.04592275.589792.0681607.394941.04530938.789185.09650379 1.182599.15356618l504.127121 73.12083373c28.938202 4.0826793 50.759323 28.3607259 51.751755 57.5650499l23.454272 694.277016c1.04617 31.025651-21.666351 57.758662-52.453652 61.733813l-506.812928 65.444339-.88054.106125c-1.749693.197462-3.434251.307333-5.111011.349927l-.7484.013446-50.166227 2.657641-.856922.057562c-2.314293.139027-4.633255.208272-6.953938.208272h-1.27193c-6.358865-.07667-12.704582-.668898-18.973665-1.777174l-23.287318-4.127301-.900719-.140358c-31.347837-5.168926-54.51817-32.305813-54.51817-64.268968l-.000338-146.206033-5.715639.000667-.306345-.003766c-6.61803-.162887-11.951656-5.588507-11.951656-12.236234v-13.347001l17.97364.994334v-3.606l-6.127119-.342134.145228-.320562c.642044-1.50419.792572-3.110718.792572-4.276638 0-1.6164-.2916-3.2742-.855-4.6926l5.0634.279.980919.053934v-3.606l-10.226799-.565254-.1143-.007425-.1143-.003375-7.518601-.4158v-25.804801l6.7572.3798 9.385201.5256 1.831599.101255v-3.605l-6.135219-.344655.136373-.296226c.525931-1.206572.81555-2.671282.812227-4.326175-.0018-1.6092-.2934-3.2562-.855-4.671l6.041619.337056v-3.607l-10.217439-.578816-.204075-.01485-.208125-.00135-7.344001-.4122v-24.082201l6.7662.4194 10.157401.6264 1.050039.064617v-3.608l-6.226299-.385117.130898-.283843c.591614-1.348741.912382-3.033557.902302-4.973957-.0072-1.845-.3222-3.7008-.9306-5.2506l5.6754.3456.448299.026917v-3.607l-17.97364-1.096138v-24.654601l17.97364 1.095739v-3.605l-6.238719-.383159.154168-.334761c.732282-1.686076.895232-3.540639.895232-4.863639 0-1.8684-.3132-3.7476-.927-5.3136l4.3902.2664 1.726119.103759v-3.606l-17.97364-1.095679v-10.222201l.003215-.315962c.169022-8.300374 6.98209-15.002038 15.332786-15.002038l2.637639-.00012v-134.313l-5.715639.000354-.306345-.003766c-6.61803-.162887-11.951656-5.588507-11.951656-12.236234v-13.347001l17.97364.994647v-3.607l-6.127119-.341447.145228-.320562c.642044-1.50419.792572-3.110718.792572-4.276638 0-1.6164-.2916-3.2742-.855-4.6944l5.0634.2808.980919.054247v-3.606l-10.226799-.566467-.1143-.00675-.1143-.00405-7.518601-.414v-25.804801l6.7572.378v.0018l9.385201.5238 1.831599.101468v-3.606l-6.135219-.342968.136373-.296256c.525931-1.206798.81555-2.672914.812227-4.326145-.0018-1.6092-.2934-3.2562-.855-4.671l6.041619.337369v-3.608l-10.217439-.578309-.204075-.01485-.208125-.00135-7.344001-.4122v-24.082201l6.7662.4176v.0018l10.157401.6264 1.050039.06411v-3.608l-6.226299-.38443.130898-.284179c.591614-1.350197.912382-3.034901.902302-4.973621-.0072-1.845-.3222-3.7008-.9306-5.2506l5.6754.3456.448299.02623v-3.607l-17.97364-1.095451v-24.654601l17.97364 1.096052v-3.605l-6.238719-.383472.154168-.334761c.732282-1.686076.895232-3.540639.895232-4.863639 0-1.8684-.3132-3.7476-.927-5.3136l4.3902.2664 1.726119.104072v-3.606l-17.97364-1.095992v-10.222201l.003215-.315962c.169022-8.300374 6.98209-15.002038 15.332786-15.002038l2.637639-.000807.000338-152.3925994c0-32.6111811 24.745388-59.89814708 57.198892-63.07957614l.653168-.05862866.65404-.04791257 1.211789-.07992423 45.110908-3.47768589c2.201066-.18888307 4.435981-.27967361 6.710405-.27967361zm-24.286442 41.7530531-24.767159 1.909947-1.384201.09c-11.9718 1.1736001-21.1014 11.2392005-21.1014 23.270401v821.2086324c0 12.587401 9.3132 23.236201 21.7854 24.915601l23.884201 4.2318c1.555136.274924 3.117278.501473 4.684185.679409-2.183252-4.934901-3.407902-10.752793-3.51361-17.427137l-1.184565-841.1006274.004174-1.2858636.012837-1.2502447.021966-1.2155684c.004447-.1997574.009295-.3981092.014552-.5950752l.036533-1.1653216c.006934-.1915008.014297-.381655.022098-.5704822l.052151-1.117196c.009595-.1835977.019648-.3659076.030169-.5469495l.068818-1.0711915c.239888-3.3972568.661226-6.3369234 1.333851-8.9601333zm18.473902 69.0759474 1.1102 789.364051.010508.582371c.22884 8.671489 2.990084 12.981855 7.599859 15.247944 1.567084.770352 3.327998 1.274156 5.14548 1.534648l-.062047-.010014 10.170944-.537781c-.982861-2.862058-1.556431-5.925498-1.645854-9.126019zm18.540134-52.2492589 23.781133 848.7451349c.099437 3.558911 1.915983 6.624066 4.596587 8.469811l3.135088-.166653.2214.0018c.8406 0 1.6884-.0378 2.5452-.1476l506.81342-65.444402c10.330201-1.3338 17.949601-10.303201 17.598601-20.712601l-23.454001-694.269028c-.188765-5.554798-2.622877-10.578626-6.46462-14.138029-.247114-.053442-.497434-.098161-.750844-.134003l-515.982796-73.0248972c-6.469326-.9156603-12.218284 4.2365646-12.039168 10.8204673zm228.711397 776.9487429c3.686029-10.705007 13.658978-16.97806 22.275203-14.011256 8.616226 2.966805 12.612939 14.049998 8.926909 24.755006-3.686029 10.705007-13.658978 16.97806-22.275203 14.011256-8.616226-2.966805-12.612939-14.049998-8.926909-24.755006zm114.511647-11.581722c3.41632-9.921714 12.659541-15.735763 20.645311-12.986042s11.690041 13.021949 8.273721 22.943663c-3.41632 9.921715-12.659541 15.735764-20.645311 12.986043s-11.690041-13.021949-8.273721-22.943664z"/></svg>