<?xml version="1.0" encoding="UTF-8"?>
<!DOCTYPE svg PUBLIC "-//W3C//DTD SVG 1.1//EN" "http://www.w3.org/Graphics/SVG/1.1/DTD/svg11.dtd">
<!-- Creator: CorelDRAW X8 -->
<svg xmlns="http://www.w3.org/2000/svg" xml:space="preserve" width="210mm" height="210mm" version="1.1" style="shape-rendering:geometricPrecision; text-rendering:geometricPrecision; image-rendering:optimizeQuality; fill-rule:evenodd; clip-rule:evenodd"
viewBox="0 0 21000 21000"
 xmlns:xlink="http://www.w3.org/1999/xlink">
 <defs>
  <style type="text/css">
   <![CDATA[
    .fil0 {fill:#2B2A29;fill-rule:nonzero}
   ]]>
  </style>
 </defs>
 <g id="Слой_x0020_1">
  <metadata id="CorelCorpID_0Corel-Layer"/>
  <path class="fil0" d="M2941 2285l952 -432c50,-22 109,0 132,50 18,40 8,86 -23,114 -55,63 -76,141 -76,221 0,92 25,189 56,274l6402 17515c20,54 68,107 126,145 53,35 111,55 157,48l30 197 -1340 211c-123,20 -251,-25 -360,-104 -112,-82 -207,-204 -252,-327l-6308 -17068c-87,-236 -57,-405 51,-542 99,-126 261,-214 453,-302zm793 -140l-711 322c-167,76 -304,149 -378,243 -64,82 -80,190 -21,350l6308 17068c33,88 101,175 183,235 68,50 145,79 212,69l993 -157c-55,-52 -99,-115 -123,-180l-6402 -17515c-38,-103 -68,-222 -68,-342 0,-31 2,-62 7,-93z"/>
  <path class="fil0" d="M12876 582l-3347 513 -5006 763c-152,23 -246,64 -286,129 -40,64 -32,164 20,307 1111,3002 2229,5981 3370,8891 1142,2910 2307,5754 3512,8489 16,36 43,75 78,112 57,63 134,119 215,151 73,28 150,35 217,5 23,-10 46,-24 67,-44l3902 -3586 2 -2 2689 -2363c179,-157 84,-404 11,-594 -15,-37 -28,-73 -32,-83 -990,-2767 -1576,-4376 -2236,-6030 -662,-1658 -1405,-3376 -2708,-6359 -66,-151 -112,-243 -171,-283 -55,-38 -142,-40 -297,-16zm-3376 315l3346 -513c209,-32 335,-23 440,49 100,68 160,183 241,369 1302,2980 2044,4697 2710,6365 668,1672 1253,3279 2239,6036 15,42 22,60 30,79 94,246 217,566 -65,815l-2688 2361 0 1 -3902 3586c-38,35 -79,62 -121,80 -121,53 -250,44 -370,-3 -111,-42 -214,-118 -290,-201 -50,-53 -89,-111 -113,-167 -1206,-2735 -2373,-5582 -3516,-8496 -1143,-2914 -2261,-5894 -3371,-8896 -75,-202 -77,-359 -3,-479 73,-120 214,-191 426,-223l5007 -763z"/>
  <polygon class="fil0" points="10613,20247 11085,19793 11223,19937 10697,20417 "/>
  <polygon class="fil0" points="3902,1850 4244,1732 4309,1920 3966,2039 "/>
 </g>
</svg>
