<?xml version="1.0" encoding="UTF-8" ?>
<!DOCTYPE svg PUBLIC "-//W3C//DTD SVG 1.1//EN" "http://www.w3.org/Graphics/SVG/1.1/DTD/svg11.dtd">
<svg width="677pt" height="677pt" viewBox="0 0 677 677" version="1.1" xmlns="http://www.w3.org/2000/svg">
<g id="#fefefeff">
</g>
<g id="#0d0d0eff">
<path fill="#0d0d0e" opacity="1.00" d=" M 316.23 10.59 C 324.82 10.50 333.36 12.00 341.98 11.59 C 346.36 11.42 350.59 13.54 355.00 12.07 C 358.70 11.72 362.40 13.76 366.02 12.26 C 370.44 14.87 375.61 12.56 380.32 13.54 C 387.95 13.89 395.70 14.24 403.26 15.40 C 406.22 15.39 409.03 17.16 412.00 16.37 C 430.18 20.45 448.32 25.26 464.84 34.06 C 470.84 36.01 476.24 39.73 482.16 41.93 C 492.59 49.17 504.12 55.13 513.26 63.74 C 520.07 66.96 525.00 73.44 530.80 78.19 C 533.50 82.80 538.15 85.45 541.72 89.27 C 543.81 92.83 547.88 94.69 549.40 98.65 C 555.17 103.26 558.83 109.80 563.96 115.04 C 573.61 125.87 580.05 138.97 588.12 150.91 C 592.45 156.34 594.11 163.29 598.05 168.99 C 603.88 178.15 606.10 189.04 611.48 198.40 C 612.11 204.34 616.45 209.02 617.06 214.99 C 618.06 220.72 621.21 225.72 622.53 231.35 C 624.78 242.58 629.41 253.27 630.56 264.72 C 630.79 272.54 633.63 279.95 634.35 287.71 C 638.77 319.58 640.51 351.94 636.99 383.99 C 635.95 402.02 631.52 419.58 628.38 437.30 C 627.10 446.55 621.63 454.61 620.81 463.93 C 615.35 476.09 612.40 489.24 606.25 501.13 C 596.84 526.38 580.60 548.28 564.88 569.87 C 560.78 573.09 558.90 578.61 554.04 581.02 C 537.32 599.70 516.92 614.85 494.89 626.83 C 485.69 631.04 476.86 636.80 466.80 638.79 C 462.58 641.80 457.15 640.54 453.08 643.42 C 442.22 646.59 431.28 649.49 420.08 651.26 C 397.46 656.91 374.56 663.05 351.26 663.68 C 336.61 663.42 321.89 663.61 307.40 660.68 C 306.64 658.49 304.01 660.09 302.29 659.41 C 294.62 657.33 287.04 655.02 279.14 653.82 C 276.70 651.57 272.58 652.65 270.61 649.59 C 268.58 650.21 267.65 648.37 265.76 648.19 C 247.79 639.90 229.32 631.50 213.95 619.05 C 202.26 612.15 192.84 602.09 182.92 593.08 C 178.20 586.53 171.21 581.98 166.63 575.32 C 160.50 569.41 155.57 562.14 150.10 555.94 C 148.79 552.33 146.14 549.19 143.45 546.52 C 133.79 531.85 123.61 517.37 117.00 500.99 C 111.51 491.25 107.63 480.74 103.60 470.32 C 101.41 464.34 98.29 458.62 97.62 452.18 C 92.35 438.38 88.80 424.03 85.41 409.67 C 83.29 396.11 79.37 382.79 78.85 369.08 C 75.81 359.29 77.78 349.00 76.14 339.01 C 74.14 308.78 76.71 278.36 82.51 248.65 C 86.67 222.71 94.19 197.43 104.12 173.08 C 107.86 160.15 116.04 149.23 120.75 136.72 C 131.27 118.82 143.75 102.09 157.61 86.64 C 161.76 80.13 168.89 76.51 173.46 70.41 C 191.64 54.21 211.28 39.24 233.89 29.80 C 242.17 25.52 250.96 21.92 260.09 20.15 C 266.39 16.57 273.81 15.61 280.92 14.79 C 286.68 12.53 293.00 13.24 298.98 11.99 C 304.64 10.76 310.48 11.00 316.23 10.59 M 304.32 20.43 C 300.19 21.22 295.96 22.17 291.76 21.59 C 282.26 23.93 272.18 25.07 262.91 28.76 C 258.20 29.45 254.12 32.26 249.34 32.64 C 242.60 36.19 235.39 38.80 228.97 42.94 C 221.31 45.71 214.87 50.76 207.94 54.91 C 202.03 58.22 197.81 63.85 191.39 66.38 C 186.98 74.06 178.60 78.31 172.36 84.34 C 169.40 87.94 166.81 92.46 162.42 94.43 C 160.58 99.42 156.16 102.89 153.05 107.05 C 127.44 138.59 110.74 176.09 99.84 214.97 C 97.37 223.31 96.91 232.17 93.28 240.16 C 92.08 248.01 91.42 255.96 89.63 263.71 C 87.06 272.25 88.01 281.31 86.11 289.99 C 82.30 353.97 92.98 419.36 117.06 478.98 C 123.02 495.51 132.65 510.32 141.59 525.36 C 147.55 535.55 155.23 544.57 161.32 554.68 C 164.38 557.02 166.56 560.25 168.52 563.52 C 175.29 570.76 181.92 578.00 188.48 585.51 C 192.49 588.82 196.77 591.89 199.82 596.19 C 215.26 609.57 232.68 620.38 250.35 630.62 C 259.38 634.00 267.69 639.29 277.10 641.78 C 282.31 643.16 287.19 646.72 292.64 646.43 C 295.42 648.97 299.27 648.35 302.70 648.66 C 307.06 650.27 311.70 650.94 316.27 651.71 C 330.52 655.14 345.21 653.47 359.72 653.44 C 363.10 652.48 366.49 651.97 369.97 652.69 C 379.84 650.12 390.14 649.37 399.70 645.62 C 402.94 644.52 406.68 644.93 409.38 642.46 C 427.16 637.15 442.21 627.83 457.20 617.25 C 460.18 615.57 462.19 612.32 465.69 611.59 C 469.10 608.84 471.77 605.31 475.20 602.57 C 477.03 602.75 477.59 600.75 478.94 599.94 C 491.10 589.72 501.28 577.48 511.00 565.01 C 525.17 544.44 538.45 522.67 547.03 499.04 C 565.63 456.36 575.31 409.83 575.62 363.25 C 577.65 349.85 573.82 336.44 574.76 323.09 C 572.74 311.47 573.59 299.37 570.21 287.93 C 565.58 251.11 553.69 215.55 538.11 181.96 C 533.58 170.42 526.43 160.20 520.84 149.19 C 517.78 142.37 512.41 136.90 508.35 130.69 C 494.10 108.54 475.74 89.15 455.31 72.70 C 452.49 68.77 447.93 66.70 444.28 63.68 C 422.48 45.47 395.70 34.80 368.93 26.21 C 360.08 24.45 351.08 22.89 342.30 21.44 C 341.09 21.85 339.88 22.07 339.72 20.44 C 336.80 20.81 333.88 20.48 330.97 20.70 C 322.18 19.12 313.17 20.84 304.32 20.43 M 399.92 24.18 C 400.02 28.90 406.33 29.63 409.91 31.13 C 416.28 35.63 424.01 38.13 430.52 42.46 C 450.68 54.92 469.35 70.14 485.53 87.46 C 513.46 115.54 533.66 150.01 550.52 185.63 C 560.73 209.36 569.66 233.76 575.00 259.00 C 578.31 270.40 578.52 282.41 581.00 294.00 C 583.76 313.99 585.34 333.82 585.96 354.00 C 583.57 367.25 586.54 381.00 583.20 394.08 C 581.31 415.09 578.16 436.01 572.41 456.33 C 568.57 465.35 567.42 475.27 563.21 484.17 C 561.06 488.97 560.79 494.44 558.00 498.97 C 550.64 515.77 542.65 532.65 533.24 548.16 C 532.92 552.07 528.97 554.02 527.35 557.32 C 523.78 562.19 520.76 567.42 517.61 572.57 C 517.09 572.78 516.06 573.19 515.55 573.39 C 513.15 578.87 508.67 583.24 504.41 587.37 C 501.80 592.20 497.65 595.97 493.52 599.50 C 483.32 611.59 469.46 619.44 457.79 629.91 C 468.43 629.40 477.98 623.40 487.92 619.88 C 496.01 614.62 505.35 611.18 512.51 604.56 C 517.51 601.71 521.92 597.99 526.53 594.57 C 528.12 591.78 530.73 589.97 533.53 588.54 C 536.35 584.05 541.26 581.62 544.51 577.53 C 546.82 574.83 548.76 571.76 551.69 569.69 C 580.51 536.84 601.15 497.11 613.12 455.02 C 620.40 435.39 622.49 414.36 626.92 394.02 C 626.96 391.51 627.04 386.50 627.08 383.99 C 626.49 378.86 629.98 374.05 628.41 369.00 C 630.31 343.27 628.68 317.46 625.23 291.93 C 621.24 268.64 618.44 244.65 609.46 222.66 C 608.34 215.79 605.29 209.48 603.09 202.93 C 584.73 157.79 557.82 115.32 521.06 82.94 C 518.56 79.10 514.21 77.07 511.52 73.44 C 501.25 66.31 491.79 57.90 480.38 52.54 C 472.11 46.50 462.25 43.85 453.64 38.50 C 446.32 36.48 439.57 32.87 432.29 30.72 C 428.28 30.50 424.55 28.70 420.69 27.47 C 413.78 27.77 406.82 25.08 399.92 24.18 Z" />
<path fill="#0d0d0e" opacity="1.00" d=" M 290.30 294.39 C 294.02 294.96 298.25 292.91 301.41 295.48 C 305.22 297.03 308.55 299.73 312.68 300.41 C 314.82 302.01 317.42 305.27 320.34 303.39 C 325.91 300.19 331.68 297.39 337.31 294.31 C 341.21 295.03 346.99 292.46 349.83 296.24 C 350.08 303.09 350.18 309.96 349.86 316.82 C 346.52 319.69 342.12 321.22 338.18 323.01 C 336.86 319.72 338.14 316.28 336.82 312.99 C 330.61 314.90 325.38 319.33 319.27 321.56 C 313.10 318.97 306.99 316.21 301.11 313.08 C 298.42 321.03 300.81 330.53 300.01 339.01 C 303.17 345.32 296.47 344.10 294.21 347.17 C 292.50 347.97 289.45 350.14 288.17 347.76 C 287.89 330.23 287.87 312.68 288.13 295.17 C 288.67 294.97 289.76 294.58 290.30 294.39 Z" />
<path fill="#0d0d0e" opacity="1.00" d=" M 348.80 326.11 C 351.83 336.44 349.45 347.51 347.85 357.93 C 344.60 364.59 341.08 371.44 334.82 375.81 C 330.72 380.46 324.05 379.33 318.76 381.51 C 309.32 381.16 301.64 375.18 295.35 368.74 C 295.19 364.35 290.99 361.33 290.99 357.10 C 293.52 353.60 298.13 352.65 301.81 351.04 C 304.99 356.61 308.94 362.91 315.67 364.44 C 322.34 365.87 329.40 362.91 333.00 357.00 C 337.90 349.72 337.94 340.59 338.17 332.18 C 341.19 329.39 345.42 328.44 348.80 326.11 Z" />
</g>
</svg>
