<?xml version="1.0" encoding="UTF-8" standalone="no"?>
<svg
   xmlns:dc="http://purl.org/dc/elements/1.1/"
   xmlns:cc="http://creativecommons.org/ns#"
   xmlns:rdf="http://www.w3.org/1999/02/22-rdf-syntax-ns#"
   xmlns:svg="http://www.w3.org/2000/svg"
   xmlns="http://www.w3.org/2000/svg"
   xmlns:sodipodi="http://sodipodi.sourceforge.net/DTD/sodipodi-0.dtd"
   xmlns:inkscape="http://www.inkscape.org/namespaces/inkscape"
   width="677pt"
   height="677pt"
   viewBox="0 0 677 677"
   version="1.1"
   id="svg2"
   inkscape:version="0.91 r13725"
   sodipodi:docname="xiaomi_button_icon.svg">
  <metadata
     id="metadata16">
    <rdf:RDF>
      <cc:Work
         rdf:about="">
        <dc:format>image/svg+xml</dc:format>
        <dc:type
           rdf:resource="http://purl.org/dc/dcmitype/StillImage" />
      </cc:Work>
    </rdf:RDF>
  </metadata>
  <defs
     id="defs14" />
  <sodipodi:namedview
     pagecolor="#ffffff"
     bordercolor="#666666"
     borderopacity="1"
     objecttolerance="10"
     gridtolerance="10"
     guidetolerance="10"
     inkscape:pageopacity="0"
     inkscape:pageshadow="2"
     inkscape:window-width="1408"
     inkscape:window-height="728"
     id="namedview12"
     showgrid="false"
     inkscape:zoom="0.2788774"
     inkscape:cx="423.125"
     inkscape:cy="423.125"
     inkscape:window-x="0"
     inkscape:window-y="0"
     inkscape:window-maximized="0"
     inkscape:current-layer="svg2" />
  <g
     id="#fefefeff" />
  <g
     id="#0d0d0eff">
    <path
       style="opacity:1;fill:#000000"
       d="m 316.23,10.59 c 49.88357,3.497858 102.76291,-1.1957764 148.61,23.47 56.29625,24.636591 98.65597,73.11575 128.39125,125.78875 46.15763,86.9806 57.69052,192.19503 32.40727,287.48467 -17.36448,62.32171 -49.60224,123.22377 -102.94179,161.92241 -42.95377,33.62644 -97.94307,41.30551 -149.70651,52.40239 C 316.46778,670.07793 259.49769,652.82014 213.95,619.05 148.76773,571.74801 106.48218,498.04215 88.006875,420.42969 62.987543,321.35716 75.722667,211.387 128.99844,123.51609 168.90332,61.135523 236.19815,12.828432 311.90484,10.80875 L 316.23,10.59 Z m -11.91,9.84 C 250.72092,24.680248 200.43626,52.572642 165.40891,92.528594 113.29563,148.46189 90.262504,226.87656 85.565164,302.00102 83.416374,392.86847 106.68884,487.71308 165.3325,558.75125 210.48758,618.1651 283.89086,659.38671 359.72,653.44 434.92565,647.99039 499.67159,594.75209 533.38897,529.0416 569.59209,460.87939 582.46564,381.72859 572.995,305.4425 561.70479,206.02102 512.921,106.50855 427.07422,51.350938 389.92794,29.055244 347.04409,17.302411 304.32,20.43 Z m 95.6,3.75 c 23.21354,15.948158 52.42743,28.889978 73.02375,50.694062 C 542.99024,140.7481 579.98679,236.42792 584.8459,331.41826 589.26454,406.55862 572.31251,483.43569 533.24,548.16 c -18.63781,32.20397 -44.81652,59.68102 -75.45,81.75 49.51301,-11.02639 88.48124,-48.59926 116.26482,-89.46929 53.32397,-81.73692 66.20651,-184.853 46.00446,-279.25469 C 602.6169,175.01209 551.61116,92.306089 473.92375,48.550469 450.6451,36.193965 426.13389,27.353584 399.92,24.18 Z"
       id="path6"
       inkscape:connector-curvature="0" />
    <path
       style="opacity:1;fill:#000000"
       d="m 290.3,294.39 c 3.66977,0.57256 7.88384,-1.47728 11.11,1.09 3.79736,1.54466 7.14422,4.25033 11.27,4.93 2.40526,2.43266 6.11719,5.14788 9.23156,2.08999 5.07612,-2.83587 10.29781,-5.39957 15.39844,-8.18999 3.83796,0.67563 8.19689,-1.43826 11.6477,1.02636 2.0192,3.03785 0.57381,7.56304 1.10105,11.18989 -0.53875,3.55803 1.09031,8.27787 -1.16482,11.06692 -3.23722,2.40643 -7.07379,3.76304 -10.71393,5.41683 -1.58954,-2.90435 0.5187,-8.23956 -1.93937,-9.8337 -6.01994,2.02949 -11.01587,6.20609 -16.97063,8.3837 -6.16101,-2.5866 -12.2592,-5.33946 -18.16,-8.48 -2.72141,8.42175 -0.27564,17.31072 -1.1,25.93 2.16744,2.80717 -0.20546,5.75 -3.15763,6.32476 -2.29527,1.05383 -3.98375,3.22044 -6.65966,3.4954 -3.31173,-0.0342 -1.65122,-4.29627 -2.09996,-6.41189 -0.2038,-15.74859 -0.19651,-31.50005 0.0372,-47.24827 0.7214,-0.26535 1.44531,-0.52382 2.17,-0.78 z"
       id="path8"
       inkscape:connector-curvature="0" />
    <path
       style="opacity:1;fill:#000000"
       d="m 348.8,326.11 c 3.02752,10.44506 0.65252,21.35077 -0.95,31.82 -3.22448,6.63799 -6.81612,13.55425 -13.03,17.88 -4.07594,4.6198 -10.81148,3.545 -16.06,5.7 -9.32224,-0.3233 -17.17819,-6.33488 -23.41,-12.77 -0.13147,-4.33016 -4.30436,-7.29898 -4.36,-11.64 2.56737,-3.50669 7.05055,-4.42059 10.82,-6.06 3.17382,5.59741 7.14665,11.85048 13.86,13.4 7.02927,1.61305 14.68131,-2.11368 17.98755,-8.47568 4.24945,-7.14513 4.29321,-15.72704 4.51245,-23.78432 3.05241,-2.80944 7.26534,-3.74533 10.63,-6.07 z"
       id="path10"
       inkscape:connector-curvature="0" />
  </g>
</svg>
