<?xml version="1.0" encoding="utf-8"?>
<!-- Generator: Adobe Illustrator 21.1.0, SVG Export Plug-In . SVG Version: 6.00 Build 0)  -->
<svg version="1.1"
	 id="svg2" inkscape:version="0.91 r13725" sodipodi:docname="xiaomi_button_icon.svg" xmlns:cc="http://creativecommons.org/ns#" xmlns:dc="http://purl.org/dc/elements/1.1/" xmlns:inkscape="http://www.inkscape.org/namespaces/inkscape" xmlns:rdf="http://www.w3.org/1999/02/22-rdf-syntax-ns#" xmlns:sodipodi="http://sodipodi.sourceforge.net/DTD/sodipodi-0.dtd" xmlns:svg="http://www.w3.org/2000/svg"
	 xmlns="http://www.w3.org/2000/svg" xmlns:xlink="http://www.w3.org/1999/xlink" x="0px" y="0px" viewBox="0 0 677 677"
	 style="enable-background:new 0 0 677 677;" xml:space="preserve">
<sodipodi:namedview  bordercolor="#666666" borderopacity="1" gridtolerance="10" guidetolerance="10" id="namedview12" inkscape:current-layer="svg2" inkscape:cx="423.125" inkscape:cy="423.125" inkscape:pageopacity="0" inkscape:pageshadow="2" inkscape:window-height="728" inkscape:window-maximized="0" inkscape:window-width="1408" inkscape:window-x="0" inkscape:window-y="0" inkscape:zoom="0.2788774" objecttolerance="10" pagecolor="#ffffff" showgrid="false">
	</sodipodi:namedview>
<g id="_x23_fefefeff">
</g>
<g id="_x23_0d0d0eff">
	<path id="path6" inkscape:connector-curvature="0" d="M316.2,10.6c49.9,3.5,102.8-1.2,148.6,23.5c56.3,24.6,98.7,73.1,128.4,125.8
		c46.2,87,57.7,192.2,32.4,287.5c-17.4,62.3-49.6,123.2-102.9,161.9c-43,33.6-97.9,41.3-149.7,52.4c-56.5,8.4-113.5-8.8-159-42.6
		C148.8,571.7,106.5,498,88,420.4c-25-99.1-12.3-209,41-296.9C168.9,61.1,236.2,12.8,311.9,10.8L316.2,10.6z M304.3,20.4
		c-53.6,4.3-103.9,32.1-138.9,72.1C113.3,148.5,90.3,226.9,85.6,302c-2.1,90.9,21.1,185.7,79.8,256.8
		c45.2,59.4,118.6,100.6,194.4,94.7c75.2-5.4,140-58.7,173.7-124.4c36.2-68.2,49.1-147.3,39.6-223.6
		C561.7,206,512.9,106.5,427.1,51.4C389.9,29.1,347,17.3,304.3,20.4z M399.9,24.2c23.2,15.9,52.4,28.9,73,50.7
		c70,65.9,107,161.6,111.9,256.5c4.4,75.1-12.5,152-51.6,216.7c-18.6,32.2-44.8,59.7-75.5,81.8c49.5-11,88.5-48.6,116.3-89.5
		c53.3-81.7,66.2-184.9,46-279.3C602.6,175,551.6,92.3,473.9,48.6C450.6,36.2,426.1,27.4,399.9,24.2z"/>
	<path id="path8" inkscape:connector-curvature="0" d="M290.3,294.4c3.7,0.6,7.9-1.5,11.1,1.1c3.8,1.5,7.1,4.3,11.3,4.9
		c2.4,2.4,6.1,5.1,9.2,2.1c5.1-2.8,10.3-5.4,15.4-8.2c3.8,0.7,8.2-1.4,11.6,1c2,3,0.6,7.6,1.1,11.2c-0.5,3.6,1.1,8.3-1.2,11.1
		c-3.2,2.4-7.1,3.8-10.7,5.4c-1.6-2.9,0.5-8.2-1.9-9.8c-6,2-11,6.2-17,8.4c-6.2-2.6-12.3-5.3-18.2-8.5c-2.7,8.4-0.3,17.3-1.1,25.9
		c2.2,2.8-0.2,5.8-3.2,6.3c-2.3,1.1-4,3.2-6.7,3.5c-3.3,0-1.7-4.3-2.1-6.4c-0.2-15.7-0.2-31.5,0-47.2
		C288.9,294.9,289.6,294.6,290.3,294.4L290.3,294.4z"/>
	<path id="path10" inkscape:connector-curvature="0" d="M348.8,326.1c3,10.4,0.7,21.4-1,31.8c-3.2,6.6-6.8,13.6-13,17.9
		c-4.1,4.6-10.8,3.5-16.1,5.7c-9.3-0.3-17.2-6.3-23.4-12.8c-0.1-4.3-4.3-7.3-4.4-11.6c2.6-3.5,7.1-4.4,10.8-6.1
		c3.2,5.6,7.1,11.9,13.9,13.4c7,1.6,14.7-2.1,18-8.5c4.2-7.1,4.3-15.7,4.5-23.8C341.2,329.4,345.4,328.4,348.8,326.1z"/>
</g>
</svg>
