<?xml version="1.0" encoding="UTF-8" standalone="no"?>
<svg
   xmlns:dc="http://purl.org/dc/elements/1.1/"
   xmlns:cc="http://creativecommons.org/ns#"
   xmlns:rdf="http://www.w3.org/1999/02/22-rdf-syntax-ns#"
   xmlns:svg="http://www.w3.org/2000/svg"
   xmlns="http://www.w3.org/2000/svg"
   xmlns:sodipodi="http://sodipodi.sourceforge.net/DTD/sodipodi-0.dtd"
   xmlns:inkscape="http://www.inkscape.org/namespaces/inkscape"
   width="472pt"
   height="268pt"
   viewBox="0 0 472 268"
   version="1.1"
   id="svg2"
   inkscape:version="0.91 r13725"
   sodipodi:docname="learn_button.svg">
  <metadata
     id="metadata15">
    <rdf:RDF>
      <cc:Work
         rdf:about="">
        <dc:format>image/svg+xml</dc:format>
        <dc:type
           rdf:resource="http://purl.org/dc/dcmitype/StillImage" />
      </cc:Work>
    </rdf:RDF>
  </metadata>
  <defs
     id="defs13" />
  <sodipodi:namedview
     pagecolor="#ffffff"
     bordercolor="#666666"
     borderopacity="1"
     objecttolerance="10"
     gridtolerance="10"
     guidetolerance="10"
     inkscape:pageopacity="0"
     inkscape:pageshadow="2"
     inkscape:window-width="1440"
     inkscape:window-height="811"
     id="namedview11"
     showgrid="false"
     inkscape:zoom="0.9700586"
     inkscape:cx="295"
     inkscape:cy="167.5"
     inkscape:window-x="0"
     inkscape:window-y="1"
     inkscape:window-maximized="1"
     inkscape:current-layer="svg2" />
  <g
     id="#ffffffff" />
  <g
     id="#656565ff">
    <path
       fill="#656565"
       opacity="1.00"
       d=" M 287.35 14.20 C 293.45 12.44 300.18 13.92 305.02 18.00 C 315.72 26.72 322.34 39.25 332.42 48.59 C 348.86 64.52 366.30 79.39 383.43 94.57 C 386.26 97.10 388.97 99.94 392.59 101.32 C 397.94 103.41 403.78 103.94 409.04 106.30 C 417.13 109.62 423.16 116.25 430.70 120.51 C 438.86 125.28 447.30 129.59 455.95 133.41 C 457.36 134.02 458.31 135.29 459.36 136.37 C 448.17 133.25 437.64 128.15 427.70 122.19 C 420.62 117.94 414.72 111.69 406.84 108.82 C 399.95 106.21 391.97 105.84 386.22 100.76 C 372.24 88.75 358.23 76.77 344.50 64.48 C 335.58 56.44 326.38 48.54 319.08 38.93 C 313.56 32.15 308.46 24.71 301.14 19.73 C 295.67 15.86 288.45 17.29 282.60 19.44 C 270.69 23.61 259.08 28.73 246.73 31.53 C 229.42 34.91 212.51 40.01 195.39 44.21 C 191.90 45.05 188.04 45.72 185.46 48.45 C 179.90 53.81 179.01 61.85 176.73 68.85 C 173.52 78.74 171.67 89.27 166.20 98.27 C 163.15 103.13 160.28 108.13 157.99 113.41 C 161.15 112.82 164.53 112.07 167.63 113.34 C 171.09 114.42 173.70 117.05 176.26 119.47 C 179.31 118.80 182.47 118.55 185.39 117.39 C 187.22 116.30 188.42 114.44 189.74 112.82 C 196.39 103.70 203.26 94.52 207.29 83.88 C 205.18 79.53 203.30 75.03 202.55 70.22 C 204.35 74.21 205.79 78.73 209.34 81.55 C 217.75 82.28 226.55 81.87 234.21 77.96 C 234.40 73.84 235.14 69.77 236.63 65.92 C 236.25 69.23 235.24 72.55 235.84 75.89 C 236.59 78.37 239.14 79.54 241.12 80.91 C 246.25 83.81 251.51 86.67 257.24 88.22 C 258.59 86.28 259.83 84.27 260.99 82.20 C 259.76 85.34 258.09 88.47 258.38 91.94 C 258.71 97.35 256.89 102.52 256.28 107.83 C 255.29 109.07 253.62 109.47 252.25 110.13 C 241.87 114.12 230.89 116.15 220.05 118.48 C 211.43 120.35 202.57 120.32 193.80 120.71 C 178.87 121.43 164.19 126.47 151.86 134.90 C 148.36 137.60 144.00 141.02 144.36 145.94 C 144.09 148.33 145.53 150.31 146.85 152.13 C 148.93 140.91 161.41 136.09 171.52 135.21 C 174.30 141.05 175.36 147.47 176.06 153.84 C 181.08 155.56 186.34 156.37 191.55 157.30 C 203.39 159.29 215.50 157.42 227.32 159.53 C 234.36 161.12 241.27 163.26 248.37 164.64 C 254.86 166.18 261.76 166.78 267.66 170.17 C 286.32 180.17 306.42 189.59 328.03 189.67 C 339.56 191.77 350.91 195.48 362.73 195.60 C 384.67 196.48 405.69 203.61 426.06 211.28 C 433.13 214.40 440.65 216.71 447.15 221.00 C 448.20 221.52 448.45 222.68 448.84 223.68 C 440.61 220.91 432.87 216.83 424.68 213.90 C 404.88 206.34 384.29 199.94 363.02 198.63 C 352.11 198.66 341.38 196.33 330.86 193.67 C 323.91 192.92 316.88 192.69 310.05 191.08 C 298.33 188.38 287.02 184.08 276.25 178.76 C 270.30 176.18 265.03 171.94 258.56 170.67 C 248.26 168.33 237.92 166.20 227.69 163.55 C 222.45 162.09 216.97 162.69 211.62 162.13 C 204.23 161.22 196.69 162.38 189.36 160.83 C 184.83 160.13 180.38 158.91 175.81 158.46 C 168.80 158.22 161.94 160.20 154.95 160.34 C 151.24 160.40 147.92 158.53 144.75 156.84 C 140.89 158.46 137.24 160.90 132.98 161.33 C 128.07 161.46 123.86 158.52 120.02 155.83 C 114.85 158.42 109.92 161.45 105.01 164.49 C 107.92 170.31 111.73 175.66 114.09 181.77 C 119.26 194.71 121.96 209.59 117.10 223.04 C 114.74 230.19 109.45 236.19 102.91 239.86 C 97.94 242.54 93.61 246.52 88.05 248.00 C 80.66 249.96 72.82 251.35 65.23 249.70 C 47.69 246.46 33.12 234.20 23.01 219.99 C 14.14 207.08 7.47 191.88 7.62 175.97 C 7.61 165.39 11.79 154.83 19.39 147.40 C 24.39 142.73 28.86 137.06 35.42 134.50 C 40.71 132.53 46.39 131.25 52.06 131.64 C 67.42 133.08 81.51 140.94 92.70 151.26 C 96.31 154.45 99.17 158.37 102.76 161.58 C 107.82 158.68 112.79 155.64 117.82 152.69 C 117.59 148.35 116.52 143.69 118.65 139.64 C 120.04 136.54 122.68 134.24 125.55 132.53 C 132.63 128.23 139.84 124.16 146.90 119.83 C 152.44 115.79 155.32 109.31 158.51 103.46 C 161.27 98.24 164.96 93.47 166.78 87.79 C 169.69 78.82 172.51 69.82 174.82 60.67 C 176.94 53.35 180.28 45.01 188.04 42.19 C 195.08 39.73 202.53 38.67 209.68 36.55 C 222.87 32.77 236.31 30.01 249.65 26.83 C 262.58 23.74 274.53 17.62 287.35 14.20 M 231.04 81.69 C 224.36 84.13 217.13 84.41 210.09 84.21 C 207.89 87.93 206.06 91.86 204.36 95.83 C 209.43 101.94 213.69 108.62 217.19 115.74 C 225.76 114.41 234.50 113.30 242.68 110.29 C 243.31 104.21 240.17 98.77 236.04 94.61 C 231.87 94.86 227.61 94.75 223.80 92.87 C 226.16 93.39 228.56 93.87 231.00 93.75 C 236.53 94.05 240.26 88.98 242.94 84.81 C 240.64 83.22 238.43 81.39 235.81 80.35 C 234.15 80.46 232.61 81.19 231.04 81.69 M 237.52 93.89 C 241.67 98.30 244.15 103.92 244.35 110.00 C 247.34 109.34 250.58 108.94 253.09 107.04 C 254.25 105.20 254.60 103.02 255.09 100.94 C 252.21 100.61 249.40 99.90 246.73 98.79 C 249.71 99.04 254.09 101.07 256.04 97.85 C 256.20 95.22 257.32 90.98 254.13 89.77 C 251.01 88.28 247.79 87.01 244.70 85.45 C 242.26 88.23 239.88 91.05 237.52 93.89 M 203.15 100.91 C 199.35 106.13 195.26 111.15 191.76 116.58 C 198.65 115.97 205.84 117.31 212.52 115.35 C 210.10 110.12 207.05 105.17 203.15 100.91 M 157.01 117.98 C 151.36 120.44 148.44 126.44 147.94 132.32 C 155.59 127.55 163.66 123.46 172.19 120.50 C 168.49 116.14 161.89 114.77 157.01 117.98 M 126.92 135.91 C 123.52 137.78 121.33 141.28 120.81 145.09 C 120.31 151.38 125.58 157.59 132.00 157.64 C 135.77 157.96 138.92 155.55 142.02 153.78 C 141.26 150.35 140.04 146.87 140.59 143.30 C 141.12 140.65 142.84 138.43 143.52 135.82 C 144.26 132.45 144.45 129.00 144.72 125.57 C 138.63 128.73 132.84 132.44 126.92 135.91 M 32.79 145.86 C 28.16 151.44 26.16 158.81 26.25 165.98 C 25.75 180.42 31.85 194.29 40.20 205.76 C 49.89 219.15 64.06 229.88 80.38 233.45 C 87.28 233.98 94.78 234.66 101.08 231.16 C 111.06 226.36 116.63 214.78 115.56 203.96 C 114.53 192.52 110.20 181.53 104.21 171.78 C 103.18 169.97 101.77 168.42 100.21 167.05 C 98.81 168.05 97.39 169.03 95.97 170.00 C 98.72 179.64 104.32 188.35 106.03 198.28 C 96.35 198.56 86.67 198.44 77.00 198.81 C 69.67 199.55 62.30 199.32 54.95 199.31 C 51.89 193.96 50.09 188.03 47.69 182.37 C 45.86 177.00 42.96 171.98 41.94 166.35 C 56.95 165.43 72.00 165.66 87.03 165.20 C 90.93 164.79 95.22 166.92 98.63 164.20 C 89.42 151.89 76.46 142.04 61.66 137.57 C 51.57 134.31 39.46 137.45 32.79 145.86 M 151.06 146.06 C 149.28 148.38 147.97 151.74 149.29 154.56 C 151.44 156.30 154.29 156.74 156.96 156.36 C 162.82 155.53 168.70 154.95 174.54 154.01 C 173.93 148.21 173.31 142.12 170.19 137.05 C 163.16 138.01 155.74 140.44 151.06 146.06 M 21.17 152.23 C 17.89 158.97 18.17 166.73 18.65 174.03 C 21.70 195.63 34.47 215.24 51.71 228.31 C 62.89 236.67 76.79 242.86 91.02 241.31 C 95.23 240.97 98.08 237.50 101.65 235.69 C 105.23 233.89 108.21 231.10 110.24 227.64 C 106.12 230.03 102.47 233.38 97.77 234.61 C 89.29 237.24 80.11 236.04 71.91 233.01 C 57.50 227.53 45.42 216.92 36.74 204.31 C 27.69 190.88 21.99 174.28 25.02 158.00 C 26.19 152.33 29.37 147.45 32.05 142.42 C 27.90 144.99 23.93 148.16 21.17 152.23 M 11.59 171.95 C 10.44 183.97 14.10 195.93 19.42 206.59 C 28.19 223.71 42.71 238.97 61.43 244.82 C 70.15 247.72 79.76 246.90 88.29 243.72 C 75.41 243.53 62.97 238.84 52.58 231.37 C 34.63 218.45 21.09 198.90 17.06 176.99 C 15.73 170.29 16.54 163.46 16.74 156.71 C 14.10 161.41 12.24 166.58 11.59 171.95 M 45.39 167.81 C 45.24 168.13 44.93 168.77 44.77 169.08 C 48.10 178.64 52.04 188.00 55.92 197.34 C 71.91 197.25 87.89 196.66 103.88 196.43 C 101.06 188.05 97.57 179.90 94.19 171.73 C 92.39 172.61 90.54 173.39 88.56 173.75 C 87.99 172.79 87.40 171.86 86.80 170.93 C 88.68 169.79 90.55 168.64 92.37 167.39 C 76.71 167.14 61.04 167.53 45.39 167.81 Z"
       id="path6"
       style="fill:#000000" />
  </g>
  <g
     id="#21a5fbff">
    <path
       fill="#21a5fb"
       opacity="1.00"
       d=" M 50.20 171.09 C 54.03 169.79 57.46 173.28 56.82 177.08 C 52.99 178.32 49.85 174.76 50.20 171.09 Z"
       id="path9" />
  </g>
</svg>
