<?xml version="1.0" encoding="utf-8"?>
<!-- Generator: Adobe Illustrator 21.1.0, SVG Export Plug-In . SVG Version: 6.00 Build 0)  -->
<svg version="1.1"
	 id="svg2" inkscape:version="0.91 r13725" sodipodi:docname="learn_button.svg" xmlns:cc="http://creativecommons.org/ns#" xmlns:dc="http://purl.org/dc/elements/1.1/" xmlns:inkscape="http://www.inkscape.org/namespaces/inkscape" xmlns:rdf="http://www.w3.org/1999/02/22-rdf-syntax-ns#" xmlns:sodipodi="http://sodipodi.sourceforge.net/DTD/sodipodi-0.dtd" xmlns:svg="http://www.w3.org/2000/svg"
	 xmlns="http://www.w3.org/2000/svg" xmlns:xlink="http://www.w3.org/1999/xlink" x="0px" y="0px" viewBox="0 0 472 268"
	 style="enable-background:new 0 0 472 268;" xml:space="preserve">
<style type="text/css">
	.st0{fill:#21A5FB;}
</style>
<sodipodi:namedview  bordercolor="#666666" borderopacity="1" gridtolerance="10" guidetolerance="10" id="namedview11" inkscape:current-layer="svg2" inkscape:cx="295" inkscape:cy="167.5" inkscape:pageopacity="0" inkscape:pageshadow="2" inkscape:window-height="811" inkscape:window-maximized="1" inkscape:window-width="1440" inkscape:window-x="0" inkscape:window-y="1" inkscape:zoom="0.9700586" objecttolerance="10" pagecolor="#ffffff" showgrid="false">
	</sodipodi:namedview>
<g id="_x23_ffffffff">
</g>
<g id="_x23_656565ff">
	<path id="path6" d="M287.4,14.2c6.1-1.8,12.8-0.3,17.7,3.8c10.7,8.7,17.3,21.2,27.4,30.6c16.4,15.9,33.9,30.8,51,46
		c2.8,2.5,5.5,5.4,9.2,6.8c5.4,2.1,11.2,2.6,16.5,5c8.1,3.3,14.1,9.9,21.7,14.2c8.2,4.8,16.6,9.1,25.2,12.9c1.4,0.6,2.4,1.9,3.4,3
		c-11.2-3.1-21.7-8.2-31.7-14.2c-7.1-4.2-13-10.5-20.9-13.4c-6.9-2.6-14.9-3-20.6-8.1c-14-12-28-24-41.7-36.3
		c-8.9-8-18.1-15.9-25.4-25.6c-5.5-6.8-10.6-14.2-17.9-19.2c-5.5-3.9-12.7-2.4-18.5-0.3c-11.9,4.2-23.5,9.3-35.9,12.1
		c-17.3,3.4-34.2,8.5-51.3,12.7c-3.5,0.8-7.4,1.5-9.9,4.2c-5.6,5.4-6.5,13.4-8.7,20.4c-3.2,9.9-5.1,20.4-10.5,29.4
		c-3.1,4.9-5.9,9.9-8.2,15.1c3.2-0.6,6.5-1.3,9.6-0.1c3.5,1.1,6.1,3.7,8.6,6.1c3.1-0.7,6.2-0.9,9.1-2.1c1.8-1.1,3-2.9,4.4-4.6
		c6.6-9.1,13.5-18.3,17.5-28.9c-2.1-4.3-4-8.8-4.7-13.7c1.8,4,3.2,8.5,6.8,11.3c8.4,0.7,17.2,0.3,24.9-3.6c0.2-4.1,0.9-8.2,2.4-12
		c-0.4,3.3-1.4,6.6-0.8,10c0.8,2.5,3.3,3.7,5.3,5c5.1,2.9,10.4,5.8,16.1,7.3c1.4-1.9,2.6-4,3.8-6c-1.2,3.1-2.9,6.3-2.6,9.7
		c0.3,5.4-1.5,10.6-2.1,15.9c-1,1.2-2.7,1.6-4,2.3c-10.4,4-21.4,6-32.2,8.4c-8.6,1.9-17.5,1.8-26.2,2.2
		c-14.9,0.7-29.6,5.8-41.9,14.2c-3.5,2.7-7.9,6.1-7.5,11c-0.3,2.4,1.2,4.4,2.5,6.2c2.1-11.2,14.6-16,24.7-16.9
		c2.8,5.8,3.8,12.3,4.5,18.6c5,1.7,10.3,2.5,15.5,3.5c11.8,2,23.9,0.1,35.8,2.2c7,1.6,13.9,3.7,21,5.1c6.5,1.5,13.4,2.1,19.3,5.5
		c18.7,10,38.8,19.4,60.4,19.5c11.5,2.1,22.9,5.8,34.7,5.9c21.9,0.9,43,8,63.3,15.7c7.1,3.1,14.6,5.4,21.1,9.7
		c1.1,0.5,1.3,1.7,1.7,2.7c-8.2-2.8-16-6.8-24.2-9.8c-19.8-7.6-40.4-14-61.7-15.3c-10.9,0-21.6-2.3-32.2-5c-6.9-0.8-14-1-20.8-2.6
		c-11.7-2.7-23-7-33.8-12.3c-6-2.6-11.2-6.8-17.7-8.1c-10.3-2.3-20.6-4.5-30.9-7.1c-5.2-1.5-10.7-0.9-16.1-1.4
		c-7.4-0.9-14.9,0.2-22.3-1.3c-4.5-0.7-9-1.9-13.6-2.4c-7-0.2-13.9,1.7-20.9,1.9c-3.7,0.1-7-1.8-10.2-3.5c-3.9,1.6-7.5,4.1-11.8,4.5
		c-4.9,0.1-9.1-2.8-13-5.5c-5.2,2.6-10.1,5.6-15,8.7c2.9,5.8,6.7,11.2,9.1,17.3c5.2,12.9,7.9,27.8,3,41.3
		c-2.4,7.2-7.7,13.2-14.2,16.8c-5,2.7-9.3,6.7-14.9,8.1c-7.4,2-15.2,3.4-22.8,1.7C47.7,246.5,33.1,234.2,23,220
		c-8.9-12.9-15.5-28.1-15.4-44c0-10.6,4.2-21.1,11.8-28.6c5-4.7,9.5-10.3,16-12.9c5.3-2,11-3.2,16.6-2.9
		c15.4,1.4,29.5,9.3,40.6,19.6c3.6,3.2,6.5,7.1,10.1,10.3c5.1-2.9,10-5.9,15.1-8.9c-0.2-4.3-1.3-9,0.8-13.1c1.4-3.1,4-5.4,6.9-7.1
		c7.1-4.3,14.3-8.4,21.3-12.7c5.5-4,8.4-10.5,11.6-16.4c2.8-5.2,6.5-10,8.3-15.7c2.9-9,5.7-18,8-27.1c2.1-7.3,5.5-15.7,13.2-18.5
		c7-2.5,14.5-3.5,21.6-5.6c13.2-3.8,26.6-6.5,40-9.7C262.6,23.7,274.5,17.6,287.4,14.2 M231,81.7c-6.7,2.4-13.9,2.7-20.9,2.5
		c-2.2,3.7-4,7.7-5.7,11.6c5.1,6.1,9.3,12.8,12.8,19.9c8.6-1.3,17.3-2.4,25.5-5.4c0.6-6.1-2.5-11.5-6.6-15.7
		c-4.2,0.2-8.4,0.1-12.2-1.7c2.4,0.5,4.8,1,7.2,0.9c5.5,0.3,9.3-4.8,11.9-8.9c-2.3-1.6-4.5-3.4-7.1-4.5
		C234.1,80.5,232.6,81.2,231,81.7 M237.5,93.9c4.1,4.4,6.6,10,6.8,16.1c3-0.7,6.2-1.1,8.7-3c1.2-1.8,1.5-4,2-6.1
		c-2.9-0.3-5.7-1-8.4-2.2c3,0.2,7.4,2.3,9.3-0.9c0.2-2.6,1.3-6.9-1.9-8.1c-3.1-1.5-6.3-2.8-9.4-4.3
		C242.3,88.2,239.9,91.1,237.5,93.9 M203.1,100.9c-3.8,5.2-7.9,10.2-11.4,15.7c6.9-0.6,14.1,0.7,20.8-1.2
		C210.1,110.1,207.1,105.2,203.1,100.9 M157,118c-5.6,2.5-8.6,8.5-9.1,14.3c7.6-4.8,15.7-8.9,24.2-11.8
		C168.5,116.1,161.9,114.8,157,118 M126.9,135.9c-3.4,1.9-5.6,5.4-6.1,9.2c-0.5,6.3,4.8,12.5,11.2,12.6c3.8,0.3,6.9-2.1,10-3.9
		c-0.8-3.4-2-6.9-1.4-10.5c0.5-2.7,2.2-4.9,2.9-7.5c0.7-3.4,0.9-6.8,1.2-10.3C138.6,128.7,132.8,132.4,126.9,135.9 M32.8,145.9
		c-4.6,5.6-6.6,12.9-6.5,20.1c-0.5,14.4,5.6,28.3,14,39.8c9.7,13.4,23.9,24.1,40.2,27.7c6.9,0.5,14.4,1.2,20.7-2.3
		c10-4.8,15.5-16.4,14.5-27.2c-1-11.4-5.4-22.4-11.3-32.2c-1-1.8-2.4-3.4-4-4.7c-1.4,1-2.8,2-4.2,2.9c2.8,9.6,8.3,18.4,10.1,28.3
		c-9.7,0.3-19.4,0.2-29,0.5c-7.3,0.7-14.7,0.5-22,0.5c-3.1-5.3-4.9-11.3-7.3-16.9c-1.8-5.4-4.7-10.4-5.8-16
		c15-0.9,30.1-0.7,45.1-1.2c3.9-0.4,8.2,1.7,11.6-1c-9.2-12.3-22.2-22.2-37-26.6C51.6,134.3,39.5,137.4,32.8,145.9 M151.1,146.1
		c-1.8,2.3-3.1,5.7-1.8,8.5c2.2,1.7,5,2.2,7.7,1.8c5.9-0.8,11.7-1.4,17.6-2.4c-0.6-5.8-1.2-11.9-4.3-17
		C163.2,138,155.7,140.4,151.1,146.1 M21.2,152.2c-3.3,6.7-3,14.5-2.5,21.8c3.1,21.6,15.8,41.2,33.1,54.3
		c11.2,8.4,25.1,14.6,39.3,13c4.2-0.3,7.1-3.8,10.6-5.6c3.6-1.8,6.6-4.6,8.6-8.1c-4.1,2.4-7.8,5.7-12.5,7
		c-8.5,2.6-17.7,1.4-25.9-1.6c-14.4-5.5-26.5-16.1-35.2-28.7C27.7,190.9,22,174.3,25,158c1.2-5.7,4.4-10.6,7-15.6
		C27.9,145,23.9,148.2,21.2,152.2 M11.6,171.9c-1.2,12,2.5,24,7.8,34.6c8.8,17.1,23.3,32.4,42,38.2c8.7,2.9,18.3,2.1,26.9-1.1
		c-12.9-0.2-25.3-4.9-35.7-12.4c-18-12.9-31.5-32.5-35.5-54.4c-1.3-6.7-0.5-13.5-0.3-20.3C14.1,161.4,12.2,166.6,11.6,171.9
		 M45.4,167.8c-0.1,0.3-0.5,1-0.6,1.3c3.3,9.6,7.3,18.9,11.1,28.3c16-0.1,32-0.7,48-0.9c-2.8-8.4-6.3-16.5-9.7-24.7
		c-1.8,0.9-3.7,1.7-5.6,2c-0.6-1-1.2-1.9-1.8-2.8c1.9-1.1,3.8-2.3,5.6-3.5C76.7,167.1,61,167.5,45.4,167.8z"/>
</g>
<g id="_x23_21a5fbff">
	<path id="path9" class="st0" d="M50.2,171.1c3.8-1.3,7.3,2.2,6.6,6C53,178.3,49.8,174.8,50.2,171.1z"/>
</g>
</svg>
