<?xml version="1.0" encoding="utf-8"?>
<!-- Generator: Adobe Illustrator 21.1.0, SVG Export Plug-In . SVG Version: 6.00 Build 0)  -->
<svg version="1.1"
	 id="svg2" inkscape:version="0.91 r13725" sodipodi:docname="learn_motion.svg" xmlns:cc="http://creativecommons.org/ns#" xmlns:dc="http://purl.org/dc/elements/1.1/" xmlns:inkscape="http://www.inkscape.org/namespaces/inkscape" xmlns:rdf="http://www.w3.org/1999/02/22-rdf-syntax-ns#" xmlns:sodipodi="http://sodipodi.sourceforge.net/DTD/sodipodi-0.dtd" xmlns:svg="http://www.w3.org/2000/svg"
	 xmlns="http://www.w3.org/2000/svg" xmlns:xlink="http://www.w3.org/1999/xlink" x="0px" y="0px" viewBox="0 0 394 302"
	 style="enable-background:new 0 0 394 302;" xml:space="preserve">
<style type="text/css">
	.st0{fill:#A9DEFD;}
</style>
<sodipodi:namedview  bordercolor="#666666" borderopacity="1" gridtolerance="10" guidetolerance="10" id="namedview11" inkscape:current-layer="svg2" inkscape:cx="252.5" inkscape:cy="195" inkscape:pageopacity="0" inkscape:pageshadow="2" inkscape:window-height="480" inkscape:window-maximized="0" inkscape:window-width="699" inkscape:window-x="0" inkscape:window-y="0" inkscape:zoom="0.60512821" objecttolerance="10" pagecolor="#ffffff" showgrid="false">
	</sodipodi:namedview>
<g id="_x23_ffffffff">
</g>
<g id="_x23_828283ff">
	<path id="path6" d="M193.2,23.2c4.8-3.8,11.3-5.5,17.2-3.5c16,5.7,32.3,10.5,48.2,16.7c9.6,3.3,19.6,5.2,29.5,7.4
		c6.3,1.3,13.1,4.1,15.8,10.4c3.9,8.8,3.7,18.7,5,28.1c1.5,13.2,6.1,25.7,9.2,38.6c3,10.8,6.2,21.4,9.1,32.2
		c1.6,6.4,6.9,10.7,10.9,15.7c5.6,6.7,7,15.6,10.9,23.2c6.9,13.3,15.8,25.3,24.6,37.3c4.2,5.8,9.1,11.1,12.6,17.4
		c-3.7-2.9-7-6.2-9.9-9.9c-10.1-12.1-19.6-24.7-27.5-38.4c-2.9-5.1-5.4-10.3-7.2-15.9c-2.2-6.5-5.9-12.4-10.7-17.2
		c-3.1-3-5.3-6.8-6.5-10.9c-4.9-15.9-9.2-32-13.8-48c-1.5-6.2-3.5-12.2-4.5-18.5c-1.3-8.5-1.5-17.2-3.2-25.7
		c-1.1-5.2-3.9-10.8-9.2-12.7c-11.9-4.4-24.8-5.1-36.6-9.6c-15.6-6.1-31.7-10.9-47.6-16.4c-4.8-1.9-10.1-0.2-14,2.8
		c-8.8,6.9-16.5,15.1-25.7,21.3c-5.6,3.1-11.4,5.9-16.9,9.2c2.8,1.6,5.8,3.2,7.5,6c1.4,2,1.5,4.4,1.8,6.8c3.6,1.5,7.5,4.1,11.6,2.6
		c7.6-2.6,15-5.8,22.2-9.5c2.1-1.2,4.3-2.3,5.9-4.2c1.2-3.8,1.5-7.9,3.2-11.6c-0.3,3-0.6,6.1-0.4,9.1c-0.1,2.1,2,3.2,3.4,4.3
		c5,3.3,10.6,6.1,16.6,6.6c1.8-2.1,3.7-4.2,5.8-6.1c-1.4,3-4.2,6.2-2.6,9.6c2.2,5.2,5,10.2,8.8,14.4c2,0.1,3.9-0.9,5.7-1.5
		c-5.8,3.8-9,10.2-13.6,15.3c3.3,0.2,6.6,0,9.8-0.8c-7.8,3.8-16.6,2.3-24.4-0.6c-9.7-3.2-19.5-6.4-28.4-11.4
		c-7.9-4.7-15.8-9.7-24.7-12.3c-9-2.8-18.6-4.2-28-2.6c-4,0.8-6.7,4.2-7.2,8.2c7.8-4.8,18.4-4.3,26.1,0.5c0.3,5.8-3.3,10.8-4.4,16.4
		c7.7,10.2,19.1,16.4,29.3,23.9c6.1,4.2,10.3,10.3,15.6,15.4c4.7,5.1,10.4,9.3,13.7,15.5c8.1,14.7,17.3,29.5,31,39.6
		c6.6,4.3,11.2,10.9,17.1,16c6,5.8,13.3,10,19.4,15.7c13.6,12.2,24.6,27,34.9,42c6.7,10.2,13.3,20.6,18.6,31.7
		c-0.5-0.1-1.6-0.2-2.1-0.2c-9.1-14.4-18-29-28.3-42.6c-9.9-12.9-20.6-25.6-33.9-35.2c-7.5-5.3-14.4-11.5-20.7-18.2
		c-5.1-5.6-12-9.3-17-14.9c-9-9.8-16.1-21.1-22.5-32.7c-2.2-3.7-5.5-6.5-8.4-9.5c-4.4-4.3-8.5-8.8-12.7-13.3
		c-6.8-7.4-15.9-12.1-23.9-18c-3.9-3-7.5-6.5-11.1-10c-5.3-5.3-13-6.7-19-11c-2.6-1.8-4.1-4.7-5.6-7.4c-3.9-0.2-8.2-0.2-11.4-2.6
		c-3.2-2.2-4.5-6.1-5.7-9.6c-7-0.2-14.1-0.2-21.1-0.2c0,8.4,0.1,16.7,0,25.1c-21.4,0.1-42.8,0.1-64.2,0c0-4.2,0-8.4,0-12.5
		c2.3,0,4.6-0.1,6.9-0.1c0.2-15.5,0-31,0.1-46.6c-2.3-0.1-4.6-0.2-7-0.3c-0.1-3.8-0.1-7.7,0.1-11.6c14.4-3.3,29.2-2.8,43.9-2.6
		c6.8,0.4,13.5,1.1,20.1,2.6c0.4,14.1-0.1,28.2,0.3,42.2c7.2-0.1,14.3,0.4,21.4,0.1c1.3-5,5-9.7,10.4-10.4
		c7.9-0.8,15.9,0.1,23.9,0.5c6.1,0.5,11.5-2.9,16.7-5.7c4.5-2.6,9.4-4.5,13.6-7.5C177.8,37.2,185,29.5,193.2,23.2 M22.8,26.8
		c-0.1,1.7-0.3,3.3-0.4,5c14.3,0.4,28.7,0.1,43,0.2c0.1,17.9,0.2,35.8,0,53.8c-14.3,0.5-28.6-0.3-42.9,0.7c0.1,1.7,0.1,3.3,0.2,5
		c19,0.2,38,0,57,0.1c0-7.3-0.1-14.7,0.1-22c-2.3-0.2-4.7-0.4-7-0.5c-0.1-1.1-0.1-2.2-0.2-3.4c2.3-0.1,4.7,0.2,7,0.5
		c0.1-13.2,0.2-26.3-0.1-39.5C60.6,24.5,41.5,24.4,22.8,26.8 M29.2,33.1C28.9,50.1,29,67,29.2,83.9c11.5,0.2,23.1,0.4,34.6-0.1
		C64,67,64,50.1,63.7,33.2C52.2,32.7,40.7,32.8,29.2,33.1 M110.9,76c2.7,2.9,6.8,2.7,10.4,2.8c0.7-2.3,1.2-4.8,2.6-6.8
		c2-2.7,5.4-3.8,7.6-6.4c1.8-2,3.5-4.1,5.4-6c-7.2,0.1-14.5-0.6-21.7-0.1C108.1,61,105.6,71.2,110.9,76 M135.8,66.4
		c7.9-0.3,15.7,0.9,23.4,2.5c-1.2-4.7-5-8.8-10.2-8.5C143.7,59.5,139,62.5,135.8,66.4 M195,66c0.1,7,0.2,14-0.3,21
		c6.8,2.8,13.6,5.5,20.5,8c2.8-4.3,3.9-9.5,2.6-14.5c-2.5-1.6-4.9-3.4-7-5.5c2.4,1.2,4.7,2.7,7.3,3.4c3.3,0.6,6.4-1,9.4-2.2
		c-1-2.2-2-4.5-3-6.7c-3.9-0.7-7.9-1.6-11.5-3.5c-3.1-1.5-5.8-3.7-9.1-5C200.6,61.9,197.9,64.3,195,66 M175.6,75.4
		c4.9,3.3,9.9,6.7,15.6,8.8c0.2-4.8,0.2-9.6,0-14.3C185.9,71.2,180.8,73.4,175.6,75.4 M125.8,83c4.6,6.2,12.6,8.1,19.1,11.8
		c2.2-4.5,3.9-9.2,5.1-14.1c-5.5-2.7-11.8-4.3-17.9-2.8C129.4,78.7,127.6,81,125.8,83 M220.1,80.4c0.1,5.2-0.2,10.5-2.9,15.1
		c1.9,0.6,3.9,1.2,5.9,1.4c2.2,0.3,3.8-1.5,5.5-2.7c-1.5-1.8-3.1-3.6-4.6-5.3c2.1,1.1,4.1,3,6.7,2.8c1.6-1.2,2.8-2.9,3.3-4.9
		c-1.2-3.4-3.7-6-5.7-8.9C225.6,78.9,222.9,79.7,220.1,80.4z"/>
</g>
<g id="_x23_a9defdff">
	<path id="path9" class="st0" d="M29.2,33.1c11.5-0.3,23-0.4,34.5,0.1C64,50.1,64,67,63.8,83.8c-11.5,0.5-23.1,0.3-34.6,0.1
		C29,67,28.9,50.1,29.2,33.1z"/>
</g>
</svg>
