<svg height="960" viewBox="0 0 960 960" width="960" xmlns="http://www.w3.org/2000/svg"><path d="m366.823241 28.2251601c9.638423-.5472768 19.188774-.0949108 28.513462 1.3357475l.427297.0670924 430.864758 16.0212665.509024.0221741.508701.028656c69.599715 4.3655156 126.353517 60.9400134 126.353517 128.4983404v608.691351c0 67.558326-56.753802 124.132824-126.353517 128.49834-.341702.021432-.683664.038477-1.025803.051129l-441.93268 16.342743-.74302.043144c-2.360101.122404-4.715984.174926-7.06568.174926h-1.898924c-1.548082 0-3.099252-.020825-4.6528-.070119l-1.832144-.070837-1.394958-.069498c-1.494149-.074439-2.982946-.232641-4.459374-.473861l-231.208476-37.775037c-69.5424027-11.410448-121.3553993-69.956557-122.41664367-133.577528l-.01503053-1.579843v-.609808l3.7056919-537.724041.0023744-.795221c.2194004-35.282043 11.2991155-64.945234 33.2383718-87.847536 19.5006355-20.356635 46.0145235-33.9722853 79.9460311-43.12679l1.720229-.4584167c.380947-.1014701.763373-.1973029 1.147154-.2874669l231.181635-54.3130214c2.26035-.5310389 4.562645-.8642592 6.880804-.9958859zm26.887051 41.3535325c-52.228359 6.4800394-90.281295 37.2987584-90.281295 74.7035674v671.084831c0 34.253213 31.91067 62.983421 77.39575 72.557879l.653024-.026426 1.379753-.076108 442.284952-16.355856c1.058236-.066376 2.11215-.149761 3.161439-.24985 14.335646-2.71676 27.660193-7.042648 39.49108-12.595861 27.536081-15.82731 46.205005-44.328138 46.205005-75.731081v-608.691351c0-25.010567-11.842016-48.180272-30.574201-64.572915-21.268302-13.6459029-49.845404-22.8406753-81.499619-24.2473861l-85.44123-3.7971299zm-78.614648 11.2648057-177.186462 41.6303577-1.596557.425263c-52.4712254 14.156403-83.6069332 40.509754-83.6069332 93.42603l-3.7056918 537.724041.0104166 1.246863c.6869843 41.184305 35.304175 85.978723 88.8987654 94.77247l177.503807 29.003564c-19.934604-16.660034-31.983992-38.732637-31.983992-63.704996v-671.084831c0-24.839566 11.92158-46.8101325 31.666647-63.4387617zm121.904356 589.1565017c32.5848 0 59 26.4152 59 59s-26.4152 59-59 59-59-26.4152-59-59 26.4152-59 59-59zm0 20c-21.539105 0-39 17.460895-39 39s17.460895 39 39 39 39-17.460895 39-39-17.460895-39-39-39zm353.372371-506.138692.541685.006972c18.088215.370875 32.495661 15.443135 32.17993 33.664834-.315731 18.2217-15.235078 32.692652-33.323294 32.321777-18.088215-.370875-32.495661-15.443135-32.17993-33.664834.309416-17.857265 14.644145-32.112313 32.241895-32.326308zm-80.39032-1.648298.541684.006973c18.088216.370875 32.495662 15.443134 32.179931 33.664834-.315731 18.221699-15.235078 32.692651-33.323294 32.321776s-32.495661-15.443134-32.17993-33.664834c.309416-17.857265 14.644145-32.112313 32.241894-32.326307zm-80.390321-1.648297.541685.006972c18.088216.370875 32.495661 15.443135 32.17993 33.664834-.315731 18.2217-15.235077 32.692652-33.323293 32.321777s-32.495662-15.443135-32.179931-33.664834c.309417-17.857265 14.644145-32.112313 32.241895-32.326308zm-80.39032-1.648298.541684.006973c18.088216.370875 32.495662 15.443134 32.179931 33.664834-.315731 18.221699-15.235078 32.692651-33.323294 32.321776s-32.495661-15.443134-32.17993-33.664834c.309416-17.857265 14.644145-32.112313 32.241894-32.326307zm-80.39032-1.648297.541684.006972c18.088216.370875 32.495661 15.443135 32.17993 33.664834s-15.235077 32.692652-33.323293 32.321777-32.495662-15.443135-32.179931-33.664834c.309417-17.857266 14.644146-32.112313 32.241895-32.326308z"/></svg>