<?xml version="1.0" encoding="utf-8"?>
<!-- Generator: Adobe Illustrator 24.2.1, SVG Export Plug-In . SVG Version: 6.00 Build 0)  -->
<svg version="1.1" id="Laag_1" xmlns="http://www.w3.org/2000/svg" xmlns:xlink="http://www.w3.org/1999/xlink" x="0px" y="0px"
	 viewBox="0 0 667.1 701.74" style="enable-background:new 0 0 667.1 701.74;" xml:space="preserve">
<style type="text/css">
	.st0{fill:none;stroke:#000000;stroke-width:10;stroke-linecap:round;stroke-linejoin:round;stroke-miterlimit:10;}
	.st1{fill:none;stroke:#000000;stroke-width:5;stroke-linecap:round;stroke-linejoin:round;stroke-miterlimit:10;}
	.st2{stroke:#000000;stroke-miterlimit:10;}
	.st3{fill:#0066FF;stroke:#000000;stroke-width:5;stroke-linecap:round;stroke-linejoin:round;stroke-miterlimit:10;}
</style>
<g>
	<g>
		<path class="st0" d="M395.69,695.3c7.83,0.41,15.66,0.89,23.5,1.2c4.06,0.16,8.12,0.28,12.19,0.21
			c6.21-0.11,12.45-0.66,18.47-2.17c6.14-1.54,12.06-4.07,17.44-7.41c5.88-3.66,11.13-8.3,15.7-13.51
			c4.81-5.5,8.87-11.64,12.06-18.21c3.19-6.58,5.52-13.57,7.06-20.72c1.58-7.33,2.32-14.82,2.69-22.32
			c0.25-4.96,0.33-9.92,0.37-14.89c0.09-9.64-0.38-508.22-0.63-513.08c-0.37-7.3-1.11-14.6-2.68-21.74
			c-1.52-6.9-3.82-13.65-6.99-19.96c-3.15-6.27-7.16-12.11-11.92-17.28c-4.52-4.91-9.71-9.22-15.5-12.53
			c-5.34-3.06-11.19-5.27-17.21-6.51c-5.97-1.23-12.11-1.51-18.22-1.36c-4.02,0.1-8.02,0.38-12.03,0.7
			c-7.73,0.63-15.47,1.41-23.19,2.13L100.23,35.98c-6.7,0.65-13.42,1.24-20.11,1.97c-3.44,0.38-6.86,0.79-10.28,1.37
			c-5.27,0.9-10.49,2.22-15.41,4.28c-5.18,2.17-10.01,5.18-14.36,8.74c-4.87,3.99-9.15,8.69-12.85,13.79
			c-7.79,10.74-13.01,23.27-15.61,36.28c-1.3,6.53-1.94,13.19-2.3,19.85c-0.24,4.37-0.35,8.73-0.43,13.1
			C8.73,143.84,4.85,590.26,5,594.7c0.24,6.75,0.75,13.5,1.95,20.14c2.36,13.04,7.36,25.66,15.12,36.41
			c3.64,5.05,7.89,9.69,12.76,13.57c4.35,3.47,9.21,6.34,14.39,8.35c4.97,1.92,10.24,3.04,15.53,3.74
			c3.45,0.46,6.92,0.73,10.39,0.97c6.77,0.47,13.57,0.79,20.34,1.17L395.69,695.3z"/>
		<path class="st1" d="M565.05,680.02c5.26-0.7,10.52-1.96,15.46-3.95c4.77-1.92,9.26-4.53,13.38-7.6
			c9.29-6.91,16.79-16.2,21.91-26.59c4.47-9.07,7.12-18.98,8.36-29.02c0.73-5.89,0.97-11.82,1.1-17.76
			c0.09-3.87,0.13-7.73,0.15-11.6c0.03-7.62-0.04-15.25-0.04-22.87l-0.58-207.3l-0.58-205.65c-0.04-7.27-0.02-14.53-0.08-21.79
			c-0.03-3.59-0.08-7.19-0.17-10.78c-0.13-5.43-0.35-10.86-0.95-16.27c-1.04-9.4-3.24-18.73-7.16-27.33
			c-4.19-9.21-10.35-17.57-18.01-24.2c-3.62-3.14-7.58-5.88-11.84-8.08c-4.22-2.19-8.74-3.83-13.37-4.88"/>
		<path class="st0" d="M454.39,7.34l118.24,27.02l6.76,1.78l34.2,9.65c6.28,1.7,12.17,4.64,17.45,8.43
			c5.63,4.04,10.55,9.05,14.61,14.67c3.96,5.48,7.1,11.54,9.35,17.9c2.56,7.24,3.97,14.88,4.67,22.54c0.33,3.63,0.51,7.26,0.63,10.9
			c0.21,6.32,0.24,12.66,0.27,19c0.01,2.87,0.02,5.73,0.03,8.59c0.5,139.42,0.97,278.89,1.48,418.3c0.02,6.79,0.05,13.58-0.02,20.39
			c-0.11,10.62-0.44,21.27-2.73,31.59c-1.92,8.67-5.21,17.1-9.9,24.68c-4.77,7.7-10.99,14.52-18.37,19.75
			c-7.05,5-15.16,8.54-23.72,9.96c-11.42,2.08-22.85,4.17-34.27,6.25l-8.02,1.29l-121.6,15.8"/>
	</g>
	<g>
		<g>
			<path class="st2" d="M399.65,563.66c-8.42-0.12-15.44,8.19-15.71,18.64c0,0.06-0.42,15.93-0.49,18.65
				c-0.01,0.22,0.13,0.4,0.31,0.4l4.69,0.12c0.18,0,0.32-0.17,0.33-0.39l0.49-18.71c0.21-6.75,4.72-12.12,10.15-12.11
				c0,0,0.02,0,0.05,0c0.18,0.01,0.33-0.17,0.33-0.39l0.15-5.82C399.97,563.85,399.83,563.66,399.65,563.66z"/>
			<g>
				<path class="st2" d="M291.51,572.98c-3.21-0.08-5.91,2.81-6,6.46c-0.1,3.65,2.44,6.68,5.65,6.77c3.21,0.08,5.91-2.81,6-6.46
					C297.26,576.1,294.72,573.07,291.51,572.98z"/>
				<path class="st2" d="M402.08,576.51c-1.69,6.05-1.05,12.4,1.76,17.43c2.76,4.94,7.31,7.97,12.18,8.09
					c3.17,0.08,6.29-1.05,8.92-3.23c0.17-0.14,0.35-0.29,0.52-0.44c0.05-0.04,0.11-0.1,0.18-0.17c0.22-0.2,0.52-0.01,0.52,0.32
					l-0.09,3.38c-0.01,0.22,0.13,0.4,0.31,0.41l4.69,0.12c0.18,0,0.33-0.17,0.33-0.39l0.49-18.56c0-0.03,0-0.06,0-0.09
					c0.16-6.03-2.03-11.83-5.86-15.52c-3.9-3.75-8.98-4.89-13.95-3.12C407.41,566.41,403.67,570.81,402.08,576.51z M407.39,577.8
					c1.02-2.96,3.01-5.3,5.45-6.4c1.32-0.6,2.68-0.89,4.02-0.85c2.02,0.05,3.95,0.85,5.58,2.3c2.61,2.33,4.15,6.1,4.13,10.1
					l-0.01,0.45c-0.24,6.78-4.89,12.17-10.36,12.03c-3.32-0.09-6.36-2.2-8.15-5.66C406.22,586.24,405.99,581.88,407.39,577.8z"/>
				<path class="st2" d="M315.69,574.19c-1.74,6.05-1.07,12.4,1.83,17.43c2.85,4.94,7.54,7.97,12.55,8.1
					c3.27,0.09,6.48-1.05,9.2-3.23c0.13-0.11,0.26-0.21,0.39-0.33c0.03-0.03,0.16-0.14,0.31-0.28c0.22-0.2,0.54-0.01,0.53,0.33
					l-0.34,12.88c-0.01,0.22,0.14,0.4,0.32,0.41l4.83,0.13c0.18,0,0.34-0.17,0.34-0.39l0.74-28l0-0.06c0-0.03,0-0.06,0-0.09
					c0.16-6.03-2.1-11.83-6.05-15.52c-4.02-3.75-9.25-4.9-14.36-3.13C321.17,564.1,317.32,568.49,315.69,574.19z M321.16,575.48
					c1.05-2.96,3.09-5.29,5.61-6.4c1.36-0.6,2.75-0.88,4.14-0.85c2.08,0.05,4.07,0.85,5.75,2.31c2.69,2.33,4.28,6.11,4.26,10.1
					l-0.01,0.44c-0.24,6.78-5.02,12.17-10.66,12.02c-3.42-0.09-6.56-2.21-8.4-5.67C319.96,583.92,319.71,579.56,321.16,575.48z"/>
				<path class="st2" d="M350.58,574.96c-1.69,6.05-1.05,12.4,1.76,17.43c2.76,4.94,7.31,7.97,12.18,8.09
					c3.17,0.08,6.29-1.05,8.92-3.23c0.17-0.14,0.35-0.29,0.52-0.44c0.05-0.04,0.11-0.1,0.18-0.17c0.22-0.2,0.52-0.01,0.52,0.32
					l-0.09,3.38c-0.01,0.22,0.13,0.4,0.31,0.41l4.69,0.12c0.18,0,0.33-0.17,0.33-0.39l0.49-18.56c0-0.03,0-0.06,0-0.09
					c0.16-6.03-2.03-11.83-5.86-15.52c-3.9-3.75-8.98-4.89-13.95-3.12C355.91,564.87,352.17,569.26,350.58,574.96z M355.89,576.25
					c1.02-2.96,3.01-5.3,5.45-6.4c1.32-0.6,2.68-0.89,4.02-0.85c2.02,0.05,3.95,0.85,5.58,2.3c2.61,2.33,4.15,6.1,4.13,10.1
					l-0.01,0.45c-0.24,6.78-4.89,12.17-10.36,12.03c-3.32-0.09-6.37-2.2-8.15-5.66C354.72,584.69,354.49,580.33,355.89,576.25z"/>
				<path class="st2" d="M315.41,598.29l-10.21-38.4c-1.28-5.41-4.97-8.98-9.41-9.1c-4.44-0.12-8.32,3.25-9.88,8.58l-11.73,36.13
					l-0.44,1.37c-0.13,0.41,0.1,0.87,0.44,0.88l4.44,0.12c0.21,0.01,0.4-0.15,0.48-0.4l4.25-13.07l0.18-0.57l0.37-1.15
					c0.07-0.21,0.07-0.43,0.03-0.65c-0.21-0.95-0.31-1.96-0.28-3.01c0.1-3.62,1.69-6.75,4-8.44c0.15-0.11,0.27-0.28,0.34-0.48
					l0.22-0.68l0,0l0.18-0.56l0.14-0.42l2.16-6.66c0.01-0.04,0.03-0.08,0.04-0.12c0.93-3.22,3.14-4.32,4.89-4.27
					c1.75,0.05,3.9,1.26,4.66,4.53c0.01,0.04,0.02,0.08,0.03,0.12l9.01,33.91l0.62,2.34c0.07,0.25,0.25,0.42,0.46,0.43l4.7,0.12
					C315.32,598.83,315.48,598.56,315.41,598.29z"/>
			</g>
		</g>
	</g>
	<g>
		<path class="st3" d="M108.2,554.84c0.1-16.36-9.14-37.67-28.48-38.39c-19.7-0.73-29.44,20.39-29.58,36.96v0.03
			c-0.13,16.38,9.11,37.73,28.47,38.45c19.73,0.74,29.48-20.42,29.59-37.01"/>
		<g>
			<polygon class="st1" points="407.37,149.51 89.84,169.82 90.52,79.07 407.51,52.13 			"/>
			<g>
				<path class="st1" d="M146.04,127.49c-1.36,0.1-2.56,0.91-3.38,1.98c-0.46,0.6-0.8,1.28-1.04,1.99
					c-0.12,0.37-0.22,0.74-0.28,1.13c-0.07,0.39-0.1,0.79-0.1,1.19l-0.05,7.15"/>
				<path class="st1" d="M147.05,118.71c-0.31,0.03-1.56-0.13-1.86-0.18c-0.32-0.05-0.63-0.15-0.92-0.28
					c-0.58-0.26-1.09-0.67-1.5-1.15c-0.96-1.12-1.39-2.65-1.38-4.11l0.09-12.95"/>
				<path class="st1" d="M127.58,151.36c-20.76-12.65-15.47-50.63,8.21-57.15"/>
				<path class="st1" d="M131.81,149.64l0.1-15.19c0.01-1.46-0.42-2.98-1.37-4.11c-0.41-0.48-0.92-0.89-1.49-1.15
					c-0.29-0.13-0.6-0.23-0.92-0.28c-0.3-0.05-0.6-0.07-0.91-0.05l-4.57,0.33l0.06-8.88l4.57-0.34c1.36-0.1,2.54-0.92,3.35-1.98
					c0.46-0.6,0.8-1.28,1.03-1.99c0.12-0.37,0.22-0.74,0.28-1.12c0.06-0.39,0.1-0.79,0.1-1.19l0.11-17.86"/>
				<path class="st1" d="M123.56,91.22c16.57-1.35,24.38,15.89,23.89,29.91c-0.47,13.37-8.84,30.27-24.32,31.31"/>
				<path class="st1" d="M123.14,152.44c-16.43,1.11-24.11-16.03-23.63-29.93c0.46-13.28,8.72-30.04,24.05-31.29"/>
			</g>
			<g>
				<path class="st1" d="M206.18,122.7c-1.41,0.1-2.64,0.91-3.48,1.98c-0.47,0.6-0.82,1.28-1.07,1.99
					c-0.13,0.37-0.22,0.74-0.29,1.12c-0.07,0.39-0.1,0.79-0.1,1.19l-0.05,7.14"/>
				<path class="st1" d="M207.21,113.92c-0.31,0.03-1.61-0.13-1.92-0.18c-0.33-0.05-0.65-0.15-0.95-0.28
					c-0.6-0.26-1.12-0.67-1.55-1.15c-0.99-1.12-1.43-2.64-1.42-4.11l0.09-12.94"/>
				<path class="st1" d="M187.13,146.55c-21.42-12.64-15.95-50.59,8.47-57.1"/>
				<path class="st1" d="M191.49,144.83l0.11-15.18c0.01-1.46-0.43-2.98-1.41-4.1c-0.42-0.48-0.94-0.89-1.54-1.15
					c-0.3-0.13-0.62-0.23-0.95-0.28c-0.31-0.05-0.62-0.07-0.93-0.05l-4.72,0.33l0.06-8.87l4.71-0.34c1.4-0.1,2.62-0.92,3.46-1.98
					c0.47-0.6,0.82-1.28,1.07-1.99c0.13-0.37,0.22-0.74,0.29-1.12c0.07-0.39,0.1-0.79,0.1-1.18l0.11-17.85"/>
				<path class="st1" d="M182.99,86.46c17.09-1.35,25.15,15.88,24.64,29.88c-0.48,13.36-9.11,30.24-25.08,31.29"/>
				<path class="st1" d="M182.55,147.63c-16.95,1.11-24.87-16.02-24.37-29.9c0.48-13.27,9-30.02,24.81-31.27"/>
			</g>
			<g>
				<path class="st1" d="M266.63,118.71c-1.42,0.1-2.65,0.94-3.5,2.04c-0.48,0.62-0.83,1.31-1.08,2.05
					c-0.13,0.38-0.23,0.76-0.29,1.16c-0.07,0.4-0.1,0.81-0.11,1.22l-0.05,7.34"/>
				<path class="st1" d="M267.67,109.7c-0.32,0.03-1.62-0.13-1.93-0.19c-0.33-0.06-0.65-0.15-0.96-0.29
					c-0.6-0.27-1.13-0.69-1.56-1.18c-0.99-1.15-1.44-2.72-1.43-4.22l0.09-13.29"/>
				<path class="st1" d="M247.48,143.21c-21.53-12.98-16.04-51.96,8.51-58.65"/>
				<path class="st1" d="M251.86,141.44l0.11-15.59c0.01-1.5-0.43-3.06-1.42-4.22c-0.42-0.5-0.95-0.92-1.55-1.18
					c-0.3-0.14-0.62-0.23-0.95-0.29c-0.31-0.05-0.63-0.07-0.94-0.05l-4.74,0.34l0.06-9.11l4.74-0.35c1.41-0.1,2.63-0.94,3.48-2.04
					c0.47-0.61,0.82-1.31,1.07-2.04c0.13-0.38,0.22-0.76,0.29-1.15c0.07-0.4,0.1-0.81,0.1-1.22l0.11-18.33"/>
				<path class="st1" d="M243.32,81.49c17.19-1.39,25.29,16.31,24.78,30.69c-0.48,13.72-9.16,31.06-25.22,32.13"/>
				<path class="st1" d="M242.88,144.32c-17.04,1.14-25.01-16.45-24.51-30.71c0.48-13.63,9.05-30.83,24.94-32.11"/>
			</g>
			<g>
				<path class="st1" d="M330.98,114.06c-1.48,0.1-2.77,0.95-3.66,2.07c-0.5,0.62-0.87,1.33-1.12,2.08
					c-0.13,0.38-0.24,0.77-0.3,1.17c-0.07,0.41-0.1,0.82-0.11,1.24l-0.05,7.44"/>
				<path class="st1" d="M332.07,104.92c-0.33,0.03-1.69-0.14-2.01-0.19c-0.34-0.06-0.68-0.15-1-0.29c-0.63-0.27-1.18-0.7-1.63-1.2
					c-1.04-1.17-1.5-2.76-1.49-4.28l0.09-13.49"/>
				<path class="st1" d="M310.97,138.91c-22.5-13.17-16.76-52.71,8.89-59.5"/>
				<path class="st1" d="M315.55,137.12l0.11-15.81c0.01-1.52-0.45-3.11-1.48-4.28c-0.44-0.5-0.99-0.93-1.62-1.2
					c-0.32-0.14-0.65-0.23-0.99-0.29c-0.32-0.05-0.65-0.07-0.98-0.05l-4.95,0.35l0.07-9.24l4.95-0.36c1.47-0.1,2.75-0.96,3.63-2.07
					c0.49-0.62,0.86-1.33,1.12-2.07c0.13-0.38,0.23-0.77,0.3-1.17c0.07-0.41,0.1-0.82,0.11-1.23l0.11-18.6"/>
				<path class="st1" d="M306.62,76.3c17.96-1.41,26.42,16.54,25.89,31.13c-0.51,13.92-9.57,31.51-26.35,32.6"/>
				<path class="st1" d="M306.16,140.04c-17.81,1.15-26.13-16.69-25.6-31.15c0.5-13.83,9.45-31.28,26.06-32.58"/>
			</g>
			<g>
				<path class="st1" d="M396.16,109.34c-1.52,0.1-2.85,0.97-3.76,2.09c-0.51,0.63-0.89,1.35-1.16,2.11
					c-0.14,0.39-0.24,0.79-0.31,1.19c-0.07,0.41-0.11,0.83-0.11,1.25l-0.05,7.55"/>
				<path class="st1" d="M397.27,100.07c-0.34,0.03-1.74-0.14-2.07-0.19c-0.35-0.06-0.7-0.16-1.03-0.29
					c-0.65-0.27-1.21-0.71-1.68-1.22c-1.07-1.19-1.55-2.79-1.54-4.34l0.1-13.68"/>
				<path class="st1" d="M375.56,134.54c-23.16-13.36-17.25-53.46,9.15-60.34"/>
				<path class="st1" d="M380.28,132.73l0.11-16.04c0.01-1.54-0.46-3.15-1.53-4.34c-0.46-0.51-1.02-0.94-1.66-1.22
					c-0.33-0.14-0.67-0.24-1.02-0.3c-0.33-0.06-0.67-0.07-1.01-0.05l-5.1,0.35l0.07-9.37l5.1-0.36c1.51-0.11,2.83-0.97,3.74-2.09
					c0.51-0.63,0.89-1.35,1.15-2.1c0.14-0.39,0.24-0.78,0.31-1.19c0.07-0.41,0.11-0.83,0.11-1.25l0.12-18.86"/>
				<path class="st1" d="M371.08,71.05c18.48-1.43,27.2,16.78,26.65,31.58c-0.52,14.11-9.86,31.96-27.12,33.06"/>
				<path class="st1" d="M370.61,135.68c-18.33,1.17-26.9-16.93-26.36-31.6c0.52-14.02,9.73-31.72,26.83-33.04"/>
			</g>
		</g>
		<ellipse class="st1" cx="79.77" cy="452.05" rx="4.8" ry="5.98"/>
	</g>
</g>
</svg>
