<?xml version="1.0" encoding="utf-8"?>
<!-- Generator: Adobe Illustrator 25.2.1, SVG Export Plug-In . SVG Version: 6.00 Build 0)  -->
<svg version="1.1" id="Laag_1" xmlns="http://www.w3.org/2000/svg" xmlns:xlink="http://www.w3.org/1999/xlink" x="0px" y="0px"
	 viewBox="0 0 960 960" style="enable-background:new 0 0 960 960;" xml:space="preserve">
<style type="text/css">
	.st0{fill:#0066FF;}
</style>
<path d="M366.8,28.2c9.6-0.5,19.2-0.1,28.5,1.3l0.4,0.1l430.9,16l0.5,0l0.5,0C897.2,50.1,954,106.6,954,174.2v608.7
	c0,67.6-56.8,124.1-126.4,128.5c-0.3,0-0.7,0-1,0.1l-441.9,16.3l-0.7,0c-2.4,0.1-4.7,0.2-7.1,0.2H375c-1.5,0-3.1,0-4.7-0.1l-1.8-0.1
	l-1.4-0.1c-1.5-0.1-3-0.2-4.5-0.5l-231.2-37.8C61.9,878.1,10.1,819.6,9,756l0-1.6v-0.6L12.7,216l0-0.8c0.2-35.3,11.3-64.9,33.2-87.8
	c19.5-20.4,46-34,79.9-43.1l1.7-0.5c0.4-0.1,0.8-0.2,1.1-0.3l231.2-54.3C362.2,28.7,364.5,28.4,366.8,28.2L366.8,28.2z M393.7,69.6
	c-52.2,6.5-90.3,37.3-90.3,74.7v671.1c0,34.3,31.9,63,77.4,72.6l0.7,0l1.4-0.1l442.3-16.4c1.1-0.1,2.1-0.1,3.2-0.2
	c14.3-2.7,27.7-7,39.5-12.6c27.5-15.8,46.2-44.3,46.2-75.7V174.2c0-25-11.8-48.2-30.6-64.6c-21.3-13.6-49.8-22.8-81.5-24.2
	l-85.4-3.8L393.7,69.6z M315.1,80.8l-177.2,41.6l-1.6,0.4c-52.5,14.2-83.6,40.5-83.6,93.4L49,754l0,1.2c0.7,41.2,35.3,86,88.9,94.8
	l177.5,29c-19.9-16.7-32-38.7-32-63.7V144.3C283.4,119.4,295.4,97.5,315.1,80.8L315.1,80.8z M437,670c32.6,0,59,26.4,59,59
	s-26.4,59-59,59s-59-26.4-59-59S404.4,670,437,670z M437,690c-21.5,0-39,17.5-39,39s17.5,39,39,39s39-17.5,39-39S458.5,690,437,690z
	 M790.4,183.9l0.5,0c18.1,0.4,32.5,15.4,32.2,33.7s-15.2,32.7-33.3,32.3s-32.5-15.4-32.2-33.7c0.3-17.9,14.6-32.1,32.2-32.3
	L790.4,183.9z M710,182.2l0.5,0c18.1,0.4,32.5,15.4,32.2,33.7s-15.2,32.7-33.3,32.3s-32.5-15.4-32.2-33.7
	c0.3-17.9,14.6-32.1,32.2-32.3L710,182.2z M629.6,180.6l0.5,0c18.1,0.4,32.5,15.4,32.2,33.7s-15.2,32.7-33.3,32.3
	s-32.5-15.4-32.2-33.7c0.3-17.9,14.6-32.1,32.2-32.3L629.6,180.6z M549.2,178.9l0.5,0c18.1,0.4,32.5,15.4,32.2,33.7
	s-15.2,32.7-33.3,32.3s-32.5-15.4-32.2-33.7c0.3-17.9,14.6-32.1,32.2-32.3L549.2,178.9z M468.8,177.3l0.5,0
	c18.1,0.4,32.5,15.4,32.2,33.7s-15.2,32.7-33.3,32.3s-32.5-15.4-32.2-33.7c0.3-17.9,14.6-32.1,32.2-32.3L468.8,177.3z"/>
<circle class="st0" cx="437" cy="729" r="39"/>
</svg>
