<?xml version="1.0" encoding="utf-8"?>
<!-- Generator: Adobe Illustrator 25.2.1, SVG Export Plug-In . SVG Version: 6.00 Build 0)  -->
<svg version="1.1" id="Laag_1" xmlns="http://www.w3.org/2000/svg" xmlns:xlink="http://www.w3.org/1999/xlink" x="0px" y="0px"
	 viewBox="0 0 960 960" style="enable-background:new 0 0 960 960;" xml:space="preserve">
<path d="M276.5-0.4c2.4,0,4.8,0.1,7.3,0.3c0.4,0,0.7,0.1,1.1,0.1l15.7,1.6c0.3,0,0.6,0.1,0.9,0.1l2.8,0.3l2.5,0.3
	c0.2,0,0.4,0,0.6,0.1c0.4,0,0.8,0.1,1.2,0.2l504.1,73.1c28.9,4.1,50.8,28.4,51.8,57.6l23.5,694.3c1,31-21.7,57.8-52.5,61.7
	l-506.8,65.4l-0.9,0.1c-1.7,0.2-3.4,0.3-5.1,0.3l-0.7,0l-50.2,2.7l-0.9,0.1c-2.3,0.1-4.6,0.2-7,0.2h-1.3c-6.4-0.1-12.7-0.7-19-1.8
	l-23.3-4.1l-0.9-0.1c-31.3-5.2-54.5-32.3-54.5-64.3l0-146.2l-5.7,0l-0.3,0c-6.6-0.2-12-5.6-12-12.2V716l18,1v-3.6l-6.1-0.3l0.1-0.3
	c0.6-1.5,0.8-3.1,0.8-4.3c0-1.6-0.3-3.3-0.9-4.7l5.1,0.3l1,0.1v-3.6l-10.2-0.6l-0.1,0l-0.1,0l-7.5-0.4v-25.8l6.8,0.4l9.4,0.5
	l1.8,0.1v-3.6l-6.1-0.3l0.1-0.3c0.5-1.2,0.8-2.7,0.8-4.3c0-1.6-0.3-3.3-0.9-4.7l6,0.3v-3.6l-10.2-0.6l-0.2,0l-0.2,0l-7.3-0.4v-24.1
	l6.8,0.4l10.2,0.6l1.1,0.1v-3.6l-6.2-0.4l0.1-0.3c0.6-1.3,0.9-3,0.9-5c0-1.8-0.3-3.7-0.9-5.3l5.7,0.3l0.4,0v-3.6l-18-1.1v-24.7
	l18,1.1v-3.6l-6.2-0.4l0.2-0.3c0.7-1.7,0.9-3.5,0.9-4.9c0-1.9-0.3-3.7-0.9-5.3l4.4,0.3l1.7,0.1v-3.6l-18-1.1v-10.2l0-0.3
	c0.2-8.3,7-15,15.3-15l2.6,0V413.2l-5.7,0l-0.3,0c-6.6-0.2-12-5.6-12-12.2v-13.3l18,1V385l-6.1-0.3l0.1-0.3c0.6-1.5,0.8-3.1,0.8-4.3
	c0-1.6-0.3-3.3-0.9-4.7l5.1,0.3l1,0.1v-3.6l-10.2-0.6l-0.1,0l-0.1,0l-7.5-0.4v-25.8l6.8,0.4v0l9.4,0.5l1.8,0.1v-3.6l-6.1-0.3
	l0.1-0.3c0.5-1.2,0.8-2.7,0.8-4.3c0-1.6-0.3-3.3-0.9-4.7l6,0.3v-3.6l-10.2-0.6l-0.2,0l-0.2,0l-7.3-0.4v-24.1l6.8,0.4v0l10.2,0.6
	l1.1,0.1v-3.6l-6.2-0.4l0.1-0.3c0.6-1.4,0.9-3,0.9-5c0-1.8-0.3-3.7-0.9-5.3l5.7,0.3l0.4,0V288l-18-1.1v-24.7l18,1.1v-3.6l-6.2-0.4
	l0.2-0.3c0.7-1.7,0.9-3.5,0.9-4.9c0-1.9-0.3-3.7-0.9-5.3l4.4,0.3l1.7,0.1v-3.6l-18-1.1v-10.2l0-0.3c0.2-8.3,7-15,15.3-15l2.6,0
	l0-152.4c0-32.6,24.7-59.9,57.2-63.1l0.7-0.1l0.7,0l1.2-0.1l45.1-3.5C272-0.3,274.2-0.4,276.5-0.4L276.5-0.4z M252.2,41.4l-24.8,1.9
	l-1.4,0.1c-12,1.2-21.1,11.2-21.1,23.3v821.2c0,12.6,9.3,23.2,21.8,24.9l23.9,4.2c1.6,0.3,3.1,0.5,4.7,0.7
	c-2.2-4.9-3.4-10.8-3.5-17.4l-1.2-841.1l0-1.3l0-1.3l0-1.2c0-0.2,0-0.4,0-0.6l0-1.2c0-0.2,0-0.4,0-0.6l0.1-1.1c0-0.2,0-0.4,0-0.5
	l0.1-1.1C251.1,46.9,251.5,44,252.2,41.4L252.2,41.4z M270.6,110.4l1.1,789.4l0,0.6c0.2,8.7,3,13,7.6,15.2c1.6,0.8,3.3,1.3,5.1,1.5
	l-0.1,0l10.2-0.5c-1-2.9-1.6-5.9-1.6-9.1L270.6,110.4z M289.2,58.2L313,906.9c0.1,3.6,1.9,6.6,4.6,8.5l3.1-0.2l0.2,0
	c0.8,0,1.7,0,2.5-0.1l506.8-65.4c10.3-1.3,17.9-10.3,17.6-20.7l-23.5-694.3c-0.2-5.6-2.6-10.6-6.5-14.1c-0.2-0.1-0.5-0.1-0.8-0.1
	l-516-73C294.8,46.4,289,51.6,289.2,58.2L289.2,58.2z"/>
<ellipse transform="matrix(0.3256 -0.9455 0.9455 0.3256 -389.5695 1123.8444)" cx="593" cy="835" rx="20.5" ry="16.5"/>
</svg>
