<?xml version="1.0" encoding="utf-8"?>
<!-- Generator: Adobe Illustrator 21.1.0, SVG Export Plug-In . SVG Version: 6.00 Build 0)  -->
<svg version="1.1" id="Laag_1" xmlns="http://www.w3.org/2000/svg" xmlns:xlink="http://www.w3.org/1999/xlink" x="0px" y="0px"
	 viewBox="0 0 932 931" style="enable-background:new 0 0 932 931;" xml:space="preserve">
<style type="text/css">
	.st0{stroke:#000000;stroke-width:4;stroke-miterlimit:10;}
</style>
<path class="st0" d="M339.2,4c5.6,0.3,11.2,0.9,16.8,0.6c73.7-0.1,147.3,0,221,0c24.7,0.1,49.3,0.3,74,0.2c8.3-0.4,16.7,0.4,25,0
	c14.3-0.4,28.6,0.1,43-0.1c12.3,0.8,24.7,0.3,37,0.4c27.4,0.1,54.7,0,82,0.1c14.6,0.6,29.3,0.3,44,0.4c6.7,0.1,13.6-0.6,20.2,1.2
	c6.1,1.7,12,4.8,16.3,9.7c4.9,5.5,8,12.4,9.4,19.6c1.4,9.9-0.3,20,0.5,30c0,197,0,394,0,591c0.1,11-0.3,22,0.4,33
	c0.4,18.7-0.2,37.3,0.1,56c0.5,23.7,0,47.3,0.3,71c0,16.7,0.1,33.3,0,50c-0.1,8.9,0.5,17.8-0.5,26.7c-1.2,11.2-7.3,22.2-17.1,28.1
	c-8.6,5.7-19.4,5.5-29.3,5.8c-10.3-1.6-20.7,0.6-31-0.1c-11.4-1-22.9-0.3-34.3-0.5c-27,0.1-54,0.2-81,0c-9.3,0.5-18.6-0.5-28-0.2
	c-19.7-0.3-39.3,0.5-59-0.4c-17.7,0.2-35.4,0.1-53,0.1c-8.3-0.7-16.7,0.1-25-0.4c-9-0.5-18,1.2-27,0.1c-6.8-1-13.6,0.8-20.5,0
	c-9.2,0.1-18.4,0.4-27.7-0.1c-15.9,0.6-31.9-0.1-47.8,0.1c-20.7-0.3-41.3,0.2-62-0.2c-28.3,0.8-56.6-0.8-85-0.1
	c-5.9,0.4-11.7-0.4-17.6-0.3c-11.8,0.9-23.6,0.3-35.4,0.5c-12.7,0.2-25.3-0.2-38-0.8c-5-0.7-10,0.3-15,0.4
	c-12.5-0.1-25-0.2-37.5,0.1c-33.8-0.5-67.7,0.2-101.5-0.6c-11.6,0.3-24.2,0.6-34.4-5.9C10.7,912.5,4.9,899.6,4.7,887
	c0-55.3,0-110.7-0.1-166c-0.7-11.3-0.2-22.6-0.3-33.9C4.5,623.3,4,559.7,4,496c-0.4-14,0.6-28,0.1-42c-0.3-5.7,0.5-11.3,0.2-17
	c-0.5-9.4,0.6-18.7,0.4-28.1c0-118-0.1-236,0.2-354c0.1-9.4-0.7-19.1,3.1-27.9c2.5-7.1,7.2-13.5,13.8-17.3C32.5,2.9,45.8,3.5,58,3.8
	c5.7,0.5,11.3,0.1,17-0.1c32.7,1.1,65.3,0.1,98,0.5c34.3-0.3,68.7,0.3,103,0.1C297.1,4.2,318.1,4.4,339.2,4 M98.2,7
	C88.1,6.6,78,6.9,68,7.1c-10.1,0.2-20.2-1-30.2,0.7C28.1,9.4,17.9,14,13.3,23.2C7.1,34.1,8.3,47,8.4,59C8,108.3,8.4,157.7,8,207
	c0.3,61.7-0.1,123.3,0,185c0.3,13.3-0.5,26.7,0,40c-0.2,19-0.4,38-0.3,57c-0.5,14.8-0.5,29.5-0.3,44.3c-0.3,19.2-0.1,38.5-0.1,57.7
	c0,13.7-0.2,27.4,0.7,41c-0.2,14.7,0.1,29.3,0,44c-0.5,22.7,0.3,45.3-0.3,68c0.4,10.7,0.4,21.3,0.2,32c0.6,27.3-0.1,54.7,0.3,82
	c0.3,13-0.9,26.2,1.7,39.1c1.6,6.6,4.9,13.2,10.5,17.3c6.3,5,14.4,7.3,22.4,7.5c13.7,0.4,27.4,0.1,41,0c13.3,0.5,26.7,0.2,40,0.3
	c24.7-0.3,49.3,0.2,74-0.2c14.3-0.9,28.6,0,43-0.1c10.7-0.6,21.4,0.5,32-0.2c6.7-0.5,13.3,0.6,19.9,1c46.3,0,92.7,0.1,139,0
	c18.1,0.1,36.3-0.4,54.5,0.6c4.2,0.1,8.4,0.1,12.6-0.2c6.5-0.6,13,0.5,19.5,0.3c9.2,0.3,18.3-0.8,27.5-0.5
	c13.2,0.2,26.5-0.4,39.7,0.4c10.9,0.3,21.7-0.8,32.6-0.4c12.6,1,25.1-0.6,37.7-0.4c16.3,0,32.7,0,49,0c11.3,0.2,22.7-0.5,34,0.9
	c16.3,0.3,32.7,0,49,0.1c10.7,0.3,21.3-0.7,32,0c16.3,0,32.7,0,49,0.1c10.6-0.1,21.4,0.7,31.9-1.3c8.4-1.2,15.8-6.9,19.7-14.4
	c3.6-6.6,5.2-14.1,5.2-21.6c-0.2-55.5,0-111-0.2-166.6c-0.1-12.5,0.6-25-0.8-37.4c-0.3-12,0.1-24,0.1-36c-0.2-35.7-0.1-71.3,0-107
	c-0.1-18.7,0.5-37.3-0.1-56c0.2-15.7-0.3-31.4,0.4-47c-0.2-20.3,0.2-40.7-0.2-61c0.4-21.7,0.3-43.3,0-65c-0.2-7,0.7-14,0.6-21
	c-0.2-12.3,0.3-24.6-0.4-37c-0.3-24.7-0.1-49.4-0.3-74c-0.1-5,1.2-9.9,0.9-15c-0.5-9,0-18.1-0.2-27.1c-0.9-18-0.3-36-0.4-54
	c-0.3-13,0.5-26-0.2-39c-0.6-9-3.3-18.5-10-25c-6.9-7.2-17.3-9.6-27-9.7c-8.7,0-17.4,0-26,0c-46.3-0.5-92.7,0.3-139-0.1
	c-10-0.5-20-0.5-30-0.1c-8,0.5-16-1-24,0c-20,0.4-40-0.3-60,0.1c-10,0.1-20-0.9-30-0.4c-31.7,0.1-63.3-0.1-95,0.1
	c-39-0.4-78-0.7-117-0.5c-10.3,0.6-20.7-0.3-31-0.1c-44,0-88,0.1-132,0c-5.3-0.2-10.7-0.6-16-0.1c-11.6,0.2-23.2,0-34.8-0.2
	c-9.3,0.6-18.7,0.3-28,0.1C116.2,7.5,107.2,7.3,98.2,7z"/>
<path d="M219.2,149.8c4.6,0.5,9.1,1.1,13.8,0.7c5.5-0.5,11.1,0.1,16.6,0c9.6-0.6,19.2,0.4,28.7-0.1c7.5,0.4,15-0.1,22.4-0.2
	c10.8,1.1,21.5-0.4,32.3-0.3c8.3-0.9,16.6,0.9,24.9,0.4c33,0,66-0.2,99-0.2c6,0,12,0.4,18,0.5c51.7,0,103.4-0.1,155,0.2
	c34.7,0.2,69.3-0.6,104,0.2c4.8,0,10.2-0.4,14.2,2.8c4.5,3.6,7.7,9.2,7.6,15.1c-0.1,32.4-0.2,64.7,0.1,97.1
	c-0.5,16.7,0.1,33.3-0.1,50c-0.3,12.7,0.3,25.3-0.1,38c0.5,15.7,0.9,31.4,0.3,47c-0.7,12.7,0.1,25.3-0.3,38c0,27,0,54,0,81
	c-0.1,7.7,0.1,15.3,0.4,23c0.2,43.3,0.1,86.7,0,130c0,26,0.2,52,0,78c-0.1,6.7,1.2,13.8-2,20.1c-2.4,5-7.6,8.4-13.1,8.7
	c-7.7,0.5-15.3-0.1-23-0.1c-38.3,0.1-76.7,0.1-115,0.1c-47.3-0.4-94.7,0.3-142-0.5c-46.5,0-93,0.4-139.5-0.4
	c-27.2,0.6-54.3,0-81.5,0.4c-8.7,0-17.3,0-26-0.4c-7-0.3-14,0.3-21-0.1c-5.3-0.3-9.4-4.5-11.9-8.9c-3-5.1-2.4-11.2-2.4-16.8
	c0.1-29-0.1-58,0-87c0.2-20.7-0.5-41.3-0.3-62c-0.1-31.7,0.1-63.3-0.1-95c-0.1-16.3,0-32.7,0.3-49c0-97.3,0-194.7,0.1-292
	c-0.2-7.4,4.4-14.6,11.5-16.9c4.9-2.2,10.1-0.3,15.2-0.9C210,149.7,214.6,149.3,219.2,149.8 M200.2,152.8c-3.1,0.2-6.2,0.3-9.2,1.3
	c-4.8,2-8.5,6.6-8.7,11.9c-0.7,10.3-0.1,20.6-0.2,30.9c-0.6,17.7,0.1,35.3-0.1,53c-0.5,67.7,0.5,135.3-0.4,203c0.1,78,0,156,0.5,234
	c0,24.7-0.1,49.4,0.1,74c-0.1,4.4,1.6,8.9,5.3,11.5c5.5,4.5,13,3.1,19.5,3.3c17.7,0.3,35.3,0.5,53,0.1c23.3,0.2,46.7,0.2,70,0
	c25,0.4,50,0.3,75,0.4c45.3-0.3,90.7,0.2,136,0c21,0.3,42-0.4,63,0.3c37.7,0.1,75.4,0,113,0c8.5,0.3,17.1,0.8,25.5-0.3
	c5.9-1.8,10.4-8.1,10.2-14.3c-0.2-19.7-0.1-39.4-0.1-59.1c-0.1-6-0.9-12-0.8-18c0.1-46,0.7-92,0.1-138c1-13,0.5-26,0.6-39
	c-0.1-48,0.1-96,0-144c-0.2-15,0.4-30-0.1-45c0.2-23.7,0-47.3,0-70.9c0.6-12.8-0.1-25.7-0.1-38.5c0.6-12.9-0.2-25.7,0.3-38.6
	c0.2-4.5-1.6-8.9-4.2-12.5c-2.2-2.9-6-3.8-9.5-4.1c-24.3-0.9-48.6,0-72.9-0.5c-17.3-0.1-34.7,0.2-52,0.1c-8.7,0.6-17.3-0.9-26-0.6
	c-80.7,0.1-161.3,0-242,0c-8.7,0.1-17.3-0.6-26,0c-31,0-62,0-93,0C218.1,153.2,209.2,152.4,200.2,152.8z"/>
<path d="M381.7,191.6c11.4-0.7,22.8-0.4,34.2-0.3c0.9,6.2,0.4,12.4,0.5,18.7c0,22.7,0,45.3,0,68c0,2.1-0.2,4.1-0.4,6.2
	c-5,0.2-9.9-0.5-14.9-0.3c-6.4-0.2-12.8,1-19.1,0.3c-0.8-3.2-1.3-6.4-1.7-9.7c-8.7-0.8-17.6,1.1-26-1.6c-17.1-4.6-28.8-23.1-26-40.5
	c1.5-8.6,5.6-17.1,12.6-22.5c4.9-3.8,10.6-6.8,16.7-8.1c7.5-1.3,15.2-0.5,22.8-1.2C380.8,197.6,381.2,194.6,381.7,191.6z"/>
<path d="M518.1,192.1c11.6-1.2,23.3,0.1,34.9-0.3c0.8,2.9,1.2,5.9,1.5,8.9c9.8,1.2,20,0.2,29.5,3.4c16.1,6.7,26.6,25.7,22,42.8
	c-2.8,13.9-15.1,24.1-28.4,27.5c-7.7,0.6-15.4,1.1-23.1,1.1c-0.3,2.9-0.5,5.7-0.7,8.6c-6.9,0.8-13.8,0.2-20.7,0.4
	c-4.6-0.1-9.2,0.4-13.8-0.4c-1.8-1-1.4-3.3-1.6-5c0.1-27,0-54,0-81C517.7,196,517.9,194,518.1,192.1z"/>
<path d="M450.1,479c6-0.7,11.9-0.3,17.9-0.3c5.6,0.1,11.1-0.1,16.7,0.4c0.9,14.3,0.2,28.6,0.4,42.9c0,9.7,0.3,19.3,0.1,29
	c-0.1,6.9,0.5,13.9-0.4,20.8c-11.8,0.2-23.5-0.1-35.3-0.3c-0.2-1.8-0.6-3.6-0.6-5.4c0.1-27.4-0.2-54.7,0.1-82.1
	C449,482.2,449.6,480.6,450.1,479z"/>
<path d="M704.2,542.6c13.7-0.8,26.3,8.5,31.3,20.9c3.2,6.7,1.9,14.3,2.1,21.5c-0.2,12.4,0.8,24.7,0.5,37c-0.3,22,0.3,44,0,66
	c0,7.9-3.5,15.6-8.8,21.4c-8.3,8.6-21.2,11.9-32.7,8.8c-8.9-2.1-15.5-9.3-20-16.9c-4.2-7-3.3-15.5-3.5-23.3c-0.5-13-0.1-26-0.3-39
	c-0.2-9,0.6-18,0.7-27c0.2-13.3-0.1-26.7,0-40c0-6.5,3.2-12.4,6.9-17.5C686.1,547.2,695.1,543,704.2,542.6 M699.4,546.6
	c-8.6,1.8-16.2,8.1-19.7,16.1c-4,8.5-2.6,18.2-2.9,27.3c0.2,15.3,0.2,30.7,0.2,46c-0.1,13.3,0.3,26.7-0.3,40
	c0,6.4-0.3,12.9,1.3,19.1c2.9,9.1,10.1,17.1,19.4,19.7c13,4.1,28.7-2.5,34.3-15.1c3.4-7,3-15.1,3-22.7c-0.1-15,0.2-30-0.3-45
	c0.8-18.3-1.1-36.7-0.2-55c0.5-11.8-6.5-24-17.6-28.5C711.2,545.9,705.1,545.7,699.4,546.6z"/>
<path d="M703.4,568.3c3.5-0.9,7.9,1.1,8.6,4.8c1.4,5.3-5.5,9.9-10,7C696.8,578,697.8,569.4,703.4,568.3z"/>
<path d="M380.9,630.8c1.6-0.6,3.7-2.4,5.3-1c2.9,3.3,4.6,7.4,6.9,11.1c12.4,20.4,23.2,41.8,36.1,61.9c1.1,1.9,1.8,4,2.4,6.1
	c-5.6,4.1-12,7-17.9,10.7c-3.6,2-6.8,4.7-10.8,6c-2.1,0.4-2.8-2.2-4-3.5c-9.9-16.5-19.3-33.3-29.3-49.8c-4.3-7.1-8.4-14.4-12.5-21.6
	c-0.9-1.6-1.4-3.5-1.9-5.2C363.5,640.1,372.3,635.7,380.9,630.8z"/>
<path d="M542.8,638.9c1.8-3.3,3.7-6.6,6.2-9.4c6.3,2.6,12.5,5.6,18.3,9.3c3.7,2.4,7.9,3.9,11.3,6.8c0.9,2.5-1.1,4.8-2.1,7
	c-7.1,12-13.9,24.1-20.8,36.2c-8,12.2-14.1,25.7-22.7,37.5c-6.5-2.5-12.1-6.7-18.2-10c-4-2.3-8.3-4.3-11.7-7.4
	c2.4-6.7,6.8-12.3,10.1-18.6C522.8,673,532.7,655.8,542.8,638.9z"/>
</svg>
