<?xml version="1.0" encoding="utf-8"?>
<!-- Generator: Adobe Illustrator 25.2.1, SVG Export Plug-In . SVG Version: 6.00 Build 0)  -->
<svg version="1.1" id="Laag_1" xmlns="http://www.w3.org/2000/svg" xmlns:xlink="http://www.w3.org/1999/xlink" x="0px" y="0px"
	 viewBox="0 0 960 960" style="enable-background:new 0 0 960 960;" xml:space="preserve">
<style type="text/css">
	.st0{fill:#1D1D1B;stroke:#000000;stroke-width:5;stroke-miterlimit:10;}
</style>
<g>
	<path d="M256.8,27.6l506.7,73c14.5,2.1,25.4,14.5,25.9,29.3l23.5,708.9c0.5,15.7-10.8,29.4-26.3,31.4L279.8,937
		c-17.8,2.4-33.6-11.4-34.1-29.5L222.4,58.8C221.8,39.9,238.2,24.9,256.8,27.6L256.8,27.6z M242.4,58.2L265.8,907
		c0.2,6.3,5.6,11,11.5,10.2l506.8-66.8c5.2-0.7,9.1-5.4,8.9-10.9l-23.5-708.9c-0.2-5.2-3.9-9.5-8.8-10.2L254,47.4
		C247.8,46.5,242.2,51.6,242.4,58.2L242.4,58.2z"/>
	<path d="M209.5,32.2c-3.2,4.4-4.7,9.5-5.5,16.7l-0.1,1c0,0.7-0.1,1.4-0.1,2.1l-0.1,1.1v1.1c0,0.2,0,0.4,0,0.6V56v1.2v1.3
		c0,0.2,0,0.4,0,0.6l1.2,841.1c0.3,16.4,7.3,27.7,18.8,33.3c6.3,3.1,12.6,4,17.8,3.8h0.4h0.3c5.5-0.5,9.6-5.3,9.2-10.8
		c-0.5-5.4-5.1-9.5-10.5-9.2h-0.2c-0.6,0-1.7,0-2.9-0.2c-1.8-0.2-3.5-0.7-5.1-1.5c-4.6-2.2-7.4-6.5-7.6-15.2v-0.5v-4.5l-1.2-836.7
		v-1v-0.9v-0.9v-1.3l0.1-1.2v-0.7V52l0.1-0.7l0.1-0.7l0.1-0.6c0-0.1,0-0.2,0-0.3l0.1-0.6c0-0.1,0-0.2,0-0.3l0.1-0.5l0.1-0.5l0.1-0.5
		l0.1-0.4l0.1-0.4c0.1-0.2,0.1-0.4,0.2-0.6l0.1-0.4c0.3-0.7,0.5-1.2,0.8-1.6c0-0.1,0.1-0.2,0.2-0.3l0.1-0.1c0.1-0.2,0.3-0.3,0.5-0.4
		L227,43c0.2,0,0.5-0.1,0.7-0.2l0.3-0.1c0.1,0,0.1,0,0.2,0l0.3-0.1c0.1-0.1,0.3-0.1,0.4-0.1l0.4-0.1c0.1,0,0.1,0,0.2,0h0.4h0.5
		c0,0,0.1,0,0.2,0h0.5c0.1,0,0.2,0,0.3,0h0.6c0.2,0,0.4,0,0.6,0h0.6h0.7h0.7h0.7h0.7l15.5,1.7c5.4,0.6,10.3-3.3,11-8.6v-0.3
		c0.6-5.4-3.3-10.3-8.6-11h-0.3l-15.7-1.7h-0.3C224.5,21.5,215.2,24.3,209.5,32.2L209.5,32.2z"/>
	<path d="M229.6-0.4c2.4,0,4.9,0.1,7.4,0.3c0.4,0,0.7,0.1,1.1,0.1l15.6,1.6c0.3,0,0.6,0.1,0.9,0.1l2.8,0.3l2.5,0.3
		c0.2,0.1,0.4,0.1,0.6,0.1c0.4,0.1,0.8,0.1,1.2,0.2l504,73.2c29,4.1,50.8,28.4,51.8,57.6L841,827.7c1,31-21.7,57.7-52.5,61.7
		l-506.8,65.4l-0.9,0.1c-1.7,0.1-3.4,0.3-5.1,0.3h-0.8l-50.2,2.7h0.6c-2.7,0.2-5.5,0.3-8.3,0.3h-1.3c-6.4-0.1-12.7-0.7-19-1.8
		l-23.3-4.1l-0.9-0.1c-31.3-5.2-54.5-32.3-54.5-64.3V66.7c0-32.6,24.7-59.9,57.2-63.1l0.7-0.1h0.7l1.2-0.1l45.1-3.5
		C225.1-0.3,227.3-0.4,229.6-0.4L229.6-0.4z M229.6,39.6c-0.9,0-1.8,0-2.6,0.1l-46.5,3.5l-1.4,0.1c-12,1.2-21.1,11.3-21.1,23.3
		v821.1c0,12.6,9.3,23.2,21.8,24.9l23.9,4.2c4.4,0.8,8.9,1.2,13.3,1.2c1.9,0,3.7-0.1,5.5-0.2l51.4-2.7h0.2c0.8,0,1.6,0,2.5-0.1
		l506.8-65.4c10.3-1.3,18-10.3,17.6-20.7l-23.4-694.2c-0.3-9.7-7.5-17.8-17-19.3L256,42.2l-2.7-0.3l-3.7-0.5l-15.7-1.6
		C232.3,39.7,230.9,39.6,229.6,39.6L229.6,39.6z"/>
</g>
<circle class="st0" cx="583" cy="828" r="7"/>
<circle class="st0" cx="514.6" cy="836" r="7"/>
</svg>
