<?xml version="1.0" encoding="UTF-8"?>
<!DOCTYPE svg PUBLIC "-//W3C//DTD SVG 1.1//EN" "http://www.w3.org/Graphics/SVG/1.1/DTD/svg11.dtd">
<!-- Creator: CorelDRAW X8 -->
<svg xmlns="http://www.w3.org/2000/svg" xml:space="preserve" width="155mm" height="195mm" version="1.1" style="shape-rendering:geometricPrecision; text-rendering:geometricPrecision; image-rendering:optimizeQuality; fill-rule:evenodd; clip-rule:evenodd"
viewBox="0 0 15500 19500"
 xmlns:xlink="http://www.w3.org/1999/xlink"
 inkscape:version="0.91 r13725"
 sodipodi:docname="xiaomi_button_icon.svg"
 xmlns:cc="http://creativecommons.org/ns#"
 xmlns:dc="http://purl.org/dc/elements/1.1/"
 xmlns:inkscape="http://www.inkscape.org/namespaces/inkscape"
 xmlns:rdf="http://www.w3.org/1999/02/22-rdf-syntax-ns#"
 xmlns:sodipodi="http://sodipodi.sourceforge.net/DTD/sodipodi-0.dtd"
 xmlns:svg="http://www.w3.org/2000/svg">
 <defs>
  <style type="text/css">
   <![CDATA[
    .fil1 {fill:#2B2A29}
    .fil0 {fill:#2B2A29;fill-rule:nonzero}
   ]]>
  </style>
 </defs>
 <g id="Слой_x0020_1">
  <metadata id="CorelCorpID_0Corel-Layer"/>
  <sodipodi:namedview bordercolor="#666666" borderopacity="1" gridtolerance="10" guidetolerance="10" id="namedview12" inkscape:current-layer="svg2" inkscape:cx="423.125" inkscape:cy="423.125" inkscape:pageopacity="0" inkscape:pageshadow="2" inkscape:window-height="728" inkscape:window-maximized="0" inkscape:window-width="1408" inkscape:window-x="0" inkscape:window-y="0" inkscape:zoom="0.2788774" objecttolerance="10" pagecolor="#ffffff" showgrid="false"/>
  <path class="fil0" d="M1120 5411l30 -13c50,-23 109,0 132,50l2 6 3773 10209c19,51 -7,109 -59,128 -8,3 -16,4 -24,5l-1684 304c-118,21 -240,-21 -344,-97 -108,-79 -200,-197 -246,-315l-1099 -2830c-2,-4 -3,-8 -4,-12 -46,-166 58,-308 169,-460 100,-139 209,-287 154,-427l-632 -1606c-43,-109 -129,-170 -235,-198 -121,-33 -270,-28 -420,-4 -48,8 -93,-20 -109,-64l-196 -504c-87,-223 -63,-397 38,-535 95,-129 257,-218 455,-280l836 -262 -909 -2461c-66,-178 -42,-307 41,-412 73,-94 191,-158 331,-222zm3708 10209l-3693 -9995c-84,41 -151,83 -189,131 -40,50 -48,118 -11,220l946 2560 2 4c16,53 -13,109 -66,125l-936 294c-160,50 -287,116 -354,207 -60,83 -72,194 -13,345l168 432c148,-17 295,-16 423,19 165,44 299,142 369,318l632 1606c94,241 -47,436 -179,617 -81,110 -157,214 -139,288l1098 2825c33,84 99,169 177,226 63,46 132,72 192,61l1573 -283z"/>
  <path class="fil0" d="M548 1920l906 -411c50,-23 110,0 132,50 18,40 8,85 -22,114 -52,59 -71,132 -72,207 0,87 24,178 54,259l6098 16685c19,50 64,100 118,136 50,32 104,51 146,45l31 197 -1277 201c-119,19 -242,-24 -346,-100 -108,-79 -199,-196 -242,-314l-6009 -16259c-84,-226 -55,-389 49,-521 95,-121 249,-205 434,-289zm751 -121l-669 303c-159,72 -289,142 -359,230 -60,77 -74,179 -19,329l6009 16259c31,83 95,165 172,222 65,47 136,74 199,64l937 -148c-50,-48 -90,-106 -112,-166l-6099 -16685c-36,-99 -65,-213 -65,-327 0,-27 2,-54 6,-81z"/>
  <path class="fil0" d="M2027 1324l4841 -737 33 65c1233,2496 2318,4962 3289,7407 970,2444 1824,4864 2595,7267l19 60 -3764 3460c-36,34 -76,59 -117,77 -116,52 -240,42 -355,-2 -107,-41 -206,-113 -279,-193 -47,-51 -85,-107 -108,-160 -1149,-2606 -2260,-5318 -3349,-8094 -1089,-2777 -2154,-5615 -3212,-8474 -72,-195 -74,-345 -3,-461 71,-115 207,-184 410,-215zm4727 -518l-4697 716c-143,22 -232,60 -269,121 -37,60 -30,154 20,288 1057,2860 2123,5698 3210,8470 1087,2772 2197,5481 3345,8086 15,34 41,70 73,106 55,59 127,112 204,142 68,26 140,33 203,6 21,-10 42,-24 62,-42l3670 -3373c-765,-2380 -1611,-4776 -2571,-7194 -959,-2416 -2031,-4856 -3250,-7326z"/>
  <path class="fil0" d="M10014 307l-3053 468c1208,2453 2274,4879 3229,7284 950,2395 1790,4767 2548,7122l2448 -2151c167,-147 78,-381 9,-560l-1 0c-11,-29 -21,-56 -29,-80 -944,-2636 -1502,-4169 -2131,-5744 -630,-1579 -1337,-3216 -2579,-6057 -63,-143 -106,-231 -161,-268 -52,-35 -133,-37 -280,-14zm-3218 291l3188 -489c200,-31 322,-22 422,47 97,66 154,176 232,353 1240,2839 1947,4475 2582,6064 636,1593 1193,3124 2133,5750 9,26 18,50 28,76l0 0c90,235 208,542 -64,781l-2676 2351 -46 -144c-770,-2401 -1623,-4817 -2591,-7255 -967,-2437 -2050,-4899 -3282,-7391l-61 -123 135 -20z"/>
  <polygon class="fil0" points="7854,19031 8304,18599 8442,18743 7992,19175 "/>
  <polygon class="fil0" points="1463,1506 1789,1393 1854,1581 1528,1694 "/>
  <path class="fil1" d="M1813 12987l255 -50 1175 -272c70,-16 169,20 169,93 0,72 -56,146 -126,162l-1491 346 -2 -6 212 -49c70,-16 113,-72 121,-159 5,-60 -58,-115 -313,-65z"/>
  <path class="fil1" d="M2126 13778l255 -50 1175 -272c70,-16 169,19 169,92 0,72 -55,146 -126,163l-1490 346 -3 -7 212 -49c71,-16 114,-72 121,-159 5,-59 -58,-114 -313,-64z"/>
  <path class="fil1" d="M2419 14558l255 -50 1175 -272c70,-16 169,20 169,93 0,72 -56,146 -126,162l-1491 346 -2 -6 212 -49c70,-17 113,-72 121,-159 5,-60 -58,-115 -313,-65z"/>
  <path class="fil1" d="M2700 15356l255 -50 1175 -272c70,-16 169,19 169,93 0,72 -55,146 -126,162l-1490 346 -3 -6 212 -49c71,-17 114,-72 121,-160 5,-59 -58,-114 -313,-64z"/>
  <polygon class="fil0" points="592,9956 2653,9416 2703,9609 642,10149 "/>
  <polygon class="fil0" points="1709,12578 3624,12076 3674,12269 1759,12771 "/>
 </g>
</svg>
