<?xml version="1.0" encoding="utf-8"?>
<!-- Generator: Adobe Illustrator 24.2.1, SVG Export Plug-In . SVG Version: 6.00 Build 0)  -->
<svg version="1.1" id="Layer_1" xmlns="http://www.w3.org/2000/svg" xmlns:xlink="http://www.w3.org/1999/xlink" x="0px" y="0px"
	 viewBox="0 0 1417.3 1417.3" style="enable-background:new 0 0 1417.3 1417.3;" xml:space="preserve">
<style type="text/css">
	.st0{fill:#0066FF;}
</style>
<path class="st0" d="M771.3,1306.5H650.9c-21.2,0-38.5-17.3-38.5-38.5s17.3-38.5,38.5-38.5h120.4c21.2,0,38.5,17.3,38.5,38.5
	S792.5,1306.5,771.3,1306.5z"/>
<g>
	<path d="M1209.4,207.3C1075.6,73.5,897.6-0.2,708.3-0.2S341.1,73.5,207.2,207.3S-0.3,519.2-0.3,708.4s73.7,367.3,207.6,501.1
		s311.8,207.6,501.1,207.6s367.3-73.7,501.1-207.6c133.8-133.8,207.6-311.8,207.6-501.1C1417,519.2,1343.3,341.2,1209.4,207.3z
		 M708.3,1391.4c-376.6,0-683-306.4-683-683s306.4-683,683-683s683,306.4,683,683S1084.9,1391.4,708.3,1391.4z"/>
	<path d="M771.5,1223.5H651.1c-24.8,0-44.9,20.2-44.9,44.9c0,24.8,20.2,44.9,44.9,44.9h120.4c24.8,0,44.9-20.2,44.9-44.9
		C816.4,1243.6,796.2,1223.5,771.5,1223.5z M771.5,1306.9H651.1c-21.2,0-38.5-17.3-38.5-38.5s17.3-38.5,38.5-38.5h120.4
		c21.2,0,38.5,17.3,38.5,38.5S792.7,1306.9,771.5,1306.9z"/>
	<circle cx="651.1" cy="1268.4" r="12.4"/>
	<path d="M865.2,708.4c0-0.9-0.7-1.6-1.6-1.6H552.5c-0.9,0-1.6,0.7-1.6,1.6s0.7,1.6,1.6,1.6h311.1
		C864.5,710,865.2,709.3,865.2,708.4z"/>
	<path d="M708.3,162.2c27.3,0,49.6-17.7,49.6-39.4s-22.2-39.4-49.6-39.4c-27.3,0-49.6,17.7-49.6,39.4
		C658.8,144.5,681,162.2,708.3,162.2z M708.3,86.6c25.6,0,46.4,16.2,46.4,36.2S733.9,159,708.3,159c-25.6,0-46.4-16.2-46.4-36.2
		S682.8,86.6,708.3,86.6z"/>
	<circle cx="686.9" cy="257.5" r="8.1"/>
	<ellipse transform="matrix(0.9945 -0.1045 0.1045 0.9945 -23.8963 68.305)" cx="639.9" cy="262.2" rx="8.1" ry="8.1"/>
	<ellipse transform="matrix(0.9781 -0.2079 0.2079 0.9781 -43.5368 129.3477)" cx="593.6" cy="271.8" rx="8.1" ry="8.1"/>
	<ellipse transform="matrix(0.9511 -0.309 0.309 0.9511 -61.5915 183.5215)" cx="548.6" cy="286.2" rx="8.1" ry="8.1"/>
	<ellipse cx="505.4" cy="305.2" rx="8.1" ry="8.1"/>
	<ellipse cx="464.3" cy="328.6" rx="8.1" ry="8.1"/>
	<ellipse cx="426" cy="356.2" rx="8.1" ry="8.1"/>
	<ellipse cx="390.7" cy="387.6" rx="8.1" ry="8.1"/>
	<ellipse cx="358.9" cy="422.6" rx="8.1" ry="8.1"/>
	<ellipse cx="330.9" cy="460.7" rx="8.1" ry="8.1"/>
	<ellipse cx="307.1" cy="501.5" rx="8.1" ry="8.1"/>
	<ellipse transform="matrix(0.4067 -0.9136 0.9136 0.4067 -326.8873 585.8936)" cx="287.6" cy="544.6" rx="8.1" ry="8.1"/>
	<ellipse transform="matrix(0.309 -0.9511 0.9511 0.309 -372.0612 666.7587)" cx="272.8" cy="589.4" rx="8.1" ry="8.1"/>
	<ellipse transform="matrix(0.2079 -0.9781 0.9781 0.2079 -413.6321 760.452)" cx="262.7" cy="635.6" rx="8.1" ry="8.1"/>
	<ellipse transform="matrix(0.1045 -0.9945 0.9945 0.1045 -448.131 867.445)" cx="257.6" cy="682.6" rx="8.1" ry="8.1"/>
	<circle cx="257.4" cy="729.8" r="8.1"/>
	<ellipse transform="matrix(0.9945 -0.1045 0.1045 0.9945 -79.7508 31.6431)" cx="262.1" cy="776.9" rx="8.1" ry="8.1"/>
	<ellipse transform="matrix(0.9781 -0.2079 0.2079 0.9781 -165.185 74.4721)" cx="271.7" cy="823.1" rx="8.1" ry="8.1"/>
	<ellipse transform="matrix(0.9511 -0.309 0.309 0.9511 -254.2735 130.8663)" cx="286" cy="868.2" rx="8.1" ry="8.1"/>
	<ellipse transform="matrix(0.9136 -0.4067 0.4067 0.9136 -344.283 202.8018)" cx="305" cy="911.4" rx="8.1" ry="8.1"/>
	<ellipse transform="matrix(0.866 -0.5 0.5 0.866 -432.2394 291.8698)" cx="328.5" cy="952.5" rx="8.1" ry="8.1"/>
	<ellipse transform="matrix(0.809 -0.5878 0.5878 0.809 -514.3681 398.5631)" cx="356.1" cy="990.8" rx="8.1" ry="8.1"/>
	<ellipse transform="matrix(0.7431 -0.6691 0.6691 0.7431 -587.0357 522.8071)" cx="387.5" cy="1026" rx="8.1" ry="8.1"/>
	<ellipse transform="matrix(0.6691 -0.7431 0.7431 0.6691 -646.412 663.9064)" cx="422.4" cy="1057.9" rx="8.1" ry="8.1"/>
	<ellipse transform="matrix(0.5878 -0.809 0.809 0.5878 -688.6331 820.2375)" cx="460.6" cy="1085.9" rx="8.1" ry="8.1"/>
	<ellipse transform="matrix(0.5 -0.866 0.866 0.5 -710.3091 989.012)" cx="501.4" cy="1109.7" rx="8.1" ry="8.1"/>
	<ellipse cx="544.4" cy="1129" rx="8.1" ry="8.1"/>
	<ellipse cx="589.4" cy="1143.9" rx="8.1" ry="8.1"/>
	<ellipse cx="635.3" cy="1154.1" rx="8.1" ry="8.1"/>
	<ellipse cx="682.4" cy="1159.2" rx="8.1" ry="8.1"/>
	<circle cx="729.7" cy="1159.4" r="8.1"/>
	<ellipse cx="776.6" cy="1154.7" rx="8.1" ry="8.1"/>
	<ellipse cx="822.9" cy="1145.1" rx="8.1" ry="8.1"/>
	<ellipse cx="868" cy="1130.8" rx="8.1" ry="8.1"/>
	<ellipse cx="911.2" cy="1111.8" rx="8.1" ry="8.1"/>
	<ellipse cx="952.3" cy="1088.3" rx="8.1" ry="8.1"/>
	<ellipse cx="990.7" cy="1060.7" rx="8.1" ry="8.1"/>
	<ellipse cx="1025.9" cy="1029.3" rx="8.1" ry="8.1"/>
	<ellipse cx="1057.6" cy="994.3" rx="8.1" ry="8.1"/>
	<ellipse cx="1085.8" cy="956.2" rx="8.1" ry="8.1"/>
	<ellipse cx="1109.5" cy="915.4" rx="8.1" ry="8.1"/>
	<ellipse cx="1129" cy="872.3" rx="8.1" ry="8.1"/>
	<ellipse cx="1144" cy="827.4" rx="8.1" ry="8.1"/>
	<ellipse cx="1153.8" cy="781.4" rx="8.1" ry="8.1"/>
	<ellipse cx="1159" cy="734.3" rx="8.1" ry="8.1"/>
	<circle cx="1159.3" cy="687.1" r="8.1"/>
	<ellipse cx="1154.6" cy="640" rx="8.1" ry="8.1"/>
	<ellipse cx="1144.9" cy="593.8" rx="8.1" ry="8.1"/>
	<ellipse cx="1130.7" cy="548.8" rx="8.1" ry="8.1"/>
	<ellipse transform="matrix(0.9136 -0.4067 0.4067 0.9136 -109.5353 495.7448)" cx="1111.5" cy="505.6" rx="8.1" ry="8.1"/>
	<ellipse transform="matrix(0.866 -0.5 0.5 0.866 -86.3987 606.3195)" cx="1088.2" cy="464.4" rx="8.1" ry="8.1"/>
	<ellipse transform="matrix(0.809 -0.5878 0.5878 0.809 -47.8971 704.8116)" cx="1060.6" cy="426.1" rx="8.1" ry="8.1"/>
	<ellipse transform="matrix(0.7431 -0.6691 0.6691 0.7431 2.7974 788.9781)" cx="1029.1" cy="390.8" rx="8.1" ry="8.1"/>
	<ellipse transform="matrix(0.6691 -0.7431 0.7431 0.6691 62.1239 857.5496)" cx="994.1" cy="359" rx="8.1" ry="8.1"/>
	<ellipse transform="matrix(0.5878 -0.809 0.809 0.5878 126.3005 909.902)" cx="956.1" cy="331" rx="8.1" ry="8.1"/>
	<ellipse transform="matrix(0.5 -0.866 0.866 0.5 191.5715 946.2464)" cx="915.3" cy="307.2" rx="8.1" ry="8.1"/>
	<ellipse transform="matrix(0.4067 -0.9136 0.9136 0.4067 254.5708 967.5358)" cx="872.2" cy="287.8" rx="8.1" ry="8.1"/>
	<ellipse transform="matrix(0.309 -0.9511 0.9511 0.309 312.1255 975.3885)" cx="827.3" cy="272.9" rx="8.1" ry="8.1"/>
	<ellipse transform="matrix(0.2079 -0.9781 0.9781 0.2079 361.5932 972.3581)" cx="781.2" cy="262.9" rx="8.1" ry="8.1"/>
	<ellipse transform="matrix(0.1045 -0.9945 0.9945 0.1045 401.1393 960.9146)" cx="734.2" cy="257.7" rx="8.1" ry="8.1"/>
	<circle cx="708.3" cy="289" r="8.1"/>
	<ellipse transform="matrix(0.9945 -0.1045 0.1045 0.9945 -26.8025 71.035)" cx="664.5" cy="291.3" rx="8.1" ry="8.1"/>
	<ellipse transform="matrix(0.9781 -0.2079 0.2079 0.9781 -48.4242 135.6418)" cx="621.1" cy="298.2" rx="8.1" ry="8.1"/>
	<ellipse transform="matrix(0.9511 -0.309 0.309 0.9511 -67.349 193.9677)" cx="578.7" cy="309.6" rx="8.1" ry="8.1"/>
	<ellipse transform="matrix(0.9136 -0.4067 0.4067 0.9136 -85.8273 246.7966)" cx="537.7" cy="325.3" rx="8.1" ry="8.1"/>
	<ellipse cx="498.6" cy="345.2" rx="8.1" ry="8.1"/>
	<ellipse cx="461.8" cy="369.1" rx="8.1" ry="8.1"/>
	<ellipse cx="427.7" cy="396.8" rx="8.1" ry="8.1"/>
	<ellipse cx="396.5" cy="427.8" rx="8.1" ry="8.1"/>
	<ellipse cx="369" cy="461.9" rx="8.1" ry="8.1"/>
	<ellipse cx="345" cy="498.7" rx="8.1" ry="8.1"/>
	<ellipse transform="matrix(0.4067 -0.9136 0.9136 0.4067 -298.3732 616.2574)" cx="325.3" cy="537.8" rx="8.1" ry="8.1"/>
	<ellipse transform="matrix(0.309 -0.9511 0.9511 0.309 -336.7268 694.2419)" cx="309.4" cy="578.8" rx="8.1" ry="8.1"/>
	<ellipse transform="matrix(0.2079 -0.9781 0.9781 0.2079 -371.667 783.5253)" cx="298" cy="621.2" rx="8.1" ry="8.1"/>
	<ellipse transform="matrix(0.1045 -0.9945 0.9945 0.1045 -400.2187 884.7252)" cx="291.2" cy="664.6" rx="8.1" ry="8.1"/>
	<circle cx="288.9" cy="708.4" r="8.1"/>
	<ellipse transform="matrix(0.9945 -0.1045 0.1045 0.9945 -77.0207 34.5493)" cx="291.2" cy="752.3" rx="8.1" ry="8.1"/>
	<ellipse transform="matrix(0.9781 -0.2079 0.2079 0.9781 -158.8908 79.3595)" cx="298.1" cy="795.6" rx="8.1" ry="8.1"/>
	<ellipse transform="matrix(0.9511 -0.309 0.309 0.9511 -243.8275 136.6237)" cx="309.4" cy="838.1" rx="8.1" ry="8.1"/>
	<ellipse transform="matrix(0.9136 -0.4067 0.4067 0.9136 -329.4023 208.1979)" cx="325.1" cy="879.1" rx="8.1" ry="8.1"/>
	<ellipse transform="matrix(0.866 -0.5 0.5 0.866 -412.8102 295.5525)" cx="345.1" cy="918.1" rx="8.1" ry="8.1"/>
	<ellipse transform="matrix(0.809 -0.5878 0.5878 0.809 -490.8799 399.3066)" cx="369" cy="955" rx="8.1" ry="8.1"/>
	<ellipse transform="matrix(0.7431 -0.6691 0.6691 0.7431 -559.9573 519.3912)" cx="396.5" cy="989.1" rx="8.1" ry="8.1"/>
	<ellipse transform="matrix(0.6691 -0.7431 0.7431 0.6691 -616.6045 655.2503)" cx="427.6" cy="1020.1" rx="8.1" ry="8.1"/>
	<ellipse transform="matrix(0.5878 -0.809 0.809 0.5878 -657.3422 805.5103)" cx="461.8" cy="1047.8" rx="8.1" ry="8.1"/>
	<ellipse transform="matrix(0.5 -0.866 0.866 0.5 -678.8542 967.6159)" cx="498.6" cy="1071.7" rx="8.1" ry="8.1"/>
	<ellipse cx="537.7" cy="1091.5" rx="8.1" ry="8.1"/>
	<ellipse cx="578.8" cy="1107.3" rx="8.1" ry="8.1"/>
	<ellipse cx="621" cy="1118.7" rx="8.1" ry="8.1"/>
	<ellipse cx="664.4" cy="1125.5" rx="8.1" ry="8.1"/>
	<circle cx="708.3" cy="1127.9" r="8.1"/>
	<ellipse cx="752.2" cy="1125.6" rx="8.1" ry="8.1"/>
	<ellipse cx="795.5" cy="1118.6" rx="8.1" ry="8.1"/>
	<ellipse cx="837.9" cy="1107.4" rx="8.1" ry="8.1"/>
	<ellipse cx="878.8" cy="1091.7" rx="8.1" ry="8.1"/>
	<ellipse cx="918" cy="1071.7" rx="8.1" ry="8.1"/>
	<ellipse cx="954.9" cy="1047.7" rx="8.1" ry="8.1"/>
	<ellipse cx="988.8" cy="1020.1" rx="8.1" ry="8.1"/>
	<ellipse cx="1019.8" cy="989.1" rx="8.1" ry="8.1"/>
	<ellipse cx="1047.6" cy="955.1" rx="8.1" ry="8.1"/>
	<ellipse cx="1071.5" cy="918.1" rx="8.1" ry="8.1"/>
	<ellipse cx="1091.4" cy="878.9" rx="8.1" ry="8.1"/>
	<ellipse cx="1107.2" cy="838" rx="8.1" ry="8.1"/>
	<ellipse cx="1118.5" cy="795.7" rx="8.1" ry="8.1"/>
	<ellipse cx="1125.4" cy="752.3" rx="8.1" ry="8.1"/>
	<circle cx="1127.8" cy="708.4" r="8.1"/>
	<ellipse cx="1125.5" cy="664.6" rx="8.1" ry="8.1"/>
	<ellipse cx="1118.4" cy="621.2" rx="8.1" ry="8.1"/>
	<ellipse cx="1107.3" cy="578.9" rx="8.1" ry="8.1"/>
	<ellipse cx="1091.4" cy="538" rx="8.1" ry="8.1"/>
	<ellipse transform="matrix(0.866 -0.5 0.5 0.866 -105.7708 602.6153)" cx="1071.6" cy="498.7" rx="8.1" ry="8.1"/>
	<ellipse transform="matrix(0.809 -0.5878 0.5878 0.809 -71.4204 703.9943)" cx="1047.6" cy="461.9" rx="8.1" ry="8.1"/>
	<ellipse transform="matrix(0.7431 -0.6691 0.6691 0.7431 -24.3394 792.3105)" cx="1019.8" cy="427.9" rx="8.1" ry="8.1"/>
	<ellipse transform="matrix(0.6691 -0.7431 0.7431 0.6691 32.3194 866.2106)" cx="988.9" cy="396.8" rx="8.1" ry="8.1"/>
	<ellipse transform="matrix(0.5878 -0.809 0.809 0.5878 95.0156 924.6363)" cx="954.9" cy="369.1" rx="8.1" ry="8.1"/>
	<ellipse transform="matrix(0.5 -0.866 0.866 0.5 159.9613 967.657)" cx="918" cy="345.3" rx="8.1" ry="8.1"/>
	<ellipse transform="matrix(0.4067 -0.9136 0.9136 0.4067 224.277 995.8665)" cx="878.8" cy="325.3" rx="8.1" ry="8.1"/>
	<ellipse transform="matrix(0.309 -0.9511 0.9511 0.309 284.7128 1010.9073)" cx="838" cy="309.5" rx="8.1" ry="8.1"/>
	<ellipse transform="matrix(0.2079 -0.9781 0.9781 0.2079 338.3196 1014.441)" cx="795.5" cy="298.3" rx="8.1" ry="8.1"/>
	<ellipse transform="matrix(0.1045 -0.9945 0.9945 0.1045 383.7578 1008.8909)" cx="752.1" cy="291.3" rx="8.1" ry="8.1"/>
	<circle cx="708.3" cy="353.2" r="8.1"/>
	<ellipse transform="matrix(0.9945 -0.1045 0.1045 0.9945 -33.4434 72.085)" cx="671.2" cy="355.2" rx="8.1" ry="8.1"/>
	<ellipse transform="matrix(0.9781 -0.2079 0.2079 0.9781 -61.1875 139.8008)" cx="634.5" cy="361" rx="8.1" ry="8.1"/>
	<ellipse transform="matrix(0.9511 -0.309 0.309 0.9511 -85.2218 203.1025)" cx="598.6" cy="370.6" rx="8.1" ry="8.1"/>
	<ellipse transform="matrix(0.9136 -0.4067 0.4067 0.9136 -107.4135 262.486)" cx="563.8" cy="383.9" rx="8.1" ry="8.1"/>
	<ellipse transform="matrix(0.866 -0.5 0.5 0.866 -129.2985 319.0446)" cx="530.7" cy="400.8" rx="8.1" ry="8.1"/>
	<ellipse cx="499.5" cy="421.1" rx="8.1" ry="8.1"/>
	<ellipse cx="470.6" cy="444.5" rx="8.1" ry="8.1"/>
	<ellipse cx="444.4" cy="470.8" rx="8.1" ry="8.1"/>
	<ellipse cx="420.9" cy="499.6" rx="8.1" ry="8.1"/>
	<ellipse transform="matrix(0.5 -0.866 0.866 0.5 -259.3551 612.347)" cx="400.6" cy="530.8" rx="8.1" ry="8.1"/>
	<ellipse transform="matrix(0.4067 -0.9136 0.9136 0.4067 -287.4992 685.269)" cx="383.8" cy="564" rx="8.1" ry="8.1"/>
	<ellipse transform="matrix(0.309 -0.9511 0.9511 0.309 -313.3235 766.1775)" cx="370.6" cy="598.7" rx="8.1" ry="8.1"/>
	<ellipse transform="matrix(0.2079 -0.9781 0.9781 0.2079 -334.8537 855.5947)" cx="360.9" cy="634.6" rx="8.1" ry="8.1"/>
	<ellipse transform="matrix(0.1045 -0.9945 0.9945 0.1045 -349.6802 954.2533)" cx="355" cy="671.3" rx="8.1" ry="8.1"/>
	<circle cx="353.1" cy="708.4" r="8.1"/>
	<ellipse transform="matrix(0.9945 -0.1045 0.1045 0.9945 -75.9707 41.1902)" cx="355.1" cy="745.6" rx="8.1" ry="8.1"/>
	<ellipse transform="matrix(0.9781 -0.2079 0.2079 0.9781 -154.7539 92.1251)" cx="360.9" cy="782.3" rx="8.1" ry="8.1"/>
	<ellipse transform="matrix(0.9511 -0.309 0.309 0.9511 -234.692 154.5222)" cx="370.5" cy="818.2" rx="8.1" ry="8.1"/>
	<ellipse transform="matrix(0.9136 -0.4067 0.4067 0.9136 -313.7249 229.7713)" cx="383.7" cy="853" rx="8.1" ry="8.1"/>
	<ellipse transform="matrix(0.866 -0.5 0.5 0.866 -389.3696 319.0709)" cx="400.7" cy="886.1" rx="8.1" ry="8.1"/>
	<ellipse transform="matrix(0.809 -0.5878 0.5878 0.809 -458.7071 422.6524)" cx="421" cy="917.2" rx="8.1" ry="8.1"/>
	<ellipse transform="matrix(0.7431 -0.6691 0.6691 0.7431 -518.9032 540.2344)" cx="444.2" cy="946" rx="8.1" ry="8.1"/>
	<ellipse transform="matrix(0.6691 -0.7431 0.7431 0.6691 -566.9997 671.3384)" cx="470.4" cy="972.4" rx="8.1" ry="8.1"/>
	<ellipse transform="matrix(0.5878 -0.809 0.809 0.5878 -599.7727 814.6083)" cx="499.5" cy="995.9" rx="8.1" ry="8.1"/>
	<ellipse cx="530.7" cy="1016.1" rx="8.1" ry="8.1"/>
	<ellipse cx="563.9" cy="1032.8" rx="8.1" ry="8.1"/>
	<ellipse cx="598.7" cy="1046.2" rx="8.1" ry="8.1"/>
	<ellipse cx="634.4" cy="1056" rx="8.1" ry="8.1"/>
	<ellipse cx="671.1" cy="1061.8" rx="8.1" ry="8.1"/>
	<circle cx="708.3" cy="1063.7" r="8.1"/>
	<ellipse cx="745.4" cy="1061.7" rx="8.1" ry="8.1"/>
	<ellipse cx="782.1" cy="1055.9" rx="8.1" ry="8.1"/>
	<ellipse cx="818.2" cy="1046.4" rx="8.1" ry="8.1"/>
	<ellipse cx="852.7" cy="1033.1" rx="8.1" ry="8.1"/>
	<ellipse cx="885.9" cy="1016.1" rx="8.1" ry="8.1"/>
	<ellipse cx="917.1" cy="995.8" rx="8.1" ry="8.1"/>
	<ellipse cx="945.8" cy="972.4" rx="8.1" ry="8.1"/>
	<ellipse cx="972.1" cy="946.1" rx="8.1" ry="8.1"/>
	<ellipse cx="995.7" cy="917.3" rx="8.1" ry="8.1"/>
	<ellipse cx="1016" cy="886.1" rx="8.1" ry="8.1"/>
	<ellipse cx="1032.8" cy="852.9" rx="8.1" ry="8.1"/>
	<ellipse cx="1046.2" cy="818.1" rx="8.1" ry="8.1"/>
	<ellipse cx="1055.7" cy="782.3" rx="8.1" ry="8.1"/>
	<ellipse cx="1061.6" cy="745.6" rx="8.1" ry="8.1"/>
	<circle cx="1063.6" cy="708.4" r="8.1"/>
	<ellipse cx="1061.6" cy="671.3" rx="8.1" ry="8.1"/>
	<ellipse cx="1055.6" cy="634.6" rx="8.1" ry="8.1"/>
	<ellipse cx="1046.2" cy="598.7" rx="8.1" ry="8.1"/>
	<ellipse cx="1032.8" cy="564" rx="8.1" ry="8.1"/>
	<ellipse cx="1016" cy="530.8" rx="8.1" ry="8.1"/>
	<ellipse transform="matrix(0.809 -0.5878 0.5878 0.809 -103.4798 680.6888)" cx="995.7" cy="499.6" rx="8.1" ry="8.1"/>
	<ellipse transform="matrix(0.7431 -0.6691 0.6691 0.7431 -65.3025 771.4869)" cx="972.2" cy="470.8" rx="8.1" ry="8.1"/>
	<ellipse transform="matrix(0.6691 -0.7431 0.7431 0.6691 -17.3725 850.0264)" cx="945.9" cy="444.5" rx="8.1" ry="8.1"/>
	<ellipse transform="matrix(0.5878 -0.809 0.809 0.5878 37.3047 915.5281)" cx="917.1" cy="421.2" rx="8.1" ry="8.1"/>
	<ellipse transform="matrix(0.5 -0.866 0.866 0.5 95.7612 967.6597)" cx="885.9" cy="400.9" rx="8.1" ry="8.1"/>
	<ellipse transform="matrix(0.4067 -0.9136 0.9136 0.4067 155.1821 1006.8548)" cx="852.8" cy="384" rx="8.1" ry="8.1"/>
	<ellipse transform="matrix(0.309 -0.9511 0.9511 0.309 212.9338 1034.1685)" cx="818.2" cy="370.5" rx="8.1" ry="8.1"/>
	<ellipse transform="matrix(0.2079 -0.9781 0.9781 0.2079 266.4035 1051.0132)" cx="782.1" cy="361" rx="8.1" ry="8.1"/>
	<ellipse transform="matrix(0.1045 -0.9945 0.9945 0.1045 314.3289 1059.365)" cx="745.4" cy="355.1" rx="8.1" ry="8.1"/>
	<circle cx="689.8" cy="321.1" r="8.1"/>
	<ellipse transform="matrix(0.9945 -0.1045 0.1045 0.9945 -30.4277 69.6426)" cx="649.4" cy="325.2" rx="8.1" ry="8.1"/>
	<ellipse transform="matrix(0.9781 -0.2079 0.2079 0.9781 -55.9909 134.0416)" cx="609.7" cy="333.4" rx="8.1" ry="8.1"/>
	<ellipse transform="matrix(0.9511 -0.309 0.309 0.9511 -78.9102 193.3589)" cx="571" cy="345.8" rx="8.1" ry="8.1"/>
	<ellipse transform="matrix(0.9136 -0.4067 0.4067 0.9136 -101.141 248.3979)" cx="533.8" cy="362.1" rx="8.1" ry="8.1"/>
	<ellipse cx="498.6" cy="382.3" rx="8.1" ry="8.1"/>
	<ellipse cx="465.7" cy="406" rx="8.1" ry="8.1"/>
	<ellipse cx="435.4" cy="433" rx="8.1" ry="8.1"/>
	<ellipse cx="408" cy="463" rx="8.1" ry="8.1"/>
	<ellipse cx="384.1" cy="495.8" rx="8.1" ry="8.1"/>
	<ellipse transform="matrix(0.5 -0.866 0.866 0.5 -277.9437 580.3257)" cx="363.6" cy="530.9" rx="8.1" ry="8.1"/>
	<ellipse transform="matrix(0.4067 -0.9136 0.9136 0.4067 -312.8488 653.8304)" cx="347" cy="567.8" rx="8.1" ry="8.1"/>
	<ellipse transform="matrix(0.309 -0.9511 0.9511 0.309 -345.6211 736.9371)" cx="334.3" cy="606.3" rx="8.1" ry="8.1"/>
	<ellipse transform="matrix(0.2079 -0.9781 0.9781 0.2079 -374.0503 830.1752)" cx="325.6" cy="646" rx="8.1" ry="8.1"/>
	<ellipse transform="matrix(0.1045 -0.9945 0.9945 0.1045 -394.9774 934.106)" cx="321.2" cy="686.4" rx="8.1" ry="8.1"/>
	<circle cx="321" cy="727" r="8.1"/>
	<ellipse transform="matrix(0.9945 -0.1045 0.1045 0.9945 -78.4025 38.174)" cx="325.1" cy="767.3" rx="8.1" ry="8.1"/>
	<ellipse transform="matrix(0.9781 -0.2079 0.2079 0.9781 -160.5128 86.9283)" cx="333.3" cy="807.1" rx="8.1" ry="8.1"/>
	<ellipse transform="matrix(0.9511 -0.309 0.309 0.9511 -244.402 148.2044)" cx="345.7" cy="845.7" rx="8.1" ry="8.1"/>
	<ellipse transform="matrix(0.9136 -0.4067 0.4067 0.9136 -327.7874 223.5322)" cx="362" cy="882.9" rx="8.1" ry="8.1"/>
	<ellipse transform="matrix(0.866 -0.5 0.5 0.866 -407.8357 314.1029)" cx="382.2" cy="918.1" rx="8.1" ry="8.1"/>
	<ellipse transform="matrix(0.809 -0.5878 0.5878 0.809 -481.5284 420.2542)" cx="405.9" cy="951.1" rx="8.1" ry="8.1"/>
	<ellipse transform="matrix(0.7432 -0.6691 0.6691 0.7432 -545.4898 541.688)" cx="432.9" cy="981.4" rx="8.1" ry="8.1"/>
	<ellipse transform="matrix(0.6691 -0.7431 0.7431 0.6691 -596.4462 677.6789)" cx="462.8" cy="1008.7" rx="8.1" ry="8.1"/>
	<ellipse transform="matrix(0.5878 -0.809 0.809 0.5878 -631.1158 826.7025)" cx="495.7" cy="1032.7" rx="8.1" ry="8.1"/>
	<ellipse cx="530.6" cy="1053.1" rx="8.1" ry="8.1"/>
	<ellipse cx="567.7" cy="1069.8" rx="8.1" ry="8.1"/>
	<ellipse cx="606.3" cy="1082.4" rx="8.1" ry="8.1"/>
	<ellipse cx="645.8" cy="1091.2" rx="8.1" ry="8.1"/>
	<ellipse cx="686.2" cy="1095.5" rx="8.1" ry="8.1"/>
	<circle cx="726.9" cy="1095.8" r="8.1"/>
	<ellipse cx="767.2" cy="1091.7" rx="8.1" ry="8.1"/>
	<ellipse cx="806.8" cy="1083.3" rx="8.1" ry="8.1"/>
	<ellipse cx="845.7" cy="1071.2" rx="8.1" ry="8.1"/>
	<ellipse cx="882.7" cy="1054.8" rx="8.1" ry="8.1"/>
	<ellipse cx="918" cy="1034.6" rx="8.1" ry="8.1"/>
	<ellipse cx="951" cy="1010.9" rx="8.1" ry="8.1"/>
	<ellipse cx="981.2" cy="983.9" rx="8.1" ry="8.1"/>
	<ellipse cx="1008.4" cy="953.8" rx="8.1" ry="8.1"/>
	<ellipse cx="1032.6" cy="921.1" rx="8.1" ry="8.1"/>
	<ellipse cx="1053" cy="886.1" rx="8.1" ry="8.1"/>
	<ellipse cx="1069.7" cy="849" rx="8.1" ry="8.1"/>
	<ellipse cx="1082.5" cy="810.5" rx="8.1" ry="8.1"/>
	<ellipse cx="1090.9" cy="771" rx="8.1" ry="8.1"/>
	<ellipse cx="1095.4" cy="730.5" rx="8.1" ry="8.1"/>
	<circle cx="1095.7" cy="689.9" r="8.1"/>
	<ellipse cx="1091.6" cy="649.5" rx="8.1" ry="8.1"/>
	<ellipse cx="1083.1" cy="609.8" rx="8.1" ry="8.1"/>
	<ellipse cx="1071" cy="571.1" rx="8.1" ry="8.1"/>
	<ellipse cx="1054.5" cy="534.1" rx="8.1" ry="8.1"/>
	<ellipse transform="matrix(0.866 -0.5 0.5 0.866 -110.7447 584.0606)" cx="1034.5" cy="498.7" rx="8.1" ry="8.1"/>
	<ellipse transform="matrix(0.809 -0.5878 0.5878 0.809 -80.7314 683.1214)" cx="1010.8" cy="465.8" rx="8.1" ry="8.1"/>
	<ellipse transform="matrix(0.7431 -0.6691 0.6691 0.7431 -38.7709 770.0709)" cx="983.7" cy="435.5" rx="8.1" ry="8.1"/>
	<ellipse transform="matrix(0.6691 -0.7431 0.7431 0.6691 12.1261 843.7884)" cx="953.7" cy="408.3" rx="8.1" ry="8.1"/>
	<ellipse transform="matrix(0.5878 -0.809 0.809 0.5878 68.7836 903.4435)" cx="921" cy="384.2" rx="8.1" ry="8.1"/>
	<ellipse transform="matrix(0.5 -0.866 0.866 0.5 127.9359 949.209)" cx="886" cy="363.8" rx="8.1" ry="8.1"/>
	<ellipse transform="matrix(0.4067 -0.9136 0.9136 0.4067 186.5595 981.5212)" cx="848.9" cy="347.1" rx="8.1" ry="8.1"/>
	<ellipse transform="matrix(0.309 -0.9511 0.9511 0.309 242.0225 1001.7974)" cx="810.4" cy="334.3" rx="8.1" ry="8.1"/>
	<ellipse transform="matrix(0.2079 -0.9781 0.9781 0.2079 291.7363 1011.8776)" cx="770.6" cy="325.8" rx="8.1" ry="8.1"/>
	<ellipse transform="matrix(0.1045 -0.9945 0.9945 0.1045 334.4859 1014.0551)" cx="730.3" cy="321.3" rx="8.1" ry="8.1"/>
	<circle cx="692.6" cy="383.5" r="8.1"/>
	<ellipse transform="matrix(0.9945 -0.1045 0.1045 0.9945 -36.8244 70.9522)" cx="658.7" cy="386.9" rx="8.1" ry="8.1"/>
	<ellipse transform="matrix(0.9781 -0.2079 0.2079 0.9781 -68.2264 138.6272)" cx="625.4" cy="393.9" rx="8.1" ry="8.1"/>
	<ellipse transform="matrix(0.9511 -0.309 0.309 0.9511 -95.9108 203.0218)" cx="593" cy="404.3" rx="8.1" ry="8.1"/>
	<ellipse transform="matrix(0.9136 -0.4067 0.4067 0.9136 -121.4446 264.6126)" cx="561.8" cy="418" rx="8.1" ry="8.1"/>
	<ellipse transform="matrix(0.866 -0.5 0.5 0.866 -146.1299 324.4234)" cx="532.3" cy="434.9" rx="8.1" ry="8.1"/>
	<ellipse cx="504.6" cy="454.8" rx="8.1" ry="8.1"/>
	<ellipse cx="479.2" cy="477.5" rx="8.1" ry="8.1"/>
	<ellipse cx="456.2" cy="502.7" rx="8.1" ry="8.1"/>
	<ellipse transform="matrix(0.5878 -0.809 0.809 0.5878 -249.1585 571.4551)" cx="436.2" cy="530.2" rx="8.1" ry="8.1"/>
	<ellipse transform="matrix(0.5 -0.866 0.866 0.5 -275.0501 642.7396)" cx="419.1" cy="559.6" rx="8.1" ry="8.1"/>
	<ellipse transform="matrix(0.4067 -0.9136 0.9136 0.4067 -299.226 720.4338)" cx="405" cy="590.6" rx="8.1" ry="8.1"/>
	<ellipse transform="matrix(0.309 -0.9511 0.9511 0.309 -319.8517 805.685)" cx="394.5" cy="623" rx="8.1" ry="8.1"/>
	<ellipse transform="matrix(0.2079 -0.9781 0.9781 0.2079 -335.2879 898.6078)" cx="387.2" cy="656.3" rx="8.1" ry="8.1"/>
	<ellipse transform="matrix(0.1045 -0.9945 0.9945 0.1045 -342.9415 999.3549)" cx="383.5" cy="690.1" rx="8.1" ry="8.1"/>
	<circle cx="383.4" cy="724.2" r="8.1"/>
	<ellipse transform="matrix(0.9945 -0.1045 0.1045 0.9945 -77.0929 44.5706)" cx="386.8" cy="758" rx="8.1" ry="8.1"/>
	<ellipse transform="matrix(0.9781 -0.2079 0.2079 0.9781 -155.9268 99.1639)" cx="393.8" cy="791.4" rx="8.1" ry="8.1"/>
	<ellipse transform="matrix(0.9511 -0.309 0.309 0.9511 -234.8069 165.1918)" cx="404.1" cy="823.9" rx="8.1" ry="8.1"/>
	<ellipse transform="matrix(0.9136 -0.4067 0.4067 0.9136 -311.6086 243.8624)" cx="417.9" cy="855" rx="8.1" ry="8.1"/>
	<ellipse transform="matrix(0.866 -0.5 0.5 0.866 -383.9909 335.9038)" cx="434.8" cy="884.5" rx="8.1" ry="8.1"/>
	<ellipse transform="matrix(0.809 -0.5878 0.5878 0.809 -449.3468 441.5183)" cx="454.7" cy="912.2" rx="8.1" ry="8.1"/>
	<ellipse transform="matrix(0.7431 -0.6691 0.6691 0.7431 -504.692 560.1878)" cx="477.3" cy="937.5" rx="8.1" ry="8.1"/>
	<ellipse transform="matrix(0.6691 -0.7431 0.7431 0.6691 -547.4577 691.1487)" cx="502.5" cy="960.4" rx="8.1" ry="8.1"/>
	<ellipse cx="530" cy="980.7" rx="8.1" ry="8.1"/>
	<ellipse cx="559.4" cy="997.7" rx="8.1" ry="8.1"/>
	<ellipse cx="590.5" cy="1011.6" rx="8.1" ry="8.1"/>
	<ellipse transform="matrix(0.309 -0.9511 0.9511 0.309 -541.7617 1298.7395)" cx="622.9" cy="1022.2" rx="8.1" ry="8.1"/>
	<ellipse cx="656" cy="1029.7" rx="8.1" ry="8.1"/>
	<ellipse cx="689.9" cy="1033.2" rx="8.1" ry="8.1"/>
	<circle cx="724" cy="1033.4" r="8.1"/>
	<ellipse cx="757.9" cy="1030" rx="8.1" ry="8.1"/>
	<ellipse cx="791.2" cy="1023" rx="8.1" ry="8.1"/>
	<ellipse cx="823.8" cy="1012.7" rx="8.1" ry="8.1"/>
	<ellipse cx="854.8" cy="999" rx="8.1" ry="8.1"/>
	<ellipse cx="884.4" cy="982" rx="8.1" ry="8.1"/>
	<ellipse cx="912" cy="962.1" rx="8.1" ry="8.1"/>
	<ellipse cx="937.2" cy="939.4" rx="8.1" ry="8.1"/>
	<ellipse cx="960.1" cy="914.3" rx="8.1" ry="8.1"/>
	<ellipse cx="980.5" cy="886.7" rx="8.1" ry="8.1"/>
	<ellipse cx="997.5" cy="857.3" rx="8.1" ry="8.1"/>
	<ellipse cx="1011.6" cy="826.2" rx="8.1" ry="8.1"/>
	<ellipse transform="matrix(0.4573 -0.8893 0.8893 0.4573 -151.2616 1339.9104)" cx="1022.3" cy="793.9" rx="8.1" ry="8.1"/>
	<ellipse cx="1029.3" cy="760.6" rx="8.1" ry="8.1"/>
	<ellipse cx="1033.1" cy="726.9" rx="8.1" ry="8.1"/>
	<circle cx="1033.3" cy="692.7" r="8.1"/>
	<ellipse cx="1029.9" cy="658.8" rx="8.1" ry="8.1"/>
	
		<ellipse transform="matrix(0.9988 -4.854390e-02 4.854390e-02 0.9988 -29.1579 50.3857)" cx="1022.7" cy="625.5" rx="8.1" ry="8.1"/>
	<ellipse cx="1012.5" cy="593.1" rx="8.1" ry="8.1"/>
	<ellipse cx="998.7" cy="562" rx="8.1" ry="8.1"/>
	<ellipse cx="981.9" cy="532.4" rx="8.1" ry="8.1"/>
	<ellipse cx="962" cy="504.7" rx="8.1" ry="8.1"/>
	<ellipse transform="matrix(0.7431 -0.6691 0.6691 0.7431 -79.5137 751.5336)" cx="939.1" cy="479.3" rx="8.1" ry="8.1"/>
	<ellipse transform="matrix(0.6691 -0.7432 0.7432 0.6691 -36.6511 830.3904)" cx="914.1" cy="456.4" rx="8.1" ry="8.1"/>
	<ellipse transform="matrix(0.5878 -0.809 0.809 0.5878 12.431 897.1701)" cx="886.6" cy="436.4" rx="8.1" ry="8.1"/>
	<ellipse transform="matrix(0.5 -0.866 0.866 0.5 65.516 951.9478)" cx="857.2" cy="419.2" rx="8.1" ry="8.1"/>
	<ellipse transform="matrix(0.4067 -0.9136 0.9136 0.4067 120.0246 995.1219)" cx="826.1" cy="405.2" rx="8.1" ry="8.1"/>
	<ellipse transform="matrix(0.309 -0.9511 0.9511 0.309 173.3899 1027.5282)" cx="793.8" cy="394.4" rx="8.1" ry="8.1"/>
	<ellipse transform="matrix(0.2079 -0.9781 0.9781 0.2079 223.4351 1050.7008)" cx="760.5" cy="387.4" rx="8.1" ry="8.1"/>
	<ellipse transform="matrix(0.1045 -0.9945 0.9945 0.1045 269.1172 1066.1832)" cx="726.6" cy="383.7" rx="8.1" ry="8.1"/>
	<polygon points="689.7,108.1 687.3,108.1 687.3,118.6 676.2,118.6 676.2,121 687.3,121 687.3,128.2 676.2,128.2 676.2,130.7 
		689.7,130.7 	"/>
	<path d="M695.6,135.6c-1.3,0-2.4,1.1-2.4,2.4c0,1.3,1.1,2.4,2.4,2.4c5.7,0,10.4-2.1,13.7-6c2.9-3.4,4.5-8,4.5-12.9
		c0-9.6-6.2-19.4-18.2-19.4c-1.3,0-2.4,1.1-2.4,2.4s1.1,2.4,2.4,2.4c9.2,0,13.4,7.6,13.4,14.6c0,3.8-1.2,7.2-3.3,9.7
		C703.3,134.1,699.8,135.6,695.6,135.6z"/>
	<path d="M712.6,107c9.2,0,13.4,7.6,13.4,14.6c0,3.8-1.2,7.2-3.3,9.7c-2.4,2.8-5.8,4.3-10,4.3c-1.3,0-2.4,1.1-2.4,2.4
		c0,1.3,1.1,2.4,2.4,2.4c5.7,0,10.4-2.1,13.7-6c2.9-3.4,4.5-8,4.5-12.9c0-9.6-6.2-19.4-18.2-19.4c-1.3,0-2.4,1.1-2.4,2.4
		S711.3,107,712.6,107z"/>
	<path d="M730.3,107c9.2,0,13.4,7.6,13.4,14.6c0,3.8-1.2,7.2-3.3,9.7c-2.4,2.8-5.8,4.3-10,4.3c-1.3,0-2.4,1.1-2.4,2.4
		c0,1.3,1.1,2.4,2.4,2.4c5.7,0,10.4-2.1,13.7-6c2.9-3.4,4.5-8,4.5-12.9c0-9.6-6.2-19.4-18.2-19.4c-1.3,0-2.4,1.1-2.4,2.4
		S728.9,107,730.3,107z"/>
	<rect x="834.9" y="763" width="11.6" height="41.4"/>
	<rect x="852" y="763" width="11.6" height="41.4"/>
	<polygon points="557.7,763 557.7,804.3 573,804.3 573,783.8 582.4,783.8 582.4,804.3 597.8,804.3 597.8,763 582.4,763 582.4,779 
		573,779 573,763 	"/>
	<path d="M674.7,804.3v-18.6c0-10.4-11.7-14.5-20.1-7.4l-0.9-2.7h-12.6v28.7h12.6V787c0-3.8,2.4-5.8,4.4-5.8c1.7,0,3.9,0.3,3.9,4.1
		v19H674.7z"/>
	<path d="M784.6,792.3l-5.9-16.7H770l-5.9,17.3l-6.2-17.3h-12h-0.1H741l-6.1,14.6l-8.5-14.6H712l17,29.1l-2.2,5.5
		c-0.8,1.7-2.6,1.8-3,0.2c0-2.9-2.4-5.3-5.3-5.3c-2.9,0-5.3,2.4-5.3,5.3c0,3.1,3.1,7.1,9.2,6.8c6.1-0.3,8.6-5.3,9.5-7.4l14.1-34
		l10.1,28.6h9.2l5.6-16.5l5.8,16.5h8.7l9.8-28.7h-5L784.6,792.3z"/>
	<path d="M619.6,806.3c9.7,0,17.5-7.2,17.5-16.1c0-8.9-7.8-16.1-17.5-16.1s-17.5,7.2-17.5,16.1S609.9,806.3,619.6,806.3z
		 M615.3,782.7c0-2.4,2-4.4,4.4-4.4s4.4,1.9,4.4,4.4v15c0,2.4-2,4.4-4.4,4.4s-4.4-2-4.4-4.4V782.7z"/>
	<path d="M711.4,797.9l-3.9-1.4c-2.3,3.6-6.6,6-11.5,6c-2.4,0-4.4-2.3-4.4-4.7v-5.2h21.7c0.1-0.7,0.1-1.6,0.1-2.3
		c0-8.9-7.8-16.1-17.5-16.1s-17.5,7.2-17.5,16.1c0,8.9,7.8,16.1,17.5,16.1C702.7,806.3,708.5,802.9,711.4,797.9z M691.7,782.7
		c0-2.4,2-4.4,4.4-4.4s4.4,1.9,4.4,4.4v5.7h-8.7v-5.7H691.7z"/>
	<path d="M830.5,792.5c0.1-0.7,0.1-1.6,0.1-2.3c0-8.9-7.8-16.1-17.5-16.1s-17.5,7.2-17.5,16.1c0,8.9,7.8,16.1,17.5,16.1
		c6.7,0,12.4-3.4,15.4-8.4l-3.9-1.4c-2.3,3.6-6.6,6-11.5,6c-2.4,0-4.4-2.3-4.4-4.7v-5.2L830.5,792.5z M808.7,782.7
		c0-2.4,2-4.4,4.4-4.4s4.4,1.9,4.4,4.4v5.7h-8.7v-5.7H808.7z"/>
	<path d="M711.3,584.6c-0.7,0.3-1.1,0.4-1.2,0.4c-0.2,0-0.8-0.2-1.6-0.5c-3.1-1.2-6.3-3-9.6-4.7c-7.1-3.8-14-7.4-22.4-8.1l-7.5-0.6
		v51.1h13.9v-34.8c3.1,1.2,6.3,2.9,9.6,4.7c3.5,1.9,7,3.7,11.1,5.4l0.1,0.1c2.2,0.9,4.1,1.3,6.3,1.4c2.3,0,4.3-0.4,6.7-1.4l0,0
		c4-1.6,7.5-3.5,11-5.3c3.2-1.7,6.4-3.4,9.6-4.7V602l13.9-6.5v-24.2l-7.5,0.6c-8.4,0.7-15.4,4.4-22.4,8.1c-3.3,1.8-6.6,3.5-9.7,4.8
		L711.3,584.6z"/>
	<path d="M683.9,637.1H670c0,9,4.9,16.7,12,22.3c7.3,5.7,17.1,9.1,26.4,9.1c13.7,0,24-3.2,31.1-10s10.7-16.7,11-30.1
		c0.1-2.9,0.1-6.4,0.2-10l0.1-9.9l-13.9,7c0,0.1,0,0,0,2.7c0,3.3-0.1,6.8-0.2,9.8c-0.2,9.6-2.4,16.3-6.7,20.4
		c-4.4,4.2-11.5,6.1-21.6,6.1c-6.2,0-12.9-2.3-17.9-6.2C686.6,645.3,683.9,641.4,683.9,637.1z"/>
</g>
</svg>
