<?xml version="1.0" encoding="utf-8"?>
<!-- Generator: Adobe Illustrator 21.1.0, SVG Export Plug-In . SVG Version: 6.00 Build 0)  -->
<svg version="1.1" id="Laag_1" xmlns="http://www.w3.org/2000/svg" xmlns:xlink="http://www.w3.org/1999/xlink" x="0px" y="0px"
	 viewBox="0 0 272 272" style="enable-background:new 0 0 272 272;" xml:space="preserve">
<style type="text/css">
	.st0{stroke:#000000;stroke-miterlimit:10;}
	.st1{fill:#0066CC;}
</style>
<g id="_x23_ffffffff">
</g>
<path d="M66,17c8-2.8,16.6-3.1,25-3.8c11.8-0.9,23.9,1,34.4,6.5c13.7,7,24.5,19.1,31.1,32.9c10.1,20.9,10.9,45.9,2.8,67.6
	c-5.2,14.3-15,26.7-27.2,35.7c1.9,5.8,3.8,11.5,5.9,17.2c4.4,12.6,7,25.8,9.9,38.9c3.9-1.2,7.9-3.1,12.1-2.2
	c3.9,1.1,6.1,4.8,8.5,7.8c4-0.6,8.4-2.1,12.3-0.2c4,2.2,7,5.8,10.2,9c2.9-0.4,6-1.4,8.8,0c3.9,1.9,7.1,4.9,10.2,7.8
	c6.3,6.1,12.2,12.6,17.2,19.8c3.7,5.3,4.8,11.8,5.5,18.1h-1.8c-0.9-5.2-1.8-10.6-4.6-15.3c-3.4-5.7-8-10.6-12.4-15.6
	c-4.4-4.6-9-9.3-14.6-12.6c-2.2-1.4-4.8-0.5-7.2-0.3c2.5,3.7,5.3,7.1,8,10.5c-4.7-4.3-9.1-8.9-13.3-13.6c-2.5-2.6-5.1-5.6-8.8-6.6
	c-3-0.3-5.9,0.6-8.8,1.1c2.9,6.2,6.6,12.1,9.8,18.1c-5.6-7.2-9.6-15.5-15.2-22.7c-3.4-5.5-12.6-4.4-15.3,1
	c-0.2,4.9,1.5,9.7,2.8,14.3c1.6,5.6,5.3,10.1,8.5,14.8c-4.2-3.7-7.8-8.2-9.2-13.7c-2.4-8.7-4.3-17.5-6.5-26.2
	c-4.3,1.5-8.7,2.2-13.2,2.6c4.3-1.2,8.7-2.3,12.9-3.8c-2.7-14.8-7.3-29.2-12.5-43.3c-3.2,1.5-7.3,5.2-10.8,2.5c-2.6-3.4-3-8-4.3-12
	c-1.7,6.5-0.9,13.1,0.5,19.6c3.2,14.9,3.4,30.3,4.9,45.4c0.7,7.1,0.9,14.3,1.1,21.5c0.3,11.4,4.9,22.4,3.5,34h-1
	c1.2-6,0.2-12.3-2.1-17.9c-3.9,5.5-6,11.9-8.7,17.9h-2.1c2.1-5.6,4.2-11.1,7.2-16.3c3.5-5.4,1-11.9,0.9-17.7
	c-0.3-11.6-1.2-23.1-2.3-34.7c-0.8-13.1-2.4-26.1-5.2-39c-12.7,3.1-25.8,1.3-38.6,0c-16.1-2-30.6-11.8-40.3-24.6
	c-19.8-26.1-21.8-64.2-4.7-92.2C37.9,33.8,50.6,22.3,66,17 M57.5,32.4c-22.2,21.9-28.4,57.1-17.9,86c5.7,15.7,16.3,29.8,30.8,38.2
	c12.5,7.9,28.2,7.8,42.2,4.9c0.1-2.3,0.2-4.6,0.4-6.9c-4.2,0.1-8.5,0.8-12.6-0.2c-3.4-2-2-7.7,1.8-8.2c7.1-1.4,14.4-0.4,21.6,0.2
	c3.5,0.3,3.5,2.2,6.7,6.7c11.6-9.2,20.3-19.8,25.4-32.4c12.1-29.4,6-66.2-17.4-88.3C126.6,20.8,109.6,14.7,93,15.9
	C79.4,15.9,66.9,23.2,57.5,32.4 M32,49c-17.2,28.1-14.4,66.9,7,92c9,10.4,22.8,19.1,36.7,20.6c-4.3-2.2-5.5-3.3-7.7-4.7
	c-14.8-9.1-25.4-24-30.7-40.3C27.6,87,34.8,51.5,57.9,29.9c5.1-5,11.4-8.3,17.3-12.1C56.9,20.5,41.4,33.5,32,49 M102.2,148
	c-2.1,1.3-3.3,3.2-1.6,5.3c4.5,1,7.5,0.4,12.8,0.2c1.4-3.6,2.3-4.5,3.7-6.5c-5.2,0.2-10.7-0.6-15.7,1.2 M117.7,152.2
	c0.4,3.4,1.7,8.9,4.5,11.2c2.7,0.4,4.9-1.4,8.9-3.3c-1-3.4-2.2-6.7-4.2-9.8C124.7,147.1,116.8,148.1,117.7,152.2z"/>
<path d="M105.4,48.5c11-1.3,22.1,3.6,29.3,11.8c15.4,17,15.5,45.6,0.4,62.8c-6.7,7.7-16.8,12.8-27.1,12.3
	c-9.4-0.2-18.5-4.8-24.7-11.8c-16.2-17.7-15.7-48.1,1.4-65C90.2,53.2,97.6,49.3,105.4,48.5 M102.3,50.4c-15,3.2-25.6,17.1-28.4,31.7
	c-3.8,17.5,2.9,38,18.7,47.4c8.9,5.6,20.7,6.1,30.1,1.4c11.3-5.5,18.8-17,21.2-29c3.2-15.7-1.4-33.4-13.8-44
	C122.7,51.3,112.1,48.2,102.3,50.4z"/>
<path d="M131.5,204.4c3.1-2.4,6.9-3.5,10.7-4C139.6,203.6,135.4,204.4,131.5,204.4z"/>
<g id="_x23_b01842ff">
	<path d="M93.4,96.7l1.6-0.1c0,0.7,0,1.4,0.1,2.1c0.4,0,0.8,0,1.2,0c0-0.7,0-1.4-0.1-2.1l1.7-0.1c0.1,1.7,0.1,3.4,0.2,5.1
		c-0.6,0-1.1,0-1.7,0.1c0-0.8-0.1-1.5-0.1-2.3c-0.4,0-0.8,0-1.2,0c0,0.8,0.1,1.5,0.1,2.3c-0.4,0-0.9,0-1.3,0c-0.1,0-0.2,0-0.3,0
		L93.4,96.7z"/>
	<path d="M124.9,95.6l1.5,0c0.1,1.7,0.1,3.4,0.2,5.1c-0.5,0-1,0-1.5,0C125,99.1,125,97.4,124.9,95.6z"/>
	<path d="M126.9,95.6l1.5,0l0.2,5.1c0,0,0,0-0.1,0c-0.5,0-0.9,0-1.4,0C127,99,126.9,97.3,126.9,95.6z"/>
	<path d="M100.2,97.7c0.3,0,0.5,0,0.7,0.1c0.1,0,0.2,0.1,0.3,0.1c0.4,0.2,0.8,0.5,1,0.9c0.2,0.3,0.2,0.6,0.2,1c0,0.3,0,0.6-0.1,0.8
		c-0.1,0.3-0.3,0.5-0.5,0.7c-0.4,0.3-0.8,0.5-1.3,0.6c-0.5,0-0.9,0-1.4-0.3c-0.3-0.2-0.5-0.4-0.7-0.7c-0.2-0.3-0.2-0.7-0.2-1
		c0-0.4,0.1-0.9,0.4-1.2c0.3-0.4,0.7-0.7,1.2-0.8C100,97.7,100.1,97.7,100.2,97.7 M100.3,98.2c-0.1,0-0.2,0.1-0.2,0.2
		c-0.1,0.1-0.1,0.3-0.1,0.5c0,0.3,0,0.7,0,1c0,0.3,0,0.7,0.1,1c0.1,0.1,0.1,0.3,0.2,0.4c0.1,0.1,0.2,0.1,0.3,0
		c0.1,0,0.2-0.1,0.2-0.2c0.1-0.1,0.1-0.3,0.1-0.5c0-0.3,0-0.5,0-0.8c0-0.3,0-0.7-0.1-1c0-0.2-0.1-0.3-0.2-0.4
		C100.6,98.2,100.4,98.2,100.3,98.2z"/>
	<path d="M108.3,97.7c0.6-0.4,1.5-0.4,2.1,0c0.5,0.3,0.9,0.9,0.9,1.5c0,0.1,0,0.3,0,0.4c-0.9,0-1.7,0.1-2.6,0.1c0,0.2,0,0.3,0,0.5
		c0,0.1,0,0.2,0.1,0.3c0.1,0.2,0.2,0.3,0.4,0.4c0.3,0.1,0.7,0.1,1-0.1c0.2-0.1,0.3-0.3,0.4-0.6c0.2,0,0.5,0,0.7,0
		c0,0.2-0.1,0.5-0.3,0.7c-0.2,0.2-0.5,0.4-0.8,0.5c-0.3,0.1-0.5,0.1-0.8,0.2c-0.2,0-0.4,0-0.6,0c-0.4-0.1-0.7-0.3-1-0.6
		c-0.3-0.3-0.5-0.8-0.5-1.2c0-0.4,0-0.7,0.2-1.1C107.7,98.2,107.9,97.9,108.3,97.7 M108.9,98c-0.1,0.1-0.1,0.3-0.2,0.4
		c0,0.2,0,0.5,0,0.7c0.4,0,0.7,0,1.1,0c0-0.2,0-0.4,0-0.6c0-0.2-0.1-0.4-0.2-0.5C109.4,97.8,109.1,97.8,108.9,98z"/>
	<path d="M122,97c0.5-0.2,1.1-0.1,1.6,0.1c0.4,0.2,0.7,0.6,0.9,1c0.1,0.2,0.2,0.5,0.2,0.7c0,0.1,0,0.2,0,0.3c-0.9,0-1.7,0.1-2.6,0.1
		c0,0.2,0,0.4,0,0.6c0,0.1,0.1,0.3,0.2,0.4c0.1,0.2,0.4,0.3,0.6,0.3c0.3,0,0.7,0,0.9-0.2c0.1-0.1,0.2-0.3,0.3-0.5c0.2,0,0.5,0,0.7,0
		c0,0.2-0.1,0.4-0.2,0.5c-0.1,0.2-0.3,0.3-0.5,0.4c-0.3,0.2-0.6,0.2-0.9,0.3c-0.3,0-0.6,0-0.9,0c-0.5-0.1-0.9-0.4-1.1-0.8
		c-0.2-0.2-0.3-0.5-0.3-0.8c0-0.2,0-0.5,0-0.7c0.1-0.5,0.3-1,0.7-1.3C121.6,97.2,121.8,97.1,122,97 M122.3,97.5
		c-0.2,0.1-0.2,0.4-0.2,0.6c0,0.2,0,0.4,0,0.7c0.4,0,0.7,0,1.1,0c0-0.2,0-0.4,0-0.7c0-0.2-0.1-0.4-0.2-0.5
		C122.7,97.4,122.5,97.4,122.3,97.5z"/>
	<path d="M105.1,97.6c0.2-0.1,0.5-0.1,0.7,0c0.3,0.1,0.5,0.2,0.7,0.4c0.1,0.2,0.2,0.4,0.2,0.6c0,0.9,0.1,1.8,0.1,2.7
		c-0.5,0-0.9,0-1.4,0c0-0.9-0.1-1.7-0.1-2.6c0-0.1,0-0.3-0.1-0.4c-0.1-0.1-0.2-0.1-0.2-0.1c-0.2,0-0.4,0.1-0.6,0.3
		c0,0-0.1,0.1-0.1,0.1c0,0.9,0.1,1.8,0.1,2.7c-0.5,0-1,0-1.4,0c0-1.3-0.1-2.5-0.1-3.8c0.5,0,1,0,1.4,0c0,0.1,0,0.2,0,0.4
		C104.6,97.9,104.9,97.7,105.1,97.6z"/>
	<path d="M111.1,97.5c0.6,0,1.1,0,1.7-0.1c0.3,0.6,0.5,1.2,0.8,1.8c0.2-0.6,0.4-1.2,0.7-1.8c0.2,0,0.4,0,0.6,0
		c-0.6,1.5-1.1,3.1-1.7,4.6c-0.2,0.4-0.7,0.7-1.1,0.7l-0.1,0c-0.2,0-0.3,0-0.5-0.1c-0.2-0.1-0.3-0.4-0.3-0.7c0-0.2,0.1-0.5,0.3-0.6
		c0.1-0.1,0.3-0.1,0.5-0.1c0.3,0,0.5,0.3,0.5,0.5c0,0.1,0,0.3-0.1,0.4c0.3-0.2,0.5-0.5,0.5-0.9c0-0.1,0-0.2-0.1-0.3
		c-0.1-0.2-0.1-0.3-0.2-0.5C112.1,99.5,111.6,98.5,111.1,97.5z"/>
	<path d="M114.8,97.3c0.5,0,1,0,1.5-0.1c0.2,0.6,0.4,1.3,0.6,1.9c0,0,0,0.1,0,0.1c0.2-0.7,0.3-1.4,0.5-2.1c0.4,0,0.8,0,1.2,0
		c0.2,0.6,0.5,1.2,0.7,1.8c0,0,0,0.1,0.1,0.1c0.2-0.7,0.3-1.3,0.5-2c0.2,0,0.4,0,0.7,0c-0.3,1.3-0.6,2.5-0.8,3.8c-0.4,0-0.8,0-1.1,0
		c-0.2-0.6-0.4-1.2-0.6-1.7c-0.1-0.2-0.1-0.3-0.2-0.5c-0.2,0.8-0.4,1.5-0.5,2.3c-0.4,0-0.8,0-1.2,0
		C115.6,99.8,115.2,98.6,114.8,97.3z"/>
</g>
<path d="M113.9,85l-0.1-2.1l-0.4,0.2l-1.4,0.7l0,1.3l0,0.1l0,0c0,0,0,0.1,0,0.1c0,1.6-1.3,2.9-2.9,2.9c-1.3,0-2.4-0.7-2.9-1.8
	l-1.7,0.8c0.8,1.7,2.6,2.9,4.6,2.8c2.6-0.1,4.7-2.2,4.7-4.8C113.9,85.2,113.9,85.1,113.9,85 M104,79.3l0.1,1.9l0.1,4.2
	c0,0.1,0,0.1,0,0.2c0,0.2,0,0.3,0.1,0.5l1.1-0.5l0.6-0.3l-0.1-3.7l0-0.4l0.3,0.1l2.8,1.1l2.6-1.3L112,81l0,0.4l0,1.1l0.8-0.4l1-0.5
	l0-0.7l-0.1-1.9l-1.8,0.1l0,0l-2.9,1.3l-3.1-1.1l0,0L104,79.3z"/>
<line class="st0" x1="93" y1="93.4" x2="127.9" y2="92.2"/>
<circle class="st1" cx="105.1" cy="150.7" r="2.2"/>
</svg>
