<?xml version="1.0" encoding="utf-8"?>
<!-- Generator: Adobe Illustrator 21.1.0, SVG Export Plug-In . SVG Version: 6.00 Build 0)  -->
<svg version="1.1"
	 id="svg2" inkscape:version="0.91 r13725" sodipodi:docname="xiaomi_door_icon.svg" xmlns:cc="http://creativecommons.org/ns#" xmlns:dc="http://purl.org/dc/elements/1.1/" xmlns:inkscape="http://www.inkscape.org/namespaces/inkscape" xmlns:rdf="http://www.w3.org/1999/02/22-rdf-syntax-ns#" xmlns:sodipodi="http://sodipodi.sourceforge.net/DTD/sodipodi-0.dtd" xmlns:svg="http://www.w3.org/2000/svg"
	 xmlns="http://www.w3.org/2000/svg" xmlns:xlink="http://www.w3.org/1999/xlink" x="0px" y="0px" viewBox="0 0 1075 969"
	 style="enable-background:new 0 0 1075 969;" xml:space="preserve">
<style type="text/css">
	.st0{fill:#3F3B3B;}
</style>
<sodipodi:namedview  bordercolor="#666666" borderopacity="1" gridtolerance="10" guidetolerance="10" id="namedview42" inkscape:current-layer="svg2" inkscape:cx="671.875" inkscape:cy="660.92443" inkscape:pageopacity="0" inkscape:pageshadow="2" inkscape:window-height="757" inkscape:window-maximized="0" inkscape:window-width="1443" inkscape:window-x="0" inkscape:window-y="0" inkscape:zoom="0.30009657" objecttolerance="10" pagecolor="#ffffff" showgrid="false">
	</sodipodi:namedview>
<g id="_x23_fefefeff">
</g>
<g id="_x23_3f3b3bff">
	<path id="path6" inkscape:connector-curvature="0" sodipodi:nodetypes="ccccccccccccccccccccccccccccccccccccccccccccccccc" d="
		M267.4,11.1c76.3,0,162.2-3.4,224.5,48.5C552.8,107.1,588,182,592.1,258.6c8.1,99.1,0,198.8,4,298.1
		c-2.6,90.5,10.7,186.8-34.2,269.5c-26.2,48.3-68.1,89.6-121.6,105.8c-50.9,20.4-106.6,15.8-159.9,23.6
		c-81.8,6.7-157.4-44.3-198.7-112c-51.1-78.8-51.2-176-49-266.7c1.8-104.3-3-208.9,1.6-313.4c5.9-100,62.6-204.8,160.9-239.7
		C218.4,15.6,242.9,13,267.4,11.1z M149.9,72.4C85,124.8,52.7,209.8,54,291.9c0.1,75.6,0.5,151.2-0.6,226.9
		c2.8,90.5-10.4,185.8,25.4,271.6c21.1,48.7,53.2,95.6,101.2,120.8c63.5,41.6,150.7,22.9,202.7-28.7c55.6-53,74.9-133,73.5-207.7
		c0.6-87.6,1.1-175.2-0.5-262.8c-2-75.4,5.6-153.3-16.6-226.5c-26.6-82-104-155.9-194.5-149.8C210.5,38.3,176.3,50.1,149.9,72.4z
		 M348.8,37.6c34.1,23,65.7,50.5,85.9,87.1c36.6,58.3,40.7,129.9,41.5,197.1c-0.1,81.7,0.4,163.4,1.6,245.1
		c-3.4,87.8,8.9,180.8-30.3,263c-8.8,36.4-62.4,72.5-70.2,92.3c33.5-4,62.3-26.5,86.6-48.4c60.4-62,74.4-152.7,71.4-235.8
		c1.3-111.8-0.9-223.5-1.5-335.3c-1.3-73.3-18.4-149.8-69.5-205.1c-27.9-31-67.5-53.9-108.9-60L348.8,37.6z M474.1,73.3
		c33.3,40.6,63,86.7,71.8,139.6C563.3,304.1,555.6,412,557,505c11.8,0.8,7.3,0.6,17-0.2c-1.2-91.4,7.5-212.4-13.5-301.5
		C547.7,151.1,515.9,106.4,474.1,73.3z M558.6,532.2c-0.7,38.7-0.2,77.7-0.3,114.7c-2.2,66.7-6.1,136.9-43.1,194.8
		c-8.7,17.8-36.6,51.4-6.7,20.5c54.4-55.4,69.7-136.7,67.6-211.6c-1.5-39.5,0.1-79-0.6-118.4l-7.7,0
		C563.4,532.7,563.4,532.3,558.6,532.2z"/>
	<path id="path8" class="st0" d="M444.2,77.8C444.8,78.4,444.8,78.4,444.2,77.8z"/>
	<path id="path10" inkscape:connector-curvature="0" d="M831.2,183.2c53.2-0.5,114.1-3.1,155.9,35.9c36,33.9,49.7,85.1,47.1,133.2
		c0.2,97.7,5.1,195.5-0.5,293.2c1.1,50.2-18.1,104.8-63.4,131.2c-38.4,24.9-86.2,15-129.2,20.4c-29.4,1.6-60.9-4-82.6-25.3
		c-39.3-29.1-60.2-78.3-59.3-126.6c-1-48.6,2.2-97.2-0.6-145.8c1.1-62.2-1-124.5,0.7-186.6c5.1-52.7,36.6-107.5,90.4-122.1
		C803.2,186.5,817.2,184.2,831.2,183.2L831.2,183.2z M819.4,206.1c-56.2,1-94.1,56.9-99,108.5c-2,88.9,0.2,177.9,1.1,266.8
		c-0.7,27.8-2.2,55.7,0.3,83.4c6.7,50.2,41.4,103.2,94.5,111.1c33.7,2.8,69.3-13.5,86.1-43.6c31-46.4,19.2-104.4,21.3-156.8
		c0.1-63.1-0.6-126.2-1.3-189.2c-2.1-37.3,6.8-76.9-11.6-111.6C894.3,239.6,861.1,204.7,819.4,206.1z M893.1,211.5
		c16.7,22.4,36.6,43.4,43.5,71.7c12.1,36.8,3.9,75.6,7.1,113.4c1.1,89.4,0.7,178.8,0.7,268.2c-1.3,36.2-14.5,72-38.6,99.2
		c-7.1,12.7,25.6-4.3,31.5-12.2c38.7-32.3,44.2-86.6,41.6-133.7c-1.4-75.9,1.1-151.8-1.4-227.6c-0.7-46.2,2.3-96.5-23.9-137.2
		C939.2,233.2,917.8,215.9,893.1,211.5L893.1,211.5z M955.8,225.5c36.1,34.3,43.8,86.8,42,134.3c1.7,98,1.8,196.1,1.7,294.1
		c-1.3,33.2-8.5,67.9-30.6,93.9c22.6-8.6,30.3-36.5,39.7-56.8c12.1-49.1,1.7-99.9,5.7-149.8c-2.1-48.2,0.3-96.5-1.9-144.7
		c-0.1-51.6,5.3-110.3-30.8-152.4C974.5,235.8,967.2,227.5,955.8,225.5L955.8,225.5z"/>
	<path id="path12" inkscape:connector-curvature="0" d="M272.4,417.1c6.4-1,9,6.1,8.4,11.3c-0.2,5.9-0.8,11.8,0.2,17.7
		c-0.7,8.7-9.3,14.6-17.3,16.1c-5.7-0.4-2.7-7.5-3.9-11.1c-4.3-2.9-9.7,3.5-14.4,4.4c-5.1,1.6-9.8,6.4-14.2,7.7
		c-9.1-4.5-18.8-7.9-27.3-13.5c-3.2,15.2-1.8,30.7-2.5,46.1c-3.2,5.1-8.7,9.2-14.7,10.1c-5.3,0.4-5.4-6-5.1-9.8
		c0.1-23.8-0.5-47.6-0.4-71.3c9.5-5.1,20.8-2.9,30.2,1.4c7.1,3,13.9,6.9,21.3,9C247.3,432.2,256.4,415.5,272.4,417.1L272.4,417.1z"
		/>
	<path id="path14" inkscape:connector-curvature="0" d="M277.5,469c5.7,0.9,2.2,8.5,3,12.4c-0.1,14.2,0.7,29.3-6.6,42
		c-7.1,15.2-20.3,29-37.5,31.7c-8.8,1.2-18.1,0.3-25.9-4.1c-5-2.7-9.5-6.3-13.6-10.2c-2.7-6.4-9-11.5-8.9-18.9
		c0.2-5.1,5.5-6.3,9.2-8.3c3.3-2.5,8.9-2.7,10.1,2.2c6.4,11.6,22,17.6,34.2,11.7c7.2-4,11.8-11.3,15.6-18.2
		c4.4-10.3,0.8-22.4,6.1-32.5C266.1,471.7,272.8,471.8,277.5,469L277.5,469z"/>
	<path id="path16" class="st0" d="M54.2,504.8C54.8,505.4,54.8,505.4,54.2,504.8z"/>
	<path id="path18" class="st0" d="M54.2,520.8C54.8,521.4,54.8,521.4,54.2,520.8z"/>
	<path id="path20" class="st0" d="M558.2,533.8C558.8,534.4,558.8,534.4,558.2,533.8z"/>
	<path id="path22" class="st0" d="M54.2,558.8C54.8,559.4,54.8,559.4,54.2,558.8z"/>
	<path id="path24" class="st0" d="M54.2,565.8C54.8,566.4,54.8,566.4,54.2,565.8z"/>
	<path id="path26" class="st0" d="M551.2,844.8C551.8,845.4,551.8,845.4,551.2,844.8z"/>
	<path id="path28" class="st0" d="M113.2,849.8C113.8,850.4,113.8,850.4,113.2,849.8z"/>
	<path id="path30" class="st0" d="M117.2,855.8C117.8,856.4,117.8,856.4,117.2,855.8z"/>
	<path id="path32" class="st0" d="M123.2,864.3C123.5,864.2,123.5,864.2,123.2,864.3z"/>
	<path id="path34" class="st0" d="M400.2,915.8C400.8,916.4,400.8,916.4,400.2,915.8z"/>
	<path id="path36" class="st0" d="M394.2,916.8C394.8,917.4,394.8,917.4,394.2,916.8z"/>
	<path id="path38" class="st0" d="M461.2,924.8C461.8,925.4,461.8,925.4,461.2,924.8z"/>
	<path id="path40" class="st0" d="M418.2,939.8C418.8,940.4,418.8,940.4,418.2,939.8z"/>
</g>
</svg>
