<?xml version="1.0" encoding="utf-8"?>
<!-- Generator: Adobe Illustrator 25.2.1, SVG Export Plug-In . SVG Version: 6.00 Build 0)  -->
<svg version="1.1" id="Laag_1" xmlns="http://www.w3.org/2000/svg" xmlns:xlink="http://www.w3.org/1999/xlink" x="0px" y="0px"
	 viewBox="0 0 1187.95 856.6" style="enable-background:new 0 0 1187.95 856.6;" xml:space="preserve">
<style type="text/css">
	.st0{fill:none;stroke:#000000;stroke-width:20;stroke-linecap:round;stroke-linejoin:round;}
	.st1{fill:none;stroke:#000000;stroke-width:40;stroke-linecap:round;stroke-linejoin:round;}
	.st2{fill:#EFEFEF;}
	.st3{fill:#010101;}
</style>
<path class="st0" d="M30.61,786.09c0-0.03,0-0.06,0-0.08"/>
<path class="st0" d="M226.7,20.27c-1.98-0.09-3.96-0.18-5.94-0.27"/>
<path class="st1" d="M219.59,836.6c1.61-0.04,3.23-0.08,4.84-0.12c3.22-0.08,6.44-0.16,9.66-0.23c6.42-0.15,12.84-0.31,19.26-0.46
	c25.37-0.61,50.74-1.22,76.11-1.83c144.7-3.48,289.4-6.96,434.1-10.44c64.04-1.54,128.07-3.08,192.11-4.62
	c31.42-0.76,62.83-1.51,94.25-2.27c15.59-0.37,31.18-0.75,46.77-1.12c7.77-0.19,15.54-0.37,23.3-0.56
	c3.88-0.09,7.76-0.19,11.63-0.28c1.94-0.05,3.87-0.09,5.81-0.14c6.61-0.16,11.5-2.11,16.35-6.63c10.29-9.58,14.18-25.2,14.18-38.31
	c-0.06-144.72-0.12-289.44-0.17-434.15c-0.03-74.3-0.06-148.59-0.09-222.89c0-9.22-0.53-18-3.79-26.87
	c-3.28-8.9-9.54-18.77-19.35-22.33c-2.57-0.93-5.16-1.17-7.84-1.3c-3.21-0.15-6.42-0.3-9.62-0.44c-6.42-0.3-12.85-0.59-19.27-0.89
	c-12.88-0.59-25.76-1.18-38.65-1.78c-25.92-1.19-51.84-2.38-77.76-3.57C846.85,48.75,702.3,42.11,557.74,35.47
	c-59.83-2.75-119.66-5.5-179.49-8.24c-30.86-1.42-61.73-2.83-92.59-4.25c-15.7-0.72-31.4-1.44-47.1-2.16
	c-3.95-0.18-7.91-0.36-11.86-0.54"/>
<path class="st0" d="M220.76,20c-4-0.18-7.78-0.03-11.64,1.35c-11.67,4.17-18.87,15.67-22.21,26.52c-3.39,11-2.73,21.83-2.73,32.91
	c0,5.32,0,10.65,0,15.97c-0.01,144.7-0.01,289.4-0.02,434.1c0,69.34-0.01,138.69-0.01,208.03c0,8.67,0,17.34,0,26.01
	c0,4.33,0,8.67,0,13c0,9.98-0.34,19.72,2.59,29.6c2.78,9.36,8.16,18.84,16.64,24.52c5.11,3.42,10.11,4.75,16.22,4.6"/>
<path class="st0" d="M36.52,45.83c-2.19,0.27-4.39,0.54-6.58,0.81c-13.78,1.69-19.84,16.84-19.85,28.64
	C10.06,311.86,10.03,548.45,10,785.03c0,10.21,4.35,22.62,14.63,27.45c2.51,1.18,5.08,1.56,7.77,1.83c1.56,0.16,3.12,0.31,4.68,0.47
	"/>
<path class="st0" d="M638.58,39.36c8.22,0.11,16.44,0.3,24.66,0.67c5.06,0.23,10.1,0.28,15.13,1.2c-1.82-0.6-13.04-1.14-14.86-1.22"
	/>
<path class="st0" d="M1153.93,107.09c0-5.42-0.96-10.21-3.54-15.05c-2.3-4.33-6.39-8.78-11.89-9.02
	C831.92,69.53,525.34,56.04,218.76,42.55c-6.08-0.27-10.94,3.64-13.91,8.4c-3.22,5.17-4.32,10.29-4.32,16.27
	c0,40.88,0,81.77-0.01,122.65c0,28.57,0,57.13,0,85.7c0,34.76,0,69.52,0,104.27c0,32.45,0,64.9,0,97.35
	c0,103.89-0.01,207.79-0.01,311.68c0,6.02,1.12,11.18,4.33,16.4c2.94,4.79,7.79,8.82,13.9,8.69
	c306.68-6.78,613.37-13.56,920.05-20.34c5.5-0.12,9.59-4.48,11.91-8.79c2.58-4.82,3.51-9.57,3.51-14.96
	C1154.11,548.94,1154.02,328.01,1153.93,107.09z"/>
<path class="st0" d="M79.56,693.41c-3.52-0.04-6.14,2.66-7.57,5.46c-3.14,6.17-2.52,17.39,4.53,20.98c0.97,0.5,1.93,0.76,3.03,0.77
	c17.59,0.26,35.18,0.52,52.77,0.78c2.18,0.03,3.67-0.73,5.21-2.17c1.04-0.97,1.81-2.07,2.46-3.34c1.07-2.09,1.58-4.2,1.76-6.52
	c0.09-1.21,0.08-2.41-0.05-3.61c-0.52-4.8-3.39-11.63-9.37-11.7C114.73,693.85,97.15,693.63,79.56,693.41z"/>
<path class="st0" d="M79.56,646.58c-6.83-0.06-9.4,8.19-9.38,13.57c0.01,5.35,2.61,13.57,9.38,13.64
	c17.59,0.19,35.18,0.37,52.76,0.56c6.1,0.06,9.06-7.22,9.43-12.08c0.09-1.15,0.08-2.28-0.04-3.42c-0.39-3.93-2.34-9.05-6.28-11.06
	c-1-0.51-1.98-0.77-3.11-0.78C114.74,646.87,97.15,646.73,79.56,646.58z"/>
<path class="st1" d="M214.4,20c-50.5,2.4-101.01,4.8-151.51,7.2c-12.03,0.57-21.22,9.02-26.5,18.85
	c-4.71,8.77-6.49,17.41-6.49,27.25c-0.03,237.55-0.06,475.11-0.09,712.66c0,10.48,1.96,19.56,7.24,28.77
	c7.03,12.27,11.6,17.68,26.84,18.06c50.52,1.26,101.05,2.51,151.57,3.77"/>
<polyline class="st1" points="677.64,41.16 638.58,39.36 216.83,20 "/>
<polyline class="st0" points="30.7,73.3 30.7,73.22 30.79,73.22 "/>
<polygon class="st0" points="374.99,659.46 1002.64,653.82 1002.5,219.77 374.97,200.39 "/>
<g>
	<g id="_x23_efefefff">
		<path class="st2" d="M633.88,538.38c1.97-0.06,3.93-0.12,5.9-0.17c0.01,2.79,0.02,5.59,0.03,8.38c-1.95-0.04-3.89-0.1-5.84-0.14
			C633.94,543.76,633.91,541.07,633.88,538.38z"/>
		<path class="st2" d="M920.75,537.92c1.84,0.01,3.67,0.04,5.51,0.07c0.02,2.63,0.04,5.27,0.07,7.9c-1.8,0.05-3.61,0.09-5.4,0.14
			C920.86,543.31,920.79,540.61,920.75,537.92z"/>
		<path class="st2" d="M952.35,557.39c1.71-0.01,3.41-0.02,5.13-0.06c0.04,2.43,0.09,4.87,0.14,7.31c-1.73-0.01-3.44,0-5.15-0.01
			C952.42,562.22,952.38,559.8,952.35,557.39z"/>
	</g>
	<g id="_x23_010101ff">
		<path class="st3" d="M595.66,301.14c4.45-6.47,9.02-12.77,13.47-19.23c3.83,6.07,8.29,12.33,9.39,20.55
			c0.16,7.9,0.68,15.99-0.19,23.8c-1.81,6.18-3.99,12.19-6.55,17.83c-3.53,7.72-10.54,9.15-15.37,14.73
			c-2.16,2.61-4.78,4.22-7.61,4.91c-1.1-9.74,3.29-17.73,6.38-25.67c3.5-6.77,6.37-14.19,10.45-20.29
			c-0.54-0.29-1.63-0.86-2.17-1.15c-3.68,5.76-8.1,10.65-11.18,17.15c-2.1,5-4.12,10.11-5.7,15.5c-1,4.84-0.71,10-1.16,15
			c-2.27-4.8-4.96-9.85-5.02-15.82c-0.13-5.75-0.47-11.6,0.28-17.28c1.3-4.85,3.14-9.37,4.83-13.96
			C587.81,310.63,592.14,306.29,595.66,301.14z"/>
		<path class="st3" d="M644.27,310.66c6.42-9.2,13.26-17.79,19.2-27.59c4.03,5.91,8.33,12.34,9.58,20.55
			c0.28,7.49,0.54,15.06,0.03,22.5c-1.72,6.58-4.02,12.9-6.57,18.9c-3.42,7.73-10.45,8.93-15.17,14.51
			c-2.16,2.75-4.82,4.38-7.74,4.71c-0.83-9.6,3.24-17.52,6.28-25.38c3.36-7.2,6.85-14.28,10.6-21.05c-4.39,0.92-6.79,6.69-9.8,10.62
			c-4,5.34-6.15,12.66-8.51,19.57c-1.93,5.2-1.24,11.36-1.73,17.03c-2.43-5.18-5.19-10.69-5.06-17.11
			c0.04-6.36-0.89-13.26,1.29-19.06C638.95,322.59,640.71,315.73,644.27,310.66z"/>
		<path class="st3" d="M699.08,310.83c6.23-8.71,12.72-17.04,18.34-26.54c4.87,6.49,9.86,14.56,9.81,24.49
			c-0.17,8.02,1.24,16.81-1.75,24.02c-2.51,7.29-4.72,15.7-10.06,19.72c-3.97,2.86-8.02,5.61-11.47,9.66
			c-1.61,2.07-3.86,2.32-5.91,2.93c0.09-4.17-0.28-8.64,1.27-12.36c4.21-11.72,8.92-23.29,15.27-32.85
			c-0.54-0.31-1.62-0.93-2.15-1.24c-3.46,5.47-7.52,10.17-10.64,16.1c-2.18,4.79-3.86,10.01-5.57,15.16
			c-1.58,4.59-0.89,9.93-1.01,14.91c-0.49-0.2-1.47-0.59-1.96-0.78c-1.27-5.02-3.65-9.67-3.46-15.17c0.14-6.44-1-13.51,1.27-19.36
			C693.42,323.03,695.33,315.97,699.08,310.83z"/>
		<path class="st3" d="M751.84,313.24c6.17-9.63,13.06-18.25,19.2-27.85c3.87,5.97,7.93,12.37,9.41,20.36
			c0.37,7.5,0.71,15.15,0.08,22.59c-1.75,6.34-3.93,12.45-6.26,18.39c-2.57,6.12-7.59,8.12-11.73,11.35
			c-2.62,1.85-4.62,4.99-7.18,6.99c-2.65,0.64-5.43,0.51-8.09-0.24c-4.34-9.13-4.01-20.3-3.42-30.63
			C745.94,326.83,748.34,319.44,751.84,313.24 M755.02,316.4c-3.57,4.93-5.14,11.87-7.41,18.04c-2.44,6.25-1.35,13.79-0.8,20.63
			c5.75-5.68,6.11-16.77,10.98-23.43c2.59-3.91,5.36-7.59,7.85-11.66c0.89,0.26,1.77,0.52,2.66,0.8
			c-4.43,6.13-7.55,13.82-11.01,21.08c-2.26,6.51-5.72,12.82-5.31,20.58c3.95-5.4,8.64-9.3,13.68-12.28
			c6.15-3.85,8.17-13.6,10.9-21.52c2.27-5.96,1.45-13.19,1.07-19.76c-1.16-5.88-3.73-11.03-6.2-15.98
			C766.11,300.95,760.5,308.58,755.02,316.4z"/>
		<path class="st3" d="M805.51,313.48c6.25-8.79,12.31-17.82,18.51-26.63c4.72,6.43,9.4,14.4,9.57,24.09
			c0.01,7.73,1.1,16.12-1.51,23.17c-2.38,7.04-4.3,15.16-9.14,19.52c-3.97,3.25-8.38,5.55-11.83,9.97
			c-2.75,4.04-7.04,2.11-10.58,2.46c-1.24-5.11-3.6-9.86-3.46-15.42c0.05-6.74-1.04-14.12,1.42-20.17
			C800.53,324.59,802.15,318.13,805.51,313.48 M808.32,317.46c-3.47,4.82-5.24,11.44-7.36,17.55c-2.49,6.29-1.31,13.92-1.05,20.85
			c4.61-4.24,5.99-12.01,8.51-18.48c3.29-6.72,7.25-13.02,12.32-17.05c-5.41,14.07-14.14,26.2-15.84,42.85
			c3.76-4.11,7.54-8.23,11.92-10.94c3.78-2.2,7.22-5.93,8.99-11.3c1.67-4.98,3.5-9.86,4.88-15.02c0.6-5.56,0.42-11.38-0.22-17
			c-1.43-5.4-3.81-10.19-6.17-14.84C819,301.9,813.69,309.71,808.32,317.46z"/>
		<path class="st3" d="M414.99,301.72c9.51,0.09,19.01,0.33,28.49,0.58c0,2.5-0.01,5.02-0.03,7.52c-3.8,0-7.61-0.06-11.42-0.08
			c0.02,12.94,0,25.9,0.04,38.86c-1.87-0.02-3.73-0.02-5.59-0.02c-0.02-13.01-0.04-26-0.01-38.97c-3.82-0.13-7.65-0.22-11.47-0.37
			C414.99,306.74,414.99,304.23,414.99,301.72z"/>
		<path class="st3" d="M449.02,302.33c1.84,0.02,3.69,0.03,5.53,0.04c0.16,8.16-0.34,16.35,0.25,24.49
			c1.63,5.33,5.59,8.5,8.66,12.18c2.72-3.52,5.72-6.74,7.92-10.94c0.56-8.41,0.03-16.89,0.18-25.32c1.86,0.08,3.73,0.16,5.58,0.28
			c-0.22,7.97,0.31,16-0.21,23.95c-2.02,10.11-8.14,16.82-13.47,23.63c-6.01-6.34-11.78-14.03-14.19-24.23
			C448.64,318.4,449.18,310.34,449.02,302.33z"/>
		<path class="st3" d="M482.94,303.02c9.32,0.28,18.64,0.41,27.92,0.61c-0.07,15.39,0,30.79,0.15,46.23
			c-9.3-0.08-18.62-0.3-27.96-0.39C483.08,333.98,483.08,318.49,482.94,303.02 M488.41,310.9c0.09,10.33,0.15,20.67,0.07,31
			c5.69,0.07,11.38,0.18,17.07,0.26c-0.15-10.3-0.16-20.6-0.1-30.88C499.78,310.96,494.1,310.85,488.41,310.9z"/>
		<path class="st3" d="M516.31,303.74c9.35,0.18,18.67,0.41,27.98,0.54c0.02,2.54,0.02,5.09,0.03,7.63
			c-7.4-0.23-14.82-0.29-22.24-0.45c0.07,10.35,0.1,20.71,0.1,31.07c7.46-0.01,14.91,0.18,22.37,0.36
			c-0.02,2.53-0.04,5.06-0.06,7.59c-9.33-0.27-18.69-0.3-28.05-0.56C516.35,334.52,516.27,319.12,516.31,303.74z"/>
		<path class="st3" d="M417.83,459.67c15.22,0.08,30.4,0.21,45.53,0.27c-0.08,20.96,0,41.97,0.08,62.99
			c-12.28,0.16-24.59,0.02-36.93,0.07c-0.01,13.22,0.04,26.44-0.02,39.68c12.35-0.07,24.68-0.22,36.98-0.07
			c0.01,3.93,0.02,7.86,0.05,11.8c-15.17,0.1-30.39,0.11-45.65,0.24c0.06-21.26,0.05-42.48,0.01-63.68
			c12.36,0.03,24.69,0.12,36.99-0.01c-0.08-13.24-0.06-26.47-0.06-39.69c-12.28-0.39-24.6-0.17-36.94-0.36
			C417.89,467.16,417.87,463.4,417.83,459.67z"/>
		<path class="st3" d="M480.4,460.01c15,0.18,29.96,0.21,44.88,0.3c-0.01,3.71,0.01,7.43,0.05,11.15
			c-12.15,0.13-24.35-0.6-36.54,0.24c0.14,13.07,0.17,26.16,0.12,39.27c12.21,0.23,24.4,0.15,36.56,0.11
			c0.02,21,0.12,42.04,0.22,63.1c-14.96,0.01-29.96,0.06-44.99,0.22C480.43,536.17,480.44,498.04,480.4,460.01 M488.94,523.01
			c0.07,13.12,0.11,26.26,0.08,39.41c9.39-0.03,18.77-0.08,28.12-0.05c-0.02-13.14-0.1-26.28-0.13-39.39
			C507.67,523.04,498.31,523,488.94,523.01z"/>
		<path class="st3" d="M567.3,460.47c14.77,0.3,29.49,0.22,44.18,0.37c-0.01,3.67,0.02,7.36,0.06,11.03
			c-11.95,0.15-23.93-0.56-35.92,0.24c0.1,12.98,0.2,25.98,0.21,38.97c12.01,0.22,24,0.12,35.97,0.14
			c0.07,20.82,0.24,41.67,0.4,62.55c-14.81,0.01-29.64,0.15-44.53,0.16c0.13-3.94,0.18-7.87,0.22-11.81
			c11.97,0.03,23.93-0.07,35.85-0.06c-0.13-13.02-0.2-26.03-0.23-39.01c-11.95-0.03-23.92-0.03-35.91-0.02
			C567.44,502.14,567.33,481.29,567.3,460.47z"/>
		<path class="st3" d="M798.51,461.93c14.16,0.04,28.28,0.18,42.37,0.22c0.51,36.77,1.15,73.65,1.53,110.61
			c-14.1,0.02-28.25,0.11-42.43,0.19c-0.05-3.85-0.1-7.7-0.16-11.54c11.56-0.2,23.09-0.14,34.6-0.19
			c-0.31-12.73-0.44-25.44-0.55-38.14c-11.48,0.04-22.99,0.07-34.53-0.04c-0.05-3.88-0.11-7.75-0.19-11.62
			c11.52,0.06,23,0.04,34.46,0.06c-0.13-12.84-0.29-25.66-0.56-38.48c-11.45-0.09-22.9-0.11-34.4-0.18
			C798.61,469.19,798.57,465.55,798.51,461.93z"/>
		<path class="st3" d="M856.77,462.29c14.01,0.03,27.99,0.15,41.92,0.22c0.5,36.56,1.15,73.22,1.77,109.96
			c-13.97,0.09-27.97,0.14-42.02,0.2C857.89,535.79,857.41,499,856.77,462.29 M864.86,473.3c0.16,12.78,0.39,25.56,0.59,38.36
			c8.7-0.21,17.39-0.15,26.07-0.01c-0.2-12.66-0.45-25.29-0.58-37.92C882.26,472.87,873.56,473.23,864.86,473.3 M865.61,523.07
			c0.18,12.68,0.39,25.37,0.58,38.07c8.72-0.06,17.44-0.09,26.15-0.12c-0.24-12.64-0.45-25.27-0.62-37.89
			C883.02,523.11,874.32,523.15,865.61,523.07z"/>
		<path class="st3" d="M936.4,530.41c1.64,0,3.29,0,4.94-0.02c0.33,13.9,0.41,27.83,0.86,41.76c-1.73,0.07-3.45,0.1-5.18,0.15
			C936.76,558.33,936.38,544.36,936.4,530.41z"/>
		<path class="st3" d="M628.51,530.75c5.49-0.05,10.98-0.04,16.45-0.04c0.09,7.81,0.18,15.63,0.21,23.46
			c-5.49,0.06-11,0.09-16.51,0.04C628.59,546.39,628.52,538.58,628.51,530.75 M633.88,538.38c0.03,2.69,0.06,5.38,0.09,8.08
			c1.95,0.04,3.9,0.1,5.84,0.14c-0.01-2.79-0.02-5.59-0.03-8.38C637.81,538.26,635.84,538.32,633.88,538.38z"/>
		<path class="st3" d="M647.87,530.77c8.18-0.11,16.33-0.14,24.49,0.03c0,2.49,0.01,4.98,0.02,7.48c-6.34-0.2-12.68-0.03-19.04,0.04
			c0.08,9.15,0.17,18.31,0.21,27.48c6.38,0.08,12.74,0.14,19.11,0.02c0,2.55,0.02,5.11,0.04,7.66c-8.14,0.02-16.31,0.03-24.48,0.14
			C648.13,559.31,648.03,545.04,647.87,530.77z"/>
		<path class="st3" d="M915.51,530.54c5.22-0.02,10.44-0.02,15.65,0.06c0.14,7.59,0.28,15.18,0.4,22.78
			c-5.22,0.13-10.45,0.14-15.69,0.1C915.73,545.83,915.59,538.18,915.51,530.54 M920.75,537.92c0.05,2.69,0.11,5.4,0.18,8.1
			c1.8-0.05,3.6-0.09,5.4-0.14c-0.03-2.63-0.05-5.27-0.07-7.9C924.42,537.95,922.58,537.93,920.75,537.92z"/>
		<path class="st3" d="M947.12,549.43c5.07-0.1,10.15-0.11,15.21-0.04c0.58,7.6,0.84,15.24,0.55,22.85
			c-5.12-0.03-10.24-0.03-15.37,0.07C947.42,564.68,947.29,557.06,947.12,549.43 M952.35,557.39c0.03,2.41,0.07,4.83,0.12,7.24
			c1.71,0.01,3.43,0,5.15,0.01c-0.05-2.44-0.1-4.88-0.14-7.31C955.76,557.36,954.06,557.38,952.35,557.39z"/>
		<path class="st3" d="M542.45,562.29c2.85,0.06,5.7,0.04,8.55-0.1c0,3.97,0.01,7.93,0.04,11.88c-2.85-0.03-5.7-0.05-8.55-0.02
			C542.5,570.13,542.48,566.21,542.45,562.29z"/>
	</g>
</g>
</svg>
