<?xml version="1.0" encoding="utf-8"?>
<!-- Generator: Adobe Illustrator 25.2.1, SVG Export Plug-In . SVG Version: 6.00 Build 0)  -->
<svg version="1.1" id="Laag_1" xmlns="http://www.w3.org/2000/svg" xmlns:xlink="http://www.w3.org/1999/xlink" x="0px" y="0px"
	 viewBox="0 0 430.3 361.89" style="enable-background:new 0 0 430.3 361.89;" xml:space="preserve">
<style type="text/css">
	.st0{opacity:0.84;enable-background:new    ;}
	.st1{opacity:0.84;fill:#686868;enable-background:new    ;}
</style>
<path class="st0" d="M131.19,1.32c5.39-2.21,12.07-1.74,16.65,2.07c2.27,1.52,4.06,4.42,7.15,4.02c25.05,0,50.1-0.03,75.15,0
	c5.08-0.21,10.16,2.74,12.21,7.44c1.83,4.36,2.85,9.02,4.63,13.42c0.95,2.54,2.28,5.04,2.27,7.82c0,38.03,0,76.07,0,114.11
	c0.25,4.71-2.12,9.5-6.22,11.91c-2.93,1.83-6.49,1.85-9.81,2.19c2.81,4.29,5.1,8.88,7.14,13.58c0.79,2.05,3.2,0.5,4.76,0.59
	c6.53-1.27,13.15,0.73,18.86,3.83c11.51,6.09,21.57,14.44,32.53,21.4c5.23,3.46,11.57,4.35,17.28,6.74
	c8.95,3.32,17.52,7.69,26.64,10.57c11.92,2.4,24.25,4.14,35.25,9.61c7.88,4.48,14.38,11.19,19.04,18.93c3.75,1.77,8.22,2.55,10.93,6
	c5.55,6.66,9.48,14.48,13.96,21.86c4.73,7.99,7.94,16.72,10.69,25.55c-1.7-1.77-2.29-4.21-3.23-6.39
	c-2.95-9.09-7.84-17.37-12.7-25.53c-3.53-5.43-6.61-11.36-11.66-15.56c-2.74-2.35-6.5-2.65-9.58-4.34
	c-3.91-7.76-10.48-13.88-17.99-18.09c-11.11-5.61-23.6-7.27-35.64-9.72c-11.94-3.96-23.17-9.93-35.33-13.26
	c-7.95-2.08-14.35-7.47-20.98-12.03c-7.97-5.51-15.92-11.25-24.86-15.1c-4.78-2.19-10.15-2.05-15.23-1.29
	c4.95,10.13,10.93,19.78,17.63,28.84c1.49,2.44,5.42,4.58,3.63,7.84c-1.71-1.44-3.4-2.94-4.79-4.7
	c-7.5-9.48-13.38-20.07-19.48-30.46c-2.75-3.58-4.06-7.93-6.24-11.82c-6.49-11.27-14.79-21.37-21.42-32.54
	c-5.6-11.28-13.06-21.47-20.1-31.88c-6.28-10.48-10.27-22.11-14.85-33.39c-3.21-7.64-4.21-16.12-8.52-23.31
	c-3.03-5.09-4.45-10.89-6.66-16.35c-4.9,11.84-23.13,15.79-31.6,5.64c-3.73-3.25-4.55-8.7-8.36-11.74
	c-0.45,13.24,2.03,26.37,4.67,39.29c4.72,21.31,10.67,42.36,18.18,62.85c3.7,10.43,10.22,19.58,14.2,29.88
	c1.83,7.47,5.6,14.21,8.88,21.1c8.06,16.63,16.92,32.89,24.27,49.84c11.23,32.48,22.49,65.13,28.61,99.03
	c0.72,4.5,1.73,8.98,1.84,13.56c-2.39-2.32-2.15-5.83-2.79-8.84c-3.39-18.18-8.38-36.02-13.63-53.75c-0.6-1.67-0.93-3.53-2.07-4.94
	c-5.15-2.15-10.84-2.44-16.13-4.15c-0.22-0.53-0.67-1.58-0.89-2.11c5.5,0.1,10.67,2.2,16.09,2.9c-1.19-5.76-3.38-11.23-5.26-16.78
	c-2.16-5.92-3.97-11.98-6.46-17.77c-6.02,10.94-12.26,21.99-21.06,30.99c-4.54,4.65-8.44,10.53-8.5,17.26
	c-0.06,8.22,4.49,15.36,8.55,22.16c4,7.31,8.88,14.18,12,21.94c-3.08-1.14-4.12-4.42-5.73-6.97c-4.24-7.66-9.2-14.91-13.42-22.58
	c-3.96-7.16-5.63-16.25-1.92-23.85c2.77-6.19,8.33-10.36,12.31-15.69c5.59-7.35,10.42-15.29,14.53-23.56
	c0.8-1.86,2.18-3.96,1.16-6.01c-10.11-22.88-22.95-44.46-32.7-67.5c-48.02-0.12-96.06,0.04-144.08-0.08
	c-6.19,0.17-12.3-4.58-12.93-10.85c0.01-37,0.02-74,0-110.99c0.08-4.2-0.66-8.64,1.42-12.5c3.09-6.38,2.93-14.62,8.74-19.42
	c4.07-3.6,9.86-2.77,14.86-2.85c32.32,0,64.65,0.06,96.97-0.02C125.66,6.53,127.51,2.35,131.19,1.32 M133.47,3.76
	c-7.01,2.19-11.99,10.87-8.95,17.87c2.31,6.43,5.01,13.22,10.4,17.7c6.21,5.1,15.79,3.17,21.35-1.98c3.79-3.62,3.38-9.54,1.64-14.06
	c-2.63-6.72-6.17-13.56-12.22-17.81C142.21,2.9,137.53,2.66,133.47,3.76 M10.28,15.33c-1.6,2.77-2.31,5.93-3.32,8.93
	c37.45-0.47,74.92,0.09,112.38-0.28c-0.04-1.2,0.03-2.39,0.2-3.57c-2.02-0.49-5.04,0.43-6.11-1.88c-0.95-1.33-0.21-3.08,0.81-4.14
	c2.14-2.29,6.27-0.15,8.03-3.02c-4.73-0.4-9.47-0.18-14.2-0.22C78.38,11.14,48.69,11.17,19,11.13
	C15.62,10.91,12.07,12.37,10.28,15.33 M155.1,11.16c2.9,3.99,4.55,8.73,7.22,12.81c20.57,0.3,41.17,0.03,61.75,0.12
	c6.03,0.09,12.08-0.3,18.09,0.39c-1.12-3.01-1.8-6.2-3.36-9.02c-1.78-2.98-5.26-4.56-8.68-4.36
	C205.12,11.15,180.11,11.04,155.1,11.16 M163.06,26.6c0.18,1.04,0.37,2.08,0.57,3.12c24.48-0.09,48.97,0,73.46-0.05
	c3.06-0.45,6.23,2.27,5.71,5.45c-0.01,38.69,0,77.38-0.01,116.07c0.16,1.77-0.5,3.63-2.22,4.37c-4.05,1.2-8.32,0.67-12.48,0.89
	c0.26,1.34,0.47,2.69,0.66,4.05c4.87,0.18,10.54,1.3,14.62-2.1c2.52-2.72,3.06-6.68,3.11-10.25c-0.06-36.68-0.01-73.36-0.02-110.04
	c0.25-5.39-3.47-11.56-9.38-11.46C212.41,26.54,187.73,26.66,163.06,26.6 M6.08,29.14c-2.61,2.17-3.31,5.71-3.19,8.95
	c0.07,37.7-0.02,75.41,0.05,113.1c-0.11,5.2,4.73,10.13,10.04,9.45c47.98-0.07,95.97,0.09,143.96-0.08
	c-0.48-1.33-0.95-2.65-1.39-3.98c-47.51-0.48-95.05,0.02-142.57-0.24c-2.92,0.18-6.22-1.85-5.68-5.13
	C7.25,114.53,7.32,77.84,7.27,41.16c0.04-2.86-0.22-5.76,0.31-8.58c1.13-1.92,3.17-3.28,5.46-2.99c35.53-0.01,71.06,0.02,106.6-0.02
	c0-0.71,0-2.15,0-2.86c-34.86-0.05-69.72,0.03-104.59-0.04C11.93,26.63,8.42,26.76,6.08,29.14 M10.06,36.11
	c-0.05,34.68,0.01,69.36-0.02,104.04c-0.01,4.25-0.14,8.51,0.33,12.75c2.53,0.47,5.11,0.71,7.69,0.65
	c44.94-0.17,89.88,0.17,134.81-0.17c-2.57-4.77-4.41-10.29-7.95-14.32c-31.6-0.32-63.24-0.08-94.85-0.12
	c-3.39-0.18-7.3,0.67-10.19-1.59c-2.24-1.62-2.52-4.6-2.54-7.14c0.02-23.71,0.02-47.42,0-71.13c0.06-2.31,0.19-4.94,1.94-6.67
	c1.41-1.67,3.79-1.47,5.76-1.66c25.2-0.11,50.4,0.13,75.6-0.11c-0.69-5.95-1.47-11.91-1.53-17.91c-2.34-0.18-4.68-0.3-7.02-0.28
	c-32.65,0.07-65.31-0.05-97.95,0.05C11.95,32.3,9.54,33.59,10.06,36.11 M165.34,32.56c2.04,6.22,3.8,12.69,7.65,18.1
	c10.32,0.27,20.64-0.01,30.97,0.12c2.02,0.13,4.39,0.05,5.88,1.7c1.85,2.06,1.76,5.03,1.86,7.62c-0.06,22.02,0.02,44.05-0.05,66.07
	c-0.02,2.4,0.12,4.9,1.32,7.05c3.54,7.22,8.36,13.73,13.07,20.22c4.61,0.15,9.26,0.4,13.82-0.48c0.15-1.92,0.3-3.85,0.33-5.77
	c-0.02-36.37-0.02-72.74,0-109.1c-0.01-1.77-0.32-3.51-0.6-5.24c-3.83-0.47-7.68-0.44-11.53-0.41
	C207.15,32.55,186.24,32.31,165.34,32.56 M40.69,59.1c0.02,21.68,0.03,43.36,0,65.05c0.05,2.94-0.21,5.92,0.24,8.85
	c0.65,2.7,3.95,2.33,6.08,2.43c32.28-0.13,64.56,0.1,96.83-0.12c-0.67-2.22-1.36-4.44-2.18-6.61c-8.9-24.35-15.25-49.53-20.55-74.87
	c-23.01,0-46.02,0.02-69.04-0.01c-2.95,0.04-5.92-0.21-8.85,0.24C40.81,54.39,40.69,57.19,40.69,59.1 M174.98,53.91
	c1.04,7.77,3.91,15.16,6.76,22.42c4.78,11.84,9.05,24.14,16.74,34.49c3.28,4.38,5.75,9.37,9.61,13.3
	c0.5-20.65,0.03-41.32,0.24-61.98c-0.1-2.46,0.32-5.11-0.9-7.36c-1.9-1.16-4.21-0.92-6.33-0.98
	C192.4,53.9,183.69,53.72,174.98,53.91z"/>
<path class="st1" d="M182.26,330.37C182.89,331,182.89,331,182.26,330.37z"/>
<path class="st1" d="M183.28,332.36C183.91,332.98,183.91,332.98,183.28,332.36z"/>
<path class="st1" d="M184.31,334.33C184.94,334.96,184.94,334.96,184.31,334.33z"/>
<path class="st0" d="M179.49,326.97c1.48,0.72,2.84,1.73,3.55,3.27c5.61,10.19,9.87,21.04,14.59,31.65
	c-3.99-3.77-5.26-9.44-7.72-14.2C186.78,340.61,182.24,334.22,179.49,326.97z"/>
</svg>
