<?xml version="1.0" encoding="utf-8"?>
<!-- Generator: Adobe Illustrator 24.2.1, SVG Export Plug-In . SVG Version: 6.00 Build 0)  -->
<svg version="1.1" id="Layer_1" xmlns="http://www.w3.org/2000/svg" xmlns:xlink="http://www.w3.org/1999/xlink" x="0px" y="0px"
	 viewBox="0 0 1417.3 1417.3" style="enable-background:new 0 0 1417.3 1417.3;" xml:space="preserve">
<style type="text/css">
	.st0{fill:#0066FF;}
	.st1{fill:#010101;}
	.st2{fill:#231F20;}
</style>
<path class="st0" d="M661.8,1272.6c-17.1,0-31,13.9-31,31s13.9,31,31,31h98.5c17.1,0,31-13.9,31-31s-13.9-31-31-31H661.8z"/>
<g>
	<rect x="1417.6" y="966.3" class="st1" width="0" height="0"/>
</g>
<g>
	<rect x="1385.3" y="352.9" class="st1" width="1.8" height="1.6"/>
</g>
<g>
	<path class="st1" d="M707.9,1416.1c-189,0-366.7-73.6-500.4-207.3S0.2,897.5,0.2,708.4S73.8,341.7,207.5,208S518.9,0.8,707.9,0.8
		s366.7,73.6,500.4,207.3s207.3,311.4,207.3,500.4s-73.6,366.7-207.3,500.4S896.9,1416.1,707.9,1416.1z M707.9,26.4
		c-376.1,0-682,305.9-682,682s305.9,682,682,682s682-305.9,682-682S1083.9,26.4,707.9,26.4z"/>
</g>
<g>
	<path class="st1" d="M707.9,163c-27.3,0-49.5-17.6-49.5-39.3s22.2-39.3,49.5-39.3s49.5,17.6,49.5,39.3
		C757.4,145.3,735.2,163,707.9,163z M707.9,87.5c-25.5,0-46.3,16.2-46.3,36.1s20.8,36.1,46.3,36.1s46.3-16.2,46.3-36.1
		S733.4,87.5,707.9,87.5z"/>
</g>
<g>
	<rect x="675.8" y="119.5" class="st1" width="12.3" height="2.4"/>
</g>
<g>
	<polygon class="st1" points="689.3,131.5 675.8,131.5 675.8,129.1 686.9,129.1 686.9,108.9 689.3,108.9 	"/>
</g>
<g>
	<path class="st1" d="M695.2,141.2c-1.3,0-2.4-1.1-2.4-2.4c0-1.3,1.1-2.4,2.4-2.4c4.2,0,7.7-1.5,10-4.3c2.1-2.5,3.3-6,3.3-9.7
		c0-7-4.2-14.6-13.4-14.6c-1.3,0-2.4-1.1-2.4-2.4s1.1-2.4,2.4-2.4c11.9,0,18.2,9.7,18.2,19.4c0,4.9-1.6,9.5-4.5,12.8
		C705.5,139.2,700.8,141.2,695.2,141.2z"/>
</g>
<g>
	<path class="st1" d="M712.2,141.2c-1.3,0-2.4-1.1-2.4-2.4c0-1.3,1.1-2.4,2.4-2.4c4.2,0,7.7-1.5,10-4.3c2.1-2.5,3.3-6,3.3-9.7
		c0-7-4.2-14.6-13.4-14.6c-1.3,0-2.4-1.1-2.4-2.4s1.1-2.4,2.4-2.4c11.9,0,18.2,9.7,18.2,19.4c0,4.9-1.6,9.5-4.5,12.8
		C722.5,139.2,717.8,141.2,712.2,141.2z"/>
</g>
<g>
	<path class="st1" d="M729.8,141.2c-1.3,0-2.4-1.1-2.4-2.4c0-1.3,1.1-2.4,2.4-2.4c4.2,0,7.7-1.5,10-4.3c2.1-2.5,3.3-6,3.3-9.7
		c0-7-4.2-14.6-13.4-14.6c-1.3,0-2.4-1.1-2.4-2.4s1.1-2.4,2.4-2.4c11.9,0,18.2,9.7,18.2,19.4c0,4.9-1.6,9.5-4.5,12.8
		C740.2,139.2,735.4,141.2,729.8,141.2z"/>
</g>
<g>
	<path class="st1" d="M707.9,1416.1c-189,0-366.7-73.6-500.4-207.3S0.2,897.5,0.2,708.4S73.8,341.7,207.5,208S518.9,0.8,707.9,0.8
		s366.7,73.6,500.4,207.3s207.3,311.4,207.3,500.4s-73.6,366.7-207.3,500.4S896.9,1416.1,707.9,1416.1z M707.9,26.4
		c-376.1,0-682,305.9-682,682s305.9,682,682,682s682-305.9,682-682S1083.9,26.4,707.9,26.4z"/>
</g>
<g>
	<path class="st1" d="M760.1,1341.2h-98.5c-20.6,0-37.4-16.8-37.4-37.4s16.8-37.4,37.4-37.4h98.5c20.6,0,37.4,16.8,37.4,37.4
		S780.7,1341.2,760.1,1341.2z M661.6,1272.9c-17.1,0-31,13.9-31,31s13.9,31,31,31h98.5c17.1,0,31-13.9,31-31s-13.9-31-31-31H661.6z"
		/>
</g>
<g>
	<circle class="st1" cx="661.6" cy="1303.8" r="10.2"/>
</g>
<g>
	<path class="st1" d="M707.9,163c-27.3,0-49.5-17.6-49.5-39.3s22.2-39.3,49.5-39.3s49.5,17.6,49.5,39.3
		C757.4,145.3,735.2,163,707.9,163z M707.9,87.5c-25.5,0-46.3,16.2-46.3,36.1s20.8,36.1,46.3,36.1s46.3-16.2,46.3-36.1
		S733.4,87.5,707.9,87.5z"/>
</g>
<g>
	<rect x="675.8" y="119.5" class="st1" width="12.3" height="2.4"/>
</g>
<g>
	<polygon class="st1" points="689.3,131.5 675.8,131.5 675.8,129.1 686.9,129.1 686.9,108.9 689.3,108.9 	"/>
</g>
<g>
	<path class="st1" d="M695.2,141.2c-1.3,0-2.4-1.1-2.4-2.4c0-1.3,1.1-2.4,2.4-2.4c4.2,0,7.7-1.5,10-4.3c2.1-2.5,3.3-6,3.3-9.7
		c0-7-4.2-14.6-13.4-14.6c-1.3,0-2.4-1.1-2.4-2.4s1.1-2.4,2.4-2.4c11.9,0,18.2,9.7,18.2,19.4c0,4.9-1.6,9.5-4.5,12.8
		C705.5,139.2,700.8,141.2,695.2,141.2z"/>
</g>
<g>
	<path class="st1" d="M712.2,141.2c-1.3,0-2.4-1.1-2.4-2.4c0-1.3,1.1-2.4,2.4-2.4c4.2,0,7.7-1.5,10-4.3c2.1-2.5,3.3-6,3.3-9.7
		c0-7-4.2-14.6-13.4-14.6c-1.3,0-2.4-1.1-2.4-2.4s1.1-2.4,2.4-2.4c11.9,0,18.2,9.7,18.2,19.4c0,4.9-1.6,9.5-4.5,12.8
		C722.5,139.2,717.8,141.2,712.2,141.2z"/>
</g>
<g>
	<path class="st1" d="M729.8,141.2c-1.3,0-2.4-1.1-2.4-2.4c0-1.3,1.1-2.4,2.4-2.4c4.2,0,7.7-1.5,10-4.3c2.1-2.5,3.3-6,3.3-9.7
		c0-7-4.2-14.6-13.4-14.6c-1.3,0-2.4-1.1-2.4-2.4s1.1-2.4,2.4-2.4c11.9,0,18.2,9.7,18.2,19.4c0,4.9-1.6,9.5-4.5,12.8
		C740.2,139.2,735.4,141.2,729.8,141.2z"/>
</g>
<g>
	<path class="st1" d="M707.9,1220.6c-282.4,0-512.1-229.7-512.1-512.1s229.7-512.1,512.1-512.1S1220,426,1220,708.4
		S990.3,1220.6,707.9,1220.6z M707.9,209.1c-275.3,0-499.3,224-499.3,499.3s224,499.3,499.3,499.3s499.3-224,499.3-499.3
		S983.2,209.1,707.9,209.1z"/>
</g>
<g>
	<path class="st1" d="M707.9,1088c-209.3,0-379.6-170.3-379.6-379.6s170.3-379.6,379.6-379.6s379.6,170.3,379.6,379.6
		S917.2,1088,707.9,1088z M707.9,354.5C512.7,354.5,354,513.3,354,708.4s158.8,353.9,353.9,353.9s353.9-158.8,353.9-353.9
		S903,354.5,707.9,354.5z"/>
</g>
<g>
	<path class="st1" d="M846.7,695.3H563.6c-0.9,0-1.6-0.7-1.6-1.6s0.7-1.6,1.6-1.6h283.2c0.9,0,1.6,0.7,1.6,1.6
		S847.6,695.3,846.7,695.3z"/>
</g>
<g id="g7_3_">
	<g id="polygon9_3_">
		<polygon class="st1" points="820.6,780.9 831.2,780.9 831.2,743.3 820.6,743.3 		"/>
	</g>
	<g id="polygon11_3_">
		<polygon class="st1" points="846.7,743.3 846.7,780.9 836.2,780.9 836.2,743.3 		"/>
	</g>
	<g id="polygon13_3_">
		<polygon class="st1" points="590.8,757.9 582.3,757.9 582.3,743.3 568.3,743.3 568.3,780.9 582.3,780.9 582.3,762.3 590.8,762.3 
			590.8,780.9 604.8,780.9 604.8,743.3 590.8,743.3 		"/>
	</g>
	<g id="path15_3_">
		<path class="st1" d="M656.6,757.3l-0.9-2.5h-11.5v26.1h11.5v-15.7l0,0c0-3.4,2.2-5.3,4-5.3c1.6,0,3.6,0.3,3.6,3.7l0,0v17.3h11.5
			v-17l0,0C674.8,754.5,664.2,750.8,656.6,757.3L656.6,757.3L656.6,757.3L656.6,757.3z"/>
	</g>
	<g id="path17_3_">
		<path class="st1" d="M774.8,770l-5.4-15.2h-7.9l-5.4,15.8l-5.6-15.8h-11h-0.1H735l-5.5,13.3l-7.8-13.3h-13.1l15.5,26.4l-2,5l0,0
			c-0.7,1.6-2.4,1.6-2.7,0.2c0-2.7-2.2-4.8-4.8-4.8c-2.7,0-4.8,2.2-4.8,4.8c0,2.8,2.8,6.5,8.3,6.2c5.5-0.2,7.9-4.8,8.6-6.8l0,0
			l12.8-30.9l9.2,26h8.4l5.1-15l5.3,15h7.9l8.9-26.1h-4.6L774.8,770L774.8,770L774.8,770z"/>
	</g>
	<g id="path19_3_">
		<path class="st1" d="M624.7,753.5c-8.8,0-15.9,6.5-15.9,14.6s7.1,14.6,15.9,14.6c8.8,0,16-6.5,16-14.6
			C640.6,760,633.5,753.5,624.7,753.5L624.7,753.5L624.7,753.5L624.7,753.5z M628.6,774.9c0,2.2-1.8,4-4,4s-4-1.8-4-4l0,0v-13.7l0,0
			c0-2.2,1.8-4,4-4s4,1.8,4,4l0,0V774.9L628.6,774.9L628.6,774.9z"/>
	</g>
	<g id="path21_3_">
		<path class="st1" d="M710,770.2c0.1-0.6,0.1-1.5,0.1-2.1c0-8.1-7.1-14.6-15.9-14.6c-8.8,0-16,6.5-16,14.6s7.1,14.6,16,14.6
			c6.1,0,11.3-3.1,14-7.7l0,0l-3.5-1.3l0,0c-2.1,3.3-6,5.4-10.5,5.4c-2.2,0-4-2.1-4-4.3l0,0v-4.7L710,770.2L710,770.2L710,770.2z
			 M690.2,761.3c0-2.2,1.8-4,4-4s4,1.8,4,4l0,0v5.2h-7.9L690.2,761.3L690.2,761.3L690.2,761.3z"/>
	</g>
	<g id="path23_3_">
		<path class="st1" d="M816.6,770.2c0.1-0.6,0.1-1.5,0.1-2.1c0-8.1-7.1-14.6-16-14.6c-8.8,0-15.9,6.5-15.9,14.6s7.1,14.6,15.9,14.6
			c6.1,0,11.3-3.1,14-7.7l0,0l-3.5-1.3l0,0c-2.1,3.3-6,5.4-10.5,5.4c-2.2,0-4-2.1-4-4.3l0,0v-4.7L816.6,770.2L816.6,770.2
			L816.6,770.2z M796.8,761.3c0-2.2,1.8-4,4-4s4,1.8,4,4l0,0v5.2h-7.9L796.8,761.3L796.8,761.3L796.8,761.3z"/>
	</g>
</g>
<g>
	<g>
		<path class="st2" d="M669.6,615.2v-46.5l6.8,0.6c7.7,0.6,14,4,20.4,7.4c3,1.6,6,3.2,8.7,4.3c0.8,0.3,1.2,0.4,1.5,0.5
			c0.1,0,0.5-0.1,1.1-0.4h0.1c2.8-1.1,5.9-2.7,8.9-4.3c6.4-3.4,12.8-6.8,20.4-7.4l6.8-0.6v22.1l-12.6,5.9v-13.1
			c-2.9,1.1-5.8,2.7-8.7,4.2c-3.2,1.7-6.3,3.4-10,4.8l0,0c-2.2,0.9-4.1,1.3-6.1,1.3s-3.7-0.5-5.8-1.2H701c-3.7-1.5-6.9-3.2-10.1-4.9
			c-2.9-1.6-5.8-3.1-8.7-4.2v31.7h-12.6V615.2z"/>
	</g>
</g>
<g>
	<g>
		<path class="st2" d="M683.2,628.7c0,3.9,2.5,7.5,6.1,10.3c4.5,3.5,10.6,5.6,16.3,5.6c9.2,0,15.6-1.8,19.6-5.6
			c3.9-3.8,5.9-9.9,6.1-18.6c0.1-2.7,0.1-5.9,0.2-8.9c0-2.5,0-2.4,0-2.5l12.6-6.4l-0.1,9c0,3.2-0.1,6.5-0.2,9.1
			c-0.3,12.2-3.5,21.2-10,27.4s-15.8,9.1-28.3,9.1c-8.4,0-17.4-3.1-24-8.3c-6.5-5.1-10.9-12.1-10.9-20.3h12.6V628.7z"/>
	</g>
</g>
<g>
	<circle class="st1" cx="708.1" cy="316.5" r="8.5"/>
</g>
<g>
	<circle class="st1" cx="708.1" cy="281.2" r="8.5"/>
</g>
<g>
	<circle class="st1" cx="708.1" cy="245.9" r="8.5"/>
</g>
<g>
	<ellipse class="st1" cx="687.4" cy="296.9" rx="8.5" ry="8.5"/>
</g>
<g>
	<ellipse class="st1" cx="685.6" cy="261.7" rx="8.5" ry="8.5"/>
</g>
<g>
	<ellipse class="st1" cx="683.7" cy="226.5" rx="8.5" ry="8.5"/>
</g>
<g>
	<ellipse class="st1" cx="667.1" cy="318.6" rx="8.5" ry="8.5"/>
</g>
<g>
	<ellipse class="st1" cx="663.4" cy="283.5" rx="8.5" ry="8.5"/>
</g>
<g>
	<ellipse class="st1" cx="659.8" cy="248.5" rx="8.5" ry="8.5"/>
</g>
<g>
	<ellipse class="st1" cx="644.5" cy="301.3" rx="8.5" ry="8.5"/>
</g>
<g>
	<ellipse class="st1" cx="639" cy="266.5" rx="8.5" ry="8.5"/>
</g>
<g>
	<ellipse class="st1" cx="633.5" cy="231.7" rx="8.5" ry="8.5"/>
</g>
<g>
	<ellipse class="st1" cx="626.6" cy="325" rx="8.5" ry="8.5"/>
</g>
<g>
	<ellipse class="st1" cx="619.3" cy="290.5" rx="8.5" ry="8.5"/>
</g>
<g>
	<ellipse class="st1" cx="611.9" cy="256" rx="8.5" ry="8.5"/>
</g>
<g>
	<ellipse class="st1" cx="602.3" cy="310.2" rx="8.5" ry="8.5"/>
</g>
<g>
	<ellipse class="st1" cx="593.2" cy="276.1" rx="8.5" ry="8.5"/>
</g>
<g>
	<ellipse class="st1" cx="584" cy="242.1" rx="8.5" ry="8.5"/>
</g>
<g>
	<ellipse class="st1" cx="587" cy="335.6" rx="8.5" ry="8.5"/>
</g>
<g>
	<ellipse class="st1" cx="576.1" cy="302" rx="8.5" ry="8.5"/>
</g>
<g>
	<ellipse class="st1" cx="565.2" cy="268.5" rx="8.5" ry="8.5"/>
</g>
<g>
	<ellipse class="st1" cx="561.2" cy="323.4" rx="8.5" ry="8.5"/>
</g>
<g>
	<ellipse class="st1" cx="548.6" cy="290.5" rx="8.5" ry="8.5"/>
</g>
<g>
	<ellipse class="st1" cx="536" cy="257.6" rx="8.5" ry="8.5"/>
</g>
<g>
	<ellipse class="st1" cx="548.7" cy="350.3" rx="8.5" ry="8.5"/>
</g>
<g>
	<ellipse class="st1" cx="534.2" cy="318" rx="8.5" ry="8.5"/>
</g>
<g>
	<ellipse class="st1" cx="519.9" cy="285.8" rx="8.5" ry="8.5"/>
</g>
<g>
	<ellipse class="st1" cx="521.8" cy="340.8" rx="8.5" ry="8.5"/>
</g>
<g>
	<ellipse class="st1" cx="505.8" cy="309.4" rx="8.5" ry="8.5"/>
</g>
<g>
	<ellipse class="st1" cx="489.8" cy="278" rx="8.5" ry="8.5"/>
</g>
<g>
	<ellipse class="st1" cx="512.1" cy="368.9" rx="8.5" ry="8.5"/>
</g>
<g>
	<ellipse class="st1" cx="494.5" cy="338.3" rx="8.5" ry="8.5"/>
</g>
<g>
	<ellipse class="st1" cx="476.8" cy="307.8" rx="8.5" ry="8.5"/>
</g>
<g>
	<ellipse class="st1" cx="484.4" cy="362.3" rx="8.5" ry="8.5"/>
</g>
<g>
	<ellipse class="st1" cx="465.2" cy="332.7" rx="8.5" ry="8.5"/>
</g>
<g>
	<ellipse class="st1" cx="446" cy="303.2" rx="8.5" ry="8.5"/>
</g>
<g>
	<ellipse class="st1" cx="477.7" cy="391.2" rx="8.5" ry="8.5"/>
</g>
<g>
	<ellipse class="st1" cx="456.9" cy="362.7" rx="8.5" ry="8.5"/>
</g>
<g>
	<ellipse class="st1" cx="436.2" cy="334.1" rx="8.5" ry="8.5"/>
</g>
<g>
	<ellipse class="st1" cx="449.4" cy="387.6" rx="8.5" ry="8.5"/>
</g>
<g>
	<ellipse class="st1" cx="427.3" cy="360.2" rx="8.5" ry="8.5"/>
</g>
<g>
	<ellipse class="st1" cx="405.1" cy="332.8" rx="8.5" ry="8.5"/>
</g>
<g>
	<ellipse class="st1" cx="445.8" cy="417" rx="8.5" ry="8.5"/>
</g>
<g>
	<ellipse class="st1" cx="422.2" cy="390.8" rx="8.5" ry="8.5"/>
</g>
<g>
	<ellipse class="st1" cx="398.6" cy="364.6" rx="8.5" ry="8.5"/>
</g>
<g>
	<ellipse class="st1" cx="417.3" cy="416.3" rx="8.5" ry="8.5"/>
</g>
<g>
	<ellipse class="st1" cx="392.4" cy="391.4" rx="8.5" ry="8.5"/>
</g>
<g>
	<ellipse class="st1" cx="367.5" cy="366.5" rx="8.5" ry="8.5"/>
</g>
<g>
	<ellipse class="st1" cx="416.7" cy="446" rx="8.5" ry="8.5"/>
</g>
<g>
	<ellipse class="st1" cx="390.5" cy="422.4" rx="8.5" ry="8.5"/>
</g>
<g>
	<ellipse class="st1" cx="364.3" cy="398.8" rx="8.5" ry="8.5"/>
</g>
<g>
	<ellipse class="st1" cx="388.4" cy="448.3" rx="8.5" ry="8.5"/>
</g>
<g>
	<ellipse class="st1" cx="360.9" cy="426.1" rx="8.5" ry="8.5"/>
</g>
<g>
	<ellipse class="st1" cx="333.5" cy="403.9" rx="8.5" ry="8.5"/>
</g>
<g>
	<ellipse class="st1" cx="390.9" cy="477.9" rx="8.5" ry="8.5"/>
</g>
<g>
	<ellipse class="st1" cx="362.4" cy="457.1" rx="8.5" ry="8.5"/>
</g>
<g>
	<ellipse class="st1" cx="333.8" cy="436.4" rx="8.5" ry="8.5"/>
</g>
<g>
	<ellipse class="st1" cx="362.9" cy="483.1" rx="8.5" ry="8.5"/>
</g>
<g>
	<ellipse class="st1" cx="333.4" cy="463.9" rx="8.5" ry="8.5"/>
</g>
<g>
	<ellipse class="st1" cx="303.8" cy="444.7" rx="8.5" ry="8.5"/>
</g>
<g>
	<ellipse class="st1" cx="368.5" cy="512.3" rx="8.5" ry="8.5"/>
</g>
<g>
	<ellipse class="st1" cx="338" cy="494.6" rx="8.5" ry="8.5"/>
</g>
<g>
	<ellipse class="st1" cx="307.5" cy="477" rx="8.5" ry="8.5"/>
</g>
<g>
	<ellipse class="st1" cx="341.3" cy="520.4" rx="8.5" ry="8.5"/>
</g>
<g>
	<ellipse transform="matrix(0.454 -0.891 0.891 0.454 -280.2229 551.475)" class="st1" cx="309.9" cy="504.4" rx="8.5" ry="8.5"/>
</g>
<g>
	<ellipse class="st1" cx="278.4" cy="488.5" rx="8.5" ry="8.5"/>
</g>
<g>
	<ellipse class="st1" cx="349.8" cy="548.8" rx="8.5" ry="8.5"/>
</g>
<g>
	<ellipse class="st1" cx="317.7" cy="534.4" rx="8.5" ry="8.5"/>
</g>
<g>
	<ellipse class="st1" cx="285.4" cy="520.1" rx="8.5" ry="8.5"/>
</g>
<g>
	<ellipse class="st1" cx="323.7" cy="559.8" rx="8.5" ry="8.5"/>
</g>
<g>
	<ellipse class="st1" cx="290.7" cy="547.2" rx="8.5" ry="8.5"/>
</g>
<g>
	<ellipse class="st1" cx="257.8" cy="534.5" rx="8.5" ry="8.5"/>
</g>
<g>
	<ellipse class="st1" cx="335.2" cy="587.1" rx="8.5" ry="8.5"/>
</g>
<g>
	<ellipse class="st1" cx="301.6" cy="576.2" rx="8.5" ry="8.5"/>
</g>
<g>
	<ellipse class="st1" cx="268.1" cy="565.3" rx="8.5" ry="8.5"/>
</g>
<g>
	<ellipse class="st1" cx="310.2" cy="600.8" rx="8.5" ry="8.5"/>
</g>
<g>
	<ellipse class="st1" cx="276.1" cy="591.7" rx="8.5" ry="8.5"/>
</g>
<g>
	<ellipse class="st1" cx="242.1" cy="582.5" rx="8.5" ry="8.5"/>
</g>
<g>
	<ellipse class="st1" cx="324.5" cy="626.7" rx="8.5" ry="8.5"/>
</g>
<g>
	<ellipse class="st1" cx="290" cy="619.4" rx="8.5" ry="8.5"/>
</g>
<g>
	<ellipse class="st1" cx="255.5" cy="612.1" rx="8.5" ry="8.5"/>
</g>
<g>
	<ellipse class="st1" cx="301.1" cy="642.9" rx="8.5" ry="8.5"/>
</g>
<g>
	<ellipse class="st1" cx="266.3" cy="637.4" rx="8.5" ry="8.5"/>
</g>
<g>
	<ellipse class="st1" cx="231.5" cy="631.8" rx="8.5" ry="8.5"/>
</g>
<g>
	<ellipse class="st1" cx="318" cy="667.2" rx="8.5" ry="8.5"/>
</g>
<g>
	<ellipse class="st1" cx="283" cy="663.6" rx="8.5" ry="8.5"/>
</g>
<g>
	<ellipse class="st1" cx="247.9" cy="659.9" rx="8.5" ry="8.5"/>
</g>
<g>
	<ellipse class="st1" cx="296.5" cy="685.8" rx="8.5" ry="8.5"/>
</g>
<g>
	<ellipse class="st1" cx="261.3" cy="683.9" rx="8.5" ry="8.5"/>
</g>
<g>
	<ellipse class="st1" cx="226.1" cy="682.1" rx="8.5" ry="8.5"/>
</g>
<g>
	<circle class="st1" cx="315.9" cy="708.2" r="8.5"/>
</g>
<g>
	<circle class="st1" cx="280.6" cy="708.2" r="8.5"/>
</g>
<g>
	<circle class="st1" cx="245.4" cy="708.2" r="8.5"/>
</g>
<g>
	<ellipse class="st1" cx="296.4" cy="728.9" rx="8.5" ry="8.5"/>
</g>
<g>
	<ellipse class="st1" cx="261.2" cy="730.8" rx="8.5" ry="8.5"/>
</g>
<g>
	<ellipse class="st1" cx="226" cy="732.6" rx="8.5" ry="8.5"/>
</g>
<g>
	<ellipse class="st1" cx="318" cy="749.2" rx="8.5" ry="8.5"/>
</g>
<g>
	<ellipse class="st1" cx="283" cy="752.9" rx="8.5" ry="8.5"/>
</g>
<g>
	<ellipse class="st1" cx="247.9" cy="756.6" rx="8.5" ry="8.5"/>
</g>
<g>
	<ellipse class="st1" cx="300.8" cy="771.8" rx="8.5" ry="8.5"/>
</g>
<g>
	<ellipse class="st1" cx="266" cy="777.3" rx="8.5" ry="8.5"/>
</g>
<g>
	<ellipse class="st1" cx="231.1" cy="782.9" rx="8.5" ry="8.5"/>
</g>
<g>
	<ellipse class="st1" cx="324.4" cy="789.7" rx="8.5" ry="8.5"/>
</g>
<g>
	<ellipse class="st1" cx="289.9" cy="797" rx="8.5" ry="8.5"/>
</g>
<g>
	<ellipse class="st1" cx="255.4" cy="804.4" rx="8.5" ry="8.5"/>
</g>
<g>
	<ellipse class="st1" cx="309.6" cy="814" rx="8.5" ry="8.5"/>
</g>
<g>
	<ellipse class="st1" cx="275.6" cy="823.2" rx="8.5" ry="8.5"/>
</g>
<g>
	<ellipse class="st1" cx="241.5" cy="832.3" rx="8.5" ry="8.5"/>
</g>
<g>
	<ellipse class="st1" cx="335" cy="829.4" rx="8.5" ry="8.5"/>
</g>
<g>
	<ellipse class="st1" cx="301.5" cy="840.3" rx="8.5" ry="8.5"/>
</g>
<g>
	<ellipse class="st1" cx="267.9" cy="851.2" rx="8.5" ry="8.5"/>
</g>
<g>
	<ellipse class="st1" cx="322.9" cy="855.1" rx="8.5" ry="8.5"/>
</g>
<g>
	<ellipse class="st1" cx="289.9" cy="867.7" rx="8.5" ry="8.5"/>
</g>
<g>
	<ellipse class="st1" cx="257" cy="880.3" rx="8.5" ry="8.5"/>
</g>
<g>
	<ellipse class="st1" cx="349.7" cy="867.7" rx="8.5" ry="8.5"/>
</g>
<g>
	<ellipse class="st1" cx="317.4" cy="882" rx="8.5" ry="8.5"/>
</g>
<g>
	<ellipse class="st1" cx="285.3" cy="896.4" rx="8.5" ry="8.5"/>
</g>
<g>
	<ellipse class="st1" cx="340.3" cy="894.5" rx="8.5" ry="8.5"/>
</g>
<g>
	<ellipse class="st1" cx="308.9" cy="910.5" rx="8.5" ry="8.5"/>
</g>
<g>
	<ellipse class="st1" cx="277.5" cy="926.5" rx="8.5" ry="8.5"/>
</g>
<g>
	<ellipse class="st1" cx="368.3" cy="904.2" rx="8.5" ry="8.5"/>
</g>
<g>
	<ellipse class="st1" cx="337.8" cy="921.9" rx="8.5" ry="8.5"/>
</g>
<g>
	<ellipse class="st1" cx="307.2" cy="939.5" rx="8.5" ry="8.5"/>
</g>
<g>
	<ellipse class="st1" cx="361.8" cy="931.9" rx="8.5" ry="8.5"/>
</g>
<g>
	<ellipse class="st1" cx="332.2" cy="951.1" rx="8.5" ry="8.5"/>
</g>
<g>
	<ellipse class="st1" cx="302.6" cy="970.4" rx="8.5" ry="8.5"/>
</g>
<g>
	<ellipse class="st1" cx="390.6" cy="938.7" rx="8.5" ry="8.5"/>
</g>
<g>
	<ellipse class="st1" cx="362.1" cy="959.4" rx="8.5" ry="8.5"/>
</g>
<g>
	<ellipse class="st1" cx="333.6" cy="980.1" rx="8.5" ry="8.5"/>
</g>
<g>
	<ellipse class="st1" cx="387" cy="966.9" rx="8.5" ry="8.5"/>
</g>
<g>
	<ellipse class="st1" cx="359.6" cy="989.1" rx="8.5" ry="8.5"/>
</g>
<g>
	<ellipse class="st1" cx="332.2" cy="1011.3" rx="8.5" ry="8.5"/>
</g>
<g>
	<ellipse class="st1" cx="416.4" cy="970.6" rx="8.5" ry="8.5"/>
</g>
<g>
	<ellipse class="st1" cx="390.2" cy="994.2" rx="8.5" ry="8.5"/>
</g>
<g>
	
		<ellipse transform="matrix(0.7431 -0.6691 0.6691 0.7431 -587.4971 504.9216)" class="st1" cx="363.9" cy="1017.7" rx="8.5" ry="8.5"/>
</g>
<g>
	<ellipse class="st1" cx="415.8" cy="999" rx="8.5" ry="8.5"/>
</g>
<g>
	<ellipse class="st1" cx="390.8" cy="1023.9" rx="8.5" ry="8.5"/>
</g>
<g>
	<ellipse class="st1" cx="365.9" cy="1048.9" rx="8.5" ry="8.5"/>
</g>
<g>
	<ellipse class="st1" cx="445.4" cy="999.6" rx="8.5" ry="8.5"/>
</g>
<g>
	<ellipse class="st1" cx="421.8" cy="1025.8" rx="8.5" ry="8.5"/>
</g>
<g>
	<ellipse class="st1" cx="398.2" cy="1052" rx="8.5" ry="8.5"/>
</g>
<g>
	<ellipse class="st1" cx="447.7" cy="1027.9" rx="8.5" ry="8.5"/>
</g>
<g>
	<ellipse class="st1" cx="425.5" cy="1055.3" rx="8.5" ry="8.5"/>
</g>
<g>
	<ellipse class="st1" cx="403.3" cy="1082.7" rx="8.5" ry="8.5"/>
</g>
<g>
	<ellipse class="st1" cx="477.3" cy="1025.4" rx="8.5" ry="8.5"/>
</g>
<g>
	<ellipse class="st1" cx="456.6" cy="1054" rx="8.5" ry="8.5"/>
</g>
<g>
	<ellipse class="st1" cx="435.8" cy="1082.6" rx="8.5" ry="8.5"/>
</g>
<g>
	<ellipse class="st1" cx="482.6" cy="1053.3" rx="8.5" ry="8.5"/>
</g>
<g>
	<ellipse class="st1" cx="463.4" cy="1082.9" rx="8.5" ry="8.5"/>
</g>
<g>
	<ellipse class="st1" cx="444.2" cy="1112.4" rx="8.5" ry="8.5"/>
</g>
<g>
	<ellipse class="st1" cx="511.7" cy="1047.8" rx="8.5" ry="8.5"/>
</g>
<g>
	<ellipse class="st1" cx="494" cy="1078.3" rx="8.5" ry="8.5"/>
</g>
<g>
	<ellipse class="st1" cx="476.4" cy="1108.9" rx="8.5" ry="8.5"/>
</g>
<g>
	<ellipse class="st1" cx="519.8" cy="1075" rx="8.5" ry="8.5"/>
</g>
<g>
	
		<ellipse transform="matrix(0.5909 -0.8068 0.8068 0.5909 -686.4933 859.2354)" class="st1" cx="503.9" cy="1106.5" rx="8.5" ry="8.5"/>
</g>
<g>
	<ellipse class="st1" cx="487.9" cy="1137.9" rx="8.5" ry="8.5"/>
</g>
<g>
	<ellipse class="st1" cx="548.1" cy="1066.4" rx="8.5" ry="8.5"/>
</g>
<g>
	<ellipse class="st1" cx="533.9" cy="1098.7" rx="8.5" ry="8.5"/>
</g>
<g>
	<ellipse class="st1" cx="519.5" cy="1130.8" rx="8.5" ry="8.5"/>
</g>
<g>
	<ellipse class="st1" cx="559.3" cy="1092.7" rx="8.5" ry="8.5"/>
</g>
<g>
	<ellipse class="st1" cx="546.6" cy="1125.6" rx="8.5" ry="8.5"/>
</g>
<g>
	<ellipse class="st1" cx="533.9" cy="1158.6" rx="8.5" ry="8.5"/>
</g>
<g>
	<ellipse class="st1" cx="586.6" cy="1081.2" rx="8.5" ry="8.5"/>
</g>
<g>
	<ellipse class="st1" cx="575.7" cy="1114.7" rx="8.5" ry="8.5"/>
</g>
<g>
	<ellipse class="st1" cx="564.7" cy="1148.2" rx="8.5" ry="8.5"/>
</g>
<g>
	<ellipse class="st1" cx="600.1" cy="1106.1" rx="8.5" ry="8.5"/>
</g>
<g>
	<ellipse class="st1" cx="591.1" cy="1140.2" rx="8.5" ry="8.5"/>
</g>
<g>
	<ellipse class="st1" cx="581.9" cy="1174.3" rx="8.5" ry="8.5"/>
</g>
<g>
	<ellipse class="st1" cx="626.1" cy="1091.8" rx="8.5" ry="8.5"/>
</g>
<g>
	<ellipse class="st1" cx="618.8" cy="1126.3" rx="8.5" ry="8.5"/>
</g>
<g>
	<ellipse class="st1" cx="611.4" cy="1160.8" rx="8.5" ry="8.5"/>
</g>
<g>
	<ellipse class="st1" cx="642.3" cy="1115.1" rx="8.5" ry="8.5"/>
</g>
<g>
	<ellipse class="st1" cx="636.8" cy="1150" rx="8.5" ry="8.5"/>
</g>
<g>
	<ellipse class="st1" cx="631.4" cy="1184.8" rx="8.5" ry="8.5"/>
</g>
<g>
	<ellipse class="st1" cx="666.7" cy="1098.2" rx="8.5" ry="8.5"/>
</g>
<g>
	<ellipse class="st1" cx="662.9" cy="1133.3" rx="8.5" ry="8.5"/>
</g>
<g>
	<ellipse class="st1" cx="659.3" cy="1168.4" rx="8.5" ry="8.5"/>
</g>
<g>
	<ellipse class="st1" cx="685.2" cy="1119.9" rx="8.5" ry="8.5"/>
</g>
<g>
	<ellipse class="st1" cx="683.3" cy="1155" rx="8.5" ry="8.5"/>
</g>
<g>
	<ellipse class="st1" cx="681.5" cy="1190.3" rx="8.5" ry="8.5"/>
</g>
<g>
	<circle class="st1" cx="707.7" cy="1100.4" r="8.5"/>
</g>
<g>
	<circle class="st1" cx="707.7" cy="1135.7" r="8.5"/>
</g>
<g>
	<circle class="st1" cx="707.7" cy="1170.9" r="8.5"/>
</g>
<g>
	<ellipse class="st1" cx="728.4" cy="1119.9" rx="8.5" ry="8.5"/>
</g>
<g>
	<ellipse class="st1" cx="730.2" cy="1155.1" rx="8.5" ry="8.5"/>
</g>
<g>
	<ellipse class="st1" cx="732.1" cy="1190.4" rx="8.5" ry="8.5"/>
</g>
<g>
	<ellipse class="st1" cx="748.6" cy="1098.3" rx="8.5" ry="8.5"/>
</g>
<g>
	<ellipse class="st1" cx="752.3" cy="1133.4" rx="8.5" ry="8.5"/>
</g>
<g>
	<ellipse class="st1" cx="755.9" cy="1168.4" rx="8.5" ry="8.5"/>
</g>
<g>
	<ellipse class="st1" cx="771.3" cy="1115.5" rx="8.5" ry="8.5"/>
</g>
<g>
	<ellipse class="st1" cx="776.8" cy="1150.4" rx="8.5" ry="8.5"/>
</g>
<g>
	<ellipse class="st1" cx="782.3" cy="1185.2" rx="8.5" ry="8.5"/>
</g>
<g>
	<ellipse class="st1" cx="789.1" cy="1091.8" rx="8.5" ry="8.5"/>
</g>
<g>
	<ellipse class="st1" cx="796.4" cy="1126.4" rx="8.5" ry="8.5"/>
</g>
<g>
	<ellipse class="st1" cx="803.8" cy="1160.9" rx="8.5" ry="8.5"/>
</g>
<g>
	<ellipse class="st1" cx="813.5" cy="1106.7" rx="8.5" ry="8.5"/>
</g>
<g>
	<ellipse class="st1" cx="822.5" cy="1140.7" rx="8.5" ry="8.5"/>
</g>
<g>
	<ellipse class="st1" cx="831.7" cy="1174.8" rx="8.5" ry="8.5"/>
</g>
<g>
	<ellipse class="st1" cx="828.8" cy="1081.4" rx="8.5" ry="8.5"/>
</g>
<g>
	<ellipse class="st1" cx="839.7" cy="1114.9" rx="8.5" ry="8.5"/>
</g>
<g>
	<ellipse class="st1" cx="850.6" cy="1148.5" rx="8.5" ry="8.5"/>
</g>
<g>
	<ellipse class="st1" cx="854.6" cy="1093.5" rx="8.5" ry="8.5"/>
</g>
<g>
	<ellipse class="st1" cx="867.3" cy="1126.4" rx="8.5" ry="8.5"/>
</g>
<g>
	<ellipse class="st1" cx="879.9" cy="1159.3" rx="8.5" ry="8.5"/>
</g>
<g>
	<ellipse class="st1" cx="867" cy="1066.6" rx="8.5" ry="8.5"/>
</g>
<g>
	<ellipse class="st1" cx="881.3" cy="1098.8" rx="8.5" ry="8.5"/>
</g>
<g>
	<ellipse class="st1" cx="895.7" cy="1131" rx="8.5" ry="8.5"/>
</g>
<g>
	<ellipse class="st1" cx="894" cy="1076" rx="8.5" ry="8.5"/>
</g>
<g>
	<ellipse class="st1" cx="910" cy="1107.4" rx="8.5" ry="8.5"/>
</g>
<g>
	<ellipse class="st1" cx="926" cy="1138.9" rx="8.5" ry="8.5"/>
</g>
<g>
	<ellipse class="st1" cx="903.7" cy="1048" rx="8.5" ry="8.5"/>
</g>
<g>
	<ellipse class="st1" cx="921.3" cy="1078.6" rx="8.5" ry="8.5"/>
</g>
<g>
	<ellipse class="st1" cx="938.9" cy="1109.1" rx="8.5" ry="8.5"/>
</g>
<g>
	<ellipse class="st1" cx="931.4" cy="1054.6" rx="8.5" ry="8.5"/>
</g>
<g>
	<ellipse class="st1" cx="950.6" cy="1084.2" rx="8.5" ry="8.5"/>
</g>
<g>
	<ellipse class="st1" cx="969.8" cy="1113.8" rx="8.5" ry="8.5"/>
</g>
<g>
	<ellipse class="st1" cx="938.1" cy="1025.7" rx="8.5" ry="8.5"/>
</g>
<g>
	<ellipse class="st1" cx="958.8" cy="1054.2" rx="8.5" ry="8.5"/>
</g>
<g>
	<ellipse class="st1" cx="979.5" cy="1082.7" rx="8.5" ry="8.5"/>
</g>
<g>
	<ellipse class="st1" cx="966.2" cy="1029.3" rx="8.5" ry="8.5"/>
</g>
<g>
	<ellipse class="st1" cx="988.4" cy="1056.7" rx="8.5" ry="8.5"/>
</g>
<g>
	<ellipse class="st1" cx="1010.6" cy="1084.1" rx="8.5" ry="8.5"/>
</g>
<g>
	<ellipse class="st1" cx="969.9" cy="999.9" rx="8.5" ry="8.5"/>
</g>
<g>
	<ellipse class="st1" cx="993.5" cy="1026.1" rx="8.5" ry="8.5"/>
</g>
<g>
	
		<ellipse transform="matrix(0.8407 -0.5415 0.5415 0.8407 -407.7631 718.325)" class="st1" cx="1017.1" cy="1052.3" rx="8.5" ry="8.5"/>
</g>
<g>
	<ellipse class="st1" cx="998.4" cy="1000.5" rx="8.5" ry="8.5"/>
</g>
<g>
	<ellipse class="st1" cx="1023.4" cy="1025.5" rx="8.5" ry="8.5"/>
</g>
<g>
	<ellipse class="st1" cx="1048.3" cy="1050.4" rx="8.5" ry="8.5"/>
</g>
<g>
	<ellipse class="st1" cx="998.9" cy="970.9" rx="8.5" ry="8.5"/>
</g>
<g>
	<ellipse class="st1" cx="1025.1" cy="994.5" rx="8.5" ry="8.5"/>
</g>
<g>
	<ellipse class="st1" cx="1051.3" cy="1018.1" rx="8.5" ry="8.5"/>
</g>
<g>
	<ellipse class="st1" cx="1027.4" cy="968.6" rx="8.5" ry="8.5"/>
</g>
<g>
	<ellipse class="st1" cx="1054.8" cy="990.8" rx="8.5" ry="8.5"/>
</g>
<g>
	<ellipse class="st1" cx="1082.1" cy="1012.9" rx="8.5" ry="8.5"/>
</g>
<g>
	<ellipse class="st1" cx="1024.9" cy="939" rx="8.5" ry="8.5"/>
</g>
<g>
	<ellipse class="st1" cx="1053.4" cy="959.8" rx="8.5" ry="8.5"/>
</g>
<g>
	<ellipse class="st1" cx="1081.9" cy="980.5" rx="8.5" ry="8.5"/>
</g>
<g>
	<ellipse class="st1" cx="1052.8" cy="933.7" rx="8.5" ry="8.5"/>
</g>
<g>
	<ellipse class="st1" cx="1082.3" cy="952.8" rx="8.5" ry="8.5"/>
</g>
<g>
	<ellipse class="st1" cx="1112" cy="972.1" rx="8.5" ry="8.5"/>
</g>
<g>
	<ellipse class="st1" cx="1047.2" cy="904.7" rx="8.5" ry="8.5"/>
</g>
<g>
	<ellipse class="st1" cx="1077.8" cy="922.3" rx="8.5" ry="8.5"/>
</g>
<g>
	<ellipse class="st1" cx="1108.3" cy="939.9" rx="8.5" ry="8.5"/>
</g>
<g>
	<ellipse class="st1" cx="1074.5" cy="896.5" rx="8.5" ry="8.5"/>
</g>
<g>
	<ellipse class="st1" cx="1105.9" cy="912.5" rx="8.5" ry="8.5"/>
</g>
<g>
	<ellipse class="st1" cx="1137.3" cy="928.5" rx="8.5" ry="8.5"/>
</g>
<g>
	<ellipse class="st1" cx="1065.8" cy="868.1" rx="8.5" ry="8.5"/>
</g>
<g>
	<ellipse class="st1" cx="1098" cy="882.4" rx="8.5" ry="8.5"/>
</g>
<g>
	<ellipse class="st1" cx="1130.3" cy="896.8" rx="8.5" ry="8.5"/>
</g>
<g>
	<ellipse class="st1" cx="1092.2" cy="857.1" rx="8.5" ry="8.5"/>
</g>
<g>
	<ellipse class="st1" cx="1125" cy="869.8" rx="8.5" ry="8.5"/>
</g>
<g>
	<ellipse class="st1" cx="1158.1" cy="882.4" rx="8.5" ry="8.5"/>
</g>
<g>
	<ellipse class="st1" cx="1080.6" cy="829.7" rx="8.5" ry="8.5"/>
</g>
<g>
	<ellipse class="st1" cx="1114.2" cy="840.7" rx="8.5" ry="8.5"/>
</g>
<g>
	<ellipse class="st1" cx="1147.7" cy="851.5" rx="8.5" ry="8.5"/>
</g>
<g>
	<ellipse class="st1" cx="1105.5" cy="816.1" rx="8.5" ry="8.5"/>
</g>
<g>
	<ellipse class="st1" cx="1139.5" cy="825.3" rx="8.5" ry="8.5"/>
</g>
<g>
	<ellipse class="st1" cx="1173.7" cy="834.4" rx="8.5" ry="8.5"/>
</g>
<g>
	<ellipse class="st1" cx="1091.3" cy="790.2" rx="8.5" ry="8.5"/>
</g>
<g>
	<ellipse class="st1" cx="1125.7" cy="797.6" rx="8.5" ry="8.5"/>
</g>
<g>
	<ellipse class="st1" cx="1160.1" cy="804.9" rx="8.5" ry="8.5"/>
</g>
<g>
	<ellipse class="st1" cx="1114.6" cy="774" rx="8.5" ry="8.5"/>
</g>
<g>
	<ellipse class="st1" cx="1149.5" cy="779.4" rx="8.5" ry="8.5"/>
</g>
<g>
	<ellipse class="st1" cx="1184.3" cy="784.9" rx="8.5" ry="8.5"/>
</g>
<g>
	<ellipse class="st1" cx="1097.6" cy="749.6" rx="8.5" ry="8.5"/>
</g>
<g>
	<ellipse class="st1" cx="1132.7" cy="753.3" rx="8.5" ry="8.5"/>
</g>
<g>
	<ellipse class="st1" cx="1167.8" cy="757" rx="8.5" ry="8.5"/>
</g>
<g>
	<ellipse class="st1" cx="1119.3" cy="731.1" rx="8.5" ry="8.5"/>
</g>
<g>
	<ellipse class="st1" cx="1154.4" cy="732.9" rx="8.5" ry="8.5"/>
</g>
<g>
	<ellipse class="st1" cx="1189.7" cy="734.8" rx="8.5" ry="8.5"/>
</g>
<g>
	<circle class="st1" cx="1099.9" cy="708.7" r="8.5"/>
</g>
<g>
	<circle class="st1" cx="1135.1" cy="708.7" r="8.5"/>
</g>
<g>
	<circle class="st1" cx="1170.4" cy="708.7" r="8.5"/>
</g>
<g>
	<ellipse class="st1" cx="1119.4" cy="688" rx="8.5" ry="8.5"/>
</g>
<g>
	<ellipse class="st1" cx="1154.6" cy="686.1" rx="8.5" ry="8.5"/>
</g>
<g>
	<ellipse class="st1" cx="1189.8" cy="684.3" rx="8.5" ry="8.5"/>
</g>
<g>
	<ellipse class="st1" cx="1097.7" cy="667.7" rx="8.5" ry="8.5"/>
</g>
<g>
	<ellipse class="st1" cx="1132.8" cy="664" rx="8.5" ry="8.5"/>
</g>
<g>
	<ellipse class="st1" cx="1167.9" cy="660.3" rx="8.5" ry="8.5"/>
</g>
<g>
	<ellipse class="st1" cx="1115" cy="645.1" rx="8.5" ry="8.5"/>
</g>
<g>
	<ellipse class="st1" cx="1149.8" cy="639.5" rx="8.5" ry="8.5"/>
</g>
<g>
	<ellipse class="st1" cx="1184.6" cy="634.1" rx="8.5" ry="8.5"/>
</g>
<g>
	<ellipse class="st1" cx="1091.2" cy="627.2" rx="8.5" ry="8.5"/>
</g>
<g>
	<ellipse class="st1" cx="1125.7" cy="619.8" rx="8.5" ry="8.5"/>
</g>
<g>
	<ellipse class="st1" cx="1160.2" cy="612.5" rx="8.5" ry="8.5"/>
</g>
<g>
	<ellipse class="st1" cx="1106.1" cy="602.9" rx="8.5" ry="8.5"/>
</g>
<g>
	<ellipse class="st1" cx="1140.2" cy="593.7" rx="8.5" ry="8.5"/>
</g>
<g>
	<ellipse class="st1" cx="1174.2" cy="584.6" rx="8.5" ry="8.5"/>
</g>
<g>
	<ellipse class="st1" cx="1080.8" cy="587.5" rx="8.5" ry="8.5"/>
</g>
<g>
	<ellipse class="st1" cx="1114.3" cy="576.6" rx="8.5" ry="8.5"/>
</g>
<g>
	<ellipse class="st1" cx="1147.8" cy="565.8" rx="8.5" ry="8.5"/>
</g>
<g>
	<ellipse class="st1" cx="1092.9" cy="561.8" rx="8.5" ry="8.5"/>
</g>
<g>
	<ellipse class="st1" cx="1125.9" cy="549.2" rx="8.5" ry="8.5"/>
</g>
<g>
	<ellipse class="st1" cx="1158.7" cy="536.5" rx="8.5" ry="8.5"/>
</g>
<g>
	<ellipse class="st1" cx="1066" cy="549.2" rx="8.5" ry="8.5"/>
</g>
<g>
	<ellipse class="st1" cx="1098.2" cy="534.9" rx="8.5" ry="8.5"/>
</g>
<g>
	<ellipse class="st1" cx="1130.4" cy="520.5" rx="8.5" ry="8.5"/>
</g>
<g>
	<ellipse class="st1" cx="1075.5" cy="522.4" rx="8.5" ry="8.5"/>
</g>
<g>
	<ellipse transform="matrix(0.891 -0.454 0.454 0.891 -109.2423 557.7352)" class="st1" cx="1106.9" cy="506.4" rx="8.5" ry="8.5"/>
</g>
<g>
	<ellipse class="st1" cx="1138.3" cy="490.3" rx="8.5" ry="8.5"/>
</g>
<g>
	<ellipse class="st1" cx="1047.4" cy="512.6" rx="8.5" ry="8.5"/>
</g>
<g>
	<ellipse class="st1" cx="1078" cy="495" rx="8.5" ry="8.5"/>
</g>
<g>
	<ellipse class="st1" cx="1108.5" cy="477.4" rx="8.5" ry="8.5"/>
</g>
<g>
	<ellipse class="st1" cx="1054" cy="485.1" rx="8.5" ry="8.5"/>
</g>
<g>
	<ellipse class="st1" cx="1083.6" cy="465.8" rx="8.5" ry="8.5"/>
</g>
<g>
	<ellipse class="st1" cx="1113.1" cy="446.7" rx="8.5" ry="8.5"/>
</g>
<g>
	<ellipse class="st1" cx="1025.1" cy="478.2" rx="8.5" ry="8.5"/>
</g>
<g>
	<ellipse class="st1" cx="1053.7" cy="457.5" rx="8.5" ry="8.5"/>
</g>
<g>
	<ellipse class="st1" cx="1082.2" cy="436.8" rx="8.5" ry="8.5"/>
</g>
<g>
	<ellipse class="st1" cx="1028.7" cy="450" rx="8.5" ry="8.5"/>
</g>
<g>
	<ellipse class="st1" cx="1056.1" cy="427.8" rx="8.5" ry="8.5"/>
</g>
<g>
	<ellipse class="st1" cx="1083.5" cy="405.6" rx="8.5" ry="8.5"/>
</g>
<g>
	<ellipse class="st1" cx="999.2" cy="446.3" rx="8.5" ry="8.5"/>
</g>
<g>
	<ellipse class="st1" cx="1025.4" cy="422.7" rx="8.5" ry="8.5"/>
</g>
<g>
	<ellipse class="st1" cx="1051.6" cy="399.1" rx="8.5" ry="8.5"/>
</g>
<g>
	<ellipse class="st1" cx="1000" cy="417.9" rx="8.5" ry="8.5"/>
</g>
<g>
	<ellipse class="st1" cx="1024.9" cy="392.9" rx="8.5" ry="8.5"/>
</g>
<g>
	<ellipse class="st1" cx="1049.8" cy="368" rx="8.5" ry="8.5"/>
</g>
<g>
	<ellipse class="st1" cx="970.3" cy="417.4" rx="8.5" ry="8.5"/>
</g>
<g>
	<ellipse class="st1" cx="993.9" cy="391.2" rx="8.5" ry="8.5"/>
</g>
<g>
	<ellipse class="st1" cx="1017.5" cy="364.9" rx="8.5" ry="8.5"/>
</g>
<g>
	<ellipse class="st1" cx="967.9" cy="389" rx="8.5" ry="8.5"/>
</g>
<g>
	<ellipse class="st1" cx="990.1" cy="361.5" rx="8.5" ry="8.5"/>
</g>
<g>
	<ellipse class="st1" cx="1012.3" cy="334.1" rx="8.5" ry="8.5"/>
</g>
<g>
	<ellipse class="st1" cx="938.5" cy="391.5" rx="8.5" ry="8.5"/>
</g>
<g>
	<ellipse class="st1" cx="959.2" cy="362.9" rx="8.5" ry="8.5"/>
</g>
<g>
	<ellipse class="st1" cx="979.9" cy="334.4" rx="8.5" ry="8.5"/>
</g>
<g>
	<ellipse class="st1" cx="933.2" cy="363.4" rx="8.5" ry="8.5"/>
</g>
<g>
	<ellipse class="st1" cx="952.3" cy="333.9" rx="8.5" ry="8.5"/>
</g>
<g>
	<ellipse class="st1" cx="971.6" cy="304.3" rx="8.5" ry="8.5"/>
</g>
<g>
	<ellipse class="st1" cx="904.1" cy="369.1" rx="8.5" ry="8.5"/>
</g>
<g>
	<ellipse class="st1" cx="921.7" cy="338.6" rx="8.5" ry="8.5"/>
</g>
<g>
	<ellipse class="st1" cx="939.3" cy="308.1" rx="8.5" ry="8.5"/>
</g>
<g>
	<ellipse class="st1" cx="895.9" cy="341.8" rx="8.5" ry="8.5"/>
</g>
<g>
	<ellipse class="st1" cx="911.9" cy="310.4" rx="8.5" ry="8.5"/>
</g>
<g>
	<ellipse class="st1" cx="927.9" cy="279" rx="8.5" ry="8.5"/>
</g>
<g>
	<ellipse class="st1" cx="867.4" cy="350.5" rx="8.5" ry="8.5"/>
</g>
<g>
	<ellipse class="st1" cx="881.8" cy="318.2" rx="8.5" ry="8.5"/>
</g>
<g>
	<ellipse class="st1" cx="896.1" cy="286" rx="8.5" ry="8.5"/>
</g>
<g>
	<ellipse class="st1" cx="856.6" cy="324.2" rx="8.5" ry="8.5"/>
</g>
<g>
	<ellipse class="st1" cx="869.2" cy="291.3" rx="8.5" ry="8.5"/>
</g>
<g>
	<ellipse class="st1" cx="881.9" cy="258.4" rx="8.5" ry="8.5"/>
</g>
<g>
	<ellipse class="st1" cx="829.2" cy="335.7" rx="8.5" ry="8.5"/>
</g>
<g>
	<ellipse class="st1" cx="840.1" cy="302.2" rx="8.5" ry="8.5"/>
</g>
<g>
	<ellipse class="st1" cx="851" cy="268.6" rx="8.5" ry="8.5"/>
</g>
<g>
	<ellipse class="st1" cx="815.6" cy="310.7" rx="8.5" ry="8.5"/>
</g>
<g>
	<ellipse class="st1" cx="824.7" cy="276.7" rx="8.5" ry="8.5"/>
</g>
<g>
	<ellipse class="st1" cx="833.7" cy="242.7" rx="8.5" ry="8.5"/>
</g>
<g>
	<ellipse class="st1" cx="789.6" cy="325.1" rx="8.5" ry="8.5"/>
</g>
<g>
	<ellipse class="st1" cx="796.9" cy="290.6" rx="8.5" ry="8.5"/>
</g>
<g>
	<ellipse class="st1" cx="804.3" cy="256.1" rx="8.5" ry="8.5"/>
</g>
<g>
	<ellipse class="st1" cx="773.4" cy="301.7" rx="8.5" ry="8.5"/>
</g>
<g>
	<ellipse class="st1" cx="778.9" cy="266.9" rx="8.5" ry="8.5"/>
</g>
<g>
	<ellipse class="st1" cx="784.4" cy="232" rx="8.5" ry="8.5"/>
</g>
<g>
	<ellipse class="st1" cx="749" cy="318.6" rx="8.5" ry="8.5"/>
</g>
<g>
	<ellipse class="st1" cx="752.8" cy="283.5" rx="8.5" ry="8.5"/>
</g>
<g>
	<ellipse class="st1" cx="756.4" cy="248.6" rx="8.5" ry="8.5"/>
</g>
<g>
	<ellipse class="st1" cx="730.6" cy="297.1" rx="8.5" ry="8.5"/>
</g>
<g>
	<ellipse class="st1" cx="732.3" cy="261.8" rx="8.5" ry="8.5"/>
</g>
<g>
	<ellipse class="st1" cx="734.2" cy="226.7" rx="8.5" ry="8.5"/>
</g>
</svg>
