<?xml version="1.0" encoding="UTF-8" standalone="no"?>
<svg
   xmlns:dc="http://purl.org/dc/elements/1.1/"
   xmlns:cc="http://creativecommons.org/ns#"
   xmlns:rdf="http://www.w3.org/1999/02/22-rdf-syntax-ns#"
   xmlns:svg="http://www.w3.org/2000/svg"
   xmlns="http://www.w3.org/2000/svg"
   xmlns:sodipodi="http://sodipodi.sourceforge.net/DTD/sodipodi-0.dtd"
   xmlns:inkscape="http://www.inkscape.org/namespaces/inkscape"
   width="114pt"
   height="130pt"
   viewBox="0 0 114 130"
   version="1.1"
   id="svg2"
   inkscape:version="0.91 r13725"
   sodipodi:docname="xiaomi_motion_icon.svg">
  <metadata
     id="metadata12">
    <rdf:RDF>
      <cc:Work
         rdf:about="">
        <dc:format>image/svg+xml</dc:format>
        <dc:type
           rdf:resource="http://purl.org/dc/dcmitype/StillImage" />
        <dc:title />
      </cc:Work>
    </rdf:RDF>
  </metadata>
  <defs
     id="defs10" />
  <sodipodi:namedview
     pagecolor="#ffffff"
     bordercolor="#666666"
     borderopacity="1"
     objecttolerance="10"
     gridtolerance="10"
     guidetolerance="10"
     inkscape:pageopacity="0"
     inkscape:pageshadow="2"
     inkscape:window-width="1440"
     inkscape:window-height="778"
     id="namedview8"
     showgrid="false"
     inkscape:zoom="3.02"
     inkscape:cx="-11.194719"
     inkscape:cy="71.838685"
     inkscape:window-x="0"
     inkscape:window-y="0"
     inkscape:window-maximized="0"
     inkscape:current-layer="#2d2d2dff" />
  <g
     id="#fbfbfbff" />
  <g
     id="#2d2d2dff">
    <path
       style="opacity:1;fill:#2d2d2d"
       d="M 33.313453,6.0771016 C 44.467323,5.7743214 51.112622,5.8208664 57.998832,5.79539 c 5.451232,-0.020168 9.497877,0.095272 18.062918,0.4137681 6.986694,0.5200062 8.471226,0.6952328 14.876949,1.2978679 9.525081,1.0551911 9.694751,0.9232072 15.199461,1.752508 l -0.0149,12.29045 c -0.1913,1.324039 -0.75963,1.308338 -1.54393,1.343487 0.12555,33.089942 0.10894,36.146274 0.1942,67.347426 0.95604,0.602025 1.34193,0.308151 1.33897,2.067693 l -0.037,21.96275 -21.729136,3.13744 c -22.090928,1.66406 -2.64957,0.22958 -25.519364,1.67211 -19.794797,-0.50245 -0.951835,0.16479 -22.329712,-1.07714 -8.042792,-0.88441 -13.169375,-1.74005 -28.5557463,-3.77931 L 9.2744356,7.2409101 C 27.017779,5.794405 30.909056,6.3067806 33.313453,6.0771016 Z M 12.457815,10.304703 11.45,100.34128 c 26.323309,3.10606 4.066721,0.68137 22.418234,2.5967 18.581539,0.89753 22.482769,0.96401 25.557704,0.99346 5.519552,0.0529 6.735533,-0.0137 21.909907,-0.51819 13.956668,-1.29389 15.322193,-1.0436 23.044585,-2.49368 l -0.0117,-5.89299 C 91.294813,96.63303 70.341484,97.863302 55.521431,97.738757 43.27081,97.635805 32.953032,96.847606 29.370114,96.459545 l 0.482174,-80.88888 c 8.853046,-0.295824 14.409026,-0.447843 25.138526,-0.622165 6.939812,0.05423 8.289546,-0.0523 15.968586,0.02455 9.186354,0.590801 10.649725,0.53597 17.342476,1.067245 9.384612,0.68743 8.629731,0.628226 15.539414,1.28142 l -0.4462,-5.382341 C 99.823239,11.298084 92.8441,10.655454 82.326423,9.69273 73.685855,9.0731614 70.815925,9.1699555 61.396985,8.6003663 52.570917,8.7828394 50.217729,8.7440072 38.869962,9.0356551 26.316608,9.3567014 25.85212,8.962917 12.457815,10.304703 Z m 20.213041,7.516153 -0.420864,76.468288 c 13.156613,1.134217 11.949712,0.825551 26.233006,1.187853 14.26266,-0.173418 18.456211,-0.230117 25.553478,-0.757777 13.347189,-1.145027 10.712538,-0.333448 19.471494,-1.629672 1.0521,-1.574956 0.16978,0.339571 0.24319,-1.368444 -12.109431,1.262182 -5.588858,0.971955 -20.629391,1.77104 -18.688743,0.99291 -10.023874,0.583028 -22.749356,0.668177 C 54.196347,94.142472 51.118869,94.236547 34.24,93.47 l 0.407466,-74.595201 c 8.245613,-0.344852 9.306787,-0.384887 19.554043,-0.532673 8.558844,0.01439 11.036034,0.01171 16.5963,0.217267 12.716003,0.548463 5.800702,0.642138 17.315351,1.122802 8.946788,0.784085 7.361574,0.601807 15.27598,1.197244 -0.0686,-1.985888 0,1.528073 0.20942,-1.220069 -6.494028,-0.662988 -6.972397,-0.723928 -15.265763,-1.533825 -8.743317,-0.474966 -9.6617,-0.521108 -17.522444,-0.830808 -7.560789,-0.103388 -10.033631,-0.140481 -15.801354,-0.101 -12.301481,0.273892 -13.996628,0.485698 -22.338143,0.627119 z m 3.144105,2.665818 c -0.329548,71.228929 -0.06541,1.501613 -0.394963,71.881613 20.450713,0.522238 13.721742,0.642436 20.450713,0.522238 7.255792,0.05954 11.000727,0.109206 21.075306,-0.298802 19.35304,-1.341421 12.030052,-0.986798 18.50411,-1.341421 7.004423,-0.700747 -10.445823,1.046666 7.174213,-0.700747 -0.24589,-65.821638 0.16979,-2.037431 -0.0761,-67.859069 -6.290104,-0.622545 -6.117443,-0.4803 -15.134303,-1.274898 -11.157634,-0.665717 -8.820612,-0.794551 -20.217628,-1.272299 -7.845249,-0.02604 -8.487541,0.03878 -17.11558,-0.01718 -5.379013,0.120661 -5.881607,0.08762 -14.265768,0.360565 z M 35.350919,105.78107 C 17.178992,103.89341 28.735923,105.15134 11.51,102.92193 l -0.118656,8.75255 c 15.678678,2.46211 11.315179,1.7626 25.30698,3.22487 16.824718,1.04777 10.815642,0.76797 22.501093,0.9452 6.936713,-0.23617 11.695723,-0.54303 24.965099,-1.63186 11.522462,-0.9455 13.511097,-1.45086 20.225694,-2.53312 -0.16765,-8.11111 0,-0.33957 -0.16765,-8.11111 -9.634901,1.31084 -12.154729,1.39225 -25.101368,2.50904 -7.094124,0.39535 -12.84212,0.69697 -19.357102,0.73292 -7.16211,-0.14245 -12.069605,-0.34036 -24.413171,-1.02935 z"
       id="path6"
       inkscape:connector-curvature="0"
       sodipodi:nodetypes="csccccccsccccccccccccccscccccccccccccccccsccccccccccccccccccccccccccccsccccc" />
  </g>
</svg>
