<?xml version="1.0" encoding="utf-8"?>
<!-- Generator: Adobe Illustrator 24.2.1, SVG Export Plug-In . SVG Version: 6.00 Build 0)  -->
<svg version="1.1" id="Layer_1" xmlns="http://www.w3.org/2000/svg" xmlns:xlink="http://www.w3.org/1999/xlink" x="0px" y="0px"
	 viewBox="0 0 379.3 500.1" style="enable-background:new 0 0 379.3 500.1;" xml:space="preserve">
<style type="text/css">
	.st0{fill:#020202;}
	.st1{font-family:'ArialMT';}
	.st2{font-size:36px;}
</style>
<path class="st0" d="M10.3,119.6v2l-1.1-0.1l-2.4-0.1c0.3,0.9,0.5,2,0.5,3c0,0.8-0.1,1.9-0.6,2.9l3.6,0.2v2l-10.1-0.6v13.7l10.1,0.6
	v2H9.9L6.7,145c0.3,0.8,0.5,1.9,0.5,2.9c0,1.1-0.2,2.1-0.6,2.9l3.6,0.2v2H9.5l-5.6-0.3l0,0l-3.8-0.2v13.4l4.1,0.2l0,0
	c0,0,0.1,0,0.2,0l5.8,0.3v2l-3.5-0.2c0.3,0.8,0.5,1.7,0.5,2.6c0,1-0.2,1.9-0.5,2.6l3.5,0.2v2l-1.1-0.1l-5.2-0.3l0,0L0.1,175v14.3
	l4.2,0.2h0.1l5.8,0.3v2H9.5l-2.8-0.2c0.3,0.8,0.5,1.7,0.5,2.6c0,0.7-0.1,1.7-0.5,2.6l3.5,0.2v2l-10.1-0.6v7.4c0,3.7,3,6.8,6.8,6.8
	h3.3v74.6H8.6c-4.7,0-8.5,3.8-8.5,8.5v5.7l10.1,0.6v2l-1.1-0.1l-2.4-0.1c0.3,0.9,0.5,2,0.5,3c0,0.8-0.1,1.9-0.6,2.9l3.6,0.2v2
	l-10.1-0.6V325l10.1,0.6v2H9.8l-3.2-0.2c0.3,0.8,0.5,1.9,0.5,2.9c0,1.1-0.2,2.1-0.6,2.9l3.6,0.2v2H9.4l-5.6-0.3l0,0L0,334.9v13.4
	l4.1,0.2l0,0c0,0,0.1,0,0.2,0l5.8,0.3v2l-3.5-0.2c0.3,0.8,0.5,1.7,0.5,2.6c0,1-0.2,1.9-0.5,2.6l3.5,0.2v2L9,357.9l-5.2-0.3l0,0
	L0,357.4v14.3l4.2,0.2h0.1l5.8,0.3v2H9.4L6.6,374c0.3,0.8,0.5,1.7,0.5,2.6c0,0.7-0.1,1.7-0.5,2.6l3.5,0.2v2L0,380.8v7.4
	c0,3.7,3,6.8,6.8,6.8h3.3v82.2c0,9.9,7.4,18.4,17.2,19.8l13.1,2.4c2.7,0.5,5.6,0.7,8.4,0.7c1.1,0,2.3,0,3.4-0.1l28.3-1.5
	c0.8,0,1.5,0,2.2-0.1L364.3,462c8.9-1.2,15.3-8.8,15-17.7l-13-385.7c-0.3-8.4-6.5-15.3-14.8-16.5L72.9,2.8c-1.5-1-3.4-1.6-5.2-1.8
	h-0.1h-0.1l-8.7-0.9h-0.1h-0.1C57.6,0,56.7,0,55.8,0c-0.8,0-1.5,0-2.3,0.1l-25.4,2h-0.7h-0.1h-0.1c-9.7,1-17.1,9.1-17.1,18.9v83.7
	H8.5c-4.7,0-8.5,3.8-8.5,8.5v5.7L10.3,119.6z M16.6,477.2V21c0-6.1,5.6-11.7,12.3-12.4L49,7.3l0,0c-2.9,2.7-3.5,7.2-3.5,13.5
	l0.7,457.3l0,0c0,5.6,1.6,9.9,4.8,12.8c1.2,1.1,2.5,1.9,3.8,2.5l-1.9,0.1c-3.4,0.3-6.9,0.1-10.3-0.5l-13.3-2.4
	C22.3,489.6,16.6,483.7,16.6,477.2z M239,245.5l-0.3-7c-2.2-61.5-5-138-12.9-196.7c-0.2-3-0.8-7.3-2.1-10.3l127.8,18
	c4.7,0.7,8.2,4.6,8.4,9.3l13,385.7c0.1,5.1-3.5,9.4-8.5,10l-123.7,16c0.9-4.4,1.3-14.6,2.4-38.7C244.5,398.8,240.8,295.2,239,245.5z
	 M82.7,490.8c-2.8,0.3-5.5-0.5-7.6-2.3s-3.3-4.4-3.4-7.1l-13-461.8c-0.1-2.8,1.1-5.6,3.2-7.5c1.8-1.6,4.1-2.5,6.5-2.5
	c0.5,0,0.9,0,1.4,0.1l150,21.2c1,0.5,2.4,5.8,2.9,11.2c7.9,58.7,10.7,135.1,12.9,196.5l0.3,7c1.8,49.7,5.6,153.1,4.1,186
	c-1,23.5-1.6,36.9-2.6,39.3L82.7,490.8z M237.9,470.9L237.9,470.9L237.9,470.9L237.9,470.9z M55.1,7.9c-0.5,0.3-1,0.7-1.5,1.1
	c-2.8,2.5-4.3,6-4.2,9.8L52.8,142l0,0l-0.1,335.8c0,2.9,1.2,5.8,3.4,7.8c2,1.8,4.6,2.8,7.3,2.8c0.3,0,0.5,0,0.8,0l0,0
	c0.7,1.2,1.6,2.4,2.7,3.3c0.2,0.3,0.5,0.5,0.8,0.7l-5.3,0.4l-0.1-1c-0.1,0-5.5,0.3-9.3-3.2c-2.5-2.3-3.8-5.9-3.8-10.6h-1.5h1.5
	L48.5,20.8c0-5.5,0.4-9.4,2.5-11.3C52,8.6,53.3,8.1,55.1,7.9z M62.3,482.4c0.1,1,0.2,2,0.5,3c-1.8-0.1-3.5-0.8-4.8-2
	c-1.6-1.5-2.5-3.4-2.5-5.6l0.2-231.7L62.3,482.4z M74.4,491.8c-2.1-0.1-4.1-0.9-5.7-2.3c-2.1-1.8-3.3-4.4-3.4-7.1l-13-463.6
	c-0.1-2.8,1.1-5.6,3.2-7.5c1.7-1.6,3.8-2.4,6.1-2.5C61.1,9.1,60.5,9.5,60,10c-2.8,2.5-4.3,6-4.2,9.8l13,461.8c0.1,3.6,1.8,7,4.5,9.3
	C73.6,491.2,74,491.5,74.4,491.8z M28.8,8.1L28.8,8.1L28.8,8.1L28.8,8.1z"/>
<text transform="matrix(-7.124977e-08 1 -1 -7.124977e-08 19.5464 434.1985)" class="st1 st2">LN</text>
<path class="st0" d="M239,245.5l-0.3-7c-2.2-61.5-5-138-12.9-196.7c-0.2-3-0.8-7.3-2.1-10.3l127.8,18c4.7,0.7,8.2,4.6,8.4,9.3
	l13,385.7c0.1,5.1-3.5,9.4-8.5,10l-123.7,16c0.9-4.4,1.3-14.6,2.4-38.7C244.5,398.8,240.8,295.2,239,245.5z"/>
</svg>
