<?xml version="1.0" encoding="UTF-8" ?>
<!DOCTYPE svg PUBLIC "-//W3C//DTD SVG 1.1//EN" "http://www.w3.org/Graphics/SVG/1.1/DTD/svg11.dtd">
<svg width="114pt" height="130pt" viewBox="0 0 114 130" version="1.1" xmlns="http://www.w3.org/2000/svg">
<g id="#fbfbfbff">
</g>
<g id="#2d2d2dff">
<path fill="#2d2d2d" opacity="1.00" d=" M 13.43 7.73 C 24.78 5.27 36.45 5.52 48.01 5.37 C 58.04 5.42 68.09 5.19 78.12 5.72 C 86.50 6.71 95.06 6.73 103.25 8.96 C 104.79 9.47 106.56 9.98 107.50 11.42 C 107.86 14.46 107.85 17.56 107.49 20.61 C 106.45 22.68 104.40 24.44 104.60 26.96 C 103.86 47.32 105.08 67.69 104.62 88.05 C 104.49 90.54 107.85 91.60 107.76 94.09 C 107.77 100.18 107.54 106.27 107.37 112.35 C 101.69 115.77 94.84 115.84 88.44 116.64 C 81.01 117.79 73.45 117.40 66.00 118.35 C 53.87 118.35 41.64 119.25 29.58 117.58 C 22.88 117.28 15.96 116.94 9.68 114.37 C 9.18 111.26 8.51 108.17 8.59 105.01 C 8.74 98.00 8.26 90.97 9.31 84.02 C 9.34 76.68 9.61 69.31 8.75 62.00 C 8.42 57.99 8.87 53.99 9.30 50.01 C 9.47 37.08 9.48 24.14 9.51 11.21 C 9.46 9.15 11.83 8.32 13.43 7.73 M 12.51 10.67 C 11.93 18.44 12.85 26.27 11.75 34.00 C 11.33 56.45 11.59 78.91 11.45 101.36 C 16.80 103.06 22.37 103.71 27.97 103.48 C 41.59 104.78 55.34 104.58 68.99 103.71 C 80.97 103.81 92.95 102.79 104.72 100.58 C 104.92 98.82 105.12 97.06 105.33 95.30 C 99.72 95.33 94.24 96.73 88.63 96.72 C 68.83 98.17 48.96 97.55 29.13 97.42 C 28.73 94.62 28.96 91.80 29.17 88.99 C 29.88 71.00 29.66 53.00 29.46 35.00 C 29.65 28.56 29.91 22.11 29.86 15.66 C 45.58 14.70 61.33 15.33 77.06 15.60 C 86.34 16.53 95.68 16.87 104.86 18.68 C 104.81 16.36 104.71 14.05 104.52 11.74 C 82.98 7.34 60.90 7.18 39.01 7.61 C 30.15 8.38 21.16 8.29 12.51 10.67 M 33.35 18.50 C 32.79 20.81 32.66 23.17 32.73 25.53 C 31.98 48.21 32.71 70.92 32.25 93.61 C 35.37 94.72 38.68 95.24 41.98 95.33 C 51.66 95.55 61.34 95.53 71.01 95.29 C 78.63 94.11 86.37 94.73 94.02 93.88 C 97.62 93.45 101.47 93.57 104.71 91.74 C 100.56 90.92 96.28 91.43 92.10 91.79 C 87.14 93.06 81.98 92.31 76.94 92.81 C 70.34 93.92 63.63 93.29 57.01 94.14 C 49.39 94.89 41.86 93.16 34.24 93.47 C 34.63 80.65 34.32 67.82 34.30 55.00 C 34.23 43.10 34.88 31.18 34.27 19.29 C 44.49 19.60 54.73 19.11 64.94 19.77 C 72.56 21.38 80.42 19.92 88.10 21.14 C 93.70 21.27 99.21 22.32 104.76 22.97 L 104.10 21.46 C 100.22 19.95 96.00 19.58 91.88 19.30 C 78.63 17.90 65.30 17.91 52.00 17.59 C 45.79 17.96 39.45 16.95 33.35 18.50 M 36.71 20.63 C 36.50 23.80 35.59 26.87 35.49 30.04 C 35.38 50.36 35.85 70.69 35.42 91.01 C 35.82 91.38 36.63 92.10 37.03 92.47 C 48.03 92.45 59.05 92.69 70.04 92.28 C 75.53 91.06 81.17 91.84 86.72 91.24 C 91.91 89.94 97.33 90.59 102.55 89.45 C 102.95 70.96 102.24 52.47 102.34 33.98 C 102.44 30.54 102.82 27.08 102.38 23.64 C 96.58 23.21 90.84 22.22 85.06 21.61 C 79.23 21.36 73.29 22.17 67.54 20.81 C 64.74 20.18 61.86 20.47 59.02 20.49 C 51.59 20.68 44.15 20.59 36.71 20.63 M 44.01 106.63 C 33.14 106.78 22.28 105.83 11.51 104.45 C 12.18 107.26 9.98 112.25 13.81 113.20 C 27.97 116.34 42.59 115.95 57.01 115.88 C 72.94 115.85 89.04 115.19 104.56 111.34 C 104.75 108.66 104.80 105.97 104.76 103.29 C 84.71 106.81 64.31 106.67 44.01 106.63 Z" />
</g>
</svg>
