<?xml version="1.0" encoding="UTF-8" standalone="no"?>
<svg
   xmlns:dc="http://purl.org/dc/elements/1.1/"
   xmlns:cc="http://creativecommons.org/ns#"
   xmlns:rdf="http://www.w3.org/1999/02/22-rdf-syntax-ns#"
   xmlns:svg="http://www.w3.org/2000/svg"
   xmlns="http://www.w3.org/2000/svg"
   xmlns:sodipodi="http://sodipodi.sourceforge.net/DTD/sodipodi-0.dtd"
   xmlns:inkscape="http://www.inkscape.org/namespaces/inkscape"
   width="404pt"
   height="312pt"
   viewBox="0 0 404 312"
   version="1.1"
   id="svg2"
   inkscape:version="0.91 r13725"
   sodipodi:docname="learn_motion.svg">
  <metadata
     id="metadata15">
    <rdf:RDF>
      <cc:Work
         rdf:about="">
        <dc:format>image/svg+xml</dc:format>
        <dc:type
           rdf:resource="http://purl.org/dc/dcmitype/StillImage" />
      </cc:Work>
    </rdf:RDF>
  </metadata>
  <defs
     id="defs13" />
  <sodipodi:namedview
     pagecolor="#ffffff"
     bordercolor="#666666"
     borderopacity="1"
     objecttolerance="10"
     gridtolerance="10"
     guidetolerance="10"
     inkscape:pageopacity="0"
     inkscape:pageshadow="2"
     inkscape:window-width="699"
     inkscape:window-height="480"
     id="namedview11"
     showgrid="false"
     inkscape:zoom="0.60512821"
     inkscape:cx="252.5"
     inkscape:cy="195"
     inkscape:window-x="0"
     inkscape:window-y="0"
     inkscape:window-maximized="0"
     inkscape:current-layer="svg2" />
  <g
     id="#ffffffff" />
  <g
     id="#828283ff">
    <path
       d=" M 193.22 23.22 C 197.98 19.38 204.51 17.75 210.39 19.76 C 226.41 25.44 242.73 30.26 258.56 36.48 C 268.17 39.77 278.17 41.65 288.06 43.87 C 294.32 45.16 301.12 47.98 303.82 54.24 C 307.75 63.07 307.56 72.97 308.83 82.39 C 310.37 95.58 314.96 108.13 318.02 121.00 C 321.02 131.75 324.20 142.45 327.10 153.23 C 328.73 159.65 334.05 163.93 338.02 168.89 C 343.64 175.55 345.00 184.47 348.95 192.05 C 355.83 205.32 364.73 217.38 373.58 229.37 C 377.77 235.17 382.66 240.48 386.14 246.76 C 382.48 243.82 379.11 240.52 376.21 236.83 C 366.13 224.72 356.59 212.10 348.71 198.43 C 345.83 193.37 343.36 188.08 341.53 182.54 C 339.37 176.05 335.68 170.11 330.79 165.32 C 327.70 162.33 325.50 158.55 324.32 154.42 C 319.41 138.50 315.10 122.41 310.55 106.39 C 309.01 100.23 307.07 94.15 306.01 87.88 C 304.68 79.35 304.56 70.66 302.81 62.20 C 301.72 56.97 298.95 51.43 293.63 49.49 C 281.75 45.14 268.87 44.39 257.02 39.90 C 241.37 33.82 225.30 28.97 209.42 23.55 C 204.62 21.68 199.30 23.31 195.39 26.39 C 186.61 33.24 178.93 41.47 169.66 47.71 C 164.09 50.85 158.28 53.56 152.79 56.87 C 155.54 58.50 158.58 60.04 160.26 62.90 C 161.62 64.88 161.76 67.34 162.02 69.65 C 165.64 71.18 169.50 73.77 173.57 72.29 C 181.18 69.69 188.61 66.50 195.74 62.75 C 197.83 61.56 200.06 60.41 201.62 58.53 C 202.81 54.69 203.13 50.61 204.80 46.90 C 204.51 49.94 204.22 53.00 204.38 56.05 C 204.24 58.16 206.38 59.20 207.78 60.33 C 212.78 63.61 218.34 66.43 224.40 66.89 C 226.23 64.78 228.12 62.71 230.15 60.79 C 228.79 63.78 225.92 66.95 227.51 70.43 C 229.73 75.59 232.50 80.67 236.28 84.85 C 238.30 84.91 240.15 83.99 242.00 83.31 C 236.17 87.15 232.99 93.54 228.37 98.57 C 231.65 98.78 234.94 98.55 238.14 97.77 C 230.39 101.52 221.49 100.10 213.73 97.18 C 204.04 93.95 194.27 90.74 185.30 85.78 C 177.37 81.13 169.51 76.08 160.62 73.45 C 151.63 70.63 141.97 69.21 132.62 70.82 C 128.60 71.57 125.91 75.04 125.43 78.99 C 133.26 74.14 143.80 74.68 151.50 79.44 C 151.78 85.29 148.18 90.28 147.07 95.82 C 154.76 106.06 166.18 112.26 176.33 119.68 C 182.41 123.86 186.64 130.03 191.94 135.06 C 196.61 140.14 202.36 144.39 205.66 150.59 C 213.76 165.31 222.92 180.13 236.69 190.22 C 243.28 194.56 247.88 201.11 253.81 206.19 C 259.84 211.94 267.11 216.16 273.18 221.85 C 286.74 234.10 297.77 248.82 308.10 263.81 C 314.83 274.06 321.38 284.46 326.70 295.52 C 326.18 295.46 325.14 295.34 324.61 295.28 C 315.54 280.86 306.59 266.32 296.33 252.70 C 286.40 239.76 275.77 227.05 262.43 217.48 C 254.90 212.18 248.04 205.98 241.74 199.27 C 236.64 193.64 229.78 189.99 224.70 184.34 C 215.71 174.58 208.62 163.25 202.22 151.68 C 200.05 148.00 196.76 145.19 193.78 142.20 C 189.39 137.93 185.26 133.41 181.10 128.92 C 174.27 121.52 165.20 116.85 157.22 110.88 C 153.27 107.83 149.68 104.35 146.13 100.85 C 140.85 95.54 133.10 94.14 127.12 89.87 C 124.54 88.03 123.04 85.17 121.49 82.50 C 117.59 82.28 113.34 82.32 110.05 79.90 C 106.87 77.66 105.55 73.84 104.34 70.32 C 97.31 70.16 90.28 70.09 83.25 70.08 C 83.24 78.44 83.32 86.80 83.21 95.15 C 61.80 95.21 40.39 95.23 18.98 95.14 C 18.96 90.96 18.96 86.78 18.99 82.60 C 21.29 82.55 23.60 82.53 25.90 82.53 C 26.12 67.01 25.94 51.48 26.00 35.96 C 23.67 35.85 21.35 35.76 19.03 35.69 C 18.94 31.84 18.91 27.98 19.13 24.13 C 33.51 20.79 48.35 21.29 62.99 21.52 C 69.75 21.89 76.51 22.62 83.12 24.11 C 83.52 38.19 83.02 52.27 83.38 66.34 C 90.53 66.24 97.67 66.78 104.81 66.43 C 106.12 61.42 109.77 56.78 115.16 56.04 C 123.10 55.27 131.09 56.12 139.03 56.49 C 145.15 56.96 150.57 53.58 155.72 50.77 C 160.22 48.20 165.11 46.31 169.37 43.32 C 177.76 37.15 184.97 29.55 193.22 23.22 M 22.76 26.81 C 22.61 28.48 22.48 30.15 22.35 31.82 C 36.69 32.21 51.04 31.88 65.38 32.01 C 65.51 49.93 65.58 67.85 65.35 85.77 C 51.04 86.26 36.72 85.48 22.42 86.44 C 22.48 88.11 22.54 89.79 22.60 91.47 C 41.60 91.64 60.60 91.45 79.59 91.57 C 79.62 84.23 79.52 76.88 79.68 69.54 C 77.35 69.29 75.02 69.13 72.69 69.05 C 72.63 67.93 72.58 66.82 72.53 65.70 C 74.87 65.63 77.20 65.89 79.51 66.22 C 79.60 53.07 79.75 39.91 79.43 26.76 C 60.63 24.45 41.55 24.36 22.76 26.81 M 29.25 33.12 C 28.91 50.06 29.03 67.01 29.18 83.95 C 40.70 84.17 52.24 84.32 63.76 83.85 C 63.98 66.98 64.01 50.11 63.74 33.24 C 52.25 32.71 40.74 32.83 29.25 33.12 M 110.95 76.04 C 113.61 78.97 117.78 78.69 121.37 78.81 C 122.10 76.51 122.62 74.06 124.02 72.04 C 126.06 69.37 129.44 68.22 131.61 65.67 C 133.39 63.66 135.12 61.61 136.96 59.65 C 129.74 59.76 122.50 59.02 115.30 59.57 C 108.14 60.97 105.58 71.24 110.95 76.04 M 135.78 66.36 C 143.67 66.07 151.44 67.24 159.13 68.88 C 157.93 64.21 154.11 60.03 148.95 60.38 C 143.72 59.53 139.03 62.53 135.78 66.36 M 195.00 66.04 C 195.13 73.05 195.24 80.07 194.72 87.08 C 201.52 89.83 208.31 92.61 215.23 95.05 C 218.06 90.75 219.14 85.52 217.78 80.51 C 215.24 78.93 212.90 77.07 210.78 74.98 C 213.17 76.16 215.45 77.66 218.05 78.38 C 221.37 78.97 224.50 77.39 227.50 76.19 C 226.51 73.97 225.51 71.74 224.49 69.53 C 220.55 68.80 216.55 67.97 212.98 66.05 C 209.88 64.54 207.14 62.36 203.93 61.08 C 200.59 61.94 197.90 64.28 195.00 66.04 M 175.63 75.44 C 180.57 78.77 185.56 82.16 191.21 84.19 C 191.41 79.42 191.43 74.64 191.23 69.87 C 185.87 71.22 180.77 73.43 175.63 75.44 M 125.83 82.99 C 130.48 89.23 138.41 91.08 144.89 94.75 C 147.08 90.24 148.82 85.52 149.99 80.64 C 144.50 77.93 138.18 76.31 132.10 77.81 C 129.45 78.73 127.64 80.98 125.83 82.99 M 220.14 80.41 C 220.26 85.61 219.90 90.94 217.26 95.55 C 219.19 96.13 221.11 96.79 223.13 96.98 C 225.36 97.24 226.96 95.44 228.63 94.29 C 227.12 92.50 225.58 90.73 224.02 88.98 C 226.14 90.11 228.16 91.99 230.72 91.81 C 232.29 90.61 233.55 88.89 233.98 86.94 C 232.78 83.58 230.29 80.90 228.29 78.01 C 225.60 78.90 222.88 79.72 220.14 80.41 Z"
       id="path6"
       style="fill:#000000"
       fill="#828283"
       opacity="1.00" />
  </g>
  <g
     id="#a9defdff">
    <path
       fill="#a9defd"
       opacity="1.00"
       d=" M 29.25 33.12 C 40.74 32.83 52.25 32.71 63.74 33.24 C 64.01 50.11 63.98 66.98 63.76 83.85 C 52.24 84.32 40.70 84.17 29.18 83.95 C 29.03 67.01 28.91 50.06 29.25 33.12 Z"
       id="path9" />
  </g>
</svg>
