<?xml version="1.0" encoding="utf-8"?>
<!-- Generator: Adobe Illustrator 24.0.1, SVG Export Plug-In . SVG Version: 6.00 Build 0)  -->
<svg version="1.1" id="Laag_1" xmlns="http://www.w3.org/2000/svg" xmlns:xlink="http://www.w3.org/1999/xlink" x="0px" y="0px"
	 viewBox="0 0 1786 1786" style="enable-background:new 0 0 1786 1786;" xml:space="preserve">
<style type="text/css">
	.st0{fill:#FFFFFF;}
	.st1{fill:none;stroke:#000000;stroke-width:5;stroke-miterlimit:10;}
</style>
<path d="M1532.43,315.82c0,73.31,0.07,146.62-0.03,219.94c-0.06,47.12-0.43,94.24-0.58,141.36c-0.17,52.15-0.26,104.3-0.35,156.45
	c-0.1,56.31-0.09,112.63-0.24,168.94c-0.11,42.47-0.46,84.95-0.57,127.42c-0.11,39.28,0.05,78.56-0.09,117.84
	c-0.16,46.48-0.67,92.95-0.76,139.43c-0.08,45.98,0.28,91.97,0.24,137.96c-0.03,30.32-0.49,60.63-0.64,90.95
	c-0.13,26.64-0.08,53.27-0.11,79.91c-0.02,17.14,0.05,34.28-0.09,51.42c-0.06,6.54-5.25,10.42-12.82,10.3
	c-18.98-0.3-37.97-0.48-56.95-0.73c-33.78-0.44-67.57-0.95-101.35-1.34c-36.63-0.41-73.27-0.62-109.91-1.1
	c-26.48-0.35-52.95-1.17-79.42-1.45c-42.47-0.45-84.94-0.56-127.41-0.93c-28.48-0.24-56.97-0.75-85.45-1.01
	c-25.98-0.24-51.95-0.25-77.93-0.48c-41.08-0.35-82.15-0.87-123.23-1.17c-28.16-0.2-56.31-0.1-84.47-0.22
	c-35.8-0.15-71.6-0.43-107.4-0.59c-45.13-0.19-90.26-0.29-135.39-0.47c-21.82-0.09-43.65-0.03-65.47-0.52
	c-8.53-0.19-17.34,0.02-25.06-5.05c-4.11-2.7-6.38-6.13-6.35-11.1c0.14-24.79,0.44-49.58,0.33-74.37
	c-0.2-45.64-0.68-91.29-0.97-136.93c-0.13-21.3,0.01-42.61-0.14-63.91c-0.25-35.14-0.73-70.27-0.92-105.41
	c-0.24-43.15-0.2-86.29-0.44-129.44c-0.17-30.98-0.69-61.96-0.89-92.94c-0.23-36.14-0.2-72.29-0.45-108.44
	c-0.37-55.28-0.9-110.56-1.33-165.84c-0.33-42.47-0.62-84.93-0.92-127.4c-0.28-39.13-0.52-78.27-0.87-117.4
	c-0.36-41.3-0.86-82.6-1.24-123.89c-0.41-43.79-0.8-87.59-1.15-131.38c-0.34-42.28-0.58-84.57-0.97-126.85
	c-0.19-20.65,11.78-34.62,32.11-37.75c24.31-3.74,48.56-7.89,72.85-11.73c15.77-2.49,31.59-4.62,47.36-7.11
	c27.92-4.41,55.81-9.05,83.74-13.46c19.72-3.12,39.5-5.92,59.22-9.06c13.95-2.22,27.83-4.87,41.77-7.14
	c11.49-1.87,23.03-3.41,34.53-5.23c17.4-2.75,34.78-5.68,52.18-8.43c16.42-2.6,32.86-4.99,49.28-7.62
	c17.06-2.73,34.09-5.64,51.14-8.46c17.88-2.96,35.76-5.89,53.64-8.86c20.51-3.41,41-6.92,61.53-10.24
	c16.91-2.74,33.88-5.11,50.78-7.91c21.31-3.52,42.56-7.41,63.87-10.96c29.7-4.94,59.43-9.64,89.13-14.56
	c14.11-2.33,28.17-5.03,42.28-7.36c25.91-4.28,51.84-8.36,77.75-12.64c14.44-2.38,28.82-5.12,43.27-7.48
	c20.66-3.39,41.37-6.52,62.04-9.89c16.23-2.65,32.39-5.76,48.66-8.1c5.81-0.83,11.94-0.57,17.8,0.19
	c16.65,2.17,33.25,4.84,49.86,7.34c9.3,1.41,18.96,2.62,23.39,12.58c1.83,4.11,2.94,8.9,2.98,13.4
	c0.37,39.98,0.49,79.96,0.55,119.94c0.07,49.65,0.02,99.29,0.02,148.94C1532.38,315.82,1532.4,315.82,1532.43,315.82z
	 M1433.23,884.92c0.01,0,0.02,0,0.03,0c0-11.83-0.01-23.66,0-35.49c0.07-64.97,0.06-129.94,0.23-194.91
	c0.11-43.64,0.56-87.28,0.68-130.93c0.09-32.32-0.18-64.64-0.18-96.96c0-45.63,0.16-91.26,0.16-136.89
	c0-34.49-0.14-68.97-0.19-103.46c-0.07-41.99-0.06-83.98-0.2-125.97c-0.04-10.82-0.51-21.63-0.73-32.45
	c-0.09-4.28-2.07-5.3-6.14-4.54c-11.11,2.09-22.28,3.9-33.43,5.73c-34.32,5.64-68.66,11.18-102.97,16.88
	c-37.71,6.27-75.4,12.68-113.1,19.04c-26.57,4.48-53.12,9.04-79.69,13.48c-26.4,4.41-52.82,8.73-79.23,13.04
	c-22.32,3.64-44.66,7.17-66.97,10.85c-18.05,2.97-36.05,6.2-54.11,9.11c-22.31,3.59-44.66,6.87-66.98,10.43
	c-24.29,3.87-48.57,7.89-72.84,11.86c-13.62,2.23-27.23,4.54-40.85,6.73c-16.43,2.64-32.88,5.13-49.3,7.78
	c-18.04,2.91-36.05,6.01-54.1,8.88c-14.77,2.35-29.59,4.42-44.37,6.75c-22.98,3.63-45.93,7.42-68.9,11.05
	c-23.66,3.74-47.35,7.32-71.02,11.06c-24.66,3.9-49.27,8.13-73.96,11.77c-17.75,2.62-27.31,13.55-27.05,31.66
	c0.52,36.13,0.92,72.27,1.3,108.41c0.34,31.31,0.59,62.62,0.88,93.93c0.22,23.31,0.5,46.61,0.67,69.92
	c0.25,34.15,0.33,68.3,0.65,102.45c0.41,43.64,1.11,87.29,1.43,130.93c0.24,32.64-0.11,65.29,0.12,97.93
	c0.31,42.64,1.05,85.28,1.4,127.93c0.44,52.65,0.69,105.29,0.99,157.94c0.28,48.31,0.49,96.63,0.8,144.94
	c0.56,87.27,1.2,174.53,1.76,261.8c0.24,37.62,0.42,75.24,0.53,112.86c0.08,28.99-0.03,57.98,0.03,86.96
	c0.02,9.79,0.18,9.9,9.43,12.98c1.69,0.56,3.57,0.78,5.37,0.8c10.31,0.13,20.61,0.14,30.92,0.21c27.64,0.19,55.27,0.45,82.91,0.57
	c29.62,0.14,59.25,0.1,88.87,0.25c17.75,0.09,35.5,0.48,53.26,0.6c28.83,0.19,57.65,0.22,86.48,0.42
	c25.31,0.18,50.62,0.56,75.93,0.75c11.96,0.09,23.92-0.18,35.88-0.09c35.26,0.28,70.53,0.65,105.79,1.02
	c22.6,0.23,45.2,0.6,67.8,0.77c41.46,0.32,82.92,0.54,124.38,0.78c20.8,0.12,41.61,0.01,62.41,0.31
	c26.62,0.38,53.23,1.17,79.85,1.59c18.94,0.3,37.89,0.17,56.84,0.42c38.62,0.5,77.23,1.16,115.85,1.69
	c7.93,0.11,11.13-3.08,11.31-11.15c0.16-7.32,0.13-14.65,0.13-21.98c-0.01-60.31-0.12-120.62-0.02-180.93
	c0.08-49.48,0.5-98.96,0.63-148.44c0.16-64.13,0.14-128.26,0.26-192.39c0.06-30.28,0.34-60.55,0.37-90.83
	C1433.27,1030.19,1433.23,957.56,1433.23,884.92z M1472.24,24.97c0.69,6.13,1.56,10.7,1.64,15.28c0.22,12.49,0.1,24.99,0.12,37.49
	c0.06,47.8,0.11,95.6,0.2,143.41c0.09,48.48,0.32,96.95,0.33,145.43c0.01,50.15-0.15,100.31-0.29,150.46
	c-0.17,63.12-0.42,126.23-0.6,189.35c-0.14,47.99-0.26,95.98-0.31,143.97c-0.03,32.48,0.23,64.96,0.06,97.44
	c-0.18,36.3-0.86,72.59-1.02,108.89c-0.09,21.25,0.62,42.5,0.62,63.76c-0.01,71.47-0.12,142.94-0.29,214.41
	c-0.14,55.95-0.52,111.91-0.64,167.86c-0.14,66.65-0.05,133.31-0.2,199.96c-0.03,14.3-0.61,28.59-1.12,42.88
	c-0.12,3.45,1.98,3.33,4.17,3.35c13.49,0.16,26.98,0.22,40.46,0.48c3.72,0.07,5.69-1.31,5.81-5.08c0.27-8.3,0.77-16.59,0.78-24.89
	c0.09-53.66,0.04-107.32,0.11-160.97c0.08-56.64,0.23-113.28,0.39-169.92c0.16-56.29,0.41-112.58,0.56-168.87
	c0.16-60.82,0.27-121.63,0.37-182.45c0.07-42.82,0.05-85.64,0.15-128.46c0.06-25.14,0.34-50.28,0.4-75.42
	c0.16-60.3,0.19-120.6,0.38-180.9c0.1-33.31,0.5-66.62,0.62-99.94c0.12-33.81,0.05-67.63,0.1-101.44
	c0.07-47.81,0.26-95.62,0.23-143.43c-0.03-45.82-0.28-91.63-0.44-137.45c-0.12-36.14-0.21-72.29-0.38-108.43
	c-0.03-5.99-0.01-12.03-0.68-17.96c-0.87-7.64-4.82-11.61-12.3-13.16c-4.4-0.91-8.85-1.61-13.3-2.23
	C1489.85,27.23,1481.51,26.19,1472.24,24.97z M1469.27,496.5c0.28,0,0.56,0,0.84,0c0-39.31,0.03-78.62-0.01-117.93
	c-0.05-47.13-0.17-94.26-0.25-141.38c-0.09-52.14-0.14-104.28-0.27-156.41c-0.04-15-0.05-30-0.6-44.98
	c-0.18-4.75-0.34-10.91-6.12-12.54c-5.68-1.6-11.83-1.62-17.8-2.12c-2.83-0.24-4.24,1.33-4.21,4.28
	c0.12,10.82,0.16,21.65,0.23,32.48c0.23,34.32,0.6,68.63,0.65,102.95c0.07,50.81-0.11,101.62-0.12,152.42
	c-0.01,30.16,0.2,60.32,0.16,90.47c-0.07,55.48-0.27,110.95-0.39,166.43c-0.08,37.15-0.06,74.29-0.17,111.44
	c-0.09,30.65-0.46,61.3-0.44,91.96c0.02,43.3,0.36,86.59,0.39,129.89c0.02,29.81-0.35,59.63-0.4,89.44
	c-0.1,62.15-0.02,124.29-0.17,186.44c-0.15,65.48-0.55,130.96-0.71,196.43c-0.15,58.3-0.12,116.59-0.19,174.89
	c-0.05,45.78-0.04,91.56-0.22,137.34c-0.07,18.8-0.54,37.59-0.89,56.39c-0.05,2.63,0.75,4.07,3.62,4.11
	c4.33,0.06,8.65,0.31,12.97,0.48c10.19,0.41,11.93-1.3,11.95-11.48c0.1-38.14,0.22-76.29,0.35-114.43
	c0.09-27.49,0.23-54.97,0.28-82.46c0.08-40.48,0.06-80.97,0.16-121.45c0.1-40.49,0.38-80.97,0.43-121.46
	c0.06-50.46-0.08-100.92-0.06-151.38c0.01-23.45,0.26-46.89,0.29-70.34c0.02-23.6-0.19-47.21-0.14-70.81
	c0.04-16.64,0.45-33.28,0.51-49.92c0.07-18.96-0.14-37.91-0.11-56.87c0.12-73.31,0.34-146.61,0.43-219.92
	C1469.32,617.8,1469.27,557.15,1469.27,496.5z"/>
<path d="M1303.98,405.37c0,49.48-0.13,98.97,0.04,148.45c0.14,42.64,0.78,85.27,0.9,127.91c0.13,47.97-0.2,95.94-0.1,143.9
	c0.08,40.13,0.56,80.26,0.69,120.39c0.08,24.15-0.32,48.3-0.26,72.44c0.11,41.98,0.51,83.95,0.59,125.93
	c0.09,47.3-0.16,94.61-0.05,141.91c0.08,36.8,0.58,73.6,0.71,110.4c0.08,20.97-0.33,41.94-0.31,62.9
	c0.03,29.96,0.7,59.94,0.18,89.89c-0.24,13.72-4.58,26.37-16.58,35.15c-5.62,4.11-11.85,5.1-18.38,5.16
	c-18.97,0.17-37.95,0.03-56.93,0.27c-20.96,0.26-41.92,0.95-62.88,1.18c-25.65,0.27-51.3,0.17-76.94,0.39
	c-40.97,0.35-81.93,0.82-122.9,1.24c-23.27,0.24-46.54,0.4-69.81,0.7c-28.29,0.36-56.58,0.92-84.87,1.22
	c-41.12,0.44-82.25,0.68-123.38,1.08c-37.98,0.37-75.96,0.76-113.94,1.31c-40.91,0.59-81.82,1.33-122.72,2.11
	c-14.89,0.28-26.08-5.18-30.77-20.03c-2.08-6.6-3.11-13.59-4.06-20.48c-1.08-7.82-1.11-8.35-8.8-7.61
	c-10.98,1.06-19.88-1.8-24.6-12.49c-1.28-2.9-1.61-6.41-1.63-9.65c-0.13-27.81-0.02-55.62-0.12-83.43
	c-0.12-35.63-0.43-71.27-0.54-106.9c-0.2-64.27-0.32-128.55-0.47-192.82c-0.14-60.3-0.17-120.59-0.41-180.89
	c-0.22-55.97-0.75-111.94-0.99-167.91c-0.23-53.32-0.18-106.64-0.39-159.95c-0.29-74.93-0.72-149.86-1.07-224.79
	c-0.06-13-0.06-25.99-0.04-38.99c0.01-5.57,3.66-11.01,9.18-12.22c8.59-1.88,17.31-3.18,26.01-4.49c7.62-1.14,7.67-1.01,9.14-8.58
	c3.01-15.59,16.74-29.34,34.43-30.01c13.39-0.5,26.68-3.61,40.03-5.47c16.96-2.37,33.95-4.54,50.9-7.02
	c19.41-2.84,38.77-5.99,58.17-8.86c14.64-2.17,29.32-4.09,43.97-6.18c15.13-2.16,30.26-4.4,45.39-6.62
	c13.33-1.95,26.66-3.93,39.99-5.87c23.54-3.43,47.07-6.86,70.62-10.24c24.51-3.52,49.05-6.89,73.55-10.47
	c29.61-4.32,59.2-8.76,88.78-13.21c25.64-3.85,51.27-7.82,76.91-11.66c21.55-3.22,43.12-6.28,64.66-9.51
	c26.8-4.01,53.59-8.11,80.39-12.17c18.41-2.79,36.81-5.61,55.22-8.38c12.49-1.88,25.02-3.58,37.49-5.58
	c12.91-2.07,20.7,1.89,27.4,13.08c6.73,11.24,7.71,23.47,7.71,36.02c0.01,53.15,0.01,106.29,0.01,159.44
	C1303.39,405.37,1303.68,405.37,1303.98,405.37z M1206.6,1311.37c-0.09,0-0.18,0-0.28,0c0-30.65,0.06-61.31-0.02-91.96
	c-0.1-39.65-0.34-79.3-0.4-118.95c-0.01-3.83-1.26-4.77-5.02-4.53c-31.55,2.05-63.11,3.94-94.67,5.79
	c-19.59,1.15-39.19,2.07-58.78,3.2c-44.7,2.58-89.39,5.24-134.09,7.85c-40.87,2.38-81.75,4.66-122.62,7.11
	c-35.4,2.12-70.78,4.47-106.17,6.6c-28.08,1.69-56.18,3.15-84.26,4.77c-50.02,2.89-100.05,5.8-150.06,8.75
	c-23.1,1.36-46.19,2.8-69.28,4.29c-6.46,0.42-6.96,1.06-6.96,7.61c0.01,23.16,0.01,46.31,0.07,69.47
	c0.11,48.63,0.27,97.26,0.37,145.89c0.07,32.48,0.01,64.96,0.1,97.44c0.06,21.32,0.18,42.65,0.45,63.97
	c0.12,9.47,5.38,14.5,14.57,14.42c33.81-0.29,67.63-0.62,101.44-0.9c21.32-0.17,42.65-0.21,63.97-0.41
	c22.32-0.21,44.64-0.67,66.96-0.8c15.97-0.1,31.95,0.33,47.93,0.23c24.64-0.16,49.28-0.72,73.92-0.84
	c50.57-0.24,101.14-0.2,151.7-0.45c27.6-0.14,55.19-0.75,82.79-0.93c42.47-0.28,84.93-0.44,127.4-0.54
	c28.65-0.06,57.3,0.08,85.95,0.13c8.62,0.01,11.99-2.48,14.08-10.94c0.71-2.87,0.96-5.92,0.96-8.9c0.05-18.81-0.06-37.62-0.06-56.44
	C1206.59,1411.99,1206.6,1361.68,1206.6,1311.37z M1204.3,474.61c-0.26,0-0.51,0-0.77,0c0-33.31,0.01-66.62,0-99.93
	c-0.01-29.82,0.06-59.64-0.12-89.45c-0.05-8.62-0.23-17.34-1.53-25.84c-1.07-6.96-3.97-8.45-11-7.58
	c-11.39,1.42-22.76,3.01-34.11,4.72c-17.9,2.7-35.76,5.71-53.67,8.31c-17.43,2.54-34.94,4.58-52.38,7.11
	c-32.27,4.67-64.5,9.57-96.76,14.3c-17.93,2.63-35.9,5.04-53.84,7.66c-23.53,3.44-47.03,7.12-70.57,10.48
	c-35.56,5.07-71.16,9.91-106.72,14.96c-11.69,1.66-23.3,3.81-34.99,5.44c-15.82,2.2-31.69,3.95-47.5,6.18
	c-16.29,2.3-32.51,5.12-48.81,7.42c-23.7,3.34-47.45,6.37-71.16,9.63c-22.26,3.06-44.49,6.32-66.74,9.39
	c-24.7,3.41-49.43,6.64-74.12,10.08c-6.71,0.94-8.23,2.96-8.25,9.52c-0.03,8.33-0.08,16.66-0.05,24.99
	c0.22,65.97,0.42,131.94,0.69,197.91c0.21,53.13,0.53,106.26,0.68,159.39c0.01,4.31,1.04,5.86,5.74,5.39
	c32.27-3.21,64.56-6.22,96.86-9.16c41.24-3.76,82.49-7.36,123.73-11.1c33.48-3.04,66.94-6.21,100.42-9.25
	c42.54-3.86,85.1-7.56,127.64-11.5c25.16-2.33,50.27-5.09,75.43-7.46c30.14-2.84,60.3-5.43,90.45-8.22
	c29.65-2.74,59.28-5.61,88.93-8.38c37.28-3.48,74.57-6.95,111.86-10.33c10.73-0.97,10.75-0.83,10.78-11.3c0-0.17,0.02-0.33,0.02-0.5
	c-0.03-33.31-0.07-66.62-0.09-99.93C1204.28,543.24,1204.3,508.92,1204.3,474.61z M1204.91,693.69c-3.48,0-5.81-0.19-8.1,0.03
	c-17.04,1.68-34.06,3.57-51.11,5.14c-35.94,3.3-71.9,6.36-107.84,9.68c-36.45,3.37-72.88,6.97-109.32,10.43
	c-31.47,2.99-62.95,6-94.43,8.89c-27.14,2.49-54.31,4.72-81.45,7.25c-31.97,2.98-63.91,6.23-95.88,9.22
	c-31.32,2.93-62.65,5.7-93.97,8.51c-19.56,1.75-39.12,3.42-58.67,5.19c-20.37,1.84-40.73,3.76-61.09,5.66
	c-21.04,1.96-42.06,4.02-63.11,5.85c-7.14,0.62-7.43,0-7.42,8.52c0.05,46.97,0.16,93.94,0.39,140.91
	c0.19,38.64,0.62,77.29,0.83,115.93c0.18,32.32,0.18,64.64,0.27,96.95c0.02,7.08,0.06,7.39,7.09,7.01c25.41-1.38,50.8-3,76.2-4.51
	c29.57-1.76,59.13-3.56,88.7-5.22c31.4-1.76,62.82-3.3,94.22-5.08c38.56-2.19,77.11-4.54,115.66-6.8
	c17.45-1.02,34.9-1.96,52.34-3.02c26.41-1.6,52.82-3.3,79.23-4.9c32.88-1.99,65.77-3.9,98.66-5.89
	c36.22-2.19,72.42-4.53,108.65-6.64c26.24-1.52,52.5-2.76,78.75-4.12c9.13-0.47,18.27-0.89,27.41-1.35
	c3.39-0.17,4.79-1.52,4.66-5.38c-0.37-11.58-0.2-23.19-0.2-34.78c0-29.58,0.09-59.16,0-88.74c-0.09-28.31-0.49-56.62-0.53-84.93
	c-0.07-49.64,0.03-99.28,0.05-148.93C1204.91,717.13,1204.91,705.68,1204.91,693.69z M1247.83,1167.65c0.25,0,0.5,0,0.75,0
	c0,15.66,0.01,31.31,0,46.97c-0.03,49.96-0.13,99.93-0.09,149.89c0.03,31.99,0.29,63.97,0.38,95.96
	c0.06,21.32,0.13,42.64-0.06,63.96c-0.07,7.34-4.18,11.56-11.26,13.13c-7.93,1.76-15.8,3.8-23.73,5.59
	c-5.65,1.28-11.33,3.26-17.02,3.34c-28.24,0.4-56.48,0.25-84.73,0.34c-33.98,0.12-67.96,0.26-101.95,0.45
	c-58.46,0.32-116.92,0.73-175.39,1c-33.81,0.16-67.63-0.01-101.44,0.25c-44.8,0.35-89.6,1.09-134.4,1.44
	c-49.64,0.39-99.28,0.51-148.91,0.79c-11.82,0.07-23.64,0.37-35.46,0.37c-3.65,0-5.44,1.25-4.78,4.97c1.18,6.69,1.75,13.6,3.9,19.97
	c3.74,11.1,10.15,15.09,21.95,15c8.49-0.07,16.98-0.46,25.46-0.57c30.95-0.42,61.91-0.75,92.87-1.19
	c41.11-0.58,82.22-1.28,123.33-1.83c30.64-0.41,61.28-0.67,91.93-0.95c27.63-0.25,55.27-0.44,82.9-0.66
	c33.13-0.27,66.27-0.52,99.4-0.86c31.44-0.32,62.88-0.76,94.32-1.12c23.77-0.28,47.55-0.56,71.32-0.78
	c30.15-0.28,60.31-0.49,90.46-0.74c21.66-0.18,43.32-0.35,64.97-0.56c7.08-0.07,12.57-3.06,17.33-8.4c6.91-7.75,9.05-17,9.07-26.77
	c0.09-55.64-0.05-111.28-0.1-166.92c-0.05-49.14-0.04-98.27-0.14-147.41c-0.05-25.97-0.33-51.93-0.44-77.9
	c-0.21-50.81-0.41-101.63-0.54-152.44c-0.12-45.65-0.1-91.29-0.23-136.94c-0.11-37.61-0.42-75.21-0.51-112.82
	c-0.06-24.47,0.23-48.95,0.18-73.42c-0.08-36.8-0.37-73.6-0.47-110.4c-0.07-24.32,0.17-48.65,0.04-72.97
	c-0.19-36.47-0.65-72.94-0.86-109.42c-0.29-50.11-0.3-100.22-0.89-150.33c-0.07-6.27-2.18-12.85-4.73-18.68
	c-4.91-11.19-11.87-14.25-22.56-12.29c-13.89,2.55-27.87,4.67-41.83,6.82c-14.76,2.27-29.57,4.28-44.33,6.56
	c-22.66,3.49-45.29,7.27-67.97,10.63c-40.63,6.01-81.3,11.71-121.92,17.73c-17.42,2.58-34.75,5.79-52.17,8.4
	c-22.67,3.4-45.41,6.39-68.09,9.71c-37.2,5.44-74.38,11.01-111.56,16.52c-26.97,4-53.94,8.04-80.93,11.95
	c-24.05,3.48-48.12,6.75-72.17,10.18c-33.93,4.84-67.84,9.76-101.76,14.62c-21.08,3.02-42.11,6.63-63.28,8.77
	c-13.54,1.37-21.16,8.39-25.43,20.35c-0.61,1.73-0.91,4.42,0.01,5.58c0.82,1.03,3.59,0.9,5.41,0.65
	c12.03-1.64,24.03-3.54,36.06-5.17c20.1-2.74,40.24-5.26,60.34-8.02c18.3-2.52,36.56-5.29,54.85-7.84
	c14.82-2.07,29.68-3.84,44.5-5.97c18.59-2.68,37.13-5.73,55.73-8.36c30.12-4.26,60.27-8.23,90.39-12.48
	c27.18-3.84,54.33-7.94,81.5-11.84c23.21-3.33,46.46-6.43,69.66-9.82c24.98-3.66,49.92-7.61,74.9-11.29
	c13.66-2.02,27.37-3.66,41.03-5.65c23.67-3.44,47.33-7.04,70.99-10.54c26.65-3.93,53.3-7.85,79.95-11.71
	c7.89-1.14,15.58-2.25,23.47,1.44c7.79,3.64,16.18,6.07,24.42,8.69c11.37,3.62,16.46,8.83,16.25,21.15
	c-0.32,18.66-0.21,37.32-0.11,55.99c0.23,39.98,0.64,79.95,0.84,119.93c0.11,22.99-0.15,45.97-0.05,68.96
	c0.24,51.47,0.74,102.94,0.87,154.41c0.12,46.46-0.22,92.92-0.13,139.38c0.07,39.65,0.55,79.29,0.66,118.94
	c0.12,43.14,0.02,86.28,0.02,129.42C1247.83,1097.73,1247.83,1132.69,1247.83,1167.65z M1239.68,696.02c-0.22,0-0.43,0-0.65,0
	c0-20.15,0.03-40.31-0.01-60.46c-0.13-73.3-0.25-146.61-0.45-219.91c-0.09-32.98-0.38-65.97-0.55-98.95
	c-0.07-13.66-0.01-27.32-0.13-40.98c-0.04-4.8-0.69-9.5-6.12-11.46c-4.69-1.69-9.36-3.5-14.16-4.82c-7-1.94-7.03-1.77-6.74,5.29
	c0.07,1.66-0.11,3.32-0.1,4.98c0.26,41.15,0.59,82.31,0.79,123.46c0.31,62.62,0.57,125.25,0.79,187.87
	c0.12,34.3,0.16,68.6,0.18,102.9c0.02,25.57-0.15,51.14-0.06,76.7c0.27,75.31,0.69,150.62,0.94,225.92
	c0.22,64.14,0.29,128.29,0.44,192.43c0.08,34.32,0.23,68.64,0.29,102.96c0.06,39.3,0.02,78.61,0.1,117.91
	c0.05,25.83,0.37,51.66,0.3,77.48c-0.05,17.64-0.49,35.28-0.92,52.92c-0.08,3.5,1.46,4.03,4.29,3.39c5.51-1.23,11.07-2.24,16.5-3.74
	c4.33-1.2,7.19-3.81,7.05-8.96c-0.28-10.65-0.36-21.31-0.37-31.97c-0.06-44.8-0.04-89.59-0.09-134.39
	c-0.06-48.64-0.17-97.28-0.25-145.92c-0.08-46.64-0.09-93.28-0.22-139.92c-0.19-66.95-0.46-133.9-0.68-200.85
	c-0.09-27.31-0.15-54.63-0.18-81.94C1239.66,755.99,1239.68,726,1239.68,696.02z"/>
<path d="M602.76,1329.04c-1.37,14.03-4.54,29.54-16.9,41.37c-10.26,9.83-26.64,12.49-38.5-0.48c-11.93-13.05-14-28.62-11.74-45.19
	c1.97-14.46,6.61-27.75,18.59-37.36c11.99-9.62,28.39-7.24,37.85,4.98C600.05,1302.67,602.58,1314.34,602.76,1329.04z
	 M597.7,1331.86c0.51-13.52-1.94-24.86-6.84-32.62c-9-14.27-23.89-18.23-36.92-4.62c-15.33,16.01-18.96,46.71-7.86,65.67
	c9.55,16.3,26.83,18.12,39.08,3.68C593.99,1353.55,597.21,1340.86,597.7,1331.86z"/>
<path d="M993.9,1321.36c-0.51,9.64-2.81,21.76-10.34,32.32c-13.4,18.8-37.96,18.54-48.74-1.66c-12.29-23.02-12.11-46.79,2.44-69.18
	c12.61-19.4,38.59-17.53,49.54,4.25C992.36,1298.15,993.86,1305.77,993.9,1321.36z M989.07,1323.01
	c0.02-20.39-4.27-33.04-12.18-41.34c-9.99-10.48-25.55-9.63-34.32,1.87c-13.87,18.18-15.54,45.55-4,65.51
	c9.97,17.25,30.3,17.76,41.36,1.18C986.55,1340.29,988.97,1329.31,989.07,1323.01z"/>
<path d="M599.46,546.95c-0.28,16.04-3.99,30.84-14.89,43.34c-12.09,13.86-32.82,12.64-43.3-2.62c-9.33-13.58-11.02-28.57-8.78-44.38
	c1.57-11.12,5.71-21.18,12.83-29.87c14.49-17.67,36.02-14.29,47.44,5.7C597.65,527.66,599.9,537,599.46,546.95z M594.87,549.96
	c0.01-15.13-2.82-25.82-10.65-34.8c-9-10.33-23.17-10.35-32.99-0.78c-15.75,15.35-20.48,48.61-7.49,68.55
	c9.5,14.57,25.13,16.1,36.39,4.76C591.41,576.33,594.25,561.75,594.87,549.96z"/>
<path d="M924.21,507.88c0.15-12.82,2.87-25.04,9.78-35.97c6.35-10.05,14.74-17.07,27.61-16.48c7.71,0.35,13.78,4.26,18.44,9.72
	c9.95,11.67,12.51,25.63,11.33,40.66c-0.92,11.69-4.01,22.59-10.56,32.28c-5.16,7.63-11.94,13.24-21.54,14.72
	c-13.26,2.04-21.54-5.11-27.77-15.3C926.01,528.53,923.88,518.44,924.21,507.88z M986.89,502.03c0.59-10.97-1.88-21.06-7.74-30.42
	c-8.76-13.99-25.9-15.47-36.73-3.08c-14.19,16.24-19.48,47.58-6.02,67.91c8.99,13.58,25.37,15.83,36.31,3.92
	C982.67,529.52,986.21,516.29,986.89,502.03z"/>
<path d="M486.19,460.57c-0.33,1.9-0.1,3.94-1.01,5.06c-1.55,1.91-3.68,4.22-5.82,4.52c-1.76,0.25-4.51-1.76-5.73-3.52
	c-2.96-4.26-2.04-8.93,0.57-13.05c2.42-3.83,8.63-2.91,10.53,1.47C485.51,456.84,485.76,458.86,486.19,460.57z M477.77,464.9
	c0.91-0.03,1.81-0.06,2.72-0.09c-0.14-2.71-0.28-5.43-0.42-8.14c-0.76,0.03-1.53,0.06-2.29,0.09
	C477.77,459.47,477.77,462.19,477.77,464.9z"/>
<path d="M601.66,940.7c-1.29,12.95-4.09,28.54-16.27,40.91c-12.14,12.32-30.01,11.43-40.98-1.97
	c-10.82-13.22-11.54-28.52-9.96-44.32c1.38-13.86,6.77-26.11,17.27-35.45c9.52-8.46,23.98-10.37,34.85-0.2
	C596.55,909.02,601.67,921.85,601.66,940.7z M538.39,946.17c-0.39,9.09,1.85,17.6,6.39,25.28c9.33,15.78,25.16,18.67,37.66,5.9
	c7.09-7.25,10.2-16.21,12.51-25.61c3.42-13.93,2.27-27.52-4.75-40.13c-8.86-15.89-25.43-18.23-37.24-6.03
	C541.94,916.96,538.74,931.06,538.39,946.17z"/>
<path d="M993.23,908.92c-0.17,14.14-3.63,27.11-11.89,38.56c-11.07,15.36-36.92,21.35-49.18-4.33
	c-10.81-22.65-9.84-45.67,4.38-66.89c9.73-14.52,26.96-17.88,40.05-8.55c8.14,5.8,11.69,14.74,13.95,24.06
	C991.92,897.37,992.37,903.19,993.23,908.92z M989.25,910.01c-1.52-7.42-2.41-15.04-4.7-22.21c-3.29-10.3-9.38-18.84-21.13-20.13
	c-11.83-1.3-20.49,5.02-25.31,15.07c-3.79,7.91-6.4,16.76-7.57,25.46c-1.59,11.81,0.68,23.32,6.49,34.2
	c9.24,17.3,28.52,16.11,38.97,3.94C984.84,936.06,987.85,923.55,989.25,910.01z"/>
<path class="st0" d="M477.77,464.9c0-2.71,0-5.42,0-8.14c0.76-0.03,1.53-0.06,2.29-0.09c0.14,2.71,0.28,5.43,0.42,8.14
	C479.58,464.84,478.67,464.87,477.77,464.9z"/>
<g>
	<g>
		<path d="M888.46,1694.59c-1.89,0-3.67,0.01-5.45,0c-2.08-0.01-2.08-0.02-2.08-2.07c0-10.78,0-21.55,0-32.33
			c0-1.38,0-1.38,1.33-1.38c5.53,0,11.05-0.06,16.58,0.03c2.6,0.04,5.24,0.08,7.74,1.03c3.28,1.24,5.25,3.64,6.13,6.96
			c0.83,3.12,0.68,6.21-0.61,9.2c-1.06,2.45-2.98,4.02-5.43,4.97c-2.84,1.09-5.83,1.01-8.79,1.08c-2.78,0.07-5.56,0.04-8.34,0
			c-0.83-0.01-1.11,0.22-1.1,1.07c0.04,3.42,0.02,6.84,0.02,10.26C888.46,1693.77,888.46,1694.11,888.46,1694.59z M894.16,1665.21
			c0-0.04,0-0.09,0-0.13c-1.63,0-3.26,0-4.89,0c-0.46,0-0.82,0.04-0.81,0.65c0.01,3.17-0.01,6.33,0.03,9.5
			c0,0.22,0.39,0.62,0.59,0.62c3.77-0.03,7.54,0,11.29-0.25c1.1-0.07,2.39-0.75,3.16-1.57c2.64-2.77,1.32-7.39-2.33-8.52
			c-0.42-0.13-0.87-0.26-1.31-0.27C897.99,1665.2,896.07,1665.21,894.16,1665.21z"/>
		<path d="M821.63,1694.56c-10.45-0.11-18.46-8.52-18.01-18.7c0.41-9.2,8.1-17.1,18.27-16.96c10.28,0.14,18.2,8.3,17.81,18.56
			C839.33,1687.21,831.35,1694.49,821.63,1694.56z M821.72,1665.77c-6.18-0.01-11.14,4.83-11.17,10.9c-0.03,6.07,5,11.1,11.11,11.11
			c6.1,0,11.13-4.93,11.17-10.95C832.88,1670.72,827.91,1665.78,821.72,1665.77z"/>
		<path d="M843.79,1676.62c0-5.5,0-11,0-16.5c0-1.29,0-1.29,1.23-1.29c5.53,0,11.05-0.06,16.58,0.03c2.67,0.04,5.37,0.07,7.93,1.08
			c3.71,1.48,5.65,4.36,6.26,8.18c0.38,2.35,0.28,4.72-0.52,7.01c-1.15,3.29-3.48,5.41-6.79,6.14c-2.53,0.55-5.18,0.68-7.78,0.81
			c-2.71,0.13-5.43,0.03-8.15,0.03c-1.27,0-1.28,0-1.28,1.24c0,3.42-0.02,6.84,0.01,10.27c0.01,0.75-0.2,1.01-0.97,0.99
			c-1.82-0.05-3.64-0.05-5.46,0.01c-0.86,0.03-1.08-0.28-1.08-1.11C843.81,1687.88,843.8,1682.25,843.79,1676.62z M856.99,1665.22
			c0-0.05,0-0.1,0-0.15c-1.63,0-3.26,0.01-4.88-0.01c-0.53-0.01-0.84,0.13-0.83,0.74c0.02,3.1,0.01,6.2,0,9.3
			c0,0.51,0.17,0.77,0.72,0.76c3.64-0.07,7.28,0,10.9-0.22c3.11-0.19,4.81-2.28,4.7-5.4c-0.02-0.69-0.05-1.48-0.38-2.05
			c-0.47-0.82-1.11-1.65-1.88-2.17c-0.7-0.48-1.66-0.72-2.53-0.77C860.89,1665.15,858.94,1665.22,856.99,1665.22z"/>
		<path d="M973.26,1694.42c-0.24,0.1-0.3,0.14-0.36,0.14c-5.68-0.05-11.39,0.2-17.04-0.26c-5.11-0.42-8.78-3.49-10.75-8.28
			c-1.9-4.64-1.81-9.48-1.04-14.35c0.43-2.72,1.31-5.28,2.99-7.48c2.31-3.01,5.52-4.66,9.19-4.93c5.02-0.37,10.08-0.32,15.12-0.42
			c1.9-0.04,1.9-0.01,1.88,1.85c-0.01,1.09-0.05,2.18,0.01,3.26c0.04,0.77-0.23,0.98-0.98,0.98c-3.83-0.03-7.67-0.03-11.5-0.01
			c-2.15,0.01-4.21,0.38-5.92,1.81c-1.91,1.59-2.5,3.79-2.7,6.14c-0.06,0.65,0.44,0.58,0.85,0.58c2.43,0,4.86,0,7.28,0.01
			c3.96,0.02,7.92,0.07,11.88,0.05c0.84,0,1.13,0.24,1.08,1.09c-0.07,1.31-0.07,2.62-0.01,3.93c0.04,0.83-0.29,1.01-1.05,1.01
			c-6.26-0.02-12.52-0.02-18.79-0.01c-1.37,0-1.46,0.02-1.28,1.38c0.18,1.32,0.4,2.68,0.9,3.9c0.93,2.26,2.89,3.23,5.2,3.53
			c1.1,0.14,2.23,0.22,3.34,0.22c3.58,0.03,7.16,0.02,10.74,0c0.69,0,0.97,0.17,0.95,0.91
			C973.22,1691.12,973.26,1692.78,973.26,1694.42z"/>
		<path d="M917.3,1658.88c2.5,0,4.88,0,7.37,0c0.02,0.42,0.06,0.82,0.06,1.22c0.01,7.04,0.01,14.07,0.03,21.11
			c0,0.51,0.05,1.02,0.08,1.53c0.22,4.16,2.9,5.79,6.29,5.99c3.19,0.18,6.39,0.09,9.58,0.11c1.43,0.01,1.43,0,1.43,1.47
			c0,1.18-0.02,2.37,0.01,3.55c0.01,0.54-0.2,0.74-0.73,0.73c-4.6-0.07-9.21,0.08-13.79-0.25c-5.49-0.39-9.85-4.83-10.13-10.58
			c-0.15-3.03-0.17-6.07-0.19-9.11c-0.03-4.83-0.01-9.66-0.01-14.49C917.3,1659.76,917.3,1659.35,917.3,1658.88z"/>
	</g>
	<g>
		<path d="M669.42,1688.33c0,4.23-0.03,8.46,0.02,12.69c0.02,1.04-0.32,1.32-1.31,1.26c-1.22-0.08-2.45-0.06-3.67,0
			c-0.78,0.04-1.03-0.22-1.02-1.01c0.04-3.36,0.02-6.71,0.01-10.07c0-0.34,0.16-0.77-0.18-0.98c-0.44-0.27-0.67,0.23-0.95,0.43
			c-10.27,7.28-24.7,1.33-26.69-11.1c-1.5-9.32,4.28-18.21,14.37-19.64c9.15-1.3,17.61,4.9,19.19,13.96
			c0.32,1.85,0.19,3.69,0.21,5.54C669.45,1682.38,669.42,1685.36,669.42,1688.33z M663.32,1676.78c0.1-5.57-4.81-10.78-10.6-10.87
			c-6.44-0.1-11.24,4.73-11.18,10.85c0.06,6.28,4.79,10.91,10.98,10.93C658.65,1687.72,663.3,1682.57,663.32,1676.78z"/>
		<path d="M707.57,1684.27c0,2.87-0.02,5.73,0.02,8.6c0.01,0.66-0.13,0.97-0.85,0.95c-1.43-0.03-2.87-0.03-4.3,0
			c-0.7,0.02-0.93-0.3-0.9-0.95c0.03-0.66,0.01-1.33,0-1.99c0-0.24,0.09-0.55-0.13-0.68c-0.3-0.18-0.51,0.13-0.72,0.28
			c-2.6,1.89-5.49,2.97-8.7,3.27c-8.75,0.84-16.96-5.63-18.23-14.34c-1.37-9.44,4.53-18.13,14.31-19.48
			c11.11-1.53,19.5,7.19,19.5,16.68C707.57,1679.17,707.57,1681.72,707.57,1684.27z M690.56,1665.94
			c-6.26-0.04-10.79,4.7-10.87,10.66c-0.09,6.26,4.88,11.13,10.89,11.11c5.95-0.03,10.81-4.73,10.89-10.92
			C701.53,1670.92,696.43,1665.79,690.56,1665.94z"/>
		<path d="M764.04,1683.45c0,3.52-0.02,6.42,0.02,9.32c0.01,0.76-0.2,1.07-1,1.04c-1.36-0.05-2.73-0.04-4.09,0
			c-0.75,0.02-0.99-0.29-0.95-1c0.04-0.63,0.02-1.26,0-1.89c-0.01-0.26,0.1-0.61-0.2-0.76s-0.5,0.18-0.71,0.33
			c-3.1,2.22-6.56,3.34-10.38,3.3c-8.29-0.09-15.39-6.42-16.54-14.64c-1.25-8.9,4.3-17.85,14.36-19.24
			c9.88-1.36,17.93,5.5,19.26,14.2C764.32,1677.43,763.9,1680.76,764.04,1683.45z M757.93,1676.74
			c-0.04-6.01-5.18-10.86-10.98-10.83c-6.14,0.03-10.94,4.96-10.83,11.02c0.12,6.06,4.86,10.73,10.94,10.78
			C752.77,1687.75,757.84,1683.09,757.93,1676.74z"/>
		<path d="M632.92,1693.76c-3.01,0-3.02,0-4.11-2.88c-3.7-9.82-7.46-19.62-11.05-29.48c-1.72-4.73-7.14-5.09-9.69-2.23
			c-0.7,0.78-1.04,1.72-1.4,2.67c-0.77,2.01-1.54,4.02-2.26,6.05c-0.27,0.75-0.66,1.31-1.33,1.79c-3.03,2.18-4.27,5.67-3.38,9.32
			c0.14,0.56,0.1,1.05-0.11,1.61c-1.58,4.09-3.13,8.18-4.64,12.29c-0.24,0.65-0.57,0.88-1.21,0.87c-1.33-0.02-2.66,0-3.99-0.01
			c-1.24-0.01-1.43-0.28-0.98-1.47c2.22-5.89,4.45-11.77,6.68-17.66c1.93-5.11,3.85-10.22,5.78-15.33c1.66-4.41,4.73-7.22,9.47-7.8
			c5.19-0.65,9.26,1.33,11.8,5.94c1.37,2.49,2.11,5.28,3.12,7.95c3.37,8.94,6.74,17.89,10.11,26.84c0.57,1.52,0.55,1.54-1.1,1.54
			C634.04,1693.76,633.48,1693.76,632.92,1693.76z"/>
		<path d="M711.7,1683.9c0-2.62-0.09-5.24,0.02-7.86c0.35-8.89,7.37-15.86,16.27-16.27c0.76-0.04,1,0.21,0.98,0.93
			c-0.03,1.4-0.04,2.8,0,4.19c0.02,0.69-0.24,0.88-0.91,0.92c-5.98,0.43-10.36,5.16-10.39,11.19c-0.02,5.24-0.02,10.48,0.02,15.72
			c0.01,0.89-0.27,1.15-1.13,1.11c-1.29-0.06-2.59-0.06-3.88,0c-0.79,0.03-1.03-0.26-1.02-1.02c0.03-2.97,0.01-5.94,0.01-8.91
			C711.69,1683.9,711.69,1683.9,711.7,1683.9z"/>
		<path d="M608.17,1682.54c-3.1-0.01-5.75-2.68-5.72-5.76c0.03-3.11,2.72-5.75,5.8-5.7c3.14,0.05,5.74,2.69,5.71,5.78
			C613.93,1679.98,611.32,1682.54,608.17,1682.54z"/>
	</g>
	<line class="st1" x1="785.23" y1="1651.05" x2="785.29" y2="1697.23"/>
</g>
</svg>
