<?xml version="1.0" encoding="utf-8"?>
<!-- Generator: Adobe Illustrator 24.0.1, SVG Export Plug-In . SVG Version: 6.00 Build 0)  -->
<svg version="1.1" id="Laag_1" xmlns="http://www.w3.org/2000/svg" xmlns:xlink="http://www.w3.org/1999/xlink" x="0px" y="0px"
	 viewBox="0 0 468.96 456.24" style="enable-background:new 0 0 468.96 456.24;" xml:space="preserve">
<style type="text/css">
	.st0{fill:#FC0404;}
	.st1{fill:#030303;}
	.st2{fill:none;stroke:#000000;stroke-width:3;stroke-miterlimit:10;}
	.st3{fill:#0066FF;}
	.st4{fill:none;stroke:#000000;stroke-width:5;stroke-miterlimit:10;}
</style>
<path class="st0" d="M214.21,0.15c-0.16-0.04-0.32-0.08-0.47-0.13c19.59,0,39.18,0,58.76,0c-0.28,0.21-0.61,0.14-0.93,0.14
	C252.45,0.16,233.33,0.15,214.21,0.15z"/>
<path class="st0" d="M468.81,385.62c0.04-0.15,0.08-0.3,0.13-0.44c0,10.4,0,20.8,0,31.2c-0.21-0.28-0.14-0.61-0.14-0.93
	C468.8,405.51,468.81,395.56,468.81,385.62z"/>
<path class="st0" d="M429.6,0.02c-0.15,0.04-0.3,0.08-0.46,0.13c-5.7,0-11.39,0.01-17.08,0.01c-0.31,0-0.64,0.08-0.92-0.14
	C417.29,0.02,423.45,0.02,429.6,0.02z"/>
<path class="st1" d="M431.03,174.85c-5.18,5.32-9.98,11.01-15.52,15.98c-0.5,0.45-1.01,0.91-1.53,1.34
	c-4.74,3.87-6.47,9.06-6.44,14.96c0.06,11.43,0.08,22.86,0.3,34.28c0.21,10.63,0.11,21.26,0.22,31.89
	c0.04,3.39,0.33,6.77,1.26,10.06c1.44,5.1,4.71,8.77,8.9,11.79c3.67,2.65,6.79,5.93,9.9,9.2c1.23,1.3,0.99,3.03,1.36,4.6
	c-2.37-0.06-4.34-0.73-6.14-2.39c-4.32-3.97-8.86-7.7-12.81-12.07c-3.11-3.45-5.68-7.22-6.48-11.89c-0.49-2.87-0.31-5.81-0.43-8.72
	c-0.57-14.54-0.31-29.09-0.5-43.63c-0.09-7.03-0.32-14.05-0.36-21.08c-0.02-2.86,0.06-5.74,0.5-8.59c0.61-3.88,2.78-6.84,5.43-9.59
	c5.44-5.63,11.25-10.89,16.95-16.25C427.65,172.88,429.22,172.96,431.03,174.85z"/>
<path class="st1" d="M64.97,221.73c-0.3,10.18-0.68,19.63-0.83,29.09c-0.13,8.59-0.42,17.18-0.25,25.77
	c0.08,3.8-0.27,7.55-1.87,11.09c-1.22,2.72-3.01,5.01-5.38,6.76c-4.47,3.32-8.41,7.24-12.51,10.98c-0.71,0.65-1.45,1.25-2.11,1.94
	c-0.91,0.95-2.15,0.95-3.29,1.22c-0.43,0.11-0.39-0.19-0.38-0.5c0.05-1.56,0.44-2.87,1.62-4.07c4.23-4.3,8.4-8.64,13.13-12.42
	c4-3.2,5.66-7.66,6.19-12.64c0.26-2.48,0.2-4.95,0.21-7.42c0.04-7.43,0.01-14.87,0.05-22.3c0.05-11.27,0.12-22.54,0.21-33.82
	c0.02-2.31,0.18-4.62,0.27-6.94c0.29-7.83-3.03-13.95-8.9-18.87c-5.08-4.26-9.86-8.86-14.76-13.33c-0.35-0.32-0.4-0.53-0.13-0.87
	c0.02-0.03,0.03-0.08,0.06-0.1c0.55-0.55,0.69-1.78,1.46-1.73c1.47,0.1,3.08,0.27,4.23,1.36c6.68,6.3,13.61,12.35,19.52,19.43
	c2.07,2.49,2.97,5.44,3.26,8.56C65.38,209.42,64.89,215.94,64.97,221.73z"/>
<g>
	<g>
		<path d="M288.11,305.12c-0.94,0-1.83,0-2.72,0c-1.04-0.01-1.04-0.01-1.04-1.03c0-5.37,0-10.75,0-16.12c0-0.69,0-0.69,0.66-0.69
			c2.76,0,5.51-0.03,8.27,0.02c1.3,0.02,2.61,0.04,3.86,0.51c1.64,0.62,2.62,1.82,3.06,3.47c0.41,1.56,0.34,3.1-0.3,4.59
			c-0.53,1.22-1.48,2.01-2.71,2.48c-1.41,0.54-2.91,0.51-4.39,0.54c-1.38,0.03-2.77,0.02-4.16,0c-0.41-0.01-0.55,0.11-0.55,0.53
			c0.02,1.71,0.01,3.41,0.01,5.12C288.11,304.71,288.11,304.88,288.11,305.12z M290.96,290.47c0-0.02,0-0.04,0-0.07
			c-0.81,0-1.62,0-2.44,0c-0.23,0-0.41,0.02-0.41,0.32c0.01,1.58,0,3.16,0.02,4.74c0,0.11,0.19,0.31,0.3,0.31
			c1.88-0.02,3.76,0,5.63-0.13c0.55-0.04,1.19-0.38,1.58-0.78c1.32-1.38,0.66-3.69-1.16-4.25c-0.21-0.07-0.43-0.13-0.65-0.13
			C292.87,290.46,291.91,290.47,290.96,290.47z"/>
		<path d="M254.78,305.1c-5.21-0.06-9.21-4.25-8.98-9.32c0.2-4.59,4.04-8.53,9.11-8.46c5.13,0.07,9.08,4.14,8.88,9.26
			C263.61,301.44,259.63,305.07,254.78,305.1z M254.83,290.75c-3.08-0.01-5.56,2.41-5.57,5.43c-0.01,3.03,2.5,5.54,5.54,5.54
			c3.04,0,5.55-2.46,5.57-5.46C260.4,293.22,257.92,290.75,254.83,290.75z"/>
		<path d="M265.84,296.16c0-2.74,0-5.49,0-8.23c0-0.64,0-0.64,0.61-0.64c2.76,0,5.51-0.03,8.27,0.01c1.33,0.02,2.68,0.03,3.95,0.54
			c1.85,0.74,2.82,2.18,3.12,4.08c0.19,1.17,0.14,2.35-0.26,3.5c-0.57,1.64-1.73,2.7-3.39,3.06c-1.26,0.28-2.58,0.34-3.88,0.4
			c-1.35,0.06-2.71,0.01-4.06,0.02c-0.63,0-0.64,0-0.64,0.62c0,1.71-0.01,3.41,0.01,5.12c0,0.37-0.1,0.5-0.49,0.49
			c-0.91-0.02-1.82-0.02-2.72,0.01c-0.43,0.01-0.54-0.14-0.54-0.55C265.85,301.77,265.84,298.96,265.84,296.16z M272.42,290.48
			c0-0.02,0-0.05,0-0.07c-0.81,0-1.62,0.01-2.44,0c-0.27,0-0.42,0.06-0.42,0.37c0.01,1.55,0.01,3.09,0,4.64
			c0,0.25,0.08,0.39,0.36,0.38c1.81-0.03,3.63,0,5.44-0.11c1.55-0.09,2.4-1.14,2.35-2.7c-0.01-0.35-0.03-0.74-0.19-1.02
			c-0.23-0.41-0.55-0.82-0.94-1.08c-0.35-0.24-0.83-0.36-1.26-0.38C274.36,290.44,273.39,290.48,272.42,290.48z"/>
		<path d="M330.4,305.03c-0.12,0.05-0.15,0.07-0.18,0.07c-2.83-0.03-5.68,0.1-8.5-0.13c-2.55-0.21-4.38-1.74-5.36-4.13
			c-0.95-2.32-0.9-4.73-0.52-7.16c0.21-1.36,0.65-2.63,1.49-3.73c1.15-1.5,2.75-2.33,4.58-2.46c2.51-0.18,5.03-0.16,7.54-0.21
			c0.95-0.02,0.95-0.01,0.94,0.92c0,0.54-0.02,1.09,0.01,1.63c0.02,0.38-0.11,0.49-0.49,0.49c-1.91-0.01-3.82-0.01-5.74,0
			c-1.07,0.01-2.1,0.19-2.95,0.9c-0.95,0.79-1.25,1.89-1.35,3.06c-0.03,0.32,0.22,0.29,0.43,0.29c1.21,0,2.42,0,3.63,0
			c1.98,0.01,3.95,0.03,5.93,0.02c0.42,0,0.56,0.12,0.54,0.54c-0.03,0.65-0.04,1.31,0,1.96c0.02,0.42-0.15,0.5-0.53,0.5
			c-3.12-0.01-6.25-0.01-9.37-0.01c-0.68,0-0.73,0.01-0.64,0.69c0.09,0.66,0.2,1.33,0.45,1.94c0.46,1.13,1.44,1.61,2.59,1.76
			c0.55,0.07,1.11,0.11,1.67,0.11c1.78,0.01,3.57,0.01,5.35,0c0.34,0,0.48,0.09,0.47,0.46C330.39,303.39,330.4,304.21,330.4,305.03z
			"/>
		<path d="M302.5,287.31c1.25,0,2.43,0,3.68,0c0.01,0.21,0.03,0.41,0.03,0.61c0.01,3.51,0.01,7.02,0.01,10.53
			c0,0.25,0.02,0.51,0.04,0.76c0.11,2.08,1.44,2.89,3.14,2.99c1.59,0.09,3.19,0.04,4.78,0.06c0.72,0,0.72,0,0.72,0.73
			c0,0.59-0.01,1.18,0,1.77c0.01,0.27-0.1,0.37-0.36,0.36c-2.29-0.04-4.59,0.04-6.88-0.12c-2.74-0.19-4.91-2.41-5.05-5.28
			c-0.08-1.51-0.09-3.03-0.09-4.54c-0.01-2.41,0-4.82,0-7.23C302.5,287.75,302.5,287.55,302.5,287.31z"/>
	</g>
	<g>
		<path d="M178.88,302c0,2.11-0.02,4.22,0.01,6.33c0.01,0.52-0.16,0.66-0.65,0.63c-0.61-0.04-1.22-0.03-1.83,0
			c-0.39,0.02-0.51-0.11-0.51-0.5c0.02-1.67,0.01-3.35,0.01-5.02c0-0.17,0.08-0.39-0.09-0.49c-0.22-0.13-0.34,0.12-0.47,0.22
			c-5.12,3.63-12.32,0.67-13.31-5.54c-0.75-4.65,2.13-9.08,7.16-9.79c4.56-0.65,8.78,2.44,9.57,6.96c0.16,0.92,0.09,1.84,0.1,2.76
			C178.89,299.03,178.88,300.51,178.88,302z M175.84,296.24c0.05-2.78-2.4-5.38-5.29-5.42c-3.21-0.05-5.6,2.36-5.57,5.41
			c0.03,3.13,2.39,5.44,5.48,5.45C173.51,301.69,175.83,299.13,175.84,296.24z"/>
		<path d="M197.9,299.97c0,1.43-0.01,2.86,0.01,4.29c0,0.33-0.07,0.48-0.42,0.47c-0.71-0.02-1.43-0.01-2.14,0
			c-0.35,0.01-0.46-0.15-0.45-0.48c0.01-0.33,0.01-0.66,0-0.99c0-0.12,0.04-0.27-0.06-0.34c-0.15-0.09-0.25,0.06-0.36,0.14
			c-1.3,0.94-2.74,1.48-4.34,1.63c-4.36,0.42-8.46-2.81-9.09-7.15c-0.69-4.71,2.26-9.04,7.14-9.71c5.54-0.76,9.73,3.58,9.72,8.32
			C197.9,297.43,197.9,298.7,197.9,299.97z M189.42,290.83c-3.12-0.02-5.38,2.34-5.42,5.32c-0.04,3.12,2.43,5.55,5.43,5.54
			c2.97-0.01,5.39-2.36,5.43-5.45C194.89,293.32,192.35,290.75,189.42,290.83z"/>
		<path d="M226.07,299.57c0,1.76-0.01,3.2,0.01,4.65c0,0.38-0.1,0.53-0.5,0.52c-0.68-0.03-1.36-0.02-2.04,0
			c-0.38,0.01-0.5-0.15-0.47-0.5c0.02-0.31,0.01-0.63,0-0.94c0-0.13,0.05-0.31-0.1-0.38c-0.15-0.07-0.25,0.09-0.35,0.16
			c-1.55,1.11-3.27,1.67-5.18,1.64c-4.14-0.04-7.67-3.2-8.25-7.3c-0.62-4.44,2.14-8.9,7.16-9.59c4.93-0.68,8.94,2.74,9.6,7.08
			C226.21,296.56,225.99,298.22,226.07,299.57z M223.02,296.22c-0.02-3-2.58-5.41-5.47-5.4c-3.06,0.01-5.46,2.48-5.4,5.5
			c0.06,3.02,2.42,5.35,5.45,5.38C220.45,301.71,222.97,299.38,223.02,296.22z"/>
		<path d="M160.68,304.71c-1.5,0-1.51,0-2.05-1.44c-1.84-4.9-3.72-9.78-5.51-14.7c-0.86-2.36-3.56-2.54-4.83-1.11
			c-0.35,0.39-0.52,0.86-0.7,1.33c-0.38,1-0.77,2.01-1.13,3.02c-0.13,0.37-0.33,0.65-0.66,0.89c-1.51,1.09-2.13,2.83-1.69,4.65
			c0.07,0.28,0.05,0.53-0.06,0.8c-0.79,2.04-1.56,4.08-2.32,6.13c-0.12,0.32-0.28,0.44-0.6,0.43c-0.66-0.01-1.32,0-1.99,0
			c-0.62,0-0.71-0.14-0.49-0.73c1.11-2.94,2.22-5.87,3.33-8.81c0.96-2.55,1.92-5.1,2.88-7.64c0.83-2.2,2.36-3.6,4.72-3.89
			c2.59-0.32,4.62,0.66,5.88,2.96c0.68,1.24,1.05,2.63,1.56,3.96c1.68,4.46,3.36,8.92,5.04,13.38c0.28,0.76,0.27,0.77-0.55,0.77
			C161.24,304.71,160.96,304.71,160.68,304.71z"/>
		<path d="M199.97,299.79c0-1.31-0.04-2.61,0.01-3.92c0.17-4.43,3.68-7.91,8.11-8.12c0.38-0.02,0.5,0.1,0.49,0.46
			c-0.02,0.7-0.02,1.39,0,2.09c0.01,0.34-0.12,0.44-0.45,0.46c-2.98,0.22-5.17,2.57-5.18,5.58c-0.01,2.61-0.01,5.23,0.01,7.84
			c0,0.44-0.14,0.58-0.57,0.56c-0.64-0.03-1.29-0.03-1.93,0c-0.39,0.02-0.51-0.13-0.51-0.51c0.02-1.48,0.01-2.96,0.01-4.44
			C199.96,299.79,199.96,299.79,199.97,299.79z"/>
		<path d="M148.33,299.11c-1.55-0.01-2.87-1.34-2.85-2.87c0.02-1.55,1.36-2.87,2.89-2.84c1.57,0.03,2.86,1.34,2.85,2.88
			C151.2,297.84,149.9,299.11,148.33,299.11z"/>
	</g>
	<line class="st2" x1="236.64" y1="283.41" x2="236.66" y2="306.44"/>
</g>
<g>
	<path class="st3" d="M384.5,112.56c0,3.85-3.15,7-7,7h-33.62c-3.85,0-7-3.15-7-7V65.06c0-3.85,3.15-7,7-7h33.62c3.85,0,7,3.15,7,7
		V112.56z"/>
	<path class="st2" d="M384.5,112.56c0,3.85-3.15,7-7,7h-33.62c-3.85,0-7-3.15-7-7V65.06c0-3.85,3.15-7,7-7h33.62c3.85,0,7,3.15,7,7
		V112.56z"/>
</g>
<path class="st1" d="M362.61,98.42c1.55,0.04,2.97-0.17,4.33-0.67c0.64-0.24,0.86-0.08,1.03,0.57c0.45,1.7,0.49,1.74-1.23,2.15
	c-2.63,0.62-5.28,0.84-7.94,0.21c-5.21-1.23-8.09-4.71-8.69-10.49c-0.68-6.58,2.99-11.93,9.24-13.46c2.86-0.7,5.7-0.4,8.52,0.28
	c0.39,0.09,0.59,0.17,0.38,0.6c-0.04,0.07-0.03,0.16-0.06,0.23c-0.19,0.65-0.22,1.45-0.63,1.88c-0.19,0.21-1.11-0.32-1.71-0.43
	c-3.73-0.7-7.23-0.48-10.11,2.42c-3.65,3.66-3.93,14.26,3.78,16.34C360.57,98.32,361.63,98.49,362.61,98.42z"/>
<g>
	<path class="st4" d="M466.71,447.14c0,2.75-2.25,5-5,5H7.82c-2.75,0-5-2.25-5-5V7.46c0-2.75,2.25-5,5-5h453.89c2.75,0,5,2.25,5,5
		V447.14z"/>
</g>
<g>
	<path class="st4" d="M456.12,436.64c0,2.75-2.25,5-5,5H17.45c-2.75,0-5-2.25-5-5V17.02c0-2.75,2.25-5,5-5h433.67c2.75,0,5,2.25,5,5
		V436.64z"/>
</g>
<g>
	<path class="st2" d="M216.62,429.02c0,3.94-3.6,7.17-8,7.17h-59.77c-4.4,0-8-3.22-8-7.17c0-3.94,3.6-7.17,8-7.17h59.77
		C213.02,421.86,216.62,425.08,216.62,429.02z"/>
</g>
</svg>
