<?xml version="1.0" encoding="utf-8"?>
<!-- Generator: Adobe Illustrator 24.2.1, SVG Export Plug-In . SVG Version: 6.00 Build 0)  -->
<svg version="1.1" id="Laag_1" xmlns="http://www.w3.org/2000/svg" xmlns:xlink="http://www.w3.org/1999/xlink" x="0px" y="0px"
	 viewBox="0 0 664.56 703.97" style="enable-background:new 0 0 664.56 703.97;" xml:space="preserve">
<style type="text/css">
	.st0{fill:none;stroke:#000000;stroke-width:5;stroke-linecap:round;stroke-linejoin:round;stroke-miterlimit:10;}
	.st1{fill:none;stroke:#000000;stroke-width:10;stroke-linecap:round;stroke-linejoin:round;stroke-miterlimit:10;}
	.st2{stroke:#000000;stroke-miterlimit:10;}
</style>
<path class="st0" d="M171.93,116.89c-1.27,0.12-3.03-0.53-3.84-1.51c-0.45-0.54-0.77-1.19-1-1.86c-0.12-0.36-0.21-0.72-0.26-1.09
	c-0.06-0.39-0.08-0.79-0.08-1.19l0.08-13.28"/>
<path class="st0" d="M157.65,93.48l-0.1,18.49c-0.01,1.55-0.48,3.12-1.41,4.36c-0.41,0.55-0.91,1.03-1.49,1.39
	c-0.29,0.17-0.59,0.32-0.91,0.42c-0.29,0.1-0.59,0.16-0.89,0.18l-4.51,0.35l-0.06,8.96l4.51-0.34c1.26-0.12,2.48,0.53,3.28,1.5
	c0.45,0.54,0.77,1.19,0.99,1.86c0.12,0.36,0.21,0.72,0.26,1.09c0.06,0.39,0.08,0.79,0.08,1.18l-0.1,15.58"/>
<path class="st0" d="M166.58,139.36l0.04-7.12c0.01-1.56,0.49-3.13,1.41-4.36c0.41-0.55,0.91-1.03,1.5-1.39
	c0.29-0.18,0.6-0.32,0.92-0.42c0.29-0.1,0.6-0.16,0.9-0.18"/>
<path class="st0" d="M231.09,121.36l-1.17,0.09c-1.37,0.1-2.59,0.94-3.42,2.04c-0.46,0.61-0.81,1.31-1.05,2.04
	c-0.12,0.38-0.22,0.76-0.28,1.15c-0.07,0.4-0.1,0.81-0.1,1.22l-0.04,8.02"/>
<path class="st0" d="M215.53,144.62l0.08-16.02c0.01-1.5-0.43-3.06-1.39-4.2c-0.42-0.5-0.93-0.91-1.51-1.18
	c-0.3-0.13-0.61-0.23-0.93-0.29c-0.3-0.05-0.61-0.07-0.92-0.05l-4.63,0.35v-0.01l0.05-9.04l0.04-0.04l4.59-0.36
	c1.37-0.1,2.57-0.94,3.39-2.04c0.46-0.61,0.8-1.31,1.04-2.04c0.12-0.37,0.22-0.76,0.28-1.15c0.06-0.4,0.1-0.81,0.1-1.21l0.08-18.74"
	/>
<path class="st0" d="M354.5,112.02l-2.44,0.18c-1.44,0.11-2.72,0.96-3.61,2.1c-0.49,0.63-0.85,1.35-1.1,2.1
	c-0.13,0.39-0.23,0.78-0.3,1.18c-0.07,0.41-0.1,0.83-0.1,1.25l-0.03,9.74"/>
<path class="st0" d="M347.05,80.81l-0.04,16.15c-0.01,1.55,0.48,3.16,1.49,4.32c0.45,0.51,1,0.94,1.61,1.2
	c0.32,0.14,0.65,0.23,0.99,0.29c0.32,0.05,0.65,0.07,0.98,0.04l3.19-0.25"/>
<path class="st0" d="M336.9,136.06l0.05-16.47c0.01-1.55-0.47-3.15-1.49-4.32c-0.44-0.51-0.99-0.94-1.6-1.21
	c-0.31-0.14-0.65-0.23-0.98-0.29c-0.32-0.05-0.65-0.07-0.97-0.04l-4.9,0.37l0.03-9.34l4.9-0.38c1.43-0.11,2.7-0.96,3.58-2.1
	c0.48-0.63,0.85-1.34,1.1-2.1c0.13-0.39,0.23-0.78,0.29-1.18c0.07-0.41,0.1-0.83,0.1-1.25l0.05-19.12"/>
<path class="st0" d="M291.92,116.76l-1.79,0.14c-1.41,0.1-2.65,0.95-3.51,2.07c-0.47,0.62-0.83,1.33-1.08,2.07
	c-0.13,0.38-0.22,0.77-0.29,1.17c-0.07,0.41-0.1,0.82-0.1,1.23l-0.03,8.89"/>
<path class="st0" d="M275.38,140.71c-0.01-0.1-0.01-0.21-0.01-0.31"/>
<path class="st0" d="M275.37,140.4l0.07-16.24c0.01-1.52-0.45-3.1-1.44-4.26c-0.43-0.5-0.96-0.92-1.56-1.19
	c-0.31-0.14-0.63-0.23-0.96-0.29c-0.31-0.05-0.63-0.07-0.94-0.04l-4.76,0.36l0.04-9.21l4.76-0.37c1.4-0.11,2.63-0.95,3.48-2.07
	c0.47-0.62,0.82-1.32,1.07-2.07c0.13-0.38,0.22-0.77,0.29-1.17c0.07-0.41,0.1-0.82,0.1-1.23l0.07-19.02"/>
<path class="st0" d="M333.58,137.88c-25.85-9.91-18.87-58.13,8.56-60.43"/>
<path class="st0" d="M280.53,82.61c0.16-0.01,0.31-0.02,0.47-0.03"/>
<path class="st0" d="M271.94,142.11c-24.87-10.01-18.02-57.27,8.59-59.5"/>
<path class="st0" d="M212,146.23c-23.92-10.11-17.22-56.43,8.62-58.6"/>
<path class="st0" d="M153.69,150.22c-22.72-10.08-16.66-54.61,7.96-57.64"/>
<path class="st1" d="M93.13,681.07l292.05,16.45c9.86,0.42,19.37,1.28,29.14,1.43c8.62,0.13,17.43-0.28,25.64-2.71
	c11.68-3.45,22.15-10.96,30.24-20.43c8.88-10.4,14.89-23.16,18.03-36.56c2.44-10.4,3.15-21.18,3.43-31.9
	c0.32-12.34,0.08-24.6,0.17-36.97l-0.08-442.69c-0.09-12.13,0.13-24.17-0.19-36.28c-0.28-10.45-0.96-20.94-3.4-31.07
	c-3.09-12.88-9.02-25.15-17.81-34.94c-8.02-8.93-18.43-15.78-29.84-18.62c-8.16-2.04-16.83-2.02-25.29-1.53
	c-9.65,0.57-19.03,1.76-28.76,2.61L97.99,36.31c-8.38,1.01-16.57,1.43-24.85,2.62c-7.32,1.05-14.71,2.71-21.37,5.84
	C41.82,49.45,33.48,57.41,27,66.6c-7.18,10.19-12.08,21.89-14.7,34.1c-1.99,9.26-2.67,18.82-2.99,28.32
	c-0.36,10.84-0.25,21.6-0.44,32.48L5.21,557.2c-0.01,11.05-0.33,22-0.17,33.02c0.14,9.63,0.64,19.32,2.49,28.74
	c2.4,12.24,7.08,24.02,14.23,34.21c6.39,9.1,14.74,16.93,24.68,21.28c6.74,2.95,14.21,4.29,21.56,5.04
	C76.4,680.33,84.64,680.42,93.13,681.07z"/>
<path class="st0" d="M355.3,104.04c0.04-15.63-9.76-32.73-27.06-30.46c-16.05,2.11-24.97,19.72-25.01,34.53
	c-0.04,15.63,9.76,32.73,27.06,30.46C346.33,136.46,355.26,118.85,355.3,104.04z"/>
<path class="st0" d="M292.71,108.89c0.06-15.23-9.27-32.33-26.29-30.06c-15.73,2.1-24.28,19.61-24.33,34.02
	c-0.06,15.23,9.27,32.33,26.29,30.06C284.11,140.81,292.65,123.3,292.71,108.89z"/>
<path class="st0" d="M231.87,113.61c0.07-14.84-8.81-31.94-25.55-29.67c-15.42,2.09-23.61,19.5-23.67,33.52
	c-0.07,14.84,8.81,31.94,25.55,29.67C223.61,145.04,231.8,127.63,231.87,113.61z"/>
<path class="st0" d="M172.7,118.19c0.09-14.46-8.36-31.55-24.84-29.29c-15.12,2.08-22.96,19.39-23.05,33.04
	c-0.09,14.46,8.37,31.56,24.84,29.29C164.77,149.15,172.61,131.84,172.7,118.19z"/>
<path class="st0" d="M105.45,556.58c0.12-16.3-8.78-37.69-27.59-38.41c-19.18-0.74-28.56,20.48-28.68,36.99
	c-0.12,16.31,8.78,37.7,27.59,38.42C95.94,594.3,105.33,573.09,105.45,556.58z"/>
<path class="st0" d="M231.86,112.94l-2.78-0.64l-0.04-0.02c-0.32-0.06-0.64-0.15-0.94-0.28c-0.59-0.26-1.1-0.68-1.52-1.18
	c-0.97-1.14-1.41-2.7-1.4-4.2l0.07-14.26"/>
<path class="st0" d="M292.71,108.46l-3.45-0.85l-0.04-0.02c-0.33-0.06-0.66-0.15-0.96-0.29c-0.6-0.27-1.13-0.69-1.57-1.19
	c-0.99-1.15-1.46-2.73-1.45-4.26l0.06-15.21"/>
<path class="st1" d="M573.32,678.89c11.07-2.07,22.13-4.15,33.2-6.22c8.29-1.41,16.15-4.94,22.98-9.91
	c7.15-5.2,13.17-11.98,17.79-19.65c4.55-7.54,7.74-15.93,9.59-24.55c2.21-10.26,2.54-20.86,2.64-31.42
	c0.07-6.77,0.04-13.52,0.02-20.28c-0.49-138.68-0.95-277.42-1.43-416.11c-0.01-2.85-0.02-5.7-0.03-8.55
	c-0.03-6.3-0.06-12.61-0.26-18.9c-0.11-3.62-0.28-7.23-0.61-10.84c-0.68-7.62-2.04-15.22-4.52-22.43
	c-2.18-6.33-5.22-12.36-9.06-17.81c-3.93-5.59-8.7-10.57-14.15-14.59c-5.11-3.77-10.82-6.7-16.9-8.39l-33.13-9.6"/>
<path class="st0" d="M442.52,7.3l136.91,32.4c9.69,3.34,17.28,8.41,24.18,16.15l-0.01,0.01c1.92,2.1,3.7,4.3,5.36,6.62l0.02-0.01
	c1.72,2.4,3.27,4.88,4.68,7.48l-0.02,0.01c4.69,8.78,7.56,17.7,8.89,27.62c1.1,8.27,1.64,16.51,1.63,24.86
	c0.01,0.34,0.01,0.68,0.01,1.03c0.13,9.14,0.12,18.27,0.14,27.41v0.02l1.14,410.41c0.05,18.13,1.09,36.16-1.5,54.33
	c-0.55,3.98-1.31,7.93-2.35,11.81c-1.03,3.87-2.33,7.67-3.9,11.34c-1.58,3.7-3.44,7.27-5.57,10.67c-2.11,3.38-4.48,6.6-7.09,9.6
	l-0.01-0.01c-1.9,2.18-3.9,4.23-6.05,6.16l0.01,0.01c-1.43,1.29-2.91,2.5-4.45,3.66c-2.51,1.88-5.11,3.53-7.88,4.98
	c-6.64,3.59-10.56,4.58-19.5,6.13L434.28,697.7"/>
<line class="st0" x1="281.07" y1="82.71" x2="280.53" y2="82.61"/>
<ellipse class="st0" cx="77.96" cy="453.45" rx="4.45" ry="6.01"/>
<g>
	<g>
		<path class="st2" d="M388.78,564.67c-8.23-0.12-15.08,8.22-15.35,18.71c0,0.06-0.41,15.98-0.48,18.72
			c-0.01,0.22,0.13,0.4,0.3,0.41l4.58,0.12c0.17,0,0.32-0.17,0.32-0.39l0.48-18.78c0.2-6.78,4.61-12.16,9.92-12.15
			c0,0,0.02,0,0.05,0c0.17,0.01,0.32-0.17,0.32-0.39l0.15-5.84C389.09,564.86,388.96,564.67,388.78,564.67z"/>
		<g>
			<path class="st2" d="M283.1,574.03c-3.14-0.09-5.77,2.82-5.87,6.48c-0.09,3.66,2.38,6.71,5.52,6.79
				c3.14,0.09,5.77-2.82,5.87-6.48C288.71,577.16,286.24,574.11,283.1,574.03z"/>
			<path class="st2" d="M391.15,577.56c-1.65,6.07-1.02,12.45,1.72,17.49c2.7,4.96,7.15,7.99,11.9,8.12
				c3.1,0.08,6.15-1.06,8.72-3.24c0.17-0.14,0.34-0.29,0.5-0.45c0.05-0.04,0.11-0.1,0.18-0.17c0.21-0.21,0.51-0.01,0.5,0.33
				l-0.09,3.39c-0.01,0.22,0.13,0.4,0.3,0.41l4.58,0.12c0.17,0,0.32-0.17,0.32-0.39l0.48-18.63c0-0.03,0-0.06,0-0.09
				c0.16-6.05-1.99-11.87-5.73-15.57c-3.81-3.76-8.78-4.91-13.63-3.13C396.36,567.43,392.71,571.84,391.15,577.56z M396.34,578.86
				c1-2.97,2.94-5.31,5.33-6.42c1.29-0.6,2.62-0.89,3.93-0.85c1.98,0.05,3.86,0.85,5.46,2.31c2.55,2.34,4.06,6.13,4.03,10.13
				l-0.01,0.45c-0.24,6.8-4.78,12.22-10.12,12.07c-3.24-0.09-6.22-2.21-7.97-5.68C395.2,587.33,394.97,582.95,396.34,578.86z"/>
			<path class="st2" d="M306.72,575.23c-1.7,6.07-1.05,12.45,1.79,17.5c2.78,4.96,7.37,8,12.26,8.13c3.19,0.09,6.34-1.06,8.99-3.24
				c0.13-0.11,0.26-0.22,0.38-0.33c0.03-0.03,0.16-0.14,0.31-0.28c0.22-0.2,0.53-0.01,0.52,0.33l-0.33,12.93
				c-0.01,0.22,0.13,0.4,0.31,0.41l4.72,0.13c0.18,0,0.33-0.17,0.33-0.39l0.72-28.1l0-0.06c0-0.03,0-0.06,0-0.09
				c0.16-6.05-2.05-11.88-5.91-15.58c-3.93-3.77-9.04-4.91-14.03-3.14C312.08,565.11,308.32,569.52,306.72,575.23z M312.07,576.53
				c1.03-2.97,3.02-5.31,5.48-6.42c1.33-0.6,2.69-0.89,4.04-0.85c2.04,0.06,3.98,0.86,5.62,2.32c2.63,2.34,4.18,6.13,4.16,10.14
				l-0.01,0.45c-0.24,6.8-4.91,12.22-10.41,12.07c-3.34-0.09-6.41-2.22-8.21-5.69C310.9,585,310.66,580.63,312.07,576.53z"/>
			<path class="st2" d="M340.82,576.01c-1.65,6.07-1.02,12.45,1.72,17.49c2.7,4.96,7.15,7.99,11.9,8.12
				c3.1,0.08,6.15-1.06,8.72-3.24c0.17-0.14,0.34-0.29,0.5-0.45c0.05-0.04,0.11-0.1,0.18-0.17c0.21-0.21,0.51-0.01,0.5,0.33
				l-0.09,3.39c-0.01,0.22,0.13,0.4,0.3,0.41l4.58,0.12c0.17,0,0.32-0.17,0.32-0.39l0.48-18.63c0-0.03,0-0.06,0-0.09
				c0.16-6.05-1.99-11.87-5.73-15.57c-3.81-3.76-8.78-4.91-13.63-3.13C346.04,565.88,342.38,570.29,340.82,576.01z M346.02,577.3
				c1-2.97,2.94-5.31,5.33-6.42c1.29-0.6,2.62-0.89,3.93-0.85c1.98,0.05,3.86,0.85,5.46,2.31c2.55,2.34,4.06,6.13,4.03,10.13
				l-0.01,0.45c-0.24,6.8-4.78,12.22-10.12,12.07c-3.24-0.09-6.22-2.21-7.97-5.68C344.87,585.77,344.64,581.4,346.02,577.3z"/>
			<path class="st2" d="M306.45,599.43l-9.98-38.53c-1.25-5.43-4.86-9.02-9.2-9.13c-4.34-0.12-8.13,3.26-9.65,8.61l-11.47,36.26
				l-0.43,1.38c-0.13,0.42,0.09,0.87,0.43,0.88l4.34,0.12c0.2,0.01,0.39-0.15,0.47-0.4l4.15-13.12l0.18-0.57l0.36-1.15
				c0.07-0.21,0.07-0.44,0.03-0.65c-0.2-0.96-0.3-1.97-0.28-3.02c0.09-3.63,1.66-6.77,3.91-8.47c0.15-0.11,0.27-0.28,0.33-0.49
				l0.22-0.68l0,0l0.18-0.56l0.13-0.42l2.11-6.69c0.01-0.04,0.03-0.08,0.04-0.12c0.91-3.23,3.06-4.34,4.78-4.29
				c1.71,0.05,3.81,1.27,4.55,4.54c0.01,0.04,0.02,0.08,0.03,0.12l8.81,34.03l0.61,2.35c0.07,0.25,0.24,0.42,0.45,0.43l4.6,0.12
				C306.37,599.97,306.52,599.69,306.45,599.43z"/>
		</g>
	</g>
</g>
<line class="st1" x1="433.79" y1="697.5" x2="573.29" y2="679"/>
<line class="st1" x1="579.29" y1="40" x2="442.29" y2="7"/>
</svg>
