<svg height="960" viewBox="0 0 960 960" width="960" xmlns="http://www.w3.org/2000/svg"><path d="m257.459953.5996405c2.390547 0 4.834582.0998988 7.339327.29325792.367384.028361.734358.06179712 1.100818.10029879l15.676201 1.64700006c.288502.0303111.576666.06375974.86444.10033997l2.785855.34764863 2.524038.30153762c.199355.02320237.395954.04592275.589792.0681607.394941.04530938.789185.09650379 1.182599.15356618l504.127121 73.12083373c28.938202 4.0826793 50.759323 28.3607259 51.751755 57.5650499l23.454272 694.277016c1.04617 31.025651-21.666351 57.758662-52.453652 61.733813l-506.812928 65.444339-.88054.106125c-1.749693.197462-3.434251.307333-5.111011.349927l-.7484.013446-50.166227 2.657641-.856922.057562c-2.314293.139027-4.633255.208272-6.953938.208272h-1.27193c-6.358865-.07667-12.704582-.668898-18.973665-1.777174l-23.287318-4.127301-.900719-.140358c-31.347837-5.168926-54.51817-32.305813-54.51817-64.268968l-.000338-147.206033-4.715639.000667-.306345-.003766c-6.61803-.162887-11.951656-5.588507-11.951656-12.236234v-13.347001l16.97364.938334v-3.606l-5.127119-.286134.145228-.320562c.642044-1.50419.792572-3.110718.792572-4.276638 0-1.6164-.2916-3.2742-.855-4.6926l5.044319.277934v-3.607l-9.226799-.509254-.1143-.007425-.1143-.003375-7.518601-.4158v-25.804801l6.7572.3798 9.385201.5256.831599.046255v-3.606l-5.135219-.288655.136373-.296226c.525931-1.206572.81555-2.671282.812227-4.326175-.0018-1.6092-.2934-3.2562-.855-4.671l5.041619.281056v-3.607l-9.217439-.522816-.204075-.01485-.208125-.00135-7.344001-.4122v-24.082201l6.7662.4194 10.157401.6264.050039.002617v-3.608l-5.226299-.323117.130898-.283843c.591614-1.348741.912382-3.033557.902302-4.973957-.0072-1.845-.3222-3.7008-.9306-5.2506l5.123699.311517v-3.607l-16.97364-1.035138v-24.654601l16.97364 1.034739v-3.606l-5.238719-.321159.154168-.334761c.732282-1.686076.895232-3.540639.895232-4.863639 0-1.8684-.3132-3.7476-.927-5.3136l4.3902.2664.726119.043759v-3.607l-16.97364-1.034679v-10.222201l.003215-.315962c.169022-8.300374 6.98209-15.002038 15.332786-15.002038l1.637639-.00012v-134.313l-4.715639.000354-.306345-.003766c-6.61803-.162887-11.951656-5.588507-11.951656-12.236234v-13.347001l16.97364.938647v-3.607l-5.127119-.285447.145228-.320562c.642044-1.50419.792572-3.110718.792572-4.276638 0-1.6164-.2916-3.2742-.855-4.6944l5.044319.279047v-3.606l-9.226799-.510467-.1143-.00675-.1143-.00405-7.518601-.414v-25.804801l6.7572.378v.0018l9.385201.5238.831599.046468v-3.607l-5.135219-.286968.136373-.296256c.525931-1.206798.81555-2.672914.812227-4.326145-.0018-1.6092-.2934-3.2562-.855-4.671l5.041619.281369v-3.608l-9.217439-.522309-.204075-.01485-.208125-.00135-7.344001-.4122v-24.082201l6.7662.4176v.0018l10.157401.6264.050039.00211v-3.608l-5.226299-.32243.130898-.284179c.591614-1.350197.912382-3.034901.902302-4.973621-.0072-1.845-.3222-3.7008-.9306-5.2506l5.123699.31183v-3.608l-16.97364-1.034451v-24.654601l16.97364 1.035052v-3.606l-5.238719-.321472.154168-.334761c.732282-1.686076.895232-3.540639.895232-4.863639 0-1.8684-.3132-3.7476-.927-5.3136l4.3902.2664.726119.043072v-3.606l-16.97364-1.034992v-10.222201l.003215-.315962c.169022-8.300374 6.98209-15.002038 15.332786-15.002038l1.637639-.000807.000338-151.3925994c0-32.6111811 24.745388-59.89814708 57.198892-63.07957614l.653168-.05862866.65404-.04791257 1.210789-.07992423 45.111908-3.47768589c2.201066-.18888307 4.435981-.27967361 6.710405-.27967361zm-23.513638 41.6927859-25.539963 1.9702142-1.384201.09c-11.9718 1.1736001-21.1014 11.2392005-21.1014 23.270401v821.2086324c0 12.587401 9.3132 23.236201 21.7854 24.915601l23.884201 4.2318c2.063694.364829 4.139727.644472 6.222858.838369-2.520405-5.175415-3.938183-11.381831-4.052283-18.586097l-1.184565-841.1006274.004174-1.2858636.012837-1.2502447.021966-1.2155684c.004447-.1997574.009295-.3981092.014552-.5950752l.036533-1.1653216c.006934-.1915008.014297-.381655.022098-.5704822l.052151-1.117196c.009595-.1835977.019648-.3659076.030169-.5469495l.068818-1.0711915c.21165-2.9973597.564547-5.6385163 1.106655-8.0204005zm18.702098 68.4182146 1.1092 789.082051.010508.582371c.22884 8.671489 2.990084 12.981855 7.599859 15.247944 1.567084.770352 3.327998 1.274156 5.14548 1.534648 1.229388.176204 2.264639.215906 2.944199.187309l.193079-.011423c1.180298-.060725 2.325717.086851 3.399401.411269l3.781601-.199081c-1.186034-3.127499-1.879364-6.511409-1.978093-10.063329zm18.539124-52.5298223 23.658368 848.7451433c.11695 4.207459 2.605462 7.715287 6.067445 9.344457l.787005-.042744.2214.0018c.8406 0 1.6884-.0378 2.5452-.1476l273.380091-35.301872c.28528-.535481.618317-1.043505.994213-1.517725l.108699-.133278.106685-.585473.081962-.496475.081974-.537128.122966-.882728.122953-.976276.122916-1.071067.122856-1.167104.122774-1.264385.122669-1.362911.12254-1.462681.155054-1.987744.246704-3.454887.248047-3.878754.332492-5.826798.397623-7.732154.531886-11.175883 1.165118-25.976151c.156939-3.822512.282605-8.032921.377469-12.640811l.065379-3.530594c.009937-.600903.019394-1.208055.028373-1.821473l.048136-3.755861c.028273-2.554242.048919-5.209351.061996-7.966525l.013948-4.212459c.004144-2.144654.004047-4.347057-.000266-6.607714l-.014239-4.599135c-.003307-.779518-.007081-1.565546-.011321-2.358103l-.031018-4.833836-.042149-4.991426-.053237-5.149914-.064279-5.309302c-.011631-.898215-.02372-1.80311-.036267-2.714701l-.08076-5.550067-.091693-5.7117-.102581-5.874231-.113425-6.037661-.124224-6.201989-.134981-6.367217-.145692-6.533341-.156359-6.700365-.166982-6.868288-.177561-7.037107-.286081-10.874166-.203815-7.46309-.21424-7.635055-.22462-7.807918-.356296-12.037962-.379402-12.431959-.541557-17.194069-.582017-17.907085-.622125-18.62729-.661878-19.35468-.701278-20.08926-1.12502-31.526947-.595083-16.396919-1.749039-47.557047-1.158013-30.6947-.749907-19.162474-.64559-15.806179-.525356-12.275409-.616022-13.663939-.710963-14.842467-.503075-10.002036-.444055-8.563494-.597929-11.236987-.252819-4.635891-.513895-9.173883-.261151-4.538281-.397088-6.747001-.403635-6.674931-.410309-6.603348-.41711-6.532252-.281916-4.315579-.285032-4.284341-.433476-6.368258-.292991-4.206881-.445591-6.252744-.605715-8.230276-.463146-6.0933-.313054-4.024659-.476111-5.981036-.484059-5.914328-.327185-3.906065-.49759-5.804231-.505879-5.738822-.514294-5.6739-.347601-3.746774-.351436-3.718281-.355309-3.689933-.359219-3.661729-.363166-3.63367-.367153-3.605754-.371177-3.577984-.564391-5.315222-.3814-3.509189-.579905-5.212707-.391861-3.441298-.396111-3.414393-.400398-3.387634-.404725-3.361019-.409088-3.334548-.621896-4.952505-.420162-3.269004-.424657-3.243038-.429191-3.2172169c-.020976-.1557794-.038276-.3120317-.051885-.4686266l-.126849-1.2371199-.107428-.9272017-.125458-.9975169c-.318044-2.433782-.719891-4.8590178-1.20142-7.0656779l-.094994-.4275551c-.302452-1.3369854-.62126-2.5178474-.937503-3.4885448l-265.747105-37.803397c-6.388243-.9088768-12.089504 4.2271222-11.911012 10.8229155zm298.897922 30.0033466c.316988 1.7698927.590648 3.5702109.825499 5.3673657l.045161.3490854.090876.7256505.116968.990085.094317.8625352.083678.8401129.18802 1.409642.646037 4.91032c.071205.548788.142218 1.098645.213041 1.649574l.632273 4.987392.415859 3.35734.411378 3.383446.406938 3.409703.402536 3.436111.398173 3.462671.39385 3.48938.389566 3.516241.576402 5.325057c.063519.595068.126864 1.191272.190035 1.788613l.376949 3.597731.557697 5.44814.366703 3.666677.362675 3.69452.358684 3.722513.354734 3.750658.350821 3.778954.346949 3.807401.343116 3.835999.507571 5.807949.499166 5.873144.490894 5.938848.322732 3.995986.477399 6.049488.313859 4.070218.464274 6.161544.30523 4.145394.451514 6.275015.444036 6.343778.291934 4.267639.574229 8.628243.282373 4.360908.417744 6.600268.274676 4.43967.406381 6.719119.399739 6.791111.262869 4.567653.260015 4.600027.2572 4.632551.380609 7.01014.608266 11.501022.698117 13.682654.329912 6.707674.321075 6.708631.689777 15.095231.375442 8.630726.510711 12.195687.602197 14.977003.799968 20.667244 1.257849 33.599157 2.190037 59.950095.568818 15.906003.724068 20.548572.68448 19.802256.644542 19.063926.307184 9.257585.441796 13.546212.418885 13.141009.395828 12.739175.372622 12.34071.349269 11.945613.325767 11.553887.204048 7.486628.193493 7.315024.270353 10.652958.166914 6.890378.156205 6.722266.145452 6.555152.134657 6.389038.123816 6.223921.112932 6.059803.102004 5.896682.091033 5.734561.080017 5.573437.068957 5.413311.057853 5.254184c.008715.862493.016965 1.718396.02475 2.567732l.041116 5.017365c.005919.823147.011372 1.639768.016356 2.449883l.02428 4.782792c.006216 1.568353.010552 3.11085.013001 4.627658l.001678 4.473521-.009688 4.320384c-.005129 1.414716-.01216 2.804076-.0211 4.168245l-.032553 4.017103-.044052 3.866961-.055594 3.717815c-.11253 6.679889-.283473 12.612873-.514047 17.826632l-1.07932 24.013153-.572028 12.030624-.35194 6.87041-.295014 5.279838-.164035 2.705238-.253005 3.827563-.138527 1.924907-.259497 3.319029-.095579 1.122698-.145355 1.599273-.098522 1.011318-.100051.96875-.153388 1.37579-.045655.368768 211.954962-27.369168c10.054702-1.298229 17.541266-9.830217 17.609777-19.882959l-2.175739-64.898873-21.289438-630.199797c-.202404-5.956168-2.98636-11.301861-7.319122-14.886308-.544053-.174079-1.108333-.304209-1.688782-.386735zm-52.186515 746.9439597c3.686029-10.705007 13.658978-16.97806 22.275203-14.011256 8.616226 2.966805 12.612939 14.049998 8.926909 24.755006-3.686029 10.705007-13.658978 16.97806-22.275203 14.011256-8.616226-2.966805-12.612939-14.049998-8.926909-24.755006zm114.511647-11.581722c3.41632-9.921714 12.659541-15.735763 20.645311-12.986042s11.690041 13.021949 8.273721 22.943663c-3.41632 9.921715-12.659541 15.735764-20.645311 12.986043s-11.690041-13.021949-8.273721-22.943664z"/></svg>