<?xml version="1.0" encoding="utf-8"?>
<!-- Generator: Adobe Illustrator 24.0.1, SVG Export Plug-In . SVG Version: 6.00 Build 0)  -->
<svg version="1.1" id="Laag_1" xmlns="http://www.w3.org/2000/svg" xmlns:xlink="http://www.w3.org/1999/xlink" x="0px" y="0px"
	 viewBox="0 0 763.68 1928.88" style="enable-background:new 0 0 763.68 1928.88;" xml:space="preserve">
<style type="text/css">
	.st0{fill:#FFFFFF;}
	.st1{fill:none;stroke:#000000;stroke-width:5;stroke-miterlimit:10;}
	.st2{fill:none;stroke:#000000;stroke-miterlimit:10;}
	.st3{fill:none;}
	.st4{fill:#FFFFFF;stroke:#000000;stroke-width:5;stroke-miterlimit:10;}
</style>
<g>
	<path d="M633.2,1928.88c-3.77-0.59-7.54-1.21-11.31-1.76c-10.28-1.49-20.59-2.73-30.83-4.46c-20.63-3.49-41.2-7.37-61.84-10.82
		c-12.45-2.08-24.86-4.33-37.21-6.93c-5.7-1.2-10.94-3.44-15.9-6.45c-3.09-1.87-5-4.45-5.36-8.05c-0.24-2.38-0.39-4.78-0.39-7.17
		c0.02-40.14,0.11-80.29,0.11-120.43c0-45.26-0.34-90.52-0.05-135.78c0.26-40.47-0.93-80.91-0.84-121.38
		c0.11-52.46-0.06-104.91-0.21-157.37c-0.11-36.94-0.37-73.89-0.6-110.83c-0.09-13.59-0.47-27.18-0.38-40.77
		c0.07-10.87,0.86-21.73,0.96-32.6c0.16-17.91-0.02-35.82,0-53.73c0.02-35.98,0.18-71.97,0.07-107.95
		c-0.08-27.19-0.49-54.37-0.72-81.56c-0.11-12.47-0.16-24.95-0.2-37.42c-0.17-63.49-0.29-126.98-0.49-190.48
		c-0.05-16.63-0.56-33.26-0.42-49.89c0.2-23.83,0.9-47.65,1.18-71.47c0.22-18.55,0.24-37.1,0.18-55.65
		c-0.09-27.99-0.36-55.97-0.51-83.96c-0.22-42.06-0.4-84.12-0.62-126.18c-0.06-11.51-0.19-23.03-0.29-34.54
		c-0.01-1.12-0.03-2.24-0.12-3.35c-0.18-2.15-1.32-3.6-3.43-4.09c-2.64-0.63-5.3-1.19-7.97-1.66
		c-35.86-6.35-71.6-13.36-107.21-20.99c-3.59-0.77-7.2-1.45-10.79-2.22c-1.24-0.27-2.5-0.58-3.66-1.09
		c-2.04-0.9-3.29-2.51-3.56-4.76c-0.12-0.95-0.15-1.91-0.15-2.87c0.02-4.96,0.07-9.91,0.09-14.87c0.01-4.4-0.57-5.1-5.05-5.99
		c-5.17-1.02-10.36-1.97-15.52-3c-23.02-4.62-46.04-9.26-69.05-13.89c-19.88-4-39.77-8.03-59.65-12.01
		c-16.91-3.39-33.83-6.78-50.76-10.09c-4.69-0.92-9.46-1.41-14.14-2.34c-19.89-3.97-39.76-8.04-59.65-12.06
		c-18-3.64-36.01-7.26-54.02-10.87c-0.93-0.19-1.9-0.13-2.86-0.19c0-1.28,0-2.56,0-3.84c0.77,0.2,1.53,0.45,2.32,0.59
		c31.21,5.92,62.13,13.29,93.48,18.5c8.5,1.41,16.94,3.25,25.4,4.92c18.48,3.66,36.97,7.31,55.44,11.04
		c19.57,3.94,39.12,7.98,58.68,11.95c21.44,4.35,42.89,8.66,64.34,12.98c15.65,3.15,31.32,6.23,46.96,9.47
		c3.32,0.69,6.21,0.3,9.19-1.36c6.13-3.42,12.44-6.54,18.61-9.89c4.73-2.57,9.56-2.96,14.82-1.87c22.04,4.58,44.13,8.98,66.2,13.43
		c1.23,0.25,2.51,0.66,3.61-0.38c0.69-4.22,0.56-4.45-3.11-5.36c-0.78-0.19-1.55-0.39-2.33-0.55c-10.49-2.11-21-4.12-31.46-6.36
		c-4.77-1.02-9.34-1.64-13.99,0.63c-3.23,1.58-6.23,0.48-8.76-1.95c-0.35-0.33-0.73-0.65-0.98-1.05c-1.13-1.76-2.84-2.43-4.79-2.82
		c-17.37-3.51-34.75-7.04-52.11-10.6c-27.22-5.57-54.43-11.23-81.66-16.74c-25.04-5.07-50.09-10.1-75.18-14.94
		c-21.16-4.08-42.2-8.74-63.45-12.34c-11.49-1.94-22.85-4.61-34.28-6.92c-13.46-2.73-26.91-5.48-40.38-8.15
		c-15.51-3.07-31.03-6.07-46.55-9.1c0-1.28,0-2.56,0-3.84c1.42,0.12,2.88,0.1,4.27,0.37c30.37,6.07,60.74,12.2,91.11,18.27
		c9.08,1.82,18.2,3.45,27.29,5.25c26.63,5.25,53.27,10.49,79.89,15.84c25.83,5.19,51.63,10.56,77.46,15.77
		c37.57,7.57,75.15,15.07,112.73,22.6c0.93,0.19,1.87,0.38,2.82,0.47c0.76,0.07,1.13-0.4,1.11-1.19c-1.03-1.16-2.49-1.27-3.89-1.56
		c-33.49-6.81-66.97-13.64-100.46-20.43c-25.82-5.23-51.64-10.47-77.48-15.61c-15.66-3.12-31.37-6.01-47.04-9.08
		c-20.21-3.96-40.43-7.94-60.62-12.01c-14.71-2.97-29.37-6.21-44.1-9.11c-19.58-3.87-39.2-7.54-58.82-11.25
		c-1.39-0.26-2.85-0.18-4.27-0.26c0-1.6,0-3.2,0-4.8c1.11,0.07,2.25,0.02,3.34,0.24c11.6,2.28,23.19,4.57,34.77,6.92
		c17.06,3.46,34.1,7.04,51.17,10.45c12.06,2.41,24.16,4.62,36.23,6.97c20.22,3.94,40.45,7.88,60.66,11.89
		c20.05,3.98,40.08,8.06,60.12,12.09c21.45,4.31,42.9,8.63,64.35,12.94c18.48,3.71,36.96,7.38,55.43,11.13
		c10.64,2.16,21.27,4.41,31.88,6.7c2.96,0.64,5.52,0.35,8.2-1.32c6.91-4.31,14.01-8.32,21.02-12.48c1.22-0.72,2.34-1.6,3.51-2.4
		c0.14-2.77,0.37-5.32,0.38-7.87c0.02-6.07-0.09-12.14-0.11-18.21c-0.05-13.59-0.06-27.18-0.12-40.77c-0.01-2.05-0.2-4.11-0.32-6.28
		c-1.3-0.37-2.33-0.75-3.4-0.96c-5.95-1.17-11.91-2.3-17.87-3.43c-11.45-2.18-22.93-4.26-34.36-6.54
		c-9.08-1.81-18.1-3.96-27.18-5.77c-26.63-5.3-53.29-10.42-79.91-15.77c-26.93-5.42-53.8-11.14-80.74-16.52
		c-24.12-4.81-48.31-9.27-72.45-13.98c-16.77-3.27-33.51-6.71-50.26-10.08C42.9,16.29,21.45,11.98,0,7.68C0,6.4,0,5.12,0,3.84
		c1.27,0.14,2.55,0.2,3.8,0.44c31.85,6.04,63.44,13.33,95.33,19.13c23.88,4.35,47.66,9.21,71.47,13.94
		c23.18,4.61,46.33,9.36,69.5,14.03c20.04,4.03,40.08,8.06,60.13,12.03c15.51,3.08,31.04,6.04,46.54,9.12
		c18.48,3.67,36.95,7.42,55.42,11.13c5.01,1.01,10.02,1.99,15.04,2.97c3.44,0.67,6.86,1.45,10.32,1.92
		c1.54,0.21,3.17-0.19,4.75-0.37c1.08-0.13,1.69-0.9,1.94-1.87c0.33-1.28,0.33-2.54-0.43-3.14c-7.86-1.39-15.25-2.58-22.6-4.02
		c-23.35-4.58-46.68-9.25-70.01-13.91c-18.48-3.69-36.96-7.37-55.43-11.1c-16.43-3.32-32.84-6.78-49.28-10.07
		c-17.22-3.44-34.45-6.92-51.72-10.09c-21.04-3.86-41.85-8.87-63-12.2c-9.77-1.54-19.41-3.87-29.11-5.87
		c-11.89-2.45-23.75-4.99-35.65-7.36C43.7,5.9,30.36,3.39,17.04,0.8c-0.59-0.12-1.13-0.52-1.69-0.8c7.68,0,15.35,0,23.03,0
		c0.54,0.29,1.05,0.71,1.63,0.83c2.65,0.56,5.34,0.99,7.99,1.55c15,3.15,29.98,6.39,45,9.45c13.45,2.74,26.95,5.29,40.43,7.9
		c20.69,4,41.4,7.93,62.08,11.98c18.33,3.6,36.64,7.28,54.95,11.02c22.52,4.6,45.02,9.35,67.54,13.95
		c17.05,3.48,34.17,6.65,51.19,10.28c18.42,3.93,36.92,7.41,55.46,10.7c1.83,0.32,3.71,0.35,5.52,0.5c0.89-4.45-0.05-6.06-3.77-6.79
		c-0.62-0.12-1.27-0.11-1.9-0.21c-3.78-0.59-7.57-1.12-11.34-1.8c-3.46-0.62-6.87-1.44-10.32-2.12
		c-12.37-2.43-24.77-4.77-37.13-7.29c-16.27-3.32-32.5-6.83-48.76-10.17c-15.33-3.14-30.69-6.13-46.02-9.25
		c-14.08-2.87-28.12-5.96-42.22-8.71c-25.23-4.93-50.5-9.61-75.73-14.54c-24.29-4.74-48.55-9.63-72.8-14.57
		C76.45,1.97,72.59,1.64,69.08,0c4.8,0,9.59,0,14.39,0c0.87,0.33,1.72,0.78,2.62,0.96c15.36,3.03,30.72,6.01,46.08,9.03
		c22.1,4.34,44.19,8.71,66.29,13.05c14.26,2.81,28.53,5.56,42.79,8.4c11.43,2.28,22.83,4.74,34.27,6.99
		c15.36,3.03,30.76,5.83,46.1,8.94c25.2,5.1,50.38,10.34,75.54,15.61c4.16,0.87,7.87,0.26,11.48-1.9c3.7-2.22,7.54-4.19,11.25-6.39
		c5.78-3.42,11.64-6.71,17.2-10.45c7.93-5.32,16.26-6.92,25.54-4.41c6.31,1.71,12.73,3.07,19.16,4.33
		c13.79,2.71,27.64,5.13,41.42,7.9c29.28,5.87,58.43,12.4,87.85,17.6c12.26,2.17,24.43,4.92,36.63,7.43
		c10.01,2.06,20.02,4.11,30.02,6.26c4.72,1.01,5.1,1.45,5.43,6.31c0.15,2.29,1.3,3.53,3.28,4.18c1.51,0.49,3.07,0.91,4.63,1.21
		c6.12,1.16,12.27,2.15,18.37,3.39c6.9,1.4,6.88,1.48,12.91-2.33c0.14-0.09,0.28-0.16,0.41-0.25c2.95-2.07,6.22-2.51,9.61-1.58
		c4.16,1.14,8.28,2.41,12.36,3.79c3.03,1.03,5.88,2.5,8.42,4.5c3.05,2.41,4.85,5.47,4.96,9.43c0.03,1.12,0.05,2.24,0.05,3.36
		c-0.03,10.4-0.12,20.79-0.08,31.19c0.16,48.46,0.33,96.92,0.54,145.37c0.28,65.57,0.59,131.14,0.87,196.71
		c0.12,27.83,0.21,55.66,0.29,83.48c0.26,86.36,0.51,172.72,0.74,259.09c0.05,18.07-0.16,36.14-0.05,54.21
		c0.34,54.21,0.94,108.43,1.14,162.64c0.26,70.37,0.25,140.74,0.33,211.11c0.02,15.35-0.2,30.71-0.08,46.06
		c0.09,11.99,0.76,23.98,0.79,35.97c0.11,59.82,0.09,119.63,0.14,179.45c0.01,8,0.12,15.99,0.26,23.99
		c0.03,1.73-0.28,4.31-0.06,6.04c0,5.76,0,7.5,0,13.26c-0.25,2.19,0,7.53,0,9.72c-0.01,19.92,0.06,39.84,0.14,59.76
		c0.01,1.24-0.34,6.12-0.14,7.37c0,73.25,0.05,138.74,0.05,212c-0.3,1.69-0.08,7.49-0.21,9.19c-0.19,2.39-0.34,4.81-0.15,7.19
		c0.27,3.38-1.14,5.75-3.55,7.94c-4.18,3.79-8.86,6.81-13.71,9.61c-14.94,8.62-29.89,17.25-44.79,25.94
		c-12.84,7.49-26.45,12.72-41.26,14.63c-2.66,0.34-5.28,1.06-7.91,1.6C645.35,1928.88,639.28,1928.88,633.2,1928.88z
		 M757.35,1295.45c0.16-1.71,0.38-3.1,0.4-4.48c0.1-9.11,0.26-18.23,0.22-27.34c-0.23-50.37-0.53-100.74-0.76-151.11
		c-0.11-25.27-0.03-50.53-0.17-75.8c-0.18-31.98-0.68-63.96-0.71-95.94c-0.11-102.18-0.07-204.37-0.09-306.55
		c0-16.95,0.13-33.9-0.04-50.85c-0.16-17.09,0.77-34.19-0.68-51.26c-0.08-43.98-0.16-87.95-0.24-131.93
		c-0.05-25.27-0.2-50.53-0.12-75.8c0.01-4.35-1.6-7.28-5.05-9.62c-4.17-2.83-8.78-4.59-13.63-5.7c-7.47-1.71-14.97-3.31-22.48-4.84
		c-15.34-3.12-30.69-6.17-46.03-9.25c-18.32-3.68-36.53-7.93-55.06-10.45c-10.46-1.43-20.95-2.57-31.53-2.27
		c-17.21,0.49-33.51,4.29-48.49,13.13c-15.69,9.26-31.47,18.35-47.22,27.51c-3.31,1.93-6.62,3.87-9.93,5.81
		c-3.18,1.86-4.69,4.58-4.66,8.31c0.06,9.75-0.04,19.51,0,29.26c0.2,46.05,0.48,92.11,0.65,138.16c0.2,57.89,0.27,115.77,0.5,173.66
		c0.09,24.14,0.57,48.29,0.66,72.43c0.34,92.75,0.61,185.49,0.87,278.24c0.05,17.27-0.07,34.54-0.04,51.81
		c0.03,21.27,0.23,42.54,0.19,63.8c-0.1,54.69,0.78,109.38-0.45,164.06c-0.02,0.94,0,1.93,0.3,2.79c0.14,0.4,1.05,0.85,1.49,0.75
		c0.74-0.16,1.38-0.74,2.06-1.15c5.18-3.17,10.29-6.45,15.55-9.49c16.32-9.44,32.7-18.77,49.06-28.16c4.87-2.8,9.98-5,15.37-6.61
		c12.08-3.6,24.47-4.64,36.98-4.34c9.75,0.23,19.45,1.31,29.05,3.13c10.98,2.08,21.96,4.23,32.93,6.34
		c10.82,2.08,21.66,4.08,32.46,6.24c13.47,2.69,26.91,5.51,40.37,8.26c9.26,1.89,18.37,4.23,26.67,9
		C755.99,1295.34,756.35,1295.3,757.35,1295.45z M758.56,1862.44c1.02-2.73,0.79-5.3,0.78-7.83c-0.02-33.27-0.05-66.53-0.1-99.8
		c-0.06-41.26-0.11-82.53-0.19-123.79c-0.12-60.29-0.27-120.59-0.41-180.88c0-0.96-0.03-1.92,0-2.88c0.12-4.38-1.69-7.63-5.44-9.97
		c-3.98-2.48-8.19-4.38-12.72-5.45c-11.19-2.64-22.38-5.31-33.64-7.63c-24.87-5.14-49.78-10.06-74.67-15.1
		c-9.4-1.9-18.83-3.68-28.43-4.14c-10.23-0.49-20.44-0.38-30.65,0.77c-11.11,1.25-21.6,4.26-31.32,9.81
		c-12.35,7.06-24.72,14.08-36.98,21.29c-8.68,5.1-17.19,10.49-25.79,15.73c-2.25,1.37-4.23,2.98-4.84,5.66
		c-0.31,1.38-0.28,2.86-0.28,4.29c0.05,47.5,0.06,95,0.2,142.5c0.09,31.66,0.47,63.33,0.56,94.99c0.12,44.94,0.09,89.88,0.13,134.82
		c0.01,7.2-0.02,14.39,0.02,21.59c0.04,7.83,0.64,15.67-0.79,23.45c-0.17,0.91-0.24,1.93,1.1,2.69c1.71-1.07,3.53-2.28,5.41-3.39
		c18.01-10.67,36.02-21.36,54.08-31.95c4.13-2.42,8.42-4.58,12.72-6.69c9.31-4.57,19.26-6.7,29.54-7.56
		c16.35-1.36,32.61-0.4,48.75,2.2c18.77,3.02,37.47,6.43,56.19,9.75c15.1,2.68,30.18,5.48,45.26,8.22
		c9.76,1.77,19.48,3.66,28.36,8.42C756.33,1862.07,757.47,1862.15,758.56,1862.44z M435.52,79.4c1.69,0.6,2.69-0.41,3.8-0.94
		c1.43-0.69,2.78-1.57,4.23-2.2c1.03-0.45,2.34,0.31,2.67,1.38c0.14,0.45,0.26,0.93,0.28,1.4c0.21,5.26,0.55,10.53,0.57,15.79
		c0.08,19.83,0.06,39.65,0.06,59.48c0,1.44-0.01,2.88-0.17,4.31c-0.29,2.71-1.6,4.82-4.06,6.12c-0.84,0.45-1.72,0.84-2.53,1.33
		c-10.55,6.32-21.1,12.64-31.61,19.01c-1.9,1.15-3.63,2.58-5.41,3.91c-0.38,0.28-0.78,0.63-0.95,1.04
		c-0.16,0.39-0.19,1.01,0.02,1.32c0.2,0.3,0.84,0.53,1.21,0.45c0.6-0.13,1.15-0.52,1.7-0.85c11.03-6.46,22.2-12.69,33.03-19.47
		c7.4-4.63,15.03-5.73,23.39-4c19.23,4,38.46,7.96,57.72,11.83c35.69,7.17,71.4,14.26,107.09,21.41c0.92,0.18,1.83,0.54,2.67,0.96
		c0.77,0.39,0.9,1.95,0.16,2.52c-0.58,0.45-1.42,0.89-2.09,0.81c-2.05-0.25-4.08-0.75-6.12-1.14c-17.21-3.29-34.51-4.46-51.98-2.46
		c-10.09,1.16-19.71,3.89-28.97,8.01c-1.02,0.45-1.99,1.02-2.95,1.59c-3.56,2.08-5.67,5.14-5.89,9.3c-0.17,3.19-0.17,6.38-0.17,9.58
		c0,0.73-0.05,1.64,1.23,2.05c0.8-0.38,1.79-0.84,2.78-1.31c2.88-1.37,5.71-2.87,8.66-4.09c15.22-6.26,31.15-8.06,47.45-7.35
		c14.88,0.65,29.56,2.93,44.14,5.83c31.16,6.21,62.31,12.51,93.45,18.79c8.01,1.62,15.85,3.75,23.01,7.88
		c0.53,0.31,1.16,0.44,1.81,0.67c1.39-1.77,1-3.77,1.02-5.61c0.17-15.99,0.42-31.98,0.33-47.96c-0.15-28.14-0.52-56.27-0.81-84.41
		c-0.01-1.28-0.06-2.56-0.14-3.83c-0.14-2.41-1.23-4.25-3.3-5.51c-5.5-3.37-11.41-5.73-17.71-7.05c-0.99-0.21-2.09,0.1-3.19,0.18
		c-0.22,1.58-0.32,2.85-0.58,4.09c-0.34,1.69-1.29,2.6-2.95,2.59c-1.59-0.01-3.19-0.2-4.75-0.49c-8.48-1.58-16.94-3.24-25.41-4.84
		c-3.77-0.71-7.57-1.25-11.31-2.06c-4.27-0.92-5.29-2.24-5.54-6.5c-0.04-0.64,0-1.28-0.08-1.91c-0.15-1.22-0.87-2.11-1.99-2.48
		c-1.36-0.45-2.77-0.75-4.18-1.01c-2.51-0.48-5.05-0.82-7.55-1.32c-26.46-5.3-52.91-10.62-79.37-15.95
		c-28.33-5.7-56.66-11.41-84.99-17.13c-14.09-2.84-28.16-5.76-42.25-8.57c-5.99-1.2-11.63-0.55-17.03,2.78
		c-6.52,4.02-13.35,7.54-20.02,11.31c-3.61,2.04-7.19,4.12-10.73,6.27c-0.37,0.22-0.37,1.05-0.58,1.72
		c4.31,1.22,8.36,1.77,12.51,0.69c1.85-0.48,3.7-0.97,5.56-1.43c1.08-0.26,2.17-0.57,3.26-0.66c1.49-0.12,2.5,0.64,2.77,2.07
		c0.21,1.09,0.29,2.22,0.31,3.33c0.04,2.72-0.02,5.44,0.04,8.15C435.14,77.73,435.39,78.62,435.52,79.4z M757.94,1433.53
		c0.29-1.23,0.71-2.26,0.74-3.31c0.09-3.83,0.08-7.67,0.06-11.51c-0.17-25.89-0.33-51.79-0.54-77.68
		c-0.08-9.59-0.27-19.18-0.46-28.77c-0.05-2.23-0.31-4.46-0.49-6.69c-0.18-2.2-1.16-4.05-2.96-5.27c-2.5-1.7-5.01-3.46-7.75-4.69
		c-2.89-1.3-5.99-2.24-9.09-2.93c-12-2.66-24.02-5.22-36.06-7.7c-15.32-3.15-30.67-6.19-46.01-9.27
		c-12.99-2.61-25.89-5.67-39.05-7.41c-14.32-1.89-28.64-2.29-43.02-0.81c-12.42,1.27-24.03,4.86-34.81,11.24
		c-17.04,10.1-34.15,20.07-51.22,30.12c-2.62,1.54-5.14,3.23-7.77,4.75c-4.46,2.57-6.5,6.34-6.24,11.51
		c0.2,4.15,0.17,8.31,0.19,12.46c0.13,35.64,0.24,71.28,0.36,106.93c0,1.12-0.03,2.24,0,3.36c0.02,0.63,0.14,1.25,0.21,1.79
		c1.56,0.9,2.54-0.17,3.57-0.83c15.23-9.7,30.79-18.83,46.49-27.76c8.48-4.82,17.11-9.31,25.84-13.63
		c4.46-2.21,9.11-3.88,14.05-4.63c4.57-0.7,9.14-1.51,13.74-2.02c12.29-1.37,24.62-1.24,36.79,0.87
		c18.56,3.21,37.05,6.83,55.55,10.41c18.96,3.67,37.77,8.1,56.83,11.31c10.1,1.7,19.94,4.49,29.02,9.47
		C756.43,1433.12,757.06,1433.23,757.94,1433.53z M482.93,1889.5c1.81-0.62,2.97-1.05,4.15-1.42c4.44-1.41,8.96-2.39,13.64-2.26
		c3.06,0.08,6.04,0.68,8.77,2.13c1.68,0.89,2.57,2.43,2.49,4.34c-0.07,1.88-0.92,3.4-2.69,4.21c-0.86,0.39-1.79,0.71-2.72,0.87
		c-2.2,0.39-4.42,0.66-6.63,0.98c-0.66,0.09-1.23,0.24-1.02,1.32c0.5,0.15,1.08,0.37,1.68,0.49c9.72,1.88,19.42,3.83,29.16,5.59
		c19.01,3.43,38.06,6.7,57.07,10.15c14.77,2.68,29.59,5.08,44.49,6.96c0.86,0.11,1.78-0.23,2.63-0.35c0.11-0.75,0.32-1.25,0.23-1.68
		c-0.69-3.17,0.99-4.83,3.67-5.81c1.64-0.6,3.32-1.14,5.03-1.52c4.1-0.92,8.22-0.83,12.39-0.28c3.51,0.46,6.45,1.34,8.05,4.98
		c0.88,1.99,2.28,2.26,4.45,1.67c0.92-0.25,1.81-0.62,2.72-0.92c6.87-2.22,13.34-5.36,19.57-8.95
		c17.58-10.12,35.15-20.28,52.65-30.54c2.16-1.27,3.93-3.21,5.81-4.92c0.5-0.45,1.2-1.11,0.41-2.12c-0.86,0.24-1.76,0.47-2.65,0.75
		c-6.4,2.01-12.96,1.57-19.48,1.14c-3.03-0.2-4.87-2.19-5.22-4.76c-0.34-2.52,1.13-4.71,4.09-5.72c1.65-0.56,3.41-0.82,5.13-1.19
		c0.81-0.17,1.56-0.37,1.57-1.52c-1.83-0.39-3.69-0.83-5.56-1.19c-22.9-4.36-45.77-8.9-68.72-12.99
		c-18.55-3.31-37.19-6.07-55.8-9.04c-0.88-0.14-1.81-0.02-2.9-0.02c0.11,1.14,0.17,1.92,0.27,2.69c0.34,2.61-0.93,4.35-3.18,5.31
		c-1.6,0.68-3.32,1.12-5.03,1.5c-4.76,1.05-9.55,0.63-14.31-0.04c-2.82-0.4-5.12-1.69-6.63-4.22c-0.48-0.81-1.12-1.52-1.74-2.35
		c-1.01,0.07-1.97,0.03-2.89,0.22c-5.99,1.26-11.58,3.55-16.87,6.62c-17.96,10.43-35.93,20.83-53.88,31.28
		c-2.76,1.61-5.47,3.31-8.13,5.07C485.28,1885.1,483.63,1886.4,482.93,1889.5z M753.64,311.37c1.39-1.97,1.09-3.78,1.1-5.5
		c0.06-8.79,0.09-17.58,0.13-26.38c0.02-4.96-0.04-9.91,0.12-14.87c0.12-3.53-1.23-6.21-4.05-8.18c-1.44-1.01-2.87-2.11-4.46-2.78
		c-2.93-1.23-5.92-2.46-9.01-3.18c-10.26-2.38-20.56-4.62-30.88-6.74c-15.48-3.18-30.98-6.26-46.49-9.31
		c-17.39-3.42-34.7-7.26-52.33-9.31c-12.41-1.44-24.81-2.17-37.29-0.75c-12.7,1.45-24.71,4.96-35.83,11.3
		c-8.05,4.58-16.05,9.26-24.06,13.92c-0.96,0.56-1.9,1.19-2.69,1.95c-0.34,0.32-0.26,1.08-0.46,2.09c1.93-0.21,3.48-0.44,5.04-0.54
		c3.82-0.24,7.65-0.54,11.47-0.58c2.89-0.03,3.99,1.14,4.23,4.07c0.12,1.43,0.01,2.87,0.01,4.31c-0.01,9.75-0.04,19.5,0.02,29.24
		c0,0.82,0.59,1.63,0.96,2.59c2.96-0.87,5.15-2.51,7.36-4.04c3.85-2.65,7.95-4.7,12.41-6.13c9.8-3.13,19.84-4.84,30.11-5.23
		c15.9-0.61,31.6,1.33,47.17,4.18c18.69,3.42,37.31,7.17,55.96,10.83c15.35,3.02,30.69,6.08,46.02,9.2
		c8.34,1.7,16.45,4.04,23.47,9.16C752.16,311.05,752.85,311.11,753.64,311.37z M384.32,211.61c-2.15-0.43-4.09-0.43-6.06,0.45
		c-1.02,0.45-2.1,0.78-3.09,1.29c-11.97,6.07-23.92,12.17-35.4,19.16c-1.02,0.62-1.93,1.42-3.26,2.42c1.24,0.46,1.95,0.82,2.71,0.98
		c17.68,3.6,35.36,7.22,53.06,10.73c22.24,4.42,44.5,8.76,66.75,13.12c1.72,0.34,3.46,0.6,5.21,0.75c1.22,0.1,2.13-0.75,2.22-2.02
		c0.09-1.43,0.08-2.87,0-4.31c-0.24-4.63,1.41-8.01,5.88-9.93c3.07-1.31,5.62-3.45,8.04-5.93c-0.62-0.39-0.99-0.77-1.42-0.87
		c-8.27-1.75-16.56-3.45-24.83-5.2c-0.91-0.19-1.86-0.48-2.65-0.96c-1.49-0.89-1.63-2.42-0.39-3.6c0.65-0.65,1.44-1.16,2.47-1.94
		c-1.39-0.42-2.41-0.82-3.47-1.03 M577.04,196.36c0.03-0.25,0.05-0.5,0.08-0.76c-0.7-0.27-1.37-0.65-2.09-0.81
		c-6.09-1.3-12.18-2.6-18.28-3.81c-17.23-3.39-34.49-6.65-51.71-10.11c-15.34-3.09-30.63-6.4-45.96-9.57
		c-6.03-1.25-11.65-0.37-17,2.94c-7.87,4.88-15.93,9.46-23.89,14.2c-0.41,0.25-0.64,0.8-1.09,1.4c3.07,0.48,5.77,0.81,8.42,1.34
		c11.59,2.31,23.16,4.71,34.74,7.03c20.67,4.13,41.36,8.19,62.01,12.38c4.32,0.88,8.12,0.28,11.88-2.09
		c8.21-5.18,17.24-8.32,26.78-9.92C566.27,197.71,571.67,197.1,577.04,196.36z M490.16,256.15c2.24-0.86,3.79-1.26,5.15-2.02
		c8.91-4.96,17.75-10.03,26.67-14.98c3.44-1.91,5.02-4.71,4.88-8.6c-0.13-3.66-0.22-7.33-0.29-10.99c-0.05-2.88-0.56-3.55-3.45-4.24
		c-0.46-0.11-0.94-0.18-1.41-0.27c-15.31-3.09-30.63-6.18-45.94-9.28c-3.72-0.75-7.44-1.51-11.37-2.31
		c-0.2,1.07-0.46,1.82-0.46,2.57c0.01,4.31-0.08,8.62,0.19,12.92c0.23,3.71-0.69,6.59-4.2,8.35c-0.44,0.22-0.67,0.85-1.01,1.3
		c0.54,0.37,0.78,0.63,1.05,0.69c7.8,1.63,15.61,3.23,23.41,4.85c0.93,0.19,1.87,0.4,2.78,0.68c2.59,0.79,3.97,2.56,4.05,5.28
		c0.03,1.12-0.05,2.23-0.05,3.35C490.15,247.41,490.16,251.39,490.16,256.15z M493.92,298.3c0.82,0.18,1.44,0.44,2.04,0.41
		c2.07-0.11,4.15-0.17,6.19-0.51c6.13-1.04,12.26-2,18.51-1.94c2.78,0.03,3.56-0.91,3.73-3.79c0.02-0.32,0.01-0.64,0.01-0.96
		c0.01-10.68,0.02-21.36,0.01-32.04c0-1.58,0.25-3.21-0.74-4.8c-1.43-0.64-3.02-0.26-4.57-0.08c-1.74,0.2-3.48,0.42-5.2,0.73
		c-5.64,1.01-11.3,1.96-16.9,3.13c-3.18,0.66-3.71,1.41-3.71,4.56c0.01,10.68,0.07,21.36,0.16,32.04
		C493.45,296.12,493.75,297.19,493.92,298.3z M442.2,219.79c5.12,1.04,10.35,1.55,15.3,3.37c2.06-2.92,2.09-2.99,2.14-5.06
		c0.06-2.18-0.51-2.89-2.62-3.22c-1.26-0.2-2.54-0.29-3.79-0.53c-17.86-3.46-35.72-6.94-53.58-10.4
		c-5.46-1.06-10.92-2.08-16.43-3.13c-1.75,2.11-1.33,4.27-1.01,6.66c0.88,0.33,1.31,0.56,1.77,0.65 M482.97,267.73
		c-0.42-0.18-0.74-0.45-0.98-0.4c-4.89,1.1-8.18,4.06-10,8.72c-0.84,2.14-0.94,4.35-0.93,6.59c0.04,10.86,0.08,21.72,0.1,32.58
		c0,2.71-0.08,5.43-0.14,8.14c-0.02,1.03,0.24,2.06,1.25,2.35c0.64,0.18,1.58-0.1,2.18-0.49c1.2-0.77,2.17-1.94,3.4-2.61
		c2.29-1.25,2.97-3.16,2.88-5.58c-0.2-5.9-0.28-11.81-0.57-17.71c-0.31-6.23-0.63-12.46,0.35-18.64
		C481.18,276.43,482.1,272.24,482.97,267.73z M439.4,160c2.01,0.59,2.89-0.07,3.15-1.29c0.3-1.39,0.42-2.84,0.41-4.26
		c-0.17-21.4-0.36-42.81-0.56-64.21c-0.01-0.96,0.03-1.93-0.14-2.86c-0.1-0.57-0.45-1.33-0.91-1.54c-0.62-0.29-1.45-0.14-2.39-0.2
		c-0.08,1.17-0.21,2.1-0.18,3.03c0.29,12.13-0.16,24.26,0.39,36.39c0.46,10.04,0.09,20.12,0.11,30.19
		C439.28,156.81,439.36,158.39,439.4,160z M485.33,242.13c-10.6,0.9-18.08,14.82-13.43,24.64c0.15,0.04,0.34,0.16,0.45,0.11
		c4.35-2.02,8.24-4.76,11.96-7.75c1.38-1.11,1.65-2.6,1.59-4.28c-0.12-3.49-0.12-6.99-0.21-10.49
		C485.67,243.61,485.45,242.86,485.33,242.13z M376.77,203.33c-0.78,0.12-1.3,0.07-1.69,0.27c-13.18,7.09-26.35,14.19-39.49,21.34
		c-1.78,0.97-1.83,2.17-0.41,4.98c0.69-0.3,1.41-0.57,2.08-0.93c12.63-6.76,24.97-14.07,37.92-20.24
		C377.54,207.63,377.54,207.33,376.77,203.33z M486.5,316.92c0.89-0.13,1.43-0.07,1.8-0.29c9.11-5.27,18.21-10.57,27.3-15.89
		c0.21-0.12,0.23-0.55,0.43-1.05c-0.98,0-1.89-0.1-2.76,0.02c-7.74,0.99-15.12,4.09-23.06,3.98c-1.41-0.02-2.42,1.09-2.62,2.43
		C487.07,309.55,486.05,312.95,486.5,316.92z M488.55,300.1c0.6-0.34,1.2-0.48,1.33-0.81c0.28-0.71,0.43-1.52,0.43-2.29
		c0.03-10.81,0.03-21.62,0.02-32.44c0-0.57,0.05-1.29-0.86-1.45c-1.06,0.05-1.15,0.93-1.19,1.68c-0.25,4.44-0.61,8.89-0.61,13.33
		c-0.01,6.52,0.23,13.03,0.41,19.55C488.1,298.43,488.36,299.18,488.55,300.1z M648.84,1920.97c0-0.01,0-0.01,0-0.02
		c0.63,0,1.28,0.06,1.9-0.01c1.41-0.15,2.83-0.33,4.23-0.57c0.83-0.14,1.52-0.62,1.53-1.54c0.01-0.97-0.73-1.32-1.57-1.4
		c-1.26-0.13-2.53-0.31-3.79-0.28c-2.69,0.06-5.37,0.19-8.05,0.43c-0.44,0.04-1.09,0.77-1.14,1.24c-0.05,0.48,0.39,1.22,0.84,1.49
		c0.65,0.39,1.48,0.58,2.25,0.64C646.3,1921.04,647.57,1920.97,648.84,1920.97z M577.23,1841.79c6.05,2.58,12.34,2.34,15.53-0.38
		C587.67,1838.84,582.2,1838.88,577.23,1841.79z M505.4,1892.04c-0.36-0.45-0.52-0.87-0.75-0.91c-4.4-0.79-8.8-1.28-13.12,0.39
		c-0.46,0.18-0.77,0.77-1.25,1.28c5.23,1.63,9.33,1.83,13.42,0.61C504.34,1893.2,504.84,1892.5,505.4,1892.04z M728.91,1868.72
		c3.76,1.81,7.15,1.91,10.54,1.17c1.38-0.3,3.31,0.07,4.05-2.12C738.63,1866.28,733.98,1865.94,728.91,1868.72z M483.5,279.95
		c-0.34,0-0.69,0.01-1.03,0.01c0,3.93-0.02,7.86,0,11.79c0.03,5.08,0.08,10.16,0.17,15.25c0.01,0.68-0.14,1.67,1.09,1.62
		c0.16-0.26,0.44-0.51,0.44-0.76c-0.08-8.57-0.17-17.14-0.3-25.71C483.86,281.42,483.63,280.69,483.5,279.95z M336.68,218.59
		c2.78-0.42,3.9-1.52,3.74-3.38c-0.09-1.03-1.02-1.87-2.24-2.03c-0.97-0.13-1.69,0.51-1.72,1.73
		C336.44,216.12,336.6,217.34,336.68,218.59z M477.58,1886.82c-1.86,0.9-2.61,2.34-2.48,4.12c0.09,1.26,0.72,2.38,2.48,2.53
		C477.58,1891.3,477.58,1889.2,477.58,1886.82z M756.05,1867.61c-0.04,1.65-0.08,3.16-0.13,4.68c-0.02,0.65,0.02,1.24,0.89,1.24
		C759.1,1870.09,759.03,1869.38,756.05,1867.61z"/>
	<path class="st0" d="M651.43,1928.88c2.64-0.54,5.25-1.26,7.91-1.6c14.81-1.91,28.42-7.15,41.26-14.63
		c14.91-8.69,29.85-17.32,44.79-25.94c4.86-2.8,9.53-5.82,13.71-9.61c2.41-2.19,3.82-4.56,3.55-7.94c-0.19-2.38-0.03-4.8,0.15-7.19
		c0.13-1.7,0.57-3.38,0.87-5.06c0,23.99,0,47.98,0,71.97C726.26,1928.88,688.85,1928.88,651.43,1928.88z"/>
	<path class="st0" d="M762.97,1640.78c-0.2-1.24,0.15-6.12,0.14-7.37c-0.09-19.92-0.15-39.84-0.14-59.76c0-2.19,0.46-4.37,0.71-6.56
		C763.68,1590.45,762.97,1617.43,762.97,1640.78z"/>
	<path class="st1" d="M757.35,1295.45c-1-0.15-1.36-0.11-1.62-0.26c-8.29-4.77-17.4-7.11-26.67-9c-13.46-2.75-26.9-5.57-40.37-8.26
		c-10.81-2.16-21.64-4.16-32.46-6.24c-10.98-2.11-21.95-4.25-32.93-6.34c-9.6-1.82-19.29-2.9-29.05-3.13
		c-12.51-0.3-24.9,0.74-36.98,4.34c-5.38,1.61-10.5,3.81-15.37,6.61c-16.35,9.39-32.73,18.73-49.06,28.16
		c-5.25,3.04-10.37,6.32-15.55,9.49c-0.68,0.41-1.33,0.99-2.06,1.15c-0.45,0.1-1.36-0.35-1.49-0.75c-0.3-0.87-0.32-1.86-0.3-2.79
		c1.23-54.69,0.35-109.38,0.45-164.06c0.04-21.27-0.16-42.54-0.19-63.8c-0.03-17.27,0.09-34.54,0.04-51.81
		c-0.27-92.75-0.53-185.49-0.87-278.24c-0.09-24.14-0.57-48.29-0.66-72.43c-0.23-57.89-0.3-115.77-0.5-173.66
		c-0.16-46.05-0.44-92.11-0.65-138.16c-0.04-9.75,0.06-19.51,0-29.26c-0.02-3.73,1.48-6.45,4.66-8.31c3.31-1.93,6.62-3.88,9.93-5.81
		c15.74-9.16,31.53-18.25,47.22-27.51c14.98-8.85,31.29-12.64,48.49-13.13c10.58-0.3,21.07,0.84,31.53,2.27
		c18.53,2.53,36.75,6.77,55.06,10.45c15.34,3.09,30.69,6.13,46.03,9.25c7.51,1.53,15.01,3.12,22.48,4.84
		c4.85,1.11,9.45,2.87,13.63,5.7c3.46,2.34,5.07,5.28,5.05,9.62c-0.08,25.27,0.07,50.53,0.12,75.8
		c0.09,43.98,0.16,87.95,0.24,131.93c1.46,17.07,0.52,34.17,0.68,51.26c0.16,16.95,0.03,33.9,0.04,50.85
		c0.02,102.18-0.02,204.37,0.09,306.55c0.03,31.98,0.53,63.96,0.71,95.94c0.14,25.27,0.06,50.53,0.17,75.8
		c0.22,50.37,0.53,100.74,0.76,151.11c0.04,9.11-0.11,18.23-0.22,27.34C757.73,1292.36,757.51,1293.74,757.35,1295.45z"/>
	<path class="st1" d="M758.56,1862.44c-1.1-0.29-2.24-0.37-3.16-0.86c-8.88-4.76-18.6-6.65-28.36-8.42
		c-15.09-2.74-30.16-5.54-45.26-8.22c-18.72-3.32-37.42-6.73-56.19-9.75c-16.14-2.6-32.4-3.56-48.75-2.2
		c-10.28,0.85-20.23,2.99-29.54,7.56c-4.3,2.11-8.59,4.27-12.72,6.69c-18.06,10.59-36.06,21.28-54.08,31.95
		c-1.88,1.11-3.7,2.32-5.41,3.39c-1.34-0.76-1.27-1.77-1.1-2.69c1.43-7.78,0.83-15.62,0.79-23.45c-0.04-7.2-0.01-14.39-0.02-21.59
		c-0.04-44.94-0.01-89.88-0.13-134.82c-0.09-31.66-0.46-63.33-0.56-94.99c-0.14-47.5-0.15-95-0.2-142.5c0-1.43-0.03-2.91,0.28-4.29
		c0.61-2.68,2.59-4.29,4.84-5.66c8.6-5.23,17.11-10.62,25.79-15.73c12.26-7.21,24.63-14.24,36.98-21.29
		c9.72-5.55,20.21-8.56,31.32-9.81c10.21-1.15,20.42-1.25,30.65-0.77c9.6,0.46,19.03,2.24,28.43,4.14
		c24.89,5.04,49.8,9.96,74.67,15.1c11.26,2.33,22.45,4.99,33.64,7.63c4.53,1.07,8.74,2.97,12.72,5.45c3.75,2.34,5.56,5.59,5.44,9.97
		c-0.03,0.96,0,1.92,0,2.88c0.14,60.29,0.28,120.59,0.41,180.88c0.08,41.26,0.14,82.53,0.19,123.79c0.05,33.27,0.08,66.53,0.1,99.8
		C759.35,1857.13,759.59,1859.71,758.56,1862.44z M520.82,1804.59c0.18-2.71,0.07-5.58-1-8.31c-1.55-3.97-5.71-5.53-9.42-3.47
		c-1.09,0.6-2.12,1.48-2.89,2.45c-5.39,6.84-6.7,14.64-5.09,23.03c0.66,3.42,3.31,4.95,6.34,5.8c2.66,0.75,4.59-0.74,6.25-2.6
		c1.82-2.04,3.24-4.33,4.22-6.89C520.47,1811.44,521.02,1808.17,520.82,1804.59z"/>
	<path class="st1" d="M757.94,1433.53c-0.89-0.3-1.52-0.42-2.05-0.71c-9.08-4.98-18.91-7.77-29.02-9.47
		c-19.06-3.21-37.87-7.64-56.83-11.31c-18.5-3.58-36.99-7.2-55.55-10.41c-12.17-2.1-24.49-2.24-36.79-0.87
		c-4.6,0.51-9.16,1.32-13.74,2.02c-4.94,0.76-9.59,2.43-14.05,4.63c-8.73,4.32-17.36,8.81-25.84,13.63
		c-15.7,8.92-31.26,18.06-46.49,27.76c-1.03,0.65-2.01,1.73-3.57,0.83c-0.07-0.54-0.19-1.17-0.21-1.79c-0.03-1.12,0-2.24,0-3.36
		c-0.12-35.64-0.23-71.28-0.36-106.93c-0.01-4.16,0.02-8.32-0.19-12.46c-0.25-5.17,1.78-8.94,6.24-11.51
		c2.63-1.51,5.15-3.21,7.77-4.75c17.07-10.05,34.18-20.02,51.22-30.12c10.77-6.38,22.39-9.97,34.81-11.24
		c14.38-1.48,28.71-1.08,43.02,0.81c13.16,1.74,26.06,4.8,39.05,7.41c15.34,3.08,30.69,6.12,46.01,9.27
		c12.04,2.48,24.06,5.04,36.06,7.7c3.1,0.69,6.2,1.63,9.09,2.93c2.73,1.23,5.25,2.99,7.75,4.69c1.79,1.22,2.77,3.07,2.96,5.27
		c0.19,2.23,0.45,4.46,0.49,6.69c0.19,9.59,0.38,19.18,0.46,28.77c0.21,25.89,0.37,51.79,0.54,77.68c0.02,3.84,0.04,7.67-0.06,11.51
		C758.66,1431.27,758.23,1432.31,757.94,1433.53z M500.86,1378.24c-0.2,4.14,1.34,7.5,4.56,10.05c2.21,1.74,4.81,1.9,7.1,0.28
		c1.41-0.99,2.79-2.22,3.73-3.65c4.24-6.47,5.53-13.54,3.53-21.05c-0.44-1.64-1.39-3.26-2.47-4.58c-2.34-2.85-5.61-3.17-8.48-0.9
		c-1.23,0.97-2.26,2.25-3.18,3.54C502.2,1366.81,501.17,1372.42,500.86,1378.24z"/>
	<path class="st2" d="M482.93,1889.5c0.7-3.11,2.35-4.4,4.08-5.54c2.66-1.76,5.37-3.46,8.13-5.07
		c17.95-10.44,35.92-20.85,53.88-31.28c5.29-3.07,10.88-5.37,16.87-6.62c0.91-0.19,1.88-0.15,2.89-0.22
		c0.62,0.83,1.26,1.54,1.74,2.35c1.52,2.53,3.81,3.82,6.63,4.22c4.76,0.67,9.55,1.09,14.31,0.04c1.71-0.38,3.43-0.81,5.03-1.5
		c2.25-0.96,3.52-2.7,3.18-5.31c-0.1-0.77-0.16-1.55-0.27-2.69c1.08,0,2.01-0.12,2.9,0.02c18.61,2.98,37.25,5.74,55.8,9.04
		c22.95,4.09,45.82,8.63,68.72,12.99c1.87,0.36,3.73,0.8,5.56,1.19c-0.01,1.15-0.76,1.35-1.57,1.52c-1.72,0.37-3.47,0.63-5.13,1.19
		c-2.96,1.01-4.42,3.19-4.09,5.72c0.34,2.57,2.18,4.56,5.22,4.76c6.52,0.43,13.08,0.88,19.48-1.14c0.89-0.28,1.79-0.51,2.65-0.75
		c0.79,1.02,0.09,1.67-0.41,2.12c-1.88,1.71-3.65,3.65-5.81,4.92c-17.5,10.26-35.06,20.42-52.65,30.54
		c-6.24,3.59-12.7,6.73-19.57,8.95c-0.91,0.29-1.8,0.67-2.72,0.92c-2.18,0.58-3.58,0.31-4.45-1.67c-1.61-3.64-4.55-4.51-8.05-4.98
		c-4.17-0.55-8.29-0.64-12.39,0.28c-1.7,0.38-3.38,0.93-5.03,1.52c-2.68,0.98-4.36,2.64-3.67,5.81c0.09,0.43-0.12,0.93-0.23,1.68
		c-0.86,0.12-1.77,0.46-2.63,0.35c-14.9-1.88-29.71-4.28-44.49-6.96c-19.01-3.45-38.05-6.71-57.07-10.15
		c-9.74-1.76-19.45-3.71-29.16-5.59c-0.6-0.12-1.19-0.34-1.68-0.49c-0.21-1.07,0.36-1.22,1.02-1.32c2.21-0.31,4.43-0.59,6.63-0.98
		c0.93-0.16,1.86-0.48,2.72-0.87c1.77-0.81,2.62-2.34,2.69-4.21c0.07-1.91-0.82-3.45-2.49-4.34c-2.72-1.45-5.7-2.05-8.77-2.13
		c-4.69-0.13-9.2,0.85-13.64,2.26C485.9,1888.45,484.74,1888.88,482.93,1889.5z"/>
	<path class="st1" d="M753.64,311.37c-0.79-0.26-1.48-0.32-1.96-0.67c-7.02-5.12-15.13-7.46-23.47-9.16
		c-15.33-3.12-30.67-6.18-46.02-9.2c-18.64-3.67-37.27-7.42-55.96-10.83c-15.58-2.85-31.27-4.78-47.17-4.18
		c-10.27,0.39-20.31,2.1-30.11,5.23c-4.45,1.42-8.56,3.48-12.41,6.13c-2.21,1.52-4.4,3.16-7.36,4.04c-0.37-0.95-0.96-1.77-0.96-2.59
		c-0.06-9.75-0.03-19.5-0.02-29.24c0-1.44,0.11-2.88-0.01-4.31c-0.24-2.93-1.33-4.1-4.23-4.07c-3.83,0.04-7.65,0.34-11.47,0.58
		c-1.56,0.1-3.1,0.33-5.04,0.54c0.2-1.01,0.12-1.76,0.46-2.09c0.79-0.76,1.73-1.4,2.69-1.95c8.01-4.66,16.01-9.33,24.06-13.92
		c11.12-6.34,23.13-9.85,35.83-11.3c12.48-1.42,24.88-0.69,37.29,0.75c17.64,2.04,34.95,5.88,52.33,9.31
		c15.51,3.05,31.01,6.13,46.49,9.31c10.32,2.12,20.62,4.36,30.88,6.74c3.09,0.71,6.07,1.95,9.01,3.18c1.6,0.67,3.03,1.77,4.46,2.78
		c2.82,1.98,4.17,4.65,4.05,8.18c-0.16,4.95-0.1,9.91-0.12,14.87c-0.04,8.79-0.06,17.58-0.13,26.38
		C754.73,307.59,755.03,309.4,753.64,311.37z"/>
	<path class="st3" d="M577.04,196.36c-5.37,0.74-10.77,1.34-16.11,2.24c-9.54,1.6-18.58,4.74-26.78,9.92
		c-3.76,2.37-7.56,2.96-11.88,2.09c-20.66-4.19-41.34-8.24-62.01-12.38c-11.59-2.32-23.15-4.72-34.74-7.03
		c-2.65-0.53-5.35-0.86-8.42-1.34c0.45-0.59,0.68-1.15,1.09-1.4c7.96-4.74,16.02-9.32,23.89-14.2c5.35-3.32,10.97-4.19,17-2.94
		c15.32,3.17,30.62,6.48,45.96,9.57c17.22,3.46,34.48,6.72,51.71,10.11c6.11,1.2,12.19,2.51,18.28,3.81
		c0.72,0.15,1.39,0.53,2.09,0.81C577.09,195.86,577.07,196.11,577.04,196.36z"/>
	<path class="st3" d="M490.16,256.15c0-4.76,0-8.74,0-12.72c0-1.12,0.08-2.24,0.05-3.35c-0.08-2.72-1.46-4.48-4.05-5.28
		c-0.91-0.28-1.85-0.48-2.78-0.68c-7.8-1.62-15.61-3.22-23.41-4.85c-0.28-0.06-0.51-0.32-1.05-0.69c0.34-0.45,0.57-1.08,1.01-1.3
		c3.5-1.75,4.42-4.63,4.2-8.35c-0.26-4.29-0.17-8.61-0.19-12.92c0-0.75,0.26-1.5,0.46-2.57c3.93,0.8,7.65,1.56,11.37,2.31
		c15.31,3.09,30.63,6.19,45.94,9.28c0.47,0.09,0.94,0.16,1.41,0.27c2.89,0.69,3.4,1.36,3.45,4.24c0.07,3.66,0.15,7.33,0.29,10.99
		c0.14,3.89-1.44,6.69-4.88,8.6c-8.91,4.95-17.76,10.02-26.67,14.98C493.95,254.89,492.4,255.29,490.16,256.15z"/>
	<path class="st1" d="M493.92,298.3c-0.17-1.11-0.48-2.18-0.49-3.25c-0.09-10.68-0.16-21.36-0.16-32.04c0-3.14,0.53-3.89,3.71-4.56
		c5.61-1.17,11.26-2.13,16.9-3.13c1.72-0.31,3.46-0.53,5.2-0.73c1.56-0.18,3.14-0.56,4.57,0.08c0.99,1.6,0.74,3.23,0.74,4.8
		c0.01,10.68,0,21.36-0.01,32.04c0,0.32,0.01,0.64-0.01,0.96c-0.17,2.88-0.95,3.82-3.73,3.79c-6.25-0.06-12.38,0.89-18.51,1.94
		c-2.03,0.35-4.12,0.41-6.19,0.51C495.36,298.74,494.75,298.47,493.92,298.3z"/>
	<path class="st4" d="M482.97,267.73c-0.86,4.5-1.78,8.7-2.45,12.94c-0.98,6.19-0.66,12.41-0.35,18.64
		c0.29,5.9,0.37,11.81,0.57,17.71c0.08,2.41-0.6,4.33-2.88,5.58c-1.24,0.68-2.2,1.84-3.4,2.61c-0.6,0.39-1.54,0.67-2.18,0.49
		c-1.01-0.28-1.27-1.32-1.25-2.35c0.05-2.71,0.14-5.43,0.14-8.14c-0.01-10.86-0.05-21.72-0.1-32.58c-0.01-2.25,0.1-4.46,0.93-6.59
		c1.82-4.66,5.1-7.62,10-8.72C482.23,267.28,482.55,267.55,482.97,267.73z"/>
	<path class="st3" d="M485.33,242.13c0.12,0.73,0.34,1.48,0.36,2.23c0.09,3.5,0.09,6.99,0.21,10.49c0.06,1.68-0.21,3.17-1.59,4.28
		c-3.72,2.99-7.61,5.73-11.96,7.75c-0.11,0.05-0.3-0.07-0.45-0.11C467.25,256.95,474.72,243.03,485.33,242.13z"/>
	<path class="st3" d="M486.5,316.92c-0.45-3.97,0.56-7.37,1.08-10.81c0.2-1.34,1.21-2.45,2.62-2.43c7.95,0.11,15.32-2.99,23.06-3.98
		c0.88-0.11,1.79-0.02,2.76-0.02c-0.19,0.5-0.22,0.93-0.43,1.05c-9.09,5.32-18.18,10.62-27.3,15.89
		C487.93,316.85,487.39,316.79,486.5,316.92z"/>
	<path class="st3" d="M488.55,300.1c-0.19-0.93-0.45-1.67-0.47-2.42c-0.17-6.52-0.42-13.03-0.41-19.55
		c0.01-4.44,0.36-8.89,0.61-13.33c0.04-0.74,0.13-1.63,1.19-1.68c0.9,0.16,0.85,0.88,0.86,1.45c0.01,10.81,0.01,21.62-0.02,32.44
		c0,0.77-0.15,1.58-0.43,2.29C489.75,299.62,489.15,299.76,488.55,300.1z"/>
	<path class="st3" d="M648.84,1920.97c-1.27,0-2.54,0.07-3.81-0.03c-0.77-0.06-1.6-0.25-2.25-0.64c-0.44-0.27-0.89-1.01-0.84-1.49
		c0.05-0.47,0.7-1.2,1.14-1.24c2.67-0.24,5.36-0.37,8.05-0.43c1.26-0.03,2.53,0.16,3.79,0.28c0.84,0.08,1.58,0.43,1.57,1.4
		c-0.01,0.92-0.7,1.4-1.53,1.54c-1.4,0.24-2.81,0.41-4.23,0.57c-0.63,0.07-1.27,0.01-1.9,0.01
		C648.84,1920.96,648.84,1920.97,648.84,1920.97z"/>
	<path class="st3" d="M577.23,1841.79c4.98-2.91,10.44-2.95,15.53-0.38C589.57,1844.14,583.28,1844.38,577.23,1841.79z"/>
	<path class="st3" d="M505.4,1892.04c-0.56,0.46-1.05,1.17-1.7,1.36c-4.09,1.23-8.19,1.02-13.42-0.61c0.48-0.51,0.78-1.1,1.25-1.28
		c4.31-1.68,8.72-1.18,13.12-0.39C504.87,1891.16,505.04,1891.59,505.4,1892.04z"/>
	<path class="st3" d="M728.91,1868.72c5.07-2.78,9.73-2.43,14.59-0.95c-0.75,2.19-2.67,1.82-4.05,2.12
		C736.05,1870.63,732.66,1870.53,728.91,1868.72z"/>
	<path class="st3" d="M483.5,279.95c0.13,0.73,0.36,1.47,0.37,2.2c0.12,8.57,0.22,17.14,0.3,25.71c0,0.25-0.28,0.5-0.44,0.76
		c-1.23,0.05-1.07-0.95-1.09-1.62c-0.09-5.08-0.14-10.16-0.17-15.25c-0.02-3.93,0-7.86,0-11.79
		C482.81,279.96,483.16,279.96,483.5,279.95z"/>
	<path class="st4" d="M477.58,1886.82c0,2.38,0,4.49,0,6.65c-1.76-0.15-2.39-1.26-2.48-2.53
		C474.97,1889.15,475.72,1887.72,477.58,1886.82z"/>
	<path class="st4" d="M756.05,1867.61c2.98,1.77,3.05,2.48,0.77,5.92c-0.87,0-0.91-0.59-0.89-1.24
		C755.97,1870.77,756,1869.25,756.05,1867.61z"/>
	<path d="M520.82,1804.59c0.19,3.57-0.35,6.84-1.57,10.02c-0.98,2.56-2.4,4.86-4.22,6.89c-1.66,1.86-3.59,3.35-6.25,2.6
		c-3.03-0.85-5.69-2.37-6.34-5.8c-1.61-8.39-0.3-16.19,5.09-23.03c0.77-0.98,1.8-1.85,2.89-2.45c3.71-2.07,7.87-0.51,9.42,3.47
		C520.89,1799.02,521.01,1801.88,520.82,1804.59z M516.25,1804.1c-0.11-1.58-0.18-3.17-0.35-4.75c-0.13-1.18-0.76-2.08-1.9-2.53
		c-1.04-0.41-2.34,0.08-3.3,1.31c-0.49,0.62-0.84,1.34-1.28,2c-3.1,4.67-2.99,9.91-2.68,15.18c0.14,2.37,1.07,3.7,2.7,4
		c1.97,0.36,2.86-1.04,3.67-2.43C515.41,1812.94,516.42,1808.66,516.25,1804.1z"/>
	<path d="M500.86,1378.24c0.3-5.82,1.34-11.43,4.79-16.3c0.91-1.29,1.95-2.57,3.18-3.54c2.87-2.27,6.14-1.95,8.48,0.9
		c1.09,1.32,2.03,2.94,2.47,4.58c2,7.51,0.71,14.58-3.53,21.05c-0.93,1.43-2.32,2.65-3.73,3.65c-2.3,1.62-4.9,1.46-7.1-0.28
		C502.2,1385.74,500.66,1382.38,500.86,1378.24z M514.97,1370.04c0.29-3.13-0.42-5.06-1.38-6.92c-0.85-1.65-2.3-1.76-3.33-0.22
		c-2.52,3.76-4.17,7.86-4.58,12.41c-0.21,2.42,0.2,4.76,0.92,7.06c0.29,0.94,0.72,2.03,1.75,1.95c0.8-0.06,1.83-0.7,2.27-1.39
		c1.11-1.72,2.24-3.52,2.82-5.45C514.27,1374.77,514.61,1371.9,514.97,1370.04z"/>
	<path class="st3" d="M516.25,1804.1c0.17,4.57-0.83,8.84-3.15,12.78c-0.81,1.39-1.71,2.79-3.67,2.43c-1.62-0.3-2.55-1.63-2.7-4
		c-0.31-5.26-0.42-10.51,2.68-15.18c0.44-0.66,0.79-1.38,1.28-2c0.97-1.23,2.27-1.71,3.3-1.31c1.14,0.45,1.77,1.35,1.9,2.53
		C516.07,1800.93,516.14,1802.51,516.25,1804.1z"/>
	<path class="st3" d="M514.97,1370.04c-0.36,1.85-0.7,4.72-1.52,7.45c-0.58,1.93-1.71,3.74-2.82,5.45
		c-0.45,0.69-1.47,1.33-2.27,1.39c-1.03,0.07-1.46-1.02-1.75-1.95c-0.72-2.3-1.13-4.64-0.92-7.06c0.4-4.55,2.05-8.65,4.58-12.41
		c1.04-1.55,2.48-1.43,3.33,0.22C514.55,1364.98,515.26,1366.92,514.97,1370.04z"/>
</g>
</svg>
