<?xml version="1.0" encoding="utf-8"?>
<!-- Generator: Adobe Illustrator 24.0.1, SVG Export Plug-In . SVG Version: 6.00 Build 0)  -->
<svg version="1.1" id="Laag_1" xmlns="http://www.w3.org/2000/svg" xmlns:xlink="http://www.w3.org/1999/xlink" x="0px" y="0px"
	 viewBox="0 0 374.9 1889.9" style="enable-background:new 0 0 374.9 1889.9;" xml:space="preserve">
<style type="text/css">
	.st0{stroke:#010202;stroke-miterlimit:10;}
	.st1{fill:#FFFFFF;stroke:#010202;stroke-miterlimit:10;}
	.st2{fill:#020203;stroke:#010202;stroke-miterlimit:10;}
	.st3{fill:#0066FF;stroke:#010202;stroke-width:2;stroke-miterlimit:10;}
</style>
<path class="st0" d="M160.5,50.2c0-10.5,0.5-19.5-0.2-28.4c-0.6-7.6,1.5-13.1,8.1-17.1c5.8-3.6,11.6-5.4,18.7-4.4
	c6.9,1,11.6,4.8,16.2,9.1c1.9,1.8,3,5.2,3.1,8c0.4,9,0.4,18,0.2,27c0,3.8,1.3,5.1,5.3,5.1c25.1,0.1,50.2,0.3,75.3,0.9
	c18.2,0.4,36.1,3.3,52.8,11.1c16,7.5,26.8,18.6,26.9,39.4c0.1,49.3,0.9,98.5,1.4,147.8c0.3,28.8,0.5,57.6,0.8,86.4
	c0.3,26.5,0.7,53,0.9,79.4c0.4,52.7,0.6,105.5,1,158.2c0.3,49.3,0.8,98.6,1.1,147.9c0.1,27.2,0,54.3,0.1,81.4
	c0.2,77.6,0.5,155.2,0.6,232.7c0.1,91.3,0.1,182.6,0.2,273.9c0.1,73.5,0.1,147,0.3,220.4c0.1,63.5,0.3,126.9,0.7,190.4
	c0.2,38.4,0.4,76.9,1.1,115.4c0.3,18.1-7.8,30.6-23.2,39.2c-14.6,8.2-30.6,11.3-46.9,12.8c-15.8,1.5-31.6,1.8-47.5,2.1
	c-23.6,0.4-47.2,0.2-70.7,0.4c-11.3,0.1-22.5,0.6-33.8,0.6c-15.6,0-31.2-0.2-46.8-0.5c-11.2-0.2-22.5-0.4-33.7-1.2
	c-19.4-1.4-38-5.7-54.2-17.2c-9.8-6.9-15.2-16.8-15.5-29c-0.4-16.8-0.5-33.5-0.9-50.2c-0.2-9.6-0.9-19.1-0.9-28.7
	c-0.1-6.6,0.8-13.2,0.7-19.8c-0.1-21.7-0.6-43.3-0.7-65c-0.1-12.6,0.4-25.2,0.3-37.9c-0.2-51.1-0.4-102.2-0.7-153.3
	c-0.1-16.8-0.6-33.5-0.6-50.3c0.1-24.9,0.5-49.9,0.7-74.8c0.1-13.2,0-26.3,0.1-39.5c0.1-18.7,0.4-37.3,0.6-56
	c0.3-33.3,0.6-66.5,0.8-99.8c0.1-17.6-0.2-35.2-0.1-52.8c0.2-23.9,0.7-47.9,0.9-71.8c0.1-15.8-0.2-31.6-0.2-47.4
	c0.2-32.6,0.6-65.2,0.7-97.8c0.2-37,0.1-73.9,0.3-110.9c0.1-19.8,0.4-39.6,0.4-59.4c0-23.3-0.3-46.7-0.3-70.1
	c0-14.8,0.6-29.5,0.5-44.2c-0.1-23.5-0.7-46.9-0.8-70.3c-0.1-46,0.1-91.9,0-137.9c-0.1-38.8-0.6-77.6-0.9-116.4
	c-0.2-22.4-0.3-44.7-0.5-67.1c-0.2-20.6-0.5-41.2-0.8-61.8c-0.2-16.9-0.8-33.8-0.6-50.6C0.8,96.6,1,84.9,9.1,75.5
	c7.2-8.4,16.5-13.6,26.7-17.3c16.3-5.8,33.3-7.8,50.4-8C110.8,50,135.2,50.2,160.5,50.2z M6.1,283.4c-0.2,2.8-0.5,5-0.5,7.2
	c0.3,34,0.7,67.9,0.9,101.9C6.8,458.8,6.9,525.2,7,591.6c0.1,47.2-0.1,94.5,0,141.7C7,764,7.4,794.7,7.4,825.3
	c0,17-0.6,33.9-0.7,50.8c-0.3,39-0.4,78-0.6,116.9c-0.2,57.2-0.4,114.5-0.7,171.7c-0.1,15.8-0.5,31.6-0.6,47.3
	c-0.3,50.1-0.6,100.2-0.8,150.3c-0.1,24.9-0.1,49.9-0.2,74.8c0,40.5-0.1,80.9,0,121.4c0.1,29,0.4,57.9,0.8,86.9
	c0.2,11.8,4.8,21.6,14.7,28.5c12.6,8.8,26.8,13.6,41.8,14.8c18.7,1.6,37.6,2.3,56.3,2.2c56.1-0.3,112.2-0.9,168.3-1.8
	c18.2-0.3,36.2-2.4,53.2-9.6c9.7-4.1,18.9-8.8,25.2-17.9c6.2-8.8,6.3-18.7,6.3-28.7c-0.3-57.7-0.6-115.4-0.9-173.2
	c-0.1-26-0.1-51.9-0.1-77.9c0-44.1-0.2-88.3,0-132.4c0.1-55.9,0.6-111.8,0.7-167.7c0.1-25.4-0.5-50.8-0.6-76.3
	c-0.1-27.8-0.1-55.5-0.1-83.3c0-25,0.2-49.9,0.1-74.9c-0.2-29.8-0.7-59.5-0.9-89.3c-0.1-22.1,0.2-44.2,0.1-66.3
	c-0.1-33.8-0.4-67.6-0.6-101.4c-0.2-28.1-0.3-56.2-0.6-84.3c-0.2-21.4-0.7-42.9-0.9-64.3c-0.2-23.9-0.1-47.8-0.2-71.8
	c-0.1-21.6-0.2-43.2-0.3-64.8c0-8,0-16,0-25.3c-2.2,1.4-3,1.7-3.4,2.2c-8.5,12.1-21.1,17.9-34.7,22c-21.1,6.5-43,6.1-64.8,6.9
	c-4.1,0.1-8.2,0.8-12.1,1.7c-3.4,0.8-6.5,2.7-9.8,3.3c-11.9,2.2-23.9,4.4-35.9,6c-9.5,1.3-18.8,4.1-28.6,1.8
	c-8.2-1.9-16.8-2.3-25.1-3.8c-10.9-2-22.4-1.5-32.2-7.9c-1-0.6-2.6-0.4-3.9-0.5c-16.1-0.5-32.3-0.5-48.4-1.8
	c-15.2-1.2-30-4.5-43.2-12.6C18,293.8,12.8,288.7,6.1,283.4z M370.3,1661.5c-0.7-0.6-1.5-1.2-2.2-1.7c-0.9,1.6-1.6,3.3-2.6,4.8
	c-7.8,11-19.4,16.2-31.6,20c-8.2,2.5-16.6,4.4-25.1,5.6c-11.1,1.5-22.4,2.4-33.6,2.9c-10.8,0.4-21.6-0.3-32.4-0.2
	c-22.1,0.3-44.2,0.9-66.3,1.2c-24.5,0.2-48.9,0.3-73.4,0.2c-21.4,0-42.8,0.1-63.4-7c-11.5-4-22.4-8.9-30.8-18.2
	c-0.9-1-2.4-1.6-4.5-2.9c0,5.2,0,9.1,0,13.1c0.1,32.1,0.2,64.2,0.4,96.4c0.1,20.9,0.6,41.8,0.8,62.7c0.1,16.2,8,27.6,21.9,35.1
	c13.6,7.3,28.4,10.9,43.8,11.8c14.6,0.8,29.2,1.2,43.8,1.1c48.9-0.1,97.9-0.4,146.9-0.9c15.6-0.2,31.2-1,46.7-2.3
	c14.6-1.3,28.7-4.6,41.8-11.8c13.1-7.3,21.8-17.2,21.6-33.1c-0.1-7.7-0.3-15.3-0.4-22.9c-0.4-49.6-0.7-99.2-1.1-148.8
	C370.5,1664.8,370.4,1663.2,370.3,1661.5z M130.1,132.2c-5.8,6.6-11.7,11.7-15.7,18c-4.8,7.6,0.3,14.8,4.5,22.2
	c-5.6,1.3-10.2,2.2-14.8,3.5c-3.2,0.9-4.9-0.3-6.6-2.8c-6-8.6-6.4-17.4-3.3-27.4c2-6.5,1.1-13.8,1.5-21.1c-1.8,0.3-2.4,0.2-2.8,0.4
	c-7.8,4.5-16.1,4.9-24.6,2.4c-4.1-1.2-8-3.3-8.3-8.1c-0.3-4.4,3.2-6.3,6.6-7.7c2.8-1.2,5.8-2,7.9-2.6c-0.7-3.8-1.6-7.2-1.8-10.7
	c-0.3-4.3-0.3-8.7-0.1-13c0.2-3.5-1.1-5.1-4.6-4.5c-8.7,1.4-17.4,2.7-26,4.4c-4.4,0.9-7.8,3.5-9.3,8.1c-0.4,1.2-1.1,2.5-2,3.4
	c-4.6,4.8-6.1,10.6-6,16.9c0.1,24.6,0.1,49.3,0.6,73.9c0.2,8.4,1.1,16.9,2.7,25.1c0.5,2.9,3.3,6.5,6,7.7c12.6,5.7,26.1,8.2,39.8,8.5
	c24.9,0.6,49.9,0.3,74.8,0.4c28.5,0.1,56.9-0.1,85.4,0.1c30.9,0.2,61.9,2.1,92.1-6.5c5.1-1.4,10.9-3.3,14.3-7c3-3.2,4.1-9.2,4.1-14
	c0.3-23,0.2-46-0.1-68.9c-0.1-8.8-0.6-17.6-2.1-26.2c-0.9-4.8-3.9-9.3-6.6-13.6c-1.8-2.9-4.3-6.4-7.2-7.3
	c-6.5-2.1-13.5-2.9-20.3-4.1c-3.9-0.7-7.8-1.2-11.8-1.7c-0.5,9.9-1,19-1.5,28.7c2.1,0.7,5.8,1.2,8.5,3.1c2.3,1.6,5.1,4.9,4.8,7.1
	c-0.4,2.6-3.3,6-5.9,6.9c-4.6,1.6-9.7,2.2-14.6,2c-4.3-0.2-8.5-2-13.6-3.4c0.8,8-1.6,16.1,2,24c0.9,1.9,1.3,4.1,1.4,6.2
	c0.9,12.9-6.4,21.4-15.7,28.9c-4.7,3.8-9.1,4.9-14.4,1.4c-2.3-1.5-4.8-2.7-7.1-4.1c2-2,3.8-4.3,6-6.1c11.5-8.8,13.3-17,6.3-29.6
	c-1.2-2.1-1.4-4.2,1.2-4.7c3.3-0.6,2.8-2.7,2.8-4.8c0-10.1-0.2-20.2,0.1-30.3c0-2.1,1.4-5.7,2.4-5.8c5.9-0.7,5.3-4.2,4.7-8.3
	c-0.4-2.4-0.4-5.1,0.1-7.5c0.8-4.3-0.7-5.6-5-5.6c-16,0.2-32,0.2-48,0.1c-3.2,0-3.5,1.5-3.5,4c0.1,16.7,0.3,33.3,0.2,50
	c0,4.7,1.3,7.3,6.1,9.3c6.7,2.7,12.9,7.2,12.8,15.6c-0.1,8.6-6.6,12.5-13.4,15.8c-0.3,0.1-0.6,0.2-0.9,0.4
	c-11.5,5-23.6,5.9-35.8,4.7c-9-0.9-17.7-3.2-25.3-8.6c-7.2-5.2-10-13-5.5-19.3c2.5-3.6,6.9-5.9,10.8-8.4c2.6-1.7,5.4-2.6,5.3-6.8
	c-0.3-17.3-0.3-34.7-0.2-52c0-3.7-1.4-4.6-4.7-4.5c-10.3,0.2-20.7,0.2-31,0.2c-6.9,0-13.9,0-21,0c0,6.5-0.1,12.2,0.1,17.8
	c0,1,1.1,2.9,1.9,2.9c5,0.6,5,4,4.9,7.7c0,6.3,0,12.5,0,17.5C118.9,127.5,124.6,129.9,130.1,132.2z M258.6,308
	c0.6,0,1.9,0.2,3.2,0.2c13.3-0.6,26.6-1,39.9-1.9c15.4-1,30.2-4.7,43.7-12.4c12.8-7.2,20.3-17.7,20.1-32.9c-0.2-19-0.1-38-0.2-57
	c0-0.7-0.5-1.4-1.3-3.9c-1.3,2.2-1.9,3.4-2.7,4.4c-7.8,10.5-19,15.8-30.8,20c-17.4,6.2-35.5,7.5-53.6,7.6c-60,0.4-120,0.1-179.9,0.4
	c-21.1,0.1-42-0.9-61.9-8.5c-10.4-3.9-20.2-8.7-26.5-18.5c-0.6-0.9-1.9-1.4-4-2.8c0,4.6,0,7.9,0,11.2c0.2,15.4,0.6,30.9,0.4,46.4
	c-0.2,12.6,4.8,22.8,14.3,30.4c8.5,6.8,18.7,10.8,29.3,13.3c21.4,5.1,43.2,5,65,4.8c0.6,0,1.2-0.5,1.7-0.7
	c-0.6-4.8-1.5-9.3-1.7-13.9c-0.3-9.3-0.1-18.6-0.2-27.9c-0.1-10.5,3.8-15.4,14.3-16.5c7.2-0.8,14.5-0.6,21.8-0.6
	c31.1-0.1,62.3-0.1,93.5-0.1c9.1,0,15.5,6.2,15.6,15.3C258.8,278.9,258.6,293.3,258.6,308z M24.4,215.8c0-2,0.1-2.9,0-3.9
	c-0.9-9.4-2.3-18.8-2.5-28.2c-0.5-18.1-0.2-36.2-0.4-54.4c-0.1-13.2-0.9-26.3,8.4-37.8c3.6-4.5,6.7-8.4,12.4-9.5
	c8.8-1.6,17.6-3.1,26.4-4.7c1.2-0.2,2.7-0.7,3.4-1.6c9.8-11.3,20.1-11.9,31.2-2c1.3,1.2,3.5,1.8,5.3,1.8c11.2,0,22.3-0.2,33.5-0.3
	c6.1-0.1,12.2,0,18.7,0c0-7.7,0-14.7,0-22c-3.9-0.2-7.3-0.6-10.8-0.6c-21.6,0.1-43.2,0.1-64.8,0.6C65.5,53.8,46.1,56.3,28,65
	C12,72.8,3,84.6,3.6,103.1c0.6,18.6,0.4,37.3,0.8,55.9c0.2,11,0.2,22,1.4,32.8C7.1,202.9,14.7,209.8,24.4,215.8z M347.2,212.9
	c8.7-2.4,17.2-15.1,17.3-24.3c0.1-18.1,0-36.2-0.1-54.3c-0.1-11-0.3-21.9-0.3-32.9c0-13.5-4.4-24.6-16.2-32.2
	c-13.3-8.6-28-13.5-43.5-14.5c-22.9-1.4-45.9-1.7-68.9-2.2c-9.3-0.2-18.6,0-28.1,0c0,7.1-0.1,13.7,0.2,20.3c0.1,0.9,2.4,2.4,3.8,2.5
	c16.3,0.2,32.6,0.2,48.9,0.1c1.6,0,3.6-0.8,4.7-1.9c9.3-9.7,22.4-9.2,30.6,1.4c0.7,1,1.9,2.1,3,2.3c5.4,1,10.8,2.1,16.2,2.5
	c10.3,0.9,20,2.3,24.5,13.5c2.5,6.2,6.6,12.4,7,18.8c1.2,18.4,1,36.9,1.1,55.4C347.5,182.4,347.3,197.6,347.2,212.9z M168.6,91.5
	c0.3,0,0.7,0,1,0c0,9.8,0,19.6,0,29.5c0.1,12.1,0.2,24.3,0.3,36.5c0,3.6,0.7,6,5.4,5.3c4.2-0.6,8.6-0.2,12.9-0.2
	c12,0.1,12.5,2.4,11.3-10.8c0-0.3,0-0.7,0-1c-0.4-41.4-0.8-82.9-1.4-124.3c0-1.7-1.4-4-2.8-5.1c-7.1-5.4-14.7-5.1-22.5-1.2
	c-3.2,1.6-4.4,3.8-4.4,7.5C168.8,48.9,168.6,70.2,168.6,91.5z M187.6,295.3c0.1,0,0.2,0,0.3,0c0,7.5,0.1,15,0,22.4
	c0,2.6,0.5,4.2,3.7,3.6c17.2-2.8,34.4-5.4,51.5-8.3c8.1-1.4,13.8-7.8,13.8-14.8c0-9.1-0.2-18.3-0.4-27.4
	c-0.2-11.5-4.2-14.9-15.5-13.3c-1.3,0.2-2.6,0.4-3.9,0.7c-15.1,3-30.2,6.2-45.4,9.1c-3.1,0.6-4.1,2-4.1,5
	C187.7,280,187.6,287.6,187.6,295.3z M184.7,321.7c0-17.4,0-33.5,0-49.5c0-2.7-0.9-3.8-3.6-4.3c-9.6-1.8-19.2-3.8-28.9-5.6
	c-8-1.5-16-3.2-24.1-4.2c-7.8-1-11.7,2.7-11.7,10.3c0,9.6,0.1,19.3,0.2,29c0.1,9.2,5,14.9,14,16.4c10.1,1.7,20.3,3.1,30.5,4.6
	C168.9,319.5,176.6,320.5,184.7,321.7z M208.8,142.6c-0.4,0.6-0.8,0.8-0.8,1.1c-0.1,4-0.1,8-0.2,11.9c-0.2,6-3.6,9.5-9.7,9.6
	c-8.3,0.1-16.6,0.1-24.9,0.1c-7.5-0.1-10.6-3.3-10.7-10.9c-0.1-3.7-0.4-7.4-0.6-11.2c-10.1,1.6-16.1,7.7-15.3,15
	c0.8,6.6,6,9.7,11.3,12.1c11.7,5.2,24.2,6.2,36.6,4.7c7.3-0.9,14.6-3.9,21.5-6.8c4.2-1.8,7.7-5.2,7.7-10.6
	C223.7,150.6,217.9,144.7,208.8,142.6z M243.7,254.2c-0.1-0.4-0.1-0.9-0.2-1.3c-38.6,0-77.1,0-115.7,0c0,0.4-0.1,0.9-0.1,1.3
	c0.7,0.3,1.4,0.8,2.2,0.9c17,3.2,33.9,6.4,51,9.4c3.2,0.6,6.7,0.6,9.9,0c12.9-2.3,25.8-4.9,38.6-7.5
	C234.1,256.1,238.9,255.1,243.7,254.2z M266.7,75.1c0,3.5-0.1,5.5,0,7.5c0.3,6.4-2.2,13.7,5.1,18.2c0.5,0.3,0.7,1.2,0.8,1.8
	c0.7,4.2,3.6,5.3,7.3,5.2c4.6-0.2,10.4,0.3,12.1-4.7c3-8.4,0.9-17.2,1.3-26.8C283.8,81.4,275.6,82.5,266.7,75.1z M75,75.3
	c0,3.6-0.1,5.7,0,7.8c0.2,5.4,0.4,10.9,0.6,16.4c0.1,5.2,1.9,7.3,7.2,8.2c8.2,1.3,11.2,0.1,13.2-4.9c0.7-1.7,2.4-2.9,3.7-4.3
	c0.7-0.8,1.9-1.5,1.9-2.3c0.2-6.2,0.1-12.4,0.1-19.3C92.4,81.2,84.1,82.9,75,75.3z M263,102.1c-0.8,6.5-1.9,12.6-2.3,18.8
	c-0.6,8.4-0.9,16.9-0.8,25.4c0.1,10.9,0.6,21.8,0.9,32.8c5-1.7,7.6-4.5,7.6-7.9c-0.1-8.5-0.6-16.9-0.5-25.4s0.4-16.9,0.9-25.4
	c0.3-4.3,1.7-8.5,1.8-12.7C270.7,101.1,269,100.2,263,102.1z M102.6,137c6.9,0.3,7.3,0.2,6.8-6.3c-0.7-8.8-1.9-17.7-3.1-26.5
	c-0.1-0.9-1.2-2-2.1-2.4c-4.1-1.8-6.9,0.1-6.4,5.6C98.9,117.3,100.9,127,102.6,137z M299.4,122.2c0.2,0.7,0.5,1.4,0.7,2.2
	c1.8-1.5,4.5-2.7,5.1-4.7c0.5-1.4-1.3-4.7-2.8-5.4c-7.5-3.5-15.4-4.1-23-0.4c-1.7,0.8-3.8,4.5-3.3,5.5c1,1.9,3.9,4.1,6,4.1
	C287.8,123.7,293.6,122.7,299.4,122.2z M78.7,111.7c-4.1,0.9-8.2,1.2-11.7,2.7c-1.8,0.8-2.8,3.6-4.1,5.5c2.4,1.4,5.2,4.4,7.2,3.9
	c5.6-1.3,10.7-1.2,16.2,0c1.9,0.4,4.9-2,6.6-3.8c0.5-0.5-1.5-4.7-3.2-5.5C86.3,113,82.4,112.6,78.7,111.7z M106.6,157.1
	C106.6,157.1,106.6,157.1,106.6,157.1c-0.1-4,0-7.9-0.1-11.9c0-2.2,0.6-4.9-3.2-4.7c-3.1,0.2-5.5,0.9-5.4,4.8
	c0.1,6.8,0,13.6,0.2,20.4c0,1.6,0.3,3.6,1.3,4.7c1.1,1.3,3,2.4,4.6,2.4c0.9,0,2.4-2.4,2.5-3.8C106.8,165,106.6,161,106.6,157.1z
	 M202.8,156.4c0.8,0,1.5,0,2.3-0.1c-0.5-44-1-88.1-1.5-132.1c-0.3,0-0.5,0-0.8,0C202.8,68.4,202.8,112.4,202.8,156.4z M166,24.4
	c-0.3,0-0.7,0-1,0c0,44,0,87.9,0,131.9c0.3,0,0.7,0,1,0C166,112.3,166,68.4,166,24.4z M183.9,2.4c-3.9,1-7.4,1.5-10.6,2.9
	c-3.5,1.6-3.5,4.6-0.2,6.4c6.6,3.5,13.5,3,20.1-0.1c3.2-1.5,3.2-4.5,0.1-6.1C190.4,4.1,186.9,3.4,183.9,2.4z M79,74
	c3.1,3.5,11.8,5.1,15.8,2.9c2.6-1.4,2.7-3.3,0.7-5.2C92.3,68.7,81.6,70.3,79,74z M280.5,68.7c-0.2,0.4-0.5,0.9-0.7,1.3
	c-1.6,0.1-3.4-0.1-4.9,0.4c-1.5,0.6-2.8,2-4.1,3.1c1.3,1,2.5,2.4,4,3c1.6,0.7,3.5,0.8,5.3,0.8c3.3,0,7.6,0.4,8-3.6
	C288.2,72.2,283.2,70.4,280.5,68.7z M244.8,180.6c3.6,1.4,6.1,2.9,8.8,3.3c1.2,0.2,3.7-1.4,3.8-2.5c0.5-3.9,0.2-7.8,0.2-12.9
	C252.9,173,249.3,176.4,244.8,180.6z M124.4,132.1c-3.9-0.6-8.8-2.7-10.5-1.2c-3.8,3.2-1.4,8.4,0.4,13.4
	C117.3,140.6,120.3,137,124.4,132.1z M204.8,14.9c-2.3-2-4.8-4.6-5.1-4.3c-2,1.5-3.5,3.6-5.2,5.5c1.7,1.1,3.4,3,5.1,2.9
	C201.1,19,202.6,16.8,204.8,14.9z M173,15.8c-1.5-1.4-2.9-2.5-4-3.9c-2.4-3.1-4.3-1.4-4.9,1c-0.4,1.6,0.3,4.5,1.5,5.4
	C168.7,20.7,170.9,18.3,173,15.8z"/>
<path class="st1" d="M6.1,283.4c6.6,5.3,11.9,10.4,18,14.2c13.2,8.1,28.1,11.4,43.2,12.6c16.1,1.2,32.2,1.2,48.4,1.8
	c1.3,0,2.9-0.2,3.9,0.5c9.8,6.4,21.3,5.9,32.2,7.9c8.3,1.5,16.9,1.9,25.1,3.8c9.9,2.3,19.2-0.5,28.6-1.8c12-1.7,24-3.8,35.9-6
	c3.4-0.6,6.5-2.5,9.8-3.3c4-0.9,8.1-1.5,12.1-1.7c21.8-0.8,43.7-0.4,64.8-6.9c13.5-4.2,26.1-9.9,34.7-22c0.4-0.6,1.3-0.9,3.4-2.2
	c0,9.3,0,17.3,0,25.3c0.1,21.6,0.2,43.2,0.3,64.8c0.1,23.9,0,47.8,0.2,71.8c0.2,21.4,0.7,42.9,0.9,64.3c0.3,28.1,0.4,56.2,0.6,84.3
	c0.2,33.8,0.5,67.6,0.6,101.4c0.1,22.1-0.2,44.2-0.1,66.3c0.2,29.8,0.7,59.5,0.9,89.3c0.1,25-0.1,49.9-0.1,74.9
	c0,27.8,0,55.5,0.1,83.3c0.1,25.4,0.6,50.8,0.6,76.3c-0.1,55.9-0.6,111.8-0.7,167.7c-0.1,44.1,0,88.3,0,132.4c0,26,0,51.9,0.1,77.9
	c0.2,57.7,0.6,115.4,0.9,173.2c0,10-0.1,19.9-6.3,28.7c-6.4,9.1-15.6,13.8-25.2,17.9c-17,7.1-35,9.3-53.2,9.6
	c-56.1,0.8-112.2,1.5-168.3,1.8c-18.8,0.1-37.6-0.6-56.3-2.2c-15-1.3-29.2-6.1-41.8-14.8c-9.9-6.9-14.6-16.7-14.7-28.5
	c-0.4-29-0.8-57.9-0.8-86.9c-0.1-40.5,0-80.9,0-121.4c0-24.9,0-49.9,0.2-74.8c0.2-50.1,0.5-100.2,0.8-150.3
	c0.1-15.8,0.6-31.6,0.6-47.3c0.3-57.2,0.5-114.5,0.7-171.7c0.2-39,0.3-78,0.6-116.9c0.1-17,0.7-33.9,0.7-50.8
	C7.4,794.6,7,764,7,733.4c-0.1-47.2,0.1-94.5,0-141.7c-0.1-66.4-0.3-132.8-0.5-199.3c-0.1-34-0.6-67.9-0.9-101.9
	C5.6,288.3,5.9,286.1,6.1,283.4z"/>
<path class="st1" d="M370.3,1661.5c0.1,1.6,0.2,3.2,0.3,4.9c0.4,49.6,0.7,99.2,1.1,148.8c0.1,7.7,0.3,15.3,0.4,22.9
	c0.2,15.8-8.5,25.8-21.6,33.1c-13,7.2-27.2,10.6-41.8,11.8c-15.5,1.4-31.1,2.2-46.7,2.3c-48.9,0.6-97.9,0.8-146.9,0.9
	c-14.6,0-29.2-0.2-43.8-1.1c-15.3-0.9-30.1-4.5-43.8-11.8c-13.9-7.5-21.8-18.8-21.9-35.1c-0.2-20.9-0.7-41.8-0.8-62.7
	c-0.2-32.1-0.2-64.2-0.4-96.4c0-3.9,0-7.9,0-13.1c2.1,1.3,3.6,1.9,4.5,2.9c8.4,9.3,19.3,14.3,30.8,18.2c20.6,7.1,42,7,63.4,7
	c24.5,0,48.9,0,73.4-0.2c22.1-0.2,44.2-0.9,66.3-1.2c10.8-0.1,21.6,0.6,32.4,0.2c11.2-0.4,22.5-1.4,33.6-2.9
	c8.5-1.2,17-3.1,25.1-5.6c12.2-3.8,23.8-9.1,31.6-20c1-1.5,1.8-3.2,2.6-4.8C368.9,1660.4,369.6,1660.9,370.3,1661.5z"/>
<path class="st1" d="M130.1,132.2c-5.5-2.3-11.2-4.7-18.4-7.7c0-4.9,0-11.2,0-17.5c0-3.7,0.1-7.1-4.9-7.7c-0.8-0.1-1.9-1.9-1.9-2.9
	c-0.2-5.6-0.1-11.3-0.1-17.8c7.1,0,14.1,0,21,0c10.3,0,20.7,0,31-0.2c3.3-0.1,4.7,0.8,4.7,4.5c-0.1,17.3-0.1,34.7,0.2,52
	c0.1,4.2-2.7,5.1-5.3,6.8c-3.8,2.5-8.2,4.8-10.8,8.4c-4.5,6.4-1.7,14.1,5.5,19.3c7.6,5.4,16.3,7.7,25.3,8.6
	c12.2,1.2,24.3,0.3,35.8-4.7c0.3-0.1,0.6-0.2,0.9-0.4c6.8-3.3,13.3-7.2,13.4-15.8c0.1-8.4-6.1-12.9-12.8-15.6
	c-4.8-2-6.1-4.6-6.1-9.3c0.1-16.7-0.1-33.3-0.2-50c0-2.5,0.3-4,3.5-4c16,0.1,32,0.1,48-0.1c4.2-0.1,5.7,1.3,5,5.6
	c-0.4,2.4-0.4,5-0.1,7.5c0.6,4.1,1.2,7.6-4.7,8.3c-1.1,0.1-2.4,3.8-2.4,5.8c-0.2,10.1-0.1,20.2-0.1,30.3c0,2.1,0.5,4.2-2.8,4.8
	c-2.6,0.5-2.4,2.5-1.2,4.7c7,12.6,5.2,20.8-6.3,29.6c-2.2,1.7-4,4-6,6.1c2.4,1.4,4.9,2.6,7.1,4.1c5.2,3.5,9.7,2.3,14.4-1.4
	c9.4-7.5,16.6-15.9,15.7-28.9c-0.1-2.1-0.5-4.4-1.4-6.2c-3.6-7.9-1.2-15.9-2-24c5,1.3,9.3,3.2,13.6,3.4c4.9,0.2,10-0.4,14.6-2
	c2.6-0.9,5.6-4.3,5.9-6.9c0.3-2.2-2.5-5.5-4.8-7.1c-2.7-1.9-6.4-2.4-8.5-3.1c0.5-9.7,1-18.8,1.5-28.7c4,0.6,7.9,1.1,11.8,1.7
	c6.8,1.2,13.8,2,20.3,4.1c2.9,1,5.4,4.4,7.2,7.3c2.7,4.3,5.7,8.8,6.6,13.6c1.5,8.6,2,17.5,2.1,26.2c0.3,23,0.4,46,0.1,68.9
	c-0.1,4.8-1.2,10.7-4.1,14c-3.4,3.6-9.2,5.5-14.3,7c-30.2,8.6-61.2,6.7-92.1,6.5c-28.5-0.2-56.9,0-85.4-0.1
	c-24.9,0-49.9,0.2-74.8-0.4c-13.7-0.3-27.2-2.8-39.8-8.5c-2.7-1.2-5.5-4.8-6-7.7c-1.5-8.3-2.5-16.7-2.7-25.1
	c-0.5-24.6-0.5-49.3-0.6-73.9c0-6.3,1.4-12.2,6-16.9c0.9-0.9,1.6-2.2,2-3.4c1.5-4.6,4.9-7.2,9.3-8.1c8.6-1.7,17.3-3,26-4.4
	c3.5-0.6,4.8,1,4.6,4.5c-0.2,4.3-0.2,8.7,0.1,13c0.2,3.5,1.1,6.9,1.8,10.7c-2.1,0.7-5.1,1.4-7.9,2.6c-3.4,1.5-7,3.4-6.6,7.7
	c0.3,4.9,4.2,6.9,8.3,8.1c8.5,2.5,16.7,2.1,24.6-2.4c0.4-0.2,0.9-0.2,2.8-0.4c-0.4,7.3,0.5,14.7-1.5,21.1
	c-3.1,10.1-2.6,18.8,3.3,27.4c1.7,2.5,3.5,3.7,6.6,2.8c4.6-1.3,9.3-2.2,14.8-3.5c-4.2-7.4-9.3-14.6-4.5-22.2
	C118.4,143.9,124.3,138.8,130.1,132.2z M100.8,190.8c-5.3,1.8-10.6,2.7-15.1,5.1c-7.8,4.3-5.7,11.7,1.1,14.8
	c10.1,4.6,20.4,4.3,30.1-1.1c6.3-3.5,6.4-10.4-0.1-13.7C112,193.5,106.4,192.5,100.8,190.8z M271.7,191.8c-6.5,0.5-12.3,1.1-17,5.5
	c-3.7,3.4-3.6,6.5,0.1,10.1c6.4,6.1,24.4,6,30.7-0.2c3.8-3.7,3.6-8.1-1.1-10.6C280.4,194.4,275.9,193.3,271.7,191.8z"/>
<path class="st1" d="M258.6,308c0-14.7,0.1-29.1,0-43.5c-0.1-9.1-6.5-15.3-15.6-15.3c-31.1,0-62.3,0-93.5,0.1
	c-7.3,0-14.6-0.1-21.8,0.6c-10.6,1.1-14.4,6-14.3,16.5c0.1,9.3-0.1,18.6,0.2,27.9c0.1,4.6,1.1,9.1,1.7,13.9
	c-0.5,0.2-1.1,0.7-1.7,0.7c-21.8,0.1-43.6,0.2-65-4.8c-10.6-2.5-20.8-6.5-29.3-13.3C9.8,283.1,4.8,272.9,5,260.3
	c0.2-15.4-0.2-30.9-0.4-46.4c0-3.3,0-6.6,0-11.2c2.1,1.4,3.4,1.9,4,2.8c6.3,9.8,16.2,14.5,26.5,18.5c20,7.6,40.8,8.6,61.9,8.5
	c60-0.2,120,0,179.9-0.4c18.1-0.1,36.3-1.4,53.6-7.6c11.9-4.2,23-9.5,30.8-20c0.8-1.1,1.4-2.2,2.7-4.4c0.9,2.5,1.3,3.2,1.3,3.9
	c0.1,19,0,38,0.2,57c0.1,15.2-7.3,25.7-20.1,32.9c-13.6,7.6-28.3,11.3-43.7,12.4c-13.3,0.9-26.6,1.3-39.9,1.9
	C260.6,308.3,259.3,308.1,258.6,308z"/>
<path class="st1" d="M24.4,215.8c-9.7-6-17.3-12.9-18.5-24C4.6,181,4.6,170,4.4,159c-0.4-18.6-0.2-37.3-0.8-55.9
	C3,84.6,12,72.8,28,65c18.1-8.7,37.5-11.2,57.2-11.7c21.6-0.5,43.2-0.5,64.8-0.6c3.5,0,6.9,0.4,10.8,0.6c0,7.3,0,14.4,0,22
	c-6.5,0-12.6,0-18.7,0c-11.1,0.1-22.3,0.3-33.4,0.3c-1.8,0-4-0.6-5.3-1.8c-11.1-9.9-21.4-9.3-31.2,2c-0.8,0.9-2.2,1.3-3.4,1.6
	C59.9,79,51,80.4,42.2,82.1c-5.7,1.1-8.8,5-12.4,9.5c-9.3,11.5-8.5,24.6-8.4,37.8c0.2,18.1-0.1,36.3,0.4,54.4
	c0.2,9.4,1.7,18.8,2.5,28.2C24.5,212.9,24.4,213.9,24.4,215.8z"/>
<path class="st1" d="M347.2,212.9c0.1-15.3,0.2-30.5,0.1-45.7c-0.1-18.5,0.1-37-1.1-55.4c-0.4-6.4-4.6-12.5-7-18.8
	c-4.5-11.2-14.2-12.7-24.5-13.5c-5.4-0.5-10.8-1.5-16.2-2.5c-1.1-0.2-2.2-1.3-3-2.3c-8.2-10.6-21.3-11.2-30.6-1.4
	c-1.1,1.1-3.1,1.9-4.7,1.9c-16.3,0.1-32.6,0.1-48.9-0.1c-1.3,0-3.7-1.5-3.8-2.5c-0.3-6.6-0.2-13.2-0.2-20.3c9.5,0,18.8-0.2,28.1,0
	c23,0.6,45.9,0.8,68.9,2.2c15.5,1,30.2,5.9,43.5,14.5c11.9,7.6,16.2,18.7,16.2,32.2c0,11,0.2,21.9,0.3,32.9
	c0.1,18.1,0.2,36.2,0.1,54.3C364.4,197.9,355.9,210.5,347.2,212.9z"/>
<path class="st1" d="M168.6,91.5c0-21.3,0.1-42.6-0.1-63.9c0-3.7,1.2-5.9,4.4-7.5c7.8-3.9,15.4-4.1,22.5,1.2
	c1.4,1.1,2.8,3.4,2.8,5.1c0.6,41.4,1,82.9,1.4,124.3c0,0.3,0,0.7,0,1c1.2,13.2,0.7,10.9-11.3,10.8c-4.3,0-8.7-0.4-12.9,0.2
	c-4.7,0.7-5.4-1.8-5.4-5.3c-0.1-12.1-0.3-24.3-0.3-36.5c-0.1-9.8,0-19.6,0-29.5C169.3,91.5,169,91.5,168.6,91.5z"/>
<path class="st1" d="M187.6,295.3c0-7.6,0.1-15.3,0-22.9c-0.1-3,1-4.4,4.1-5c15.2-2.9,30.3-6,45.4-9.1c1.3-0.3,2.6-0.5,3.9-0.7
	c11.2-1.6,15.3,1.9,15.5,13.3c0.2,9.1,0.3,18.3,0.4,27.4c0,7-5.7,13.4-13.8,14.8c-17.1,2.9-34.3,5.5-51.5,8.3
	c-3.1,0.5-3.7-1-3.7-3.6c0.1-7.5,0-15,0-22.4C187.8,295.3,187.7,295.3,187.6,295.3z"/>
<path class="st1" d="M184.7,321.7c-8.1-1.2-15.8-2.2-23.5-3.4c-10.2-1.5-20.3-3-30.5-4.6c-9.1-1.5-13.9-7.3-14-16.4
	c-0.1-9.6-0.2-19.3-0.2-29c0-7.6,3.8-11.2,11.7-10.3c8.1,1,16.1,2.7,24.1,4.2c9.6,1.8,19.2,3.8,28.9,5.6c2.6,0.5,3.6,1.6,3.6,4.3
	C184.7,288.2,184.7,304.3,184.7,321.7z"/>
<path class="st1" d="M208.8,142.6c9.2,2,14.9,7.9,14.9,14.9c0,5.5-3.5,8.9-7.7,10.6c-6.9,2.9-14.1,5.9-21.5,6.8
	c-12.4,1.5-24.9,0.5-36.6-4.7c-5.4-2.4-10.6-5.5-11.3-12.1c-0.8-7.3,5.2-13.4,15.3-15c0.2,3.8,0.5,7.5,0.6,11.2
	c0.1,7.6,3.2,10.9,10.7,10.9c8.3,0.1,16.6,0.1,24.9-0.1c6-0.1,9.5-3.6,9.7-9.6c0.1-4,0.1-8,0.2-11.9
	C207.9,143.5,208.3,143.2,208.8,142.6z"/>
<path class="st1" d="M243.7,254.2c-4.8,1-9.6,1.9-14.4,2.9c-12.9,2.5-25.7,5.1-38.6,7.5c-3.2,0.6-6.6,0.5-9.9,0c-17-3-34-6.2-51-9.4
	c-0.8-0.1-1.4-0.6-2.2-0.9c0-0.4,0.1-0.9,0.1-1.3c38.6,0,77.1,0,115.7,0C243.5,253.3,243.6,253.7,243.7,254.2z"/>
<path class="st1" d="M266.7,75.1c8.9,7.4,17.1,6.3,26.7,1.1C293,85.8,295,94.6,292,103c-1.8,5-7.5,4.6-12.1,4.7
	c-3.6,0.1-6.6-1-7.3-5.2c-0.1-0.6-0.3-1.5-0.8-1.8c-7.4-4.5-4.8-11.8-5.1-18.2C266.6,80.6,266.7,78.6,266.7,75.1z"/>
<path class="st1" d="M75,75.3c9.1,7.7,17.4,5.9,26.6,1.5c0,7,0.1,13.2-0.1,19.3c0,0.8-1.3,1.5-1.9,2.3c-1.3,1.4-3,2.7-3.7,4.3
	c-2,4.9-5,6.2-13.2,4.9c-5.3-0.9-7.1-3-7.2-8.2C75.4,94,75.2,88.5,75,83.1C74.9,81,75,78.9,75,75.3z"/>
<path class="st1" d="M263,102.1c6.1-1.9,7.7-1,7.5,5.6c-0.1,4.2-1.5,8.4-1.8,12.7c-0.5,8.4-0.9,16.9-0.9,25.4
	c0,8.5,0.4,16.9,0.5,25.4c0,3.5-2.6,6.2-7.6,7.9c-0.3-11.1-0.9-21.9-0.9-32.8c0-8.5,0.3-16.9,0.8-25.4
	C261.1,114.7,262.1,108.6,263,102.1z"/>
<path class="st1" d="M102.6,137c-1.7-10-3.7-19.7-4.7-29.5c-0.6-5.5,2.2-7.4,6.4-5.6c0.9,0.4,2,1.5,2.1,2.4
	c1.2,8.8,2.4,17.6,3.1,26.5C109.9,137.2,109.4,137.3,102.6,137z"/>
<path class="st1" d="M299.4,122.2c-5.8,0.5-11.5,1.5-17.3,1.4c-2.1,0-5-2.2-6-4.1c-0.5-1.1,1.6-4.7,3.3-5.5c7.6-3.7,15.5-3.1,23,0.4
	c1.5,0.7,3.3,4,2.8,5.4c-0.6,1.9-3.3,3.1-5.1,4.7C299.8,123.6,299.6,122.9,299.4,122.2z"/>
<path class="st1" d="M78.7,111.7c3.8,0.9,7.7,1.2,11,2.8c1.7,0.8,3.7,4.9,3.2,5.5c-1.7,1.9-4.7,4.3-6.6,3.8
	c-5.5-1.2-10.7-1.2-16.2,0c-2,0.5-4.8-2.5-7.2-3.9c1.3-1.9,2.3-4.7,4.1-5.5C70.5,113,74.6,112.6,78.7,111.7z"/>
<path class="st1" d="M106.6,157.1c0,4,0.2,7.9-0.1,11.9c-0.1,1.4-1.7,3.8-2.5,3.8c-1.6,0-3.6-1.2-4.6-2.4c-0.9-1.1-1.2-3.1-1.3-4.7
	c-0.2-6.8,0-13.6-0.2-20.4c-0.1-3.9,2.2-4.6,5.4-4.8c3.8-0.2,3.2,2.5,3.2,4.7C106.6,149.1,106.5,153.1,106.6,157.1
	C106.6,157.1,106.6,157.1,106.6,157.1z"/>
<path class="st1" d="M202.8,156.4c0-44,0-88.1,0-132.1c0.3,0,0.5,0,0.8,0c0.5,44,1,88.1,1.5,132.1
	C204.3,156.4,203.6,156.4,202.8,156.4z"/>
<path class="st1" d="M166,24.4c0,44,0,87.9,0,131.9c-0.3,0-0.7,0-1,0c0-44,0-87.9,0-131.9C165.4,24.4,165.7,24.4,166,24.4z"/>
<path class="st1" d="M183.9,2.4c3,1,6.5,1.6,9.5,3.1c3.1,1.6,3.1,4.6-0.1,6.1c-6.6,3.1-13.5,3.6-20.1,0.1c-3.4-1.8-3.3-4.8,0.2-6.4
	C176.4,4,179.9,3.5,183.9,2.4z"/>
<path class="st1" d="M79,74c2.6-3.7,13.2-5.3,16.5-2.3c2,1.8,1.9,3.7-0.7,5.2C90.9,79.1,82.2,77.5,79,74z"/>
<path class="st1" d="M280.5,68.7c2.7,1.7,7.7,3.5,7.5,4.9c-0.4,4.1-4.7,3.6-8,3.6c-1.8,0-3.7-0.1-5.3-0.8c-1.5-0.6-2.7-2-4-3
	c1.4-1.1,2.6-2.4,4.1-3.1c1.5-0.6,3.3-0.3,4.9-0.4C280,69.6,280.3,69.1,280.5,68.7z"/>
<path class="st1" d="M244.8,180.6c4.5-4.3,8.1-7.7,12.8-12.1c0,5.2,0.3,9.1-0.2,12.9c-0.1,1-2.7,2.7-3.8,2.5
	C250.8,183.5,248.3,182.1,244.8,180.6z"/>
<path class="st1" d="M124.4,132.1c-4.1,4.9-7.1,8.6-10.2,12.2c-1.8-5-4.1-10.2-0.4-13.4C115.7,129.4,120.6,131.5,124.4,132.1z"/>
<path class="st1" d="M204.8,14.9c-2.2,1.9-3.6,4.1-5.2,4.1c-1.7,0.1-3.4-1.9-5.1-2.9c1.7-1.9,3.2-4.1,5.2-5.5
	C200,10.3,202.5,12.9,204.8,14.9z"/>
<path class="st1" d="M173,15.8c-2.1,2.5-4.3,4.9-7.4,2.6c-1.2-0.9-1.9-3.8-1.5-5.4c0.6-2.4,2.5-4.1,4.9-1
	C170.1,13.3,171.6,14.4,173,15.8z"/>
<path class="st0" d="M100.8,190.8c5.6,1.7,11.2,2.6,16,5.1c6.5,3.3,6.4,10.2,0.1,13.7c-9.7,5.4-20.1,5.7-30.1,1.1
	c-6.8-3.1-8.9-10.6-1.1-14.8C90.2,193.5,95.4,192.6,100.8,190.8z M101.5,194.4c-4.7,1.2-9.8,2.2-14.4,4.1c-1.5,0.6-3.2,5.1-2.6,5.7
	c2,2,5.6,4.8,7.3,4.1c6.3-2.4,12.1-2.3,18.4-0.4c2,0.6,5.9-1.4,7.2-3.3c1.9-2.9-0.3-5.8-3.4-6.9
	C110.1,196.3,106.1,195.5,101.5,194.4z"/>
<path class="st0" d="M271.7,191.8c4.2,1.5,8.7,2.6,12.7,4.8c4.7,2.6,4.9,6.9,1.1,10.6c-6.3,6.2-24.3,6.3-30.7,0.2
	c-3.7-3.5-3.8-6.6-0.1-10.1C259.4,192.8,265.2,192.3,271.7,191.8z M269.6,194.7c-3.7,1-7.6,1.7-11.1,3.4c-1.6,0.8-2.4,3.4-3.6,5.2
	c2.2,1.3,4.7,4,6.4,3.6c5.7-1.2,11-1.4,16.6,0c1.9,0.4,4.5-2.4,6.8-3.7c-1.2-1.9-2.1-4.6-3.8-5.4
	C277.6,196.3,273.8,195.8,269.6,194.7z"/>
<path class="st1" d="M101.5,194.4c4.6,1.2,8.6,1.9,12.5,3.2c3.2,1.1,5.4,4,3.4,6.9c-1.3,1.9-5.2,3.9-7.2,3.3
	c-6.4-1.9-12.1-2-18.4,0.4c-1.8,0.7-5.4-2.1-7.3-4.1c-0.6-0.6,1.1-5.1,2.6-5.7C91.7,196.5,96.8,195.6,101.5,194.4z"/>
<path class="st1" d="M269.6,194.7c4.1,1.1,8,1.6,11.4,3.2c1.7,0.8,2.6,3.5,3.8,5.4c-2.3,1.3-4.9,4.1-6.8,3.7c-5.7-1.4-11-1.2-16.6,0
	c-1.8,0.4-4.3-2.3-6.4-3.6c1.2-1.8,1.9-4.4,3.5-5.2C262,196.4,266,195.7,269.6,194.7z"/>
<circle class="st2" cx="188.2" cy="1761.4" r="4.8"/>
<circle class="st3" cx="188.2" cy="1807.3" r="19.9"/>
</svg>
