<?xml version="1.0" encoding="utf-8"?>
<!-- Generator: Adobe Illustrator 21.1.0, SVG Export Plug-In . SVG Version: 6.00 Build 0)  -->
<svg version="1.1" id="Laag_1" xmlns="http://www.w3.org/2000/svg" xmlns:xlink="http://www.w3.org/1999/xlink" x="0px" y="0px"
	 viewBox="0 0 485.9 485" style="enable-background:new 0 0 485.9 485;" xml:space="preserve">
<style type="text/css">
	.st0{stroke:#000000;stroke-miterlimit:10;}
	.st1{fill:none;stroke:#000000;stroke-miterlimit:10;}
</style>
<path class="st0" d="M485.4,0.5h-22.1h-12.1H34.7H22.6H0.5v14.1h14.1v461.9c0,4.4,3.6,8,8,8h12.1c4.4,0,8-3.6,8-8V14.6h400.5v461.9
	c0,4.4,3.6,8,8,8h12.1c4.4,0,8-3.6,8-8V14.6h14.1V0.5z"/>
<rect x="471.3" y="14.6" class="st1" width="10.6" height="48"/>
<line class="st1" x1="471.3" y1="55.2" x2="481.9" y2="55.2"/>
<polygon class="st0" points="157.7,231 157.7,210 205,250.3 157.7,290.7 157.7,269.7 70,269.7 70,231 "/>
<polygon class="st0" points="328.1,231 328.1,210 280.8,250.3 328.1,290.7 328.1,269.7 415.9,269.7 415.9,231 "/>
</svg>
