<?xml version="1.0" encoding="utf-8"?>
<!-- Generator: Adobe Illustrator 21.1.0, SVG Export Plug-In . SVG Version: 6.00 Build 0)  -->
<svg version="1.1" id="Laag_1" xmlns="http://www.w3.org/2000/svg" xmlns:xlink="http://www.w3.org/1999/xlink" x="0px" y="0px"
	 viewBox="0 0 301 301" style="enable-background:new 0 0 301 301;" xml:space="preserve">
<style type="text/css">
	.st0{fill:#0066CC;}
	.st1{stroke:#FFFFFF;stroke-miterlimit:10;}
	.st2{fill:none;}
</style>
<g id="_x23_ffffffff">
</g>
<path d="M70.8,12c0.3-0.2,0.5-0.3,0.7-0.5s0.5-0.4,0.7-0.6c0.2-0.2,0.5-0.4,0.7-0.6s0.5-0.4,0.7-0.6s0.5-0.4,0.7-0.5
	c0.3-0.2,0.5-0.3,0.8-0.4s0.6-0.2,0.9-0.2c0.3,0,0.6-0.1,1,0c2.2,0,4.4,0,6.6,0c2.2,0,4.4,0,6.6,0c2.2,0,4.4,0,6.6,0s4.4,0,6.6,0
	c2.2,0,4.4,0,6.6,0c2.2,0,4.4,0,6.6,0c2.2,0,4.4,0,6.6,0c2.2,0,4.4,0,6.6,0c0.2,0,0.4,0,0.7,0c0.2,0,0.5,0,0.7,0s0.5,0,0.7,0
	c0.2,0,0.5,0,0.7,0.1s0.5,0.1,0.7,0.1c0.2,0.1,0.4,0.1,0.6,0.2c0.2,0.1,0.4,0.2,0.5,0.4c0.2,0.2,0.3,0.3,0.4,0.6
	c0.2,0.3,0.4,0.6,0.6,0.9c0.2,0.3,0.4,0.6,0.6,0.9c0.2,0.3,0.4,0.6,0.5,1s0.4,0.6,0.5,1s0.4,0.6,0.5,1c0.2,0.3,0.4,0.6,0.6,1
	c0.2,0.3,0.4,0.6,0.6,0.9c0.2,0.3,0.4,0.6,0.6,0.9c1.7,2.2,3.3,4.4,5,6.6c1.7,2.2,3.3,4.4,5,6.6s3.3,4.4,5,6.7s3.3,4.4,5,6.7
	s3.3,4.4,4.9,6.7c1.6,2.2,3.3,4.4,4.9,6.7c1.6,2.2,3.3,4.4,4.9,6.7c1.6,2.2,3.3,4.4,5,6.7c0.8,1,1.5,2,2.2,2.9c0.7,1,1.4,2,2.2,3
	c0.7,1,1.4,2,2.1,3c0.7,1,1.4,2,2.1,3.1s1.4,2,2,3.1c0.7,1,1.4,2.1,2,3.1c0.7,1,1.4,2,2,3.1c0.7,1,1.4,2,2.1,3
	c0.2,0.3,0.4,0.7,0.7,1c0.2,0.3,0.5,0.7,0.7,1c0.2,0.3,0.5,0.7,0.7,1.1s0.4,0.7,0.6,1.1s0.4,0.7,0.5,1.1c0.2,0.4,0.3,0.8,0.4,1.2
	c0.1,0.4,0.2,0.8,0.2,1.2c0,0.4,0.1,0.8,0,1.3c0,1.8,0,3.6,0.1,5.4s0,3.7,0,5.5c0,1.9,0,3.7-0.1,5.6s-0.1,3.7-0.1,5.6
	c0,1.9-0.1,3.8-0.1,5.6c0,1.9-0.1,3.7-0.2,5.6c-0.1,1.9-0.1,3.7-0.2,5.5c-0.1,1.8-0.1,3.7-0.2,5.5c0.9,1,1.6,1.8,2.2,2.5
	c0.6,0.7,1.1,1.3,1.5,1.7c0.4,0.5,0.7,0.8,0.9,1.1c0.2,0.3,0.4,0.5,0.6,0.6c0.1,0.2,0.3,0.3,0.4,0.4c0.1,0.1,0.2,0.2,0.3,0.4
	c0.1,0.1,0.2,0.3,0.4,0.5c0.2,0.2,0.4,0.5,0.7,0.9c0.3-0.4,0.7-0.8,1-1.2c0.3-0.4,0.7-0.8,1-1.2s0.7-0.8,1-1.2
	c0.3-0.4,0.7-0.8,1.1-1.2c0.4-0.4,0.7-0.7,1.1-1.1c0.4-0.3,0.8-0.6,1.2-0.9c0.4-0.3,0.9-0.5,1.3-0.8s1-0.4,1.5-0.6
	c0.5-0.1,1-0.2,1.5-0.3c0.5,0,1,0,1.5,0c0.5,0,1,0.1,1.5,0.2c0.5,0.1,1,0.2,1.5,0.4s1,0.3,1.4,0.5s1,0.4,1.4,0.6
	c0.5,0.2,0.9,0.4,1.4,0.6c0.5,0.2,0.9,0.4,1.4,0.6c0.3-0.3,0.7-0.7,1-1s0.7-0.7,1-1s0.7-0.7,1-1s0.7-0.6,1.1-0.9
	c0.4-0.3,0.7-0.6,1.1-0.8c0.4-0.3,0.8-0.5,1.2-0.7c0.4-0.2,0.8-0.4,1.3-0.6c0.4-0.2,0.9-0.3,1.4-0.4c0.6-0.1,1.3-0.1,1.9-0.1
	s1.3,0,1.9,0.1c0.6,0.1,1.2,0.2,1.9,0.3c0.6,0.1,1.2,0.3,1.8,0.4c0.6,0.2,1.2,0.3,1.8,0.5c0.6,0.2,1.2,0.4,1.8,0.6s1.2,0.4,1.8,0.6
	s1.2,0.4,1.8,0.6c0.3-0.3,0.5-0.6,0.8-0.9c0.3-0.3,0.6-0.6,0.9-0.9c0.3-0.3,0.6-0.6,0.9-0.9c0.3-0.3,0.6-0.5,1-0.8s0.7-0.5,1-0.6
	c0.4-0.2,0.7-0.3,1.1-0.5s0.8-0.2,1.2-0.2c0.4,0,0.8,0,1.3,0c1.1,0.1,2.2,0.1,3.3,0.3c1.1,0.1,2.2,0.3,3.3,0.4
	c1.1,0.2,2.2,0.4,3.2,0.6s2.2,0.5,3.2,0.7s2.1,0.5,3.2,0.8c1.1,0.3,2.1,0.6,3.2,0.9s2.1,0.7,3.1,1s2.1,0.7,3.1,1
	c0.7,0.2,1.4,0.5,2.1,0.8c0.7,0.3,1.4,0.5,2.1,0.8c0.7,0.3,1.4,0.5,2.1,0.8c0.7,0.3,1.4,0.6,2.1,0.9c0.7,0.3,1.4,0.6,2.1,1
	s1.3,0.7,2,1.1c0.7,0.4,1.3,0.8,1.9,1.2c0.6,0.4,1.3,0.9,1.9,1.3v0.3v0.3v0.3v0.3v0.3v0.3v0.3v0.3c-0.8-0.7-1.6-1.3-2.4-1.8
	c-0.8-0.6-1.7-1.1-2.6-1.6c-0.9-0.5-1.8-1-2.7-1.4c-0.9-0.4-1.8-0.8-2.8-1.2c-0.9-0.4-1.9-0.8-2.8-1.1c-0.9-0.4-1.9-0.7-2.9-1
	c-1-0.3-1.9-0.7-2.9-1s-1.9-0.6-2.9-1c-0.9-0.3-1.7-0.5-2.6-0.8c-0.9-0.2-1.7-0.5-2.6-0.7c-0.9-0.2-1.7-0.5-2.6-0.7
	c-0.9-0.2-1.7-0.4-2.6-0.6c-0.9-0.2-1.8-0.4-2.6-0.5c-0.9-0.1-1.8-0.3-2.7-0.4s-1.8-0.2-2.7-0.2s-1.8-0.1-2.7-0.1
	c-0.3,0-0.6,0-0.9,0s-0.6,0.1-0.8,0.2c-0.3,0.1-0.5,0.2-0.7,0.4c-0.2,0.1-0.5,0.3-0.7,0.5c-0.2,0.2-0.4,0.4-0.6,0.6
	c-0.2,0.2-0.4,0.5-0.5,0.7c-0.2,0.2-0.3,0.5-0.4,0.8c-0.1,0.3-0.3,0.5-0.4,0.8c1.1,0.5,2.2,0.9,3.4,1.3c1.1,0.4,2.3,0.9,3.4,1.3
	c1.1,0.4,2.3,0.8,3.4,1.2c1.1,0.4,2.3,0.7,3.4,1.1s2.3,0.7,3.5,1c1.2,0.3,2.3,0.6,3.5,1c1.2,0.3,2.3,0.6,3.5,0.9
	c1.2,0.3,2.3,0.6,3.5,0.8c-1.3-0.2-2.5-0.4-3.8-0.6s-2.5-0.5-3.7-0.8s-2.5-0.6-3.7-0.9c-1.2-0.3-2.4-0.7-3.7-1
	c-1.2-0.4-2.4-0.7-3.7-1.1c-1.2-0.4-2.4-0.7-3.6-1.1c-1.2-0.4-2.4-0.7-3.7-1.1s-2.4-0.7-3.7-1c-0.6-0.2-1.2-0.3-1.7-0.5
	c-0.6-0.2-1.2-0.4-1.7-0.5c-0.6-0.2-1.2-0.4-1.7-0.6c-0.6-0.2-1.2-0.4-1.8-0.5c-0.6-0.2-1.2-0.3-1.8-0.5s-1.2-0.3-1.8-0.4
	c-0.6-0.1-1.2-0.2-1.8-0.2c-0.6,0-1.2-0.1-1.8,0c-0.5,0.1-0.9,0.1-1.3,0.3c-0.4,0.1-0.8,0.3-1.2,0.5s-0.8,0.4-1.1,0.7
	c-0.4,0.3-0.7,0.5-1.1,0.8c-0.3,0.3-0.7,0.6-1,0.9c-0.3,0.3-0.6,0.7-0.9,1c-0.3,0.3-0.6,0.7-0.8,1.1c-0.3,0.4-0.5,0.7-0.8,1.1
	c0.9,0.6,1.8,1.1,2.7,1.7c0.9,0.6,1.8,1.1,2.7,1.7s1.8,1.1,2.7,1.6s1.8,1.1,2.8,1.6c0.9,0.5,1.9,1,2.8,1.5c0.9,0.5,1.9,1,2.8,1.5
	c0.9,0.5,1.9,0.9,2.9,1.4c1,0.5,1.9,0.9,2.9,1.3c0.4,0.2,0.8,0.3,1.1,0.5c0.4,0.2,0.7,0.4,1.1,0.6c0.4,0.2,0.7,0.4,1.1,0.6
	s0.7,0.4,1.1,0.6c0.3,0.2,0.7,0.4,1,0.7c0.3,0.2,0.7,0.5,1,0.7c0.3,0.2,0.7,0.5,1,0.7s0.7,0.5,1,0.7c-0.4-0.3-0.8-0.5-1.2-0.8
	s-0.8-0.5-1.2-0.8c-0.4-0.2-0.8-0.5-1.2-0.7c-0.4-0.2-0.8-0.5-1.2-0.7s-0.8-0.5-1.2-0.7s-0.8-0.4-1.2-0.6c-0.4-0.2-0.8-0.4-1.3-0.6
	c-0.4-0.2-0.9-0.4-1.3-0.5c-1-0.4-2-0.8-3-1.3s-2-0.9-2.9-1.4c-1-0.5-1.9-1-2.9-1.5c-1-0.5-1.9-1-2.9-1.5c-1-0.5-1.9-1-2.9-1.5
	c-1-0.5-1.9-1-2.9-1.5s-1.9-1-2.9-1.5c-1-0.5-2-0.9-2.9-1.4c-0.4-0.2-0.9-0.4-1.3-0.6c-0.4-0.2-0.9-0.4-1.3-0.7
	c-0.4-0.2-0.9-0.4-1.3-0.6c-0.4-0.2-0.9-0.4-1.4-0.6c-0.5-0.2-0.9-0.3-1.4-0.4c-0.5-0.1-0.9-0.2-1.4-0.2c-0.5,0-0.9,0-1.4,0
	s-1,0.2-1.5,0.3c-0.5,0.2-0.9,0.4-1.4,0.7s-0.9,0.5-1.3,0.9s-0.8,0.7-1.2,1s-0.7,0.7-1,1.1c-0.3,0.4-0.6,0.8-0.9,1.3
	c-0.3,0.4-0.5,0.9-0.7,1.4c-0.2,0.5-0.3,1-0.4,1.5c-0.1,0.5-0.2,1-0.2,1.5c0.5,0.6,1,1.2,1.5,1.7c0.5,0.6,1,1.1,1.5,1.7
	c0.5,0.6,1,1.1,1.5,1.7c0.5,0.6,1,1.1,1.6,1.6c0.5,0.5,1.1,1.1,1.6,1.6s1.1,1.1,1.6,1.6c0.5,0.5,1.1,1,1.6,1.6
	c0.6,0.5,1.1,1,1.7,1.5c0.5,0.4,1,0.7,1.5,1.1s1,0.6,1.5,0.9c0.5,0.3,1.1,0.5,1.6,0.8c0.5,0.2,1.1,0.5,1.7,0.7
	c0.6,0.2,1.1,0.4,1.7,0.6c0.6,0.2,1.1,0.4,1.7,0.6c0.6,0.2,1.1,0.4,1.7,0.6c0.6,0.2,1.1,0.4,1.7,0.7c-0.6,0-1.2-0.1-1.8-0.2
	c-0.6-0.1-1.2-0.2-1.8-0.3c-0.6-0.1-1.2-0.3-1.7-0.4s-1.1-0.3-1.7-0.5c-0.6-0.2-1.1-0.4-1.6-0.7s-1.1-0.5-1.6-0.8
	c-0.5-0.3-1-0.6-1.5-0.9c-0.5-0.3-1-0.7-1.4-1c-0.6-0.5-1.1-0.9-1.7-1.4c-0.6-0.5-1.1-1-1.6-1.5c-0.5-0.5-1-1-1.6-1.6
	c-0.5-0.5-1-1.1-1.5-1.6s-1-1.1-1.5-1.6s-1-1.1-1.5-1.6s-1-1.1-1.5-1.6c-0.5-0.5-1-1.1-1.6-1.6c-0.4-0.4-0.8-0.7-1.1-1.1
	c-0.4-0.4-0.7-0.7-1.1-1.1c-0.4-0.4-0.7-0.7-1.1-1.1c-0.4-0.4-0.7-0.7-1.1-1.1c-0.4-0.4-0.7-0.8-1.1-1.1s-0.7-0.8-1.1-1.1
	c-0.4-0.4-0.7-0.8-1.1-1.2c-0.4-0.4-0.7-0.8-1.1-1.2c-0.4,0.4-0.7,0.8-1.1,1.2c-0.4,0.4-0.7,0.8-1.1,1.2s-0.8,0.8-1.1,1.2
	c-0.4,0.4-0.8,0.8-1.2,1.1c-0.4,0.4-0.8,0.7-1.2,1.1c-0.4,0.3-0.8,0.7-1.3,1s-0.9,0.6-1.4,0.9c-0.5,0.3-1,0.5-1.5,0.8
	c0.4-0.4,0.8-0.7,1.2-1.1c0.4-0.4,0.8-0.7,1.2-1.1c0.4-0.4,0.8-0.7,1.2-1.1c0.4-0.4,0.8-0.7,1.2-1.1s0.8-0.7,1.1-1.1
	c0.4-0.4,0.7-0.8,1.1-1.1c0.4-0.4,0.7-0.8,1.1-1.2c0.4-0.4,0.7-0.8,1-1.2c-1.2-1.5-2.4-2.9-3.6-4.3c-1.2-1.4-2.5-2.8-3.8-4.2
	c-1.3-1.4-2.6-2.7-3.9-4c-1.3-1.3-2.7-2.6-4-3.9c-1.4-1.3-2.7-2.6-4.1-3.8c-1.4-1.3-2.8-2.5-4.2-3.8c-1.4-1.2-2.8-2.5-4.2-3.7
	c-1.4-1.2-2.8-2.5-4.2-3.7c-0.3,0.4-0.6,0.7-0.8,1.2s-0.5,0.8-0.8,1.3c-0.3,0.4-0.5,0.9-0.8,1.3s-0.6,0.8-0.9,1.2
	c-0.3,0.4-0.6,0.7-1,1.1s-0.7,0.6-1.2,0.8c-0.4,0.2-0.9,0.3-1.3,0.4c-0.5,0.1-1,0-1.6-0.1c-0.5-0.2-1-0.3-1.5-0.6
	c-0.5-0.2-0.9-0.5-1.3-0.8s-0.8-0.6-1.2-1c-0.4-0.3-0.8-0.7-1.1-1.1s-0.7-0.8-1.1-1.2c-0.4-0.4-0.7-0.8-1-1.2
	c-0.3-0.4-0.7-0.8-1-1.2s-0.7-0.8-1-1.1c0.1,0.5,0.2,1,0.3,1.5c0.1,0.5,0.3,1,0.4,1.5c0.2,0.5,0.3,1,0.5,1.5s0.4,1,0.6,1.4
	c0.2,0.5,0.5,0.9,0.7,1.4s0.5,0.9,0.8,1.3c0.3,0.4,0.6,0.9,0.9,1.3c0.3,0.4,0.6,0.8,1,1.2c0.8,0.9,1.5,1.8,2.3,2.7
	c0.8,0.9,1.5,1.8,2.3,2.7c0.8,0.9,1.5,1.8,2.3,2.7s1.5,1.8,2.3,2.7s1.5,1.8,2.2,2.8c0.7,0.9,1.5,1.9,2.2,2.8s1.4,1.9,2.1,2.9
	c0.7,1,1.4,1.9,2,2.9c1,1.5,2,3,3.1,4.6c1,1.5,2.1,3,3.1,4.5c1,1.5,2.1,3,3.1,4.5c1.1,1.5,2.1,3,3.1,4.5s2.1,3,3.1,4.5
	c1,1.5,2.1,3,3.1,4.6c1,1.5,2,3.1,3,4.6c1,1.6,1.9,3.1,2.9,4.7c0.5,0.8,0.9,1.5,1.4,2.3c0.5,0.8,1,1.5,1.5,2.2s1,1.5,1.6,2.2
	c0.5,0.7,1.1,1.4,1.6,2.1s1.1,1.4,1.7,2.1c0.6,0.7,1.1,1.4,1.7,2.1c0.6,0.7,1.2,1.4,1.8,2c0.6,0.7,1.2,1.3,1.8,2
	c0.7,0.7,1.3,1.4,2,2.1c0.6,0.7,1.2,1.5,1.7,2.3c0.5,0.8,1,1.6,1.5,2.4c0.5,0.8,0.9,1.6,1.3,2.5s0.8,1.7,1.2,2.6
	c0.4,0.9,0.8,1.7,1.2,2.6c0.4,0.9,0.8,1.7,1.2,2.6c0.4,0.9,0.8,1.7,1.2,2.5c-0.4-0.7-0.9-1.3-1.3-2c-0.4-0.7-0.8-1.4-1.1-2.1
	c-0.4-0.7-0.7-1.4-1.1-2.1c-0.4-0.7-0.7-1.4-1.1-2.1c-0.4-0.7-0.7-1.4-1.1-2.1s-0.8-1.4-1.2-2c-0.4-0.7-0.8-1.3-1.3-2
	c-0.5-0.6-1-1.3-1.5-1.8c-0.2-0.2-0.4-0.5-0.6-0.7c-0.2-0.2-0.4-0.5-0.6-0.7s-0.4-0.5-0.6-0.7c-0.2-0.2-0.4-0.4-0.7-0.7
	c-0.2-0.2-0.4-0.4-0.7-0.6c-0.2-0.2-0.5-0.4-0.7-0.6c-0.2-0.2-0.5-0.4-0.7-0.6c-0.2-0.2-0.5-0.4-0.7-0.6c-0.1,1.2-0.2,2.3-0.2,3.5
	c0,1.2,0,2.3,0.1,3.5c0.1,1.2,0.2,2.3,0.3,3.5s0.3,2.3,0.5,3.5c0.2,1.2,0.4,2.3,0.6,3.5c0.2,1.2,0.5,2.3,0.8,3.4
	c0.3,1.1,0.6,2.3,0.9,3.4c0.3,1.1,0.6,2.3,0.9,3.4c0.4,1.1,0.7,2.3,1.1,3.4c0.4,1.1,0.8,2.3,1.2,3.4c0.4,1.1,0.9,2.3,1.4,3.4
	c0.5,1.1,1,2.2,1.5,3.3c0.5,1.1,1.1,2.1,1.7,3.2c0.6,1,1.3,2,2,3c0.7,1,1.5,1.9,2.3,2.8c0.8,0.9,1.7,1.7,2.7,2.5
	c1.1,0.9,2.2,1.8,3.4,2.6c1.1,0.8,2.3,1.6,3.5,2.4c1.2,0.8,2.4,1.5,3.6,2.2s2.5,1.4,3.7,2.1c1.2,0.7,2.5,1.3,3.8,1.9
	c1.3,0.6,2.5,1.2,3.8,1.9c1.3,0.6,2.6,1.2,3.8,1.8c1.3,0.6,2.6,1.2,3.8,1.8c1.4,0.6,2.7,1.2,4.1,1.7c1.4,0.5,2.8,1,4.2,1.5
	c1.4,0.5,2.8,0.9,4.2,1.3c1.4,0.4,2.8,0.8,4.2,1.2s2.8,0.8,4.3,1.1c1.4,0.4,2.9,0.7,4.3,1.1c1.4,0.4,2.8,0.8,4.3,1.1
	s2.8,0.8,4.2,1.2c0.7,0.2,1.3,0.4,1.9,0.6c0.6,0.2,1.3,0.5,1.9,0.8c0.6,0.3,1.2,0.6,1.8,0.9c0.6,0.3,1.2,0.6,1.8,1
	c0.6,0.3,1.2,0.7,1.7,1s1.1,0.7,1.7,1.1c0.6,0.4,1.1,0.8,1.7,1.2c0.5,0.4,1.1,0.8,1.6,1.2v0.3v0.3v0.3v0.3v0.3v0.3v0.3v0.3
	c-0.6-0.5-1.2-0.9-1.8-1.3c-0.6-0.4-1.2-0.9-1.9-1.3c-0.6-0.4-1.3-0.8-1.9-1.2s-1.3-0.7-2-1.1s-1.3-0.7-2-1s-1.4-0.6-2.1-0.9
	c-0.7-0.3-1.4-0.5-2.1-0.8c-0.7-0.2-1.4-0.5-2.2-0.7c-1.5-0.4-2.9-0.8-4.4-1.2s-3-0.8-4.4-1.2c-1.5-0.4-3-0.8-4.4-1.2
	c-1.5-0.4-3-0.8-4.4-1.2s-2.9-0.8-4.4-1.3c-1.5-0.5-2.9-0.9-4.4-1.4c-1.4-0.5-2.9-1-4.3-1.6s-2.8-1.2-4.2-1.8
	c-1.2-0.6-2.5-1.2-3.7-1.8c-1.2-0.6-2.5-1.2-3.7-1.8c-1.2-0.6-2.5-1.2-3.7-1.8s-2.4-1.3-3.6-1.9c-1.2-0.7-2.4-1.3-3.6-2.1
	c-1.2-0.7-2.3-1.4-3.5-2.2c-1.1-0.8-2.3-1.6-3.4-2.4c-1.1-0.8-2.2-1.7-3.2-2.6c-1-0.9-1.9-1.8-2.8-2.8c-0.9-1-1.7-2-2.4-3.1
	c-0.8-1.1-1.5-2.2-2.1-3.3c-0.7-1.1-1.3-2.3-1.8-3.5s-1.1-2.4-1.6-3.6c-0.5-1.2-1-2.5-1.4-3.7s-0.9-2.5-1.3-3.7
	c-0.4-1.2-0.8-2.5-1.2-3.7c-0.3-1.1-0.7-2.2-0.9-3.4s-0.5-2.3-0.8-3.4c-0.2-1.1-0.4-2.3-0.6-3.4c-0.2-1.1-0.4-2.3-0.5-3.4
	c-0.1-1.2-0.3-2.3-0.4-3.5c-0.1-1.2-0.2-2.3-0.2-3.5c-0.1-1.2-0.1-2.3-0.1-3.5c0-1.2,0-2.3,0-3.5c-0.5-0.7-1-1.4-1.5-2.1
	s-1-1.4-1.5-2.1c-0.5-0.7-1-1.4-1.5-2c-0.5-0.7-1-1.3-1.5-2c-0.5-0.7-1-1.4-1.4-2c-0.5-0.7-0.9-1.4-1.4-2.1
	c-0.5-0.7-0.9-1.4-1.3-2.2c-0.4-0.7-0.9-1.5-1.3-2.2c-0.7,0.5-1.4,0.9-2,1.3c-0.6,0.4-1.2,0.7-1.8,1c-0.6,0.3-1.1,0.5-1.7,0.8
	s-1.1,0.4-1.6,0.6s-1.1,0.3-1.6,0.5c-0.5,0.2-1.1,0.3-1.7,0.5c-0.6,0.2-1.2,0.3-1.8,0.5c-0.7,0.2-1.3,0.3-2.1,0.5
	c-1.9,0.3-3.9,0.6-5.8,0.8s-3.8,0.5-5.7,0.7c-1.9,0.2-3.8,0.4-5.7,0.6c-1.9,0.2-3.8,0.4-5.7,0.6s-3.8,0.3-5.7,0.5
	c-1.9,0.1-3.8,0.3-5.7,0.4s-3.8,0.2-5.8,0.3c-1.9,0.1-3.9,0.1-5.8,0.1c-2.7,0.1-5.4,0.1-8,0c-2.7,0-5.3-0.1-8-0.3
	c-2.7-0.1-5.3-0.3-8-0.5c-2.7-0.2-5.3-0.5-8-0.8c-2.7-0.3-5.3-0.6-8-1s-5.3-0.8-7.9-1.2s-5.3-0.9-7.9-1.4c-2.6-0.5-5.3-1-7.9-1.5
	c-0.5-0.1-1-0.2-1.6-0.3c-0.5-0.1-1.1-0.3-1.6-0.4c-0.5-0.2-1-0.4-1.5-0.6s-1-0.5-1.5-0.7s-0.9-0.6-1.3-0.9
	c-0.4-0.3-0.8-0.7-1.1-1.1c-0.3-0.4-0.6-0.9-0.8-1.4s-0.4-1-0.5-1.6c-0.3-1.5-0.7-3.1-1-4.6s-0.6-3.1-0.9-4.7
	c-0.3-1.6-0.6-3.1-0.8-4.7c-0.3-1.6-0.5-3.1-0.7-4.7s-0.4-3.1-0.6-4.7c-0.2-1.6-0.4-3.1-0.5-4.7c-0.2-1.6-0.3-3.1-0.4-4.7
	s-0.2-3.2-0.3-4.7c0-1.9-0.1-3.8-0.1-5.7s0-3.8,0-5.7s0-3.8,0.1-5.7c0-1.9,0.1-3.8,0.2-5.7c0.1-1.9,0.2-3.8,0.3-5.7s0.3-3.8,0.5-5.7
	c0.2-1.9,0.4-3.8,0.6-5.7c0.2-1.9,0.5-3.8,0.8-5.7c0.7-2.4,1.6-4.8,2.4-7.1c0.9-2.3,1.8-4.7,2.8-7s2-4.6,3-6.9s2.1-4.5,3.2-6.8
	c1.1-2.3,2.2-4.6,3.4-6.9s2.3-4.7,3.5-7.1s2.3-4.8,3.4-7.2c1.1-2.4,2.3-5.2,3.2-7.5c-0.5,0-4,0-4.4,0s-0.8,0.1-1.6-0.3
	c-1.4-0.8-0.7-0.4-1.2-0.7c-0.6-0.5-0.6-0.5-1-0.7c-0.3-0.2-0.3-0.2-0.8-0.4c-0.2-0.1-0.5-0.1-0.9-0.2c-0.4-0.1-0.8-0.1-1.2-0.1
	c-0.4,0-0.9-0.1-1.3-0.1s-0.9,0-1.3,0c-0.4,0-0.8,0-1.2,0c-0.4,0-0.7,0-1.1,0c-0.4,0-0.7,0-1.1,0c-0.4,0-0.7,0-1.1,0
	c-0.4,0-0.7,0-1.1,0c-2.5,0-5.1,0-7.6,0s-5.1,0-7.6,0c-2.5,0-5.1,0-7.6,0s-5.1,0-7.6,0s-5.1,0-7.6,0c-2.5,0-5.1,0-7.6,0
	s-5.1,0-7.6,0s-5.1,0-7.6,0v-0.4v-0.4v-0.4V39v-0.4v-0.4v-0.4v-0.4c3,0.1,6,0.1,9.1,0.1c3.1,0,6.2,0,9.3,0c3.1,0,6.3,0,9.4,0
	s6.3,0,9.5-0.1c3.2,0,6.3-0.1,9.5-0.1c3.1,0,6.3,0,9.4-0.1c3.1,0,6.2,0,9.3,0c3.1,0,6.1,0,9.1,0c0.3,1,0.5,1.4,0.6,1.7
	c0.1,0.2,0.1,0.2,0.1,0.2s0,0,0.1,0.2c0.1,0.2,0.3,0.7,0.6,1.7c1.2,0,1.8,0,2.1,0c0.3,0,0.3,0,0.3,0s0,0,0.3,0s0.9,0,2.1,0
	c0.7-1.3,1.1-2.3,1.5-2.9c0.3-0.7,0.5-1.1,0.6-1.3c0.1-0.2,0.1-0.3,0.2-0.3c0,0,0,0,0,0s0,0,0-0.1s0.1-0.2,0.3-0.6
	c0.2-0.3,0.4-0.8,0.8-1.6c0.4-0.7,0.9-1.7,1.5-3.1c0.5-0.9,0.9-1.8,1.3-2.5c0.4-0.7,0.7-1.4,1-2c0.3-0.6,0.5-1.1,0.8-1.6
	s0.5-1,0.7-1.5s0.5-1,0.7-1.5c0.2-0.5,0.5-1,0.8-1.6s0.7-1.2,1.1-1.9c0.4-0.7,0.9-1.5,1.4-2.4c0.2-0.3,0.3-0.6,0.5-0.9
	s0.4-0.5,0.6-0.8c0.2-0.3,0.4-0.5,0.7-0.8c0.2-0.2,0.5-0.5,0.7-0.7c0.2-0.2,0.5-0.5,0.7-0.7c0.3-0.2,0.5-0.4,0.8-0.7
	s0.5-0.4,0.8-0.6c0.3-0.2,0.5-0.4,0.8-0.6c-1,0-1.9,0-2.9,0s-1.9,0-2.9,0s-1.9,0-2.9,0c-1,0-1.9,0-2.9,0s-1.9,0-2.9,0
	c-1,0-1.9,0-2.9,0c-1,0-1.9,0-2.9,0s-1.9,0-2.9,0c-0.1,0.2-0.1,0.4-0.2,0.6s-0.1,0.4-0.2,0.6c-0.1,0.2-0.1,0.4-0.2,0.6
	c-0.1,0.2-0.1,0.4-0.2,0.6c0,0.2-0.1,0.4-0.1,0.6c-0.1,0.2-0.1,0.4-0.2,0.6c-0.1,0.2-0.1,0.4-0.2,0.6c-0.1,0.2-0.1,0.4-0.2,0.6
	c-3.1,0-6.2,0-9.3,0c-3.1,0-6.2,0-9.3,0s-6.2,0-9.3,0c-3.1,0-6.2,0-9.3,0s-6.2,0-9.3,0s-6.2,0-9.3,0c-3.1,0-6.2,0-9.3,0
	c-3.1,0-6.2,0-9.3,0V15v-0.4v-0.4v-0.4v-0.4v-0.4v-0.4v-0.4c2.7,0,5.4,0.1,8.1,0.1s5.4,0,8.1,0s5.4,0,8.1,0c2.7,0,5.4,0,8.1,0
	c2.7,0,5.4,0,8.1,0c2.7,0,5.4,0,8.1,0c2.7,0,5.4,0,8.1,0c2.7,0,5.4,0,8.1,0.1c0.2,0,0.5,0,0.7,0c0.2,0,0.5,0,0.7,0s0.5,0,0.7,0
	c0.2,0,0.5,0,0.7,0s0.5,0,0.7,0c0.2,0,0.5,0,0.7-0.1c0.2,0,0.5-0.1,0.7-0.1C70.3,12.2,70.5,12.1,70.8,12 M98.6,16.5
	c-2.9,3.7-4.6,8.1-6.8,12.2C84.9,42.8,78.2,57,72,71.4c17.5-3.3,35.2-6.5,53.1-6.8c16.7-0.1,33.1,3.1,49.3,6.6
	c-0.8-1.4-1.7-2.7-2.6-4c-12-16-23.8-32.2-35.9-48.1c-1.1-1.2-2.1-2.7-3.8-3.1c-8.1-2.5-16.7-2.2-25.1-1.6
	C104.1,14.7,101,14.8,98.6,16.5 M73.1,73.2c-2.9,0.3-4,3.4-5.2,5.7c-2.4,6-5.4,11.8-6.9,18.1c7.3-1.1,14.5-2.7,21.8-3.5
	c12-1.2,24.1-2.1,36.2-2.6c24.9-0.8,49.6,3,74.1,7.2c-3.7-6.3-8-12.1-12-18.2c-2-2.7-3.6-6.2-7.3-6.7c-18.9-4.6-38.3-7.8-57.8-6.4
	C101.6,67.9,87.3,70.2,73.1,73.2 M62.4,98.7c-3,0.2-3.3,3.6-3.6,5.9C57.5,116.4,57,128.2,57,140c0.3,13.2,2.3,26.2,4.8,39.1
	c0.4,1.5,0.5,3.3,1.6,4.5c2.4,1.3,5.2,1.7,7.9,2.3c9.4,1.7,18.8,3.3,28.3,4.4c24.3,3.1,48.9,1.6,73.1-1.4c5-0.8,12.1-2.7,17.1-5.7
	c-9.1-13.3-2.3-3.5-3.6-5.5c-5.5-8.1-11.2-16.1-16.8-24.3c-5.3-7.9-11.9-14.8-17.8-22.2c-2.6-3.6-5.3-7.7-5-12.3
	c0.1-2.9,2.7-4.8,4.4-6.7c0-2.2-0.1-5-0.1-7.3c0.5,0,1.4,0,1.8,0c0.1,2.1,0.1,4.1,0.2,6.2c1.3,0,2.5,0,3.8,0.1
	c0.1-2.1,0.1-4.2,0.2-6.2c0.5,0,1.4,0,1.9,0c0.1,2.3,0.1,4.6,0.1,6.9c6.5,4.3,12.1,10,18.1,15c6.6,5.5,12.2,11.3,18,17.5
	c0.4-13.8,1.5-27.4,0.5-41.3c-0.1-2.2-2.8-2.6-4.5-3.1c-14.4-2.9-29-5-43.6-6.3C119.1,91,90.4,94.1,62.4,98.7 M150.1,119.2
	c2.1,2.9,5.3,6.3,8.8,7.4c3.1-0.6,5.4-4.2,6.7-6.8c-2.9-3-5.3-5.5-9.1-6.4C153.5,112.9,148.1,116.2,150.1,119.2z"/>
<path d="M0,22.4c24.8,0.3,49.7,0.1,74.5,0.1c0,2.7,0,5.4,0,8c-24.8-0.1-49.7-0.1-74.5,0v-2.2c23.9,0.4,47.7,0.1,71.6,0.1
	c0-1,0-2.9,0-3.9c-23.9,0-47.7-0.1-71.6,0V22.4z"/>
<path d="M78.2,102.2c18.6-0.3,37.1-0.3,55.7,0c0.3,25.2,0.3,50.4,0,75.7c-18.6,0.3-37.1,0.3-55.7,0c-0.4-15.9-0.1-31.9-0.2-47.8
	C78.1,120.7,77.8,111.4,78.2,102.2 M80,104c0,24,0,48,0,71.9c17.3,0.1,34.6,0.1,52,0c0.1-24,0.1-48,0-72C114.7,104,97.3,104,80,104z
	"/>
<path d="M188.5,157.2c1.3-3.3,4-5.9,7.1-7.7C194.8,153.2,191.9,155.7,188.5,157.2z"/>
<circle class="st0" cx="154.5" cy="166" r="3.3"/>
<path class="st1" d="M75.9,42.5"/>
<path class="st1" d="M75.9,10.6"/>
<path class="st2" d="M88.6,41.2"/>
<path class="st2" d="M75.9,41.2"/>
</svg>
