<svg height="960" viewBox="0 0 960 960" width="960" xmlns="http://www.w3.org/2000/svg"><path d="m92.0593168 49.1350109c2.7975307-30.3762776 29.4622942-52.99946362 59.9934462-50.68613987l639.059685 48.42109857c29.20303 2.2126929 51.769048 26.553204 51.769048 55.8399414v731.928113c0 28.559819-21.492222 52.544043-49.881035 55.664695l-617.520825 67.881237c-4.111832.451995-8.268895.26344-12.322924-.558941l-26.46803-5.369174c-26.104697-5.295471-44.8668715-28.24579-44.8668715-54.882178v-843.0848507c0-1.411831.0533911-2.823157.1600588-4.2309527zm56.6571372-10.8212291c-8.679062-.4893666-16.189234 6.0597839-16.848912 14.7661869-.030477.4022273-.045731.8054633-.045731 1.2088436v843.4353377c.165438 7.460477 5.475367 13.84042 12.819106 15.330135l17.371043 3.524947c-.591038-2.141681-.915196-4.394935-.934184-6.722096l-7.057593-864.866658c0-.7308294.019757-1.4615852.075364-2.1903204l.036186-.4284462c.114072-1.2314385.312622-2.4353854.589463-3.6065322l-5.690542-.4306358zm27.229549 2.0598624c-1.07301.9920363-1.788475 2.3761761-1.908428 3.9481942-.017392.1681696-.017392.3368056-.017392.5054585l7.056927 864.8666581c.027037 3.313598 2.735157 5.977882 6.048755 5.95105.204477 0 .408736-.013993.611975-.036518l607.508787-67.328825c4.609112-2.829946 7.634869-7.913707 7.634869-13.641638l-.002377-732.357671c-.219492-8.1749315-6.588257-14.9033633-14.78878-15.5247111zm68.069015 85.9871988.27867.015555 529.298876 29.247033c5.207414.287742 9.302385 4.523735 9.448279 9.706246l.000542 18.935067c3.014054 1.729843 5.027599 4.979422 5.027599 8.678021v564.163899c0 3.69223-2.008889 6.94559-5.027039 8.677646l-.001102 17.597859c0 5.122548-3.86675 9.400195-8.930558 9.942712l-.277378.02587-521.686443 41.451086c-5.679928.451304-10.567391-3.922439-10.784554-9.578818l-.006898-.279201-7.613059-688.472089c-.062286-5.689778 4.622269-10.264715 10.273065-10.110886zm9.843982 20.574157 7.376 667.081 501.805-39.871-.000189-5.809839-459.309068 36.593901c-.132103.010525-.264389.018422-.39678.023687l-.397407.0079-.254473.000426c-.04539.000288-.090718.000268-.13598-.000055l-23.199773-.000371c-5.477702 0-9.935932-4.406926-9.99933-9.884261l-7.278031-628.726877c-.06376-5.567729 4.431913-10.115739 10.000015-10.115739h23.934453c.184508 0 .36898 0 .553205.015313l466.483169 25.845076.000189-7.024161zm32.015811 29.297161-3.689811.000839 7.046 608.727 3.290811-.000839zm20.008189.582839 6.63 607.317 450.555-36.254v-545.479zm146.28247 263.850651c17.23351-.322131 29.227455 16.985486 28.786017 37.060672-.435832 19.820257-12.794383 37.024468-29.608518 37.33876-17.23351.322132-29.227455-16.985486-28.786017-37.060671l.016644-.593809c.666804-19.568844 12.94588-36.433802 29.591874-36.744952zm211.212023 4.725758c15.920196-.297583 26.959725 15.632783 26.554429 34.064343-.399971 18.189378-11.763062 34.00782-27.284852 34.297955-15.920195.297583-26.959724-15.632783-26.554428-34.064343l.015281-.544956c.612367-17.959237 11.902998-33.465765 27.26957-33.752999zm-210.838245 15.270749c-4.393251.08212-9.762276 7.556284-9.98713 17.781932-.219248 9.97072 4.443197 16.698767 8.417073 16.624486 4.393251-.082119 9.762276-7.556283 9.98713-17.781931.219248-9.970721-4.443197-16.698767-8.417073-16.624487zm211.193334 3.725932c-3.721949.069572-8.444991 6.644469-8.644532 15.718969-.194216 8.832318 3.880388 14.712091 7.203931 14.649967 3.72195-.069571 8.444991-6.644469 8.644533-15.718969.194216-8.832317-3.880388-14.712091-7.203932-14.649967z"/></svg>