<?xml version="1.0" encoding="utf-8"?>
<!-- Generator: Adobe Illustrator 26.3.1, SVG Export Plug-In . SVG Version: 6.00 Build 0)  -->
<svg version="1.1" xmlns="http://www.w3.org/2000/svg" xmlns:xlink="http://www.w3.org/1999/xlink" x="0px" y="0px"
	 viewBox="0 0 907.4 693.1" style="enable-background:new 0 0 907.4 693.1;" xml:space="preserve">
<g id="Laag_1">
</g>
<g id="Laag_2">
	<g>
		<path d="M894.3,225.8l-39.4-31l0-0.6l39.4-31c13.5-10.6,17.1-29.5,8.5-44.4l-24.9-43.1l-0.3-0.4C869,60.7,851,54.6,835.2,60.9
			l-43,17.2l-0.6-0.3c-1-0.6-2.1-1.3-3.1-1.9l-0.9-0.5L781,29.6C778.5,12.6,764,0,746.8,0l-50.3,0c-16.9,0.3-31.2,12.8-33.7,29.6
			l-6.7,46.2l-0.1,0.1c-1.1,0.6-2.2,1.3-3.2,1.9l-0.8,0.5l-43.4-17.3c-15.9-6.4-34.1-0.1-42.7,14.8l-24.9,43.1l-0.3,0.4
			c-8.3,14.8-4.6,33.4,8.8,43.9l39.7,31.3l-39.7,31.3c-5.3,4.2-9.1,9.7-11.2,15.8c-0.9-7.5-4.2-14.8-9.9-20.6l-14.1-14.1h0
			l-42.5-42.5l-0.4-0.4c-8.4-8.2-20.2-11.3-31.1-9c-5.2,1-10.2,3.1-14.6,6.5l-39.6,30.4l-0.9-0.4c-3.4-1.5-6.8-2.9-10.3-4.2
			l-1.2-0.5l-6.6-49.8c-0.1-0.5-0.2-1.1-0.2-1.6c-2.9-16.4-17.2-28.5-34-28.5h-80.5c-17.1,0.3-31.5,13-33.7,30.1l-6.8,51.3l-1.4,0.6
			c-2.9,1.2-5.8,2.4-8.7,3.8l-1,0.5l-41.2-31.6c-13.8-10.6-33.2-9.3-45.5,3L57.5,221l-0.4,0.4c-6.4,6.6-9.7,15.1-9.8,23.7
			c-0.1,7.6,2.2,15.2,7.1,21.6l30.6,39.9l-0.5,1.2c-1.5,3.4-2.9,6.8-4.2,10.3l-0.4,1.1l-49.9,6.6C12.9,327.9,0,342.5,0,359.9v80.5
			c0,0,0,0,0,0v0.2c0.3,17.1,13,31.5,30.1,33.7l51.3,6.8l0.6,1.4c1.2,2.9,2.4,5.8,3.8,8.7l0.4,0.9l-31.6,41.1
			c-2.6,3.4-4.5,7.1-5.6,11l0,0.3c-3.6,11.9-0.6,25.2,8.7,34.4l14,14h-0.5l42.5,42.5l0.4,0.4c5.8,5.6,13.2,8.9,20.8,9.6
			c8.6,1,17.6-1.3,24.9-6.9l39.7-30.5l0.8,0.4c3.4,1.5,6.8,2.9,10.3,4.2l1.2,0.5l6.6,49.8c2.1,16.2,15.2,28.5,31.2,29.9
			c1.2,0.1,2.4,0.2,3.7,0.2h80.5c17.1-0.3,31.5-13,33.7-30.1l6.8-51.6l0.8-0.3c2.9-1.2,5.8-2.4,8.7-3.8l1-0.5l41.2,31.6
			c7,5.4,15.4,7.7,23.7,7l0.6,0.1c8-0.6,15.8-4,21.8-10l56.6-56.6l0.4-0.4c6.4-6.5,9.6-15.1,9.8-23.7c0.1-7.6-2.2-15.2-7.1-21.6
			l-30.6-39.9l0.5-1.2c1.5-3.4,2.9-6.8,4.2-10.3l0.4-1.1l49.9-6.6c17.2-2.3,30.1-16.9,30.1-34.3V440c0,0,0-0.1,0-0.1v-80.5
			c-0.3-17.1-13-31.5-30.1-33.7l-51.3-6.8l-0.6-1.4c-1.2-2.9-2.4-5.8-3.8-8.7l-0.5-1l31.6-41.2c2.3-3,4-6.2,5.2-9.6
			c0.5,4.6,2,9.1,4.4,13.3l24.9,43.1l0.3,0.4c8.7,14.5,26.7,20.7,42.5,14.4l47-18.7l7.3,50.1c2.5,17,17,29.6,34.2,29.6h50.3
			c16.9-0.3,31.2-12.8,33.7-29.6l7.3-50.1l47,18.7c15.9,6.4,34.1,0.1,42.7-14.8l24.9-43.1l0.3-0.4
			C911.3,255,907.6,236.3,894.3,225.8z M394.7,563.7c-6.1-4.7-14.4-5.5-21.3-1.9l-1.4,0.7c-7.1,3.6-14.4,6.7-21.9,9.3l-0.4,0.1
			c-6.9,2.6-11.9,8.8-12.9,16.1l-0.6,4.9l-0.5,0c-0.1,0.5-0.2,0.9-0.2,1.4l-7.7,58.6h-39.4l-0.1-0.1l-30.4,0l-8.7-66.2
			c-1-7.5-6.2-13.9-13.4-16.3l-1.5-0.5c-7.2-2.5-14.2-5.5-21-8.9l-0.4-0.2c-6.8-3.2-14.8-2.3-20.7,2.2L153,593h-0.4l-13.7,10.5
			l-49.6-49.6l31.4-40.9c0,0,0-0.1-0.1-0.1l8.8-11.4c4.7-6.1,5.5-14.4,1.9-21.3l-0.7-1.4c-3.6-7.1-6.7-14.4-9.3-21.9l-0.1-0.4
			c-2.6-6.9-8.8-11.9-16.1-12.9L40,435.1v-40l0,0l0-30.3l57.3-7.5c0.8-0.1,1.6-0.3,2.4-0.5l6.5-0.9c7.5-1,13.9-6.2,16.3-13.4
			l0.5-1.5c2.5-7.2,5.5-14.2,8.9-21l0.2-0.4c3.2-6.8,2.3-14.8-2.2-20.7l-2.7-3.5c0,0-0.1-0.1-0.1-0.1L89.3,246l10.7-10.7v-0.2l39-39
			l52.3,40.1c6.1,4.7,14.4,5.5,21.3,1.9l1.4-0.7c7.1-3.6,14.4-6.7,21.9-9.3l0.4-0.1c6.9-2.6,11.9-8.8,12.9-16.1l8.5-64.9h39.4l0,0.1
			l30.4,0l8.7,66.2c1,7.5,6.2,13.9,13.4,16.3l1.5,0.5c7.2,2.5,14.2,5.5,21,8.9l0.4,0.2c6.8,3.2,14.8,2.3,20.7-2.2l1.4-1.1
			c1-0.5,1.9-1.1,2.8-1.8l49.1-37.6l49.6,49.6l-40.1,52.3c-4.7,6.1-5.5,14.4-1.9,21.3l0.7,1.4c3.6,7.1,6.7,14.4,9.3,21.9l0.1,0.4
			c2.6,6.9,8.8,11.9,16.1,12.9l64.9,8.5v70.5l-56.8,7.5c-0.2,0-0.4,0.1-0.6,0.1l-5.1,0.7c-0.7,0.1-1.5,0.2-2.2,0.4l-1,0.1
			c-7.5,1-13.9,6.2-16.3,13.4l-0.5,1.5c-2.5,7.2-5.5,14.2-8.9,21l-0.2,0.4c-3.2,6.8-2.3,14.8,2.2,20.7l0,0.1
			c0.6,1.2,1.3,2.4,2.1,3.5l37.9,49.4l-49.6,49.6L394.7,563.7z M845.6,289.2l-55.2-22c-5.9-2.3-12.5-1.8-17.9,1.5l-0.4,0.2
			c-3,1.9-6.1,3.7-9.3,5.3l-1.4,0.7c-5.9,2.9-9.9,8.5-10.9,15l-8.6,59.1h-40.3l-8.6-59.4c-1-6.6-5.1-12.3-11.1-15.1
			c-3.5-1.7-6.8-3.5-10-5.6l-0.4-0.2c-5.4-3.3-12-3.9-17.9-1.6l-55.6,22.2l-20.1-34.9l44.6-35.2c5.3-4.2,8.1-10.8,7.5-17.5l0-0.4
			c-0.4-3.4-0.6-6.9-0.6-10.4c0-1.2,0-2.4,0.1-3.6l0.1-1.6c0.2-6.3-2.6-12.4-7.6-16.3l-44-34.7l20.1-34.9l49,19.5
			c6.5,2.6,13.9,1.6,19.4-2.6c4.8-3.6,10-6.8,15.4-9.4l1.4-0.7c5.9-2.9,10-8.5,11-15.1l7.5-51.6h40.3l7.4,51.3
			c1,6.6,5.1,12.2,11.1,15.1l0.4,0.2c5.6,2.6,10.9,5.7,15.9,9.3l1.3,0.9c5.5,4,12.7,4.9,19.1,2.3l48.5-19.4l20.1,34.9l-43.4,34.2
			c-5,3.9-7.8,10-7.6,16.4l0,0.4c0.1,1.7,0.1,3.4,0.1,5.2c0,3.2-0.2,6.4-0.5,9.6l-0.2,1.6c-0.6,6.8,2.2,13.4,7.5,17.6l44,34.7
			L845.6,289.2z"/>
		<path d="M722.4,123c-37.6,0-68,30.4-68,68s30.4,68,68,68s68-30.4,68-68S760,123,722.4,123z M722.4,239c-26.5,0-48-21.5-48-48
			c0-26.5,21.5-48,48-48s48,21.5,48,48C770.4,217.5,748.9,239,722.4,239z"/>
		<path d="M293,293.5c-58.8,0-106.4,47.6-106.4,106.4c0,58.8,47.6,106.4,106.4,106.4c58.8,0,106.4-47.6,106.4-106.4
			C399.4,341.1,351.8,293.5,293,293.5z M293,475c-41.5,0-75.1-33.6-75.1-75.1c0-41.5,33.6-75.1,75.1-75.1s75.1,33.6,75.1,75.1
			C368.1,441.4,334.5,475,293,475z"/>
	</g>
</g>
</svg>
