<?xml version="1.0" encoding="utf-8"?>
<!-- Generator: Adobe Illustrator 24.2.1, SVG Export Plug-In . SVG Version: 6.00 Build 0)  -->
<svg version="1.1" id="Laag_1" xmlns="http://www.w3.org/2000/svg" xmlns:xlink="http://www.w3.org/1999/xlink" x="0px" y="0px"
	 viewBox="0 0 730 979.1" style="enable-background:new 0 0 730 979.1;" xml:space="preserve">
<path d="M256.1,979.1c-1,0-2,0-3,0c-0.6-0.3-1.2-0.7-1.8-0.8c-29-4.4-56.6-13.2-83.2-25.4c-52.5-24.1-95.2-59.5-124.8-109.6
	C4.7,778-4.7,706.6,2,632.4c3.9-43.2,17.2-83.9,34.7-123.3C56,465.8,80.3,425.4,104.8,385c30.5-50.3,61.6-100.4,90.7-151.5
	c35.3-62.1,62.6-127.7,81-196.9c3.2-12,6-24,9.2-36.6c6.3,3.2,12.2,6.2,18.1,9.3c94,51.5,177,117,248,197.3
	c63.4,71.7,112.4,152,143.3,242.9c19,55.9,30.3,113.3,33.5,172.3c2.4,43.7,2.2,87.2-7.1,130.2c-11.7,54-35.5,101.5-75.1,140.6
	C605.3,933.3,555.5,958,500,972c-11.6,2.9-23.4,4.8-35.1,7.1c-1,0-2,0-3,0c1.1-1,2.1-2,3.2-3c12.8-11.6,26.9-22,38.3-34.8
	c55.4-62.3,83.1-136.3,88.1-218.8c4.5-75.1-13.4-145.5-48.2-211.9c-32.6-62.2-77.2-115-128.8-162.2c-3.2-3-6.6-5.8-10.9-9.6
	c8.8,59.9,5.6,117.8-7.4,175.3c-13,57.4-34.4,111.4-65.6,162.8c-5.5-60.4-29.5-110-73.5-150.4c-3.7,12.2-7,23.5-10.6,34.7
	c-11.8,36.9-29.1,71.4-45.6,106.2c-12.8,26.9-24,54.5-29.1,84.1c-6.1,34.6-7.3,69.1,4.3,103.1C192.3,902.7,216.4,945.9,256.1,979.1z
	"/>
</svg>
