<?xml version="1.0" encoding="utf-8"?>
<!-- Generator: Adobe Illustrator 24.2.1, SVG Export Plug-In . SVG Version: 6.00 Build 0)  -->
<svg version="1.1" id="Layer_1" xmlns="http://www.w3.org/2000/svg" xmlns:xlink="http://www.w3.org/1999/xlink" x="0px" y="0px"
	 viewBox="0 0 1290 1406.3" style="enable-background:new 0 0 1290 1406.3;" xml:space="preserve">
<g>
	<path d="M762.6,1041.4L446.9,439.5c-26-49.6-97-49.6-123.1,0L8,1041.4c-24.3,46.3,9.3,101.8,61.5,101.8h315.7l0,0h315.7
		C753.3,1143.1,786.9,1087.6,762.6,1041.4z M351.2,650.8c0-19.5,15.8-35.4,35.4-35.4l0,0c19.5,0,35.4,15.8,35.4,35.4v202.9
		c0,19.5-15.8,35.4-35.4,35.4l0,0c-19.5,0-35.4-15.8-35.4-35.4V650.8z M385.3,1040.2c-28.2,0-51-22.8-51-51s22.8-51,51-51
		s51,22.8,51,51S413.5,1040.2,385.3,1040.2z"/>
</g>
<path d="M312.5,1216.7c42.1,67.2,101.4,115.3,173.5,148.4c38,17.5,77.6,30,119,36.3c0.9,0.1,1.7,0.7,2.6,1.1c1.4,0,2.9,0,4.3,0
	c-56.7-47.5-91.2-109.4-114.7-178.3c-0.9-2.5-1.7-5-2.4-7.5H385.2H312.5z"/>
<path d="M1288.1,891.4c-4.7-84.4-20.8-166.6-48-246.6c-44.2-130.1-114.4-245.1-205.1-347.7C933.4,182.2,814.6,88.5,680.1,14.8
	c-8.3-4.6-16.8-8.7-25.8-13.4c-4.5,17.9-8.6,35.2-13.1,52.3c-26.3,99-65.4,192.9-115.9,281.8c-9.8,17.2-19.7,34.3-29.7,51.3
	l264.7,504.8c22.9-49.6,40-101,52.2-154.4c18.7-82.3,23.2-165.3,10.6-250.9c6.1,5.4,10.9,9.5,15.5,13.8
	c73.9,67.5,137.6,143,184.3,232.1c49.8,94.9,75.4,195.7,68.9,303.2c-7.2,118.2-46.8,224-126,313.2c-16.3,18.4-36.5,33.3-54.8,49.9
	c-1.6,1.4-3.1,2.8-4.6,4.3c1.4,0,2.9,0,4.3,0c16.8-3.3,33.7-6,50.3-10.1c79.5-20,150.8-55.4,209.6-113.5
	c56.6-55.9,90.6-123.9,107.4-201.2C1291.3,1016.2,1291.6,953.9,1288.1,891.4z"/>
</svg>
