<?xml version="1.0" encoding="utf-8"?>
<!-- Generator: Adobe Illustrator 24.2.1, SVG Export Plug-In . SVG Version: 6.00 Build 0)  -->
<svg version="1.1" id="Laag_1" xmlns="http://www.w3.org/2000/svg" xmlns:xlink="http://www.w3.org/1999/xlink" x="0px" y="0px"
	 viewBox="0 0 959 599" style="enable-background:new 0 0 959 599;" xml:space="preserve">
<desc>Created with Sketch.</desc>
<g id="alarm_voc">
	<g id="alarm_VOC" transform="translate(0.000000, 180.000000)">
		<path id="Path" d="M596.3,238.6c-0.9-0.4-2-0.6-3.1-0.6l0,0h-16.7c-3.1,0-5.8,1.8-7.1,4.7l-44.4,101.9l-43.6-101.8
			c-1.2-2.8-4-4.7-7.2-4.7h-16.6c-4.3,0-7.8,3.5-7.8,7.8c0,1,0.2,2.1,0.6,3.1l65.6,153.3c1.2,2.8,4,4.7,7.2,4.7h3.3
			c3.1,0,5.8-1.8,7.1-4.7L600.3,249C602.1,245,600.3,240.3,596.3,238.6z"/>
		<path id="Shape" d="M691.5,235c-31.4-0.1-60.4,16.7-75.8,44c-7.7,13.6-11.8,29-11.7,44.7c0,24,8.7,44.8,25.8,61.8
			c17.1,16.9,38.2,25.5,63,25.5c24.5,0,45.5-8.7,62.6-25.6c17.1-16.9,25.7-38,25.7-62.4c0-24.6-8.7-45.6-25.8-62.5
			C738.2,243.6,716.7,235,691.5,235z M742,352.3c-4.9,8.7-12,15.8-20.7,20.7l0,0c-8.8,5-18.9,7.7-29.2,7.6
			c-15.8,0-28.9-5.4-40.1-16.5s-16.6-24.3-16.6-40.4c-0.2-10.3,2.4-20.5,7.5-29.5c10.2-17.6,28.8-28.5,49.2-28.7
			c20.5,0.2,39.4,11,49.9,28.5c5.1,8.8,7.6,18.8,7.4,29C749.6,333.2,747,343.3,742,352.3z"/>
		<path id="Path_1_" d="M951,366.8c-0.1,0-0.1-0.1-0.2-0.1l-12-9.1c-3.3-2.5-8-2-10.6,1.1c-12.9,15.1-28.7,22.4-47.8,22.4
			c-17.5,0-31.6-5.4-42.9-16.5c-11.4-11.1-16.8-24.4-16.8-41.1c0-10.9,2.5-20.7,7.5-29.4c5.1-8.7,12.4-15.8,21.2-20.7
			c9.2-5.1,19.6-7.8,30.1-7.8c9.5-0.1,18.8,1.9,27.4,5.9c8.4,4,15.5,10,21.2,17.4c2.6,3.4,7.5,4,10.9,1.4l0,0l12.1-9.2
			c3.3-2.6,4-7.3,1.6-10.7c-8.1-11.2-18.8-20.2-31.2-26.2c-12.5-6.1-26.7-9.3-42.1-9.3c-25.7,0-47.3,8.4-64.4,25.1
			c-17.1,16.6-25.9,37.6-25.9,62c0,23.1,7.2,43.1,21.3,59.5c17,19.5,40.3,29.4,69.2,29.4c15.2,0,29.1-2.9,41.5-8.7
			c12.3-5.7,23-14.1,31.4-24.7C954.9,374.3,954.4,369.5,951,366.8z"/>
		<path id="Path_2_" d="M567,60c-10,0-18,8-18,18s8,18,18,18c10,0,18-8,18-18C585.1,68,577,60,567,60z"/>
		<path id="Path_3_" d="M567,160c-10,0-18,8-18,18s8,18,18,18c10,0,18-8,18-18C585.1,168.1,577,160.1,567,160z"/>
		<path id="Path_4_" d="M567-40c-10,0-18,8-18,18s8,18,18,18c10,0,18-8,18-18C585.1-31.9,577-39.9,567-40z"/>
		<path id="Path_5_" d="M490,110c-10,0-18,8-18,18s8,18,18,18s18-8,18-18S500,110,490,110z"/>
		<path id="Path_6_" d="M490,10c-10,0-18,8-18,18s8,18,18,18s18-8,18-18C508,18.1,500,10.1,490,10z"/>
		<path id="Path_7_" d="M412,60c-10,0-18,8-18,18s8,18,18,18s18-8,18-18S422,60,412,60z"/>
		<path id="Path_8_" d="M645,110c-10,0-18,8-18,18s8,18,18,18c10,0,18-8,18-18C663.1,118,655,110,645,110z"/>
		<path id="Path_9_" d="M645,10c-10,0-18,8-18,18s8,18,18,18c10,0,18-8,18-18C663.1,18.1,655,10.1,645,10z"/>
		<path id="Path_10_" d="M722,60c-10,0-18,8-18,18s8,18,18,18s18-8,18-18S732,60,722,60z"/>
		<path id="Path_11_" d="M565.8-144.4c113.4,0,212.9,80.4,236.4,191.3c1.3,6.2,5.8,11.2,11.9,13.2c54.6,17.8,96.6,63.4,109.8,119.2
			c2.3,9.6,11.8,15.5,21.4,13.3c9.5-2.2,15.4-11.8,13.1-21.3c-15.2-64.5-62.2-117.9-123.8-141.5C804.1-92.5,692.6-180,565.8-180
			C466-180,375.9-126,327-43.5l20,38.1C386.2-88.4,470.9-144.4,565.8-144.4z"/>
		<path id="Path_12_" d="M397.2,383.2h-28.9c-0.5-0.1-0.9-0.1-1.4-0.1c-33.1-1-63.6-11.7-88.9-29.1h-54
			c34.8,38,84.2,62.5,139.8,64.8c0.9,0.2,1.7,0.2,2.6,0.2h30.8c9.8,0,17.8-8,17.8-17.9C415,391.2,407,383.2,397.2,383.2z"/>
		<path id="Shape_1_" d="M397.8,233.9L233.1-79.6c-13.6-25.8-50.6-25.8-64.2,0L4.2,233.9C-8.5,258,9,287,36.3,287H201h164.7
			C393,287,410.5,258.1,397.8,233.9z M183.2,30.5c0-10.2,8.2-18.4,18.4-18.4c10.2,0,18.4,8.2,18.4,18.4v105.7
			c0,10.2-8.2,18.4-18.4,18.4c-10.2,0-18.4-8.2-18.4-18.4V30.5z M201,233.4c-14.7,0-26.6-11.9-26.6-26.5c0-14.7,11.9-26.5,26.6-26.5
			c14.7,0,26.6,11.9,26.6,26.5C227.6,221.5,215.6,233.4,201,233.4z"/>
	</g>
</g>
</svg>
