<?xml version="1.0" encoding="iso-8859-1"?>
<!-- Generator: Adobe Illustrator 17.1.0, SVG Export Plug-In . SVG Version: 6.00 Build 0)  -->
<!DOCTYPE svg PUBLIC "-//W3C//DTD SVG 1.1//EN" "http://www.w3.org/Graphics/SVG/1.1/DTD/svg11.dtd">
<svg version="1.1" id="Capa_1" xmlns="http://www.w3.org/2000/svg" xmlns:xlink="http://www.w3.org/1999/xlink" x="0px" y="0px"
	 viewBox="0 0 512 512" style="enable-background:new 0 0 512 512;" xml:space="preserve">
<g>
	<path d="M368.051,436.051H368V268c0-61.757-50.243-112-112-112s-112,50.243-112,112v168.051h-0.051
		C126.333,436.051,112,450.383,112,468v24c0,4.418,3.582,8,8,8h272c4.418,0,8-3.582,8-8v-24
		C400,450.383,385.667,436.051,368.051,436.051z M384,484H128v-16c0-8.794,7.155-15.949,15.949-15.949h160.049c4.418,0,8-3.582,8-8
		s-3.582-8-8-8H160V268c0-52.935,43.065-96,96-96s96,43.065,96,96v168.051h-15.998c-4.418,0-8,3.582-8,8s3.582,8,8,8h32.049
		c8.794,0,15.949,7.155,15.949,15.949V484z"/>
	<path d="M328,276c4.418,0,8-3.582,8-8c0-26.762-13.295-51.634-35.565-66.534c-3.672-2.458-8.641-1.472-11.098,2.2
		c-2.457,3.672-1.472,8.641,2.2,11.098C309.36,226.688,320,246.59,320,268C320,272.418,323.582,276,328,276z"/>
	<path d="M336,316v-16c0-4.418-3.582-8-8-8s-8,3.582-8,8v16c0,4.418,3.582,8,8,8S336,320.418,336,316z"/>
	<path d="M120,268c0-4.418-3.582-8-8-8H56c-4.418,0-8,3.582-8,8s3.582,8,8,8h56C116.418,276,120,272.418,120,268z"/>
	<path d="M24,260H8c-4.418,0-8,3.582-8,8s3.582,8,8,8h16c4.418,0,8-3.582,8-8S28.418,260,24,260z"/>
	<path d="M504,260h-16c-4.418,0-8,3.582-8,8s3.582,8,8,8h16c4.418,0,8-3.582,8-8S508.418,260,504,260z"/>
	<path d="M456,260h-56c-4.418,0-8,3.582-8,8s3.582,8,8,8h56c4.418,0,8-3.582,8-8S460.418,260,456,260z"/>
	<path d="M256,132c4.418,0,8-3.582,8-8V68c0-4.418-3.582-8-8-8s-8,3.582-8,8v56C248,128.418,251.582,132,256,132z"/>
	<path d="M256,44.003c4.418,0,8-3.582,8-8V20c0-4.418-3.582-8-8-8s-8,3.582-8,8v16.003C248,40.421,251.582,44.003,256,44.003z"/>
	<path d="M131.285,204.001c2.765,0,5.454-1.435,6.936-4.001c2.209-3.826,0.898-8.719-2.928-10.928l-90.067-52
		c-3.826-2.21-8.719-0.899-10.928,2.928c-2.209,3.826-0.898,8.719,2.928,10.928l90.067,52
		C128.552,203.656,129.928,204.001,131.285,204.001z"/>
	<path d="M466.774,137.072l-90.067,52c-3.826,2.209-5.137,7.102-2.928,10.928c1.482,2.566,4.171,4.001,6.936,4.001
		c1.357,0,2.733-0.346,3.993-1.073l90.067-52c3.826-2.209,5.137-7.102,2.928-10.928
		C475.494,136.173,470.601,134.864,466.774,137.072z"/>
	<path d="M324,150.221c1.26,0.728,2.635,1.073,3.993,1.073c2.765,0,5.454-1.435,6.936-4.001l52-90.067
		c2.209-3.826,0.898-8.719-2.928-10.928c-3.827-2.21-8.719-0.899-10.928,2.928l-52,90.067
		C318.863,143.119,320.174,148.012,324,150.221z"/>
	<path d="M177.072,147.292c1.482,2.566,4.171,4.001,6.936,4.001c1.357,0,2.733-0.346,3.993-1.073
		c3.826-2.209,5.137-7.102,2.928-10.928l-52-90.067c-2.209-3.827-7.102-5.136-10.928-2.928c-3.826,2.209-5.137,7.102-2.928,10.928
		L177.072,147.292z"/>
</g>
<g>
</g>
<g>
</g>
<g>
</g>
<g>
</g>
<g>
</g>
<g>
</g>
<g>
</g>
<g>
</g>
<g>
</g>
<g>
</g>
<g>
</g>
<g>
</g>
<g>
</g>
<g>
</g>
<g>
</g>
</svg>
