<?xml version="1.0" encoding="utf-8"?>
<!-- Generator: Adobe Illustrator 25.2.1, SVG Export Plug-In . SVG Version: 6.00 Build 0)  -->
<svg version="1.1" id="Layer_1" xmlns:sketch="http://www.bohemiancoding.com/sketch/ns"
	 xmlns="http://www.w3.org/2000/svg" xmlns:xlink="http://www.w3.org/1999/xlink" x="0px" y="0px" viewBox="0 0 21.4 12"
	 style="enable-background:new 0 0 21.4 12;" xml:space="preserve">
<description>Created with Sketch.</description>
<g>
	<path id="a" d="M20,8v1.8c0,0,0,2.2-2.1,2.2H2.1C0,12,0,9.8,0,9.8V2.2C0,2.2,0,0,2.1,0h15.8C20,0,20,2.2,20,2.2V4
		c0.3,0,1.4,0.2,1.4,1v2C21.4,7.8,20.3,8,20,8L20,8z M19,9.9V2.1c0,0,0-1.1-1.1-1.1H2C0.9,1,0.9,2.1,0.9,2.1v7.8c0,0,0,1.1,1.1,1.1
		h15.9C19,11,19,9.9,19,9.9z"/>
</g>
<polygon points="13,1.2 8,5.9 10,6.3 7.5,10.8 12.5,6 10.7,5.2 "/>
</svg>
