<?xml version="1.0" encoding="utf-8"?>
<!-- Generator: Adobe Illustrator 21.0.0, SVG Export Plug-In . SVG Version: 6.00 Build 0)  -->
<svg version="1.1" id="Layer_1" xmlns="http://www.w3.org/2000/svg" xmlns:xlink="http://www.w3.org/1999/xlink" x="0px" y="0px"
	 viewBox="0 0 1290 1406.3" style="enable-background:new 0 0 1290 1406.3;" xml:space="preserve">
<g>
	<path d="M1261,1406.3H285.9c-16,0-29-13-29-29s13-29,29-29H1261c16,0,29,13,29,29S1277,1406.3,1261,1406.3z"/>
</g>
<g>
	<path d="M992.5,540.1c-16,0-29-13-29-29V301.6c0-16,13-29,29-29c16,0,29,13,29,29v209.5C1021.4,527.2,1008.5,540.1,992.5,540.1z"/>
</g>
<g>
	<path d="M773.5,469.4c-16,0-29-13-29-29V29c0-16,13-29,29-29c16,0,29,13,29,29v411.4C802.4,456.4,789.5,469.4,773.5,469.4z"/>
</g>
<path d="M559.5,380.4l23.9,45.6V199.6c0-16-13-29-29-29c-16,0-29,13-29,29v134C538.9,347.2,550.4,362.9,559.5,380.4z"/>
<g>
	<path d="M762.6,1041.4L446.9,439.5c-26-49.6-97-49.6-123.1,0L8,1041.4c-24.3,46.3,9.3,101.8,61.5,101.8h315.7h0h315.7
		C753.3,1143.1,786.9,1087.6,762.6,1041.4z M351.2,650.8c0-19.5,15.8-35.4,35.4-35.4l0,0c19.5,0,35.4,15.8,35.4,35.4v202.9
		c0,19.5-15.8,35.4-35.4,35.4l0,0c-19.5,0-35.4-15.8-35.4-35.4V650.8z M385.3,1040.2c-28.2,0-51-22.8-51-51s22.8-51,51-51
		c28.2,0,51,22.8,51,51S413.5,1040.2,385.3,1040.2z"/>
</g>
<path d="M773.5,627.7c-27.3,0-53.7,3.5-78.9,10l180.7,344.5c32.3,61.5,30.1,133.7-5.9,193.2c-21.9,36.2-53.8,63.5-91.1,79.3
	c170.9-2.6,308.7-141.9,308.7-313.5C1087,768.1,946.6,627.7,773.5,627.7z"/>
</svg>
