<?xml version="1.0" encoding="utf-8"?>
<!-- Generator: Adobe Illustrator 21.0.0, SVG Export Plug-In . SVG Version: 6.00 Build 0)  -->
<svg version="1.1" id="Layer_1" xmlns="http://www.w3.org/2000/svg" xmlns:xlink="http://www.w3.org/1999/xlink" x="0px" y="0px"
	 viewBox="0 0 1290 1406.3" style="enable-background:new 0 0 1290 1406.3;" xml:space="preserve">
<g>
	<path d="M1132.6,1348.4H157.8c-16,0-29,13-29,29c0,16,13,29,29,29h974.7c16,0,29-13,29-29
		C1161.6,1361.4,1148.6,1348.4,1132.6,1348.4z"/>
	<circle cx="645.3" cy="941.4" r="313.4"/>
	<path d="M426.3,540.5c16,0,29-13,29-29V200.1c0-16-13-29-29-29c-16,0-29,13-29,29v311.5C397.3,527.5,410.3,540.5,426.3,540.5z"/>
	<path d="M864.2,540.5c16,0,29-13,29-29V302c0-16-13-29-29-29c-16,0-29,13-29,29v209.5C835.2,527.5,848.1,540.5,864.2,540.5z"/>
	<path d="M645.3,469.6c16,0,29-13,29-29V29.4c0-16-13-29-29-29c-16,0-29,13-29,29v411.2C616.2,456.8,629.2,469.6,645.3,469.6z"/>
</g>
</svg>
