<?xml version="1.0" encoding="utf-8"?>
<!-- Generator: Adobe Illustrator 27.0.0, SVG Export Plug-In . SVG Version: 6.00 Build 0)  -->
<svg version="1.1" id="Laag_1" xmlns="http://www.w3.org/2000/svg" xmlns:xlink="http://www.w3.org/1999/xlink" x="0px" y="0px"
	 viewBox="0 0 397.84 526.39" style="enable-background:new 0 0 397.84 526.39;" xml:space="preserve">
<style type="text/css">
	.st0{fill:#FEFEFE;}
</style>
<path d="M2.83,250.33c-3.54-1.15-2.76-4.17-2.76-6.71c-0.05-21.66-0.03-43.31-0.03-64.97c0-54.81,0-109.62,0-164.43
	c0-8,0-8.07,7.68-9.2c37.73-5.57,75.67-5.7,113.66-4.2c14.99,0.59,29.88,2.08,44.73,4.21c5.08,0.73,6.62,2.99,6.62,7.87
	c-0.1,76.8-0.07,153.6-0.07,230.4c0,1.99,0.16,4.02-0.9,5.85c-3.6,0.75-3.61-1.66-3.57-4.07c0.49-31.93,0.16-63.86,0.21-95.79
	c0.06-38.76,0.1-77.51-0.07-116.27c-0.03-6.9-0.58-13.9-3.59-20.35c-1.8-1.98-4.18-2.62-6.71-2.96c-11.22-1.54-22.5-2.27-33.78-3.07
	c-17.47-1.23-34.94-1.01-52.4-0.84c-19.3,0.18-38.56,1.44-57.71,4.03c-6.38,0.86-8.37,3.07-8.68,9.41c-0.05,1-0.04,2-0.04,3
	C5.41,92.68,5.41,163.12,5.44,233.56c0,3.45-0.5,7.1,2.55,9.77c6.24,2.68,12.92,3.24,19.49,3.32c22.31,0.26,44.63,0.06,66.94,0.16
	c2.41,0.01,6.58-1.18,6.52,2.34c-0.06,3.16-4.1,1.51-6.25,1.52c-28.81,0.13-57.62,0.1-86.43,0.07
	C6.45,250.72,4.59,251.11,2.83,250.33z"/>
<path d="M2.83,250.33c30.32-0.06,60.64-0.1,90.96-0.21c1.86-0.01,3.92,0.67,5.92-1c-1.97-1.35-3.98-0.87-5.84-0.87
	c-27.99-0.04-55.98-0.01-83.97-0.05c-2.28,0-4.72,0.53-6.68-1.26c2.12-2.56,5.1-2.12,7.88-2.13c24.47-0.08,48.93-0.03,73.4-0.04
	c1.33,0,2.66,0.02,3.99-0.01c6.08-0.17,7.14-1.55,5.26-7.39c-6.52-20.29-12.68-40.65-16.69-61.64c-2.35-12.35-2.48-24.79-2.99-37.24
	c0.63-2.03,1.21-4.07,1.58-6.17c1.32-3.53,1.73-7.34,4.08-10.56c4.51-6.18,10.6-8.02,17.83-7.37c2.26,0.77,4.55,1.46,6.98,1.4
	c10.79,7.59,15.58,19.04,20.41,30.7c8.09,19.54,14.63,39.66,22.79,59.17c4.61,11.02,11.13,20.78,18.23,30.42
	c0.9-1.85,0.45-3.69,0.45-5.45c0.02-70.66,0.01-141.32,0.05-211.98c0-3.45-0.63-7.04,1.31-10.26c3.33,1.55,2.12,4.61,2.13,7.05
	c0.07,55.47,0.05,110.95,0.05,166.42c0,20.49-0.02,40.98,0.02,61.47c0,2.07-0.67,4.45,1.78,5.82c0.01,2.25,0.97,4.17,2.14,5.99
	c5.65,8.74,11.33,17.45,16.99,26.17c0.58,1.23,2.4,2.3,0.86,3.83c-0.7,0.69-1.44-0.3-2.04-0.82c-14.71-20.22-26.9-42.06-40.45-63.03
	c-8.03-12.43-13.07-26.62-17.16-40.89c-2.91-10.15-8.9-18.9-11.8-30.34c-5.6,8.72-12.78,12.3-21.72,11.08
	c-9.42-1.29-13.24-9.2-17.99-17.1c-1.32,5.08-0.93,9.49-0.3,13.7c5.79,38.39,15.44,75.56,32.92,110.57
	c7.26,14.54,12.99,29.88,19.9,44.64c1.48,3.16,3.16,6.22,4.75,9.33c0.09,1.91-1.01,1.49-2.11,1.08
	c-7.82-14.85-15.75-29.65-21.48-45.49c-3.12-8.63-8.15-16.36-12.09-24.61c-1.39-2.9-4.25-2.16-6.64-2.16
	c-28.44-0.04-56.88-0.02-85.33-0.04C7.74,251.05,5.21,251.38,2.83,250.33z"/>
<path d="M189.72,284.32c3.01,0.02,0.98-1.93,1.18-3.01c3.22,2.66,4.24,6.65,6.09,10.14c0.97,1.83,1.77,3.65,4.37,3.16
	c10.69-2.03,19.42,2.83,28,8.06c3.4,2.07,6.9,4.11,9.9,6.68c11.33,9.7,24.86,15.05,38.63,19.97c0.74,0.37,1.44,0.93,0.96,1.77
	c-0.43,0.76-1.27,0.75-2.01,0.2c-11.81-3.54-23.48-7.23-33.43-15.06c-7.19-5.66-14.9-10.67-23.03-14.94
	c-4.62-2.43-9.43-4.2-14.78-3.92c-3.38,0.18-4.61,1.43-2.67,4.72c5.52,9.31,10.79,18.78,17.63,27.23c0.84,1.03,2.96,2.24,1.25,3.63
	c-1.49,1.21-2.61-0.86-3.52-1.87c-4.16-4.58-7.59-9.73-10.73-15.02C201.36,305.62,194.87,295.35,189.72,284.32z"/>
<path d="M162,382.18c7.16,18.16,11.66,37.08,15.82,56.09c1.07,4.87,1.9,9.79,2.71,14.71c0.28,1.67,1.06,3.55-0.67,5.07
	c-2.08-0.84-1.7-2.72-1.97-4.25c-3.35-18.69-8.16-37.01-13.58-55.19c-1.5-5.02-4.25-7.56-9.24-8.3c-2.62-0.39-5.18-1.18-7.75-1.85
	c-0.81-0.21-1.67-0.71-1.58-1.67c0.12-1.27,1.25-1.54,2.24-1.4c2.3,0.33,4.56,0.86,6.85,1.29c4.45,0.84,5.24,0.03,4.02-4.22
	c-0.78-2.71-1.94-5.32-2.06-8.2c2.45-0.53,1.67,1.75,2.34,2.74C160.23,378.64,159.58,381.26,162,382.18z"/>
<path d="M276.84,331.29c0.98-0.32,1.39-0.95,1.04-1.97c0.5,0.04,1.07-0.07,1.48,0.13c14.77,7.35,31.31,8.8,46.73,13.96
	c10.5,3.52,18.75,9.88,24.52,19.33c1.3,2.12,2.99,3.53,5.27,4.3c2.86,0.98,5.5,2.36,7.85,4.27c0.41,1.65-0.3,2.21-1.88,1.96
	c-2.7-1.98-5.54-3.63-8.89-4.32c-1.86-0.39-3.14-1.56-4.12-3.29c-5.52-9.66-13.64-16.07-24.26-19.44
	c-6.98-2.21-14.06-3.98-21.29-5.1C293.8,339.66,285.28,335.59,276.84,331.29z"/>
<path d="M162,382.18c-2.64,0.58-2.24-1.8-2.91-3.06c-0.85-1.58-1.54-3.23-2.3-4.86c-2.27-6.21-4.54-12.41-7.08-19.36
	c-8.15,11.18-14.33,22.99-23.78,32.33c-1.77,0.02-1.63-0.94-1.09-2.11c8.27-9.22,14.69-19.7,20.85-30.37
	c2.12-3.68,2.2-6.95,0.16-10.77c-3.6-6.75-6.75-13.74-10.08-20.63c0.7-0.36,1.41-0.72,2.11-1.08c7.49,11.89,13.07,24.66,16.96,38.14
	C156.95,367.76,159.28,375.03,162,382.18z"/>
<path d="M142.86,449.29c5.08,5.92,8.15,13.07,10.92,20.12c5.91,15.04,15.18,28.1,23.2,41.9c2.81,4.83,5.77,9.56,9.12,15.09
	c-6.8-2.42-30.15-42.44-45.2-75.13C141.09,450.15,142.1,449.84,142.86,449.29z"/>
<path d="M361.86,373.28c0.63-0.65,1.25-1.31,1.88-1.96c5.96,5.75,9.65,13.08,13.66,20.12c9.03,15.87,13.69,33.54,20.38,50.37
	c0.16,0.4-0.02,0.94-0.63,1.69c-3.81-5.16-5.74-11.26-8.06-17.15c-2.44-6.19-4.82-12.41-7.2-18.62c-2.39-6.25-5.87-11.95-9.25-17.67
	C369.27,384.34,365.47,378.87,361.86,373.28z"/>
<path d="M142.86,449.29c-0.33,0.98-1.02,1.6-1.96,1.97c-6.9-12.14-14.16-24.09-20.59-36.47c-5.85-11.26-3.89-21.48,4.53-29.66
	c0.36,0.7,0.73,1.41,1.09,2.11c-0.09,0.32-0.1,0.71-0.29,0.95c-7.94,10.25-5.93,20.4,0.05,30.69
	C131.54,428.93,137.14,439.14,142.86,449.29z"/>
<path class="st0" d="M101.18,158.24c-4.09,0.09-7.44-1.59-10.21-4.46c-5.26-5.45-8.26-12.23-9.51-19.46
	c-0.9-5.18,1.79-9.86,6.33-12.71c4.84-3.03,10.24-3.61,15.06-0.13c7.96,5.74,12.29,14.02,13.74,23.49
	C117.69,152.16,110.04,158.32,101.18,158.24z"/>
<path d="M75.75,137.4c-5.59-5.39-7.14-11.82-4.39-19.03c2.62-6.86,8.02-10.57,15.2-10.95c7.43-0.39,13.07,2.96,16.4,9.8
	c-2.09,1.47-3.59-0.21-5.26-1c-2.69-1.83-5.81-2.15-8.9-2.35c-7.45-0.48-12.28,4.11-12.34,11.59c-0.02,2.64,0.35,5.27,0.43,7.91
	C77.68,135.05,77.89,136.56,75.75,137.4z"/>
</svg>
