<svg height="960" viewBox="0 0 960 960" width="960" xmlns="http://www.w3.org/2000/svg"><path d="m258.459953-.4003595c2.390547 0 4.834582.0998988 7.339327.29325792.367384.028361.734358.06179712 1.100818.10029878l15.676201 1.64700007c.288502.0303111.576666.06375974.86444.10033997l2.785855.34764863 2.524038.30153762c.199355.02320237.395954.04592275.589792.0681607.394941.04530938.789185.09650379 1.182599.15356618l504.127121 73.12083373c28.938202 4.0826793 50.759323 28.3607259 51.751755 57.5650499l23.454272 694.277016c1.04617 31.025651-21.666351 57.758662-52.453652 61.733813l-506.812928 65.444339-.88054.106125c-1.749693.197462-3.434251.307333-5.111011.349927l-.7484.013446-50.166227 2.657641-.856922.057562c-2.314293.139027-4.633255.208272-6.953938.208272h-1.27193c-6.358865-.07667-12.704582-.668898-18.973665-1.777174l-23.287318-4.127301-.900719-.140358c-31.347837-5.168926-54.51817-32.305813-54.51817-64.268968l-.000338-146.206033-5.715639.000667-.306345-.003766c-6.61803-.162887-11.951656-5.588507-11.951656-12.236234v-13.347001l17.97364.994334v-3.606l-6.127119-.342134.145228-.320562c.642044-1.50419.792572-3.110718.792572-4.276638 0-1.6164-.2916-3.2742-.855-4.6926l5.0634.279.980919.053934v-3.606l-10.226799-.565254-.1143-.007425-.1143-.003375-7.518601-.4158v-25.804801l6.7572.3798 9.385201.5256 1.831599.101255v-3.605l-6.135219-.344655.136373-.296226c.525931-1.206572.81555-2.671282.812227-4.326175-.0018-1.6092-.2934-3.2562-.855-4.671l6.041619.337056v-3.607l-10.217439-.578816-.204075-.01485-.208125-.00135-7.344001-.4122v-24.082201l6.7662.4194 10.157401.6264 1.050039.064617v-3.608l-6.226299-.385117.130898-.283843c.591614-1.348741.912382-3.033557.902302-4.973957-.0072-1.845-.3222-3.7008-.9306-5.2506l5.6754.3456.448299.026917v-3.607l-17.97364-1.096138v-24.654601l17.97364 1.095739v-3.605l-6.238719-.383159.154168-.334761c.732282-1.686076.895232-3.540639.895232-4.863639 0-1.8684-.3132-3.7476-.927-5.3136l4.3902.2664 1.726119.103759v-3.606l-17.97364-1.095679v-10.222201l.003215-.315962c.169022-8.300374 6.98209-15.002038 15.332786-15.002038l2.637639-.00012v-134.313l-5.715639.000354-.306345-.003766c-6.61803-.162887-11.951656-5.588507-11.951656-12.236234v-13.347001l17.97364.994647v-3.607l-6.127119-.341447.145228-.320562c.642044-1.50419.792572-3.110718.792572-4.276638 0-1.6164-.2916-3.2742-.855-4.6944l5.0634.2808.980919.054247v-3.606l-10.226799-.566467-.1143-.00675-.1143-.00405-7.518601-.414v-25.804801l6.7572.378v.0018l9.385201.5238 1.831599.101468v-3.606l-6.135219-.342968.136373-.296256c.525931-1.206798.81555-2.672914.812227-4.326145-.0018-1.6092-.2934-3.2562-.855-4.671l6.041619.337369v-3.608l-10.217439-.578309-.204075-.01485-.208125-.00135-7.344001-.4122v-24.082201l6.7662.4176v.0018l10.157401.6264 1.050039.06411v-3.608l-6.226299-.38443.130898-.284179c.591614-1.350197.912382-3.034901.902302-4.973621-.0072-1.845-.3222-3.7008-.9306-5.2506l5.6754.3456.448299.02623v-3.607l-17.97364-1.095451v-24.654601l17.97364 1.096052v-3.605l-6.238719-.383472.154168-.334761c.732282-1.686076.895232-3.540639.895232-4.863639 0-1.8684-.3132-3.7476-.927-5.3136l4.3902.2664 1.726119.104072v-3.606l-17.97364-1.095992v-10.222201l.003215-.315962c.169022-8.300374 6.98209-15.002038 15.332786-15.002038l2.637639-.000807.000338-152.3925994c0-32.6111811 24.745388-59.89814708 57.198892-63.07957614l.653168-.05862866.65404-.04791257 1.211789-.07992423 45.110908-3.47768589c2.201066-.18888307 4.435981-.27967361 6.710405-.27967361zm-24.286442 41.7530531-24.767159 1.909947-1.384201.09c-11.9718 1.1736001-21.1014 11.2392005-21.1014 23.270401v821.2086324c0 12.587401 9.3132 23.236201 21.7854 24.915601l23.884201 4.2318c1.555136.274924 3.117278.501473 4.684185.679409-2.183252-4.934901-3.407902-10.752793-3.51361-17.427137l-1.184565-841.1006274.004174-1.2858636.012837-1.2502447.021966-1.2155684c.004447-.1997574.009295-.3981092.014552-.5950752l.036533-1.1653216c.006934-.1915008.014297-.381655.022098-.5704822l.052151-1.117196c.009595-.1835977.019648-.3659076.030169-.5469495l.068818-1.0711915c.239888-3.3972568.661226-6.3369234 1.333851-8.9601333zm18.474902 69.3579474 1.1092 789.082051.010508.582371c.22884 8.671489 2.990084 12.981855 7.599859 15.247944 1.567084.770352 3.327998 1.274156 5.14548 1.534648l-.062047-.010014 10.045164-.530921c-.981349-2.864933-1.5539-5.931315-1.64293-9.13432zm18.539124-52.5298223 23.658368 848.7451433c.099204 3.569018 1.904853 6.634621 4.563607 8.477176l3.290843-.175463.2214.0018c.8406 0 1.6884-.0378 2.5452-.1476l180.791458-23.346234.198674-4.177979.288877-7.174487.3392-9.807079.360773-11.505507.888263-30.335416c.013781-.515508.027221-1.037514.040318-1.566037l.074487-3.249515c.011733-.554676.023125-1.11591.034177-1.683724l.062238-3.485996.054111-3.644886.046014-3.804762.037949-3.965625.029914-4.127476.02191-4.290313.013937-4.454139.005995-4.618951-.001916-4.784751-.009796-4.951538-.017646-5.119311-.025464-5.288073-.033252-5.457822-.041009-5.628557-.048735-5.800281-.05643-5.972991-.099005-9.285478-.075532-6.409085-.127514-9.944248-.144481-10.343953-.161342-10.74699-.116878-7.390214-.189215-11.426122-.205799-11.838043-.222279-12.253298-.321827-16.989439-.350693-17.74149-.379311-18.501438-.303116-14.379546-.31897-14.814792-.449777-20.435863-.60122-26.653305-.644103-27.899342-.828849-35.145699-1.525754-63.359493-.92838-36.812883-.483877-18.099375-.499057-17.611324-.62792-20.576698-.342925-10.592351-.55506-16.440098-.464189-13.241516-.451453-12.324549-.370093-9.703149-.378264-9.565404-.289187-7.084411-.492701-11.638174-.302201-6.882258-.410798-9.060021-.314112-6.708458-.427005-8.830205-.217072-4.366424-.219487-4.334181-.446327-8.572258-.341283-6.345719-.463931-8.350666-.354732-6.180964-.482189-8.132911-.245104-4.020362-.247811-3.989841-.376854-5.927878-.383096-5.860089-.25891-3.869325-.52637-7.649596-.537948-7.5319-.273382-3.7222054-.415658-5.5290679-.280868-3.6501137-.427012-5.4216646-.433943-5.3579275-.293191-3.5368032-.022534-.2601762-183.771864-26.1437373c-6.388243-.9088768-12.089504 4.2271222-11.911012 10.8229155zm215.989876 18.2088218.231661 2.8360724.288915 3.6167157.427551 5.4780202.420647 5.5420396.413835 5.6066026.272152 3.773872.269191 3.802969.529614 7.693874.518104 7.812197.381154 5.937572.374895 6.005396.490279 8.113639.360645 6.165768.237116 4.149166.350772 6.282131.458689 8.486002.448595 8.6127.546881 10.946006.531874 11.148503.414981 9.06629.305243 6.886598.399175 9.299005.486715 11.813401.379834 9.604008.279455 7.293269.365554 9.845742.268995 7.47605.436503 12.526931.540744 16.084017.479785 15.011356.618112 20.72414.523894 18.912895.556064 21.272994.782017 31.378848 1.551149 64.574657.952024 40.587209.749247 32.814869.464819 20.879092.436789 20.090926.506195 24.01812.372822 18.348326.343993 17.587519.314917 16.835127.216959 12.137654.200362 11.722721.18366 11.311339.113111 7.314102.105611 7.133896.144288 10.36526.127241 9.965717.11009 9.569726.063814 6.161575.056114 5.988209.069667 8.659555.052171 8.275402.025009 5.305269.017156 5.137165.010941 7.392854-.002613 4.721508-.010573 4.557086c-.002427.745871-.005187 1.484936-.008281 2.217214l-.022572 4.312428c-.004431.705226-.009197 1.403711-.014299 2.095476l-.03464 4.070137c-.006446.664975-.013229 1.323276-.02035 1.974922l-.046777 3.830213-.054908 3.671578-.063069 3.513997c-.011193.572593-.022728 1.138664-.034604 1.698234l-.075368 3.279598c-.026494 1.067316-.05436 2.108806-.083605 3.124647l-.574579 19.747009-.538754 17.6782-.304147 9.151039-.221037 6.007947-.209673 5.071524-.031941.641165 167.916-21.683.664181-20.583126.090733-3.105909c.014371-.530725.028366-1.067999.041987-1.611845l.077238-3.342085.068284-3.500773.059363-3.660449.050476-3.821114.041624-3.982768.032806-4.145411.02402-4.309043.01527-4.473663c.001818-.759384.003272-1.525668.004364-2.298873l.002207-4.722449-.006459-4.889542-.015091-5.057623c-.003233-.856999-.006824-1.721043-.010773-2.592152l-.027976-5.3116-.036523-5.482155-.045037-5.653698-.053517-5.82623-.061962-5.99975-.070374-6.174261-.078752-6.34976-.087096-6.526247-.146215-10.122448-.164798-10.525109-.183267-10.931106-.272887-15.212128-.225916-11.891413-.244003-12.308536-.261976-12.728997-.377062-17.631813-.51556-23.111315-.447504-19.355932-.355899-15.027821-.373147-15.469419-.659931-26.77276-.706994-28.024147-.909772-35.30256-1.515826-57.707863-.818344-30.124256-.522928-18.477727-.395265-13.406016-.336937-10.981787-.576788-17.798615-.499088-14.460633-.648067-17.778781-.546697-14.388378-.393198-9.955961-.401813-9.815692-.307154-7.270476-.523251-11.945137-.537807-11.731863-.441032-9.233583-.450874-9.099916-.2292-4.500227-.466074-8.901774-.236931-4.401862-.239567-4.369389-.364356-6.493539-.37045-6.421357-.376643-6.349706-.382934-6.278585-.258833-4.146474-.526303-8.199456-.538012-8.075848-.549956-7.953498-.420445-5.885587-.427394-5.818002-.288837-3.841384-.439193-5.70654-.296795-3.767567-.451266-5.596551-.304934-3.694732-.43187-5.1082085zm-110.503266 778.1569345c3.68603-10.705007 13.658978-16.978061 22.275204-14.011256 8.616225 2.966804 12.612939 14.049998 8.926909 24.755005-3.68603 10.705008-13.658978 16.978061-22.275204 14.011256-8.616225-2.966804-12.612939-14.049997-8.926909-24.755005zm296.278266-751.727934.503973 6.096774.451952 5.655566.297213 3.806772.439762 5.765155.28918 3.880338.427853 5.876263.420842 5.943658.413932 6.011598.272166 4.045747.26917 4.076348.398203 6.172252.39163 6.242016.385157 6.312326.378787 6.383182.249035 4.29509.246278 4.326986.364315 6.55064.358279 6.62332.352347 6.696545.460741 9.043579.338896 6.869532.443173 9.276212.325994 7.045495.426338 9.512813.313644 7.224435.410236 9.753385.301842 7.406351.394869 9.997924.60511 15.953703.643825 17.740722.301398 8.683902.485453 14.632648.528453 16.932745.495013 16.787302.582878 20.718242.836934 30.972505 1.546185 58.996143.755945 29.383762.70912 28.106534.661768 26.845868.494966 20.580145.464053 19.792399.432871 19.013131.304026 13.753556.286221 13.323566.353731 17.102064.244229 12.334167.152723 7.990298.144607 7.805552.201618 11.364245.183166 10.954527.1646 10.548386.099363 6.80839.091027 6.630533.082658 6.453736.074254 6.277999.065817 6.103321.057346 5.929704.048841 5.757147.040303 5.585649.031731 5.415212.023125 5.245835c.003135.86025.00591 1.713487.008325 2.559732l.010152 4.993756.001463 4.827029-.007262 4.661361-.016019 4.496753-.024811 4.333206-.033636 4.170719-.042496 4.00929-.051388 3.848924-.060315 3.689615-.069275 3.531368c-.012295.575433-.024964 1.144316-.038008 1.706672l-.082779 3.295984c-.029099 1.072669-.059705 2.119406-.091824 3.140386l-.358561 11.357987-.197731 6.001278 117.862962-15.219168c8.101663-1.046059 14.53597-6.788615 16.765754-14.238986l-23.626599-704.858255c-.03271-.975457-.194827-1.918947-.470054-2.81261-.497215-1.221923-1.111106-2.385768-1.828455-3.476904-1.622786-2.051428-3.986137-3.481512-6.70395-3.867917zm-90.766618 729.146212c3.41632-9.921714 12.659541-15.735764 20.645311-12.986042 7.98577 2.749721 11.690041 13.021949 8.27372 22.943663-3.41632 9.921714-12.65954 15.735764-20.64531 12.986042-7.98577-2.749721-11.690041-13.021949-8.273721-22.943663zm175.348864-16.108963c3.056707-8.877323 11.326957-14.079367 18.47212-11.61909 7.145162 2.460276 10.45951 11.651217 7.402803 20.528541-3.056708 8.877323-11.326958 14.079367-18.472121 11.61909-7.145162-2.460277-10.45951-11.651218-7.402802-20.528541z"/></svg>