<?xml version="1.0" encoding="utf-8"?>
<!-- Generator: Adobe Illustrator 24.2.1, SVG Export Plug-In . SVG Version: 6.00 Build 0)  -->
<svg version="1.1" id="Layer_1" xmlns="http://www.w3.org/2000/svg" xmlns:xlink="http://www.w3.org/1999/xlink" x="0px" y="0px"
	 viewBox="0 0 379.3 500.1" style="enable-background:new 0 0 379.3 500.1;" xml:space="preserve">
<style type="text/css">
	.st0{fill:#020202;}
	.st1{fill:none;stroke:#000000;stroke-width:5;stroke-miterlimit:10;}
	.st2{stroke:#000000;stroke-width:5;stroke-miterlimit:10;}
	.st3{font-family:'ArialMT';}
	.st4{font-size:36px;}
</style>
<g>
	<path class="st0" d="M379.3,118.9v-5.7c0-4.7-3.8-8.5-8.5-8.5h-1.6V21c0-9.8-7.4-17.9-17.1-18.9H352h-0.1h-0.7l-25.4-2
		C325,0,324.3,0,323.5,0c-0.9,0-1.8,0-2.8,0.1h-0.1h-0.1L311.8,1h-0.1h-0.1c-1.8,0.2-3.7,0.8-5.2,1.8L27.8,42.1
		c-8.3,1.2-14.5,8.1-14.8,16.5L0,444.3c-0.3,8.9,6.1,16.5,15,17.7l281.6,36.4c0.7,0.1,1.4,0.1,2.2,0.1l28.3,1.5
		c1.1,0.1,2.3,0.1,3.4,0.1c2.8,0,5.7-0.2,8.4-0.7L352,497c9.8-1.4,17.2-9.9,17.2-19.8V395h3.3c3.8,0,6.8-3.1,6.8-6.8v-7.4l-10.1,0.6
		v-2l3.5-0.2c-0.4-0.9-0.5-1.9-0.5-2.6c0-0.9,0.2-1.8,0.5-2.6l-2.8,0.2h-0.7v-2l5.8-0.3h0.1l4.2-0.2v-14.3l-3.8,0.2l0,0l-5.2,0.3
		l-1.1,0.1v-2l3.5-0.2c-0.3-0.7-0.5-1.6-0.5-2.6c0-0.9,0.2-1.8,0.5-2.6l-3.5,0.2v-2l5.8-0.3c0.1,0,0.2,0,0.2,0l0,0l4.1-0.2v-13.4
		l-3.8,0.2l0,0l-5.6,0.3h-0.7v-2l3.6-0.2c-0.4-0.8-0.6-1.8-0.6-2.9c0-1,0.2-2.1,0.5-2.9l-3.2,0.2h-0.4v-2l10.1-0.6v-13.7l-10.1,0.6
		v-2l3.6-0.2c-0.5-1-0.6-2.1-0.6-2.9c0-1,0.2-2.1,0.5-3l-2.4,0.1l-1.1,0.1v-2l10.1-0.6v-5.7c0-4.7-3.8-8.5-8.5-8.5h-1.6v-74.6h3.3
		c3.8,0,6.8-3.1,6.8-6.8v-7.4l-10.1,0.6v-2l3.5-0.2c-0.4-0.9-0.5-1.9-0.5-2.6c0-0.9,0.2-1.8,0.5-2.6l-2.8,0.2h-0.7v-2l5.8-0.3h0.1
		l4.2-0.2V175l-3.8,0.2l0,0l-5.2,0.3l-1.1,0.1v-2l3.5-0.2c-0.3-0.7-0.5-1.6-0.5-2.6c0-0.9,0.2-1.8,0.5-2.6l-3.5,0.2v-2l5.8-0.3
		c0.1,0,0.2,0,0.2,0l0,0l4.1-0.2v-13.4l-3.8,0.2l0,0l-5.6,0.3h-0.7v-2l3.6-0.2c-0.4-0.8-0.6-1.8-0.6-2.9c0-1,0.2-2.1,0.5-2.9
		l-3.2,0.2H369v-2l10.1-0.6v-13.7l-10.1,0.6v-2l3.6-0.2c-0.5-1-0.6-2.1-0.6-2.9c0-1,0.2-2.1,0.5-3l-2.4,0.1l-1.1,0.1v-2L379.3,118.9
		z M350,490.6l-13.3,2.4c-3.4,0.6-6.9,0.8-10.3,0.5l-1.9-0.1c1.3-0.6,2.6-1.4,3.8-2.5c3.2-2.9,4.8-7.2,4.8-12.8l0,0l0.7-457.3
		c0-6.3-0.6-10.8-3.5-13.5l0,0l20.1,1.3c6.7,0.7,12.3,6.3,12.3,12.4v456.2C362.7,483.7,357,489.6,350,490.6z M328.3,9.5
		c2.1,1.9,2.5,5.8,2.5,11.3L330.1,478h1.5h-1.5c0,4.7-1.3,8.3-3.8,10.6c-3.8,3.5-9.2,3.2-9.3,3.2l-0.1,1l-5.3-0.4
		c0.3-0.2,0.6-0.4,0.8-0.7c1.1-0.9,2-2.1,2.7-3.3l0,0c0.3,0,0.5,0,0.8,0c2.7,0,5.3-1,7.3-2.8c2.2-2,3.4-4.9,3.4-7.8L326.5,142l0,0
		l3.4-123.2c0.1-3.8-1.4-7.3-4.2-9.8c-0.5-0.4-1-0.8-1.5-1.1C326,8.1,327.3,8.6,328.3,9.5z M323.6,246.1l0.2,231.7
		c0,2.2-0.9,4.1-2.5,5.6c-1.3,1.2-3,1.9-4.8,2c0.3-1,0.4-2,0.5-3L323.6,246.1z M309.4,9.8c0.5-0.1,0.9-0.1,1.4-0.1
		c2.4,0,4.7,0.9,6.5,2.5c2.1,1.9,3.3,4.7,3.2,7.5l-13,461.8c-0.1,2.7-1.3,5.3-3.4,7.1s-4.8,2.6-7.6,2.3L14.9,454.5
		c-5-0.6-8.6-4.9-8.5-10l13-385.7c0.2-4.7,3.7-8.6,8.4-9.3L309.4,9.8z M306,490.9c2.7-2.3,4.4-5.7,4.5-9.3l13-461.8
		c0.1-3.8-1.4-7.3-4.2-9.8c-0.5-0.5-1.1-0.9-1.6-1.2c2.3,0.1,4.4,0.9,6.1,2.5c2.1,1.9,3.3,4.7,3.2,7.5l-13,463.6
		c-0.1,2.7-1.3,5.3-3.4,7.1c-1.6,1.4-3.6,2.2-5.7,2.3C305.3,491.5,305.7,491.2,306,490.9z M350.5,8.1L350.5,8.1L350.5,8.1L350.5,8.1
		z"/>
	<line class="st1" x1="111" y1="37.8" x2="98.9" y2="469.1"/>
	<circle class="st2" cx="260.4" cy="459" r="3.3"/>
	<circle class="st2" cx="154.3" cy="445.7" r="3.3"/>
	<line class="st1" x1="218.4" y1="19.7" x2="205.4" y2="479.1"/>
	<circle class="st2" cx="51.4" cy="434.2" r="3.3"/>
</g>
<text transform="matrix(7.133956e-08 -1 1 7.133956e-08 360.7099 472.2008)" class="st3 st4">L</text>
</svg>
