<?xml version="1.0" encoding="utf-8"?>
<!-- Generator: Adobe Illustrator 24.2.1, SVG Export Plug-In . SVG Version: 6.00 Build 0)  -->
<svg version="1.1" id="Laag_1" xmlns="http://www.w3.org/2000/svg" xmlns:xlink="http://www.w3.org/1999/xlink" x="0px" y="0px"
	 viewBox="0 0 958 728" style="enable-background:new 0 0 958 728;" xml:space="preserve">
<desc>Created with Sketch.</desc>
<g id="measure_voc">
	<g id="measure_VOC" transform="translate(1.000000, 116.000000)">
		<path id="Path" d="M273.6,568.7h-35.1c-0.6-0.1-1.1-0.1-1.7-0.1c-109.1-3.5-194.5-91.8-194.5-201.1c0.1-85.5,54-161.6,134.6-189.9
			c7.2-2.5,12.5-8.6,14-16C219,25.8,340-72.7,478.8-72.7c138,0,258.9,97.9,287.5,232.7c1.6,7.6,7.1,13.7,14.5,16.1
			c66.4,21.6,117.5,77.2,133.5,145.1c1.8,7.5,7.4,13.5,14.8,15.8c7.4,2.2,15.4,0.3,21.1-5c5.6-5.3,8-13.2,6.2-20.7
			c-18.5-78.5-75.6-143.5-150.5-172.2C768.6-9.4,633-116,478.8-116c-155.1,0-291,107.3-327.6,257C59.2,178.6-0.9,268.1-1,367.5
			c0,131.9,102.6,238.8,233.9,244.3c1.1,0.2,2.1,0.2,3.2,0.2h37.5c11.9,0,21.6-9.7,21.6-21.6C295.2,578.4,285.5,568.7,273.6,568.7
			L273.6,568.7z"/>
		<path id="Path_1_" d="M511.5,393h-20.4c-3.8,0-7.2,2.3-8.7,5.7L428.1,523l-53.4-124.2c-1.5-3.5-4.9-5.8-8.8-5.8h-20.4
			c-3.2,0-6.2,1.6-8,4.3c-1.8,2.7-2.1,6.1-0.8,9l80.4,186.9c1.5,3.5,4.9,5.8,8.8,5.8h4.1c3.8,0,7.2-2.3,8.7-5.7l81.5-186.9
			c1.3-2.9,1-6.3-0.8-9C517.7,394.7,514.7,393,511.5,393L511.5,393z"/>
		<path id="Shape" d="M631.8,388c-38.3-0.1-73.7,20.5-92.5,54c-9.5,16.7-14.4,35.6-14.3,54.8c0,29.5,10.6,55,31.4,75.8
			s46.7,31.3,76.9,31.3c29.9,0,55.6-10.6,76.4-31.5c20.8-20.9,31.3-46.7,31.3-76.6c0-30.2-10.6-56-31.4-76.7
			C688.8,398.4,662.6,388,631.8,388z M668.2,557.3c-10.8,6.2-23.1,9.5-35.6,9.3c-19.3,0-35.3-6.6-49-20.2
			c-13.7-13.6-20.3-29.8-20.3-49.7c-0.2-12.7,3-25.2,9.2-36.2c12.4-21.6,35.2-34.9,60.1-35.2c25,0.2,48.1,13.4,60.9,35
			c6.1,10.9,9.3,23.2,9.1,35.6c0.2,12.6-3,25.1-9.1,36.1C687.6,542.6,678.8,551.4,668.2,557.3L668.2,557.3z"/>
		<path id="Path_2_" d="M934.5,538.3c-4-3.1-9.7-2.4-13,1.4c-15.9,18.5-35,27.5-58.6,27.5c-21.5,0-38.6-6.6-52.6-20.2
			s-20.6-30-20.6-50.4c0-13.3,3.1-25.5,9.2-36.1c6.2-10.7,15.2-19.4,26-25.4c11.2-6.3,23.9-9.6,36.8-9.5c11.6-0.1,23,2.4,33.5,7.3
			c10.2,5,19.1,12.3,25.9,21.4c1.5,2,3.8,3.3,6.3,3.7c2.5,0.3,5-0.4,7-1.9l14.8-11.4c4.1-3.1,4.9-9,1.9-13.2
			c-9.9-13.7-23-24.7-38.1-32.1c-15.3-7.5-32.7-11.4-51.5-11.4c-31.4,0-57.9,10.4-78.9,30.8c-21,20.4-31.7,46.1-31.7,76.1
			c0,28.3,8.8,52.9,26.1,73c20.7,23.9,49.2,36,84.7,36c18.5,0,35.6-3.6,50.8-10.6c15-6.9,28.2-17.3,38.4-30.4c1.6-2,2.3-4.6,2-7.1
			s-1.7-4.9-3.7-6.4L934.5,538.3z"/>
		<path id="Path_3_" d="M480,175c-12.2,0-22,9.8-22,22s9.8,22,22,22s22-9.8,22-22C502,184.9,492.1,175,480,175L480,175z"/>
		<path id="Path_4_" d="M480,297c-12.2,0-22,9.8-22,22s9.8,22,22,22s22-9.8,22-22C502,306.9,492.1,297,480,297L480,297z"/>
		<path id="Path_5_" d="M480,53c-12.2,0-22,9.8-22,22s9.8,22,22,22s22-9.8,22-22C502,62.9,492.1,53,480,53L480,53z"/>
		<path id="Path_6_" d="M385,236c-12.2,0-22,9.8-22,22s9.8,22,22,22s22-9.8,22-22C407,245.9,397.1,236,385,236L385,236z"/>
		<path id="Path_7_" d="M385,114c-12.2,0-22,9.8-22,22s9.8,22,22,22s22-9.8,22-22C407,123.9,397.1,114,385,114L385,114z"/>
		<path id="Path_8_" d="M290,175c-12.2,0-22,9.8-22,22s9.8,22,22,22s22-9.8,22-22C312,184.9,302.1,175,290,175L290,175z"/>
		<path id="Path_9_" d="M575,236c-12.2,0-22,9.8-22,22s9.8,22,22,22s22-9.8,22-22C597,245.9,587.1,236,575,236L575,236z"/>
		<path id="Path_10_" d="M575,114c-12.2,0-22,9.8-22,22s9.8,22,22,22s22-9.8,22-22C597,123.9,587.1,114,575,114L575,114z"/>
		<path id="Path_11_" d="M670,175c-12.2,0-22,9.8-22,22s9.8,22,22,22s22-9.8,22-22C692,184.9,682.1,175,670,175L670,175z"/>
	</g>
</g>
</svg>
