<?xml version="1.0" encoding="utf-8"?>
<!-- Generator: Adobe Illustrator 24.2.1, SVG Export Plug-In . SVG Version: 6.00 Build 0)  -->
<svg version="1.1" id="Layer_4" xmlns="http://www.w3.org/2000/svg" xmlns:xlink="http://www.w3.org/1999/xlink" x="0px" y="0px"
	 viewBox="0 0 992.1 753.5" style="enable-background:new 0 0 992.1 753.5;" xml:space="preserve">
<path d="M284.4,708.7h-36.3c-0.6-0.1-1.2-0.1-1.8-0.1c-113-3.6-201.5-95-201.5-208.1c0.1-88.5,55.9-167.3,139.4-196.6
	c7.4-2.6,12.9-8.9,14.5-16.6C227.8,146.8,353.2,44.8,496.8,44.8c142.9,0,268.2,101.3,297.8,240.9c1.7,7.8,7.4,14.2,15,16.6
	c68.7,22.4,121.7,79.9,138.3,150.2c2.8,12,14.9,19.5,26.9,16.7c12-2.8,19.5-14.9,16.7-26.9l0,0C972.4,361,913.2,293.8,835.6,264
	C797,110.3,656.5,0,496.8,0C336.2,0,195.5,111.1,157.6,266C62.4,304.9,0.1,397.5,0,500.4C0,637,106.2,747.5,242.3,753.2
	c1.1,0.2,2.2,0.2,3.3,0.2h38.8c12.4,0,22.4-10,22.4-22.4C306.8,718.7,296.7,708.7,284.4,708.7L284.4,708.7z"/>
<path d="M530.8,527.4h-21.1c-3.9,0-7.4,2.3-9,5.9l-56.2,128.8l-55.2-128.7c-1.5-3.6-5.1-6-9.1-6h-21.1c-5.5,0-9.9,4.4-9.9,9.9
	c0,1.3,0.3,2.7,0.8,3.9L433.2,735c1.5,3.6,5.1,6,9.1,6h4.2c3.9,0,7.4-2.3,9-5.9l84.3-193.8c2.2-5-0.1-10.8-5.1-13
	C533.5,527.7,532.1,527.5,530.8,527.4L530.8,527.4z"/>
<path d="M655.6,522.6c-39.7-0.1-76.4,21.2-95.9,55.8c-9.8,17.3-14.9,36.8-14.8,56.7c0,30.5,11,56.9,32.6,78.4s48.4,32.4,79.7,32.4
	c31,0,57.6-11,79.2-32.5s32.5-48.2,32.5-79.2c0-31.2-11-57.9-32.6-79.3S687.5,522.6,655.6,522.6z M693.3,697.6
	c-11.2,6.4-23.9,9.8-36.9,9.6c-20,0-36.6-6.8-50.8-20.9s-21-30.8-21-51.3c-0.2-13.1,3.1-26,9.5-37.4c12.9-22.3,36.5-36.1,62.3-36.4
	c25.9,0.2,49.9,13.9,63.2,36.1c6.4,11.2,9.6,23.9,9.4,36.8c0.2,13.1-3.1,25.9-9.5,37.3C713.4,682.4,704.3,691.5,693.3,697.6
	L693.3,697.6z"/>
<path d="M968.9,677.9c-4.2-3.2-10.1-2.5-13.4,1.4c-16.4,19.1-36.3,28.4-60.6,28.4c-22.2,0-40-6.8-54.4-20.9s-21.3-31-21.3-52.1
	c0-13.8,3.2-26.3,9.5-37.3c6.4-11,15.7-20.1,26.9-26.2c11.6-6.5,24.8-9.9,38.1-9.9c12-0.1,23.8,2.4,34.7,7.5
	c10.6,5.1,19.7,12.7,26.8,22.1c3.3,4.3,9.5,5.1,13.8,1.8c0,0,0,0,0,0l15.3-11.7c4.2-3.3,5.1-9.3,2-13.6
	c-10.2-14.2-23.8-25.6-39.5-33.2c-15.9-7.8-33.8-11.8-53.3-11.8c-32.5,0-59.9,10.7-81.6,31.8S779,602.1,779,633.1
	c0,29.3,9.1,54.7,27,75.5c21.5,24.7,51,37.3,87.7,37.3c19.2,0,36.9-3.7,52.6-11c15.6-7.2,29.2-17.9,39.8-31.4
	c3.4-4.3,2.6-10.5-1.6-13.9c-0.1,0-0.1-0.1-0.2-0.1L968.9,677.9z"/>
<path d="M498,301.6c-12.5,0-22.6,10.1-22.6,22.6s10.1,22.6,22.6,22.6c12.5,0,22.6-10.1,22.6-22.6C520.6,311.7,510.5,301.6,498,301.6
	z"/>
<path d="M498,428.1c-12.5,0-22.6,10.1-22.6,22.6s10.1,22.6,22.6,22.6c12.5,0,22.6-10.1,22.6-22.6C520.6,438.3,510.5,428.2,498,428.1
	z"/>
<path d="M498,175c-12.5,0-22.6,10.1-22.6,22.6c0,12.5,10.1,22.6,22.6,22.6c12.5,0,22.6-10.1,22.6-22.6
	C520.6,185.1,510.5,175,498,175z"/>
<path d="M399.7,364.9c-12.5,0-22.6,10.1-22.6,22.6s10.1,22.6,22.6,22.6c12.5,0,22.6-10.1,22.6-22.6
	C422.4,375,412.2,364.9,399.7,364.9z"/>
<path d="M399.7,238.2c-12.5,0-22.6,10.1-22.6,22.6c0,12.5,10.1,22.6,22.6,22.6c12.5,0,22.6-10.1,22.6-22.6
	C422.4,248.4,412.2,238.3,399.7,238.2z"/>
<path d="M301.5,301.6c-12.5,0-22.6,10.1-22.6,22.6s10.1,22.6,22.6,22.6s22.6-10.1,22.6-22.6C324.1,311.7,314,301.6,301.5,301.6z"/>
<path d="M596.2,364.9c-12.5,0-22.6,10.1-22.6,22.6s10.1,22.6,22.6,22.6c12.5,0,22.6-10.1,22.6-22.6
	C618.8,375,608.7,364.9,596.2,364.9z"/>
<path d="M596.2,238.2c-12.5,0-22.6,10.1-22.6,22.6c0,12.5,10.1,22.6,22.6,22.6c12.5,0,22.6-10.1,22.6-22.6
	C618.8,248.4,608.7,238.3,596.2,238.2z"/>
<path d="M694.4,301.6c-12.5,0-22.6,10.1-22.6,22.6s10.1,22.6,22.6,22.6c12.5,0,22.6-10.1,22.6-22.6
	C717,311.7,706.9,301.6,694.4,301.6z"/>
</svg>
