<?xml version="1.0" encoding="utf-8"?>
<!-- Generator: Adobe Illustrator 24.2.1, SVG Export Plug-In . SVG Version: 6.00 Build 0)  -->
<svg version="1.1" id="Laag_1" xmlns="http://www.w3.org/2000/svg" xmlns:xlink="http://www.w3.org/1999/xlink" x="0px" y="0px"
	 viewBox="0 0 827.12 827.13" style="enable-background:new 0 0 827.12 827.13;" xml:space="preserve">
<path d="M771.6,206.59c114.3,197.76,46.66,450.75-151.07,565.02c-197.78,114.3-450.76,46.65-565.03-151.09
	C-58.79,422.73,8.85,169.79,206.6,55.51C404.39-58.79,657.31,8.84,771.6,206.59z M467.65,794.95
	c116.21-13.13,250.51-95.65,306.78-244.46c20.63-54.56,28.67-111,23.82-169.13c-4.84-58.09-22.09-112.24-52.58-164.44
	c-5.86,63.74-56.66,97.42-104.66,93.49c-49.73-4.07-88.37-45.1-88.87-95.08c-0.25-24.55,7.73-46.3,23.98-64.69
	c22.19-25.1,50.65-35,86.2-32.41c-70.23-56.86-147.88-86.46-237.95-90.39c16.38,15.01,25.24,31.54,25.9,51.82
	c0.66,20.32-6.28,37.8-20.74,52c-23.95,23.53-61.44,26.12-88.47,6.39c-13.22-9.65-22.18-22.35-26.21-38.26
	c-5.7-22.52-0.6-42.97,13.48-61.83c-87.91,8.76-221.29,110.24-253.99,192.63c35.57,0.72,55.07,12.79,63.15,39.08
	c6.79,22.05-1.77,47.42-20.37,60.42c-10.19,7.11-21.42,10.87-33.92,10.53c-17.63-0.49-31.54-8.65-43.14-21.94
	c-55.19,201.67,73.22,408.18,251.92,459.7c-17.97-21.69-26.78-46.41-28.79-73.59c-24.8-0.06-39.4-8.3-46.48-25.94
	c-6.17-15.39-2.57-34.11,9.96-45.14c17.72-15.59,36.73-15.13,55.68-2.06C331,562.7,415.5,562.64,465.75,603.39
	C518.63,646.27,532.45,739.18,467.65,794.95z M471.54,651.71c-26.51-46.45-85.03-62.6-131.26-36.73
	c-45.91,25.69-62.69,86.66-36.56,132.07c26.43,45.94,85.68,62.27,131.54,36.01C481.55,756.56,497.8,697.73,471.54,651.71z
	 M683.13,273.78c32.87-19.01,44.16-61.27,25.14-94.16c-19.02-32.89-61.27-44.15-94.18-25.09c-32.94,19.07-44.14,61.15-25.07,94.14
	C608.09,281.63,650.15,292.85,683.13,273.78z M417.13,61.36c-11.57-19.88-36.94-26.56-56.83-14.97
	c-19.36,11.28-26.05,36.69-14.81,56.22c11.42,19.83,37.07,26.59,56.82,14.98C421.69,106.18,428.4,80.73,417.13,61.36z
	 M108.35,270.98c-7.69-12.95-24.53-17.29-37.56-9.69c-12.9,7.53-17.44,24.56-9.98,37.52c7.68,13.34,24.99,17.8,38.16,9.83
	C111.81,300.86,116.03,283.91,108.35,270.98z M262.05,676.08c5.55-2.98,8.55-13.17,5.55-18.84c-3.44-6.48-12.02-8.96-18.53-5.35
	c-6.53,3.63-9.03,12.01-5.53,18.54C247.05,676.95,255.57,679.55,262.05,676.08z"/>
<path d="M286.14,145.23c61.36,8.57,98.51,57.84,98.52,110.02c0.02,51.77-36.38,96.82-87.11,107.72
	c-50.37,10.83-102.44-15.31-123.48-61.52c-19.83-43.56-12.64-106.29,46.45-143.27c-9.71-9.81-15.93-21.59-13.19-35.32
	c1.66-8.36,5.34-17.25,10.71-23.74c12.08-14.59,32.88-17.45,49.42-8.68C286.33,100.45,292.49,118.16,286.14,145.23z M346.11,214.06
	c-22.05-38.89-72.66-53.22-111.35-31.53c-40.53,22.73-55.08,73.12-32.62,112.97c22.45,39.81,73.1,54.14,112.56,31.86
	C354.89,304.67,368.88,254.22,346.11,214.06z M259.86,119.91c-3.78-6.31-12.29-8.46-18.67-4.7c-6.43,3.78-8.7,12.16-5.03,18.58
	c3.85,6.73,12.77,8.99,19.27,4.89C261.7,134.74,263.69,126.3,259.86,119.91z"/>
<path d="M543.12,307.06c22.77,39.31,9.04,90.24-30.45,112.95c-39.57,22.76-90.16,9.13-112.95-30.43
	c-22.75-39.49-9.07-90.29,30.41-112.96C469.72,253.89,520.2,267.5,543.12,307.06z M423.28,375.12
	c15.16,26.73,48.66,36.22,75.15,21.28c26.53-14.96,35.97-48.91,20.94-75.28c-14.95-26.22-48.52-35.69-74.57-21.04
	C417.95,315.18,408.32,348.76,423.28,375.12z"/>
<path d="M210.1,419.59c22.84,39.58,9.28,90.21-30.26,112.97c-39.63,22.81-90.09,9.29-112.97-30.26
	c-22.85-39.5-9.3-90.06,30.26-112.96C136.63,366.47,187.26,380.03,210.1,419.59z M186.37,433.65c-15.14-26.48-49-35.67-75.39-20.48
	c-26.05,14.99-35.34,48.65-20.63,74.71c14.99,26.55,48.88,36.05,75.23,21.08C192.11,493.91,201.46,460.02,186.37,433.65z"/>
<path d="M756.97,374.25c22.92,39.57,9.51,90.13-29.99,113.04c-39.15,22.71-90.11,9.48-112.62-29.26
	c-23.54-40.51-10.18-90.85,30.32-114.21C683.61,321.38,734.3,335.11,756.97,374.25z M712.55,463.78
	c26.59-15.24,35.83-48.73,20.79-75.32c-14.77-26.11-48.64-35.6-74.63-20.91c-27.04,15.28-36.35,49.02-20.95,75.88
	C652.65,469.4,686.62,478.65,712.55,463.78z"/>
<path d="M377.75,434.28c19,33.01,7.71,75.05-25.27,94.13c-32.87,19.01-75.12,7.67-94.13-25.28c-19-32.95-7.68-75.12,25.28-94.12
	C316.6,389.99,358.77,401.32,377.75,434.28z M282.25,489.33c11.18,19.51,36.63,26.5,56.07,15.39
	c20.02-11.44,26.98-36.82,15.54-56.66c-11.45-19.85-36.95-26.57-56.81-14.96C277.66,444.45,271.01,469.71,282.25,489.33z"/>
<path d="M503.01,457.44c33.01-18.9,75.05-7.39,93.99,25.74c18.86,32.97,7.32,75.11-25.75,94.02c-33.02,18.89-75.05,7.37-94-25.75
	C458.39,518.47,469.92,476.38,503.01,457.44z M557.89,553.02c19.46-11.17,26.36-36.68,15.16-56.07
	c-11.56-20.01-36.84-26.87-56.69-15.36c-19.44,11.27-26.29,36.59-15.19,56.12C512.51,557.63,537.9,564.48,557.89,553.02z"/>
<path d="M643.76,646.87c15.19,26.39,5.96,60.33-20.5,75.38c-26.53,15.09-60.1,5.82-75.28-20.8c-15.06-26.39-5.65-59.95,21.07-75.19
	C595.02,611.46,628.72,620.75,643.76,646.87z M619.75,660.47c-7.57-12.98-24.45-17.48-37.49-10c-13.05,7.49-17.67,24.32-10.29,37.41
	c7.56,13.4,24.86,18.01,38.08,10.16C622.97,690.36,627.33,673.47,619.75,660.47z"/>
<path d="M560.91,89.85c11.27,19.59,4.6,44.76-14.89,56.19c-19.76,11.58-45.58,4.74-56.8-15.05c-11.35-20.02-4.39-45.24,15.64-56.66
	C524.29,63.26,549.66,70.28,560.91,89.85z M536.86,103.42c-3.86-6.39-12.2-8.6-18.62-4.94c-6.72,3.84-8.97,12.81-4.82,19.28
	c3.94,6.13,12.61,8.14,18.84,4.35C538.54,118.29,540.65,109.71,536.86,103.42z"/>
</svg>
