<?xml version="1.0" encoding="utf-8"?>
<!-- Generator: Adobe Illustrator 21.1.0, SVG Export Plug-In . SVG Version: 6.00 Build 0)  -->
<svg version="1.1" id="Laag_1" xmlns="http://www.w3.org/2000/svg" xmlns:xlink="http://www.w3.org/1999/xlink" x="0px" y="0px"
	 viewBox="0 0 977.6 558.5" style="enable-background:new 0 0 977.6 558.5;" xml:space="preserve">
<style type="text/css">
	.st0{fill:#1CAAEB;}
</style>
<g id="_x23_aaa7acff">
	<path d="M214.3,0.1c4.3-0.7,8.3,1.6,12,3.5c8.6,4.8,17.8,8,26.6,12.4c9.2,4,17.9,8.9,27,13.1c18.2,8.7,35.9,18.3,54.3,26.6
		c3.7,1.9,7.8,4.2,9.3,8.4c2.8,8,0.9,16.6-0.6,24.7c-1.9,10.7-5.8,20.9-8.7,31.3c-2.6,9.2-6.3,18.1-9.1,27.2
		c7.4,7.8,17.3,12.6,26.3,18.2c10.5,6.7,21.9,11.9,33.4,16.7c7.9,3.1,16.3,4.9,23.7,9.3c14.3,8.4,28.8,16.4,43,25
		c19.7,11,40.6,19.4,61.7,27.4c4.8,2,10.3,1.4,14.4-1.6c11.4-7.7,19.2-19.7,31-27c7.1-3.9,15.8-4.4,23.6-2.4
		c14.3,3.7,27.1,11.5,41.2,15.8c10.1,3.6,20.6,5.4,31,8c9.2,2.2,18.6,3.5,27.6,6.5c9.9,3.2,19.4,7.5,28.6,12.3
		c7.1,3.7,13.2,8.8,19.8,13.2c9.8,6.5,19.4,13.4,29.5,19.5c8.1,4.8,15.9,10.3,24.1,14.9c10.7,5.9,21,12.4,31.8,18.2
		c15.9,9,32.5,16.7,48.5,25.4c25.5,13.8,51.8,26.2,77.6,39.5c11.9,5.7,23.8,11.2,35.8,16.6v4.7c-9.3-4.6-18.9-8.6-28.3-13.1
		c-15.1-7-29.9-14.6-44.7-22.2c-15.4-7.5-30.6-15.1-45.6-23.4c-35.6-18.5-71.3-37.1-105-59c-14.3-9.7-28.5-19.6-43-29
		c-16.5-9.9-35.2-15.3-54-19.1c-16.9-3.4-33.6-8.1-49.7-14.3c-12.3-5-24.6-12.7-38.4-11.3c-8.6,0.5-14.4,7.6-20.5,12.8
		c-8,7-14.3,16.7-25,20c-7.4,2.5-14.4-2-21-4.6c-16.5-6.4-32.8-13.3-48.5-21.5c-17-9.5-33.4-20.2-50.7-29.3
		c-7.9-4-16.6-6.1-24.8-9.3c-6.8-2.6-13.1-5.9-19.4-9.5c-7.8-4.5-15.8-8.6-23.3-13.7c-7.1-4.9-14.6-9.3-21.6-14.4
		c-6.1-4.2-11.6-9.1-18.2-12.5c-4.3,3.1-8.7,6.9-14.3,7c-7.6,0.5-14.6-3-20.6-7.3c-5.2-3.6-8.9-8.9-13.6-13.1
		c-2.9,15.5,6.1,29.7,14.7,41.8c5,7.2,9.9,14.7,16.6,20.4c5.3,4.4,10.2,9.2,15.5,13.6c8.3,7,18,12.5,25.3,20.7
		c11.1,12.1,23.8,22.6,37.4,31.7c8.7,5.9,17.9,10.8,27.1,15.9c17.3,9.8,35.5,17.8,53.1,27c3.9,2.1,8.1,3.7,12.3,5.1
		c-1.4-4.5-2.7-9-3.8-13.5c1.7,0.1,3.4,0.2,5.1,0.4c5,14.4,14.1,26.9,23.4,38.8c8.4,11.2,19.8,19.5,29.2,29.8
		c9.9,10.4,18.9,21.9,25,35c2.2,4.6,4.8,9.1,7.2,13.7c3.9,6.9,5.8,14.9,11,21.1c5.4-8.4,2.7-18.7,6-27.6c1.3,3.8,1.5,7.8,1,11.7
		c-1.1,9-1.8,18.5-6.8,26.2c-6.2,10.3-17.3,16.9-29,18.8c-14.4,2.1-28.9-0.4-43.3-2.1c-8.5-1.3-16.7,1.4-24.9,3
		c0.1-1.2,0.2-2.5,0.3-3.7c9.9-4.7,21.1-3,31.7-3.2c-7.4-7.4-16.6-12.5-25.8-17.4c-9.1-4.5-19.4-8.5-29.8-6.4
		c-9.7,2-20.2,3.8-27.9,10.6c4.7,4.8,10.2,9,13.7,14.8c3,5,6.4,9.7,8.9,15c2.9,6.1,0.6,12.9,1.7,19.3c0.8,5.2,2.6,10.2,3.7,15.3
		c1.5,5.8,2.5,11.8,4.8,17.4c2,4.7,7,7,11.5,8.6c9.4,3.1,19.4,3.7,29.2,4c23.7,0.1,47.4,0,71,0c11.2,0.4,22.3,2.2,33.4,3.6
		c12.9,2.6,26.1,3.5,39,6c30.7,4.7,61.5,10.2,92.6,10.6c20.4-0.2,40.7-2.5,60.9-5.2c13.9-1.4,27.8-2.8,41.7-4.3
		c43-4.5,86.2,1.4,128.3,9.4c13.2,1.8,26.2,4.9,39.1,8.1v3.9c-4.8-1.1-9.7-1.9-14.5-3c-13.6-3.4-27.6-4.7-41.2-7.7
		c-16.1-2.6-32.2-5.4-48.5-6.4c-10.6-0.7-21.2-2.8-31.9-2c-10.3,0.7-20.7,1.1-31,1.9c-7.5,0.5-14.8,1.8-22.2,2.6
		c-20.9,2-41.7,5.5-62.8,6.2c-11.2-0.1-22.4,1.7-33.7,0.6c-11.1-1-22.2-2.4-33.4-3.5c-8.4-0.8-16.6-3.2-24.9-4.2
		c-12.8-1.5-25.5-4-38.3-5.7c-16.7-2.2-33.2-6-50.1-6.7c-20.6-1.2-41.2-0.5-61.8-0.2c-15.6-0.7-31.9,0.8-46.6-5.6
		c-4.1-1.6-7.2-5-8.8-9c-5.1-11.6-6.2-24.5-10.8-36.2c-1.7-4.3-4.7-7.9-7.7-11.4c-4.8-5.5-8.1-12-11.4-18.5
		c-2.6-5.4-4.8-11.6-3.5-17.6c0.7-3.4,3.4-5.9,6.4-7.5c8.2-4.7,17.8-5.5,26.7-8.4c-2.2-4.6-4.9-9-7.9-13.1
		c-5.3-7.5-8.8-16.1-10.9-25c-1.3-5.8-1.9-12.2,1.1-17.6c8.6-16.2,21.7-29.5,34.5-42.5c3.9-3.9,7.1-8.3,9.2-13.4
		c-8.2-4-16.5-7.7-24.4-12.1c-20.7-10.5-41.7-20.6-61.9-32.1c-9.6-5.9-19.1-11.9-27.8-19.1c-9.7-7.5-17.9-16.7-26.6-25.4
		c-2.6-2.7-5.8-4.5-9.1-6.1c-5.6,14.5-9.3,29.8-15.9,43.9c-7.4,16.8-17.4,32.5-30.5,45.4c-5.3,5.4-12.5,8.7-20,9.8
		c-10.4,1.5-21.1,1.4-31.5,2.5c-13.4,1.5-26.9,1.8-40.3,2.8c-11,0.7-22,1.8-33,1.9c-9.4,0.1-19.4,2.7-28.4-1.5
		c-13-5.9-26.3-11.1-39.6-16.5c-18.9-8.3-37.9-16.2-57.1-23.9c-3-1.3-6.2-3.3-6.9-6.8c-1.9-8.8,0.4-17.7,3.1-26.1
		c3.3-10.2,5.4-20.8,10.7-30.2c5.3-9.3,7.3-20,11.4-29.8c5.1-12.2,9.6-24.6,14-37c4.9-11.8,9.3-23.9,14.4-35.6
		c5.4-14.5,13.2-28,22.4-40.4c9.2-11.9,24-16.4,36.8-23.1c16.1-7.4,32.2-15,48.2-22.7c13.3-5.7,26.4-11.8,39.6-17.6
		C205.4,3,209.6,0.9,214.3,0.1 M194.2,12.8c-32.7,14.1-64.5,30.4-97,45c-17.5,8.1-28.6,25.3-35.8,42.5c-3.8,7.8-7.1,15.8-9.8,24.1
		c-2.7,8.5-7.5,16.1-10.3,24.5c-4.4,13.1-9.8,25.8-14,39c-6.6,20.4-17.3,39.6-20.2,61c-0.8,6.2-3.5,13.2-0.1,19.1
		c2.9,3.9,8.3,1.2,12.1,0.7c22.8-3.7,45.8-6.7,68.6-10.4c14.2-2.9,30.3-2.3,42.1-12c5.9-5.1,12.1-10.4,15.5-17.6
		c1.7-3.5,3.3-7,5.7-10.1c4.6-6,6.8-13.4,10.2-20c3.2-5.9,4.1-12.7,7.3-18.6c1.9-3.6,3.6-7.4,4.7-11.3c4.6-15.6,11.1-30.5,16-46
		c2.5-6.9,5.4-13.6,7.2-20.7c1.2-4.5,2.7-9,4.9-13.1c3.4-6.2,4.8-13.3,7.2-19.9c6.4-17.3,12.6-34.9,14.6-53.4
		c0.6-3.7-0.8-7.2-2.5-10.4C211,3.3,202.5,9,194.2,12.8 M226.2,8.9c-0.8,8.3-1.1,16.8-3.3,24.9c-4.5,18.1-11.4,35.5-17.6,53.1
		c-2.2,9.2-6.1,17.8-9.7,26.4c-8.1,23.8-17.2,47.2-25.1,71.1c-2.9,5.6-5.1,11.6-7.3,17.6c-5.3,11.3-10.5,22.8-18.1,32.7
		c-4.8,6.7-9.7,13.8-17,18c-7.5,5-16.5,6.6-25.3,7.6c-19.3,3.1-38.7,5.5-58,9c-8.4,1.6-17.1,1.9-25.4,4.2c5.8,3.9,12.5,5.7,18.9,8.3
		c7.6,2.9,14.8,6.7,22.3,9.6c7.4,3,14.7,7.4,22.9,7.4c10.8,0.1,21.4-1.6,32.1-2.4c17.4-2,34.8-3.3,52.2-4.7
		c9.9-1.5,19.9-1.6,29.8-3.3c11.6-1.9,21.5-9.7,28.2-19c9.8-13.2,17.6-28,22.5-43.7c4.3-13.1,9.9-25.8,14.1-38.9
		c1.1-3.4,2.6-6.8,2.8-10.4c-0.4-3.5-2.6-6.3-4.6-9.1c-3.5-4.5-6.7-9.3-10.7-13.4c-3.4,1.8-6.6,4-10.3,4.9
		c-5.5,0.9-11.5-0.1-15.8-3.8c-4.5-3.7-6.8-9.4-8.1-14.9c-2-8.5,2.4-17.6,9.4-22.5c5.3-3.4,11.6-1.5,17.4-1.8
		c3.2-2.3,5.1-6.3,8.9-7.8c4-1.3,8.3-0.8,12.3,0.3c7.6,2.1,13.6,7.6,20.9,10.2c4.2-7.6,6.3-16.1,9.3-24.2c1.5-4,2.8-8.1,3.8-12.2
		c2.1-8.7,5-17.4,4.6-26.5c-0.2-4.2-0.5-9.1-4.1-11.9c-3.8-2.9-8.3-4.5-12.5-6.6c-15.5-7.9-31.2-15.5-47-23
		C234.7,12,230.6,9.9,226.2,8.9 M308.6,49.8c-0.6,5.2-0.3,10.4-0.9,15.6c-2.4,13.9-7.5,27.1-11.4,40.5c-1.3,3.6,1.8,6.6,2.9,9.8
		c2.3,4.5-0.6,9.4,0,14c2.7,3.4,6.6,5.5,9.9,8.2c3.2,2.6,6.6,5,10.5,6.5c4.2-6.8,5.9-14.7,8.3-22.2c2.2-7.1,3.8-14.3,6.1-21.3
		c1.8-5.2,2.6-10.7,3.5-16.1c1.3-6.7,2.5-14-0.8-20.4c-1.5-3.6-5.4-5.1-8.8-6.6C321.3,55.3,315.5,51,308.6,49.8 M250,113.1
		c5.4,10.8,14.5,20.2,26.2,23.8c5.5,1.7,11-0.9,15.7-3.6c-1.3-3.5-3.9-6.2-7-8.1c-8.9-5.5-17.6-12.3-28.3-13.8
		C254.2,110.7,252,111.9,250,113.1 M222.3,130c-1.8,6.7-1.3,14.8,3.8,20c2.7,2.9,6.5,5.4,10.5,4.5c4.3-0.8,8.7-2.7,11.3-6.3
		c-0.2-5.3-5.4-8.8-6.2-14c-0.4-4,0.1-8.1,0.3-12.1c-2.6-0.9-5.5-1.5-8.2-0.7C229,122.3,223.6,124.8,222.3,130 M272.6,200.4
		c-2.7,4.4-8.9,4.1-12.1,7.9c-2.5,5.8-4.9,11.6-6.9,17.5c-1.9,6.8-5.4,12.9-8.5,19.2c-2.7,5.3-4.8,10.9-7.9,16
		c-6.9,11.3-15.7,22-27.4,28.6c-6.5,3.5-14,4.1-21.3,4.8c-5.3,0.4-10.6,1.4-16,1.6c-8.7,0.3-17.2,2.2-25.9,2.5
		c-9.7,1-19.5,1.2-29.1,2.8c-8.2,1.3-16.7,0.4-24.8,3c5.7,3.2,11.7,6.2,18.2,7.8c8.8,1.5,17.8,0.1,26.6-0.4
		c12.7-0.5,25.3-2,37.9-2.8c17.7-1,35.4-2.4,53.1-3.3c5.2-0.1,10.4-1,15.2-3c11.6-4.5,19.6-14.7,26.3-24.8c6.2-8.8,9.5-19.2,14-28.9
		c4.1-10.5,7.7-21.2,11.3-31.9c1.1-3.4,2.8-6.8,2.8-10.5c-1.7-2.6-4.3-4.3-6.6-6.2c-4.8-3.6-8.9-7.9-13.9-11.2
		C275.9,192.8,274.8,196.8,272.6,200.4 M446.3,321.9c-11.3,12.9-24.4,24.6-31.8,40.3c-3.5,7.8-0.7,16.4,2.2,23.9
		c3.1,8.7,7.5,16.9,12.4,24.7c1.5,2.1,3,4.6,5.7,5.4c4.9,1.5,10.1,2.2,14.9,4.2c11.6,4.6,22.3,11.2,31.9,19c3.6,2.8,6.6,7,11.5,7.6
		c6.3,0.9,12.7,0.8,19,0.4c-0.5-8.7-4.3-16.8-7.9-24.6c-5.2-9.1-9.8-18.6-15.5-27.5c-0.7-0.8-1.5-2.4-2.9-1.9
		c-4.7,0.9-9.2,2.6-14.1,2.7c-8.6,0.5-16.8-2.3-24.8-5.2c0.1-1.1,0.2-2.2,0.3-3.3c3.5,0.2,6.9,0.9,10.2,2c9.5,2.8,20.1,3,29.2-1.2
		c8.4-4.4,14.5-12.1,18.7-20.5c0.9-2.1,2.4-4.8,0.8-6.9c-3.8-5.8-9.7-9.8-14.6-14.5c-10.6-10.4-21.1-21-29.9-33.1
		c-1.4-1.3-2.5-3.9-4.7-3.1C452.8,313.6,449.9,318.1,446.3,321.9 M502,380.7c-3.2,4-7.4,7.1-11,10.7c1.8,6.4,5.4,12,9,17.5
		c4.5,6.7,7.8,14.1,11.7,21.2c3,5.2,4.2,11.1,5.9,16.7c8.5-1.5,17-5.1,22.5-11.9c1.9-2.4,5-5.4,3.5-8.7c-1.9-4-4.4-7.7-6.2-11.7
		c-4.1-9.4-9.6-18.2-13.3-27.8c-3.9-6.7-8.1-13.1-12.7-19.3C507,370.9,505.5,376.5,502,380.7 M398.8,442.9
		c2.4,7.1,6.8,13.3,10.8,19.6c2.1,3,4.2,6.7,8.2,7.3c0.1-3.5-0.7-7-2.6-10c-4.6-7.6-9.4-15.3-16.2-21.1
		C399.3,440.1,398.3,441.5,398.8,442.9z"/>
	<path d="M143.4,131c1-1.5,3.6-3.7,5-1.5c-0.1,3.8-1.9,7.5-5.5,9.1C142.4,136.1,141.4,133.2,143.4,131z"/>
</g>
<g id="_x23_1caaebff">
	<path class="st0" d="M478.2,89.9c6.8-3.5,13.2-7.8,20-11.4c0,4.8,0,9.7,0.5,14.5c11.3,1.6,22.6-0.3,34,0.4c8.3,0.5,16.7-0.2,25,0.2
		c7.2,0.3,14.4-0.1,21.6,0.1c0,6.5,0,12.9-0.1,19.4c-12.2,1.2-24.3-0.5-36.5,0c-14.9,0.4-29.8-0.6-44.6,0.5c0,4.6-0.1,9.3-0.3,13.9
		c-7-3.1-13.1-7.8-19.9-11.3c-6.4-3.2-12.4-7.1-18.7-10.6c-1.1-0.8-2.8-1.3-3.1-2.8C463.1,98,470.8,94.2,478.2,89.9z"/>
	<path class="st0" d="M222.3,130c1.3-5.2,6.8-7.6,11.5-8.7c2.8-0.8,5.6-0.2,8.2,0.7c-0.2,4-0.7,8.1-0.3,12.1c0.8,5.2,6,8.7,6.2,14
		c-2.6,3.6-7,5.4-11.3,6.3c-4.1,0.9-7.9-1.6-10.5-4.5C221,144.7,220.5,136.6,222.3,130z"/>
</g>
</svg>
