<?xml version="1.0" encoding="utf-8"?>
<!-- Generator: Adobe Illustrator 21.1.0, SVG Export Plug-In . SVG Version: 6.00 Build 0)  -->
<svg version="1.1" id="Laag_1" xmlns="http://www.w3.org/2000/svg" xmlns:xlink="http://www.w3.org/1999/xlink" x="0px" y="0px"
	 viewBox="0 0 1506 930" style="enable-background:new 0 0 1506 930;" xml:space="preserve">
<style type="text/css">
	.st0{fill:#FFFFFF;}
	.st1{fill:#0066FF;}
</style>
<g id="_x23_ffffffff">
	<path class="st0" d="M300.2,16.5c5.4,0,10.8,0,16.2,0.9c8.6,1.6,17.4,2.3,25.5,5.6c6.5,2.7,13.6,4.4,19.2,8.9
		c4.9,3.8,10.7,6.5,14.8,11.3c8.1,9.1,14.4,19.5,19.6,30.5c2.3,4.8,3.2,10.2,5,15.2c3.4,9.5,4,19.6,6.3,29.4
		c0.9,10.2,3,20.4,2.7,30.8c-0.2,8.8,1.1,17.5,0.7,26.2c-0.5,12.6,0.5,25.2,0.1,37.8c-1.1,12.2-0.7,24.5-0.5,36.8
		c-0.4,8.4,0.6,16.8,0.2,25.1c-0.1,5.7,0.6,11.4,0,17c-0.9,9.2,0,18.5-0.1,27.8c0,5.2-0.5,10.5-0.1,15.7c0.6,6.2-0.6,12.3-0.3,18.5
		c0.5,12.3-0.5,24.7,0.3,37c0,9-0.7,18-0.5,27c0.3,8.1-2,16.1-2.2,24.2c-1.9,22.9-6.1,46.2-17.6,66.3c-2.7,4.8-6.1,9.2-9.4,13.7
		c-5.8,7.6-14.9,11.1-22.2,16.9c-11.6,6.7-25,10-38.4,10.8c-9.2,1.3-18.4,0-27.6-0.6c-12.1,0.1-24-1.9-36-3c-12.1-0.4-24-3-36-4
		c-5-0.5-9.9-1.7-15-2.2c-10.2-1-20.5-1.4-30.6-3.2c-9.5-1.7-19.2-1-28.6-3.2c-11.5-1-23.2-1.3-34.5-4.1c-7.3-2.3-15-3.6-22-6.8
		C77,517.2,64.8,510.5,56,500c-4.6-5.9-9.4-11.8-12.6-18.6c-1.8-3.6-2.8-7.6-4.8-11.2c-6-9.1-6.9-20.4-8.9-31
		c-2-8.5-2.5-17.3-3.8-25.9c-0.4-6.5-1.6-13.1-1-19.6c0.4-5.6-0.8-11.1-1-16.7c-0.4-8.8,0.3-17.5,0.7-26.3c0-6.4-1.1-12.8-0.5-19.3
		c-0.4-10.2-0.8-20.4-0.2-30.5c0.3-7-0.5-14.1,0.2-21.1c0.5-4.9-0.3-9.9,0-14.8c0.2-2.6,0.2-5.3-0.1-7.9c-1.6-17.3,0.4-34.6-0.2-52
		c-0.1-9.4,0.4-18.7,0.5-28c-0.5-8.8-0.4-17.6-0.2-26.4c1.1-6.5,0.3-13.1,1.5-19.6c2.6-11.1,2.9-22.7,6.4-33.6
		c2.9-12.1,7.7-23.8,14.8-34.2C52.5,53.1,62.6,46,72.2,39.2c4.9-3.7,10.9-5.3,16.6-7.5c8.3-3.6,17.4-4.2,26.2-5.7
		c13.3-2,26.7-0.5,40-2.1c12.7-0.3,25.3-1.7,38-2.2c15,0.3,29.9-1.6,44.8-2.3c9-1.1,18.2-0.2,27.2-1.4
		C276.7,17.6,288.4,16.2,300.2,16.5 M193.4,145.6c-11.8,1.4-22.8,6.1-33.1,11.9c-16.3,10.6-28.3,26.6-37.1,43.7
		c-4.3,7.5-6.6,15.9-10.1,23.8c-2.9,6.7-2.9,14.2-4.7,21.3c-3.5,12.7-3.2,26-2.9,39.1c0.2,10.7,1.7,21.3,4,31.7
		c2.4,16.5,10,31.5,17,46.4c5.4,9.9,12.3,18.8,19.8,27.1c3.6,4.1,8.4,6.9,12.4,10.6c7.9,7.2,18.1,11.4,28.1,14.7
		c9.7,2.9,20,3.4,30.1,2.9c13.5-0.6,26.9-4.9,37.9-12.9c16.7-10.7,29.7-26.5,38.5-44.2c3.8-8.6,7.6-17.3,10.5-26.3
		c3-11.6,5.6-23.4,6.2-35.4c0.2-6.8,1.5-13.6,1.2-20.4c-1-12.1-1.5-24.5-4.9-36.3c-1.2-6.4-3.2-12.5-5.5-18.6
		c-3.2-11-7.9-21.8-14.7-31.1c-4.9-7.6-10.4-14.8-16.3-21.6c-8.5-8.4-18.4-15.6-29.4-20.3c-7.3-2.7-14.6-6.1-22.6-6.4
		C209.8,145,201.6,144.7,193.4,145.6z"/>
	<path class="st0" d="M353.6,19c7.2-1.6,14.5-0.3,21.7,0.3c12,0.7,23.8,3.8,34.8,8.6c11.2,5.8,21.5,13.6,29.6,23.4
		c10.7,14.1,18,30.8,21.4,48.2c1.4,5.7,3.4,11.3,3.5,17.2c0.1,5.9,2.4,11.4,2.5,17.3c0.3,8.6,0.9,17.2,1.4,25.9
		c-0.1,12.9,0.2,25.8,0.3,38.8c-0.9,8.4,0.8,16.8-0.6,25.2c-1.4,7.9,0.6,15.8-0.1,23.7c-0.5,4.9,0.3,10-0.7,14.8
		c-1.5,2.2-4,3.4-5.9,5.1c-2.7,2-4.1,5.1-5.8,8c-2.9-1.8-4.6-4.8-7-7c-4.1-2-9.7-1.2-12.4,2.7c-2.6,4-4.3,9.1-3.2,13.9
		c0.6,4.5,2.8,9.7,7.5,11.3c4.8,1.4,9.2-1.6,13.4-3.5c1.6,9.3,3.6,18.8,8,27.2c2.2,4.9,5.7,9.6,5.6,15.3c0.5,11.3,0.1,22.7-0.3,34.1
		c0.6,15.1,0.2,30.2-0.3,45.2c-0.1,3.8-0.4,7.6-1.1,11.3c-1.1,5.8,0.5,11.8-1.1,17.6c-1.4,4.8-1.6,9.8-2.4,14.6
		c-1.7,6.6-2.6,13.4-5.2,19.7c-4.4,12.1-8.6,25-17.7,34.5c-5.1,5.2-10.3,10.4-15.5,15.5c-2.6,2.6-5.5,4.8-8.9,6.3
		c-8.1,3.4-16.4,6.6-25.2,7.8c-8.1,1.1-16.2,2.9-24.4,3c2.5-3.1,5.8-5.3,8.9-7.7c12.5-11.1,21.9-25.4,27.6-41.1
		c2.6-8,5.4-16,6.9-24.3c2.8-8.4,2.6-17.2,4-25.8c0.7-7.6,2.1-15.1,2.2-22.8c0-4.6,1.4-9.1,0.8-13.7c-1.6-13.9,1.1-27.9,0-41.8
		c-1-10.3,0.4-20.6,0.2-30.9c0.4-6.6-0.9-13.3-0.3-19.9c0.5-4.5-0.2-9.1-0.3-13.6c0.2-21.4-0.2-42.9,0.4-64.2c0.8-15,0.3-30,0.9-45
		c-0.3-6.9-0.2-13.8-0.6-20.7c-0.2-2.5,0.2-5,0.8-7.5c-1-2.9-1.9-6-1.4-9.1c0.7-6,0.2-12-0.6-17.9c-1.3-9.5-1.2-19.2-2.9-28.7
		c-2.6-14.4-6.1-28.8-12.4-42.1c-2.6-5.2-4.6-10.9-8.8-15.1c-4.6-4.8-7.8-10.8-12.7-15.3c-4.4-4.1-9.1-7.8-14.2-10.8
		C360.1,24.9,356.5,22.3,353.6,19z"/>
	<path class="st0" d="M431.8,31.7c8.1,3.4,16.2,7.8,21.9,14.7c3.5,4.2,8.5,6.9,11.2,11.8c4.2,7.1,8.5,14.2,11.6,21.8
		c1.9,6.9,5.1,13.5,6.1,20.7c0.9,6.1,3.2,11.9,4,18c1.2,9.9,2,19.8,3,29.6c0.6,6.5-0.3,13,0.4,19.5c0.9,6.8-0.7,13.7-0.5,20.5
		c0,5.9,0.9,11.8,0.3,17.8c-0.5,5.5,0.6,10.9-0.1,16.4c-0.6,5.8-0.2,11.7-0.5,17.6c-0.6,8.4,0.3,16.9,0.6,25.3
		c-4.8-0.3-9.4-1.7-13.8-3.5c1.4-18.1-0.2-36.3,1.1-54.4c0.3-10.2-1.1-20.5,0-30.7c0.3-4.3-0.9-8.6-1-12.9
		c-0.3-6.3,0.8-12.6-0.3-18.8c-0.5-3.1-0.8-6.3-0.7-9.5c0.2-6.8-1.4-13.5-2-20.3c-0.7-11.2-5.7-21.6-8.1-32.5
		c-0.9-4.5-3.2-8.4-5-12.6c-3.9-10.2-11.1-18.7-17.8-27.3C439.1,38.8,435,35.6,431.8,31.7z"/>
	<path class="st0" d="M194.4,152.4c6.1-1.4,12.4-0.6,18.6-0.9c7.9-0.4,15.4,2.7,23,4.6c9.6,3.9,18.4,9.8,25.8,17.1
		c7.4,6.1,12.6,14.2,18.2,21.9c3.6,4.9,6.1,10.4,9.2,15.7c3.6,6.2,4.7,13.4,7.2,20c3.6,9.6,5.1,19.8,7,29.8
		c1.4,6.8,0.4,13.8,1.6,20.6c1,5.4-0.5,10.8-0.6,16.2c0,9.1-2.1,18-3.9,26.9c-2.8,13.2-8.9,25.5-14.6,37.6
		c-6.6,11.6-14.3,22.9-25.1,31.1c-3.6,3.1-6.8,6.8-11.3,8.7c-4.4,1.9-8.8,4.1-13.2,6c-7.4,3-15.5,3.9-23.5,3.7
		c-9.1-0.4-18.4-1.1-27.1-4.1c-6.1-1.6-10.8-6-16-9.1c-3.5-2.1-6.7-4.6-9.7-7.4c-3.4-3.2-7.7-5.6-10.5-9.5
		c-2.7-3.7-5.1-7.5-7.9-11.1c-6.5-7.8-10.9-17.1-14.6-26.5c-2.2-4.9-4.6-9.8-6.2-15c-1.8-5.3-2.2-10.9-3.7-16.3
		c-2.5-8.6-2.3-17.8-3.3-26.6c-0.9-7.6,0.2-15.1,0.5-22.7c0.3-5.3,1.5-10.5,2.4-15.8c2.2-15.9,8.2-31,16-45
		c2.8-6.5,7.7-11.8,11.6-17.6c4.8-6.1,9.8-12.4,16.3-16.8c4.8-3.3,9.5-6.7,14.7-9.2C181.5,155.6,188.1,154.2,194.4,152.4z"/>
	<path class="st0" d="M469.5,271.9c4.7-3.2,10.6-2.4,15.6-0.1c14.6,6.4,27.8,15.5,40.2,25.4c-1.3,2-2.3,4.6-4.7,5.6
		c-4,1.9-8.4,2.7-12.7,2.7c-4.6-0.1-8.6-2.6-12.6-4.7c-4.5-2.5-9.2-4.8-12.7-8.6C477.5,286,472.7,279.4,469.5,271.9z"/>
	<path class="st0" d="M464,281.3c7.6,11.1,16.9,21.6,29.2,27.4c7.2,4.3,16.1,5,24.2,3.5c4.4-0.8,8-3.7,11.6-6.2
		c1.7-1.1,3.8-2.6,5.8-1.5c4.4,2.2,8,5.8,12,8.6c24.6,19.8,52.9,34.1,79.9,50.1c8.7,5.1,18.2,8.9,27.8,12.1
		c8.5,2.3,16.1,6.8,24.4,9.7c8.9,3.1,16.3,9.2,24.7,13.2c6.7,3.3,11.8,9.1,18.2,12.9c3.8,2.3,7.8,4.2,11.6,6.4
		c4.8,2.8,9.2,6.3,14.3,8.6c4.3,2,8.7,3.8,12.9,6.2c10.1,5.7,21,9.7,31.4,14.6c10.7,5,21.9,8.8,32.8,13.2c6,2.4,11.9,5.7,18.5,6.4
		c6.3,0.6,12.6-1.8,17.9-5c6-3.5,10.3-9,15.1-13.9c6.3-6.4,12.2-13.3,19.8-18.3c7.7-5.1,16.2-9.7,25.6-10.5
		c8.4-0.5,17.2,0.6,24.8,4.4c8.2,4,16.8,7.1,25.2,10.6c9.4,3.4,18.5,7.6,28.3,9.7c6.8,1.6,13.4,4.1,20.2,5.7
		c12.5,2.9,24.9,6.2,37.6,8.4c10.1,1.7,19.7,5.5,29.4,8.6c17.7,6.3,34.7,15,49.5,26.7c9.8,6.9,19.3,14.2,29.5,20.4
		c7.6,4.7,15,9.8,22.7,14.3c7.3,4.2,14.2,9.2,21.6,13.4c15.2,8.8,30.1,18.1,45.4,26.6c8.9,4.1,16.9,10,25.8,14.1
		c8.7,4.1,16.4,9.9,25.2,13.8c8.9,4,17.5,8.6,26.2,12.9c6.9,3.5,14.3,6,20.9,10c16.5,9.6,33.9,17.4,50.8,26.2
		c6.9,4,14.2,7.3,21.4,10.6c18.3,9.1,36.8,17.7,54.9,27.1c8.1,4.1,16.8,7,24.6,11.5v203.4c-17.4-4.2-34.8-9.1-52.6-11.5
		c-9.1-1.4-18.2-2.1-27.2-3.8c-12.4-2.4-24.8-5.1-37.4-6.3c-21-1.5-41.7-5.8-62.8-5.4c-11.7-0.2-23.3-0.2-35,0
		c-11.1-0.4-22,2-33.1,2c-17.4,2-34.9,3.7-52.4,5.2c-9.7,1.5-19.5,2.2-29.1,3.9c-9.4,1.6-19,0.5-28.5,1.8c-9.6,1.3-19.3,1-29,1.8
		c-13.7,1.1-27.3-1.2-41-1.8c-8.4-0.4-16.6-2.1-25-2.7c-9.5-0.5-18.6-3.2-28-4.2c-10.3-1.9-20.9-1.8-31.3-3.8
		c-6.8-1.3-13.8-1.1-20.5-2.8c-4.3-1.1-8.7-2-13.1-2.5c-9.7-1-19.2-3.4-29-4.1c-8.5-0.6-16.6-3.5-25-3.8c-16.7-0.8-33.3-3.7-50-2.2
		c-13.3,0.2-26.7,0.2-40,0.2c-11.3-0.3-22.6,0.8-34,0.1c-9,0.1-17.9-1.5-26.8-1.7c-8-0.3-15.8-2.5-23.1-5.8
		c-5.3-2.4-9.7-6.8-11.9-12.2c-2.1-5.6-2.9-11.6-4.9-17.2c-2-5.6-1.4-11.6-1.8-17.5c-0.2-5-3.8-9.5-3-14.6c0.7-4.8,1.9-9.8,0.6-14.6
		c-3-12.7-10.2-23.8-18.1-34c-4.2-5.7-9.8-10.2-15-15c3.7-4.3,8.8-6.9,14-8.9c14.3-6.2,30.7-10.2,46-5.3c8.8,3.2,17.2,7.2,25.3,11.8
		c9.4,6,19.5,11.4,27.4,19.5c-3.8,0.1-7.6,0.1-11.4-0.2c-8-0.5-16,1.4-23.8,2.7c-2.9,0.6-6,0.9-8.5,2.5c-1.1,1.4-1.7,3.2-2.4,4.8
		c3.4,0.6,6.9,0.8,10.2-0.2c9.5-2.7,19.5-3.2,29.3-2.3c17.3,1.5,34.5,4,51.9,3.3c12.3-0.2,24.5-4,34.7-11
		c12.3-8.3,20.6-22.1,23.1-36.6c1.3-5.9,2.4-11.9,2.9-17.9c0.4-4.8,0.9-9.8-0.6-14.5c-0.7-2-3.3-2.1-4.9-3c-1.2,3-2.3,6.1-2.5,9.4
		c-0.5,8.6-0.5,17.5-3.8,25.5c-2.9-0.9-4.1-3.9-5.5-6.2c-5.5-10-10.2-20.4-15.2-30.6c-5.2-10.8-12-20.6-18.3-30.7
		c-6.6-11.9-16-21.8-26.2-30.7c-6.9-6.8-14.7-12.6-21.2-19.9c-6.4-6.4-12-13.3-17.9-20.2c-4.7-5.6-9.8-11.1-13.6-17.4
		c-4.7-8-10.2-15.7-13.8-24.4c-1.7-3.6-2.7-7.6-5.2-10.7c-2.2-2.5-7.4,0.3-6.1,3.5c1.5,4.8,3.9,9.4,5,14.4
		c-5.8-1.6-11.2-4.3-16.8-6.7c-8.4-3.6-15.8-9-24.1-12.8c-9.1-4.2-18.8-7.3-27.1-13.1c-3.4-2.4-7.1-4.3-11-5.9
		c-6.3-2.7-11.9-6.8-17.8-10.2c-8.1-4.9-16.7-9-24.2-14.8c-8.1-6.3-17.4-11-25.3-17.7c-6.9-5.8-13.8-11.5-20.6-17.4
		c-7.8-6.3-14.1-14-20.9-21.2c-3.5-3.5-7.9-6.1-11.9-9c-5.8-3.9-11.1-8.3-16.7-12.4c-7.8-5.5-13.9-12.8-20.8-19.2
		c-9.7-11.1-19.5-22-28.2-33.9c-5-6.8-10.6-13.4-13.7-21.3c-2.6-6.8-5.7-13.7-5.9-21.1C461.9,290.2,462.9,285.7,464,281.3z"/>
	<path class="st0" d="M477.2,349.1c0.4-0.1,1.3-0.3,1.7-0.4c3.1,2.8,5.6,6.1,8.1,9.4c3.1,3.9,1.6,9.2,1.8,13.9
		c0.3,11.8-0.2,23.6-0.9,35.4c-0.1,5,0.4,10-0.1,15.1c-0.3,6.9-2.2,13.7-2.7,20.6c-1.4,15.7-4.9,31.3-11.6,45.6
		c-2.1,4.3-3.5,8.8-6,12.9c-4.1,7-10.4,12.3-16.2,17.9c-3.4,3.3-7.1,6.6-11.8,7.9c2.2-4.2,5.8-7.4,8.5-11.2c3-4.2,6-8.4,8.3-13
		c2.3-4.4,3.5-9.3,5.7-13.7c3.5-6.7,4.7-14.2,6.5-21.5c1.6-6.4,2.4-13,3.9-19.4c0.9-3.6,0.2-7.3,0.9-11c0.8-4.8,1.8-9.7,1.6-14.6
		c-0.6-9.7,1.6-19.4,1.2-29.1c0.4-6.9-0.6-13.8-0.3-20.7C476.2,364.9,474.5,356.8,477.2,349.1z"/>
	<path class="st0" d="M747.5,564.5c4.1-3.8,6.4-9.4,11.4-12.2c13.4,16.1,25.9,33.1,41.9,46.8c9.1,8.9,18.6,17.4,27.1,26.9
		c-3.6,5.5-5.2,12.3-9.6,17.3c-6.1,6.6-11.8,13.8-19.7,18.3c-8.6,4.3-18.5,5.6-28,4c-7.9-0.7-15.6-2.5-23-5.1
		c-2.6-1.3-5.9,1.1-5.2,4c0.9,2.8,4.1,3.4,6.6,4.2c7.6,2,15.1,4.9,23,4.8c5.2-0.1,10.4,0.3,15.6-0.5c4.4-0.8,8.3-4.4,12.9-3.8
		c3.4,3.2,4.9,7.9,7.2,11.9c5.8,10.6,12.6,20.6,18.2,31.4c2.6,4.4,4.4,9.2,6.9,13.6c0.9,2.2,3.5,2.3,5.4,2.9
		c-0.7-5.6-4.5-9.8-6.7-14.7c-6.3-14.1-15.5-26.6-22.6-40.3c-1.2-2.8-4.8-6.5-2.1-9.4c3.9-4.4,9.1-7.5,12.7-12.3
		c3.1-4.2,7.2-7.8,9.2-12.8c1-2,1.7-4.2,3.2-5.9c2.5-1.5,4.9,1.3,6.5,3c13.3,19.2,23,40.5,34.2,60.9c2.7,5.3,5.2,10.6,8.4,15.6
		c0.8,1.7,2.3,3.4,1.7,5.4c-4.4,10.9-14.3,18.3-24.9,22.7c-4.4,1.7-9.4,3.8-14,2.2c-2.7-3.8-3.1-8.6-4.2-13
		c-1.4-0.1-2.8-0.3-4.2-0.4c1.6,4.8,2.9,9.8,2.9,14.9c-4.6,1.3-9.4,1.6-14.1,1c-5.6-0.7-11.2-0.3-16.8-1c-3.9-0.6-5.7-4.4-8.2-6.9
		c-8.6-8.7-19.6-14.4-29.7-21.2c-4-2.6-9-3.2-12.9-6.1c-5-3.6-11.1-5-16.9-6.9c-4.8-1.5-9.8-1.4-14.7-2.4c-2.9-0.5-4.3-3.3-5.9-5.3
		c-1.9-2.8-4.3-5.6-4.8-9.1c-0.5-3.6-0.2-7.5-2.4-10.6c-4-5.9-6.5-12.7-9.6-19.2c-2.6-6.9-4.1-14.2-4.8-21.5
		c-0.5-5.5,2.9-10.2,5.3-14.9c2.1-4.1,4.3-8.3,7.4-11.8c3-3.3,3.8-8,6.7-11.2c5.6-6.3,11.1-12.9,17.4-18.7
		C739.1,574.7,742.8,569.1,747.5,564.5z"/>
	<path class="st0" d="M679.7,737.4c5.4,3.5,9,9.1,12.5,14.4c3.6,6,8.4,11.5,10.1,18.5c0.6,1.9-0.5,3.8-1,5.6
		c-2.4-1.7-4.9-3.3-6.3-5.9c-3.8-6.6-7.7-13.2-11.2-19.9C681.7,746.2,678.2,742.2,679.7,737.4z"/>
</g>
<g id="_x23_a09da3ff">
	<path d="M279,10.1c12.3-1.2,24.6-0.7,37-0.8c18.3,0.7,36.7,0.9,55,2c8.4,0.1,16.5,2.3,24.9,3.1c8.8,1,17.7,1.9,26.3,4.5
		c7.6,2.4,15.6,4.2,22.5,8.4c6.3,3.8,12.4,8.1,16.9,14c5.6,7.1,11.5,14,16.2,21.7c2.8,4.8,6.6,9.2,7.9,14.7c2.1,8.9,3.9,18,6.8,26.7
		c1.5,4.4,1.4,9,2,13.5c2.7,17.3,4.1,34.9,3.9,52.4c0.1,21.1,0.7,42.2-0.3,63.2c-0.6,9.2,0.2,18.4,0,27.6c0.2,3.1-0.2,6.9,2.5,9
		c3.6,2.9,7.9,4.7,11.7,7.3c5.1,3.5,10.2,7,15.2,10.8c5.5,4.1,9.8,9.6,15.4,13.7c7,5,13.3,10.8,20.5,15.5
		c7.5,5.3,15.6,9.7,23.1,14.9c6.8,4.8,14.7,7.7,21.6,12.4c7.2,5.1,15.9,7.3,23.8,11.3c7.1,3.1,13,8.4,20.5,10.5
		c11.2,3.3,22.2,7.2,32.8,12.1c6.6,2.9,12.6,6.8,19,10.1c7.9,4.1,14.1,10.8,22,15c8.6,4.6,16.5,10.2,25.1,14.8
		c8.3,4.8,17.4,8.2,25.5,13.4c5.9,4,13.2,4.5,19.5,7.6c7.1,3.5,14.3,7.1,22,9.1c8.6,2.2,15.8,8.4,24.8,9.4c4.6,0.7,9.3-0.6,13-3.2
		c5.5-3.8,10.2-8.5,14.9-13.2c6.4-6.9,13.7-13,21.1-18.8c7.1-4.3,14.6-8.5,22.8-10.1c8.9-1.2,18.2-1.5,26.8,1.3
		c15.7,4.3,30,12.5,45.4,17.6c11.4,3.6,23,6.7,34.5,9.7c22.6,5.8,45.9,9,67.9,17c9.5,4.7,19.9,7.4,29,12.9
		c15,8.5,28.4,19.5,42.7,29.3c7.8,6.1,16.8,10.3,24.7,16.3c23.9,14,47.5,28.6,71.5,42.5c8.4,4.2,16.2,9.4,24.6,13.5
		c9.7,5.3,19.1,11.2,29,16.1c8.7,4.3,16.9,9.5,25.8,13.2c5.5,2.3,10.6,5.4,16.1,7.8c17.2,7.8,33.6,17.3,50.7,25.3
		c8.4,4.8,17.5,8.1,25.7,13.3c6.8,4.3,14.6,6.7,21.9,10.1c18.2,9.2,37,17.4,54.8,27.4v7.6c-7.9-4.5-16.5-7.4-24.6-11.5
		c-18.1-9.4-36.6-18-54.9-27.1c-7.3-3.3-14.5-6.6-21.4-10.6c-16.9-8.8-34.3-16.6-50.8-26.2c-6.6-4.1-14-6.5-20.9-10
		c-8.7-4.3-17.3-8.9-26.2-12.9c-8.8-3.9-16.5-9.7-25.2-13.8c-8.9-4.2-16.8-10-25.8-14.1c-15.4-8.5-30.3-17.8-45.4-26.6
		c-7.3-4.2-14.2-9.2-21.6-13.4c-7.8-4.5-15.1-9.6-22.7-14.3c-10.2-6.2-19.7-13.5-29.5-20.4c-14.8-11.7-31.7-20.5-49.5-26.7
		c-9.7-3.1-19.3-7-29.4-8.6c-12.7-2.2-25.1-5.6-37.6-8.4c-6.8-1.6-13.4-4.1-20.2-5.7c-9.8-2.2-18.9-6.3-28.3-9.7
		c-8.4-3.5-17-6.6-25.2-10.6c-7.6-3.8-16.4-4.9-24.8-4.4c-9.4,0.8-17.9,5.4-25.6,10.5c-7.6,4.9-13.5,11.9-19.8,18.3
		c-4.8,4.9-9.1,10.3-15.1,13.9c-5.4,3.2-11.6,5.5-17.9,5c-6.6-0.6-12.5-4-18.5-6.4c-10.9-4.4-22.1-8.2-32.8-13.2
		c-10.5-4.9-21.4-8.8-31.4-14.6c-4.1-2.4-8.6-4.2-12.9-6.2c-5.1-2.4-9.5-5.9-14.3-8.6c-3.8-2.2-7.8-4.1-11.6-6.4
		c-6.4-3.8-11.5-9.6-18.2-12.9c-8.4-4.1-15.8-10.1-24.7-13.2c-8.3-2.9-15.9-7.4-24.4-9.7c-9.6-3.2-19-7-27.8-12.1
		c-27.1-15.9-55.3-30.3-79.9-50.1c-4-2.8-7.6-6.4-12-8.6c-2-1.1-4.1,0.4-5.8,1.5c-3.6,2.5-7.2,5.3-11.6,6.2
		c-8.2,1.5-17,0.8-24.2-3.5c-12.3-5.8-21.6-16.3-29.2-27.4c-1.1,4.4-2.1,9-1.9,13.6c0.2,7.4,3.3,14.3,5.9,21.1
		c3.1,8,8.7,14.5,13.7,21.3c8.6,11.9,18.5,22.9,28.2,33.9c6.9,6.4,13,13.8,20.8,19.2c5.6,4.1,10.9,8.5,16.7,12.4
		c4,2.9,8.3,5.4,11.9,9c6.8,7.2,13.2,14.9,20.9,21.2c6.8,5.9,13.7,11.6,20.6,17.4c7.9,6.7,17.1,11.4,25.3,17.7
		c7.5,5.8,16.1,10,24.2,14.8c5.9,3.4,11.5,7.5,17.8,10.2c3.8,1.6,7.5,3.6,11,5.9c8.3,5.8,18,8.9,27.1,13.1
		c8.3,3.8,15.7,9.2,24.1,12.8c5.5,2.4,10.9,5,16.8,6.7c-1.1-5-3.4-9.5-5-14.4c-1.3-3.2,3.9-6,6.1-3.5c2.5,3.1,3.6,7.1,5.2,10.7
		c3.6,8.7,9,16.3,13.8,24.4c3.8,6.4,8.8,11.8,13.6,17.4c5.9,6.8,11.5,13.8,17.9,20.2c6.5,7.3,14.3,13.1,21.2,19.9
		c10.1,8.9,19.6,18.8,26.2,30.7c6.2,10.1,13.1,20,18.3,30.7c5,10.2,9.8,20.6,15.2,30.6c1.5,2.3,2.6,5.3,5.5,6.2
		c3.3-8.1,3.3-17,3.8-25.5c0.2-3.3,1.3-6.3,2.5-9.4c1.6,0.9,4.2,1,4.9,3c1.5,4.7,0.9,9.7,0.6,14.5c-0.5,6-1.5,12-2.9,17.9
		c-2.6,14.5-10.8,28.2-23.1,36.6c-10.1,7-22.4,10.8-34.7,11c-17.4,0.7-34.7-1.8-51.9-3.3c-9.8-0.9-19.8-0.4-29.3,2.3
		c-3.3,1-6.8,0.8-10.2,0.2c0.7-1.7,1.3-3.4,2.4-4.8c2.5-1.6,5.6-1.9,8.5-2.5c7.9-1.2,15.8-3.2,23.8-2.7c3.8,0.2,7.6,0.3,11.4,0.2
		c-7.8-8.1-17.9-13.5-27.4-19.5c-8.1-4.6-16.6-8.6-25.3-11.8c-15.3-5-31.7-0.9-46,5.3c-5.2,2-10.3,4.6-14,8.9
		c5.2,4.8,10.8,9.3,15,15c7.8,10.2,15.1,21.4,18.1,34c1.2,4.8,0,9.8-0.6,14.6c-0.8,5.1,2.7,9.6,3,14.6c0.4,5.8-0.2,11.8,1.8,17.5
		c2,5.6,2.7,11.6,4.9,17.2c2.2,5.4,6.6,9.8,11.9,12.2c7.2,3.3,15.1,5.5,23.1,5.8c9,0.2,17.8,1.8,26.8,1.7c11.3,0.7,22.6-0.4,34-0.1
		c13.3,0,26.7,0,40-0.2c16.7-1.6,33.3,1.3,50,2.2c8.5,0.3,16.6,3.2,25,3.8c9.7,0.7,19.2,3.1,29,4.1c4.4,0.5,8.8,1.4,13.1,2.5
		c6.7,1.6,13.7,1.5,20.5,2.8c10.3,2,20.9,1.9,31.3,3.8c9.4,1,18.6,3.8,28,4.2c8.4,0.6,16.6,2.3,25,2.7c13.7,0.6,27.3,2.9,41,1.8
		c9.7-0.8,19.4-0.5,29-1.8c9.4-1.3,19-0.2,28.5-1.8c9.7-1.7,19.4-2.4,29.1-3.9c17.5-1.5,34.9-3.2,52.4-5.2c11.1,0,22-2.4,33.1-2
		c11.7-0.3,23.3-0.3,35,0c21.1-0.4,41.8,3.9,62.8,5.4c12.6,1.2,25,3.9,37.4,6.3c9,1.8,18.1,2.4,27.2,3.8
		c17.8,2.4,35.2,7.3,52.6,11.5v7.5c-9-3.7-18.8-4.5-28.1-6.9c-7.9-2-15.9-3.5-23.9-5.1c-28.3-4.1-56.4-10.1-85-12.2
		c-12-1-23.9-2.9-36-3.2c-13.7-1-27.5-1.4-41.2-0.2c-23.3,0.7-46.6,2.9-69.7,5.6c-11.4,1-22.6,3.3-34.1,3.8c-9.1,0.3-17.9,2.6-27,3
		c-14,0.7-28,2.5-42,1.9c-15.7,0.6-31.4-1.1-47-2.3c-16.7-2.2-33.5-3.1-50.1-6.3c-14.5-2.5-29.2-3.4-43.7-6.4
		c-35.3-5.1-70.5-11.1-106.2-12.8c-12.4-0.2-24.7-0.1-37.1,0c-13.9,1.2-27.9,0.8-41.9,0.7c-11.9,0.4-23.9-0.4-35.8-1.1
		c-13.4-2-27.9-4-38.4-13.2c-3.6-2.9-4.7-7.5-5-11.9c-0.8-9.1-3.9-17.8-6.2-26.6c-1.7-6.3-2.7-12.9-5.1-19
		c-2.1-5.2-6.1-9.2-9.5-13.5c-6.1-7.5-10.7-16-15.5-24.4c-4.4-8.9-9.5-18.3-8.2-28.5c0.4-5.2,4.3-9.4,8.6-12
		c7.8-4.7,16.4-8.2,25.5-9.3c4.3-0.5,8.5-1.6,12.4-3.5c-2-5.9-5.4-11.1-9-16.1c-6.9-11.5-12.7-23.8-15.9-36.9
		c-1.2-5.3-3.4-10.8-2.1-16.4c2-9.3,7.8-17.1,12.9-24.9c3.6-5.7,9.5-9.7,11.9-16.1c1.8-4.7,5.4-8.4,9.1-11.8
		c6.5-5.8,11.3-13.1,17.7-19c4.8-4.4,8.6-9.8,10.8-16c-6.3-3.9-13.4-6.2-19.8-9.9c-5-2.8-10.3-5-15.2-7.8
		c-9.3-5.7-19.2-10.6-29.3-14.7c-5.9-2.5-10.9-6.8-17-9c-6.5-2.4-12.3-6.3-18.4-9.6c-17.6-9.9-35.1-20.3-51-32.9
		c-11.8-7.6-21.9-17.3-32.2-26.7c-7.5-6.9-13.3-15.6-21.8-21.3C529,400.8,514.7,385,498,372.3c-0.9,8.9-0.3,17.8-0.5,26.7
		c-0.5,19.3-3.3,38.5-6.5,57.5c-1.9,17-8.5,33-16.8,47.8c-7.5,12.1-17.8,22.5-30.1,29.8c-8.8,5.3-18.3,9.8-28.6,11.3
		c-9.1,1.4-18.1,3.1-27.2,4.8c-7.9,1.6-16,1.7-24,2.9c-8.7,1.3-17.6,1.5-26.3,2.7c-13.9,1.9-28.1,2.3-42.1,1.7
		c-11-0.4-21.9-2.6-33-3.1c-11.6-0.9-23.1-3.2-34.8-4c-17.9-2.6-36-3.7-54-5.9c-11.6-1.9-23.3-2.4-34.9-4.1
		c-9.9-1.4-19.9-2.1-29.6-4.4c-10.8-2.7-21.3-6.5-31.2-11.6c-8.6-4.7-16.3-10.8-23.2-17.7c-12.9-13.1-20.2-30.5-25.1-47.9
		c-5.7-16.1-7-33.2-8.4-50.1c-0.8-14.9-0.4-29.9-0.9-44.9c0.5-11,0.1-22,0-33c0.3-7.5,0.8-15.1-0.2-22.5c-1-7.5-0.1-15.1-0.2-22.7
		c0-14-0.5-28,0-42.1c0.3-7.2-1.2-14.3-0.6-21.4c0.6-9.3,0.9-18.6,0.4-27.9c0.1-17.9-0.3-35.9,0.7-53.8c1.3-13.7,1.9-27.5,5.7-40.8
		c3.1-13.2,8-26.1,15.1-37.7c7.3-10.5,16.1-20.3,27.3-26.7c17.7-11.5,39-16.2,59.9-17c17.8-1.6,35.7-2.1,53.5-3.3
		c10.1-0.9,20.2-0.2,30.3-1c8.8-0.2,17.4-1.5,26.2-1.5C252.4,12.6,265.6,10.1,279,10.1 M300.2,16.5c-11.8-0.3-23.4,1.1-35.1,1.4
		c-9,1.2-18.2,0.3-27.2,1.4c-15,0.6-29.9,2.6-44.8,2.3c-12.7,0.6-25.3,1.9-38,2.2c-13.3,1.6-26.7,0.1-40,2.1
		c-8.8,1.4-18,2.1-26.2,5.7c-5.6,2.3-11.7,3.8-16.6,7.5c-9.6,6.8-19.7,14-25.7,24.3c-7,10.3-11.8,22-14.8,34.2
		c-3.4,10.9-3.7,22.5-6.4,33.6c-1.2,6.5-0.5,13.1-1.5,19.6c-0.1,8.8-0.3,17.6,0.2,26.4c-0.1,9.3-0.6,18.7-0.5,28
		c0.7,17.3-1.4,34.7,0.2,52c0.3,2.6,0.3,5.3,0.1,7.9c-0.3,4.9,0.6,9.9,0,14.8c-0.7,7,0.2,14.1-0.2,21.1c-0.5,10.2-0.2,20.4,0.2,30.5
		c-0.6,6.4,0.6,12.8,0.5,19.3c-0.4,8.8-1,17.5-0.7,26.3c0.2,5.6,1.4,11.1,1,16.7c-0.6,6.6,0.6,13.1,1,19.6
		c1.4,8.6,1.8,17.4,3.8,25.9c2,10.5,2.9,21.8,8.9,31c2,3.6,3,7.5,4.8,11.2c3.2,6.8,7.9,12.7,12.6,18.6c8.8,10.5,21.1,17.1,33.3,22.8
		c7,3.2,14.7,4.5,22,6.8c11.3,2.8,22.9,3.1,34.5,4.1c9.4,2.2,19.1,1.5,28.6,3.2c10.1,1.8,20.4,2.2,30.6,3.2c5,0.5,10,1.7,15,2.2
		c12.1,1,23.9,3.6,36,4c12,1.1,23.9,3,36,3c9.2,0.6,18.4,1.9,27.6,0.6c13.3-0.8,26.8-4.1,38.4-10.8c7.3-5.8,16.4-9.3,22.2-16.9
		c3.3-4.5,6.6-8.9,9.4-13.7c11.5-20.1,15.7-43.5,17.6-66.3c0.2-8.1,2.4-16,2.2-24.2c-0.1-9,0.5-18,0.5-27c-0.8-12.3,0.3-24.7-0.3-37
		c-0.3-6.2,0.9-12.3,0.3-18.5c-0.5-5.2,0.1-10.5,0.1-15.7c0.1-9.3-0.8-18.6,0.1-27.8c0.6-5.7-0.2-11.4,0-17
		c0.3-8.4-0.6-16.8-0.2-25.1c-0.2-12.3-0.6-24.6,0.5-36.8c0.3-12.6-0.7-25.2-0.1-37.8c0.4-8.8-0.9-17.5-0.7-26.2
		c0.3-10.3-1.8-20.5-2.7-30.8c-2.3-9.8-2.9-19.9-6.3-29.4c-1.8-5-2.6-10.4-5-15.2c-5.1-11-11.5-21.5-19.6-30.5
		c-4.1-4.7-9.9-7.5-14.8-11.3c-5.6-4.5-12.7-6.2-19.2-8.9c-8.1-3.3-17-4-25.5-5.6C311,16.5,305.6,16.5,300.2,16.5 M353.6,19
		c2.9,3.3,6.5,5.9,10.3,8.1c5.1,3,9.8,6.8,14.2,10.8c4.9,4.5,8.1,10.5,12.7,15.3c4.1,4.2,6.1,9.9,8.8,15.1
		c6.3,13.3,9.8,27.7,12.4,42.1c1.7,9.5,1.6,19.1,2.9,28.7c0.9,5.9,1.4,11.9,0.6,17.9c-0.5,3.1,0.4,6.2,1.4,9.1c-0.5,2.5-1,5-0.8,7.5
		c0.5,6.9,0.4,13.8,0.6,20.7c-0.5,15-0.1,30-0.9,45c-0.6,21.4-0.2,42.8-0.4,64.2c0.1,4.5,0.8,9.1,0.3,13.6
		c-0.6,6.6,0.7,13.3,0.3,19.9c0.1,10.3-1.2,20.6-0.2,30.9c1.1,13.9-1.6,27.9,0,41.8c0.6,4.6-0.8,9.1-0.8,13.7
		c-0.1,7.6-1.5,15.2-2.2,22.8c-1.4,8.6-1.2,17.5-4,25.8c-1.5,8.3-4.3,16.3-6.9,24.3c-5.7,15.7-15.1,30-27.6,41.1
		c-3.1,2.4-6.5,4.6-8.9,7.7c8.2,0,16.3-1.9,24.4-3c8.8-1.2,17.1-4.4,25.2-7.8c3.4-1.4,6.3-3.7,8.9-6.3c5.2-5.1,10.4-10.3,15.5-15.5
		c9.2-9.5,13.3-22.4,17.7-34.5c2.6-6.3,3.5-13.1,5.2-19.7c0.8-4.9,1-9.8,2.4-14.6c1.6-5.8,0-11.8,1.1-17.6c0.7-3.7,1-7.5,1.1-11.3
		c0.4-15.1,0.9-30.2,0.3-45.2c0.5-11.3,0.8-22.7,0.3-34.1c0-5.7-3.4-10.4-5.6-15.3c-4.4-8.5-6.4-17.9-8-27.2
		c-4.2,1.8-8.6,4.9-13.4,3.5c-4.7-1.6-6.8-6.8-7.5-11.3c-1-4.8,0.6-9.9,3.2-13.9c2.7-3.9,8.3-4.8,12.4-2.7c2.4,2.3,4.1,5.3,7,7
		c1.6-2.8,3.1-5.9,5.8-8c2-1.7,4.4-2.9,5.9-5.1c1.1-4.9,0.3-9.9,0.7-14.8c0.7-7.9-1.3-15.9,0.1-23.7c1.4-8.4-0.3-16.8,0.6-25.2
		c-0.1-12.9-0.4-25.8-0.3-38.8c-0.4-8.6-1.1-17.2-1.4-25.9c-0.1-5.9-2.4-11.4-2.5-17.3c-0.2-5.9-2.1-11.5-3.5-17.2
		c-3.4-17.4-10.7-34.1-21.4-48.2c-8.1-9.8-18.4-17.6-29.6-23.4c-11-4.8-22.8-7.9-34.8-8.6C368.1,18.7,360.8,17.4,353.6,19
		 M431.8,31.7c3.3,3.9,7.4,7,10.4,11.1c6.6,8.6,13.8,17.1,17.8,27.3c1.8,4.1,4.1,8.1,5,12.6c2.5,10.9,7.4,21.2,8.1,32.5
		c0.6,6.8,2.2,13.5,2,20.3c-0.1,3.2,0.2,6.3,0.7,9.5c1.1,6.2,0,12.6,0.3,18.8c0.1,4.3,1.3,8.6,1,12.9c-1.1,10.2,0.2,20.5,0,30.7
		c-1.3,18.1,0.3,36.3-1.1,54.4c4.4,1.8,9,3.2,13.8,3.5c-0.3-8.4-1.2-16.9-0.6-25.3c0.3-5.8-0.1-11.7,0.5-17.6
		c0.6-5.5-0.4-10.9,0.1-16.4c0.5-5.9-0.4-11.8-0.3-17.8c-0.1-6.8,1.4-13.7,0.5-20.5c-0.8-6.5,0.2-13-0.4-19.5
		c-1-9.9-1.8-19.8-3-29.6c-0.8-6.1-3-11.9-4-18c-1-7.2-4.2-13.8-6.1-20.7c-3.1-7.7-7.4-14.8-11.6-21.8c-2.7-4.9-7.8-7.6-11.2-11.8
		C448,39.5,439.9,35.2,431.8,31.7 M469.5,271.9c3.1,7.5,8,14.1,13.2,20.3c3.5,3.8,8.2,6.1,12.7,8.6c4,2,8,4.6,12.6,4.7
		c4.4,0,8.8-0.8,12.7-2.7c2.4-1,3.4-3.6,4.7-5.6c-12.4-9.9-25.6-19-40.2-25.4C480.2,269.5,474.3,268.6,469.5,271.9 M438.7,275.8
		c-2.6,5.2-0.5,11,2.2,15.7c2.2-0.4,5.1,0,6.7-2c3.2-3.9,3.6-9.8,1.3-14.3C447.1,271.2,440.2,271.7,438.7,275.8 M477.2,349.1
		c-2.7,7.7-1,15.8-1.4,23.8c-0.4,6.9,0.7,13.8,0.3,20.7c0.4,9.8-1.8,19.4-1.2,29.1c0.2,4.9-0.8,9.8-1.6,14.6c-0.6,3.6,0,7.4-0.9,11
		c-1.4,6.4-2.2,13-3.9,19.4c-1.8,7.2-3.1,14.8-6.5,21.5c-2.2,4.4-3.5,9.3-5.7,13.7c-2.3,4.6-5.3,8.9-8.3,13c-2.8,3.8-6.4,7-8.5,11.2
		c4.7-1.3,8.4-4.5,11.8-7.9c5.8-5.6,12.1-10.9,16.2-17.9c2.6-4,4-8.6,6-12.9c6.8-14.3,10.3-29.9,11.6-45.6
		c0.5-6.9,2.4-13.6,2.7-20.6c0.5-5,0-10,0.1-15.1c0.7-11.8,1.2-23.6,0.9-35.4c-0.2-4.6,1.3-9.9-1.8-13.9c-2.5-3.3-5-6.6-8.1-9.4
		C478.5,348.8,477.7,349,477.2,349.1 M747.5,564.5c-4.8,4.6-8.5,10.1-13.3,14.6c-6.2,5.8-11.7,12.3-17.4,18.7c-3,3.3-3.7,8-6.7,11.2
		c-3.1,3.5-5.3,7.6-7.4,11.8c-2.4,4.7-5.8,9.3-5.3,14.9c0.6,7.3,2.1,14.6,4.8,21.5c3.1,6.4,5.6,13.2,9.6,19.2
		c2.3,3.1,1.9,7,2.4,10.6c0.4,3.5,2.9,6.2,4.8,9.1c1.6,2,3.1,4.8,5.9,5.3c4.9,1,9.9,0.9,14.7,2.4c5.8,1.9,11.8,3.4,16.9,6.9
		c3.9,2.9,8.9,3.5,12.9,6.1c10,6.9,21,12.6,29.7,21.2c2.5,2.5,4.4,6.4,8.2,6.9c5.6,0.7,11.2,0.3,16.8,1c4.7,0.6,9.5,0.3,14.1-1
		c0-5.1-1.3-10.1-2.9-14.9c1.4,0.1,2.8,0.2,4.2,0.4c1.1,4.4,1.6,9.2,4.2,13c4.6,1.6,9.7-0.5,14-2.2c10.6-4.4,20.5-11.8,24.9-22.7
		c0.6-2-1-3.7-1.7-5.4c-3.2-5-5.7-10.3-8.4-15.6c-11.2-20.4-20.9-41.7-34.2-60.9c-1.6-1.7-3.9-4.5-6.5-3c-1.5,1.7-2.3,3.9-3.2,5.9
		c-2,4.9-6.1,8.6-9.2,12.8c-3.5,4.8-8.8,7.9-12.7,12.3c-2.7,2.9,0.9,6.6,2.1,9.4c7.1,13.7,16.4,26.2,22.6,40.3
		c2.2,4.9,6,9.2,6.7,14.7c-2-0.6-4.5-0.7-5.4-2.9c-2.5-4.5-4.3-9.2-6.9-13.6c-5.6-10.7-12.4-20.8-18.2-31.4c-2.3-4-3.8-8.7-7.2-11.9
		c-4.6-0.6-8.5,3-12.9,3.8c-5.1,0.8-10.4,0.4-15.6,0.5c-8,0-15.4-2.9-23-4.8c-2.5-0.8-5.6-1.5-6.6-4.2c-0.7-2.9,2.6-5.3,5.2-4
		c7.5,2.6,15.2,4.5,23,5.1c9.5,1.5,19.4,0.3,28-4c7.9-4.6,13.6-11.7,19.7-18.3c4.4-5.1,6-11.8,9.6-17.3c-8.5-9.5-18-18-27.1-26.9
		c-16-13.7-28.5-30.7-41.9-46.8C753.9,555.2,751.6,560.7,747.5,564.5 M679.7,737.4c-1.5,4.8,2,8.8,4.1,12.7
		c3.6,6.7,7.4,13.3,11.2,19.9c1.5,2.6,4,4.3,6.3,5.9c0.5-1.8,1.5-3.7,1-5.6c-1.8-6.9-6.5-12.5-10.1-18.5
		C688.7,746.5,685.1,740.9,679.7,737.4z"/>
	<path d="M193.4,145.6c8.2-0.9,16.4-0.6,24.6-0.3c7.9,0.3,15.2,3.7,22.6,6.4c11,4.7,20.9,11.8,29.4,20.3c6,6.8,11.5,14,16.3,21.6
		c6.8,9.3,11.4,20.1,14.7,31.1c2.3,6.1,4.3,12.2,5.5,18.6c3.4,11.8,3.8,24.1,4.9,36.3c0.3,6.8-1,13.6-1.2,20.4
		c-0.5,12-3.2,23.8-6.2,35.4c-2.9,9-6.7,17.7-10.5,26.3c-8.8,17.6-21.8,33.5-38.5,44.2c-11,8-24.4,12.3-37.9,12.9
		c-10.1,0.5-20.4,0-30.1-2.9c-10.1-3.4-20.2-7.5-28.1-14.7c-4-3.7-8.7-6.5-12.4-10.6c-7.5-8.3-14.4-17.2-19.8-27.1
		c-7-14.9-14.6-29.9-17-46.4c-2.3-10.4-3.8-21-4-31.7c-0.3-13.1-0.6-26.4,2.9-39.1c1.8-7,1.7-14.5,4.7-21.3
		c3.5-7.9,5.8-16.3,10.1-23.8c8.8-17.1,20.8-33.1,37.1-43.7C170.6,151.7,181.6,146.9,193.4,145.6 M194.4,152.4
		c-6.3,1.8-12.9,3.2-18.8,6.2c-5.2,2.6-10,5.9-14.7,9.2c-6.6,4.4-11.5,10.7-16.3,16.8c-3.9,5.9-8.8,11.1-11.6,17.6
		c-7.8,13.9-13.9,29.1-16,45c-0.9,5.2-2.1,10.4-2.4,15.8c-0.3,7.6-1.3,15.1-0.5,22.7c1,8.9,0.8,18,3.3,26.6c1.5,5.4,1.9,11,3.7,16.3
		c1.6,5.2,4,10.1,6.2,15c3.6,9.4,8.1,18.7,14.6,26.5c2.8,3.6,5.2,7.4,7.9,11.1c2.8,3.9,7,6.3,10.5,9.5c3,2.8,6.2,5.2,9.7,7.4
		c5.2,3.2,9.9,7.5,16,9.1c8.7,3,18,3.7,27.1,4.1c7.9,0.2,16.1-0.7,23.5-3.7c4.4-1.9,8.8-4.1,13.2-6c4.4-1.9,7.6-5.6,11.3-8.7
		c10.7-8.1,18.5-19.5,25.1-31.1c5.7-12.2,11.8-24.4,14.6-37.6c1.8-8.9,3.8-17.8,3.9-26.9c0-5.4,1.6-10.8,0.6-16.2
		c-1.2-6.8-0.2-13.8-1.6-20.6c-2-10-3.4-20.2-7-29.8c-2.5-6.6-3.5-13.8-7.2-20c-3.1-5.2-5.6-10.8-9.2-15.7
		c-5.5-7.7-10.8-15.8-18.2-21.9c-7.4-7.2-16.2-13.2-25.8-17.1c-7.6-1.9-15.1-5-23-4.6C206.8,151.8,200.5,151,194.4,152.4z"/>
</g>
<g id="_x23_1aa0e8ff">
	<path class="st1" d="M742.2,193.2c2.7-1.9,5.7-3.3,8.9-4.4c0.6,6.6,0.4,13.2,0.3,19.9c10.2,0.1,20.4,1,30.6,0.7
		c23.3-0.2,46.7,0.4,70-0.1c5.7,0.2,11.4,0.3,17.2,0.2c0.6,9.1,0.4,18.4-0.1,27.5c-21.3,1.1-42.7-0.1-64.1,0.5
		c-17.9-0.5-35.8,0.1-53.7,0c0,6.3,0.3,12.6-0.6,18.8c-2.5-1-5.1-2-7.4-3.4c-9-5.4-18-10.8-27.4-15.5c-7.3-4.5-14.5-9.3-21.5-14.2
		c6.2-4.8,13.6-7.8,19.6-12.9C723,203.9,733.1,199.3,742.2,193.2z"/>
	<path class="st1" d="M438.7,275.8c1.5-4.1,8.4-4.6,10.1-0.5c2.3,4.5,2,10.4-1.3,14.3c-1.6,2-4.4,1.6-6.7,2
		C438.2,286.9,436.1,281,438.7,275.8z"/>
</g>
</svg>
