<?xml version="1.0" encoding="UTF-8" ?>
<!DOCTYPE svg PUBLIC "-//W3C//DTD SVG 1.1//EN" "http://www.w3.org/Graphics/SVG/1.1/DTD/svg11.dtd">
<svg width="891pt" height="891pt" viewBox="0 0 891 891" version="1.1" xmlns="http://www.w3.org/2000/svg">
<g id="#ffffffff">
</g>
<g id="#000000ff">
<path fill="#000000" opacity="1.00" d=" M 46.17 12.29 C 48.70 11.58 51.37 11.95 53.96 11.87 C 186.31 11.88 318.66 11.87 451.01 11.87 C 463.35 11.98 475.75 11.40 488.03 12.99 C 527.24 17.53 564.08 38.59 588.18 69.80 C 605.46 91.92 616.30 119.00 618.99 146.94 C 619.96 155.95 619.68 165.02 619.72 174.06 C 619.70 291.40 619.75 408.75 619.69 526.09 C 619.97 529.67 616.43 532.51 612.99 532.09 C 576.65 532.10 540.31 532.09 503.98 532.10 C 500.50 532.54 497.00 529.65 497.20 526.07 C 497.13 425.72 497.19 325.36 497.17 225.00 C 496.91 210.30 498.40 195.23 494.04 180.95 C 486.16 152.18 461.38 128.97 432.16 122.97 C 425.20 121.49 418.07 121.00 410.96 121.12 C 331.96 121.13 252.95 121.13 173.95 121.12 C 171.14 120.87 167.97 122.16 167.10 125.06 C 166.44 127.99 166.84 131.04 166.75 134.02 C 166.74 264.68 166.78 395.34 166.73 526.00 C 167.02 529.59 163.51 532.53 160.03 532.10 C 123.02 532.08 86.00 532.11 48.98 532.09 C 46.15 532.36 43.26 530.44 42.69 527.61 C 42.31 524.76 42.53 521.88 42.48 519.03 C 42.49 352.32 42.48 185.61 42.49 18.91 C 42.26 16.23 43.51 13.27 46.17 12.29 Z" />
<path fill="#000000" opacity="1.00" d=" M 721.41 12.51 C 722.80 11.76 724.44 11.88 725.99 11.83 C 762.65 11.88 799.31 11.83 835.98 11.86 C 839.49 11.45 842.80 14.48 842.53 18.04 C 842.55 186.01 842.51 353.98 842.55 521.96 C 842.39 524.51 843.08 527.43 841.44 529.66 C 840.30 531.42 838.14 532.21 836.11 532.12 C 799.07 532.13 762.02 532.11 724.98 532.13 C 721.52 532.58 717.89 529.72 718.26 526.09 C 718.22 357.05 718.27 188.00 718.24 18.96 C 717.97 16.41 718.91 13.61 721.41 12.51 Z" />
<path fill="#000000" opacity="1.00" d=" M 273.42 214.53 C 310.95 214.36 348.50 214.50 386.04 214.46 C 389.74 214.15 392.78 217.54 392.49 221.16 C 392.57 320.78 392.49 420.39 392.53 520.00 C 392.48 522.67 392.75 525.39 392.12 528.01 C 391.42 530.63 388.72 532.35 386.05 532.11 C 348.69 532.11 311.33 532.15 273.96 532.09 C 270.25 532.30 267.63 528.53 268.15 525.07 C 268.17 423.67 268.14 322.27 268.17 220.87 C 267.84 217.75 270.26 214.76 273.42 214.53 Z" />
<path fill="#000000" opacity="1.00" d=" M 46.93 608.43 C 49.29 605.41 53.20 604.06 56.93 604.00 C 88.65 603.99 120.38 604.02 152.10 603.99 C 157.98 603.76 162.52 610.41 160.65 615.88 C 142.95 665.90 124.88 715.80 107.20 765.82 C 106.25 768.82 103.91 772.02 105.63 775.21 C 106.79 779.19 111.00 780.97 114.84 780.98 C 127.56 781.04 140.29 780.97 153.01 781.01 C 159.53 781.33 166.11 787.17 165.52 794.02 C 165.43 797.60 165.65 801.19 165.41 804.77 C 164.18 810.89 158.19 815.54 151.98 815.51 C 117.98 815.49 83.98 815.49 49.98 815.51 C 46.71 815.75 43.91 813.79 41.67 811.64 C 40.28 808.96 40.15 805.82 40.77 802.93 C 59.57 751.39 78.99 700.06 97.87 648.55 C 99.40 643.61 95.53 638.61 90.44 638.52 C 79.15 638.45 67.87 638.56 56.58 638.46 C 50.00 638.18 44.29 632.82 43.42 626.34 C 42.54 620.27 42.89 613.38 46.93 608.43 Z" />
<path fill="#000000" opacity="1.00" d=" M 200.52 604.56 C 209.76 601.76 220.43 605.01 226.88 612.12 C 233.26 619.12 233.29 630.96 226.74 637.87 C 220.53 644.43 210.75 648.03 201.85 645.65 C 194.90 644.42 188.55 639.83 185.44 633.46 C 182.22 627.36 182.82 619.47 186.86 613.89 C 190.01 609.17 195.10 606.02 200.52 604.56 Z" />
<path fill="#000000" opacity="1.00" d=" M 451.41 604.36 C 459.54 603.00 467.81 603.65 476.01 603.49 C 482.24 603.31 488.44 604.17 494.57 605.16 C 510.14 607.61 525.99 613.33 536.92 625.17 C 549.32 637.36 552.77 656.56 548.24 672.98 C 543.61 689.00 529.39 700.83 513.69 705.34 C 527.08 712.10 540.55 720.47 548.66 733.48 C 553.68 740.54 556.35 749.30 556.01 757.97 C 556.47 768.79 553.44 779.66 547.90 788.94 C 541.62 798.37 532.32 805.64 521.83 809.84 C 512.15 813.92 501.79 816.13 491.40 817.41 C 490.12 817.46 488.86 817.51 487.60 817.60 C 483.87 818.47 480.00 817.60 476.25 818.35 C 468.63 818.82 460.98 818.07 453.41 817.62 C 450.06 817.43 446.71 817.17 443.40 816.63 C 430.20 815.02 416.93 812.03 405.00 806.01 C 405.00 748.68 405.00 691.35 405.00 634.03 C 405.03 631.30 404.80 628.54 405.33 625.86 C 406.37 619.06 411.62 613.29 418.06 611.08 C 424.31 608.87 430.87 607.58 437.38 606.37 C 442.03 605.55 446.69 604.69 451.41 604.36 M 454.82 633.33 C 453.87 633.48 452.15 633.64 452.49 635.08 C 452.49 650.75 452.52 666.41 452.48 682.08 C 452.37 686.51 453.91 690.78 456.07 694.59 C 469.85 693.19 484.63 689.97 494.84 679.90 C 505.73 668.55 504.52 648.37 492.77 638.08 C 488.40 634.65 482.90 633.22 477.56 632.11 C 469.97 630.87 462.31 631.94 454.82 633.33 M 456.34 721.29 C 454.14 724.43 452.52 728.07 452.49 731.96 C 452.52 745.58 452.46 759.21 452.52 772.83 C 453.13 778.56 456.01 784.89 461.63 787.19 C 467.17 787.89 472.83 787.37 478.41 787.43 C 479.45 787.20 480.50 787.00 481.56 786.84 C 486.00 786.09 490.40 784.77 494.18 782.25 C 501.24 778.13 504.36 769.79 505.83 762.16 C 506.58 751.30 505.97 739.13 498.65 730.41 C 491.08 722.39 479.59 719.89 468.97 719.38 C 464.69 718.66 460.04 718.74 456.34 721.29 Z" />
<path fill="#000000" opacity="1.00" d=" M 317.41 659.38 C 325.03 658.40 332.76 659.21 340.41 659.60 C 354.15 661.05 368.02 663.73 380.32 670.29 C 380.78 674.53 380.42 678.79 380.01 683.03 C 379.99 728.01 380.01 773.00 380.00 817.98 C 380.95 835.14 374.40 853.07 361.26 864.42 C 349.98 874.42 334.70 878.47 319.95 879.48 C 311.43 879.52 302.87 879.75 294.41 878.65 C 280.94 877.46 267.70 873.94 255.42 868.29 C 258.49 861.58 260.30 854.32 263.90 847.86 C 267.36 842.08 275.36 841.15 281.16 843.63 C 294.90 847.62 310.43 850.01 323.90 843.83 C 332.26 840.08 335.73 830.61 336.50 822.08 C 335.91 819.99 336.53 816.87 334.19 815.77 C 331.78 814.20 328.90 815.39 326.30 815.64 C 316.94 816.77 307.39 817.04 298.06 815.53 C 286.29 813.39 275.34 807.45 266.84 799.08 C 254.37 785.84 247.98 767.61 247.40 749.60 C 246.55 744.93 247.08 740.13 247.19 735.42 C 247.78 724.89 249.27 714.26 253.10 704.36 C 258.36 689.80 268.49 676.78 282.13 669.21 C 292.89 663.20 305.14 660.06 317.41 659.38 M 317.43 686.10 C 311.69 687.11 306.11 689.81 302.42 694.42 C 296.16 702.06 294.12 712.07 292.61 721.58 C 291.16 734.54 291.14 747.65 293.14 760.57 C 294.67 769.11 297.46 778.02 303.92 784.17 C 310.52 790.05 319.84 790.57 328.24 790.50 C 332.33 786.79 336.31 781.86 336.02 776.03 C 335.96 748.67 336.04 721.32 335.98 693.97 C 335.90 692.09 336.28 690.25 336.74 688.46 C 333.93 686.35 330.22 686.49 326.91 685.93 C 323.76 685.25 320.59 685.87 317.43 686.10 Z" />
<path fill="#000000" opacity="1.00" d=" M 631.41 659.36 C 641.58 658.27 652.24 659.01 661.69 663.25 C 674.41 668.45 683.73 679.60 689.23 691.93 C 694.98 704.11 697.32 717.64 698.04 731.00 C 698.96 736.90 694.09 742.48 688.39 743.36 C 683.13 744.09 677.87 744.81 672.63 745.63 C 661.56 747.29 650.47 748.78 639.41 750.41 C 638.46 750.46 637.52 750.51 636.60 750.57 C 627.58 752.23 618.45 753.24 609.39 754.61 C 610.82 763.59 614.30 772.66 620.89 779.14 C 627.71 785.50 637.50 786.48 646.40 786.59 C 647.75 787.07 649.23 787.08 650.60 786.58 C 662.76 786.51 674.78 783.39 685.81 778.34 C 687.19 786.13 692.93 792.97 691.96 801.20 C 691.55 806.47 687.15 810.63 682.31 812.16 C 673.34 815.12 663.96 816.69 654.59 817.65 C 648.62 818.23 642.60 818.77 636.60 818.40 C 634.21 817.92 631.77 818.07 629.39 817.67 C 614.39 815.98 599.37 810.30 588.64 799.39 C 577.22 788.73 571.01 773.68 568.13 758.57 C 565.88 745.57 565.89 732.21 567.92 719.19 C 570.21 704.08 576.62 689.37 587.34 678.34 C 599.07 666.89 615.20 660.62 631.41 659.36 M 613.09 698.04 C 608.45 705.37 607.49 714.18 606.59 722.59 C 606.43 725.70 606.52 728.81 606.46 731.93 C 622.83 729.49 639.20 727.03 655.57 724.58 C 656.30 724.55 657.76 724.50 658.50 724.48 C 658.46 713.82 657.57 702.08 650.65 693.42 C 640.97 681.73 619.99 684.89 613.09 698.04 Z" />
<path fill="#000000" opacity="1.00" d=" M 758.78 662.63 C 773.23 658.33 789.22 657.07 803.60 662.32 C 815.50 666.60 825.09 675.93 830.98 686.98 C 837.33 698.44 840.23 711.49 841.65 724.41 C 842.16 726.89 841.79 729.48 842.52 731.93 C 842.43 737.57 838.10 742.75 832.42 743.37 C 815.14 745.77 797.91 748.56 780.59 750.62 C 771.60 751.85 762.65 753.62 753.62 754.41 C 755.08 763.36 758.20 772.63 765.10 778.87 C 769.08 783.11 774.88 784.82 780.43 785.88 C 797.23 788.71 814.32 784.90 830.00 778.80 C 831.95 785.98 836.06 792.52 836.52 800.09 C 836.27 805.76 832.06 810.38 826.77 812.01 C 817.71 815.17 808.10 816.60 798.59 817.64 C 796.26 818.13 793.86 817.98 791.52 818.13 C 771.11 819.60 748.97 814.73 733.69 800.33 C 724.55 791.36 717.54 780.01 714.44 767.53 C 713.18 762.89 712.47 758.14 711.61 753.42 C 710.62 744.10 710.02 734.71 711.35 725.40 C 712.95 711.64 716.53 697.52 724.99 686.28 C 733.22 674.97 745.15 666.17 758.78 662.63 M 773.55 686.56 C 767.50 687.83 761.82 691.16 758.40 696.41 C 751.25 706.68 750.86 719.68 750.35 731.73 C 768.00 729.72 785.48 726.45 803.10 724.17 C 802.87 720.97 802.45 717.79 802.41 714.59 C 801.44 706.73 799.45 698.54 794.09 692.46 C 788.87 686.97 780.80 685.42 773.55 686.56 Z" />
<path fill="#000000" opacity="1.00" d=" M 196.25 662.11 C 203.17 661.83 210.12 662.09 217.05 661.99 C 221.18 661.77 225.38 663.76 227.73 667.18 C 231.94 672.57 228.96 679.71 230.44 685.89 C 230.58 724.27 230.45 762.65 230.51 801.03 C 230.91 807.85 225.81 814.86 218.75 815.39 C 212.52 815.67 206.28 815.39 200.04 815.52 C 196.14 815.67 191.80 815.05 189.00 812.04 C 186.78 809.58 184.88 806.45 185.00 803.02 C 184.99 760.35 185.02 717.68 184.98 675.01 C 184.52 668.67 189.93 662.58 196.25 662.11 Z" />
</g>
</svg>
