<?xml version="1.0" encoding="UTF-8" ?>
<!DOCTYPE svg PUBLIC "-//W3C//DTD SVG 1.1//EN" "http://www.w3.org/Graphics/SVG/1.1/DTD/svg11.dtd">
<svg width="1075pt" height="1075pt" viewBox="0 0 1075 1075" version="1.1" xmlns="http://www.w3.org/2000/svg">
<g id="#fefefeff">
</g>
<g id="#3f3b3bff">
<path fill="#3f3b3b" opacity="1.00" d=" M 267.43 36.54 C 309.38 36.59 352.09 35.05 393.40 43.33 C 448.61 48.48 498.02 82.60 532.13 124.89 C 555.17 154.76 574.30 187.52 582.33 224.69 C 603.24 314.44 593.07 407.14 596.24 498.46 C 595.45 538.87 600.48 579.54 596.43 619.99 C 597.39 684.23 599.51 750.76 578.49 812.60 C 569.49 839.24 556.61 865.28 538.22 886.30 C 529.24 903.35 513.46 913.78 500.42 925.84 C 481.72 941.77 458.83 950.37 435.99 958.97 C 416.79 964.23 396.89 972.08 377.67 972.36 C 355.45 973.63 334.47 975.66 312.92 977.44 C 270.04 984.59 223.82 982.44 187.00 963.50 C 163.36 955.67 144.09 937.72 124.60 922.40 C 93.73 889.43 64.56 851.34 53.26 806.72 C 43.75 791.50 44.65 772.53 39.07 755.92 C 27.42 685.24 34.46 612.94 32.39 542.33 C 36.01 532.57 31.60 522.72 32.63 512.65 C 32.61 476.83 32.50 440.81 32.38 405.21 C 32.54 351.19 30.19 297.06 39.81 243.65 C 50.72 201.44 67.37 157.61 95.70 121.77 C 108.07 107.68 120.41 94.66 134.29 82.29 C 159.46 64.73 186.86 48.53 217.39 43.31 C 233.68 38.17 250.44 38.87 267.43 36.54 M 149.92 97.83 C 107.54 130.90 80.99 179.73 64.43 230.42 C 55.09 268.36 53.95 307.57 53.32 346.62 C 56.00 379.43 53.68 412.00 53.46 444.69 C 55.17 457.98 54.77 471.64 53.92 484.76 C 53.49 524.42 53.29 564.04 53.26 603.52 C 54.09 649.89 52.49 696.25 58.81 742.26 C 65.81 796.05 89.26 847.97 123.16 889.69 C 134.13 901.42 144.01 914.72 158.23 922.88 C 170.62 928.94 180.95 938.40 193.52 944.45 C 221.78 956.90 253.73 963.34 284.86 957.66 C 300.17 955.33 311.36 950.75 324.48 946.56 C 370.72 925.54 408.26 890.45 428.07 843.08 C 438.54 824.47 444.75 802.61 449.63 781.64 C 460.42 720.14 454.50 656.94 457.29 595.64 C 455.87 556.02 459.18 516.44 455.22 476.97 C 456.55 441.82 455.07 406.84 455.62 371.60 C 455.80 322.36 454.05 273.25 444.08 224.99 C 431.81 187.87 413.29 148.91 386.46 122.33 C 356.59 90.12 313.37 65.42 268.54 60.78 C 226.34 58.99 182.59 70.26 149.92 97.83 M 348.77 63.00 C 360.49 74.42 376.79 80.36 387.21 92.83 C 410.24 109.67 425.06 136.03 440.36 158.75 C 451.01 176.69 455.80 196.91 463.58 216.43 C 468.52 251.76 477.08 286.98 475.41 322.86 C 477.24 366.03 476.33 409.20 476.43 452.37 C 474.58 508.47 480.60 562.72 476.49 618.22 C 479.41 635.77 475.09 653.53 476.67 671.17 C 478.78 688.80 476.70 706.39 476.16 724.02 C 474.11 760.91 470.08 797.98 456.52 832.43 C 442.65 874.04 416.28 910.81 381.56 937.70 C 379.62 943.64 373.19 942.48 372.61 947.47 C 397.77 949.35 417.55 932.26 438.03 921.03 C 488.10 886.31 515.86 828.26 528.26 770.17 C 539.51 710.75 533.13 649.98 536.19 590.01 C 536.89 544.22 533.89 498.67 534.99 452.98 C 532.68 383.16 539.15 311.92 524.33 243.79 C 516.78 200.47 494.90 158.79 467.60 127.37 C 450.71 102.93 424.83 89.52 399.28 75.68 C 383.78 69.00 366.54 61.76 348.77 63.00 M 474.07 98.68 C 485.01 117.48 503.17 130.91 511.94 151.02 C 523.00 171.88 534.98 192.09 540.52 215.02 C 548.53 245.77 552.60 277.54 555.38 309.24 C 557.16 382.34 556.71 455.61 557.09 529.03 C 562.18 527.64 576.36 531.19 575.05 522.02 C 573.12 448.32 576.58 373.60 571.38 300.16 C 568.93 251.96 557.78 203.89 532.17 161.82 C 516.80 139.04 496.43 116.53 474.07 98.68 M 560.23 557.62 C 558.61 557.81 556.25 557.67 556.99 560.03 C 559.28 597.46 555.67 634.87 558.32 672.34 C 555.54 724.33 555.51 779.13 534.19 828.18 C 530.42 844.84 518.64 857.22 512.78 872.80 C 506.31 883.49 498.68 893.44 490.92 903.22 C 494.26 902.26 497.01 899.95 499.39 897.50 C 515.51 879.83 532.74 863.02 541.73 840.32 C 556.73 818.27 563.02 790.50 569.01 764.02 C 575.20 725.16 575.15 685.81 574.63 646.59 C 573.56 616.94 576.86 587.33 575.57 557.57 C 570.45 557.51 565.34 557.63 560.23 557.62 Z" />
<path fill="#3f3b3b" opacity="1.00" d=" M 444.25 103.25 C 444.79 103.79 444.79 103.79 444.25 103.25 Z" />
<path fill="#3f3b3b" opacity="1.00" d=" M 831.22 208.64 C 873.36 208.36 916.88 206.60 956.14 223.80 C 1002.93 245.05 1027.66 294.16 1033.74 344.12 C 1034.89 409.37 1034.95 474.78 1036.42 539.62 C 1036.97 582.45 1036.17 625.16 1033.69 667.84 C 1034.94 701.06 1027.36 734.43 1010.66 762.83 C 999.46 781.25 981.86 795.42 963.51 806.48 C 930.67 823.63 892.27 818.76 856.32 821.48 C 829.19 824.24 802.92 823.21 778.02 812.00 C 761.00 798.90 741.92 786.71 730.30 768.64 C 715.38 749.04 705.10 725.79 701.64 701.39 C 694.68 646.92 703.15 591.47 698.46 536.76 C 699.20 473.32 698.72 410.47 698.51 347.17 C 701.54 299.83 723.50 248.76 766.13 226.05 C 786.51 215.26 808.66 210.13 831.22 208.64 M 819.43 231.51 C 758.93 232.86 721.34 294.99 719.68 350.52 C 719.54 429.59 719.79 508.63 721.37 587.78 C 722.76 608.18 718.83 628.35 721.36 648.78 C 714.46 703.37 737.67 764.18 786.39 791.59 C 807.15 803.74 833.97 805.33 856.10 795.17 C 883.43 788.86 900.34 763.66 912.30 740.20 C 927.85 702.23 923.76 660.10 923.38 619.89 C 924.65 552.67 922.11 485.05 923.00 417.97 C 918.58 385.05 928.29 350.38 917.56 318.50 C 912.91 301.90 904.17 285.96 894.23 272.56 C 876.50 250.63 849.66 229.33 819.43 231.51 M 893.10 236.88 C 897.62 247.11 907.01 254.32 914.11 262.73 C 927.54 282.77 938.53 306.72 941.62 331.31 C 945.86 353.04 941.64 375.09 943.05 397.02 C 945.58 485.77 943.44 574.25 944.84 662.99 C 944.97 691.64 944.43 721.99 930.94 747.95 C 926.59 766.28 912.03 779.79 901.74 794.96 C 917.39 792.82 931.41 784.06 941.08 773.10 C 970.32 747.82 978.57 705.83 979.35 668.64 C 977.47 591.81 979.23 514.76 978.19 437.93 C 979.75 423.15 975.02 408.42 977.08 393.78 C 977.85 352.10 974.53 306.39 948.97 272.08 C 934.25 255.90 915.73 240.56 893.10 236.88 M 955.84 250.92 C 984.69 278.78 996.74 319.03 997.49 358.52 C 998.36 439.75 1000.10 520.97 999.29 602.38 C 998.59 631.53 1001.43 661.31 998.78 690.14 C 996.75 719.95 988.12 750.69 968.94 773.16 C 978.05 773.14 981.36 763.45 987.71 758.70 C 993.79 747.69 1001.29 737.57 1004.59 725.22 C 1013.87 709.95 1011.38 691.48 1014.84 674.62 C 1015.34 638.53 1011.89 602.68 1014.36 566.48 C 1012.61 531.84 1013.68 497.12 1013.73 462.48 C 1010.12 419.17 1015.91 375.42 1009.14 332.32 C 1005.16 306.32 994.30 280.34 974.73 262.31 C 971.06 256.05 962.83 252.94 955.84 250.92 Z" />
<path fill="#3f3b3b" opacity="1.00" d=" M 272.41 442.48 C 284.99 441.83 279.28 459.32 280.53 467.67 C 283.30 478.02 272.15 486.21 263.65 487.51 C 255.99 487.89 264.02 473.11 256.61 475.56 C 248.17 480.05 239.02 482.75 232.04 489.00 C 222.63 484.20 212.86 480.97 203.87 475.09 C 200.63 490.17 202.05 505.94 201.34 521.21 C 198.59 526.92 182.25 538.22 181.46 525.68 C 181.60 500.64 180.99 475.32 181.12 450.22 C 199.83 440.75 217.10 456.41 232.62 460.58 C 247.73 457.37 256.22 441.01 272.41 442.48 Z" />
<path fill="#3f3b3b" opacity="1.00" d=" M 277.46 494.40 C 278.89 493.83 281.04 496.29 280.72 497.90 C 279.67 514.99 282.67 533.37 273.82 548.82 C 265.73 566.30 249.13 581.90 228.94 580.89 C 216.26 581.43 205.58 574.67 196.76 566.21 C 193.43 558.57 182.19 548.66 191.45 541.54 C 196.40 540.39 203.54 533.10 206.69 540.29 C 211.70 550.24 223.19 556.34 233.99 555.03 C 244.91 554.25 251.03 544.53 256.30 536.17 C 261.58 525.81 257.72 513.04 262.73 502.74 C 265.91 496.97 272.53 497.40 277.46 494.40 Z" />
<path fill="#3f3b3b" opacity="1.00" d=" M 54.25 530.25 C 54.79 530.79 54.79 530.79 54.25 530.25 Z" />
<path fill="#3f3b3b" opacity="1.00" d=" M 54.25 546.25 C 54.79 546.79 54.79 546.79 54.25 546.25 Z" />
<path fill="#3f3b3b" opacity="1.00" d=" M 558.25 559.25 C 558.79 559.79 558.79 559.79 558.25 559.25 Z" />
<path fill="#3f3b3b" opacity="1.00" d=" M 54.25 584.25 C 54.79 584.79 54.79 584.79 54.25 584.25 Z" />
<path fill="#3f3b3b" opacity="1.00" d=" M 54.25 591.25 C 54.79 591.79 54.79 591.79 54.25 591.25 Z" />
<path fill="#3f3b3b" opacity="1.00" d=" M 551.25 870.25 C 551.79 870.78 551.79 870.78 551.25 870.25 Z" />
<path fill="#3f3b3b" opacity="1.00" d=" M 113.25 875.25 C 113.79 875.78 113.79 875.78 113.25 875.25 Z" />
<path fill="#3f3b3b" opacity="1.00" d=" M 117.25 881.25 C 117.79 881.78 117.79 881.78 117.25 881.25 Z" />
<path fill="#3f3b3b" opacity="1.00" d=" M 123.16 889.69 C 123.54 889.65 123.54 889.65 123.16 889.69 Z" />
<path fill="#3f3b3b" opacity="1.00" d=" M 400.25 941.25 C 400.79 941.78 400.79 941.78 400.25 941.25 Z" />
<path fill="#3f3b3b" opacity="1.00" d=" M 394.25 942.25 C 394.79 942.78 394.79 942.78 394.25 942.25 Z" />
<path fill="#3f3b3b" opacity="1.00" d=" M 461.25 950.25 C 461.79 950.78 461.79 950.78 461.25 950.25 Z" />
<path fill="#3f3b3b" opacity="1.00" d=" M 418.25 965.25 C 418.79 965.78 418.79 965.78 418.25 965.25 Z" />
</g>
</svg>
