<?xml version="1.0" encoding="UTF-8" standalone="no"?>
<svg
   xmlns:dc="http://purl.org/dc/elements/1.1/"
   xmlns:cc="http://creativecommons.org/ns#"
   xmlns:rdf="http://www.w3.org/1999/02/22-rdf-syntax-ns#"
   xmlns:svg="http://www.w3.org/2000/svg"
   xmlns="http://www.w3.org/2000/svg"
   xmlns:sodipodi="http://sodipodi.sourceforge.net/DTD/sodipodi-0.dtd"
   xmlns:inkscape="http://www.inkscape.org/namespaces/inkscape"
   width="1075pt"
   height="1075pt"
   viewBox="0 0 1075 1075"
   version="1.1"
   id="svg2"
   inkscape:version="0.91 r13725"
   sodipodi:docname="xiaomi_door_icon.svg">
  <metadata
     id="metadata46">
    <rdf:RDF>
      <cc:Work
         rdf:about="">
        <dc:format>image/svg+xml</dc:format>
        <dc:type
           rdf:resource="http://purl.org/dc/dcmitype/StillImage" />
      </cc:Work>
    </rdf:RDF>
  </metadata>
  <defs
     id="defs44" />
  <sodipodi:namedview
     pagecolor="#ffffff"
     bordercolor="#666666"
     borderopacity="1"
     objecttolerance="10"
     gridtolerance="10"
     guidetolerance="10"
     inkscape:pageopacity="0"
     inkscape:pageshadow="2"
     inkscape:window-width="1443"
     inkscape:window-height="757"
     id="namedview42"
     showgrid="false"
     inkscape:zoom="0.30009657"
     inkscape:cx="671.875"
     inkscape:cy="660.92443"
     inkscape:window-x="0"
     inkscape:window-y="0"
     inkscape:window-maximized="0"
     inkscape:current-layer="svg2" />
  <g
     id="#fefefeff" />
  <g
     id="#3f3b3bff">
    <path
       style="opacity:1;fill:#000000"
       d="m 267.43,36.54 c 76.27718,-0.04636 162.23126,-3.418428 224.48621,48.479512 60.84345,47.487538 96.08545,122.403628 100.13927,198.947088 8.08329,99.13574 -0.0251,198.76077 3.99064,298.05172 -2.5508,90.5311 10.68814,186.79669 -34.16987,269.53918 -26.15641,48.33064 -68.05219,89.59622 -121.6042,105.79821 -50.91326,20.42107 -106.58932,15.76126 -159.93924,23.58601 C 198.54856,987.68595 122.95703,936.68431 81.59125,868.92875 30.467302,790.09741 30.391725,692.93103 32.593192,602.23459 34.423664,497.95045 29.557536,393.31777 34.211521,288.86708 40.154604,188.88551 96.860685,84.01969 195.06531,49.133437 218.43333,41.032287 242.9192,38.446671 267.43,36.54 Z M 149.92,97.83 c -64.899387,52.33732 -97.185857,137.36854 -95.911719,219.49484 0.103584,75.647 0.523461,151.21042 -0.568281,226.88266 2.815783,90.48482 -10.36982,185.83762 25.439275,271.60406 21.088472,48.74754 53.193715,95.59724 101.217715,120.75272 63.54956,41.62146 150.65467,22.90218 202.74309,-28.65395 55.62758,-52.9953 74.88357,-132.96229 73.48528,-207.66379 0.62469,-87.61957 1.09544,-175.23476 -0.53934,-262.77125 -2.01224,-75.4087 5.61867,-153.34477 -16.60426,-226.46377 C 412.55161,129.01109 335.19591,55.137684 244.72228,61.171904 210.49551,63.737026 176.33463,75.480788 149.92,97.83 Z M 348.77,63 c 34.07157,23.004427 65.68896,50.52001 85.85803,87.08508 36.59021,58.33811 40.67754,129.9319 41.54708,197.05805 -0.0656,81.72812 0.39021,163.43317 1.56817,245.14097 -3.36596,87.82691 8.92051,180.75613 -30.31616,263.00783 -8.77637,36.40231 -62.37517,72.49558 -70.16118,92.31433 33.46883,-3.98524 62.31185,-26.46817 86.62124,-48.41332 60.40571,-61.95458 74.44041,-152.6938 71.43239,-235.84256 1.34749,-111.76426 -0.90548,-223.51779 -1.45263,-335.29085 C 532.59404,254.72312 515.45415,178.27221 464.33005,122.91396 436.4376,91.870765 396.83066,68.992933 355.40654,62.914844 Z m 125.3,35.68 c 33.32167,40.55492 63.04052,86.72487 71.76016,139.57672 17.47746,91.24304 9.77561,199.19871 11.19757,292.15282 11.8409,0.76457 7.34308,0.62278 16.95156,-0.17147 C 572.76152,438.83691 581.52797,317.83989 560.46,228.69125 547.72728,176.48371 515.9042,131.85052 474.07,98.68 Z m 84.51391,458.94 c -0.71125,38.71271 -0.21107,77.67507 -0.26391,114.72 -2.17443,66.65156 -6.06336,136.94921 -43.09221,194.75289 -8.74219,17.81405 -36.55416,51.42219 -6.71485,20.51394 C 562.91617,832.22747 578.2623,750.89589 576.15859,676.01969 574.63707,636.51955 576.26206,597.05588 575.57,557.57 l -7.67375,0.006 c -4.48298,0.48012 -4.5177,0.10038 -9.31234,0.044 z"
       id="path6"
       inkscape:connector-curvature="0"
       sodipodi:nodetypes="ccccccccccccccccccccccccccccccccccccccccccccccccc" />
    <path
       fill="#3f3b3b"
       opacity="1.00"
       d=" M 444.25 103.25 C 444.79 103.79 444.79 103.79 444.25 103.25 Z"
       id="path8" />
    <path
       style="opacity:1;fill:#000000"
       d="m 831.22,208.64 c 53.20391,-0.47467 114.14976,-3.06072 155.92953,35.89922 35.98047,33.85176 49.66567,85.06627 47.09957,133.23578 0.2114,97.72575 5.0699,195.5317 -0.4678,293.17966 1.1473,50.20049 -18.1378,104.80933 -63.43624,131.22983 -38.3834,24.91123 -86.18003,15.00106 -129.19162,20.40616 -29.44596,1.61965 -60.90636,-3.96147 -82.64797,-25.30231 -39.28034,-29.06202 -60.22075,-78.31309 -59.34155,-126.62974 -1.03624,-48.59669 2.23362,-97.23585 -0.5791,-145.78694 1.10693,-62.19261 -0.98424,-124.47956 0.71557,-186.61379 5.12841,-52.69162 36.60596,-107.51309 90.43211,-122.06533 13.43685,-4.2679 27.43436,-6.62704 41.4875,-7.55254 z m -11.79,22.87 c -56.21342,1.04803 -94.13124,56.85401 -99.02087,108.53723 -2.04196,88.88307 0.22153,177.90385 1.0649,266.80534 -0.67986,27.84644 -2.23187,55.6688 0.28472,83.41712 6.68098,50.16534 41.36742,103.19138 94.45831,111.10378 33.67638,2.76762 69.30465,-13.48265 86.09935,-43.57456 31.04433,-46.3901 19.21107,-104.43998 21.32628,-156.82431 0.0784,-63.05549 -0.57883,-126.20231 -1.31429,-189.1965 -2.11736,-37.27706 6.75721,-76.85601 -11.57272,-111.57552 C 894.27667,265.0162 861.06454,230.12728 819.43,231.51 Z m 73.67,5.37 c 16.65335,22.35553 36.57898,43.43166 43.4753,71.66417 12.13948,36.76491 3.87092,75.631 7.06989,113.43009 1.14914,89.38655 0.74512,178.80925 0.74564,268.18731 -1.27228,36.19168 -14.48216,72.00935 -38.62021,99.17484 -7.10209,12.71573 25.64729,-4.34662 31.48454,-12.23817 38.66017,-32.32163 44.23518,-86.56102 41.60017,-133.6754 C 977.45145,567.56556 979.9283,491.5778 977.4475,415.8025 976.79131,369.59566 979.73063,319.33906 953.50631,278.64295 939.24565,258.65302 917.77524,241.32972 893.1,236.88 Z m 62.74,14.04 c 36.12881,34.294 43.8296,86.75503 41.96222,134.2535 1.73812,98.02985 1.75919,196.09394 1.73182,294.1138 -1.31226,33.18209 -8.54412,67.91393 -30.59404,93.8727 22.64444,-8.55015 30.28368,-36.47261 39.7454,-56.83517 12.0787,-49.13895 1.7075,-99.93764 5.6746,-149.84483 -2.1126,-48.22186 0.3059,-96.49384 -1.9306,-144.69877 -0.1439,-51.58713 5.2926,-110.29687 -30.76536,-152.35281 C 974.48302,261.20018 967.1796,252.91119 955.84,250.92 Z"
       id="path10"
       inkscape:connector-curvature="0" />
    <path
       style="opacity:1;fill:#000000"
       d="m 272.41,442.48 c 6.37974,-1.0067 8.97235,6.09832 8.3615,11.2667 -0.19628,5.91036 -0.79762,11.83834 0.17711,17.69406 -0.72323,8.71018 -9.27354,14.6326 -17.29861,16.06924 -5.74903,-0.38586 -2.68712,-7.45377 -3.89109,-11.06297 -4.31234,-2.88921 -9.67298,3.53935 -14.39293,4.42542 -5.1231,1.60274 -9.81804,6.39392 -14.20919,7.68202 -9.07576,-4.52353 -18.77027,-7.86848 -27.28679,-13.46447 -3.24372,15.16424 -1.81748,30.7494 -2.53,46.12 -3.23257,5.08869 -8.69501,9.24373 -14.73659,10.1462 -5.29675,0.362 -5.44276,-6.00279 -5.12693,-9.78676 0.0585,-23.78393 -0.47912,-47.56539 -0.35648,-71.34944 9.47334,-5.12439 20.8137,-2.8799 30.15108,1.35567 7.12224,2.97971 13.87539,6.91967 21.34892,9.00433 14.69457,-2.96858 23.76226,-19.64333 39.79,-18.1 z"
       id="path12"
       inkscape:connector-curvature="0" />
    <path
       style="opacity:1;fill:#000000"
       d="m 277.46,494.4 c 5.6594,0.94246 2.19893,8.45611 2.99679,12.40493 -0.0828,14.15042 0.67698,29.30176 -6.63679,42.01507 -7.06407,15.19534 -20.34876,28.97901 -37.48664,31.69893 -8.78637,1.15491 -18.099,0.33839 -25.92974,-4.10944 -5.03393,-2.68243 -9.53612,-6.2636 -13.64362,-10.19949 -2.73785,-6.35388 -8.95234,-11.54357 -8.85516,-18.88594 0.24768,-5.14133 5.47153,-6.33524 9.17516,-8.30902 3.34602,-2.4609 8.92437,-2.65948 10.09845,2.19638 6.35646,11.57096 22.03799,17.60593 34.16327,11.71827 7.15511,-4.00621 11.75936,-11.25675 15.64239,-18.23195 4.3732,-10.34649 0.77034,-22.40945 6.05394,-32.48081 3.10617,-5.114 9.77061,-4.98322 14.42195,-7.81693 z"
       id="path14"
       inkscape:connector-curvature="0" />
    <path
       fill="#3f3b3b"
       opacity="1.00"
       d=" M 54.25 530.25 C 54.79 530.79 54.79 530.79 54.25 530.25 Z"
       id="path16" />
    <path
       fill="#3f3b3b"
       opacity="1.00"
       d=" M 54.25 546.25 C 54.79 546.79 54.79 546.79 54.25 546.25 Z"
       id="path18" />
    <path
       fill="#3f3b3b"
       opacity="1.00"
       d=" M 558.25 559.25 C 558.79 559.79 558.79 559.79 558.25 559.25 Z"
       id="path20" />
    <path
       fill="#3f3b3b"
       opacity="1.00"
       d=" M 54.25 584.25 C 54.79 584.79 54.79 584.79 54.25 584.25 Z"
       id="path22" />
    <path
       fill="#3f3b3b"
       opacity="1.00"
       d=" M 54.25 591.25 C 54.79 591.79 54.79 591.79 54.25 591.25 Z"
       id="path24" />
    <path
       fill="#3f3b3b"
       opacity="1.00"
       d=" M 551.25 870.25 C 551.79 870.78 551.79 870.78 551.25 870.25 Z"
       id="path26" />
    <path
       fill="#3f3b3b"
       opacity="1.00"
       d=" M 113.25 875.25 C 113.79 875.78 113.79 875.78 113.25 875.25 Z"
       id="path28" />
    <path
       fill="#3f3b3b"
       opacity="1.00"
       d=" M 117.25 881.25 C 117.79 881.78 117.79 881.78 117.25 881.25 Z"
       id="path30" />
    <path
       fill="#3f3b3b"
       opacity="1.00"
       d=" M 123.16 889.69 C 123.54 889.65 123.54 889.65 123.16 889.69 Z"
       id="path32" />
    <path
       fill="#3f3b3b"
       opacity="1.00"
       d=" M 400.25 941.25 C 400.79 941.78 400.79 941.78 400.25 941.25 Z"
       id="path34" />
    <path
       fill="#3f3b3b"
       opacity="1.00"
       d=" M 394.25 942.25 C 394.79 942.78 394.79 942.78 394.25 942.25 Z"
       id="path36" />
    <path
       fill="#3f3b3b"
       opacity="1.00"
       d=" M 461.25 950.25 C 461.79 950.78 461.79 950.78 461.25 950.25 Z"
       id="path38" />
    <path
       fill="#3f3b3b"
       opacity="1.00"
       d=" M 418.25 965.25 C 418.79 965.78 418.79 965.78 418.25 965.25 Z"
       id="path40" />
  </g>
</svg>
