<?xml version="1.0" encoding="UTF-8" standalone="no"?>
<svg
   xmlns:dc="http://purl.org/dc/elements/1.1/"
   xmlns:cc="http://creativecommons.org/ns#"
   xmlns:rdf="http://www.w3.org/1999/02/22-rdf-syntax-ns#"
   xmlns:svg="http://www.w3.org/2000/svg"
   xmlns="http://www.w3.org/2000/svg"
   xmlns:sodipodi="http://sodipodi.sourceforge.net/DTD/sodipodi-0.dtd"
   xmlns:inkscape="http://www.inkscape.org/namespaces/inkscape"
   width="464pt"
   height="324pt"
   viewBox="0 0 464 324"
   version="1.1"
   id="svg2"
   inkscape:version="0.91 r13725"
   sodipodi:docname="learn_door.svg">
  <metadata
     id="metadata15">
    <rdf:RDF>
      <cc:Work
         rdf:about="">
        <dc:format>image/svg+xml</dc:format>
        <dc:type
           rdf:resource="http://purl.org/dc/dcmitype/StillImage" />
      </cc:Work>
    </rdf:RDF>
  </metadata>
  <defs
     id="defs13" />
  <sodipodi:namedview
     pagecolor="#ffffff"
     bordercolor="#666666"
     borderopacity="1"
     objecttolerance="10"
     gridtolerance="10"
     guidetolerance="10"
     inkscape:pageopacity="0"
     inkscape:pageshadow="2"
     inkscape:window-width="699"
     inkscape:window-height="480"
     id="namedview11"
     showgrid="false"
     inkscape:zoom="0.53448276"
     inkscape:cx="290"
     inkscape:cy="202.5"
     inkscape:window-x="0"
     inkscape:window-y="0"
     inkscape:window-maximized="0"
     inkscape:current-layer="svg2" />
  <g
     id="#ffffffff" />
  <g
     id="#686868ff">
    <path
       fill="#686868"
       opacity="1.00"
       d=" M 198.76 16.87 C 204.82 14.03 211.85 15.61 217.64 18.36 C 225.11 21.62 231.91 26.16 239.05 30.05 C 249.75 36.09 261.55 39.68 272.90 44.23 C 288.11 49.79 303.29 55.42 318.59 60.72 C 327.75 63.75 337.25 58.87 346.50 61.06 C 354.38 62.70 361.99 65.59 370.03 66.48 C 375.37 67.47 380.82 67.52 386.18 68.34 C 391.27 68.94 396.73 67.52 401.43 70.12 C 387.85 70.97 374.06 70.98 360.75 67.76 C 353.52 66.27 346.46 63.23 338.98 63.55 C 330.94 64.59 322.27 66.09 314.56 62.72 C 297.86 57.15 281.35 51.05 264.79 45.06 C 257.46 42.06 249.89 39.62 242.76 36.16 C 233.87 31.90 225.74 26.22 216.79 22.09 C 212.18 19.99 206.95 18.57 201.91 19.87 C 196.99 21.42 193.19 25.06 189.35 28.32 C 180.51 36.16 171.99 44.46 162.07 50.95 C 146.80 60.87 132.41 72.04 117.49 82.45 C 112.93 85.36 110.25 90.58 110.35 95.97 C 110.29 107.44 112.81 118.76 112.70 130.25 C 113.46 139.85 110.39 149.13 110.09 158.68 C 115.58 154.52 123.21 154.04 129.01 157.88 C 132.55 155.22 137.87 153.77 138.86 148.87 C 141.83 138.78 144.11 128.44 145.31 117.98 C 145.31 116.19 146.02 114.00 144.46 112.64 C 141.83 109.89 139.03 107.28 136.85 104.14 C 139.85 106.39 142.84 108.67 146.00 110.71 C 154.16 108.22 162.30 104.48 168.08 98.00 C 166.61 93.79 166.12 89.33 166.15 84.89 C 166.90 88.31 167.01 91.99 168.74 95.12 C 169.61 96.93 171.79 97.18 173.51 97.68 C 180.31 99.13 187.29 99.83 194.23 99.24 C 197.37 104.52 198.71 110.53 198.97 116.62 C 201.47 114.08 203.40 111.10 205.31 108.11 C 202.02 118.60 192.80 125.20 184.24 131.23 C 176.54 136.65 168.79 142.09 160.34 146.29 C 149.51 151.02 138.31 155.50 129.06 163.04 C 122.39 168.69 116.00 174.90 111.47 182.44 C 109.91 185.34 108.27 188.55 108.70 191.95 C 109.12 194.86 111.29 197.00 113.27 198.98 C 113.57 195.80 113.35 192.47 114.75 189.51 C 117.73 182.58 124.10 178.04 130.20 174.04 C 135.33 178.31 138.92 184.02 142.01 189.85 C 149.35 189.26 156.57 187.60 163.68 185.71 C 174.30 181.97 184.73 177.22 195.99 175.72 C 205.62 174.72 215.15 173.02 224.73 171.62 C 231.84 170.72 238.88 172.68 245.98 172.93 C 262.10 174.03 278.91 174.16 294.21 168.29 C 298.98 166.69 304.06 166.68 308.97 165.80 C 315.96 164.78 322.83 163.05 329.55 160.88 C 343.60 156.37 358.26 153.29 373.06 153.35 C 380.86 152.08 388.77 152.58 396.64 152.48 C 396.64 152.99 396.65 154.01 396.65 154.52 C 391.27 154.55 385.84 154.18 380.52 155.07 C 375.59 155.88 370.56 155.18 365.66 156.16 C 357.93 157.12 350.25 158.48 342.69 160.35 C 333.94 162.37 325.71 166.24 316.80 167.65 C 308.79 169.46 300.37 169.44 292.66 172.46 C 284.09 175.40 275.02 176.48 266.02 176.81 C 259.31 178.21 252.60 176.43 245.87 176.50 C 240.19 176.40 234.63 175.13 228.97 174.85 C 222.24 175.34 215.66 177.01 208.99 177.93 C 201.20 179.35 193.12 179.31 185.60 181.97 C 179.29 184.15 172.97 186.32 166.75 188.76 C 160.59 191.16 153.99 192.02 147.52 193.17 C 138.70 194.40 131.94 200.88 123.77 203.85 C 120.37 205.08 116.72 204.36 113.22 204.10 C 110.56 207.46 107.84 211.19 103.62 212.66 C 99.25 214.48 94.51 213.09 90.16 211.98 C 86.10 217.16 81.87 222.22 78.13 227.64 C 85.19 235.33 88.61 245.73 89.30 256.01 C 89.41 263.27 87.41 270.93 82.21 276.23 C 76.35 282.36 70.05 288.06 64.09 294.09 C 61.18 296.91 58.48 300.19 54.58 301.66 C 48.58 304.11 42.37 305.98 36.35 308.37 C 31.74 310.76 26.79 307.61 23.13 304.85 C 16.02 298.41 12.10 289.08 10.56 279.76 C 10.05 273.93 9.65 267.67 12.41 262.30 C 15.12 256.95 19.15 252.45 22.57 247.56 C 26.47 242.44 29.99 237.04 34.06 232.05 C 37.13 228.12 42.26 227.14 46.74 225.67 C 51.91 224.18 56.94 222.26 62.14 220.89 C 66.92 219.67 71.27 222.80 75.29 224.91 C 79.40 220.01 83.21 214.86 87.16 209.83 C 83.42 204.21 81.49 196.47 85.49 190.47 C 90.98 182.71 97.32 175.58 102.83 167.84 C 106.22 161.36 106.18 153.84 107.41 146.79 C 110.17 133.88 108.32 120.61 107.02 107.65 C 106.30 100.68 105.26 93.10 108.51 86.59 C 110.14 83.06 113.20 80.49 116.34 78.33 C 130.47 68.53 144.05 57.93 158.49 48.57 C 166.13 43.70 173.04 37.80 179.73 31.72 C 185.83 26.50 191.41 20.38 198.76 16.87 M 163.34 105.31 C 158.64 108.73 153.11 110.70 147.74 112.80 C 147.61 117.12 147.33 121.43 147.12 125.75 C 154.08 129.43 160.49 134.07 166.17 139.51 C 173.61 135.03 181.05 130.49 187.95 125.20 C 186.01 119.71 181.75 114.84 176.01 113.32 C 172.30 114.24 168.76 115.91 164.88 116.13 C 167.55 115.10 170.47 114.60 172.90 113.01 C 176.50 110.29 177.82 105.74 178.96 101.59 C 176.10 100.86 173.20 99.30 170.21 99.69 C 167.80 101.40 165.78 103.61 163.34 105.31 M 177.08 111.35 C 182.46 114.33 186.89 118.66 189.70 124.16 C 191.88 122.45 194.30 120.95 196.07 118.78 C 196.84 116.89 196.42 114.76 196.57 112.77 C 195.54 112.50 194.52 112.23 193.49 111.96 C 194.28 110.70 195.24 109.49 195.56 108.01 C 194.98 105.80 193.89 103.78 192.98 101.70 C 188.97 101.70 184.97 101.45 180.96 101.50 C 178.97 104.38 178.67 108.20 177.08 111.35 M 147.69 130.82 C 146.20 137.04 143.94 143.07 142.92 149.41 C 149.38 146.95 155.69 144.13 161.89 141.08 C 157.76 136.89 152.93 133.46 147.69 130.82 M 107.69 168.50 C 106.88 172.40 107.30 176.43 107.66 180.36 C 112.85 172.75 119.36 166.24 126.09 159.99 C 123.20 159.37 120.16 158.09 117.22 159.21 C 112.70 160.42 109.61 164.47 107.69 168.50 M 91.91 187.88 C 89.77 190.64 87.46 193.47 86.69 196.97 C 85.69 203.75 92.00 210.86 99.00 209.82 C 104.13 210.19 107.38 205.69 110.13 202.08 C 108.00 199.30 105.49 196.57 104.74 193.03 C 104.27 189.85 105.28 186.60 104.51 183.45 C 103.81 180.52 103.03 177.61 102.38 174.66 C 98.79 178.99 95.41 183.49 91.91 187.88 M 115.85 191.15 C 114.69 194.26 115.70 197.54 116.58 200.58 C 119.44 200.49 122.41 200.39 124.98 199.00 C 130.24 196.32 135.45 193.52 140.41 190.32 C 137.58 185.18 134.62 180.01 130.15 176.10 C 124.28 179.80 118.28 184.38 115.85 191.15 M 50.49 228.89 C 54.29 231.91 58.05 235.13 60.73 239.24 C 65.41 246.25 67.24 254.71 68.32 262.96 C 68.69 270.27 66.81 278.18 61.53 283.53 C 56.21 289.26 50.29 294.43 45.45 300.59 C 49.89 299.52 54.50 298.17 57.81 294.83 C 64.79 288.15 71.64 281.31 78.52 274.52 C 82.47 270.73 84.91 265.51 85.18 260.04 C 85.81 249.60 82.80 238.55 75.53 230.82 C 73.31 233.48 71.40 236.47 68.66 238.63 C 67.44 239.69 64.63 240.59 64.60 238.11 C 67.37 234.76 70.48 231.68 72.84 228.00 C 69.84 226.36 66.70 223.97 63.07 224.68 C 58.70 225.49 54.60 227.28 50.49 228.89 M 45.39 230.26 C 41.69 230.97 38.30 232.98 36.07 236.04 C 30.78 243.11 25.67 250.32 20.38 257.39 C 17.90 260.71 15.29 264.20 14.72 268.43 C 13.57 277.23 15.17 286.49 19.81 294.12 C 22.31 298.43 25.63 302.73 30.42 304.56 C 35.02 305.48 39.83 303.31 42.96 299.96 C 47.58 295.24 52.10 290.43 56.71 285.70 C 59.84 282.41 63.25 279.10 64.79 274.71 C 66.80 268.93 66.56 262.61 65.40 256.68 C 63.57 247.68 59.60 238.57 52.21 232.77 C 50.24 231.39 47.97 229.47 45.39 230.26 Z"
       id="path6"
       style="fill:#000000" />
  </g>
  <g
     id="#21a5fbff">
    <path
       fill="#21a5fb"
       opacity="1.00"
       d=" M 42.41 253.32 C 44.47 253.39 47.20 252.84 48.23 255.20 C 49.18 257.93 46.31 260.59 43.65 259.46 C 41.22 258.30 41.90 255.40 42.41 253.32 Z"
       id="path9" />
  </g>
</svg>
