<?xml version="1.0" encoding="utf-8"?>
<!-- Generator: Adobe Illustrator 25.2.1, SVG Export Plug-In . SVG Version: 6.00 Build 0)  -->
<svg version="1.1" id="Laag_1" xmlns="http://www.w3.org/2000/svg" xmlns:xlink="http://www.w3.org/1999/xlink" x="0px" y="0px"
	 viewBox="0 0 246.1 388" style="enable-background:new 0 0 246.1 388;" xml:space="preserve">
<style type="text/css">
	.st0{fill:#0066FF;}
</style>
<path d="M32.3,1.1c9.9-2.5,20.8-0.8,29.4,4.6c9,5.6,15.5,15,17.4,25.4c0.9,5.3,0.6,10.7,0.7,16c0,63.5,0,127,0,190.4
	c6.1,2.2,12.7,3.5,17.6,8c3.9-1.8,8-3.9,12.5-3.8c6.3,0.4,12.5,1.9,18.4,3.8c5.6-2.1,11.6-2.7,17.5-1.8c11.8,2,23.4,5.1,35.1,7.9
	c6.7,1.7,13.6,2.9,20.2,4.9c6.6,2.3,13.9-0.6,20.3,2.5c4.7,2,7.4,6.6,10.2,10.6c2.8,4.1,3.6,9.1,4.9,13.8c3,10,6.8,19.7,9.6,29.7
	c-3.2-9-6.1-18.1-9.3-27.2c-1.9-5.2-2.4-10.9-5.5-15.6c-3.1-4.6-6.5-9.7-12.1-11.3c-4.3-1-8.8-0.7-13.2-0.8c2.3,2.2,4.8,4.2,6.6,6.9
	c-4.4-2.9-8.1-6.9-13.4-8.1c-8.4-2-17-3.6-25.4-5.6c-9.8-2.3-19.5-4.9-29.5-6.4c-4.4-0.7-8.9-0.1-13.2,1.1
	c11.2,5.4,23.6,7.6,35.8,9.4c-2.3,1.5-5.2,0.6-7.7,0.3c-7.3-1.2-14.5-3.1-21.5-5.4c-8.9-3.3-17.9-6.9-27.4-7.2
	c-3.9-0.3-7.5,1.3-11,2.8c4.9,4.8,10.4,9,14.9,14.1c4.1,4.6,9.6,7.7,15.3,9.9c-2.9,1-5.7-0.8-8.1-2.1c-6.4-3.7-10.7-10-16.3-14.7
	c-5.9-5.1-12.1-10.3-19.8-12.4c-3.3-1-6.8-2.4-10.2-1.3c-6.3,2.1-12,7-13.5,13.7c-1.1,5.2-1.6,11.2,1.3,15.9c2.4,4,4.6,8.1,7.2,12
	c4.1,5,10.2,7.8,14.8,12.3c3.3,3.2,4.5,8,8.2,10.8c1.6,1.4,3.5,2.6,4.2,4.7c3,7.5,5.8,15.1,10,22.1c2,3.3,4.9,5.9,7.2,9
	c-6.4-3.3-9.3-10.4-12.5-16.4c-2.1-3.6-2.6-8.6-6.8-10.5c-4.3-2.4-8.8-4.3-13.1-6.8c-7.1-4-14.4-8.2-22.6-9.5
	c-7.1-0.9-13.7-4.7-21-4.4c-9.5,0-19.3,1.5-28,5.5c-4.4,2.1-8.2,5.8-8.9,10.8c2.2-1.7,4.3-4.3,7.4-4.1c8.9,0.2,19.2,3.4,22.9,12.4
	c8.3,3.1,14.7,9.5,22.8,13.1c3.7,1.8,7.7,2.8,11.3,4.7c12.3,6.8,21.9,17.4,32.8,26.2c9.9,8.6,20.5,16.6,28.8,26.8
	c-4.3-3.8-7.9-8.1-12.2-11.8c-6.3-5.4-12.7-10.6-19.1-15.9c-10.6-8.4-20.1-18.5-32.2-24.7c-4.5-1.8-9.1-3.3-13.3-5.6
	c-6.9-3.5-12.5-9.6-20.2-11.3c-7.9-0.5-16.1,1.4-23.8-0.7c-5.1-1.3-7.8-7.6-5.7-12.4c1.9-5.2,7.2-7.8,11.8-10.3
	c-2.5-0.6-5.6-0.6-7.4-2.8c-2.7-3.1-1.8-7.5-2-11.2c0.1-80,0-160,0-240.1C3.1,34.6,4,27.8,7,21.9C11.7,11.6,21.3,3.8,32.3,1.1
	 M5.1,36.3c-0.3,21,0,42.1-0.2,63.1c2.8,0.2,5.8,0.3,8.2,1.9c8.2,5,17.3,9.2,27.1,9.7c10,0.4,19.2-4.3,27.6-9.2
	c3-2,6.8-1.6,10.2-1.8c-0.1-18.3,0-36.6,0-54.8c0.2-7.3,0.1-14.9-3.1-21.6C68.6,8.5,51.3-0.8,35.2,2.3C18.9,4.9,5.6,19.7,5.1,36.3
	 M5.1,101.2c-0.2,61.3,0,122.6-0.1,183.9c-0.1,2.8,0.2,6.4,3.3,7.5c6.1,0.8,12.4,0.6,18.4-0.9c-0.2-30.2,0-60.3-0.1-90.5
	c-0.2-4.7,1.7-9.4,5.4-12.3c5.2-4.5,13.6-4.6,18.8-0.1c3.8,2.9,5.8,7.7,5.7,12.4c0,30.6,0,61.2,0,91.8c6,0,12.1,0,18.1-0.1
	c-3.8-8.2-9-15.6-13.4-23.4c-2.7-4.5-1.8-10.2-1.4-15.2c1.4-9.1,9.7-15.2,18.2-17c-0.1-45.1,0-90.2,0-135.2c-3.2,0-6.6-0.4-9.5,1.4
	c-7.8,4.5-16.1,8.9-25.2,9.4c-11.1,0.6-21.6-4.1-30.9-9.8C10.3,101.5,7.6,101.4,5.1,101.2 M33.3,190.2c-3.3,2.6-5,6.8-4.8,11
	c0,30.2,0.1,60.3,0,90.5c3.9-0.3,7.9-0.9,11.8-0.4c4.8,0.5,9.5,1.7,14.3,2c0.2-30.3,0-60.6,0.1-91c0.1-3.9-0.8-8-3.7-10.9
	C46.6,186.4,38.3,185.9,33.3,190.2 M73.4,286.9c3.3,6.8,7.7,12.9,12.3,18.8c2.8,3.5,7.3,4.8,11.2,6.7c-0.8-2.5-2.1-4.9-4.3-6.5
	c-4.4-3.1-5.7-8.8-9.8-12.3C79.9,291.1,76.6,289,73.4,286.9 M59.5,294.7c0,0.2,0,0.6,0,0.8c8.6,1.4,16,6.1,23.8,9.7
	c-2.4-3.6-5.1-7.1-7.5-10.7C70.4,294.9,64.9,294.8,59.5,294.7 M4.8,307.8c-1.9,2.1-3.4,6.2-0.1,7.7c7.8,3.5,16.7,1.9,24.9,1.2
	c-3.3-6.9-11.2-9.7-18.4-10.3C9.2,306.5,6.4,305.9,4.8,307.8z"/>
<path d="M39.7,190.8c5.3-1.1,11.1,2.9,11.4,8.4c0.7,4.2-1.8,8.5-5.7,10.2c-5.1,2.6-11.9-0.7-13.3-6.2
	C30.3,197.8,34.2,191.6,39.7,190.8 M37.5,192.5c-6,2.7-6.5,12.2-0.7,15.4c5.2,3.8,13.2-0.3,13.6-6.6
	C51.3,194.6,43.4,189.1,37.5,192.5z"/>
<path d="M38,201.9c1.1-1.7,2.3-3.3,3.6-4.8c1.1,1.5,2.3,3,3.4,4.6C42.7,201.8,40.3,201.9,38,201.9z"/>
<path d="M38.6,251.8c7.1-2.5,14.9,5.1,12.3,12.3c-1.8,6.9-11.7,9.3-16.4,3.9C29.3,263.2,31.9,253.7,38.6,251.8 M37.4,253.3
	c-5.4,2.6-6.5,10.7-1.8,14.6c4.6,4.6,13.4,1.7,14.6-4.7C52.2,256.1,43.7,249.7,37.4,253.3z"/>
<path d="M38,259.7c2.1-0.1,4.2-0.1,6.3,0c-0.3,1.8-1.5,3.3-2.4,4.9C40.4,263.2,39.1,261.5,38,259.7z"/>
<circle class="st0" cx="41.5" cy="230.8" r="2.4"/>
</svg>
