<?xml version="1.0" encoding="utf-8"?>
<!-- Generator: Adobe Illustrator 21.1.0, SVG Export Plug-In . SVG Version: 6.00 Build 0)  -->
<svg version="1.1"
	 id="svg2" inkscape:version="0.91 r13725" sodipodi:docname="learn_temp.svg" xmlns:cc="http://creativecommons.org/ns#" xmlns:dc="http://purl.org/dc/elements/1.1/" xmlns:inkscape="http://www.inkscape.org/namespaces/inkscape" xmlns:rdf="http://www.w3.org/1999/02/22-rdf-syntax-ns#" xmlns:sodipodi="http://sodipodi.sourceforge.net/DTD/sodipodi-0.dtd" xmlns:svg="http://www.w3.org/2000/svg"
	 xmlns="http://www.w3.org/2000/svg" xmlns:xlink="http://www.w3.org/1999/xlink" x="0px" y="0px" viewBox="0 0 308 288"
	 style="enable-background:new 0 0 308 288;" xml:space="preserve">
<style type="text/css">
	.st0{fill:#FFFFFF;}
	.st1{fill:#1C241C;}
	.st2{fill:#00CCFF;}
</style>
<sodipodi:namedview  bordercolor="#666666" borderopacity="1" gridtolerance="10" guidetolerance="10" id="namedview14" inkscape:current-layer="svg2" inkscape:cx="72.051707" inkscape:cy="57.145354" inkscape:pageopacity="0" inkscape:pageshadow="2" inkscape:window-height="811" inkscape:window-maximized="1" inkscape:window-width="1440" inkscape:window-x="0" inkscape:window-y="1" inkscape:zoom="3.2796268" objecttolerance="10" pagecolor="#ffffff" showgrid="false">
	</sodipodi:namedview>
<g id="_x23_ffffffff">
	<path id="path5" class="st0" d="M29.7,233.2c1,4.1-0.2,8.5,2,12.2c-1.2,0.3-2.4,0.7-3.7,0.9c-1.2-1.2-0.2-2.8,0.2-4.1
		C29.5,239.4,29.2,236.3,29.7,233.2z"/>
</g>
<g id="_x23_636668ff">
	<path id="path8" d="M246.3,29.3c6.8-4.8,14.2-8.6,21.6-12.5c-8,5.3-17,9.3-24.2,15.8c-3.9,3.8-6.8,8.5-11.2,11.8
		c-9.9,7.9-20.4,15-30.9,22c-10.5,7-22.2,12-33.6,17.5c-11.1,5.4-22.4,10.2-33.4,15.7c-8.4,4.7-9.8,15.3-16.2,21.8
		c-7.3,7.7-14.9,15.1-22.8,22.2c-3.3,3-6.3,6.4-10,8.9c-3.7,2.3-6.5,5.7-10.5,7.5c-9,4.5-16.8,10.9-25.9,15.1
		c-3.3,1.6-6,4.2-8.7,6.6c0.8,1.2,1.6,2.3,2.4,3.5c-4.8,4.8-10.6,8.8-17.2,10.8c2,2.2,4.5,4.3,7.6,4.7c6.9,0.9,14.3,1.4,20.8-1.5
		c7.4-3.2,14.3-7.6,21.2-11.7c8.5-4.8,18.5-6.1,26.8-11.2c9.8-8.3,20.4-15.5,30.3-23.7c5.7-4.9,12.1-9.1,18.9-12.4
		c-1.8-1.4-3.7-2.7-5.5-4.1c3.3,1.3,6.4,3.5,10,3.5c5.8,0.1,11.8,1,17.2,3.4c4.4,2.2,6.2,7.5,5.3,12.1c-2.5,10.9-8.3,20.7-14.3,30.1
		c-4.1,8.4-8.6,17.3-8,26.9c2.2-1.6,4.4-3.3,6.6-5c4.1,3.9,9.2,6.7,14.8,7.5c0.2,1.7,0.5,3.3,0.7,5c4.1-3.3,7.8-7.1,11.2-11.1
		c4.6-5.6,7.7-12.3,11.8-18.2c6.9-10.2,14.9-19.7,24.3-27.6c7.5-6.2,13.8-13.6,20.2-20.8c3.5-4.2,7.1-8.3,10.2-12.9
		c4.2-6.2,6.5-13.4,10.1-19.9c6.3-12.8,16-23.6,26.7-33c-7.5,7.6-15,15.3-20.6,24.3c-5.2,8.2-8.6,17.4-12.9,26
		c-6.1,10.5-14.5,19.4-22.6,28.3c-6,7-13.7,12.3-19.8,19.3c-7.1,8.1-13.5,16.9-18.8,26.2c-4.3,7.7-9.9,14.6-16.6,20.4
		c-3.5,3-7.1,6.3-11.8,7.3c-4.1,0.8-9.1,0.7-11.8-2.9c-3.8-4.3-3.7-10.3-5.4-15.4c-4.4-3.4-9.1-6.2-13.3-9.9
		c-6.1-5.4-15.8-6.8-19.3-14.8c-1.5-6.2,0.2-12.6,0.8-18.8c-5.2,3.7-10.2,7.6-14.9,11.8c-4.5,3.9-10.5,5.1-15.9,7.2
		c-4.9,2-10.1,3.4-14.6,6.3c-8,5.1-16.3,9.9-25.4,13c7,3.1,12.4,9,15.5,15.9c5.2,11.7,5.6,25.7,0.3,37.5c-3.2,7.1-8.1,13.9-15,17.9
		c-5.4,3.1-11.9,2.5-17.9,2.4c-7.7-0.3-14.6-4.9-19.4-10.7c-12.8-15.6-13-40.3,0-55.9c3.4-4.3,8.3-6.8,13.1-9.3
		c-2.7-2.8-6-6.5-4-10.7c3.9-7.9,13-10.3,19.2-15.8c4.2-3.8,9.8-5.4,14.5-8.5c5.7-3.7,11.5-7.3,17.5-10.4c12.7-8,23.1-18.9,34-29.1
		c5-5,10.6-9.7,13.8-16.2c3.1-6.2,7-12.7,13.7-15.4c14.6-6.7,29.3-13.2,43.8-20c18.2-8.1,34.6-19.7,50.7-31.4
		C236.2,40.7,239.9,33.6,246.3,29.3 M153.6,141.8c-9.7,2.6-17.2,9.8-24.7,16c-4.2,2.9-4.2,8.4-5.2,13c-0.6,4.5-1.9,9.3-0.1,13.7
		c3.9,5.8,11.2,7.4,16.4,11.6c4.6,3.7,9.1,7.6,14.4,10.3c1.9-8.9,5.7-17.3,9.9-25.4c-3.8-2.7-8.4-3-12.9-2.8
		c1.4-0.8,2.9-1.6,4.4-2.4c-0.1-6.2,0-12.5,0-18.7c-4.1-1.8-8.4-2.9-12.9-3.1c4.6-0.8,9.1,0.4,13.5,1.5c6.8,0.8,13.8-0.2,20.3-2.1
		c0.2-3.5-0.9-7.2-4.3-8.9C166.6,141.8,159.9,140.8,153.6,141.8 M157.4,157.5c0,6.1,0,12.2-0.1,18.3c2.6,1.2,5.2,2.5,7.8,3.7
		c3.2-3.1,4.7-7.6,6.9-11.5c-2.1,0.4-4.1,0.8-6.2,1.1c2.4-1.3,5.1-2.2,7-4.2c2-2.8,2.8-6.4,3.8-9.6
		C170.4,156.9,163.9,157.4,157.4,157.5 M31.7,186.7c-2.7,1.8-4.9,4.3-6.2,7.3c5.7-1.4,10.9-4.7,14.7-9.1c-0.1-0.4-0.3-1.3-0.4-1.8
		C36.7,182.8,34.2,185.1,31.7,186.7 M28.4,206.3c-8.6,2.3-15,9.7-18.2,17.8c-3.2,7.4-3.1,15.7-2.3,23.6c1.9,10,7.4,20,16.7,24.9
		c4.5,2.7,10,2.7,15.1,1.9c10.3-3.1,17.5-12.7,20.1-22.9c3.4-13.2,0.8-28.5-8.7-38.5C45.3,207.1,36.4,203.9,28.4,206.3 M47.5,207.4
		c2.3,2.7,5.1,5,7.2,7.9c5.6,7.2,8,16.6,7.8,25.7c0,9.7-3.2,19.5-9.8,26.8c-2.5,2.6-5.5,4.7-8.1,7.2c3.4-1,6.6-2.7,9.2-5.1
		c14.4-13.4,16.9-37.3,5.8-53.5C56.8,212.1,52.7,208.5,47.5,207.4 M157.3,214.3c-0.2,3.9,1.8,8.1,5.1,10.3
		c4.8,1.6,10.7,0.2,13.9-3.8c0.1-1.6,0.9-4.2-1.2-4.9c-4.5-1.7-9-3.5-12.5-6.9C160.8,210.8,158.3,212,157.3,214.3z"/>
	<path id="path10" class="st1" d="M27.9,232.5c1.2-0.3,2.5-0.5,3.8-0.8c0,3.8-0.5,7.8,0.9,11.5c0.9,1.8,0.1,4-1.8,4.6
		c-2,1.6-4.1-0.7-5.1-2.3C26.8,241.2,28,236.9,27.9,232.5 M29.7,233.2c-0.5,3-0.2,6.2-1.4,9.1c-0.4,1.4-1.4,2.9-0.2,4.1
		c1.2-0.2,2.5-0.6,3.7-0.9C29.5,241.7,30.7,237.3,29.7,233.2z"/>
</g>
<ellipse id="path3346" class="st2" cx="29.4" cy="256.7" rx="2.1" ry="2"/>
</svg>
