<?xml version="1.0" encoding="utf-8"?>
<!-- Generator: Adobe Illustrator 24.0.1, SVG Export Plug-In . SVG Version: 6.00 Build 0)  -->
<svg version="1.1" id="Laag_1" xmlns="http://www.w3.org/2000/svg" xmlns:xlink="http://www.w3.org/1999/xlink" x="0px" y="0px"
	 viewBox="0 0 1771 1771" style="enable-background:new 0 0 1771 1771;" xml:space="preserve">
<style type="text/css">
	.st0{fill:none;stroke:#000000;stroke-width:5;stroke-miterlimit:10;}
</style>
<path d="M1531.34,894.56c0,39.65,0.02,79.3,0,118.95c-0.05,74.14-0.11,148.28-0.21,222.43c-0.07,56.82-0.26,113.64-0.31,170.45
	c-0.05,52.65,0.09,105.3,0.01,157.96c-0.07,46.99-0.33,93.97-0.5,140.96c-0.03,7-0.03,13.99-0.03,20.99
	c0,7.87-3.94,11.95-11.9,12.05c-10.14,0.14-20.29,0.28-30.43,0.21c-26.66-0.2-53.32-0.57-79.97-0.77
	c-61.15-0.45-122.29-0.87-183.44-1.23c-62.98-0.36-125.96-0.68-188.94-0.93c-29.81-0.11-59.63,0.06-89.44-0.01
	c-39.8-0.1-79.61-0.37-119.41-0.45c-23.48-0.05-46.96,0.18-70.44,0.17c-19.65-0.01-39.3-0.28-58.95-0.24
	c-19.47,0.04-38.95,0.45-58.42,0.5c-34.48,0.1-68.96,0.02-103.44,0.09c-57.8,0.12-115.59,0.34-173.39,0.43
	c-8.97,0.01-18.07,0.37-26.46-3.78c-5.15-2.55-8.18-6.44-8.13-12.57c0.19-22.16,0.3-44.31,0.27-66.47
	c-0.06-44.31-0.33-88.63-0.35-132.94c-0.01-31.65,0.32-63.3,0.34-94.94c0.03-36.65-0.08-73.29-0.16-109.94
	c-0.08-36.97-0.19-73.95-0.31-110.92c-0.16-51.32-0.38-102.63-0.48-153.95c-0.05-24.49,0.27-48.99,0.16-73.48
	c-0.17-39.95-0.63-79.91-0.83-119.86c-0.24-49.65-0.29-99.3-0.53-148.96c-0.19-39.63-0.6-79.27-0.8-118.9
	c-0.28-57.81-0.39-115.62-0.71-173.43c-0.32-57.64-0.89-115.27-1.1-172.91c-0.03-7.05,0.34-14.51,2.58-21.07
	c4.74-13.9,15.99-20.02,30.08-22c15.81-2.22,31.56-4.95,47.35-7.35c23.51-3.58,47.04-7.03,70.56-10.6
	c13.65-2.07,27.28-4.31,40.93-6.42c17.26-2.66,34.53-5.21,51.79-7.89c17.1-2.65,34.18-5.44,51.29-8.08
	c25.32-3.91,50.65-7.68,75.97-11.63c34.04-5.31,68.06-10.77,102.1-16.08c19.87-3.1,39.8-5.9,59.66-9.04
	c27.62-4.37,55.19-9.04,82.82-13.41c18.72-2.96,37.52-5.47,56.23-8.48c19.53-3.13,38.98-6.79,58.51-9.9
	c15.27-2.43,30.64-4.16,45.91-6.57c15.61-2.47,31.13-5.5,46.72-8.09c28.41-4.71,56.84-9.28,85.27-13.88
	c30.86-4.99,61.74-9.89,92.6-14.95c28.56-4.68,57.09-9.56,85.65-14.28c11.33-1.87,22.68-3.62,34.04-5.27
	c2.44-0.36,5.02-0.37,7.47-0.02c21.1,3.01,42.15,6.35,63.27,9.16c12.54,1.67,19.57,11.29,19.89,23.06
	c0.22,8.16,0.2,16.33,0.19,24.49c-0.1,69.99-0.17,139.97-0.36,209.96c-0.14,53.81-0.44,107.62-0.67,161.43
	c-0.25,60.82-0.56,121.64-0.72,182.45c-0.16,60.82-0.17,121.63-0.23,182.45c-0.02,24.49,0,48.98,0,73.47
	C1531.76,894.56,1531.55,894.56,1531.34,894.56z M1433.9,839.38c0.18,0,0.36,0,0.54,0c0-17.99-0.04-35.98,0.01-53.97
	c0.11-39.32,0.31-78.63,0.39-117.95c0.13-63.31,0.12-126.63,0.29-189.94c0.13-45.15,0.57-90.3,0.68-135.45
	c0.15-63.32,0.12-126.64,0.19-189.95c0.03-28.66,0.11-57.32,0.17-85.98c0.02-7,0.19-14,0.02-20.99c-0.16-6.67-1.83-7.96-8.32-6.9
	c-3.78,0.62-7.51,1.49-11.29,2.11c-24.47,3.98-48.96,7.9-73.43,11.89c-25.96,4.23-51.9,8.56-77.86,12.76
	c-29.24,4.73-58.5,9.28-87.74,14.05c-25.47,4.16-50.88,8.64-76.36,12.74c-30.39,4.89-60.82,9.54-91.23,14.29
	c-19.73,3.08-39.46,6.1-59.18,9.24c-42.58,6.78-85.14,13.7-127.74,20.42c-28.12,4.44-56.28,8.56-84.4,12.96
	c-42.27,6.61-84.51,13.45-126.79,20c-29.44,4.56-58.94,8.71-88.38,13.2c-31.1,4.74-62.16,9.73-93.25,14.51
	c-25.83,3.97-51.69,7.74-77.53,11.68c-11.81,1.8-21.49,12.88-21.91,25.09c-0.27,7.83-0.44,15.66-0.38,23.49
	c0.36,50.14,0.84,100.29,1.2,150.43c0.2,27.65,0.25,55.31,0.4,82.96c0.25,46.82,0.51,93.64,0.81,140.45
	c0.24,37.97,0.63,75.94,0.82,113.91c0.21,41.66,0.27,83.31,0.38,124.97c0.12,43.98,0.18,87.97,0.33,131.95
	c0.13,36.3,0.42,72.6,0.5,108.89c0.1,47.31,0.02,94.63,0.11,141.94c0.07,37.82,0.31,75.64,0.4,113.46
	c0.08,35.82,0.09,71.64,0.06,107.46c-0.04,44.99-0.2,89.98-0.22,134.97c-0.01,35.65,0.15,71.3,0.14,106.96
	c0,7.9,0.95,9.62,8.45,11.85c2.21,0.66,4.58,1.02,6.88,1.04c13.15,0.15,26.31,0.2,39.47,0.2c37.98-0.01,75.97,0,113.95-0.11
	c46.81-0.13,93.62-0.48,140.43-0.52c55.98-0.04,111.96,0.15,167.95,0.23c45.32,0.07,90.64,0.06,135.96,0.2
	c55.97,0.17,111.94,0.46,167.91,0.7c32.99,0.14,65.98,0.3,98.97,0.43c41.32,0.16,82.64,0.22,123.96,0.45
	c27.46,0.15,54.92,0.57,82.38,0.74c8.82,0.05,11.67-2.84,11.8-11.67c0.1-6.66-0.2-13.32-0.18-19.99
	c0.11-34.14,0.32-68.28,0.38-102.42c0.07-43.81-0.01-87.62,0.04-131.42c0.09-70.48,0.29-140.96,0.34-211.44
	c0.04-57.32-0.09-114.64-0.11-171.95C1433.88,1000.68,1433.9,920.03,1433.9,839.38z M1525.26,313.78c0.28,0,0.55,0,0.83,0
	c0-48.32-0.07-96.64,0.02-144.97c0.07-35.32,0.38-70.64,0.49-105.96c0.03-9.52-4.62-16.5-12.24-17.71
	c-11.84-1.89-23.76-3.21-35.64-4.83c-2.94-0.4-3.82,0.78-3.74,3.61c0.49,17.3,1.18,34.6,1.23,51.91
	c0.1,40.14-0.11,80.29-0.22,120.43c-0.14,50.31-0.29,100.62-0.46,150.93c-0.33,95.97-0.7,191.95-1.01,287.92
	c-0.13,40.31-0.12,80.62-0.21,120.94c-0.08,39.66-0.24,79.32-0.31,118.98c-0.14,73.98-0.28,147.95-0.35,221.93
	c-0.04,43.79,0.08,87.58,0.09,131.38c0.01,18.98-0.09,37.97-0.09,56.95c-0.01,49.47,0.06,98.94-0.01,148.41
	c-0.03,23.47-0.36,46.95-0.43,70.42c-0.07,23.14,0.07,46.28,0.04,69.42c-0.03,30.15-0.06,60.29-0.25,90.44
	c-0.09,14.31-0.47,28.62-0.89,42.93c-0.11,3.65,2.06,3.51,4.52,3.53c13.33,0.15,26.66,0.19,39.98,0.58
	c4.92,0.14,6.58-2.07,6.53-6.56c-0.06-6.66,0-13.32,0.01-19.97c0.01-45.13,0.01-90.27,0.03-135.4c0.02-42.81,0.04-85.61,0.11-128.42
	c0.08-49.8,0.24-99.6,0.3-149.4c0.05-37.81-0.06-75.62,0.01-113.42c0.09-47.48,0.32-94.96,0.43-142.44
	c0.16-69.31,0.22-138.62,0.4-207.93c0.11-41.48,0.47-82.96,0.55-124.44c0.09-47.13-0.07-94.26-0.03-141.39
	c0.03-34.47,0.25-68.93,0.29-103.4C1525.29,410.08,1525.26,361.93,1525.26,313.78z M1440.81,1729.69c-0.08-0.03,0.38,0.28,0.84,0.29
	c5.66,0.15,11.33,0.27,16.99,0.37c7.52,0.13,9.92-1.99,9.96-9.65c0.21-38.63,0.29-77.26,0.42-115.89
	c0.12-37.64,0.28-75.27,0.34-112.91c0.06-40.46,0.07-80.92,0.03-121.38c-0.05-49.62-0.23-99.25-0.24-148.87
	c-0.01-35.48,0.17-70.96,0.25-106.45c0.09-42.81,0.18-85.62,0.25-128.43c0.05-34.82,0.03-69.65,0.12-104.47
	c0.18-70.82,0.42-141.64,0.6-212.46c0.14-52.32,0.21-104.63,0.36-156.95c0.1-34.65,0.29-69.31,0.39-103.96
	c0.13-47.98,0.18-95.96,0.31-143.94c0.08-31.65,0.25-63.31,0.36-94.96c0.09-26.99,0.27-53.99,0.18-80.98
	c-0.04-13.65-0.31-27.31-1.09-40.94c-0.19-3.27-2.19-8.45-4.5-9.19c-6.35-2.04-13.29-2.35-20.03-2.91c-0.9-0.07-2.9,2.38-2.9,3.67
	c-0.09,21.32,0.13,42.64,0.14,63.97c0.03,36.98,0.01,73.96-0.08,110.93c-0.08,35.49-0.28,70.97-0.39,106.45
	c-0.19,64.31-0.34,128.62-0.53,192.93c-0.19,66.65-0.41,133.29-0.59,199.94c-0.11,43.32-0.1,86.63-0.24,129.95
	c-0.15,45.99-0.57,91.97-0.6,137.96c-0.05,69.15,0.22,138.3,0.21,207.44c-0.01,53.49-0.27,106.98-0.38,160.48
	c-0.12,57.82-0.24,115.64-0.28,173.47c-0.03,51.99,0.05,103.98,0.07,155.97C1440.82,1695.79,1440.81,1712.42,1440.81,1729.69z"/>
<path d="M365.96,950.79c0-27.99,0.05-55.99-0.01-83.98c-0.11-57.31-0.34-114.63-0.41-171.94c-0.05-40.81,0.17-81.62,0.09-122.43
	c-0.08-40.82-0.44-81.64-0.58-122.46c-0.08-22.82,0.05-45.64,0.09-68.46c0.01-8.2,6.69-14.09,16.77-15.09
	c7.12-0.71,14.2-1.83,21.32-2.54c3.53-0.35,5.28-1.99,6.03-5.45c1.94-8.94,5.61-16.81,12.64-23.25c5.37-4.93,11.43-7.32,18.29-8.26
	c40.9-5.64,81.83-11.13,122.73-16.81c19.3-2.68,38.53-5.82,57.82-8.53c22.08-3.1,44.21-5.87,66.3-8.92
	c18.29-2.52,36.55-5.27,54.83-7.88c42.69-6.1,85.38-12.15,128.06-18.27c26.69-3.83,53.36-7.81,80.06-11.6
	c21.58-3.07,43.2-5.81,64.77-8.96c46.61-6.79,93.21-13.75,139.81-20.64c33.25-4.92,66.51-9.86,99.76-14.77
	c6.42-0.95,12.87-1.79,19.29-2.72c10.08-1.46,17.41,2.84,22.94,10.91c6.76,9.86,9.1,21.01,9.09,32.72
	c-0.02,53.15-0.22,106.29-0.19,159.44c0.03,59.48,0.28,118.97,0.37,178.45c0.08,54.98-0.02,109.97,0.17,164.95
	c0.13,38.32,0.73,76.64,0.86,114.95c0.08,22.81-0.54,45.62-0.52,68.42c0.02,31.97,0.38,63.93,0.51,95.9
	c0.1,25.16,0.04,50.32,0.11,75.48c0.13,46.15,0.35,92.29,0.43,138.44c0.07,42.65-0.06,85.29,0.02,127.94
	c0.09,46.82,0.45,93.63,0.38,140.45c-0.01,10.26-0.4,20.7-2.4,30.7c-1.24,6.23-5.13,12.32-9.09,17.51
	c-5.29,6.92-13.08,9.91-21.95,10.01c-47.98,0.56-95.96,1.11-143.93,1.82c-53.3,0.79-106.59,1.79-159.88,2.61
	c-37.8,0.58-75.61,0.96-113.41,1.56c-60.13,0.96-120.26,2.01-180.38,3.05c-29.14,0.5-58.29,1.05-87.43,1.59
	c-29.47,0.55-58.95,1.08-88.42,1.67c-22.65,0.45-45.29,1.04-67.94,1.44c-9.8,0.17-18.99-2.29-24.34-11.02
	c-3.48-5.68-5.38-12.44-7.25-18.93c-1.13-3.92-0.98-8.24-1.12-12.4c-0.11-3.08-1.2-4.64-4.47-4.55c-3.49,0.1-6.99-0.1-10.49-0.07
	c-10.09,0.1-19.56-8.2-20.09-18.33c-0.58-11.31-0.78-22.65-0.76-33.97c0.07-32.32,0.36-64.64,0.54-96.96
	c0.22-38.81,0.47-77.62,0.61-116.43c0.13-37.64,0.18-75.29,0.19-112.93c0.03-70.48,0.01-140.95,0.01-211.43
	C365.84,950.79,365.9,950.79,365.96,950.79z M372.69,699.49c0.14,0,0.28,0,0.41,0c0,30.16-0.03,60.32,0.01,90.47
	c0.04,28.32,0.18,56.65,0.21,84.97c0.03,25.65-0.09,51.31-0.02,76.96c0.02,7.04,0.33,7.39,6.99,6.96
	c12.63-0.82,25.23-2.08,37.85-2.96c39.71-2.75,79.43-5.31,119.13-8.11c47.34-3.34,94.68-6.82,142.01-10.3
	c32.21-2.37,64.42-4.92,96.63-7.29c40.51-2.99,81.02-5.89,121.53-8.8c36.04-2.59,72.09-5.1,108.12-7.76
	c46.66-3.45,93.32-7.02,139.98-10.52c17.77-1.33,35.55-2.47,53.31-3.94c8.34-0.69,8.23-0.95,8.21-9.6
	c-0.09-67.3-0.1-134.6-0.24-201.9c-0.07-31.48-0.46-62.96-0.57-94.45c-0.12-32.48-0.08-64.96-0.11-97.43
	c-0.03-31.81-0.07-63.63-0.09-95.44c-0.02-39.99,0.03-79.98-0.12-119.97c-0.02-4.26-0.82-8.59-1.82-12.76
	c-1.21-5.04-4.84-6.77-9.9-6.05c-22.42,3.16-44.85,6.17-67.26,9.37c-38.88,5.56-77.74,11.28-116.62,16.84
	c-31.15,4.45-62.32,8.73-93.47,13.12c-25.38,3.58-50.75,7.28-76.14,10.8c-34.78,4.82-69.59,9.53-104.38,14.29
	c-26.88,3.68-53.76,7.37-80.64,11.07c-18.31,2.52-36.61,5.04-54.91,7.6c-14.33,2.01-28.64,4.2-42.99,6.11
	c-21.11,2.8-42.25,5.34-63.36,8.14c-22.11,2.93-44.21,5.98-66.31,9.06c-15.99,2.23-32,4.41-47.94,6.97
	c-6.38,1.03-7.37,2.8-7.35,9.19c0.06,19.82,0.21,39.64,0.18,59.46c-0.04,22.98-0.31,45.96-0.33,68.94
	C372.66,574.85,372.69,637.17,372.69,699.49z M373.09,1268.26c-0.05,0-0.09,0-0.14,0c0,5,0.01,10,0,15
	c-0.22,68.65-0.47,137.3-0.63,205.95c-0.03,10.65,0,21.33,0.63,31.96c0.43,7.18,5.38,11.54,12.06,11.52
	c20.16-0.05,40.32-0.11,60.48-0.4c52.8-0.75,105.6-1.66,158.4-2.42c14.83-0.21,29.66,0.03,44.49-0.17
	c42.31-0.56,84.61-1.32,126.92-1.82c32.97-0.39,65.94-0.44,98.91-0.77c33.31-0.34,66.62-0.86,99.94-1.26
	c40.64-0.49,81.28-0.99,121.92-1.39c27.82-0.27,55.64-0.39,83.47-0.54c4.99-0.03,9.98,0.13,14.97,0.1c6.63-0.03,9.87-2.12,12.1-8.29
	c1-2.76,1.7-5.79,1.72-8.7c0.11-19.98,0.02-39.97-0.06-59.95c-0.11-27.47-0.29-54.95-0.4-82.42c-0.11-27.96-0.21-55.92-0.25-83.89
	c-0.05-31.98-0.02-63.97-0.05-95.95c-0.06-65.14-0.14-130.29-0.2-195.43c-0.02-25.32-0.2-50.65,0.08-75.97
	c0.14-12.95-0.21-10.42-11.03-9.66c-39.03,2.72-78.02,5.97-117.04,8.86c-32.55,2.41-65.13,4.5-97.69,6.89
	c-36.2,2.66-72.37,5.6-108.57,8.26c-56.3,4.13-112.61,8.11-168.91,12.19c-39.7,2.88-79.39,5.84-119.09,8.72
	c-33.05,2.4-66.1,4.74-99.16,7.08c-20.1,1.42-40.21,2.74-60.32,4.15c-14.95,1.05-29.9,2.1-44.84,3.28
	c-7.01,0.55-7.48,1.15-7.52,8.25c-0.09,17.14-0.15,34.28-0.16,51.41c-0.03,35.98-0.02,71.96-0.03,107.94
	C373.09,1176.62,373.09,1222.44,373.09,1268.26z M1299.35,892.44c-0.14,0-0.29,0-0.43,0c0-23.33,0.01-46.65,0-69.98
	c-0.02-58.32,0.03-116.64-0.08-174.96c-0.1-51.14-0.46-102.28-0.57-153.42c-0.09-39.65,0.08-79.3,0.06-118.94
	c-0.02-40.32,0.04-80.65-0.38-120.97c-0.08-7.87-1.09-16.12-3.68-23.49c-3.92-11.17-9.48-16.89-22.39-14.86
	c-14.63,2.3-29.33,4.23-43.98,6.4c-24.7,3.66-49.39,7.42-74.1,11.07c-26.85,3.97-53.7,7.87-80.56,11.79
	c-37.55,5.49-75.09,11.04-112.65,16.43c-32.11,4.61-64.25,8.98-96.37,13.55c-31.81,4.52-63.59,9.19-95.4,13.73
	c-36.75,5.24-73.51,10.42-110.27,15.62c-25.56,3.61-51.11,7.23-76.68,10.8c-23.9,3.34-47.81,6.6-71.71,9.92
	c-22.59,3.14-45.16,6.51-67.79,9.39c-11.33,1.44-21.5,9.5-24.4,20.48c-1.45,5.49-0.59,6.66,5.06,5.9
	c29.85-4.03,59.68-8.2,89.53-12.23c20.29-2.74,40.62-5.26,60.91-7.99c28.03-3.77,56.04-7.66,84.06-11.49
	c23.59-3.22,47.18-6.35,70.76-9.64c40.06-5.59,80.1-11.31,120.16-16.92c23.58-3.3,47.19-6.4,70.76-9.76
	c19.1-2.72,38.14-5.83,57.24-8.53c15.82-2.24,31.72-3.98,47.54-6.22c38.39-5.43,76.75-11.01,115.12-16.57
	c14.17-2.05,28.36-3.99,42.47-6.38c11.08-1.88,21.67-1.77,32.08,3.34c5.63,2.76,11.77,4.69,17.86,6.28
	c11.41,2.99,16.91,9.73,16.76,21.84c-0.4,32.65-0.1,65.3-0.03,97.95c0.13,62.49,0.34,124.97,0.43,187.46
	c0.1,67.31,0.06,134.62,0.17,201.94c0.09,56.81,0.33,113.63,0.45,170.44c0.07,33.32-0.03,66.64,0.05,99.95
	c0.08,30.14,0.36,60.28,0.44,90.42c0.08,28.98-0.05,57.95,0.02,86.93c0.07,31.64,0.27,63.28,0.38,94.92
	c0.1,30.82,0.19,61.64,0.22,92.46c0.02,20.16-0.12,40.31-0.11,60.47c0.01,12.66,0.3,25.32,0.2,37.98
	c-0.07,7.93-3.39,12.59-10.52,14.54c-8.97,2.46-18.01,4.89-27.16,6.48c-9.13,1.59-18.43,2.86-27.68,3.01
	c-36.31,0.58-72.63,0.62-108.94,0.95c-63.64,0.58-127.28,1.18-190.92,1.87c-33.81,0.37-67.61,1-101.42,1.41
	c-45.97,0.56-91.94,0.98-137.92,1.54c-60.93,0.75-121.86,1.59-182.8,2.4c-16.49,0.22-32.97,0.6-49.46,0.63
	c-4.89,0.01-6.81,1.96-5.96,6.57c1.08,5.88,1.94,11.86,3.71,17.54c4.07,13.05,11.02,15.81,22.75,15.66
	c11.65-0.15,23.3-0.49,34.95-0.72c54.12-1.08,108.24-2.22,162.37-3.22c45.8-0.85,91.6-1.52,137.39-2.31
	c40.95-0.71,81.9-1.5,122.85-2.23c30.64-0.54,61.29-1.05,91.93-1.54c28.48-0.45,56.97-0.91,85.46-1.28
	c35.82-0.47,71.64-0.85,107.46-1.29c32.82-0.4,65.65-0.59,98.45-1.48c4.67-0.13,9.95-2.79,13.73-5.81
	c8-6.39,11.16-15.82,11.36-25.69c0.45-21.98,0.2-43.98,0.21-65.97c0.02-54.32,0.11-108.64-0.01-162.96
	c-0.08-35.65-0.56-71.3-0.68-106.95c-0.11-31.64,0.07-63.28,0.03-94.92c-0.04-24.48-0.31-48.97-0.34-73.45
	C1299.31,984.39,1299.35,938.41,1299.35,892.44z M1215.82,1519.64c6.15-1.41,12.78-2.84,19.37-4.45c6.08-1.49,7.69-3.5,7.7-9.77
	c0.06-31.15,0.17-62.3,0.05-93.46c-0.13-34.3-0.61-68.61-0.71-102.91c-0.06-22.97,0.45-45.94,0.4-68.91
	c-0.1-43.14-0.5-86.27-0.62-129.41c-0.22-76.3-0.35-152.61-0.47-228.91c-0.05-35.49,0.07-70.97,0.04-106.46
	c-0.05-51.64-0.13-103.28-0.26-154.92c-0.15-57.14-0.44-114.28-0.54-171.42c-0.08-43.82,0.05-87.64,0.08-131.46
	c0.01-10.5,0.05-20.99,0-31.49c-0.04-8.19-1.77-10.41-9.59-12.99c-3.16-1.04-6.26-2.3-9.38-3.44c-8.56-3.15-8.56-3.14-8.66,5.71
	c-0.02,1.33-0.15,2.66-0.14,3.99c0.27,51.8,0.63,103.6,0.82,155.4c0.21,54.81,0.26,109.62,0.39,164.44
	c0.08,33.48,0.22,66.95,0.21,100.43c0,19.66-0.37,39.32-0.34,58.98c0.08,46.64,0.37,93.28,0.47,139.92
	c0.09,40.8-0.02,81.6,0.07,122.4c0.08,36.64,0.4,73.27,0.42,109.91c0.02,36.64-0.3,73.28-0.26,109.92
	c0.03,31.15,0.41,62.3,0.52,93.45c0.19,52.48,0.29,104.96,0.42,157.44C1215.84,1500.72,1215.82,1509.8,1215.82,1519.64z"/>
<path d="M605.69,644.07c-0.08,14.33-3.17,27.84-12.26,39.24c-15.57,19.54-40.41,16.25-50.32-6.82c-8.42-19.58-6.5-38.87,3.29-57.63
	c3.59-6.88,8.6-12.28,15.47-15.66c12.38-6.1,25.57-2.56,34.17,8.63C603.37,621.37,606.24,632.19,605.69,644.07z M601.24,647.33
	c0.02-14.76-2.44-23.52-7.96-31.58c-9.04-13.2-24.5-14.73-35.96-3.61c-7.32,7.11-11.14,16.01-13.27,25.74
	c-2.93,13.39-2.36,26.47,4.36,38.78c9.7,17.75,26.7,19.96,40.2,4.92C598.1,671.02,600.69,657.82,601.24,647.33z"/>
<path d="M995.74,611.54c-0.56,13.12-3.93,27.33-14.06,39.17c-14.38,16.8-35.8,14.04-46.19-4.58c-8.12-14.54-8.27-29.46-5.24-44.98
	c1.79-9.16,5.98-17.24,12.15-24.2c13.61-15.38,34.82-13.42,45.45,4.1C993.1,589.72,995.68,599.06,995.74,611.54z M932.19,621.08
	c1.19,4.82,1.99,11.74,4.64,17.86c4.29,9.93,10.75,18.24,23.14,18.22c10.08-0.02,16.83-6.01,21.66-13.92
	c10.39-17.01,12.9-35.3,5.72-54.06c-6.96-18.18-26.57-25.7-41.44-9.29C935.86,590.98,933.19,604.72,932.19,621.08z"/>
<path d="M477.86,470.43c0.06,6.04-2.5,9.9-6.62,9.99c-3.79,0.08-6.81-4.09-6.82-9.4c-0.01-5.71,2.47-9.08,6.8-9.22
	C475.41,461.65,477.8,464.77,477.86,470.43z M469.99,474.54c0.98-0.1,1.96-0.21,2.94-0.31c-0.17-2.19-0.34-4.39-0.51-6.58
	c-0.95,0.22-2.71,0.4-2.73,0.66C469.61,470.38,469.85,472.46,469.99,474.54z"/>
<path d="M604.58,1253.29c-0.49,10.66-3.98,25.19-14.86,36.92c-14.27,15.39-35.64,12.84-46.25-5.32c-8.46-14.48-8.5-29.93-4.34-45.47
	c1.82-6.8,4.73-13.6,8.49-19.54c13.48-21.3,39.06-20.07,50.97,2.11C603.11,1230.42,604.62,1237.06,604.58,1253.29z M541.15,1254.58
	c0.16,12.65,2.23,20.49,6.83,28.3c8.61,14.64,24.78,16.96,37.08,5.27c7.1-6.74,11.03-15.22,13.23-24.63
	c3.41-14.6,2.65-28.66-5.28-41.83c-8.78-14.58-25.74-16.69-37.52-4.35C544.9,1228.43,541.62,1242.34,541.15,1254.58z"/>
<path d="M996.52,1229.72c0.21,13.47-2.66,25.01-9.21,35.37c-6.4,10.11-15.43,15.84-27.93,14.83c-11.41-0.91-18.52-7.82-23.17-17.36
	c-10.54-21.65-9.62-42.97,2.93-63.67c6.19-10.22,15.42-14.95,27.13-14.36c11.09,0.56,18.18,7.52,23.27,16.61
	C994.69,1210.33,996.61,1220.43,996.52,1229.72z M992.4,1230.06c-0.11-10.03-2.91-19.65-7.89-28.67
	c-8.86-16.04-31.81-16.87-41.25-1.22c-11.51,19.08-13,39.15-3.63,59.51c4.01,8.7,10.49,15.02,20.81,15.73
	c10.46,0.72,17.81-4.38,23.11-12.85C989.69,1252.75,992.91,1242.06,992.4,1230.06z"/>
<g>
	<g>
		<path d="M888.79,1681.25c-1.89,0-3.67,0.01-5.45,0c-2.08-0.01-2.08-0.02-2.08-2.07c0-10.78,0-21.55,0-32.33
			c0-1.38,0-1.38,1.33-1.38c5.53,0,11.05-0.06,16.58,0.03c2.6,0.04,5.24,0.08,7.74,1.03c3.28,1.24,5.25,3.64,6.13,6.96
			c0.83,3.12,0.68,6.21-0.61,9.2c-1.06,2.45-2.98,4.02-5.43,4.97c-2.84,1.09-5.83,1.01-8.79,1.08c-2.78,0.07-5.56,0.04-8.34,0
			c-0.83-0.01-1.11,0.22-1.1,1.07c0.04,3.42,0.02,6.84,0.02,10.26C888.79,1680.42,888.79,1680.77,888.79,1681.25z M894.49,1651.87
			c0-0.05,0-0.09,0-0.13c-1.63,0-3.26,0-4.89,0c-0.46,0-0.82,0.04-0.81,0.65c0.01,3.17-0.01,6.33,0.03,9.5
			c0,0.22,0.39,0.62,0.59,0.62c3.77-0.03,7.54,0,11.29-0.25c1.1-0.07,2.39-0.75,3.16-1.57c2.64-2.77,1.32-7.39-2.33-8.52
			c-0.42-0.13-0.87-0.26-1.31-0.27C898.31,1651.85,896.4,1651.87,894.49,1651.87z"/>
		<path d="M821.95,1681.22c-10.45-0.11-18.46-8.52-18.01-18.7c0.41-9.2,8.1-17.1,18.27-16.96c10.28,0.14,18.2,8.3,17.81,18.56
			C839.65,1673.87,831.68,1681.15,821.95,1681.22z M822.04,1652.43c-6.18-0.01-11.14,4.83-11.17,10.9c-0.03,6.07,5,11.1,11.11,11.11
			c6.1,0,11.13-4.93,11.17-10.95C833.21,1657.38,828.24,1652.44,822.04,1652.43z"/>
		<path d="M844.12,1663.28c0-5.5,0-11,0-16.5c0-1.29,0-1.29,1.23-1.29c5.53,0,11.05-0.06,16.58,0.03c2.67,0.04,5.37,0.07,7.93,1.08
			c3.71,1.48,5.65,4.36,6.26,8.18c0.38,2.35,0.28,4.72-0.52,7.01c-1.15,3.29-3.48,5.41-6.79,6.14c-2.53,0.55-5.18,0.68-7.78,0.81
			c-2.71,0.13-5.43,0.03-8.15,0.03c-1.27,0-1.28,0-1.28,1.24c0,3.42-0.02,6.84,0.01,10.27c0.01,0.75-0.2,1.01-0.97,0.99
			c-1.82-0.05-3.64-0.05-5.46,0.01c-0.86,0.03-1.08-0.28-1.08-1.11C844.14,1674.53,844.12,1668.91,844.12,1663.28z M857.32,1651.88
			c0-0.05,0-0.1,0-0.15c-1.63,0-3.26,0.01-4.88-0.01c-0.53-0.01-0.84,0.13-0.83,0.74c0.02,3.1,0.01,6.2,0,9.3
			c0,0.51,0.17,0.77,0.72,0.76c3.64-0.07,7.28,0,10.9-0.22c3.11-0.19,4.81-2.28,4.7-5.4c-0.02-0.69-0.05-1.48-0.38-2.05
			c-0.47-0.82-1.11-1.65-1.88-2.17c-0.7-0.48-1.66-0.72-2.53-0.77C861.21,1651.81,859.26,1651.88,857.32,1651.88z"/>
		<path d="M973.58,1681.08c-0.24,0.1-0.3,0.14-0.36,0.14c-5.68-0.05-11.39,0.2-17.04-0.26c-5.11-0.42-8.78-3.49-10.75-8.28
			c-1.9-4.64-1.81-9.48-1.04-14.35c0.43-2.72,1.31-5.28,2.99-7.48c2.31-3.01,5.52-4.66,9.19-4.93c5.02-0.37,10.08-0.32,15.12-0.42
			c1.9-0.04,1.9-0.01,1.88,1.85c-0.01,1.09-0.05,2.18,0.01,3.26c0.04,0.77-0.23,0.98-0.98,0.98c-3.83-0.03-7.67-0.03-11.5-0.01
			c-2.15,0.01-4.21,0.38-5.92,1.81c-1.91,1.59-2.5,3.79-2.7,6.14c-0.06,0.65,0.44,0.58,0.85,0.58c2.43,0,4.86,0,7.28,0.01
			c3.96,0.02,7.92,0.07,11.88,0.05c0.84,0,1.13,0.24,1.08,1.09c-0.07,1.31-0.07,2.62-0.01,3.93c0.04,0.83-0.29,1.01-1.05,1.01
			c-6.26-0.02-12.52-0.02-18.79-0.01c-1.37,0-1.46,0.02-1.28,1.38c0.18,1.32,0.4,2.68,0.9,3.9c0.93,2.26,2.89,3.23,5.2,3.53
			c1.1,0.14,2.23,0.22,3.34,0.22c3.58,0.03,7.16,0.02,10.74,0c0.69,0,0.97,0.17,0.95,0.91
			C973.55,1677.77,973.58,1679.43,973.58,1681.08z"/>
		<path d="M917.63,1645.54c2.5,0,4.88,0,7.37,0c0.02,0.42,0.06,0.82,0.06,1.22c0.01,7.04,0.01,14.07,0.03,21.11
			c0,0.51,0.05,1.02,0.08,1.53c0.22,4.16,2.9,5.79,6.29,5.99c3.19,0.18,6.39,0.09,9.58,0.11c1.43,0.01,1.43,0,1.43,1.47
			c0,1.18-0.02,2.37,0.01,3.55c0.01,0.54-0.2,0.74-0.73,0.73c-4.6-0.07-9.21,0.08-13.79-0.25c-5.49-0.39-9.85-4.83-10.13-10.58
			c-0.15-3.03-0.17-6.07-0.19-9.11c-0.03-4.83-0.01-9.66-0.01-14.49C917.63,1646.42,917.63,1646.01,917.63,1645.54z"/>
	</g>
	<g>
		<path d="M669.75,1674.99c0,4.23-0.03,8.46,0.02,12.69c0.02,1.04-0.32,1.32-1.31,1.26c-1.22-0.08-2.45-0.06-3.67,0
			c-0.78,0.04-1.03-0.22-1.02-1.01c0.04-3.36,0.02-6.71,0.01-10.07c0-0.34,0.16-0.77-0.18-0.98c-0.44-0.27-0.67,0.23-0.95,0.43
			c-10.27,7.28-24.7,1.33-26.69-11.1c-1.5-9.32,4.28-18.2,14.37-19.64c9.15-1.3,17.61,4.9,19.19,13.96
			c0.32,1.85,0.19,3.69,0.21,5.54C669.77,1669.04,669.75,1672.01,669.75,1674.99z M663.64,1663.44c0.1-5.57-4.81-10.78-10.6-10.87
			c-6.44-0.1-11.24,4.73-11.18,10.85c0.06,6.28,4.79,10.91,10.98,10.93C658.98,1674.38,663.62,1669.23,663.64,1663.44z"/>
		<path d="M707.89,1670.93c0,2.87-0.02,5.73,0.02,8.6c0.01,0.66-0.13,0.97-0.85,0.95c-1.43-0.03-2.87-0.03-4.3,0
			c-0.7,0.02-0.93-0.3-0.9-0.95c0.03-0.66,0.01-1.33,0-1.99c0-0.24,0.09-0.55-0.13-0.68c-0.3-0.18-0.51,0.13-0.72,0.28
			c-2.6,1.89-5.49,2.97-8.7,3.27c-8.75,0.84-16.96-5.63-18.23-14.34c-1.37-9.44,4.53-18.13,14.31-19.48
			c11.11-1.53,19.5,7.19,19.5,16.68C707.89,1665.83,707.89,1668.38,707.89,1670.93z M690.88,1652.59
			c-6.26-0.04-10.79,4.7-10.87,10.66c-0.09,6.26,4.88,11.13,10.89,11.11c5.95-0.03,10.81-4.73,10.89-10.92
			C701.86,1657.58,696.75,1652.44,690.88,1652.59z"/>
		<path d="M764.37,1670.11c0,3.52-0.02,6.42,0.01,9.32c0.01,0.76-0.2,1.07-1,1.04c-1.36-0.05-2.73-0.04-4.09,0
			c-0.75,0.02-0.99-0.29-0.95-1c0.04-0.63,0.02-1.26,0-1.89c-0.01-0.26,0.1-0.61-0.2-0.76s-0.5,0.18-0.71,0.33
			c-3.1,2.22-6.56,3.34-10.38,3.3c-8.29-0.09-15.39-6.42-16.54-14.64c-1.25-8.9,4.3-17.85,14.36-19.24
			c9.88-1.36,17.93,5.5,19.26,14.2C764.65,1664.09,764.22,1667.42,764.37,1670.11z M758.26,1663.4
			c-0.04-6.01-5.18-10.86-10.98-10.83c-6.14,0.03-10.94,4.96-10.83,11.02c0.12,6.06,4.86,10.73,10.94,10.78
			C753.1,1674.41,758.16,1669.74,758.26,1663.4z"/>
		<path d="M633.25,1680.42c-3.01,0-3.02,0-4.11-2.88c-3.7-9.82-7.46-19.62-11.05-29.48c-1.72-4.73-7.14-5.09-9.69-2.23
			c-0.7,0.78-1.04,1.72-1.4,2.67c-0.77,2.01-1.54,4.02-2.26,6.05c-0.27,0.75-0.66,1.31-1.33,1.79c-3.03,2.18-4.27,5.67-3.38,9.32
			c0.14,0.56,0.1,1.05-0.11,1.61c-1.58,4.09-3.13,8.18-4.64,12.29c-0.24,0.65-0.57,0.88-1.21,0.87c-1.33-0.02-2.66,0-3.99-0.01
			c-1.24-0.01-1.43-0.28-0.98-1.47c2.22-5.89,4.45-11.77,6.68-17.66c1.93-5.11,3.85-10.22,5.78-15.33c1.66-4.41,4.73-7.22,9.47-7.8
			c5.19-0.65,9.26,1.33,11.8,5.94c1.37,2.49,2.11,5.28,3.12,7.95c3.37,8.94,6.74,17.89,10.11,26.84c0.57,1.52,0.55,1.54-1.1,1.54
			C634.37,1680.42,633.81,1680.42,633.25,1680.42z"/>
		<path d="M712.03,1670.56c0-2.62-0.09-5.24,0.02-7.86c0.35-8.89,7.37-15.86,16.27-16.27c0.76-0.04,1,0.21,0.98,0.93
			c-0.03,1.4-0.04,2.8,0,4.19c0.02,0.69-0.24,0.88-0.91,0.92c-5.98,0.43-10.36,5.16-10.39,11.19c-0.02,5.24-0.02,10.48,0.02,15.72
			c0.01,0.89-0.27,1.15-1.13,1.11c-1.29-0.06-2.59-0.06-3.88,0c-0.79,0.03-1.03-0.26-1.02-1.02c0.03-2.97,0.01-5.94,0.01-8.91
			C712.01,1670.56,712.02,1670.56,712.03,1670.56z"/>
		<path d="M608.5,1669.19c-3.1-0.01-5.75-2.68-5.72-5.76c0.03-3.11,2.72-5.75,5.8-5.7c3.14,0.05,5.74,2.69,5.71,5.78
			C614.25,1666.64,611.64,1669.2,608.5,1669.19z"/>
	</g>
	<line class="st0" x1="785.56" y1="1637.71" x2="785.62" y2="1683.89"/>
</g>
</svg>
