<?xml version="1.0" encoding="utf-8"?>
<!-- Generator: Adobe Illustrator 21.1.0, SVG Export Plug-In . SVG Version: 6.00 Build 0)  -->
<svg version="1.1"
	 id="Laag_1" inkscape:version="0.91 r13725" sodipodi:docname="xiaomi_button_icon.svg" xmlns:cc="http://creativecommons.org/ns#" xmlns:dc="http://purl.org/dc/elements/1.1/" xmlns:inkscape="http://www.inkscape.org/namespaces/inkscape" xmlns:rdf="http://www.w3.org/1999/02/22-rdf-syntax-ns#" xmlns:sodipodi="http://sodipodi.sourceforge.net/DTD/sodipodi-0.dtd" xmlns:svg="http://www.w3.org/2000/svg"
	 xmlns="http://www.w3.org/2000/svg" xmlns:xlink="http://www.w3.org/1999/xlink" x="0px" y="0px" viewBox="0 0 439.4 552.8"
	 style="enable-background:new 0 0 439.4 552.8;" xml:space="preserve">
<style type="text/css">
	.st0{fill:#2B2A29;}
</style>
<g id="Слой_x0020_1">
	
		<sodipodi:namedview  bordercolor="#666666" borderopacity="1" gridtolerance="10" guidetolerance="10" id="namedview12" inkscape:current-layer="svg2" inkscape:cx="423.125" inkscape:cy="423.125" inkscape:pageopacity="0" inkscape:pageshadow="2" inkscape:window-height="728" inkscape:window-maximized="0" inkscape:window-width="1408" inkscape:window-x="0" inkscape:window-y="0" inkscape:zoom="0.2788774" objecttolerance="10" pagecolor="#ffffff" showgrid="false">
		</sodipodi:namedview>
	<path class="st0" d="M31.7,153.4l0.9-0.4c1.4-0.7,3.1,0,3.7,1.4l0.1,0.2l107,289.4c0.5,1.4-0.2,3.1-1.7,3.6
		c-0.2,0.1-0.5,0.1-0.7,0.1l-47.7,8.6c-3.3,0.6-6.8-0.6-9.8-2.7c-3.1-2.2-5.7-5.6-7-8.9l-31.2-80.2c-0.1-0.1-0.1-0.2-0.1-0.3
		c-1.3-4.7,1.6-8.7,4.8-13c2.8-3.9,5.9-8.1,4.4-12.1l-17.9-45.5c-1.2-3.1-3.7-4.8-6.7-5.6c-3.4-0.9-7.7-0.8-11.9-0.1
		c-1.4,0.2-2.6-0.6-3.1-1.8l-5.6-14.3c-2.5-6.3-1.8-11.3,1.1-15.2c2.7-3.7,7.3-6.2,12.9-7.9l23.7-7.4l-25.8-69.8
		c-1.9-5-1.2-8.7,1.2-11.7C24.4,157,27.8,155.2,31.7,153.4z M136.9,442.8L32.2,159.4c-2.4,1.2-4.3,2.4-5.4,3.7
		c-1.1,1.4-1.4,3.3-0.3,6.2L53.3,242l0.1,0.1c0.5,1.5-0.4,3.1-1.9,3.5L25,254c-4.5,1.4-8.1,3.3-10,5.9c-1.7,2.4-2,5.5-0.4,9.8
		l4.8,12.2c4.2-0.5,8.4-0.5,12,0.5c4.7,1.2,8.5,4,10.5,9l17.9,45.5c2.7,6.8-1.3,12.4-5.1,17.5c-2.3,3.1-4.5,6.1-3.9,8.2l31.1,80.1
		c0.9,2.4,2.8,4.8,5,6.4c1.8,1.3,3.7,2,5.4,1.7L136.9,442.8z"/>
	<path class="st0" d="M15.5,54.4l25.7-11.7c1.4-0.7,3.1,0,3.7,1.4c0.5,1.1,0.2,2.4-0.6,3.2c-1.5,1.7-2,3.7-2,5.9
		c0,2.5,0.7,5,1.5,7.3l172.9,473c0.5,1.4,1.8,2.8,3.3,3.9c1.4,0.9,2.9,1.4,4.1,1.3l0.9,5.6l-36.2,5.7c-3.4,0.5-6.9-0.7-9.8-2.8
		c-3.1-2.2-5.6-5.6-6.9-8.9L1.8,77.4c-2.4-6.4-1.6-11,1.4-14.8C5.9,59.2,10.3,56.8,15.5,54.4z M36.8,51l-19,8.6
		c-4.5,2-8.2,4-10.2,6.5c-1.7,2.2-2.1,5.1-0.5,9.3l170.3,460.9c0.9,2.4,2.7,4.7,4.9,6.3c1.8,1.3,3.9,2.1,5.6,1.8l26.6-4.2
		c-1.4-1.4-2.6-3-3.2-4.7L38.5,62.6c-1-2.8-1.8-6-1.8-9.3C36.7,52.5,36.7,51.8,36.8,51z"/>
	<path class="st0" d="M57.5,37.5l137.2-20.9l0.9,1.8c35,70.8,65.7,140.7,93.2,210c27.5,69.3,51.7,137.9,73.6,206l0.5,1.7
		l-106.7,98.1c-1,1-2.2,1.7-3.3,2.2c-3.3,1.5-6.8,1.2-10.1-0.1c-3-1.2-5.8-3.2-7.9-5.5c-1.3-1.4-2.4-3-3.1-4.5
		c-32.6-73.9-64.1-150.7-94.9-229.4c-30.9-78.7-61.1-159.2-91-240.2c-2-5.5-2.1-9.8-0.1-13.1C47.8,40.4,51.7,38.4,57.5,37.5z
		 M191.5,22.8L58.3,43.1c-4.1,0.6-6.6,1.7-7.6,3.4c-1,1.7-0.9,4.4,0.6,8.2c30,81.1,60.2,161.5,91,240.1s62.3,155.4,94.8,229.2
		c0.4,1,1.2,2,2.1,3c1.6,1.7,3.6,3.2,5.8,4c1.9,0.7,4,0.9,5.8,0.2c0.6-0.3,1.2-0.7,1.8-1.2l104-95.6
		c-21.7-67.5-45.7-135.4-72.9-203.9C256.4,162,226,92.9,191.5,22.8z"/>
	<path class="st0" d="M283.9,8.7L197.3,22c34.2,69.5,64.5,138.3,91.5,206.5c26.9,67.9,50.7,135.1,72.2,201.9l69.4-61
		c4.7-4.2,2.2-10.8,0.3-15.9h0c-0.3-0.8-0.6-1.6-0.8-2.3c-26.8-74.7-42.6-118.2-60.4-162.8c-17.9-44.8-37.9-91.2-73.1-171.7
		c-1.8-4.1-3-6.5-4.6-7.6C290.3,8.1,288,8.1,283.9,8.7z M192.6,17L283,3.1c5.7-0.9,9.1-0.6,12,1.3c2.7,1.9,4.4,5,6.6,10
		c35.1,80.5,55.2,126.9,73.2,171.9c18,45.2,33.8,88.6,60.5,163c0.3,0.7,0.5,1.4,0.8,2.2l0,0c2.6,6.7,5.9,15.4-1.8,22.1l-75.9,66.6
		l-1.3-4.1c-21.8-68.1-46-136.5-73.4-205.7c-27.4-69.1-58.1-138.9-93-209.5l-1.7-3.5L192.6,17z"/>
	<polygon class="st0" points="222.6,539.5 235.4,527.2 239.3,531.3 226.5,543.5 	"/>
	<polygon class="st0" points="41.5,42.7 50.7,39.5 52.6,44.8 43.3,48 	"/>
	<path class="st0" d="M51.4,368.1l7.2-1.4l33.3-7.7c2-0.5,4.8,0.6,4.8,2.6c0,2-1.6,4.1-3.6,4.6L50.9,376l-0.1-0.2l6-1.4
		c2-0.5,3.2-2,3.4-4.5C60.4,368.3,58.6,366.7,51.4,368.1z"/>
	<path class="st0" d="M60.3,390.6l7.2-1.4l33.3-7.7c2-0.5,4.8,0.5,4.8,2.6c0,2-1.6,4.1-3.6,4.6l-42.2,9.8l-0.1-0.2l6-1.4
		c2-0.5,3.2-2,3.4-4.5C69.3,390.7,67.5,389.1,60.3,390.6z"/>
	<path class="st0" d="M68.6,412.7l7.2-1.4l33.3-7.7c2-0.5,4.8,0.6,4.8,2.6c0,2-1.6,4.1-3.6,4.6l-42.3,9.8l-0.1-0.2l6-1.4
		c2-0.5,3.2-2,3.4-4.5C77.6,412.8,75.8,411.3,68.6,412.7z"/>
	<path class="st0" d="M76.5,435.3l7.2-1.4l33.3-7.7c2-0.5,4.8,0.5,4.8,2.6c0,2-1.6,4.1-3.6,4.6l-42.2,9.8L76,443l6-1.4
		c2-0.5,3.2-2,3.4-4.5C85.5,435.4,83.8,433.9,76.5,435.3z"/>
	<polygon class="st0" points="16.8,282.2 75.2,266.9 76.6,272.4 18.2,287.7 	"/>
	<polygon class="st0" points="48.4,356.5 102.7,342.3 104.1,347.8 49.9,362 	"/>
</g>
</svg>
