<?xml version="1.0" encoding="utf-8"?>
<!-- Generator: Adobe Illustrator 21.1.0, SVG Export Plug-In . SVG Version: 6.00 Build 0)  -->
<svg version="1.1" id="Laag_1" xmlns="http://www.w3.org/2000/svg" xmlns:xlink="http://www.w3.org/1999/xlink" x="0px" y="0px"
	 viewBox="0 0 891 891" style="enable-background:new 0 0 891 891;" xml:space="preserve">
<g id="_x23_ffffffff">
</g>
<g id="_x23_000000ff">
	<path d="M46.2,12.3c2.5-0.7,5.2-0.3,7.8-0.4c132.4,0,264.7,0,397.1,0c12.3,0.1,24.7-0.5,37,1.1c39.2,4.5,76.1,25.6,100.1,56.8
		c17.3,22.1,28.1,49.2,30.8,77.1c1,9,0.7,18.1,0.7,27.1c0,117.3,0,234.7,0,352c0.3,3.6-3.3,6.4-6.7,6c-36.3,0-72.7,0-109,0
		c-3.5,0.4-7-2.4-6.8-6c-0.1-100.4,0-200.7,0-301.1c-0.3-14.7,1.2-29.8-3.1-44.1c-7.9-28.8-32.7-52-61.9-58c-7-1.5-14.1-2-21.2-1.8
		c-79,0-158,0-237,0c-2.8-0.2-6,1-6.8,3.9c-0.7,2.9-0.3,6-0.4,9c0,130.7,0,261.3,0,392c0.3,3.6-3.2,6.5-6.7,6.1c-37,0-74,0-111.1,0
		c-2.8,0.3-5.7-1.7-6.3-4.5c-0.4-2.8-0.2-5.7-0.2-8.6c0-166.7,0-333.4,0-500.1C42.3,16.2,43.5,13.3,46.2,12.3z"/>
	<path d="M721.4,12.5c1.4-0.8,3-0.6,4.6-0.7c36.7,0.1,73.3,0,110,0c3.5-0.4,6.8,2.6,6.6,6.2c0,168,0,335.9,0,503.9
		c-0.2,2.5,0.5,5.5-1.1,7.7c-1.1,1.8-3.3,2.6-5.3,2.5c-37,0-74.1,0-111.1,0c-3.5,0.5-7.1-2.4-6.7-6c0-169,0-338.1,0-507.1
		C718,16.4,718.9,13.6,721.4,12.5z"/>
	<path d="M273.4,214.5c37.5-0.2,75.1,0,112.6-0.1c3.7-0.3,6.7,3.1,6.4,6.7c0.1,99.6,0,199.2,0,298.8c0,2.7,0.2,5.4-0.4,8
		c-0.7,2.6-3.4,4.3-6.1,4.1c-37.4,0-74.7,0-112.1,0c-3.7,0.2-6.3-3.6-5.8-7c0-101.4,0-202.8,0-304.2
		C267.8,217.8,270.3,214.8,273.4,214.5z"/>
	<path d="M46.9,608.4c2.4-3,6.3-4.4,10-4.4c31.7,0,63.4,0,95.2,0c5.9-0.2,10.4,6.4,8.5,11.9c-17.7,50-35.8,99.9-53.4,149.9
		c-0.9,3-3.3,6.2-1.6,9.4c1.2,4,5.4,5.8,9.2,5.8c12.7,0.1,25.4,0,38.2,0c6.5,0.3,13.1,6.2,12.5,13c-0.1,3.6,0.1,7.2-0.1,10.8
		c-1.2,6.1-7.2,10.8-13.4,10.7c-34,0-68,0-102,0c-3.3,0.2-6.1-1.7-8.3-3.9c-1.4-2.7-1.5-5.8-0.9-8.7C59.6,751.4,79,700.1,97.9,648.5
		c1.5-4.9-2.3-9.9-7.4-10c-11.3-0.1-22.6,0-33.9-0.1c-6.6-0.3-12.3-5.6-13.2-12.1C42.5,620.3,42.9,613.4,46.9,608.4z"/>
	<path d="M200.5,604.6c9.2-2.8,19.9,0.5,26.4,7.6c6.4,7,6.4,18.8-0.1,25.8c-6.2,6.6-16,10.2-24.9,7.8c-7-1.2-13.3-5.8-16.4-12.2
		c-3.2-6.1-2.6-14,1.4-19.6C190,609.2,195.1,606,200.5,604.6z"/>
	<path d="M451.4,604.4c8.1-1.4,16.4-0.7,24.6-0.9c6.2-0.2,12.4,0.7,18.6,1.7c15.6,2.5,31.4,8.2,42.3,20
		c12.4,12.2,15.9,31.4,11.3,47.8c-4.6,16-18.8,27.9-34.5,32.4c13.4,6.8,26.9,15.1,35,28.1c5,7.1,7.7,15.8,7.4,24.5
		c0.5,10.8-2.6,21.7-8.1,31c-6.3,9.4-15.6,16.7-26.1,20.9c-9.7,4.1-20,6.3-30.4,7.6c-1.3,0.1-2.5,0.1-3.8,0.2
		c-3.7,0.9-7.6,0-11.4,0.8c-7.6,0.5-15.3-0.3-22.8-0.7c-3.4-0.2-6.7-0.5-10-1C430.2,815,416.9,812,405,806c0-57.3,0-114.7,0-172
		c0-2.7-0.2-5.5,0.3-8.2c1-6.8,6.3-12.6,12.7-14.8c6.2-2.2,12.8-3.5,19.3-4.7C442,605.5,446.7,604.7,451.4,604.4 M454.8,633.3
		c-1,0.1-2.7,0.3-2.3,1.8c0,15.7,0,31.3,0,47c-0.1,4.4,1.4,8.7,3.6,12.5c13.8-1.4,28.6-4.6,38.8-14.7c10.9-11.4,9.7-31.5-2.1-41.8
		c-4.4-3.4-9.9-4.9-15.2-6C470,630.9,462.3,631.9,454.8,633.3 M456.3,721.3c-2.2,3.1-3.8,6.8-3.9,10.7c0,13.6,0,27.2,0,40.9
		c0.6,5.7,3.5,12.1,9.1,14.4c5.5,0.7,11.2,0.2,16.8,0.2c1-0.2,2.1-0.4,3.1-0.6c4.4-0.8,8.8-2.1,12.6-4.6
		c7.1-4.1,10.2-12.5,11.6-20.1c0.8-10.9,0.1-23-7.2-31.8c-7.6-8-19.1-10.5-29.7-11C464.7,718.7,460,718.7,456.3,721.3z"/>
	<path d="M317.4,659.4c7.6-1,15.4-0.2,23,0.2c13.7,1.5,27.6,4.1,39.9,10.7c0.5,4.2,0.1,8.5-0.3,12.7c0,45,0,90,0,134.9
		c1,17.2-5.6,35.1-18.7,46.4c-11.3,10-26.6,14-41.3,15.1c-8.5,0-17.1,0.3-25.5-0.8c-13.5-1.2-26.7-4.7-39-10.4
		c3.1-6.7,4.9-14,8.5-20.4c3.5-5.8,11.5-6.7,17.3-4.2c13.7,4,29.3,6.4,42.7,0.2c8.4-3.8,11.8-13.2,12.6-21.8c-0.6-2.1,0-5.2-2.3-6.3
		c-2.4-1.6-5.3-0.4-7.9-0.1c-9.4,1.1-18.9,1.4-28.2-0.1c-11.8-2.1-22.7-8.1-31.2-16.5c-12.5-13.2-18.9-31.5-19.4-49.5
		c-0.8-4.7-0.3-9.5-0.2-14.2c0.6-10.5,2.1-21.2,5.9-31.1c5.3-14.6,15.4-27.6,29-35.1C292.9,663.2,305.1,660.1,317.4,659.4
		 M317.4,686.1c-5.7,1-11.3,3.7-15,8.3c-6.3,7.6-8.3,17.7-9.8,27.2c-1.4,13-1.5,26.1,0.5,39c1.5,8.5,4.3,17.5,10.8,23.6
		c6.6,5.9,15.9,6.4,24.3,6.3c4.1-3.7,8.1-8.6,7.8-14.5c-0.1-27.4,0-54.7,0-82.1c-0.1-1.9,0.3-3.7,0.8-5.5c-2.8-2.1-6.5-2-9.8-2.5
		C323.8,685.2,320.6,685.9,317.4,686.1z"/>
	<path d="M631.4,659.4c10.2-1.1,20.8-0.3,30.3,3.9c12.7,5.2,22,16.3,27.5,28.7c5.8,12.2,8.1,25.7,8.8,39.1
		c0.9,5.9-3.9,11.5-9.6,12.4c-5.3,0.7-10.5,1.5-15.8,2.3c-11.1,1.7-22.2,3.2-33.2,4.8c-0.9,0.1-1.9,0.1-2.8,0.2
		c-9,1.7-18.1,2.7-27.2,4c1.4,9,4.9,18,11.5,24.5c6.8,6.4,16.6,7.3,25.5,7.5c1.3,0.5,2.8,0.5,4.2,0c12.2-0.1,24.2-3.2,35.2-8.2
		c1.4,7.8,7.1,14.6,6.2,22.9c-0.4,5.3-4.8,9.4-9.7,11c-9,3-18.3,4.5-27.7,5.5c-6,0.6-12,1.1-18,0.8c-2.4-0.5-4.8-0.3-7.2-0.7
		c-15-1.7-30-7.4-40.8-18.3c-11.4-10.7-17.6-25.7-20.5-40.8c-2.2-13-2.2-26.4-0.2-39.4c2.3-15.1,8.7-29.8,19.4-40.8
		C599.1,666.9,615.2,660.6,631.4,659.4 M613.1,698c-4.6,7.3-5.6,16.1-6.5,24.6c-0.2,3.1-0.1,6.2-0.1,9.3c16.4-2.4,32.7-4.9,49.1-7.3
		c0.7,0,2.2-0.1,2.9-0.1c0-10.7-0.9-22.4-7.8-31.1C641,681.7,620,684.9,613.1,698z"/>
	<path d="M758.8,662.6c14.4-4.3,30.4-5.6,44.8-0.3c11.9,4.3,21.5,13.6,27.4,24.7c6.4,11.5,9.2,24.5,10.7,37.4
		c0.5,2.5,0.1,5.1,0.9,7.5c-0.1,5.6-4.4,10.8-10.1,11.4c-17.3,2.4-34.5,5.2-51.8,7.2c-9,1.2-17.9,3-27,3.8c1.5,9,4.6,18.2,11.5,24.5
		c4,4.2,9.8,6,15.3,7c16.8,2.8,33.9-1,49.6-7.1c2,7.2,6.1,13.7,6.5,21.3c-0.2,5.7-4.5,10.3-9.8,11.9c-9.1,3.2-18.7,4.6-28.2,5.6
		c-2.3,0.5-4.7,0.3-7.1,0.5c-20.4,1.5-42.6-3.4-57.8-17.8c-9.1-9-16.2-20.3-19.2-32.8c-1.3-4.6-2-9.4-2.8-14.1
		c-1-9.3-1.6-18.7-0.3-28c1.6-13.8,5.2-27.9,13.6-39.1C733.2,675,745.2,666.2,758.8,662.6 M773.5,686.6c-6,1.3-11.7,4.6-15.1,9.8
		c-7.2,10.3-7.5,23.3-8.1,35.3c17.7-2,35.1-5.3,52.8-7.6c-0.2-3.2-0.6-6.4-0.7-9.6c-1-7.9-3-16.1-8.3-22.1
		C788.9,687,780.8,685.4,773.5,686.6z"/>
	<path d="M196.2,662.1c6.9-0.3,13.9,0,20.8-0.1c4.1-0.2,8.3,1.8,10.7,5.2c4.2,5.4,1.2,12.5,2.7,18.7c0.1,38.4,0,76.8,0.1,115.1
		c0.4,6.8-4.7,13.8-11.8,14.4c-6.2,0.3-12.5,0-18.7,0.1c-3.9,0.1-8.2-0.5-11-3.5c-2.2-2.5-4.1-5.6-4-9c0-42.7,0-85.3,0-128
		C184.5,668.7,189.9,662.6,196.2,662.1z"/>
</g>
</svg>
