<?xml version="1.0" encoding="utf-8"?>
<!-- Generator: Adobe Illustrator 24.0.1, SVG Export Plug-In . SVG Version: 6.00 Build 0)  -->
<svg version="1.1" id="Laag_1" xmlns="http://www.w3.org/2000/svg" xmlns:xlink="http://www.w3.org/1999/xlink" x="0px" y="0px"
	 viewBox="0 0 236.57 211.12" style="enable-background:new 0 0 236.57 211.12;" xml:space="preserve">
<style type="text/css">
	.st0{fill:#4E6690;}
</style>
<path class="st0" d="M217.26,205.92c-14.35,0-14.41,0.02-19.59-13.72c-17.62-46.8-35.53-93.49-52.66-140.47
	C136.8,29.2,111,27.47,98.83,41.08c-3.32,3.71-4.95,8.22-6.67,12.71c-3.67,9.58-7.32,19.18-10.78,28.84
	c-1.28,3.57-3.16,6.25-6.33,8.53c-14.43,10.37-20.36,27.03-16.13,44.41c0.65,2.65,0.49,5.02-0.53,7.68
	c-7.52,19.47-14.92,38.98-22.12,58.57c-1.13,3.08-2.7,4.18-5.77,4.13c-6.33-0.1-12.66,0-18.99-0.04c-5.89-0.04-6.8-1.35-4.68-6.98
	c10.58-28.06,21.22-56.1,31.81-84.16c9.19-24.34,18.33-48.69,27.52-73.03C74.09,20.72,88.7,7.35,111.28,4.54
	c24.73-3.08,44.11,6.33,56.21,28.29C174.03,44.7,177.56,58,182.34,70.7c16.07,42.62,32.12,85.26,48.16,127.89
	c2.72,7.22,2.62,7.33-5.25,7.33C222.59,205.92,219.92,205.92,217.26,205.92z"/>
<path class="st0" d="M99.31,152.41c-14.79-0.05-27.4-12.76-27.24-27.47c0.16-14.82,12.97-27.42,27.63-27.17
	c14.98,0.26,27.35,12.8,27.19,27.56C126.74,140.26,114.31,152.46,99.31,152.41z"/>
</svg>
