<?xml version="1.0" encoding="utf-8"?>
<!-- Generator: Adobe Illustrator 24.0.1, SVG Export Plug-In . SVG Version: 6.00 Build 0)  -->
<svg version="1.1" id="Laag_1" xmlns="http://www.w3.org/2000/svg" xmlns:xlink="http://www.w3.org/1999/xlink" x="0px" y="0px"
	 viewBox="0 0 1804 1804" style="enable-background:new 0 0 1804 1804;" xml:space="preserve">
<style type="text/css">
	.st0{fill:#FFFFFF;}
	.st1{fill:none;stroke:#000000;stroke-width:5;stroke-miterlimit:10;}
</style>
<path d="M1533.19,904.29c0,48.31-0.01,96.62,0,144.94c0.01,42.48,0.03,84.95,0.05,127.43c0.02,29.81,0.01,59.62,0.09,89.44
	c0.19,75.44,0.47,150.89,0.62,226.33c0.13,60.64,0.12,121.29,0.19,181.94c0.03,24.49,0.15,48.97,0.17,73.46
	c0.01,8.6-3.76,12.37-12.54,12.32c-23.66-0.13-47.32-0.34-70.98-0.61c-22.31-0.25-44.61-0.69-66.92-0.92
	c-35.15-0.37-70.3-0.57-105.45-0.96c-29.98-0.33-59.96-0.85-89.94-1.22c-34.31-0.43-68.63-0.81-102.94-1.17
	c-26.15-0.28-52.31-0.49-78.46-0.74c-32.32-0.3-64.64-0.61-96.96-0.92c-30.15-0.29-60.3-0.67-90.46-0.87
	c-43.63-0.3-87.27-0.52-130.9-0.7c-28.82-0.12-57.65-0.06-86.47-0.14c-21.14-0.06-42.29-0.21-63.43-0.36
	c-58.96-0.41-117.93-0.79-176.89-1.39c-4.74-0.05-9.61-1.22-14.14-2.71c-5.33-1.76-10.28-6.51-10.22-14.31
	c0.23-31.66,0.04-63.32-0.1-94.98c-0.15-31.49-0.46-62.97-0.65-94.46c-0.33-55.31-0.58-110.63-0.92-165.94
	c-0.41-67.97-0.89-135.94-1.32-203.91c-0.23-35.48-0.33-70.96-0.65-106.44c-0.45-49.48-1.1-98.95-1.56-148.43
	c-0.43-46.65-0.69-93.3-1.09-139.95c-0.49-56.98-1.02-113.95-1.58-170.93c-0.49-50.65-1.03-101.29-1.58-151.94
	c-0.46-42.31-0.99-84.62-1.44-126.93c-0.32-29.66-0.64-59.31-0.79-88.97c-0.08-15.68,10.35-29.36,25.77-32.59
	c15.94-3.34,32.1-5.65,48.19-8.27c15.76-2.56,31.56-4.95,47.34-7.4c9.54-1.48,19.05-3.11,28.62-4.38
	c15.47-2.05,30.74-5.28,46.15-7.63c13.31-2.03,26.62-4.09,39.9-6.28c30.7-5.06,61.38-10.33,92.1-15.3
	c23.46-3.8,47.01-7.1,70.46-10.94c21.5-3.52,42.92-7.57,64.41-11.17c16.91-2.83,33.89-5.24,50.82-8
	c13.79-2.25,27.52-4.84,41.31-7.08c9.83-1.6,19.75-2.72,29.57-4.34c13.79-2.28,27.51-4.92,41.29-7.22
	c11.65-1.94,23.37-3.5,35.02-5.43c11.49-1.9,22.93-4.11,34.41-6.06c15.73-2.68,31.49-5.22,47.23-7.87
	c19.19-3.24,38.37-6.52,57.55-9.81c23.44-4.02,46.86-8.16,70.32-12.05c15.57-2.58,31.23-4.62,46.79-7.26
	c21.79-3.7,43.51-7.87,65.3-11.56c17.23-2.91,34.56-5.25,51.79-8.13c15.54-2.59,31.02-5.61,46.54-8.34
	c12.11-2.13,24.19-4.52,36.39-5.98c5.45-0.65,11.19,0.38,16.71,1.21c18.75,2.81,37.48,5.72,56.17,8.88
	c11.02,1.86,17.85,10.41,17.93,22.46c0.2,27.99,0.1,55.99,0.2,83.98c0.07,18.65,0.44,37.3,0.41,55.95
	c-0.09,56.14-0.35,112.27-0.46,168.41c-0.08,36.98,0.06,73.97-0.05,110.95c-0.1,34.32-0.54,68.64-0.6,102.96
	c-0.07,37.49,0.16,74.98,0.17,112.47c0,45.97-0.1,91.94-0.14,137.92c-0.02,23.99,0,47.98,0,71.97
	C1533.42,904.29,1533.31,904.29,1533.19,904.29z M1435.89,893.22c-0.14,0-0.28,0-0.42,0c0-7.49-0.03-14.99,0.01-22.48
	c0.17-34.48,0.5-68.96,0.51-103.44c0.01-41.8-0.36-83.6-0.34-125.41c0.03-58.81,0.32-117.62,0.4-176.43
	c0.06-44.32-0.08-88.64-0.03-132.95c0.05-48.31,0.25-96.63,0.31-144.94c0.05-42.64,0.02-85.28-0.05-127.92
	c-0.01-5.98-0.27-11.98-0.68-17.95c-0.23-3.3-1.89-4.97-5.71-4.32c-17.86,3.04-35.78,5.76-53.64,8.82
	c-23.27,3.99-46.47,8.31-69.74,12.26c-32.47,5.51-64.97,10.83-97.46,16.21c-24.09,3.99-48.21,7.86-72.29,11.94
	c-21.44,3.63-42.82,7.63-64.28,11.2c-29.21,4.87-58.46,9.41-87.68,14.23c-30.21,4.99-60.41,10.09-90.6,15.23
	c-25.73,4.38-51.41,9.03-77.16,13.3c-23.62,3.91-47.31,7.43-70.95,11.19c-17.59,2.79-35.17,5.66-52.74,8.53
	c-16.91,2.77-33.81,5.67-50.73,8.37c-11.5,1.83-23.06,3.26-34.54,5.17c-16.89,2.81-33.72,6.04-50.61,8.81
	c-17.88,2.93-35.83,5.44-53.72,8.31c-11.66,1.87-23.24,4.18-34.89,6.05c-32.86,5.27-65.74,10.41-98.6,15.62
	c-6.39,1.01-13.07,1.29-19.08,3.41c-11.81,4.17-17.97,14.54-17.94,28.28c0.02,7,0.42,13.99,0.5,20.98
	c0.44,38.48,0.9,76.95,1.24,115.43c0.29,32.82,0.29,65.65,0.68,98.47c0.58,48.64,1.53,97.28,2.06,145.92
	c0.55,50.31,0.75,100.63,1.2,150.94c0.53,59.31,1.22,118.61,1.73,177.92c0.34,38.98,0.42,77.96,0.73,116.94
	c0.36,45.65,0.91,91.3,1.25,136.94c0.48,63.98,0.88,127.96,1.23,191.94c0.25,46.32,0.41,92.64,0.52,138.96
	c0.05,21.66-0.21,43.31-0.15,64.97c0.06,21.15,0.31,42.3,0.53,63.45c0.23,21.65,0.52,43.3,0.82,64.95c0.07,5.19,2.97,8.07,7.95,8.57
	c7.28,0.73,14.59,1.55,21.89,1.6c27.44,0.2,54.88,0.02,82.33,0.15c14.47,0.07,28.93,0.56,43.4,0.68c23.15,0.2,46.3,0.26,69.45,0.35
	c45.81,0.18,91.61,0.26,137.42,0.51c30.97,0.17,61.94,0.63,92.91,0.85c32.64,0.23,65.27,0.26,97.91,0.53
	c25.32,0.21,50.63,0.75,75.95,0.98c38.47,0.35,76.95,0.46,115.42,0.85c44.47,0.45,88.94,1.13,133.42,1.64
	c31.48,0.36,62.96,0.6,94.43,0.92c36.15,0.38,72.3,0.79,108.44,1.19c7.47,0.08,10.22-2.58,10.25-10.1
	c0.05-13.65,0.08-27.31,0.05-40.96c-0.1-44.65-0.22-89.31-0.34-133.96c-0.12-47.66-0.27-95.31-0.35-142.97
	c-0.06-34.16,0.01-68.32-0.04-102.47c-0.07-49.99-0.25-99.99-0.27-149.98c-0.02-49.64,0.11-99.27,0.14-148.91
	C1435.92,978.82,1435.89,936.02,1435.89,893.22z M1525.95,772.72c0.02,0,0.05,0,0.07,0c0-8.67-0.01-17.33,0-26
	c0.12-65.15,0.24-130.3,0.36-195.45c0.08-40.14,0.18-80.27,0.26-120.41c0.06-30.14,0.07-60.28,0.15-90.43
	c0.07-27.66,0.23-55.31,0.26-82.97c0.04-37.48,0.02-74.95-0.03-112.43c-0.04-28.32-0.09-56.64-0.28-84.96
	c-0.05-7.61-5.14-14.56-11.71-15.62c-12.15-1.96-24.38-3.43-36.58-5.07c-3.09-0.42-4.17,0.76-3.66,4.03
	c0.67,4.26,1.07,8.61,1.09,12.92c0.21,45.31,0.41,90.62,0.45,135.93c0.04,48.98-0.08,97.96-0.14,146.94
	c-0.07,61.48-0.14,122.95-0.25,184.43c-0.09,55.32-0.3,110.64-0.33,165.95c-0.03,61.81,0.08,123.62,0.12,185.43
	c0.05,77.48,0.06,154.95,0.13,232.43c0.05,63.15,0.17,126.29,0.23,189.44c0.04,41.15-0.03,82.29,0.04,123.43
	c0.11,57.99,0.31,115.97,0.48,173.96c0.1,35.81,0.3,71.62,0.29,107.44c0,15.31-0.33,30.61-0.74,45.92c-0.1,3.61,1.52,4.17,4.47,4.17
	c12.33,0.04,24.66,0.12,36.99,0.33c8.16,0.14,9.57-1.18,9.51-9.42c-0.14-19.81-0.26-39.62-0.33-59.43
	c-0.1-29.14-0.12-58.28-0.23-87.42c-0.15-38.3-0.46-76.59-0.5-114.89c-0.07-63.97,0.08-127.95,0.01-191.92
	c-0.05-46.81-0.42-93.63-0.43-140.44c-0.01-62.98,0.22-125.95,0.27-188.93C1525.99,897.37,1525.95,835.05,1525.95,772.72z
	 M1443.18,984.13c-0.03,0-0.07,0-0.1,0c0,15.16-0.01,30.33,0,45.49c0.09,79.14,0.17,158.29,0.28,237.43
	c0.05,38.14,0.18,76.29,0.21,114.43c0.03,43.5-0.07,86.99,0.01,130.49c0.07,36.98,0.41,73.96,0.44,110.95
	c0.04,41.31-0.1,82.62-0.25,123.93c-0.01,2.75,0.9,4.06,3.64,4.1c4.83,0.07,9.66,0.16,14.49,0.29c8.4,0.23,10.78-2.03,10.75-10.3
	c-0.1-23.99-0.2-47.98-0.28-71.97c-0.18-58.31-0.39-116.63-0.48-174.94c-0.08-55.15,0.02-110.3-0.04-165.45
	c-0.09-86.3-0.29-172.6-0.37-258.9c-0.04-43.99,0.17-87.97,0.09-131.96c-0.07-36.63-0.58-73.26-0.59-109.89
	c-0.01-42.65,0.36-85.31,0.47-127.96c0.14-53.96,0.2-107.92,0.27-161.88c0.05-39.29,0.03-78.58,0.07-117.86
	c0.07-69.65,0.18-139.31,0.24-208.96c0.03-41.48,0.13-82.97-0.07-124.45c-0.07-14.3-0.87-28.6-1.51-42.89
	c-0.2-4.45-3.11-6.9-7.37-7.5c-4.28-0.6-8.59-1.08-12.91-1.31c-5.35-0.29-7.07,1.59-7.02,7.11c0.23,24.15,0.61,48.29,0.64,72.44
	c0.06,52.46-0.07,104.91-0.11,157.37c-0.04,44.96-0.04,89.92-0.11,134.88c-0.06,39.31-0.27,78.63-0.27,117.94
	c0,60.99,0.19,121.97,0.19,182.96c-0.01,48.48-0.22,96.97-0.28,145.45C1443.14,896.82,1443.18,940.47,1443.18,984.13z"/>
<path d="M370.39,962.96c0-62.14,0.06-124.28-0.02-186.43c-0.08-58.32-0.17-116.64-0.52-174.96c-0.42-69.64-1.11-139.28-1.7-208.92
	c-0.09-10.59,4.44-15.97,15.01-17.63c7.39-1.16,14.77-2.4,22.2-3.33c4.17-0.52,6.09-2.73,6.8-6.68c1.61-8.99,5.71-16.96,12.9-22.41
	c4.71-3.57,10.58-6.47,16.35-7.63c14.16-2.84,28.55-4.5,42.84-6.64c27.3-4.09,54.58-8.29,81.9-12.24c27-3.9,54.04-7.47,81.05-11.31
	c15.82-2.25,31.6-4.73,47.39-7.14c28.94-4.41,57.87-8.88,86.81-13.27c24.35-3.7,48.7-7.37,73.06-10.96
	c16.78-2.47,33.61-4.67,50.38-7.2c38.79-5.84,77.55-11.83,116.34-17.72c22.04-3.35,44.11-6.54,66.14-9.96
	c27.79-4.3,55.55-8.82,83.34-13.12c33.38-5.16,66.78-10.19,100.17-15.29c14.15-2.16,25.3,5.11,30.19,21.45
	c2.58,8.62,3.8,17.92,3.96,26.94c0.47,26.79,0.01,53.6,0.09,80.4c0.23,72.46,0.5,144.92,0.86,217.39
	c0.18,36.64,0.68,73.29,0.86,109.93c0.23,47.98,0.3,95.96,0.43,143.94c0.18,67.14,0.29,134.27,0.55,201.41
	c0.22,57.28,0.59,114.57,0.91,171.85c0.31,55.8,0.65,111.61,0.97,167.41c0.37,65.8,0.87,131.6,0.92,197.39
	c0.01,7.47-1.69,15.22-4.06,22.36c-5.19,15.61-16.6,22.62-33.13,22.6c-34.99-0.04-69.98,0.42-104.97,0.74
	c-27.31,0.25-54.61,0.65-81.92,0.89c-31.13,0.28-62.26,0.34-93.39,0.71c-60.45,0.73-120.9,1.68-181.35,2.43
	c-27.66,0.34-55.32,0.37-82.97,0.64c-26.15,0.26-52.29,0.67-78.44,0.97c-61.3,0.72-122.61,1.41-183.91,2.13
	c-8.32,0.1-16.65,0.16-24.96,0.5c-18.89,0.78-27.74-11.05-31.04-27.36c-1.05-5.2-1.54-10.52-2.08-15.81
	c-0.34-3.35-1.97-4.54-5.25-4.49c-4.81,0.08-9.84,0.67-14.39-0.48c-9.67-2.44-15.27-10.56-15.31-20.83
	c-0.11-30.83-0.11-61.65-0.21-92.48c-0.15-44.98-0.41-89.96-0.52-134.95c-0.07-26.65,0.17-53.29,0.07-79.94
	c-0.19-53.81-0.57-107.63-0.75-161.44c-0.12-33.82-0.02-67.65-0.02-101.47C371.44,962.96,370.91,962.96,370.39,962.96z
	 M1208.3,900.8c-0.3,0-0.59,0-0.89,0c0-39.14,0.1-78.28-0.03-117.42c-0.16-48.31-0.52-96.63-0.78-144.94
	c-0.18-32.82-0.38-65.64-0.47-98.45c-0.11-42.47-0.1-84.95-0.18-127.42c-0.06-29.33-0.17-58.65-0.28-87.98
	c-0.06-15.66,0.35-31.35-0.44-46.98c-0.58-11.41-5.49-13.32-12.82-12.4c-4.78,0.6-9.59,1.07-14.35,1.81
	c-23,3.58-45.98,7.29-68.98,10.85c-25.49,3.94-50.98,7.84-76.49,11.61c-31.74,4.69-63.5,9.24-95.25,13.83
	c-23.22,3.36-46.45,6.67-69.66,10.04c-33.77,4.9-67.53,9.82-101.29,14.75c-27.01,3.95-54.01,7.98-81.02,11.89
	c-29.8,4.31-59.62,8.49-89.42,12.78c-22.72,3.27-45.42,6.73-68.16,9.91c-25.21,3.53-50.46,6.76-75.66,10.3
	c-21.91,3.08-43.78,6.49-65.68,9.6c-8.49,1.2-10.74,3.33-10.73,11.82c0.04,21.47,0.11,42.95,0.3,64.42
	c0.53,61.65,1.28,123.3,1.64,184.95c0.3,51.48,0.05,102.96,0.24,154.44c0.22,60.81,0.67,121.63,1,182.44
	c0.31,56.96,0.63,113.93,0.86,170.9c0.33,81.64,0.6,163.27,0.88,244.91c0.12,33.98,0.13,67.97,0.29,101.95
	c0.06,12.15,0,24.33,0.72,36.45c0.47,8.05,5.22,11.73,13.35,11.71c24.64-0.05,49.29-0.06,73.93-0.27
	c42.14-0.37,84.29-1.02,126.43-1.28c36.77-0.23,73.55,0.01,110.33-0.17c18.81-0.09,37.62-0.78,56.44-0.93
	c38.97-0.29,77.94-0.38,116.9-0.59c38.15-0.21,76.31-0.51,114.46-0.69c17.99-0.09,35.98,0.1,53.97-0.03
	c28.63-0.2,57.25-0.67,85.88-0.83c20.82-0.12,41.65,0.14,62.48,0.1c9.92-0.01,13.72-2.96,14.59-12.97
	c0.86-9.92,0.66-19.94,0.61-29.92c-0.19-37.97-0.53-75.94-0.78-113.91c-0.27-41.48-0.57-82.97-0.74-124.45
	c-0.19-46.81-0.18-93.62-0.39-140.42c-0.11-23.14-0.7-46.29-0.75-69.43C1208.21,1000.77,1208.3,950.79,1208.3,900.8z M1249.7,910.81
	c0.04,0,0.09,0,0.13,0c0,8.16-0.05,16.32,0.01,24.48c0.23,32.14,0.57,64.28,0.73,96.42c0.21,41.65,0.23,83.31,0.43,124.96
	c0.19,40.3,0.52,80.6,0.74,120.9c0.2,35.97,0.3,71.95,0.52,107.92c0.28,45.31,0.66,90.62,0.97,135.92
	c0.05,7.8-0.91,15.31-9.39,18.65c-3.83,1.51-8.02,2.14-12.09,2.97c-11.4,2.32-22.76,6.01-34.24,6.51
	c-26.78,1.15-53.63,0.84-80.45,0.96c-40.27,0.17-80.54,0.14-120.8,0.3c-42.32,0.17-84.64,0.45-126.96,0.69
	c-61.48,0.35-122.96,0.72-184.43,1.08c-43.64,0.26-87.28,0.46-130.92,0.79c-31.48,0.24-62.95,0.65-94.43,0.96
	c-12.66,0.13-25.33,0.29-37.99,0.22c-4.27-0.02-6.3,1.38-5.61,5.86c0.67,4.28,0.9,8.65,1.86,12.85
	c3.39,14.86,10.51,21.18,23.61,21.03c33.96-0.41,67.92-0.89,101.88-1.38c35.97-0.52,71.94-1.2,107.91-1.62
	c60.63-0.71,121.27-1.28,181.9-1.91c26.31-0.27,52.62-0.59,78.92-0.8c9.83-0.08,19.66,0.31,29.48,0.11
	c20.63-0.41,41.25-1.35,61.87-1.56c36.3-0.37,72.61-0.23,108.91-0.53c32.82-0.27,65.63-0.9,98.45-1.26
	c21.99-0.24,43.98-0.24,65.97-0.39c6.26-0.04,11.55-2.07,16.06-6.76c7-7.28,10.36-16.08,10.4-25.77
	c0.13-31.81-0.25-63.62-0.44-95.43c-0.19-33.15-0.42-66.29-0.55-99.44c-0.1-23.99,0.03-47.97-0.12-71.96
	c-0.21-32.64-0.68-65.29-0.88-97.93c-0.2-31.98-0.16-63.97-0.33-95.95c-0.21-38.82-0.63-77.64-0.77-116.46
	c-0.17-48.8-0.08-97.6-0.23-146.4c-0.2-64.49-0.51-128.97-0.8-193.46c-0.23-50.98-0.57-101.95-0.77-152.93
	c-0.09-23.66,0.1-47.32,0.05-70.99c-0.09-44.98-0.18-89.97-0.47-134.95c-0.07-11.64-0.2-23.35-1.65-34.87
	c-0.74-5.86-3.83-11.73-6.96-16.92c-4.91-8.13-12.41-7.53-21.03-6.03c-27.5,4.78-55.19,8.46-82.77,12.73
	c-28.08,4.35-56.11,8.95-84.18,13.33c-21.37,3.33-42.76,6.46-64.14,9.7c-25.15,3.8-50.29,7.62-75.44,11.42
	c-18.08,2.73-36.17,5.47-54.25,8.17c-18.09,2.69-36.19,5.28-54.27,8.02c-21.04,3.19-42.05,6.6-63.1,9.75
	c-23.21,3.47-46.46,6.68-69.67,10.15c-26.18,3.91-52.32,8.04-78.5,11.93c-18.28,2.71-36.6,5.13-54.89,7.77
	c-22.41,3.24-44.8,6.57-67.2,9.89c-26.35,3.9-52.68,7.9-79.05,11.69c-9.53,1.37-18.23,11.79-20.37,21.11
	c-0.84,3.65,0.56,5.22,4.63,4.47c5.72-1.05,11.53-1.57,17.29-2.37c19.12-2.68,38.24-5.35,57.36-8.08
	c18.78-2.68,37.54-5.47,56.33-8.11c13.18-1.85,26.41-3.38,39.58-5.28c22.38-3.22,44.74-6.67,67.11-9.93
	c18.77-2.74,37.57-5.3,56.35-8.03c15.15-2.2,30.27-4.66,45.43-6.79c20.09-2.82,40.24-5.25,60.32-8.18
	c20.68-3.02,41.27-6.58,61.94-9.65c19.41-2.89,38.9-5.32,58.31-8.2c28.3-4.2,56.56-8.67,84.85-12.94
	c28.46-4.29,56.94-8.47,85.41-12.72c23.02-3.44,46.02-7.05,69.07-10.28c5.86-0.82,12.29-1.89,17.76-0.34
	c11.97,3.38,23.59,8.11,35.16,12.76c6.88,2.77,10.54,8.01,10.51,15.95c-0.09,21.66,0.25,43.31,0.36,64.97
	c0.15,31.98,0.27,63.96,0.36,95.94c0.09,32.15,0.11,64.3,0.2,96.45c0.1,36.32,0.24,72.63,0.38,108.95
	c0.22,58.63,0.47,117.27,0.64,175.9C1249.77,856.15,1249.7,883.48,1249.7,910.81z M1240.97,507.05c-0.06,0-0.13,0-0.19,0
	c0-26.81,0.08-53.63-0.02-80.44c-0.12-31.66-0.43-63.32-0.62-94.98c-0.09-14.49-0.11-28.99-0.12-43.48c0-4.66-1.13-8.75-5.98-10.46
	c-5.76-2.03-11.61-3.84-17.49-5.53c-2.65-0.76-3.81,0.3-3.77,3.39c0.2,16.83,0.15,33.65,0.22,50.48
	c0.23,59.81,0.44,119.61,0.71,179.42c0.26,57.48,0.6,114.95,0.86,172.43c0.14,31.32,0.21,62.65,0.28,93.97
	c0.09,41.32,0.09,82.64,0.25,123.96c0.19,47.15,0.53,94.29,0.76,141.44c0.19,39.32,0.25,78.64,0.49,117.96
	c0.43,70.3,1,140.6,1.43,210.9c0.23,37.32,0.4,74.64,0.35,111.96c-0.03,18.64-0.56,37.28-1.01,55.91c-0.08,3.51,1.62,4,4.35,3.38
	c5.52-1.24,11.05-2.48,16.54-3.86c5.91-1.48,7.58-3.77,7.55-9.94c-0.09-16.66-0.17-33.33-0.27-49.99
	c-0.34-59.82-0.69-119.63-1.04-179.45c-0.38-64.64-0.78-129.29-1.12-193.93c-0.16-31.29-0.18-62.59-0.32-93.88
	c-0.13-30.16-0.38-60.31-0.51-90.47c-0.13-31.82-0.1-63.65-0.26-95.47c-0.17-32.64-0.55-65.27-0.73-97.91
	c-0.18-32.15-0.3-64.3-0.35-96.46C1240.93,586.37,1240.97,546.71,1240.97,507.05z"/>
<path class="st0" d="M1240.97,507.05c0,39.66-0.04,79.32,0.01,118.98c0.05,32.15,0.16,64.31,0.35,96.46
	c0.19,32.64,0.56,65.27,0.73,97.91c0.17,31.82,0.13,63.65,0.26,95.47c0.12,30.16,0.37,60.31,0.51,90.47
	c0.14,31.29,0.15,62.59,0.32,93.88c0.34,64.65,0.75,129.29,1.12,193.93c0.35,59.82,0.69,119.63,1.04,179.45
	c0.1,16.66,0.18,33.33,0.27,49.99c0.03,6.17-1.64,8.46-7.55,9.94c-5.49,1.37-11.01,2.62-16.54,3.86c-2.74,0.61-4.44,0.12-4.35-3.38
	c0.44-18.63,0.98-37.27,1.01-55.91c0.05-37.32-0.12-74.64-0.35-111.96c-0.43-70.3-1-140.6-1.43-210.9
	c-0.24-39.32-0.3-78.64-0.49-117.96c-0.23-47.15-0.58-94.29-0.76-141.44c-0.16-41.32-0.16-82.64-0.25-123.96
	c-0.07-31.32-0.13-62.65-0.28-93.97c-0.26-57.48-0.61-114.95-0.86-172.43c-0.27-59.81-0.48-119.61-0.71-179.42
	c-0.06-16.83-0.01-33.65-0.22-50.48c-0.04-3.09,1.12-4.15,3.77-3.39c5.87,1.69,11.72,3.5,17.49,5.53c4.85,1.71,5.97,5.8,5.98,10.46
	c0.01,14.49,0.03,28.99,0.12,43.48c0.19,31.66,0.49,63.32,0.62,94.98c0.1,26.81,0.02,53.63,0.02,80.44
	C1240.85,507.05,1240.91,507.05,1240.97,507.05z"/>
<path d="M610.13,946.41c-1.32,15.45-4.22,30.11-16.06,41.34c-13.47,12.78-33.74,10.05-43.04-6.06
	c-9.01-15.62-10.71-32.35-5.89-49.59c1.62-5.81,4.07-11.53,7-16.8c5.84-10.51,14.77-16.46,27.21-16
	c12.06,0.45,19.39,7.65,24.52,17.7C608.6,926.26,609.67,936.32,610.13,946.41z M546.21,950.86c1.6,6.92,2.57,14.06,4.96,20.69
	c2.86,7.93,7.57,15.02,16.08,18.03c11,3.9,23.06-1.1,29.33-11.99c10.87-18.88,12-38.38,3.14-58.33
	c-8.31-18.71-30.21-21.06-42.08-4.37C550.09,925.5,546.74,937.56,546.21,950.86z"/>
<path d="M998.29,915.83c-0.12,14.61-4.37,30.23-16.94,42.81c-10.92,10.93-30.95,9.04-39.96-4.05c-10.65-15.47-12.65-32.63-8.69-50.6
	c2.63-11.93,7.51-22.7,18.08-29.95c13.38-9.16,29.42-5.75,38.05,8.11C995.56,892.96,997.04,897.92,998.29,915.83z M935.52,917.46
	c-0.49,11.21,1.97,21.66,7.66,31.47c10.99,18.94,32.91,13.04,40.94-0.42c11.1-18.61,12.85-38.13,4.29-58.31
	c-3.49-8.22-8.67-14.86-17.99-16.26c-10.56-1.59-18.85,2.78-24.84,11.51C938.98,895.07,935.82,905.79,935.52,917.46z"/>
<path d="M480.46,479.19c-0.24,6.61-3.25,10.78-7.49,10.38c-3.87-0.37-6.35-5.08-5.86-11.11c0.45-5.44,2.75-8.17,6.79-8.07
	C478.05,470.51,480.64,473.99,480.46,479.19z"/>
<g>
	<g>
		<path d="M893.82,1697.46c-1.89,0-3.67,0.01-5.45,0c-2.08-0.01-2.08-0.02-2.08-2.07c0-10.78,0-21.55,0-32.33
			c0-1.38,0-1.38,1.33-1.38c5.53,0,11.05-0.06,16.58,0.03c2.6,0.04,5.24,0.08,7.74,1.03c3.28,1.24,5.25,3.64,6.13,6.96
			c0.83,3.12,0.68,6.21-0.61,9.2c-1.06,2.45-2.98,4.02-5.43,4.97c-2.84,1.09-5.83,1.01-8.79,1.08c-2.78,0.07-5.56,0.04-8.34,0
			c-0.83-0.01-1.11,0.22-1.1,1.07c0.04,3.42,0.02,6.84,0.02,10.26C893.82,1696.63,893.82,1696.97,893.82,1697.46z M899.52,1668.08
			c0-0.04,0-0.09,0-0.13c-1.63,0-3.26,0-4.89,0c-0.46,0-0.82,0.04-0.81,0.65c0.01,3.17-0.01,6.33,0.03,9.5
			c0,0.22,0.39,0.62,0.59,0.62c3.77-0.03,7.54,0,11.29-0.25c1.1-0.07,2.39-0.75,3.16-1.57c2.64-2.77,1.32-7.39-2.33-8.52
			c-0.42-0.13-0.87-0.26-1.31-0.27C903.35,1668.06,901.44,1668.08,899.52,1668.08z"/>
		<path d="M826.99,1697.42c-10.45-0.11-18.46-8.52-18.01-18.7c0.41-9.2,8.1-17.1,18.27-16.96c10.28,0.14,18.2,8.3,17.81,18.56
			C844.69,1690.08,836.71,1697.35,826.99,1697.42z M827.08,1668.64c-6.18-0.01-11.14,4.83-11.17,10.9c-0.03,6.07,5,11.1,11.11,11.11
			c6.1,0,11.13-4.93,11.17-10.95C838.24,1673.59,833.28,1668.65,827.08,1668.64z"/>
		<path d="M849.16,1679.48c0-5.5,0-11,0-16.5c0-1.29,0-1.29,1.23-1.29c5.53,0,11.05-0.06,16.58,0.03c2.67,0.04,5.37,0.07,7.93,1.08
			c3.71,1.48,5.65,4.36,6.26,8.18c0.38,2.35,0.28,4.72-0.52,7.01c-1.15,3.29-3.48,5.41-6.79,6.14c-2.53,0.55-5.18,0.68-7.78,0.81
			c-2.71,0.13-5.43,0.03-8.15,0.03c-1.27,0-1.28,0-1.28,1.24c0,3.42-0.02,6.84,0.01,10.27c0.01,0.75-0.2,1.01-0.97,0.99
			c-1.82-0.05-3.64-0.05-5.46,0.01c-0.86,0.03-1.08-0.28-1.08-1.11C849.17,1690.74,849.16,1685.11,849.16,1679.48z M862.36,1668.09
			c0-0.05,0-0.1,0-0.15c-1.63,0-3.26,0.01-4.88-0.01c-0.53-0.01-0.84,0.13-0.83,0.74c0.02,3.1,0.01,6.2,0,9.3
			c0,0.51,0.17,0.77,0.72,0.76c3.64-0.07,7.28,0,10.9-0.22c3.11-0.19,4.81-2.28,4.7-5.4c-0.02-0.69-0.05-1.48-0.38-2.05
			c-0.47-0.82-1.11-1.65-1.88-2.17c-0.7-0.48-1.66-0.72-2.53-0.77C866.25,1668.01,864.3,1668.09,862.36,1668.09z"/>
		<path d="M978.62,1697.28c-0.24,0.1-0.3,0.14-0.36,0.14c-5.68-0.05-11.39,0.2-17.04-0.26c-5.11-0.42-8.78-3.49-10.75-8.28
			c-1.9-4.64-1.81-9.48-1.04-14.35c0.43-2.72,1.31-5.28,2.99-7.48c2.31-3.01,5.52-4.66,9.19-4.93c5.02-0.37,10.08-0.32,15.12-0.42
			c1.9-0.04,1.9-0.01,1.88,1.85c-0.01,1.09-0.05,2.18,0.01,3.26c0.04,0.77-0.23,0.98-0.98,0.98c-3.83-0.03-7.67-0.03-11.5-0.01
			c-2.15,0.01-4.21,0.38-5.92,1.81c-1.91,1.59-2.5,3.79-2.7,6.14c-0.06,0.65,0.44,0.58,0.85,0.58c2.43,0,4.86,0,7.28,0.01
			c3.96,0.02,7.92,0.07,11.88,0.05c0.84,0,1.13,0.24,1.09,1.09c-0.07,1.31-0.07,2.62-0.01,3.93c0.04,0.83-0.29,1.01-1.05,1.01
			c-6.26-0.02-12.52-0.02-18.79-0.01c-1.37,0-1.46,0.02-1.28,1.38c0.18,1.32,0.4,2.68,0.9,3.9c0.93,2.26,2.89,3.23,5.2,3.53
			c1.1,0.14,2.23,0.22,3.34,0.22c3.58,0.03,7.16,0.02,10.74,0c0.69,0,0.97,0.17,0.95,0.91
			C978.59,1693.98,978.62,1695.64,978.62,1697.28z"/>
		<path d="M922.66,1661.75c2.5,0,4.88,0,7.37,0c0.02,0.42,0.06,0.82,0.06,1.22c0.01,7.04,0.01,14.07,0.03,21.11
			c0,0.51,0.05,1.02,0.08,1.53c0.22,4.16,2.9,5.79,6.29,5.99c3.19,0.18,6.39,0.09,9.58,0.11c1.43,0.01,1.43,0,1.43,1.47
			c0,1.18-0.02,2.37,0.01,3.55c0.01,0.54-0.2,0.74-0.73,0.73c-4.6-0.07-9.21,0.08-13.79-0.25c-5.49-0.39-9.85-4.83-10.13-10.58
			c-0.15-3.03-0.17-6.07-0.19-9.11c-0.03-4.83-0.01-9.66-0.01-14.49C922.66,1662.62,922.66,1662.22,922.66,1661.75z"/>
	</g>
	<g>
		<path d="M674.79,1691.19c0,4.23-0.03,8.46,0.02,12.69c0.02,1.04-0.32,1.32-1.31,1.26c-1.22-0.08-2.45-0.06-3.67,0
			c-0.78,0.04-1.03-0.22-1.02-1.01c0.04-3.36,0.02-6.71,0.01-10.07c0-0.34,0.16-0.77-0.18-0.98c-0.44-0.27-0.67,0.23-0.95,0.43
			c-10.27,7.28-24.7,1.33-26.69-11.1c-1.5-9.32,4.28-18.2,14.37-19.64c9.15-1.3,17.61,4.9,19.19,13.96
			c0.32,1.85,0.19,3.69,0.21,5.54C674.81,1685.25,674.79,1688.22,674.79,1691.19z M668.68,1679.64c0.1-5.57-4.81-10.78-10.6-10.87
			c-6.44-0.1-11.24,4.73-11.18,10.85c0.06,6.28,4.79,10.91,10.98,10.93C664.01,1690.58,668.66,1685.44,668.68,1679.64z"/>
		<path d="M712.93,1687.13c0,2.87-0.02,5.73,0.02,8.6c0.01,0.66-0.13,0.97-0.85,0.95c-1.43-0.03-2.87-0.03-4.3,0
			c-0.7,0.02-0.93-0.3-0.9-0.95c0.03-0.66,0.01-1.33,0-1.99c0-0.24,0.09-0.55-0.13-0.68c-0.3-0.18-0.51,0.13-0.72,0.28
			c-2.6,1.89-5.49,2.97-8.7,3.27c-8.75,0.84-16.96-5.63-18.23-14.34c-1.37-9.44,4.53-18.13,14.31-19.48
			c11.11-1.53,19.5,7.19,19.5,16.68C712.93,1682.03,712.93,1684.58,712.93,1687.13z M695.92,1668.8
			c-6.26-0.04-10.79,4.7-10.87,10.66c-0.09,6.26,4.88,11.13,10.89,11.11c5.95-0.03,10.81-4.73,10.89-10.92
			C706.89,1673.79,701.79,1668.65,695.92,1668.8z"/>
		<path d="M769.41,1686.32c0,3.52-0.02,6.42,0.02,9.32c0.01,0.76-0.2,1.07-1,1.04c-1.36-0.05-2.73-0.04-4.09,0
			c-0.75,0.02-0.99-0.29-0.95-1c0.04-0.63,0.02-1.26,0-1.89c-0.01-0.26,0.1-0.61-0.2-0.76s-0.5,0.18-0.71,0.33
			c-3.1,2.22-6.56,3.34-10.38,3.3c-8.29-0.09-15.39-6.42-16.54-14.64c-1.25-8.9,4.3-17.85,14.36-19.24
			c9.88-1.36,17.93,5.5,19.26,14.2C769.68,1680.3,769.26,1683.63,769.41,1686.32z M763.3,1679.6c-0.04-6.01-5.18-10.86-10.98-10.83
			c-6.14,0.03-10.94,4.96-10.83,11.02c0.12,6.06,4.86,10.73,10.94,10.78C758.13,1690.61,763.2,1685.95,763.3,1679.6z"/>
		<path d="M638.29,1696.63c-3.01,0-3.02,0-4.11-2.88c-3.7-9.82-7.46-19.62-11.05-29.48c-1.72-4.73-7.14-5.09-9.69-2.23
			c-0.7,0.78-1.04,1.72-1.4,2.67c-0.77,2.01-1.54,4.02-2.26,6.05c-0.27,0.75-0.66,1.31-1.33,1.79c-3.03,2.18-4.27,5.67-3.38,9.32
			c0.14,0.56,0.1,1.05-0.11,1.61c-1.58,4.09-3.13,8.18-4.64,12.29c-0.24,0.65-0.57,0.88-1.21,0.87c-1.33-0.02-2.66,0-3.99-0.01
			c-1.24-0.01-1.43-0.28-0.98-1.47c2.22-5.89,4.45-11.77,6.68-17.66c1.93-5.11,3.85-10.22,5.78-15.33c1.66-4.41,4.73-7.22,9.47-7.8
			c5.19-0.65,9.26,1.33,11.8,5.94c1.37,2.49,2.11,5.28,3.12,7.95c3.37,8.94,6.74,17.89,10.11,26.84c0.57,1.52,0.55,1.54-1.1,1.54
			C639.4,1696.63,638.85,1696.63,638.29,1696.63z"/>
		<path d="M717.07,1686.76c0-2.62-0.09-5.24,0.02-7.86c0.35-8.89,7.37-15.86,16.27-16.27c0.76-0.04,1,0.21,0.98,0.93
			c-0.03,1.4-0.04,2.8,0,4.19c0.02,0.69-0.24,0.88-0.91,0.92c-5.98,0.43-10.36,5.16-10.39,11.19c-0.02,5.24-0.02,10.48,0.02,15.72
			c0.01,0.89-0.27,1.15-1.13,1.11c-1.29-0.06-2.59-0.06-3.88,0c-0.79,0.03-1.03-0.26-1.02-1.02c0.03-2.97,0.01-5.94,0.01-8.91
			C717.05,1686.76,717.06,1686.76,717.07,1686.76z"/>
		<path d="M613.54,1685.4c-3.1-0.01-5.75-2.68-5.72-5.76c0.03-3.11,2.72-5.75,5.8-5.7c3.14,0.05,5.74,2.69,5.71,5.78
			C619.29,1682.85,616.68,1685.41,613.54,1685.4z"/>
	</g>
	<line class="st1" x1="790.6" y1="1653.92" x2="790.65" y2="1700.1"/>
</g>
</svg>
