<?xml version="1.0" encoding="UTF-8"?>
<!DOCTYPE svg PUBLIC "-//W3C//DTD SVG 1.1//EN" "http://www.w3.org/Graphics/SVG/1.1/DTD/svg11.dtd">
<!-- Creator: CorelDRAW X8 -->
<svg xmlns="http://www.w3.org/2000/svg" xml:space="preserve" width="210mm" height="210mm" version="1.1" style="shape-rendering:geometricPrecision; text-rendering:geometricPrecision; image-rendering:optimizeQuality; fill-rule:evenodd; clip-rule:evenodd"
viewBox="0 0 21000 21000"
 xmlns:xlink="http://www.w3.org/1999/xlink">
 <defs>
  <style type="text/css">
   <![CDATA[
    .fil0 {fill:#2B2A29;fill-rule:nonzero}
   ]]>
  </style>
 </defs>
 <g id="Слой_x0020_1">
  <metadata id="CorelCorpID_0Corel-Layer"/>
  <path class="fil0" d="M2892 2231l958 -435c53,-24 115,0 139,53 19,42 8,90 -24,120 -55,63 -75,140 -75,219 0,92 25,188 57,274l6440 17622c20,53 68,105 125,143 53,35 110,55 154,48l32 208 -1348 212c-125,20 -255,-25 -365,-106 -115,-83 -210,-206 -256,-331l-6347 -17172c-88,-239 -57,-411 53,-551 100,-127 263,-216 457,-304zm793 -129l-706 321c-167,76 -305,149 -379,243 -63,81 -79,188 -20,347l6347 17173c32,87 100,174 181,233 69,50 144,79 210,68l990 -156c-53,-51 -95,-112 -119,-175l-6441 -17622c-38,-105 -69,-225 -68,-346 0,-29 2,-57 5,-86z"/>
  <path class="fil0" d="M4455 1601l5113 -779 34 70c1303,2635 2449,5240 3474,7822 1024,2582 1927,5137 2741,7675l20 64 -3975 3654c-39,36 -80,63 -123,82 -123,54 -255,44 -376,-3 -113,-43 -217,-120 -294,-204 -50,-54 -90,-113 -115,-169 -1213,-2752 -2387,-5616 -3537,-8549 -1150,-2932 -2275,-5929 -3392,-8950 -76,-205 -78,-364 -3,-486 75,-122 218,-194 433,-227zm4992 -547l-4961 756c-151,23 -245,64 -284,128 -39,63 -31,162 21,304 1117,3021 2242,6018 3390,8946 1149,2928 2321,5789 3534,8540 16,36 43,74 77,112 57,62 133,118 215,150 72,28 148,35 215,6 22,-10 44,-25 65,-44l3876 -3563c-807,-2514 -1701,-5044 -2715,-7597 -1013,-2552 -2146,-5129 -3433,-7738z"/>
  <path class="fil0" d="M12890 526l-3224 495c1276,2591 2402,5153 3410,7693 1004,2530 1890,5035 2691,7522l2586 -2272c177,-155 82,-402 9,-591l0 0c-12,-30 -23,-59 -32,-84 -996,-2784 -1586,-4403 -2250,-6067 -666,-1668 -1413,-3396 -2724,-6397 -66,-152 -112,-244 -170,-284 -54,-37 -141,-38 -296,-15zm-3398 308l3367 -516c211,-33 339,-23 446,49 102,70 162,186 244,374 1310,2998 2057,4726 2727,6404 672,1683 1260,3299 2253,6073 10,27 20,53 30,80l0 0c95,248 219,572 -68,825l-2826 2483 -49 -153c-813,-2535 -1714,-5086 -2736,-7661 -1022,-2575 -2166,-5175 -3467,-7807l-64 -129 143 -22z"/>
  <polygon class="fil0" points="10637,20276 11084,19846 11230,19998 10698,20483 "/>
  <polygon class="fil0" points="3859,1793 4203,1674 4272,1873 3927,1992 "/>
 </g>
</svg>
