<?xml version="1.0" encoding="utf-8"?>
<!-- Generator: Adobe Illustrator 25.2.1, SVG Export Plug-In . SVG Version: 6.00 Build 0)  -->
<svg version="1.1" id="Laag_1" xmlns="http://www.w3.org/2000/svg" xmlns:xlink="http://www.w3.org/1999/xlink" x="0px" y="0px"
	 viewBox="0 0 960 960" style="enable-background:new 0 0 960 960;" xml:space="preserve">
<style type="text/css">
	.st0{fill:none;stroke:#000000;stroke-width:14;stroke-miterlimit:10;}
</style>
<path d="M257.5,0.6c2.4,0,4.8,0.1,7.3,0.3c0.4,0,0.7,0.1,1.1,0.1l15.7,1.6c0.3,0,0.6,0.1,0.9,0.1l2.8,0.3l2.5,0.3
	c0.2,0,0.4,0,0.6,0.1c0.4,0,0.8,0.1,1.2,0.2l504.1,73.1c28.9,4.1,50.8,28.4,51.8,57.6l23.5,694.3c1,31-21.7,57.8-52.5,61.7
	l-506.8,65.4l-0.9,0.1c-1.7,0.2-3.4,0.3-5.1,0.3l-0.7,0l-50.2,2.7l-0.9,0.1c-2.3,0.1-4.6,0.2-7,0.2h-1.3c-6.4-0.1-12.7-0.7-19-1.8
	l-23.3-4.1l-0.9-0.1c-31.3-5.2-54.5-32.3-54.5-64.3l0-147.2l-4.7,0l-0.3,0c-6.6-0.2-12-5.6-12-12.2V716l17,0.9v-3.6l-5.1-0.3
	l0.1-0.3c0.6-1.5,0.8-3.1,0.8-4.3c0-1.6-0.3-3.3-0.9-4.7l5,0.3v-3.6l-9.2-0.5l-0.1,0l-0.1,0l-7.5-0.4v-25.8l6.8,0.4l9.4,0.5l0.8,0
	v-3.6l-5.1-0.3l0.1-0.3c0.5-1.2,0.8-2.7,0.8-4.3c0-1.6-0.3-3.3-0.9-4.7l5,0.3v-3.6l-9.2-0.5l-0.2,0l-0.2,0l-7.3-0.4v-24.1l6.8,0.4
	l10.2,0.6l0.1,0v-3.6l-5.2-0.3l0.1-0.3c0.6-1.3,0.9-3,0.9-5c0-1.8-0.3-3.7-0.9-5.3l5.1,0.3v-3.6l-17-1v-24.7l17,1v-3.6l-5.2-0.3
	l0.2-0.3c0.7-1.7,0.9-3.5,0.9-4.9c0-1.9-0.3-3.7-0.9-5.3l4.4,0.3l0.7,0v-3.6l-17-1v-10.2l0-0.3c0.2-8.3,7-15,15.3-15l1.6,0V413.2
	l-4.7,0l-0.3,0c-6.6-0.2-12-5.6-12-12.2v-13.3l17,0.9v-3.6l-5.1-0.3l0.1-0.3c0.6-1.5,0.8-3.1,0.8-4.3c0-1.6-0.3-3.3-0.9-4.7l5,0.3
	V372l-9.2-0.5l-0.1,0l-0.1,0l-7.5-0.4v-25.8l6.8,0.4v0l9.4,0.5l0.8,0v-3.6l-5.1-0.3l0.1-0.3c0.5-1.2,0.8-2.7,0.8-4.3
	c0-1.6-0.3-3.3-0.9-4.7l5,0.3v-3.6l-9.2-0.5l-0.2,0l-0.2,0l-7.3-0.4v-24.1l6.8,0.4v0l10.2,0.6l0.1,0v-3.6l-5.2-0.3l0.1-0.3
	c0.6-1.4,0.9-3,0.9-5c0-1.8-0.3-3.7-0.9-5.3l5.1,0.3V288l-17-1v-24.7l17,1v-3.6l-5.2-0.3l0.2-0.3c0.7-1.7,0.9-3.5,0.9-4.9
	c0-1.9-0.3-3.7-0.9-5.3l4.4,0.3l0.7,0v-3.6l-17-1v-10.2l0-0.3c0.2-8.3,7-15,15.3-15l1.6,0l0-151.4c0-32.6,24.7-59.9,57.2-63.1
	l0.7-0.1l0.7,0l1.2-0.1l45.1-3.5C253,0.7,255.2,0.6,257.5,0.6L257.5,0.6z M233.9,42.3l-25.5,2l-1.4,0.1c-12,1.2-21.1,11.2-21.1,23.3
	v821.2c0,12.6,9.3,23.2,21.8,24.9l23.9,4.2c2.1,0.4,4.1,0.6,6.2,0.8c-2.5-5.2-3.9-11.4-4.1-18.6l-1.2-841.1l0-1.3l0-1.3l0-1.2
	c0-0.2,0-0.4,0-0.6l0-1.2c0-0.2,0-0.4,0-0.6l0.1-1.1c0-0.2,0-0.4,0-0.5l0.1-1.1C233.1,47.3,233.4,44.7,233.9,42.3L233.9,42.3z
	 M252.6,110.7l1.1,789.1l0,0.6c0.2,8.7,3,13,7.6,15.2c1.6,0.8,3.3,1.3,5.1,1.5c1.2,0.2,2.3,0.2,2.9,0.2l0.2,0
	c1.2-0.1,2.3,0.1,3.4,0.4l3.8-0.2c-1.2-3.1-1.9-6.5-2-10.1L252.6,110.7z M548.8,85.2L283.1,47.4c-6.4-0.9-12.1,4.2-11.9,10.8l0,0
	l23.7,848.7c0.1,4.2,2.6,7.7,6.1,9.3l0.8,0l0.2,0c0.8,0,1.7,0,2.5-0.1l273.4-35.3 M577.8,880.8l233.4-30.1
	c10.1-1.3,17.5-9.8,17.6-19.9l-2.2-64.9l-21.3-630.2c-0.2-6-3-11.3-7.3-14.9c-0.5-0.2-1.1-0.3-1.7-0.4L548.8,85.2 M429.9,835.1
	c3.7-10.7,13.7-17,22.3-14c8.6,3,12.6,14,8.9,24.8s-13.7,17-22.3,14C430.2,856.9,426.2,845.8,429.9,835.1z M696.4,807.5
	c3.4-9.9,12.7-15.7,20.6-13s11.7,13,8.3,22.9s-12.7,15.7-20.6,13S693,817.5,696.4,807.5z"/>
<line class="st0" x1="558.3" y1="86.5" x2="589.9" y2="879.2"/>
</svg>
