<?xml version="1.0" encoding="utf-8"?>
<!-- Generator: Adobe Illustrator 25.2.1, SVG Export Plug-In . SVG Version: 6.00 Build 0)  -->
<svg version="1.1" id="Laag_1" xmlns="http://www.w3.org/2000/svg" xmlns:xlink="http://www.w3.org/1999/xlink" x="0px" y="0px"
	 viewBox="0 0 430 918" style="enable-background:new 0 0 430 918;" xml:space="preserve">
<style type="text/css">
	.st0{fill:#FFFFFF;}
	.st1{stroke:#000000;stroke-miterlimit:10;}
</style>
<g id="_x23_ffffffff">
	<path class="st0" d="M36.4,17.5c4.1-4.1,10.3-3,15.6-3.1c57,0.1,114-0.2,171,0c0.2,2.2,0.3,4.4,0.4,6.7c-0.1,119.3,0.1,238.7,0,358
		c0,5.9,0.2,11.9-0.3,17.8c-3.7,0.2-7.4,0.3-11.1,0.1c-7-0.5-14,0.4-21,0.2c-7.5-0.2-15.1-0.3-22.6-0.4c-2.2-19.9,0.2-39.9-2.2-59.8
		c-1.5-12,0.1-24.1-1.5-36.1c-0.9-9-2.1-19-8.8-25.7c-10.7-8.5-28.8-6.2-36.1,5.7c-6.7,12.6-7.7,27.1-8.4,41.1
		c-1.9,18.5-3.2,37.1-5.9,55.6c-1.2,6.3-3,12.5-4.2,18.9c-8.1,0.8-16.2,0.1-24.3,0.2c-11,0-22,0.4-32.9-0.1c-6.4,0-11-6.4-10.7-12.5
		c0.1-117.7-0.1-235.4-0.1-353C33.5,26.4,32.2,20.7,36.4,17.5z"/>
	<path class="st0" d="M226.9,14.2c22.7-0.2,45.4-0.2,68.1-0.1c7-0.1,14-0.5,21-0.2c14.7,0.5,29.3-0.4,44-0.1
		c15,0.2,30.1-0.5,45.1,0.1c6.4-0.1,12.8,5.4,12.5,12c-0.1,121.7,0.1,243.4,0,365.1c0.1,1.9-0.8,3.9-2.6,4.7
		c-2.4,1.1-5.3,0.8-7.9,0.9c-59.9-0.2-119.8,0.2-179.8,0c-0.5-4.9-0.6-9.8-0.5-14.7c0.1-80.3-0.1-160.7-0.1-241
		c-0.1-39.7,0.1-79.3-0.1-119C226.6,19.4,226.7,16.8,226.9,14.2z"/>
	<path class="st0" d="M124,285.8c3.3-5.5,9.4-9.6,16-9.5c4.8,0,10.4,1,13.3,5.3c4.5,6.6,5.7,14.7,6.2,22.4
		c0.3,8.3,1.3,16.6,1.1,24.9c-0.3,8.4,1.2,16.6,1.1,25c-0.1,7.4,1,14.7,0.9,22c-0.1,14.3,0,28.7,0,43c-0.1,7.4,0.3,14.9-0.6,22.2
		c-0.6,5.2-1,10.3-0.8,15.5c0.7,15.7,0,31.5,0.4,47.3c0.6,11.1,2.1,22.1,4.3,33c2,8.3,3.2,16.9,6,25c1.2-0.3,2.4-0.7,3.7-1
		c-0.7-7.9-2.8-15.6-4.1-23.5c-2.1-11.4-3.8-23-4.5-34.6c-1.1-12-0.4-24-0.8-36.1c0.2-2.3-0.6-5.5,2-6.7c8.7-4.8,20.3-4.6,28.6,0.9
		c8.1,6.5,9.6,17.4,12.2,26.7c6.6,23.2,12.7,46.6,22,69c3.9,9.5,3.2,20,3.6,30c0.7,0.5,2.1,1.6,2.8,2.1c3-5.9,1.9-12.7,1.8-19
		c-0.1-8.8-4.4-16.8-7.4-24.9c-3.5-8.8-6-18-8.8-27.1c-3.1-10.1-6.5-20.1-8.1-30.6c9.8-1.3,21.3-0.9,28.4,7
		c9.8,11.9,15.4,26.5,21.5,40.4c6.8,14.5,15.2,28.2,22.6,42.3c4.4,7.5,8.6,15.3,14.6,21.7c0.6-1.5,2.4-2.9,1.8-4.7
		c-1.4-4.2-4.4-7.6-6.7-11.4c-10.3-17-20-34.5-28.6-52.4c-0.9-2.2-1.2-4.6-1.6-7c3.8-0.1,8-0.8,11.6,1c5.1,2.7,8.5,7.6,11.5,12.4
		c7.7,12.9,16,25.5,23.4,38.5c5.6,8.8,9.7,18.5,13.9,28c6.3,14.5,9.4,31.1,5.6,46.7c-7.4,28.2-17.6,55.6-28.4,82.6
		c-7.5,20.4-16.2,40.4-24.3,60.6c-7.4,18.9-7.9,39.5-5.8,59.5c0.7,9.1,2.8,18.1,5.5,26.8c3.2,13,7.6,25.7,12.1,38.3H96.3
		c0.7-17-0.5-33.9-2.3-50.8c-1.2-9.9-2.9-20-7-29.2c-2.7-6.1-5.7-12.1-9.2-17.9c-14.4-24.2-28.2-49-37-75.8
		c-8.4-22.8-17.6-45.4-22.9-69.2c-1.9-8.6-4.6-17.6-3-26.5c2.6-11.8,7.7-22.8,12.2-33.9c6.7-14,13.8-27.9,21.4-41.4
		c6.1-10.4,13.4-19.9,20-29.9c1.7-2.8,4.1-5.1,6.8-7.1c0.3,5.2,0.1,10.5-0.4,15.7c-0.5,5.6-0.3,11.3-1.2,16.8c-1.1,7-4.9,13.3-7,20
		c-4.2,12.6-6.9,25.7-8.2,38.9c-0.4,4.7-1.6,9.4-1.5,14.1c-0.1,2,1.9,2.9,3,4.2c2.9-6.8,2.4-14.2,3.9-21.3c1.5-7.5,2-15.2,4.4-22.5
		c2.2-6.8,3.8-13.8,6.8-20.3c1.7-3.8,3.3-7.7,3.7-11.9c1.1-12.8,1.3-25.7,3-38.4c1.6-12.6,2.3-25.5,6.3-37.6
		c3.3-10.4,5.3-21.1,7.3-31.8c1.6-11.2,4.5-22.1,5.7-33.3c2.3-14.4,4.9-28.8,7.8-43.1c1.9-13.1,4.8-26.1,5.4-39.4
		c0.5-12.4,2.2-24.7,3.2-37.1C118.4,301.3,119.7,292.9,124,285.8 M134.2,279c-5.9,0.8-10.3,6.1-10.7,11.9c-0.8,8-3.4,16.6,0.2,24.3
		c2.1,5.1,8.6,4.9,13.2,5.1c6.1-0.3,13.6-0.4,17.5-5.8c0.4-8.2,1.1-16.4,0.9-24.6c0.2-4.1-3-7.3-6.4-8.9
		C144.4,279,139.2,278.1,134.2,279 M122,420.1c-1.7,0.2-1.5,2.2-2,3.4c6.6,0.7,13.1,1.5,19.7,2.4c-1.3-1.1-2-2.8-3.3-3.8
		c3.5,0.3,6.9,0.4,10.4,0.1c-1.1-3.8-5.5-3.9-8.7-4.1C132.6,418,127.2,418.5,122,420.1 M114.6,430.6c2.6,1.5,5.4,2.9,8.4,3.4
		c8.6,1.4,17.7,1.3,25.8-2.1c-0.1-0.6-0.3-1.9-0.5-2.5c-5.4,1.1-10.8,2.8-16.4,2.3c-4.5-0.1-8.7-1.7-13.1-2.4
		C117.2,428.9,115.9,430,114.6,430.6z"/>
	<path class="st0" d="M133.3,283.2c5-1.4,10.5-0.8,15.2,1.4c4.1,2.1,4.2,7.2,4.1,11.2c-0.4,5.8,0.1,11.8-1.4,17.5
		c-4.8,3.6-11.2,3.5-17,3.4c-3.9,0-9.2-1.9-9-6.6c-0.2-6.7,0.2-13.6,1.9-20.1C127.8,286.8,130.3,284.2,133.3,283.2z"/>
</g>
<path d="M37.3,10.2C42.7,7.2,49,7.7,55,7.7c116.7-0.1,233.4-0.1,350-0.1c9-0.4,17.8,7.1,17.6,16.3c-0.1,122.7,0,245.4,0,368.1
	c-0.1,2.8-0.3,6-2.5,8.1c-2.6,2.7-6.5,3.3-10.1,3.4c-73.7-0.1-147.4,0-221.1,0c-6.7-0.1-13.3-0.2-20,0.5c-1,10.9,0.1,21.8-0.9,32.7
	c-0.5,5-0.6,10-0.5,15.1c6.7-1.2,13.7-2.2,20.5-0.7c6,1.4,12.2,3.8,16.1,8.8c3.9,4.9,5.4,11.1,7.4,16.8c0.7,1.9,1.6,4.8,4.2,4.3
	c7.5-0.3,15.2-0.9,22.3,2c6.6,2.4,10.2,8.7,13.9,14.2c4.4,6.5,7.8,13.6,11.6,20.5c4.9-0.3,10-1.6,14.8,0c4,1.6,7.2,4.7,10.1,7.9
	c6.4,7.3,11,15.9,15.7,24.3c8.8,14.7,18.4,29.1,25,45c7.2,16.4,12.5,34.6,9.5,52.6c-4.5,21.1-12.4,41.3-19.5,61.6
	c-7.1,18-13.6,36.1-21,54c-6.5,16.4-14.9,32.3-18.3,49.7c-2.1,8.6-1.5,17.5-1.5,26.3c0.1,12.9,2,25.7,5.8,38
	c2.8,8.9,4.8,18.1,8.2,26.8c1.9,4.7,3.3,9.5,5.1,14.2H292c-4.5-12.6-9-25.3-12.1-38.3c-2.8-8.7-4.9-17.7-5.5-26.8
	c-2.1-19.9-1.6-40.6,5.8-59.5c8.1-20.2,16.8-40.2,24.3-60.6c10.8-27.1,21-54.4,28.4-82.6c3.8-15.6,0.6-32.2-5.6-46.7
	c-4.2-9.5-8.3-19.2-13.9-28c-7.5-13.1-15.8-25.6-23.4-38.5c-2.9-4.8-6.4-9.6-11.5-12.4c-3.5-1.9-7.7-1.2-11.6-1
	c0.4,2.4,0.7,4.7,1.6,7c8.6,17.9,18.4,35.3,28.6,52.4c2.3,3.8,5.3,7.2,6.7,11.4c0.6,1.8-1.1,3.2-1.8,4.7c-6-6.4-10.2-14.2-14.6-21.7
	c-7.4-14.2-15.9-27.8-22.6-42.3c-6.1-14-11.7-28.6-21.5-40.4c-7.1-7.9-18.7-8.3-28.4-7c1.6,10.5,5.1,20.5,8.1,30.6
	c2.8,9.1,5.3,18.2,8.8,27.1c3,8.1,7.3,16,7.4,24.9c0,6.4,1.2,13.1-1.8,19c-0.7-0.5-2.1-1.6-2.8-2.1c-0.5-10,0.2-20.5-3.6-30
	c-9.3-22.3-15.4-45.8-22-69c-2.6-9.4-4.2-20.2-12.2-26.7c-8.4-5.5-19.9-5.7-28.6-0.9c-2.5,1.2-1.7,4.5-2,6.7
	c0.3,12-0.3,24.1,0.8,36.1c0.7,11.6,2.4,23.1,4.5,34.6c1.3,7.8,3.4,15.5,4.1,23.5c-1.2,0.3-2.4,0.6-3.7,1c-2.8-8.1-4.1-16.7-6-25
	c-2.1-10.9-3.6-21.9-4.3-33c-0.4-15.8,0.3-31.5-0.4-47.3c-0.3-5.2,0.2-10.4,0.8-15.5c0.8-7.4,0.5-14.8,0.6-22.2
	c0-14.3-0.1-28.7,0-43c0.1-7.4-1-14.7-0.9-22c0.1-8.4-1.3-16.6-1.1-25c0.2-8.3-0.8-16.6-1.1-24.9c-0.5-7.8-1.7-15.9-6.2-22.4
	c-2.9-4.3-8.5-5.3-13.3-5.3c-6.6-0.1-12.7,4-16,9.5c-4.3,7.1-5.6,15.5-6.3,23.6c-1,12.4-2.7,24.7-3.2,37.1
	c-0.5,13.3-3.4,26.3-5.4,39.4c-2.9,14.3-5.5,28.7-7.8,43.1c-1.2,11.2-4.1,22.2-5.7,33.3c-2,10.7-4,21.4-7.3,31.8
	c-4.1,12.1-4.7,25-6.3,37.6c-1.8,12.7-1.9,25.6-3,38.4c-0.4,4.2-2,8.1-3.7,11.9c-3,6.5-4.6,13.5-6.8,20.3c-2.4,7.3-2.9,15-4.4,22.5
	c-1.5,7.1-1.1,14.5-3.9,21.3c-1.1-1.3-3.2-2.2-3-4.2c-0.1-4.7,1.1-9.4,1.5-14.1c1.3-13.2,4.1-26.3,8.2-38.9c2.2-6.7,5.9-12.9,7-20
	c0.9-5.6,0.6-11.2,1.2-16.8c0.5-5.2,0.7-10.5,0.4-15.7c-2.7,1.9-5.1,4.2-6.8,7.1c-6.7,10-14,19.5-20,29.9
	C41,587.6,34,601.5,27.3,615.5C22.7,626,17.6,637,15,648.8c-1.6,8.9,1.1,17.8,3,26.5c5.3,23.8,14.5,46.4,22.9,69.2
	c8.8,26.8,22.6,51.6,37,75.8c3.5,5.7,6.4,11.8,9.2,17.9c4.1,9.2,5.7,19.2,7,29.2c1.8,16.9,3,33.8,2.3,50.8h-4.6
	c-0.3-8.8,0.2-17.6-0.6-26.4c-1.4-16.2-1.6-32.9-7.6-48.3c-4.1-11.1-10.8-21-16.7-31.2c-7.9-14-15.5-28.2-22.2-42.9
	c-4-9-6.8-18.4-10.4-27.5c-4-10.2-7-20.7-11.1-30.9c-3.9-10.3-6.9-20.9-9.6-31.5c-3.1-11.4-6.4-23.6-2.8-35.3
	c6.9-22,16.5-43.1,28-63.1c4.5-8.9,9.8-17.4,15.5-25.6c5.1-7.3,9.2-15.3,15.2-21.9c3-3.6,6.9-6.9,8.1-11.6
	c1.5-5.5,1.8-11.1,2.8-16.6c1.1-6.7,3.2-13.1,5-19.6c3.1-10.9,4.4-22.2,6.8-33.3c3-16.2,5.6-32.6,7.7-49
	c-11.9-0.7-23.9,0.3-35.8-0.1c-8.6-0.4-17.5,1.1-25.8-1.4c-8-2.8-10.6-12.2-10.4-19.8c0.1-21-0.4-42,0.3-63
	c-0.5-27.3-0.4-54.7-0.4-82c0-65.7,0-131.3,0-197c0.1-6-0.5-12,0.3-18C28.5,16.6,32.9,12.7,37.3,10.2 M36.4,17.5
	c-4.2,3.2-2.9,9-3.1,13.6c0,117.7,0.2,235.4,0.1,353c-0.4,6.1,4.3,12.5,10.7,12.5c11,0.5,22,0.1,32.9,0.1c8.1-0.2,16.2,0.5,24.3-0.2
	c1.2-6.3,3-12.6,4.2-18.9c2.7-18.4,4-37,5.9-55.6c0.7-14,1.7-28.5,8.4-41.1c7.3-11.9,25.4-14.1,36.1-5.7c6.7,6.7,7.9,16.7,8.8,25.7
	c1.6,12,0,24.1,1.5,36.1c2.4,19.8,0,39.9,2.2,59.8c7.5,0.1,15.1,0.2,22.6,0.4c7,0.2,14-0.7,21-0.2c3.7,0.2,7.4,0.2,11.1-0.1
	c0.6-5.9,0.4-11.9,0.3-17.8c0.1-119.3-0.2-238.7,0-358c-0.1-2.2-0.2-4.5-0.4-6.7c-57-0.2-114,0.1-171,0
	C46.7,14.4,40.5,13.4,36.4,17.5 M226.9,14.2c-0.2,2.6-0.3,5.2-0.4,7.8c0.2,39.7,0,79.3,0.1,119c0,80.3,0.2,160.7,0.1,241
	c-0.1,4.9,0.1,9.8,0.5,14.7c59.9,0.1,119.8-0.3,179.8,0c2.6-0.1,5.4,0.2,7.9-0.9c1.8-0.8,2.8-2.8,2.6-4.7
	c0.1-121.7-0.1-243.4,0-365.1c0.3-6.6-6.1-12.1-12.5-12c-15-0.6-30.1,0.1-45.1-0.1c-14.7-0.2-29.3,0.7-44,0.1c-7-0.3-14,0.1-21,0.2
	C272.3,14.1,249.6,14.1,226.9,14.2z"/>
<path d="M134.2,279c4.9-0.9,10.1,0,14.7,2c3.5,1.6,6.6,4.8,6.4,8.9c0.2,8.2-0.5,16.4-0.9,24.6c-3.9,5.4-11.5,5.5-17.5,5.8
	c-4.6-0.2-11.1,0-13.2-5.1c-3.5-7.7-1-16.3-0.2-24.3C123.9,285.1,128.4,279.8,134.2,279 M133.3,283.2c-3.1,1-5.5,3.6-6.2,6.8
	c-1.7,6.5-2.1,13.4-1.9,20.1c-0.2,4.7,5.1,6.6,9,6.6c5.7,0,12.1,0.1,17-3.4c1.5-5.7,1-11.7,1.4-17.5c0.1-4,0-9.1-4.1-11.2
	C143.8,282.4,138.3,281.8,133.3,283.2z"/>
<path d="M122,420.1c5.2-1.6,10.6-2,16-2.1c3.2,0.2,7.6,0.4,8.7,4.1c-3.5,0.3-6.9,0.2-10.4-0.1c1.3,1.1,2.1,2.7,3.3,3.8
	c-6.6-0.9-13.1-1.7-19.7-2.4C120.6,422.2,120.3,420.3,122,420.1z"/>
<path d="M114.6,430.6c1.3-0.6,2.6-1.8,4.2-1.3c4.4,0.6,8.7,2.2,13.1,2.4c5.6,0.5,11-1.3,16.4-2.3c0.1,0.6,0.4,1.9,0.5,2.5
	c-8.1,3.4-17.2,3.6-25.8,2.1C120,433.5,117.2,432.1,114.6,430.6z"/>
<circle class="st1" cx="322.1" cy="367" r="2.8"/>
</svg>
