<?xml version="1.0" encoding="utf-8"?>
<!-- Generator: Adobe Illustrator 21.1.0, SVG Export Plug-In . SVG Version: 6.00 Build 0)  -->
<svg version="1.1" id="Laag_1" xmlns="http://www.w3.org/2000/svg" xmlns:xlink="http://www.w3.org/1999/xlink" x="0px" y="0px"
	 viewBox="0 0 1342 784" style="enable-background:new 0 0 1342 784;" xml:space="preserve">
<style type="text/css">
	.st0{fill:#FFFFFF;}
	.st1{fill:#0066FF;}
</style>
<g id="_x23_ffffffff">
	<path class="st0" d="M236.5,15.7c18.9-1,38.5-1.5,56.6,5.3c16.4,5.3,31.1,16.8,38.7,32.5c10.7,17.9,14.1,39.1,16.3,59.5
		c3,30.9,1.7,61.8,2.4,92.8c-0.1,31.1,0.2,62.2-0.1,93.3c0,10.8,0.8,21.6-0.3,32.4c0.9,15.6-0.4,31.2-0.8,46.8
		c-1.8,22.2-6.9,44.9-19.4,63.7c-10.2,15.6-27.4,25.8-45.6,28.6c-29.3,4.7-58.7-1.7-88-3.8c-31.4-2.7-62.8-6.4-94.1-9.8
		c-15-2.9-30.5-6.7-42.9-16c-17.2-13-27.6-32.8-32.8-53.3c-8.9-38.2-6.6-77.6-7.4-116.5c-0.1-7.1,1-14.1,0.5-21.2
		c-1.1-11.4,0-23-0.3-34.4c-1.1-13,0.4-26.1-1.5-39.1c-0.1-12.1-0.3-24.3,0.6-36.4c0.6-23.2,2-47.3,11.8-68.7
		c7.8-21.5,27-38.6,49.4-43.5c27.1-6.3,55-5.3,82.6-7.4C186.9,18.5,211.7,17.3,236.5,15.7 M156,148c-5.3,4.8-6.7,12.2-6.6,19
		c-0.2,29.5,0.3,58.9,0.3,88.4c-6.3,5.6-12.8,11.9-15.1,20.3c-5.2,16.2-0.2,36.6,14.5,46.2c7,5.6,15.9,9,24.9,8.2
		c20.2,0.6,39.2-17.3,39.5-37.6c0.7-12.5-4.2-25-13.4-33.6c-4.9-3.3-3.4-9.5-3.7-14.5c0.1-21.9-0.3-43.9-0.5-65.8
		c0.2-9.5,0.8-19.7-4.3-28.1C184.1,138.6,165.1,137.4,156,148z"/>
	<path class="st0" d="M298.6,16.2c12.4-0.4,24.9-0.2,36.9,3.2c22.3,3.9,41.6,19.8,51,40.2C400.3,90,401,124.2,401.7,157
		c-0.5,20.8,0.6,41.6,0.1,62.4c0.6,8.6-8.3,13.6-12.1,20.5c-2-4.6-4.6-10.7-10.7-9.9c-8.2,4-9.9,18.6-1.3,23.2
		c5.1,2.5,8.4-2.4,11.5-5.3c2,7.8,2.7,16.1,6.3,23.5c2.5,5.6,6.4,11,6,17.5c0.1,22.9,0.6,45.8-0.7,68.6c0,28.1-5.4,57.3-21.6,80.7
		c-10.5,13.7-26.1,24-43.4,26.3c-7.9,1.4-15.9,2.1-23.9,2.6c9.8-7.5,19.5-16,25.1-27.2c16.4-28.5,17.2-62.4,18.7-94.4
		c0-26-0.7-52.1-0.9-78.1c1.5-22.7,0.5-45.5,0.4-68.2c-0.7-17.7-0.1-35.5-0.7-53.2c0.7-17.2-0.9-34.4-3.8-51.3
		c-2.5-16.5-7.7-32.6-16.1-47.1C327.1,32.9,312.5,23.8,298.6,16.2z"/>
	<path class="st0" d="M369,26.8c14.1,5.2,25.9,16,32.9,29.3c13,23.1,15.7,50.1,17.7,76.1c0.9,32,1.1,64,0.6,95.9
		c-3.9-1.3-7.8-2.6-11.7-3.8c-2.6-39.9,1.4-80.2-4-120c-1.3-6.5-2.3-13-3.2-19.5C396.2,63,385.3,42.3,369,26.8z"/>
	<path class="st0" d="M158.9,163c0.4-11.8,17.5-16.1,24.6-7.6c3.5,5.1,2.8,11.6,3.3,17.4c-3.9,0.7-8.1,0.7-11.8,2.3
		c-0.7,2.2-0.5,4.4-0.8,6.7c3.8,0.6,7.6,1.1,11.3,1.7c0,1.4,0,4.2-0.1,5.6c-4,0.6-10.7,0.5-11.4,5.9c1.3,5.8,8,4.7,12.5,5.4
		c-0.2,1.7-0.2,3.5-0.9,5.1c-5.4,1.3-12.7,1.5-11.4,9.6c4.1,1,8.2,1.7,12.3,2.5c0.3,13.9-0.4,27.9,0.9,41.7
		c3.3,6.3,10.7,9.8,13.6,16.5c7,14.2,1.7,33.3-12.7,40.7c-16.8,10.3-41.3-0.6-45.3-19.6c-5.5-14.4,3.9-28.7,15.7-36.3
		C160.4,228.1,157.5,195.5,158.9,163 M169.1,229.4c-2.1,12.9,0.7,25.9-1.6,38.8c-13.7,3.9-20.1,21.7-12.2,33.6
		c6.4,8.8,19.3,12.4,28.7,6.2c11.3-5.4,13-21.5,6.3-31.1c-3.1-4.6-9.5-6-12.5-10.6c0.2-12.4,0.9-25.1-1.3-37.4
		C174.6,228.9,170.9,229.2,169.1,229.4z"/>
	<path class="st0" d="M408.3,296.5c4.8,5,12.2,10.2,12,17.9c-0.3,19.4,0.7,38.9-1.8,58.2c-2.1,19.9-5.1,41-17.5,57.4
		c-6.3,10-15.4,18.4-26.4,23.2c3-4.4,7.2-7.9,10.1-12.3c9-13.5,15.4-28.8,18.1-44.9c5.1-23.6,4-47.9,5.2-71.8
		C407.4,314.9,407.8,305.7,408.3,296.5z"/>
</g>
<path d="M216.2,11.5c15.6-0.7,31.2-1.3,46.8-2c36.9,2,75.3-1.6,110.5,11.9c19.1,7.5,31.4,25.8,39.1,44c6.4,14.1,8.4,29.5,10.7,44.6
	c3.1,40.1,2,80.4,2.4,120.6c17.8,9.8,33.8,22.4,49.9,34.8c24.3,15.7,48.4,32.1,74.9,44.3c6.2,3.6,12.9,6.2,19.7,8.3
	c36.7,12.8,66.9,38.5,102.7,53.1c11.5,4.5,22.5,10.1,34.4,13.6c8.1,3.2,16.8,8.2,25.8,5.6c11.5-5,18.9-15.8,28.1-24
	c8.3-7.4,17.7-14.7,29.2-15.7c16.2-3,30.9,6.1,45.4,11.8c10.1,3.7,20,8.2,30.6,10.4c33.7,9.1,69.9,12.3,100.4,30.6
	c28.5,19,56.5,39,86.7,55.4c21.4,13,43.7,24.2,65.6,36.2c19.2,8.9,37.9,19,57,28.1c17.9,9.8,36.8,17.7,54.8,27.3
	c18.1,9.8,37.6,16.7,56.1,25.8c15.1,6.9,30.2,13.7,45,21c-0.8,1.3-1.7,2.7-2.5,4.1c-17.2-6.4-33.2-15.7-50.1-22.7
	c-22.7-10-45.2-20.2-67.2-31.6c-46.4-22.1-91.8-46.1-137.3-69.8c-23.5-13.6-47.4-26.7-69.9-42c-13.7-8.5-26.3-18.7-40.2-26.8
	c-14.1-7.6-29.1-13.4-44.5-17.5c-16.1-3.9-32.4-6.3-48.4-10.6c-19.4-4.4-37.7-12.5-56-20c-11.7-3.6-25.9-7.5-36.9,0
	c-14.1,7.3-23.6,20.4-35.5,30.5c-5.9,5.4-14.8,7.8-22.5,5.3c-27.8-10.4-55.8-20.7-81.7-35.3c-17.2-10.7-34.8-20.7-52.7-30.3
	c-11.8-5.1-24.5-8.1-35.9-14.1c-33.6-15.9-64.6-36.5-94.5-58.4c-4.7,4.2-9.7,8.8-16.5,9c-10.3,1.5-19.7-4.2-27.5-10.2
	c-6.4-4.5-9.8-11.8-15-17.4c-2.2,9.4-2.7,19.8,1.8,28.6c15.5,31.9,41.7,57.4,70.6,77.4c10.2,6.6,18.1,15.8,26.5,24.5
	c11.2,10.8,24,19.6,37.1,28c12.3,7.8,24.4,16.1,37.7,22.4c8.5,4.7,17.7,7.8,26,12.9c11.6,6.9,24.3,11.6,36.2,17.9
	c3.6,1.7,7.4,3,11.1,4.5c-1.7-5.2-4.3-10.3-5-15.8c1-0.9,2.1-1.6,3.2-2.3c8.9,22.3,23.6,41.9,40.7,58.7
	c10.7,10.6,21.9,20.7,32.4,31.6c20,22.3,32.3,49.9,45.7,76.3c0.6,0,2,0,2.6,0c3.2-10,4.2-20.4,4.3-30.9c1.4,0,2.9,0,4.4,0
	c0.3,12.3-0.7,24.9-4.9,36.6c-5.3,12-14,23.2-26.5,28.5c-19.5,8.4-41.3,4-61.7,2.5c-11.7-2.3-23.5,0.2-35,2.5
	c-0.4-0.7-1.2-2-1.6-2.7c11.2-8.6,26.4-4.8,39.5-6c-10-9.9-22.7-16.4-35.2-22.4c-7.2-3.7-15-5.8-23-6.5c-10.6,0.4-20.9,3.4-30.9,6.6
	c-4.6,1.4-8.6,4.1-12,7.3c11.5,10.1,21,22.7,26.7,36.9c2.8,6.2,1.2,13.1,1.8,19.6c1.2,11.1,5,21.6,7.2,32.4
	c2.4,8.2,6.1,17.4,15,19.9c14.9,4.8,30.8,5.6,46.4,5.6c33.1,0.8,66.2-3.2,99.2,0.6c37.3,4.3,74.4,10.1,111.5,15.7
	c26.5,3.5,53.1,6.6,79.9,6.5c35.5-1.4,70.5-7.6,105.9-11.1c27.2-2.5,54.7-5.5,82-3c47.4,3.7,94.3,12.2,140.8,22
	c4.1-0.4,5.8,3.2,7.5,6c-7.2,0.7-14.3-1.6-21.3-3c-19.6-4.7-39.6-6.8-59.3-10.7c-47.4-8.2-95.9-12.7-143.8-6.3
	c-20.7,3.2-41.7,4.2-62.4,7.7c-27.5,3.4-55.4,5.4-83.1,2.9c-29.9-1.5-59.3-7.3-88.9-11.2c-37.2-5.1-74.5-13-112.3-11.2
	c-16.6-0.4-33.1,0.7-49.7,0.8c-18.2,0-37,0.4-54.2-6.2c-5.5-2.4-11.2-6-13.1-12c-6.1-14.6-7.8-30.6-13.9-45.2
	c-6.4-11.5-16.2-20.9-21.8-33c-4.3-7.9-8.6-18.2-4.2-26.9c10.2-11.1,26.2-12.5,40-16c-5.4-11.6-13.4-21.8-18.6-33.5
	c-4-10-7.9-21.2-4.9-32c10-22.8,29-39.5,45.4-57.5c3.6-3.8,6.2-8.4,9-12.7c-15.3-6.4-29.5-15-44.8-21.6
	c-38.7-19.9-78.7-39.2-110.9-69.1c-7.4-5.9-12.5-14.2-20.1-19.8C457,342.5,441.7,331.1,428,318c-0.6,0.2-1.7,0.8-2.2,1
	c0,17.7-0.3,35.4-2,53c-1.5,26.5-9.6,53.8-28.1,73.6c-7.4,7.3-16.4,12.8-25.8,17.2c-9.1,3.5-18.8,4.9-28.3,6.6
	c-22.6,3.5-45.3,6-68,7.9c-22.9,1.3-45.8-1.8-68.6-4.3c-35.7-3.2-71.3-6.5-106.8-11.4c-20.7-3.8-42.6-11.8-55.2-29.6
	c-14.5-16.9-20.6-38.9-24.4-60.3c-3.8-34.2-3.6-68.6-4.1-102.9c0.3-18.6,0.4-37.2-0.7-55.7c0.1-25.7-0.3-51.4-0.5-77.1
	c0.9-26.3,4.3-53.4,16.9-76.9c7.4-14.7,20.3-26.4,35.6-32.4c13.7-5.6,28.4-7.6,43-9.1c24.6-0.8,49.2-2.8,73.9-4.2
	C193.8,13.2,205,12.7,216.2,11.5 M236.5,15.7c-24.8,1.6-49.6,2.8-74.4,4.6c-27.6,2.1-55.5,1-82.6,7.4C57,32.4,37.9,49.5,30.1,71.1
	c-9.8,21.4-11.2,45.5-11.8,68.7c-0.9,12.1-0.7,24.3-0.6,36.4c1.9,12.9,0.4,26.1,1.5,39.1c0.3,11.5-0.8,23,0.3,34.4
	c0.5,7.1-0.6,14.1-0.5,21.2c0.8,38.9-1.4,78.3,7.4,116.5c5.2,20.5,15.6,40.3,32.8,53.3c12.4,9.3,27.9,13.1,42.9,16
	c31.4,3.4,62.7,7.1,94.1,9.8c29.3,2.1,58.6,8.5,88,3.8c18.3-2.8,35.5-13,45.6-28.6c12.5-18.8,17.6-41.5,19.4-63.7
	c0.5-15.6,1.7-31.2,0.8-46.8c1.1-10.8,0.3-21.6,0.3-32.4c0.3-31.1,0-62.2,0.1-93.3c-0.7-30.9,0.6-61.9-2.4-92.8
	c-2.3-20.5-5.6-41.6-16.3-59.5C324.1,37.8,309.4,26.3,293,21C275,14.2,255.4,14.6,236.5,15.7 M298.6,16.2
	c13.9,7.6,28.5,16.8,35.8,31.5c8.4,14.4,13.6,30.6,16.1,47.1c2.9,16.9,4.5,34.1,3.8,51.3c0.7,17.7,0.1,35.5,0.7,53.2
	c0.1,22.7,1.1,45.5-0.4,68.2c0.2,26,0.9,52.1,0.9,78.1c-1.5,31.9-2.3,65.9-18.7,94.4c-5.6,11.2-15.3,19.7-25.1,27.2
	c8-0.4,16-1.1,23.9-2.6c17.3-2.3,32.9-12.6,43.4-26.3c16.3-23.4,21.6-52.6,21.6-80.7c1.3-22.8,0.8-45.7,0.7-68.6
	c0.4-6.5-3.5-11.8-6-17.5c-3.6-7.3-4.3-15.6-6.3-23.5c-3.1,3-6.4,7.9-11.5,5.3c-8.6-4.7-6.9-19.3,1.3-23.2c6.1-0.8,8.7,5.4,10.7,9.9
	c3.8-6.9,12.7-11.9,12.1-20.5c0.5-20.8-0.7-41.6-0.1-62.4c-0.8-32.8-1.4-67-15.2-97.4c-9.4-20.5-28.7-36.3-51-40.2
	C323.5,15.9,311,15.8,298.6,16.2 M369,26.8c16.3,15.5,27.2,36.2,32.2,58.1c0.9,6.5,1.9,13.1,3.2,19.5c5.4,39.8,1.4,80,4,120
	c3.9,1.2,7.8,2.5,11.7,3.8c0.4-32,0.3-64-0.6-95.9c-2-26-4.6-53-17.7-76.1C394.9,42.8,383.1,32,369,26.8 M401.4,232.6
	c4.6,12.8,15.2,22.3,27.5,27.6c7.3,3,16.6,1.4,22.2-4.2c-1.7-5.3-7.5-7.3-11.6-10.5C428.5,238.3,415.4,228.9,401.4,232.6
	 M376.8,245.4c-0.1,3.2,3.9,3.2,6.1,4.3c1.2-4.8,2-9.8,2-14.7C377.2,232.9,376.6,240.4,376.8,245.4 M408.3,296.5
	c-0.5,9.2-0.9,18.5-0.1,27.7c-1.2,24-0.1,48.2-5.2,71.8c-2.7,16.1-9.1,31.4-18.1,44.9c-2.9,4.5-7.1,7.9-10.1,12.3
	c10.9-4.8,20-13.1,26.4-23.2c12.3-16.5,15.3-37.5,17.5-57.4c2.5-19.3,1.5-38.8,1.8-58.2C420.5,306.6,413.1,301.5,408.3,296.5
	 M651.8,469.2c-11.6,17.1-28.4,29.5-40.6,46.1c-5.4,6.6-11,13.6-13,22.1c-2.2,7.8,0.4,15.9,3.2,23.2c4.6,12.6,12.6,23.4,19.3,34.8
	c2.2,4.4,7.5,4.9,11.7,5.8c23.3,4.4,42.5,19.4,60.4,34c9.1,3.7,19.5,2.6,29,1c-1.5-11.1-8.3-20.5-12.3-30.7
	c-6.2-11.2-12.9-22.2-18.9-33.5c-7.9,0.9-15.6,3.5-23.6,2.8c-9.1-0.1-17.9-3-26.1-6.6c0-1.5,0.1-3,0.1-4.4
	c15.3,4.1,31.9,8.1,47.2,1.5c12.5-6.3,20.2-18.9,25.9-31.1c-16.9-18.2-36.7-33.6-52-53.2C658.8,476.8,655.7,472.7,651.8,469.2
	 M717.7,540.1c-6.1,10.6-13,21.2-23.4,28.2c4,6.9,7.2,14.2,11.6,20.9c6.4,9.7,11,20.4,16.1,30.9c2.4,5,2.5,11.3,6.3,15.6
	c13.4-1.1,25.7-10.9,31.5-22.6c-2.6-8-7.6-15-10.9-22.8C739.4,573,731.6,554.2,717.7,540.1 M581.6,628.8c1.5,6.9,4.4,13.4,8.5,19.1
	c4.4,6.4,7.8,13.9,14.8,17.8c-0.3-3.8-0.6-7.7-2.5-11C597,645,590.6,635.5,581.6,628.8z"/>
<path d="M156,148c9.1-10.5,28.1-9.4,35.6,2.4c5.1,8.4,4.5,18.7,4.3,28.1c0.2,21.9,0.6,43.9,0.5,65.8c0.3,5-1.2,11.2,3.7,14.5
	c9.2,8.6,14.1,21.1,13.4,33.6c-0.3,20.3-19.2,38.2-39.5,37.6c-9,0.8-17.9-2.5-24.9-8.2c-14.7-9.6-19.7-30-14.5-46.2
	c2.4-8.4,8.8-14.6,15.1-20.3c0.1-29.5-0.5-58.9-0.3-88.4C149.3,160.1,150.7,152.8,156,148 M158.9,163c-1.5,32.5,1.4,65.1-0.2,97.7
	c-11.8,7.6-21.1,21.8-15.7,36.3c4.1,19,28.6,29.9,45.3,19.6c14.4-7.4,19.7-26.5,12.7-40.7c-2.9-6.7-10.3-10.2-13.6-16.5
	c-1.3-13.8-0.6-27.8-0.9-41.7c-4.1-0.8-8.2-1.5-12.3-2.5c-1.3-8.1,6-8.3,11.4-9.6c0.6-1.6,0.7-3.4,0.9-5.1
	c-4.6-0.7-11.2,0.3-12.5-5.4c0.7-5.4,7.5-5.3,11.4-5.9c0-1.4,0-4.2,0.1-5.6c-3.8-0.6-7.6-1.1-11.3-1.7c0.3-2.3,0.1-4.5,0.8-6.7
	c3.7-1.6,7.9-1.6,11.8-2.3c-0.5-5.9,0.2-12.3-3.3-17.4C176.4,146.9,159.4,151.2,158.9,163z"/>
<path d="M169.1,229.4c1.8-0.1,5.5-0.4,7.4-0.6c2.2,12.4,1.5,25,1.3,37.4c3,4.6,9.4,6,12.5,10.6c6.8,9.6,5,25.7-6.3,31.1
	c-9.4,6.2-22.3,2.6-28.7-6.2c-7.8-11.9-1.5-29.7,12.2-33.6C169.7,255.3,167,242.2,169.1,229.4z"/>
<g id="_x23_2e99d6ff">
	<path class="st1" d="M376.8,245.4c-0.2-5,0.5-12.5,8.1-10.5c0,5-0.7,9.9-2,14.7C380.7,248.6,376.7,248.6,376.8,245.4z"/>
</g>
</svg>
