<?xml version="1.0" encoding="utf-8"?>
<!-- Generator: Adobe Illustrator 21.1.0, SVG Export Plug-In . SVG Version: 6.00 Build 0)  -->
<svg version="1.1" id="Laag_1" xmlns="http://www.w3.org/2000/svg" xmlns:xlink="http://www.w3.org/1999/xlink" x="0px" y="0px"
	 viewBox="0 0 786 1387" style="enable-background:new 0 0 786 1387;" xml:space="preserve">
<g id="_x23_ffffffff">
</g>
<g id="_x23_b8b6b8ff">
	<path d="M615.2,3.9c10.5-0.4,23.3,2,28.6,12.2c6.1,8.2,4.6,19.1,4.9,28.6c0.4,24.7,0.5,49.3-0.2,74c1.1,53.1,0.3,106.2,0.5,159.4
		c0.9,74.7,0.2,149.4,0.8,224c0.4,33.3-0.3,66.6,0.4,100c-0.4,11,1.1,24.2-6.8,33.3c-6.8,7.6-17.5,9-27.1,9.1
		c-25.5,0.2-51.1,0-76.6,0.3c-5.4-2.3-5,2.7-5.3,5.5c0.1,17.5-1.3,35-1,52.6c15.3-5.3,33.6-7.1,47.8,2.2
		c11.9,8.6,14.9,23.6,19.1,36.7c14.8-2.2,31.8-2.8,44.2,7c13.9,12.1,20.7,29.9,28,46.3c5.9-1.2,12-4.3,18.1-2.5
		c8.7,2,15.6,8.3,20.7,15.3c7.8,10.8,14.3,22.5,21.3,33.8c4.8,8.4,10.9,16.1,15.3,24.8c4.2,8.3,10.4,15.5,13.6,24.3
		c8.3,20,18.2,40.2,18.7,62.3c2.5,32.8-13.9,62.5-23.1,93c-13.2,39.8-30.3,78.2-45.8,117.1c-4.4,11.6-10.3,22.7-13.3,34.7
		c-2.8,12.9-3.4,26.1-4.2,39.2c1.3,20.4,2,41.2,8.6,60.7c5.9,23.3,14.2,45.9,22.8,68.4c1.9,4.8,3.7,9.8,3.3,15
		c-2.5-1.2-5-2.8-5.9-5.6c-6.8-17.5-12.9-35.4-18.7-53.3c-6.5-18.5-12.2-37.6-13.8-57.3c-1.9-23.6-2.8-47.8,3-71
		c2.1-7.4,5.5-14.4,8.5-21.5c10.4-24.8,20.3-49.8,30.2-74.8c8.6-19.2,15.6-39,22.1-59c7.7-20.7,15.3-41.6,19.8-63.3
		c4-20.5-0.5-41.5-8.1-60.7c-5.9-15.1-12.3-30.2-21.2-43.7c-11.4-17.8-22.3-35.8-33.1-53.9c-4.8-6.7-10.1-13.4-17.4-17.5
		c-5.3-3.1-12.8-2.6-17.3,1.6c0.8,5.5,4,10.3,6.2,15.3c10.4,23.4,24.1,45,37.3,67c3,5.5,7.2,10.3,9.9,16.1c1.2,2.4-1.3,4-2.7,5.6
		c-17.5-27.9-35.4-55.6-49.3-85.5c-9.1-18.1-15-37.8-26.6-54.5c-5-7-10.7-14.9-19.4-17.4c-9.6-3.6-20-2.1-29.9-0.6
		c6,27.7,15.6,54.4,23.9,81.4c2.7,8,7.4,15.2,9.5,23.4c3.2,12.3,3.5,25.3,2.3,37.9c-1.5,0-3,0.1-4.5,0.2
		c-0.8-15.2,0.1-31.2-6.1-45.5c-12.7-26.8-19.6-55.8-27.8-84.2c-3.9-13.8-6.4-28.2-12.9-41.1c-5.5-11-18.2-16.5-30-15.8
		c-7.5,0.6-15.5,1.7-21.9,6c-3.1,21-0.3,42.3-0.6,63.4c2.2,25.4,6.9,50.5,12.6,75.3c0.9,2.6-1.4,4.4-2.8,6.2
		c-5.8-12.5-6.9-26.4-9.6-39.7c-9.9-50.6-6.2-102.4-5.5-153.5c2.1-35-0.5-70-0.3-105c-0.2-14-1.4-27.9-2.2-41.9
		c-0.9-17.8-0.3-36-5.7-53.1c-2.7-9.8-13.5-14.7-23-14.6c-8.3,0.4-17.5,2.8-22.6,10c-9.9,14.6-10.5,32.8-12,49.8
		c-2.8,28.5-3.4,57.3-8.9,85.4c-2.9,16.8-7.1,33.4-9.6,50.3c-6.9,40.7-12.3,81.8-23.5,121.6c-4.9,18.1-5.4,36.9-7.6,55.4
		c-1.9,15.2-1.7,30.5-3.1,45.7c-0.3,6.2-3,11.9-5.4,17.5c-9.1,21-13,43.8-16.6,66.2c-1.5,8.2-0.8,16.8-4.1,24.6
		c-4.4-3.8-2.9-10.1-2.6-15.1c3-24.8,7.4-49.5,16.2-72.9c2.7-6.5,6.6-12.8,6.6-20.1c1.5-17.6,2.4-35.2,3.7-52.8
		c-8.1,7.5-14.1,16.9-20.2,25.9c-16.6,24.5-31.5,50.1-44.4,76.7c-10.1,18.2-15.9,38.4-22.9,58c-3.1,11.6-1.8,23.9,0.9,35.4
		c5.6,19.2,10.6,38.6,17.6,57.3c10.9,31.2,21.9,62.5,35.8,92.5c12.8,27.6,30,52.8,44.4,79.6c9.2,20.1,12.7,42.4,13.9,64.3
		c2.1,21.7,2.6,43.5,1.7,65.3c-1.6-0.2-3.3-0.3-4.9-0.4c-0.2-35-0.1-70.3-7.4-104.6c-3.1-10-7-19.9-11.8-29.2
		c-17-28.7-34.7-57.2-47.9-87.9c-8.6-18.5-14.5-38.1-22.1-57.1c-5.8-19-13.1-37.6-18.3-56.8c-5.6-19.5-13.4-40-7.3-60.4
		c15.2-46.8,37.9-90.9,65.2-131.8c7.7-11.8,16.2-23,25.5-33.6c3.3-3,3.8-7.5,4.4-11.7c1.3-13.3,3.9-26.5,7.8-39.3
		c5.9-18.8,8-38.5,11.8-57.8c2.4-17.2,5.9-34.3,7.9-51.6c-44.4-0.6-88.8,0.3-133.2,0.4c-66.7-1.1-133.3,0.5-200,0.1
		c-20.4,0-40.9-0.4-61.3,0.1c-8.9,0.6-18-2.5-24.4-8.8c-4.7-5.4-6.3-12.5-6.7-19.4c-1.4-21.4,0.2-42.9-0.6-64.3
		c0.4-170.7-0.7-341.3-1-512C9.9,30.9,11,19.2,19,12.1C29.3,4.3,43,4.7,55.2,5.3C72,4.5,88.9,4.7,105.7,5.5
		C162.1,5.4,218.6,4.8,275,4.5c16.2-0.6,32.4,1.5,48.7,0.6c33.4-1,66.8-0.2,100.1-0.8c27.7,0.1,55.5-0.3,83.2,0.3
		C543.1,4.2,579.2,4.3,615.2,3.9 M467,9c-98,0.9-196,0.4-294,0.8c-27.6,0.8-55.2,0.6-82.8-0.1C77.2,9.9,64.1,10.7,51,10.1
		C41,9.8,29.9,10,21.7,16.8c-7.2,7.6-5.2,18.8-5.8,28.2c0.7,73.2,0.4,146.4,0.5,219.7c0.5,25.8-0.4,51.6,0.5,77.3
		c0.2,54.3-1,108.7,0.4,163c-0.1,38.2-0.9,76.4,0.3,114.6c0.1,9.3,7,17.7,15.8,20c7.5,2,15.2,0.9,22.8,1.1c16,0.1,32-0.2,48,0
		c31.5,0.8,63-1.7,94.4-0.8c27.2,1.6,54.4-0.3,81.6,0.4c52.9,0.5,105.8,0.4,158.7-1c3.1-20.7,8.2-41,11.7-61.5
		c1.3-11.2,2.1-22.4,2.7-33.7c-39.9,0.8-79.9,0.2-119.8,0.7c-40.4-0.2-80.9-0.4-121.3,0c-23.4-0.3-46.9,1.6-70.2-0.5
		c-6.8-1.2-11.1-7.6-10.8-14.1c0.4-133.7-1.5-267.4-1-401.1c0.3-5.1,0-10.3,1.9-15.2c3.2-5.9,10.7-8.4,17.1-7.8
		c62.8-0.5,125.5-0.6,188.3-0.4c34.2-0.5,68.5,0.3,102.8-0.6c18.2-0.8,36.5,0.8,54.7,0.5c8.4-0.2,17-0.5,25.3,1
		c6.6,2,8.5,10.4,8.2,16.5c0.5,21.9,0.3,43.7,0.5,65.6c-0.7,81.8,0.8,163.6,0.6,245.4c0.7,16.3-0.9,32.7,0.5,49
		c2.3,23.5,1.6,47.1,3.7,70.6c1.3,28.7,0.2,57.4,1.9,86c25.5,0.2,51-0.3,76.5-0.2c9-0.3,19.8,0.3,26.5-7c7.3-8.9,5.9-21.2,6.2-32
		c-0.9-126.8-0.5-253.6-0.7-380.4c-1-30.1,1.1-60.2-0.5-90.3c0.3-29.8-0.1-59.6-0.1-89.5c-0.5-7.8,0-16.8-5.4-23.2
		c-4.6-5.9-12.1-8.3-19.4-8.4C568,8.3,517.5,10.6,467,9 M228,111.1c-27.1,0.5-54.2-0.2-81.4,0.3c-4.3,0.2-10,1.4-10.5,6.6
		c-1.2,31.8,0.7,63.6-0.6,95.3c1,49.3,0,98.7,1,148c-0.5,23.7,0.5,47.5-0.1,71.2c0,30.9,0.7,61.7-0.1,92.6c0.4,4.3,0.1,9.7,3.6,12.8
		c4.6,2.7,10.2,1.5,15.2,1.6c36.7,0,73.4,0,110.1-0.5c37.9,0.7,75.9,0.1,113.8,0.2c25-0.3,50-0.9,74.9-0.3c2-19.7,3.3-39.5,5.7-59.2
		c0.8-9.6,6.1-17.8,9-26.8c1.6-19.2-1.2-38.7,1.4-57.9c3-15.2,22.4-21.6,35.1-14c5.7,3.3,9.7,9.6,10.7,16.1
		c0.8,14.9,0,29.9,0.6,44.9c-0.9,5.6,4.6,8.5,7.3,12.5c-0.2-76.5,0-153-0.7-229.4c0.2-35.9,0.6-71.8-0.5-107.6
		c-0.9-6.3-8.2-6.9-13.3-6.9c-62.2,0-124.4,0.2-186.6,0.4c-5.8,0.3-11.7,0.7-17.5-0.2C279.3,110.3,253.7,111.2,228,111.1
		 M477.8,390.9c-2.8,4-3.1,8.9-3.2,13.6c0.1,14.1-0.3,28.3,0.1,42.4c11.1-6.1,24.1-6.9,36.3-4c-0.1-14.4,0.7-28.9-0.6-43.3
		c-0.5-7.7-6.3-14.3-13.6-16.5C489.9,382.4,481.7,384.6,477.8,390.9z"/>
	<path d="M270.1,134.1c8.6,0.7,17.5-0.7,26,1.5c-0.5,21.8,1,43.7-0.9,65.5c-7.3,0.2-14.7,0.5-22,0.4c-3.7,0.2-4.2-3.9-5.6-6.5
		c-8.8-0.8-19.1,0.6-25.6-6.8c-10.7-9-12.6-26.9-2.8-37.1c6.2-9.1,17.8-11,28-10.9C268.1,138.1,269.1,136.1,270.1,134.1z"/>
	<path d="M363,134.2c7.3-0.2,14.6-0.7,22-0.2c3.8,0.8,4.9,5.9,8.9,6.4c6.4,1.2,13.7,0.1,19.3,4c7.5,5.4,13.4,14.3,12.2,23.9
		c-0.2,9.9-5.9,20.1-15.2,23.9c-5.7,2.9-12.4,1.9-18.5,2.8c-1.5,2.5-2.4,6.2-5.9,6.3c-7.6,0.7-15.3,0.3-22.9-0.1
		C361.8,178.9,360.9,156.5,363,134.2z"/>
	<path d="M317,335c6.8-1.8,14-1.8,21-1.4c3,0.5,7.7,1.2,5,6.3c0.1,18.4,0.2,36.7,0,55.1c-0.1,2-0.2,5.2-2.8,5.5
		c-8,0.9-16.2,0.4-24.3-0.2c0.1-18.5-0.1-36.9-0.2-55.4C316.1,341.7,315.5,338.1,317,335z"/>
	<path d="M486,397.7c3.6-0.6,7.9-4,11.2-1c5.1,3.2-0.1,13-5.9,9.9C487.2,406,487.1,400.7,486,397.7z"/>
	<path d="M253.6,448.6c6.1-5.1,13.9-7.8,21-11.2c6.4,10.4,12.8,20.8,18.4,31.6c4.4,8.6,11.6,16.1,13.8,25.6c-6.3,6-15,9-22.7,12.8
		c-10.9-16.7-20.3-34.3-30.2-51.6C252.6,453.7,250.9,450.6,253.6,448.6z"/>
	<path d="M383.6,439.6c1.2-2,3.8-1.7,5.5-0.7c6.8,3.4,13.5,7.1,19.4,11.9c-11.2,18.6-20.8,38.2-32.8,56.2
		c-6.3-0.4-11.3-5.2-16.8-7.7c-2.8-1.4-7.2-4.1-5.5-7.8c4.4-9.5,10.8-18,15.9-27.2C374,456,378.2,447.4,383.6,439.6z"/>
	<path d="M494.2,451c5.7,0.2,12.1,0.1,16.7,4.1c4.9,3.3,7,9.3,6.9,14.9c0.2,10.8,1,21.9-1.5,32.4c-6,8.2-17.7,8.2-26.9,8.5
		c-7.5,0.5-16.4-2.9-18.5-10.8c-1.9-12-0.7-24.3,2.3-36c1.1-3.8,2.6-8.1,6.3-10.2C484.1,451.9,489.2,451.5,494.2,451 M494.3,456.5
		c-5.1,0.9-12.4,0.6-14.4,6.4c-3.6,12.1-6.9,25.6-2.9,38c4,5.4,11.5,5.5,17.6,4.7c5.8-0.8,13-0.8,16.9-5.9
		c1.3-11.5,1.9-23.5-0.5-34.9C509,457.8,500.6,456.1,494.3,456.5z"/>
	<path d="M465.8,654.5c11.6-6.5,25.4-4.8,38.1-3.1c2.4,0.2,3.1,2.9,4.6,4.4c-4.3,1.2-12.8-1.8-12.4,6.1c-8.1-1.2-16.2-3-24.4-3.6
		C469.1,658.3,467.4,656.2,465.8,654.5z"/>
	<path d="M459.9,664.8c9.5-0.1,18.5,3.9,28.1,4c7.5,0.6,14.4-3.1,21.9-3.2c-1.1,1.8-1.7,4.5-3.9,5.3c-9.7,4-20.8,4.6-30.9,1.9
		C469.7,671.5,462.2,671,459.9,664.8z"/>
</g>
</svg>
