<?xml version="1.0" encoding="utf-8"?>
<!-- Generator: Adobe Illustrator 25.2.1, SVG Export Plug-In . SVG Version: 6.00 Build 0)  -->
<svg version="1.1" id="Laag_1" xmlns="http://www.w3.org/2000/svg" xmlns:xlink="http://www.w3.org/1999/xlink" x="0px" y="0px"
	 viewBox="0 0 960 1147.8" style="enable-background:new 0 0 960 1147.8;" xml:space="preserve">
<path d="M490.5,4.5c29.6-2.7,60.4-4.2,91-4l0.3,0c9.9,0.1,22.4,3.2,34.7,7.8l1.5,0.6c0.3,0.1,0.5,0.2,0.8,0.3l1.5,0.6
	c1.3,0.5,2.5,1,3.8,1.6l1.5,0.7l1.5,0.7c8.4,3.8,16.3,8.2,22.6,12.7l0.5,0.4c10.4,7.5,16.6,19.6,16.6,32.4V1086
	c0,12.7-6,24.6-16.2,32.1c-19.1,14.1-50.2,23.5-69.9,23.3l-1.4,0c-26.3-0.1-49.9-1.8-71.5-4.8l-2.7-0.4c-8.7-1.2-17-2.7-25-4.3
	c-6.3-1.3-12.1-2.6-18.1-4.1c-0.3-0.1-0.7-0.2-1-0.2l-1.9-0.5l-2-0.5l-2-0.5l-5.9-1.6c-17.2-4.8-29.2-20.6-29.2-38.5l0-975.1
	l-442.4,28c-5.5,0.3-10.3-3.8-10.6-9.3c-0.3-4,1.9-7.6,5.2-9.4c-2.4-1.7-4-4.4-4.2-7.6c-0.3-5.4,3.7-10.1,9.1-10.6l0.3,0l442.7-28.1
	v-18L-20.4,83c-5.5,0.3-10.3-3.9-10.6-9.4c-0.3-5.4,3.7-10.1,9.1-10.6l0.3,0L422,35.8c0.7-2.1,1.5-4.1,2.5-6.1L-20.4,58
	c-5.5,0.4-10.3-3.8-10.6-9.3c-0.3-5.4,3.7-10.1,9.1-10.6l0.3,0l472-30c1.4-0.1,2.7,0.1,4,0.5l1.7-0.2l4.2-0.6l3.5-0.4l2.9-0.3
	l2.2-0.3l3.4-0.4l2.3-0.3l2.4-0.3l2.4-0.3l3.7-0.4l2.5-0.2l2.5-0.2L490.5,4.5z M462,847.6l0,239l1.4,0.4l3.1,0.8l2.7,0.7l2.9,0.7
	l2.3,0.6l2.5,0.6l1.7,0.4l1.8,0.4c0.3,0.1,0.6,0.1,0.9,0.2l1.8,0.4l1.9,0.4c0.6,0.1,1.3,0.3,2,0.4l2,0.4l2.1,0.4
	c0.7,0.1,1.4,0.3,2.1,0.4l2.2,0.4c18.7,3.4,43.7,6.6,75.7,7.2l0-245.5l-0.4,0c-0.6,0-1.2,0-1.8,0l-3.5-0.1c-0.6,0-1.2,0-1.7,0
	l-3.4-0.1c-0.6,0-1.1,0-1.7,0l-3.4-0.1l-3.3-0.1c-0.6,0-1.1,0-1.7,0l-3.3-0.1l-3.2-0.1l-3.2-0.1l-3.2-0.1l-3.1-0.1
	c-0.5,0-1,0-1.5-0.1l-3.1-0.1l-3-0.2c-0.5,0-1-0.1-1.5-0.1l-3-0.2l-2.9-0.2l-2.9-0.2c-0.5,0-0.9-0.1-1.4-0.1l-2.8-0.2
	c-0.9-0.1-1.9-0.1-2.8-0.2l-2.7-0.2c-0.4,0-0.9-0.1-1.3-0.1l-2.7-0.2l-2.6-0.2l-2.6-0.2c-0.8-0.1-1.7-0.2-2.5-0.2l-2.5-0.2l-2.4-0.3
	c-0.4,0-0.8-0.1-1.2-0.1l-2.3-0.3L484,851l-2.3-0.3l-2.2-0.3l-2.2-0.3l-2.1-0.3l-2.1-0.3c-1-0.2-2-0.3-3-0.5l-1.9-0.3l-1.9-0.3
	C465,848.1,463.4,847.9,462,847.6L462,847.6z M591,855.8l0,244.5l0.7-0.1l1-0.2l1-0.2c0.2,0,0.4-0.1,0.5-0.1l1.1-0.2
	c0.4-0.1,0.7-0.2,1.1-0.3l1.1-0.3c0.2,0,0.4-0.1,0.6-0.1l1.1-0.3l1.1-0.3l1.1-0.3c0.6-0.2,1.2-0.3,1.7-0.5l1.2-0.4
	c0.4-0.1,0.8-0.3,1.2-0.4l1.2-0.4l1.2-0.4l1.2-0.4c6.4-2.4,12.8-5.5,17.9-9.2l0-237.3C615.8,852.8,602.8,855.1,591,855.8L591,855.8z
	 M492.6,77.7l-4.3,0.4l-3.9,0.4l-2.5,0.2l-2.5,0.2l-3.7,0.4l-2.4,0.2l-2.3,0.3l-3.4,0.4l-3.3,0.4l-2.2,0.3l0,746.3
	c0.7,0.2,1.4,0.3,2.1,0.5l1.5,0.3l1.6,0.3c0.3,0.1,0.5,0.1,0.8,0.2l1.7,0.3c1.1,0.2,2.3,0.4,3.5,0.6l1.8,0.3l1.9,0.3
	c0.3,0,0.6,0.1,1,0.1l2,0.3l2,0.3l2.1,0.3c0.3,0,0.7,0.1,1.1,0.1l2.1,0.3c0.4,0,0.7,0.1,1.1,0.1l2.2,0.3l2.3,0.2
	c0.4,0,0.8,0.1,1.2,0.1l2.3,0.2l2.4,0.2c0.8,0.1,1.6,0.2,2.4,0.2l2.5,0.2l2.5,0.2l2.6,0.2l2.6,0.2l2.7,0.2l2.7,0.2l2.8,0.2l2.8,0.2
	c0.5,0,0.9,0.1,1.4,0.1l2.9,0.2l2.9,0.2c0.5,0,1,0,1.5,0.1l3,0.1l3,0.1l3.1,0.1l3.1,0.1l3.1,0.1c0.5,0,1.1,0,1.6,0.1l3.2,0.1
	c0.5,0,1.1,0,1.6,0l3.3,0.1c1.1,0,2.2,0.1,3.3,0.1l3.3,0.1c0.6,0,1.1,0,1.7,0l3.4,0.1l3.4,0l0,0L571,74
	C545,74.1,518.4,75.5,492.6,77.7L492.6,77.7z M591,76.4l0,759.3c12.2-0.8,26.1-3.7,35.3-8.6c0.2-0.1,0.4-0.2,0.6-0.3l0-734.9
	c-1.9,0-3.7-0.5-5.4-1.6l-0.2-0.2c-2-1.4-4.5-2.9-7.2-4.3l-1-0.5l-1.1-0.5c-0.4-0.2-0.7-0.4-1.1-0.5l-1.1-0.5
	c-0.2-0.1-0.4-0.2-0.6-0.3l-1.1-0.5c-0.2-0.1-0.4-0.2-0.6-0.3l-1.1-0.5l-1.1-0.5l-1.2-0.5c-0.2-0.1-0.4-0.2-0.6-0.2l-1.2-0.5
	c-0.2-0.1-0.4-0.2-0.6-0.2l-1.2-0.5c-0.2-0.1-0.4-0.2-0.6-0.2l-1.2-0.4l-1.2-0.4l-1.2-0.4l-1.1-0.4l-1.1-0.4
	c-0.2-0.1-0.4-0.1-0.6-0.2l-1.1-0.4l-1.1-0.3L591,76.4z M591,42.1l0,13.7c0.3,0.1,0.6,0.1,0.9,0.2l1.3,0.3l1.3,0.4l1.3,0.4
	c2.4,0.7,5,1.5,7.5,2.4l1.4,0.5c0.2,0.1,0.5,0.2,0.7,0.3l1.4,0.5c0.5,0.2,0.9,0.4,1.4,0.5l1.4,0.5l1.4,0.6c0.5,0.2,0.9,0.4,1.4,0.6
	l1.4,0.6c0.2,0.1,0.5,0.2,0.7,0.3l1.3,0.6c4,1.8,7.8,3.8,11.3,5.7l0-11.9c-2.9-2.1-6.6-4.3-10.7-6.4l-1.2-0.6
	c-0.6-0.3-1.2-0.6-1.8-0.9l-1.2-0.6c-0.2-0.1-0.4-0.2-0.6-0.3l-1.3-0.6c-0.4-0.2-0.8-0.4-1.3-0.6l-1.3-0.5l-1.3-0.5l-1.3-0.5
	c-0.6-0.3-1.3-0.5-1.9-0.8l-1.3-0.5c-0.6-0.2-1.3-0.5-1.9-0.7l-1.3-0.4c-1.3-0.4-2.5-0.8-3.7-1.2l-1.2-0.4
	C592.7,42.5,591.8,42.3,591,42.1L591,42.1z M571,40.5c-9.4,0-18.5,0.3-27.3,0.6l-3.5,0.1l-3.5,0.2c-0.6,0-1.2,0.1-1.7,0.1l-3.4,0.2
	c-0.6,0-1.1,0.1-1.7,0.1l-3.3,0.2l-3.3,0.2c-1.1,0.1-2.2,0.1-3.2,0.2l-3.2,0.2c-0.5,0-1,0.1-1.6,0.1l-3.1,0.2l-3,0.2l-3,0.2
	l-2.9,0.2l-4.2,0.4l-2.7,0.2l-2.6,0.2l-2.5,0.2l-2.5,0.2l-2.4,0.2l-2.3,0.2l-3.3,0.3l-2.1,0.2l-2.9,0.3l-2.7,0.3l-1.7,0.2l-3.7,0.4
	l-2.5,0.3l-2.4,0.3l-0.8,0.1v12.8l2.1-0.2l3.5-0.4l2.4-0.3l3.6-0.4l3.7-0.4l2.6-0.3l2.6-0.2l4-0.4c0.4,0,0.9-0.1,1.3-0.1
	c27.4-2.4,55.5-3.9,83.2-4L571,40.5z"/>
</svg>
