<?xml version="1.0" encoding="utf-8"?>
<!-- Generator: Adobe Illustrator 21.1.0, SVG Export Plug-In . SVG Version: 6.00 Build 0)  -->
<svg version="1.1"
	 id="svg2" inkscape:version="0.91 r13725" sodipodi:docname="xiaomi_temp_icon.svg" xmlns:cc="http://creativecommons.org/ns#" xmlns:dc="http://purl.org/dc/elements/1.1/" xmlns:inkscape="http://www.inkscape.org/namespaces/inkscape" xmlns:rdf="http://www.w3.org/1999/02/22-rdf-syntax-ns#" xmlns:sodipodi="http://sodipodi.sourceforge.net/DTD/sodipodi-0.dtd" xmlns:svg="http://www.w3.org/2000/svg"
	 xmlns="http://www.w3.org/2000/svg" xmlns:xlink="http://www.w3.org/1999/xlink" x="0px" y="0px" viewBox="0 0 620 656"
	 style="enable-background:new 0 0 620 656;" xml:space="preserve">
<style type="text/css">
	.st0{fill:#484A4B;}
</style>
<sodipodi:namedview  bordercolor="#666666" borderopacity="1" gridtolerance="10" guidetolerance="10" id="namedview16" inkscape:current-layer="svg2" inkscape:cx="427.5" inkscape:cy="427.5" inkscape:pageopacity="0" inkscape:pageshadow="2" inkscape:window-height="753" inkscape:window-maximized="0" inkscape:window-width="1408" inkscape:window-x="0" inkscape:window-y="0" inkscape:zoom="0.7" objecttolerance="10" pagecolor="#ffffff" showgrid="false">
	</sodipodi:namedview>
<g id="_x23_fdfdfdff">
</g>
<g id="_x23_484a4bff">
	<path id="path6" inkscape:connector-curvature="0" d="M282.5,12.9c35-4.8,71.4-2.4,106.1,4.2c32.1,8.4,65.6,15.1,93.1,35.1
		c62.4,37.2,102.9,104,120.7,173.3c22.1,93.1,9,195.1-41.5,276.8c-42.5,79.3-124.5,138.9-215.4,145.4c-34.3,1.4-68.5-5.5-101-16.6
		c-35.8-10-72.6-20-105.6-39.1c-27.2-17.9-52.8-40.1-71.1-67.4c-15.9-17.8-27.4-45.1-36.6-68.8c-33.8-89-27.6-191.3,14-276.7
		c40.4-86,122.8-157,220.1-164.5C271,14,276.7,13.3,282.5,12.9z M250.4,28C176,39,111.5,89.3,72.9,152.8
		c-41.6,66.3-59.4,147.8-49.2,225.4c8.4,66.9,36.3,132.6,87.1,178.1c18.5,18.8,38.9,28.9,62.3,40.6c10.4,3.1,40.7,15.9,17.6-0.2
		c-69.4-55.7-104-145.5-106.1-232.9c-2.1-57.8,9.8-115.7,34.2-168.1c30.7-69.5,86-129.6,156.4-159.7C260.2,40.6,263.2,20.8,250.4,28
		z M365.5,30c-78.1-1.4-151,43.3-196.9,104.6c-49.9,64.3-74.7,146.9-72.8,228c3.1,47.1,11.5,94.9,33,137.6
		C161,567.4,224,622.4,299,633.4c62.3,10.6,127.9-9.7,177.4-48.6c63.8-50.3,103.2-126.7,119-205.3c14.4-80,2.9-166.4-40.1-236.3
		C516.9,76.5,443.5,28.7,365.5,30L365.5,30z"/>
	<path id="path8" inkscape:connector-curvature="0" d="M371,218.4c9.7-3.4,18.6,7.1,19.9,16c1.6,13.2,0.5,26.7,0.8,40
		c-0.1,20.8-0.2,41.6,0.4,62.3c11,7.4,14.1,21.8,14.8,34.2c-0.1,15.5-8,30.6-19.9,40.4c-12.4,8.1-31.1,5.3-39.3-7.6
		c-10.8-15.2-11.5-36.2-3.8-52.9c4-6.7,11.6-12.4,9.6-21.2c-0.4-30.7-1.1-61.4,0-92.1c1.3-8.1,7.7-15.1,15-18.4l1.2-0.4L371,218.4z
		 M363.2,235.3c-3.7,13.5-0.9,27.6-2,41.4c0.3,16.8-0.1,33.5,0.1,50.3c0.9,10.2-1.2,19.8-9.1,26.7c-6.2,9.8-6.5,22.3-3.8,33.3
		c3.4,10.3,13.1,21.1,24.9,19.3c7.7-1.4,14.6-6.4,18.1-13.4c4.1-6,7-13.1,6.4-20.6c0.9-11.7-4.3-23.9-14-30.7
		c-0.8-14.6,0.1-29.2-0.3-43.8c0.3-6.3,1.7-16.7-7.7-13.5c-5.5-4.4,3.2-10.2,7.9-11.4c0.2-6.8-13.9-0.6-9-10.1
		c2.4-2.8,12.6-3.7,7.5-8.2c-7.1,2.9-12.3-7.8-3.7-9.6c10.8,0.4,2.3-18.4-6-17.1C368.8,228.6,364.3,231.1,363.2,235.3L363.2,235.3z"
		/>
	<path id="path10" d="M370.1,295.5c2.9,1.4,7.4,1.8,8.3,5.3c0.5,15-0.8,30-0.3,45c2.2,6.8,11.1,9.3,12.8,16.5
		c1.4,7.7,2.7,16.6-2,23.4c-3.9,7.5-12.4,12.5-20.9,11.5c-14.4-5-19.4-24.5-11.8-37c1.7-5.3,7.1-7.8,10-12.2
		c1.1-13.4,0.2-26.8,0.6-40.2C366.1,303.4,368,299.3,370.1,295.5z"/>
	<path id="path12" inkscape:connector-curvature="0" d="M371.4,493.5c2.6-0.6,5.8-0.4,7.8,1.7c1.4,1.5,1.9,3.6,2.2,5.5
		c0.6,3.7-0.1,7.8-2.7,10.6c-1.2,1.3-2.9,2.2-4.6,2.5c-2.2,1.3-5,0.8-7-0.5c-1.2-0.7-2.4-1.7-3-3c-2.4-4.4-1.7-10.3,1.7-14
		C367.1,494.8,369.2,493.7,371.4,493.5L371.4,493.5z"/>
	<path id="path14" class="st0" d="M195.9,601.1C195.9,601.1,195.9,601.1,195.9,601.1C195.9,601.1,195.9,601.1,195.9,601.1z"/>
</g>
<path id="path3348" inkscape:connector-curvature="0" d="M359.5,387.6c-4.2-5-6.9-11.7-5.1-18.2c2-8.9,9.5-15.2,11.7-24
	c3.8-14.4,1.2-29.6,4.8-44c1.4-4.9,3.7,1.2,3.6,3.4c2.4,13,0.8,26.4,3.6,39.4c1.1,5.6,4.9,9.8,8.2,14.1c4.9,6.9,6.2,16.3,2.3,24
	c-3.1,6.2-8.7,12.6-16.2,12.8C367.1,395,362.6,391.6,359.5,387.6L359.5,387.6z"/>
<path id="path3350" inkscape:connector-curvature="0" d="M-32-14"/>
</svg>
