<?xml version="1.0" encoding="UTF-8" ?>
<!DOCTYPE svg PUBLIC "-//W3C//DTD SVG 1.1//EN" "http://www.w3.org/Graphics/SVG/1.1/DTD/svg11.dtd">
<svg width="684pt" height="684pt" viewBox="0 0 684 684" version="1.1" xmlns="http://www.w3.org/2000/svg">
<g id="#fdfdfdff">
</g>
<g id="#484a4bff">
<path fill="#484a4b" opacity="1.00" d=" M 314.55 26.92 C 321.72 24.18 329.53 25.47 337.02 24.63 C 355.48 23.66 373.85 25.86 392.27 26.71 C 403.10 28.09 414.35 28.21 424.52 32.62 C 431.46 35.39 439.16 35.14 446.11 37.95 C 457.30 39.92 467.91 44.05 478.72 47.42 C 486.18 51.23 494.42 53.66 501.10 58.84 C 505.44 61.08 509.75 63.36 513.73 66.21 C 518.29 67.38 521.33 71.07 525.48 73.06 C 537.47 81.39 547.74 91.84 559.07 100.97 C 562.20 103.88 564.34 107.66 567.36 110.69 C 576.59 120.05 583.35 131.39 591.17 141.87 C 602.82 157.47 610.31 175.49 619.21 192.67 C 625.73 211.77 633.88 230.56 636.37 250.78 C 644.67 287.02 646.18 324.52 643.51 361.52 C 641.42 383.62 637.04 405.44 632.15 427.06 C 627.18 439.31 623.61 452.03 619.41 464.52 C 613.17 475.96 608.54 488.14 602.80 499.81 C 595.34 510.35 590.54 522.47 582.81 532.84 C 576.80 543.93 568.99 553.86 561.40 563.88 C 551.12 573.77 542.19 585.05 531.21 594.23 C 526.70 598.89 521.72 603.02 516.27 606.52 C 509.51 613.33 500.54 617.16 493.14 623.14 C 476.37 634.10 458.15 642.77 439.09 648.86 C 428.56 652.95 417.53 655.48 406.43 657.41 C 399.16 659.03 391.78 660.78 384.28 660.54 C 381.94 660.45 379.77 661.65 377.48 661.74 C 373.63 659.94 369.48 662.04 365.46 661.59 C 359.67 660.69 353.88 661.72 348.08 661.21 C 339.36 660.06 330.43 660.20 321.97 657.48 C 302.90 654.10 284.74 646.75 265.89 642.50 C 260.58 642.77 256.69 637.06 251.28 638.97 C 249.40 637.00 247.03 635.60 244.24 635.78 C 236.26 633.59 228.69 629.92 220.49 628.48 C 211.51 625.35 202.75 621.61 193.95 618.00 C 184.82 614.04 176.56 608.39 167.38 604.55 C 151.63 592.10 134.89 580.58 121.54 565.40 C 113.90 556.85 105.21 548.90 99.71 538.69 C 99.23 538.88 98.76 539.07 98.29 539.26 C 86.88 521.27 75.95 502.78 68.17 482.88 C 65.38 473.99 60.76 465.81 58.25 456.82 C 46.42 419.12 40.10 379.46 41.59 339.89 C 40.91 323.92 44.17 308.17 45.40 292.31 C 47.53 282.79 48.67 273.05 51.62 263.73 C 54.15 255.22 55.43 246.28 59.29 238.21 C 61.92 232.78 63.39 226.91 65.30 221.21 C 75.10 196.09 86.33 171.21 102.57 149.51 C 110.98 138.47 117.98 126.13 128.47 116.83 C 137.44 104.45 150.14 95.56 160.99 84.97 C 169.51 78.02 179.17 72.60 187.77 65.73 C 191.39 62.77 195.81 61.07 199.85 58.78 C 209.14 53.86 218.32 48.51 228.42 45.39 C 241.15 39.55 254.77 36.02 268.33 32.69 C 283.74 30.90 299.06 28.01 314.55 26.92 M 282.42 41.96 C 271.76 42.18 261.80 46.64 251.48 48.84 C 246.25 51.42 240.33 51.85 235.06 54.24 C 225.74 59.58 215.40 62.73 206.14 68.18 C 187.59 79.00 169.15 90.59 154.33 106.35 C 145.18 113.85 138.01 123.36 129.97 131.97 C 121.15 141.12 114.95 152.29 107.63 162.59 C 100.26 173.79 92.99 185.13 87.28 197.29 C 84.55 204.39 81.57 211.39 78.40 218.31 C 72.90 233.33 67.97 248.52 63.36 263.82 C 60.42 275.26 59.32 287.05 56.48 298.51 C 55.44 303.58 55.06 308.75 54.77 313.91 C 53.22 331.10 51.27 348.55 53.48 365.77 C 53.56 383.48 56.92 400.99 60.45 418.29 C 63.06 428.32 63.92 438.77 67.39 448.58 C 70.05 457.91 74.44 466.63 77.12 475.96 C 81.29 484.73 85.21 493.61 89.77 502.19 C 91.49 507.18 95.66 510.79 97.19 515.86 C 98.04 519.03 101.42 520.31 102.96 523.01 C 106.41 530.26 111.24 536.84 116.83 542.58 C 130.91 560.10 147.39 575.72 165.46 589.11 C 166.50 589.87 166.77 591.19 167.31 592.29 C 168.16 592.00 168.98 591.62 169.83 591.33 C 174.24 595.14 179.88 596.99 184.44 600.57 C 188.35 603.51 193.19 604.58 197.69 606.28 C 199.98 608.06 202.07 610.30 205.03 610.92 C 214.56 613.57 223.56 617.81 233.20 620.08 C 231.72 618.13 230.31 615.88 227.86 615.08 C 220.95 609.30 213.95 603.58 207.21 597.58 C 203.06 593.45 199.84 588.45 195.26 584.75 C 189.64 580.29 186.53 573.58 181.41 568.64 C 172.26 558.95 166.22 547.04 158.92 536.03 C 155.21 530.40 153.39 523.83 149.96 518.06 C 146.33 512.16 145.24 505.14 141.65 499.22 C 139.02 495.04 138.49 490.02 136.46 485.59 C 132.11 475.77 129.58 465.31 127.07 454.92 C 125.30 447.59 122.75 440.39 122.30 432.82 C 121.75 425.14 119.06 417.81 118.74 410.11 C 113.45 361.13 116.92 310.97 130.46 263.54 C 134.71 244.72 144.49 227.87 150.71 209.74 C 162.89 181.15 179.61 154.49 200.28 131.27 C 208.59 119.41 219.23 109.59 230.05 100.06 C 242.19 87.52 256.81 77.84 271.30 68.26 C 283.39 62.43 294.84 55.37 307.16 50.05 C 303.63 49.44 299.98 49.52 296.53 48.54 C 293.22 46.87 292.77 42.79 290.89 39.91 C 288.08 40.65 285.29 41.49 282.42 41.96 M 397.46 43.98 C 386.47 44.99 375.29 43.56 364.43 46.05 C 356.40 47.09 348.60 49.28 340.65 50.74 C 334.64 51.97 329.27 55.18 323.23 56.34 C 313.79 59.83 304.66 64.10 295.34 67.91 C 281.37 76.32 266.74 83.86 254.16 94.32 C 245.31 99.41 239.10 107.76 231.00 113.80 C 224.78 122.53 215.80 128.80 209.29 137.32 C 201.89 147.56 192.94 156.71 187.00 167.96 C 185.31 171.75 182.52 174.78 179.99 177.98 C 172.83 190.06 165.84 202.29 160.29 215.22 C 145.20 249.96 134.33 286.77 130.13 324.47 C 128.09 334.61 129.56 345.05 127.58 355.22 C 127.73 364.65 126.35 374.33 129.17 383.52 C 129.94 389.12 128.93 394.83 129.66 400.44 C 131.68 413.79 133.13 427.22 135.55 440.51 C 137.40 452.08 141.98 462.95 144.76 474.30 C 149.44 487.83 154.14 501.44 160.80 514.15 C 165.80 527.22 174.00 538.67 181.86 550.11 C 188.35 560.07 196.84 568.49 204.13 577.85 C 206.65 581.31 210.29 583.67 213.10 586.85 C 219.53 594.15 227.70 599.60 234.94 606.03 C 240.38 611.13 248.14 613.18 252.63 619.36 C 260.10 621.81 266.90 626.45 273.96 630.04 C 281.31 632.49 288.04 636.58 295.59 638.48 C 301.12 639.78 306.05 643.23 311.86 643.24 C 321.73 646.78 332.36 647.01 342.50 649.48 C 346.75 650.29 351.12 647.80 355.25 649.67 C 360.57 651.89 366.17 649.14 371.65 649.98 C 378.83 650.91 385.80 647.93 392.93 648.13 C 399.59 648.88 405.69 645.56 412.22 645.00 C 421.51 642.02 431.29 640.55 440.16 636.25 C 445.83 634.73 451.20 632.46 456.38 629.72 C 464.48 627.65 471.03 622.17 478.75 619.19 C 483.16 615.18 489.06 613.48 493.42 609.38 C 501.21 603.55 509.76 598.61 516.70 591.70 C 531.07 579.44 544.45 565.96 556.14 551.11 C 583.23 518.03 601.32 478.72 615.69 438.75 C 623.51 417.43 627.66 394.93 630.51 372.45 C 631.60 364.97 632.82 357.44 632.49 349.85 C 631.83 343.04 634.67 336.48 633.54 329.66 C 633.32 310.11 631.38 290.63 628.75 271.28 C 625.23 253.36 622.71 235.09 616.09 217.96 C 609.38 201.97 603.84 185.32 594.41 170.63 C 582.52 146.30 566.40 123.90 546.33 105.66 C 541.86 101.40 538.28 96.06 532.66 93.18 C 521.54 84.09 509.36 76.42 497.20 68.81 C 494.43 66.94 491.18 66.11 488.12 64.87 C 478.06 59.64 467.35 55.65 456.54 52.25 C 440.94 49.11 425.45 43.51 409.38 44.32 C 405.43 43.73 401.44 43.38 397.46 43.98 Z" />
<path fill="#484a4b" opacity="1.00" d=" M 402.95 232.45 C 406.87 230.07 411.34 232.63 414.75 234.87 C 421.35 239.68 423.58 248.04 423.62 255.83 C 423.91 287.48 423.08 319.16 424.03 350.80 C 433.05 356.59 436.52 367.79 438.24 377.77 C 440.94 393.11 434.77 409.06 424.32 420.26 C 417.40 429.56 404.18 431.64 393.58 428.50 C 380.96 424.17 374.69 411.39 371.66 399.37 C 369.88 387.81 370.76 375.53 375.88 364.88 C 378.82 358.98 385.68 354.95 385.58 347.74 C 385.18 318.76 384.59 289.76 385.23 260.77 C 385.29 255.47 384.77 249.49 387.82 244.82 C 391.37 239.28 396.25 233.86 402.95 232.45 M 395.24 249.27 C 392.03 260.37 393.80 271.98 393.48 283.34 C 392.78 291.16 393.88 299.02 393.36 306.86 C 392.98 323.39 394.10 339.97 392.55 356.48 C 390.84 360.50 387.17 363.23 384.85 366.87 C 378.46 375.76 378.16 387.42 379.59 397.85 C 381.52 406.26 386.85 414.28 394.56 418.38 C 403.08 423.40 413.29 418.86 419.70 412.63 C 424.71 405.14 430.76 397.01 429.80 387.46 C 431.08 375.36 425.91 362.71 415.91 355.66 C 415.03 342.61 416.17 329.52 415.57 316.46 C 415.50 310.39 416.46 304.20 414.82 298.26 C 412.21 298.35 409.60 298.28 407.00 298.48 C 406.73 296.65 405.53 294.58 406.81 292.90 C 408.55 289.34 412.93 289.07 415.90 286.98 C 415.52 285.81 415.19 284.64 414.91 283.46 C 412.42 283.41 409.93 283.25 407.44 283.31 C 406.70 281.35 404.85 278.68 406.88 276.90 C 409.27 272.87 417.88 275.91 415.28 268.65 C 412.91 268.74 410.55 268.43 408.18 268.46 C 406.81 266.60 404.88 264.00 406.66 261.76 C 408.64 258.79 412.49 258.81 415.64 258.37 C 416.65 251.24 411.74 240.30 403.16 242.21 C 399.83 243.45 396.07 245.53 395.24 249.27 Z" />
<path fill="#484a4b" opacity="1.00" d=" M 402.10 309.48 C 404.98 310.84 409.45 311.33 410.37 314.82 C 410.89 329.83 409.59 344.86 410.11 359.87 C 412.29 366.68 421.22 369.13 422.88 376.39 C 424.31 384.11 425.57 392.99 420.84 399.83 C 416.89 407.36 408.48 412.35 399.93 411.28 C 385.52 406.24 380.50 386.77 388.13 374.32 C 389.83 369.00 395.28 366.54 398.18 362.12 C 399.23 348.77 398.41 335.30 398.73 321.91 C 398.11 317.36 400.05 313.31 402.10 309.48 Z" />
<path fill="#484a4b" opacity="1.00" d=" M 403.39 507.50 C 406.64 506.72 410.40 507.28 412.11 510.51 C 415.07 516.56 413.87 526.32 406.11 527.91 C 402.97 529.63 399.49 528.11 397.07 525.93 C 391.98 519.99 395.07 508.41 403.39 507.50 Z" />
<path fill="#484a4b" opacity="1.00" d=" M 227.91 615.13 C 227.90 615.11 227.88 615.09 227.86 615.08 C 227.88 615.09 227.90 615.11 227.91 615.13 Z" />
</g>
</svg>
