<?xml version="1.0" encoding="UTF-8" standalone="no"?>
<svg
   xmlns:dc="http://purl.org/dc/elements/1.1/"
   xmlns:cc="http://creativecommons.org/ns#"
   xmlns:rdf="http://www.w3.org/1999/02/22-rdf-syntax-ns#"
   xmlns:svg="http://www.w3.org/2000/svg"
   xmlns="http://www.w3.org/2000/svg"
   xmlns:sodipodi="http://sodipodi.sourceforge.net/DTD/sodipodi-0.dtd"
   xmlns:inkscape="http://www.inkscape.org/namespaces/inkscape"
   width="684pt"
   height="684pt"
   viewBox="0 0 684 684"
   version="1.1"
   id="svg2"
   inkscape:version="0.91 r13725"
   sodipodi:docname="xiaomi_temp_icon.svg">
  <metadata
     id="metadata20">
    <rdf:RDF>
      <cc:Work
         rdf:about="">
        <dc:format>image/svg+xml</dc:format>
        <dc:type
           rdf:resource="http://purl.org/dc/dcmitype/StillImage" />
        <dc:title></dc:title>
      </cc:Work>
    </rdf:RDF>
  </metadata>
  <defs
     id="defs18" />
  <sodipodi:namedview
     pagecolor="#ffffff"
     bordercolor="#666666"
     borderopacity="1"
     objecttolerance="10"
     gridtolerance="10"
     guidetolerance="10"
     inkscape:pageopacity="0"
     inkscape:pageshadow="2"
     inkscape:window-width="1408"
     inkscape:window-height="753"
     id="namedview16"
     showgrid="false"
     inkscape:zoom="0.7"
     inkscape:cx="427.5"
     inkscape:cy="427.5"
     inkscape:window-x="0"
     inkscape:window-y="0"
     inkscape:window-maximized="0"
     inkscape:current-layer="svg2" />
  <g
     id="#fdfdfdff" />
  <g
     id="#484a4bff">
    <path
       style="opacity:1;fill:#000000"
       d="m 314.55,26.92 c 34.97627,-4.773483 71.44101,-2.359352 106.10855,4.236504 32.05857,8.386907 65.61911,15.119404 93.07145,35.053496 62.43665,37.17687 102.91865,104.01959 120.69048,173.3356 22.12476,93.13251 8.95594,195.06059 -41.51423,276.84315 C 550.37451,595.6902 468.40353,655.27828 377.48,661.74 343.13884,663.17549 309.01756,656.2067 276.4309,645.17097 240.62523,635.13743 203.79928,625.13339 170.78287,606.06801 143.56726,588.17395 118.0025,565.93829 99.71,538.69 83.828623,520.90859 72.332768,493.59235 63.105,469.8875 29.28764,380.86782 35.465378,278.55022 77.11707,193.20629 117.5057,107.22028 199.92755,36.196605 297.18176,28.752695 302.95363,27.99097 308.74123,27.328714 314.55,26.92 Z M 282.42,41.96 C 207.9568,52.986179 143.46336,103.32852 104.87379,166.79789 63.239059,233.06898 45.513822,314.57414 55.67125,392.18375 c 8.415939,66.87915 36.30026,132.57611 87.05271,178.099 18.54101,18.8015 38.8645,28.90579 62.30604,40.63725 10.35592,3.11862 40.72011,15.92313 17.63609,-0.16906 C 153.2841,555.08264 118.62266,465.24864 116.53969,377.83841 114.48025,320.03862 126.3041,262.11947 150.71,209.74 181.42064,140.24567 236.75219,80.159612 307.16,50.05 292.2116,54.627966 295.15248,34.768091 282.42,41.96 Z m 115.04,2.02 c -78.12674,-1.406885 -151.03983,43.331556 -196.90844,104.56838 -49.87921,64.31149 -74.74938,146.94505 -72.79859,227.99881 3.08902,47.14353 11.46235,94.93209 33.04703,137.60281 32.22031,67.22702 95.16985,122.23672 170.1517,133.20357 62.2948,10.64549 127.8933,-9.68705 177.38656,-48.56009 63.76621,-50.26581 103.15288,-126.69347 119.04668,-205.29924 14.39778,-80.02726 2.90902,-166.3835 -40.10735,-236.33161 C 548.91111,90.516769 475.46041,42.718956 397.46,43.98 Z"
       id="path6"
       inkscape:connector-curvature="0" />
    <path
       style="opacity:1;fill:#000000"
       d="m 402.95,232.45 c 9.66202,-3.40888 18.56521,7.14576 19.92437,16.03562 1.62292,13.23653 0.46554,26.6734 0.76546,39.99123 -0.0901,20.77447 -0.23336,41.55483 0.39017,62.32315 10.95264,7.44998 14.13659,21.75855 14.84348,34.18486 -0.0576,15.52469 -8.00615,30.62835 -19.90575,40.36274 -12.37781,8.13557 -31.10803,5.2521 -39.26913,-7.55813 C 368.87144,402.57336 368.20739,381.59 375.88,364.88 c 4.0422,-6.66586 11.64752,-12.39064 9.64264,-21.21544 -0.39056,-30.703 -1.10192,-61.4442 -0.003,-92.1296 1.30618,-8.08614 7.66177,-15.08958 15.00255,-18.37584 l 1.1931,-0.3987 L 402.95,232.45 Z m -7.71,16.82 c -3.69481,13.51928 -0.86816,27.63672 -1.99328,41.41114 0.3442,16.76286 -0.052,33.53353 0.10144,50.30389 0.8687,10.16913 -1.19618,19.75231 -9.07951,26.7264 -6.20219,9.75519 -6.54263,22.34176 -3.79752,33.26714 3.40298,10.28108 13.14066,21.14224 24.94128,19.3139 7.72806,-1.3566 14.56024,-6.43 18.11431,-13.41216 4.08745,-6.03492 7.0428,-13.14878 6.37443,-20.55611 0.87535,-11.67856 -4.32075,-23.86879 -13.99115,-30.6642 -0.75802,-14.57747 0.0899,-29.1856 -0.25609,-43.76922 0.29043,-6.3112 1.72947,-16.71979 -7.67846,-13.47396 -5.47183,-4.38257 3.18051,-10.15279 7.92455,-11.43682 0.15739,-6.8464 -13.88455,-0.57391 -9.02,-10.08 2.38123,-2.80712 12.62633,-3.65786 7.51168,-8.23355 -7.13551,2.92759 -12.31614,-7.75996 -3.68043,-9.5502 10.84989,0.36961 2.26196,-18.37155 -5.98606,-17.11786 -3.95874,0.55952 -8.43329,3.14583 -9.48519,7.27161 z"
       id="path8"
       inkscape:connector-curvature="0" />
    <path
       fill="#484a4b"
       opacity="1.00"
       d=" M 402.10 309.48 C 404.98 310.84 409.45 311.33 410.37 314.82 C 410.89 329.83 409.59 344.86 410.11 359.87 C 412.29 366.68 421.22 369.13 422.88 376.39 C 424.31 384.11 425.57 392.99 420.84 399.83 C 416.89 407.36 408.48 412.35 399.93 411.28 C 385.52 406.24 380.50 386.77 388.13 374.32 C 389.83 369.00 395.28 366.54 398.18 362.12 C 399.23 348.77 398.41 335.30 398.73 321.91 C 398.11 317.36 400.05 313.31 402.10 309.48 Z"
       id="path10"
       style="fill:#000000" />
    <path
       style="opacity:1;fill:#000000"
       d="m 403.39,507.5 c 2.64153,-0.64851 5.81498,-0.39317 7.77806,1.68642 1.36885,1.51074 1.87961,3.58056 2.23725,5.53582 0.56027,3.68793 -0.0646,7.8234 -2.66781,10.64901 -1.21879,1.31491 -2.87415,2.19164 -4.6275,2.53875 -2.20153,1.26506 -4.97256,0.77243 -7.04812,-0.50906 -1.23627,-0.72084 -2.3847,-1.65533 -3.03648,-2.95862 -2.4385,-4.38989 -1.68294,-10.2812 1.65133,-14.00532 1.46905,-1.62956 3.52369,-2.71601 5.71327,-2.937 z"
       id="path12"
       inkscape:connector-curvature="0" />
    <path
       fill="#484a4b"
       opacity="1.00"
       d=" M 227.91 615.13 C 227.90 615.11 227.88 615.09 227.86 615.08 C 227.88 615.09 227.90 615.11 227.91 615.13 Z"
       id="path14" />
  </g>
  <path
     style="fill:#000000"
     d="m 391.48154,401.60406 c -4.15441,-4.97853 -6.92448,-11.72114 -5.13599,-18.22426 1.96332,-8.91947 9.54915,-15.20395 11.72152,-24.04097 3.76351,-14.37481 1.1926,-29.57444 4.77435,-43.97234 1.38754,-4.85046 3.65544,1.24927 3.60169,3.38704 2.36407,13.01425 0.82943,26.43584 3.59663,39.3874 1.06065,5.55589 4.93048,9.78755 8.21989,14.14325 4.91703,6.85115 6.18387,16.34325 2.26339,23.95405 -3.11614,6.23887 -8.70112,12.63711 -16.20946,12.75236 -5.23506,0.0224 -9.75186,-3.42033 -12.83202,-7.38653 z"
     id="path3348"
     inkscape:connector-curvature="0" />
  <path
     style="fill:#000000"
     d=""
     id="path3350"
     inkscape:connector-curvature="0"
     transform="scale(0.8,0.8)" />
</svg>
