<?xml version="1.0" encoding="UTF-8" ?>
<!DOCTYPE svg PUBLIC "-//W3C//DTD SVG 1.1//EN" "http://www.w3.org/Graphics/SVG/1.1/DTD/svg11.dtd">
<svg width="308pt" height="288pt" viewBox="0 0 308 288" version="1.1" xmlns="http://www.w3.org/2000/svg">
<g id="#ffffffff">
<path fill="#ffffff" opacity="1.00" d=" M 29.74 233.25 C 30.71 237.30 29.52 241.74 31.75 245.49 C 30.54 245.84 29.33 246.16 28.09 246.41 C 26.86 245.16 27.85 243.66 28.29 242.31 C 29.50 239.44 29.23 236.26 29.74 233.25 Z" />
</g>
<g id="#636668ff">
<path fill="#636668" opacity="1.00" d=" M 246.29 29.30 C 253.12 24.55 260.50 20.65 267.87 16.83 C 259.84 22.16 250.87 26.14 243.65 32.64 C 239.71 36.39 236.84 41.15 232.48 44.48 C 222.60 52.39 212.10 59.50 201.53 66.46 C 191.00 73.47 179.35 78.50 167.98 83.95 C 156.92 89.32 145.59 94.11 134.61 99.63 C 126.23 104.30 124.85 114.94 118.43 121.43 C 111.10 129.10 103.49 136.51 95.60 143.61 C 92.25 146.59 89.31 150.06 85.56 152.55 C 81.87 154.82 79.02 158.25 75.04 160.06 C 66.09 164.53 58.29 170.98 49.16 175.13 C 45.82 176.69 43.16 179.30 40.48 181.76 C 41.28 182.91 42.08 184.06 42.89 185.21 C 38.07 190.04 32.33 194.06 25.72 195.98 C 27.76 198.21 30.17 200.32 33.32 200.63 C 40.22 201.52 47.62 201.99 54.14 199.10 C 61.58 195.90 68.41 191.50 75.34 187.36 C 83.80 182.53 93.85 181.28 102.15 176.20 C 111.90 167.85 122.59 160.69 132.49 152.53 C 138.23 147.59 144.61 143.47 151.41 140.15 C 149.58 138.78 147.71 137.47 145.95 136.02 C 149.22 137.35 152.32 139.54 155.99 139.52 C 161.83 139.64 167.80 140.48 173.16 142.91 C 177.56 145.07 179.32 150.42 178.44 155.03 C 175.91 165.97 170.15 175.77 164.13 185.12 C 160.07 193.51 155.53 202.41 156.17 212.00 C 158.37 210.36 160.55 208.69 162.75 207.04 C 166.83 210.96 171.94 213.71 177.56 214.56 C 177.79 216.22 178.03 217.88 178.29 219.54 C 182.35 216.21 186.07 212.48 189.44 208.46 C 194.06 202.85 197.10 196.18 201.29 190.28 C 208.20 180.10 216.14 170.55 225.59 162.63 C 233.08 156.46 239.37 149.04 245.84 141.85 C 249.36 137.67 252.93 133.51 256.01 128.99 C 260.22 122.80 262.51 115.59 266.16 109.09 C 272.49 96.30 282.21 85.47 292.85 76.10 C 285.36 83.65 277.90 91.38 272.27 100.44 C 267.04 108.63 263.70 117.81 259.35 126.45 C 253.23 136.91 244.86 145.82 236.77 154.77 C 230.73 161.75 223.09 167.08 217.02 174.03 C 209.94 182.15 203.53 190.89 198.21 200.27 C 193.95 207.97 188.30 214.89 181.64 220.64 C 178.16 223.68 174.53 226.98 169.84 227.90 C 165.79 228.74 160.74 228.55 158.01 224.98 C 154.21 220.70 154.32 214.69 152.60 209.54 C 148.23 206.18 143.46 203.34 139.30 199.68 C 133.23 194.27 123.55 192.83 119.98 184.83 C 118.48 178.63 120.15 172.26 120.83 166.06 C 115.68 169.79 110.65 173.68 105.89 177.90 C 101.41 181.81 95.41 182.99 90.02 185.14 C 85.10 187.10 79.90 188.53 75.43 191.47 C 67.40 196.59 59.10 201.41 50.04 204.48 C 57.00 207.62 62.43 213.49 65.56 220.41 C 70.76 232.15 71.12 246.10 65.86 257.89 C 62.61 265.03 57.80 271.82 50.89 275.80 C 45.45 278.90 38.97 278.33 32.96 278.15 C 25.26 277.82 18.36 273.24 13.53 267.47 C 0.69 251.85 0.56 227.14 13.57 211.59 C 16.98 207.33 21.87 204.75 26.64 202.32 C 23.92 199.52 20.62 195.78 22.63 191.60 C 26.50 183.73 35.63 181.30 41.85 175.85 C 46.08 172.05 51.69 170.49 56.35 167.34 C 62.03 163.64 67.80 160.06 73.80 156.89 C 86.49 148.91 96.87 137.95 107.82 127.82 C 112.81 122.81 118.46 118.12 121.59 111.64 C 124.67 105.45 128.59 98.99 135.27 96.22 C 149.85 89.51 164.56 83.06 179.09 76.23 C 197.34 68.17 213.70 56.53 229.79 44.88 C 236.21 40.66 239.94 33.58 246.29 29.30 M 153.55 141.81 C 143.87 144.45 136.40 151.61 128.82 157.80 C 124.66 160.75 124.67 166.24 123.67 170.76 C 123.11 175.23 121.81 180.07 123.59 184.41 C 127.45 190.23 134.79 191.79 140.01 195.99 C 144.60 199.71 149.13 203.59 154.40 206.34 C 156.32 197.40 160.07 189.00 164.33 180.96 C 160.53 178.22 155.91 177.95 151.39 178.20 C 152.83 177.36 154.29 176.57 155.75 175.77 C 155.70 169.54 155.73 163.30 155.73 157.07 C 151.65 155.28 147.33 154.19 142.87 153.98 C 147.48 153.16 151.97 154.41 156.41 155.50 C 163.23 156.27 170.19 155.30 176.75 153.35 C 176.94 149.87 175.83 146.10 172.45 144.48 C 166.61 141.78 159.91 140.75 153.55 141.81 M 157.44 157.46 C 157.42 163.57 157.47 169.67 157.38 175.78 C 160.01 176.95 162.56 178.31 165.20 179.46 C 168.45 176.32 169.93 171.84 172.09 167.95 C 170.03 168.34 167.98 168.76 165.91 169.09 C 168.29 167.79 170.98 166.88 172.92 164.92 C 174.95 162.07 175.68 158.55 176.73 155.27 C 170.42 156.86 163.93 157.42 157.44 157.46 M 31.73 186.74 C 29.02 188.56 26.85 191.07 25.51 194.06 C 31.22 192.70 36.41 189.33 40.25 184.93 C 40.15 184.49 39.95 183.60 39.85 183.16 C 36.68 182.78 34.17 185.10 31.73 186.74 M 28.36 206.29 C 19.76 208.62 13.34 216.02 10.11 224.07 C 6.95 231.50 6.97 239.77 7.80 247.66 C 9.71 257.69 15.22 267.69 24.54 272.52 C 29.05 275.21 34.56 275.22 39.60 274.45 C 49.91 271.37 57.10 261.73 59.65 251.59 C 63.08 238.42 60.50 223.13 50.91 213.09 C 45.29 207.09 36.40 203.89 28.36 206.29 M 47.52 207.42 C 49.83 210.13 52.60 212.41 54.74 215.27 C 60.35 222.52 62.74 231.91 62.54 240.98 C 62.56 250.68 59.31 260.52 52.76 267.77 C 50.29 270.40 47.26 272.42 44.70 274.96 C 48.09 273.94 51.29 272.30 53.87 269.86 C 68.26 256.48 70.76 232.52 59.66 216.36 C 56.85 212.05 52.68 208.47 47.52 207.42 M 157.30 214.30 C 157.13 218.21 159.08 222.43 162.39 224.62 C 167.14 226.21 173.06 224.85 176.24 220.86 C 176.31 219.25 177.14 216.70 175.08 215.99 C 170.60 214.34 166.10 212.51 162.60 209.14 C 160.80 210.78 158.27 211.99 157.30 214.30 Z" />
<path fill="#636668" opacity="1.00" d=" M 27.88 232.48 C 29.13 232.21 30.39 231.95 31.65 231.71 C 31.68 235.56 31.11 239.53 32.55 243.22 C 33.42 244.98 32.67 247.20 30.71 247.80 C 28.73 249.35 26.65 247.11 25.64 245.48 C 26.79 241.22 27.99 236.95 27.88 232.48 M 29.74 233.25 C 29.23 236.26 29.50 239.44 28.29 242.31 C 27.85 243.66 26.86 245.16 28.09 246.41 C 29.33 246.16 30.54 245.84 31.75 245.49 C 29.52 241.74 30.71 237.30 29.74 233.25 Z" />
<path fill="#636668" opacity="1.00" d=" M 26.17 258.92 C 25.68 257.21 27.21 255.67 28.91 256.17 C 31.32 256.10 30.54 259.26 30.78 260.78 C 29.26 260.51 26.06 261.37 26.17 258.92 Z" />
</g>
</svg>
