<?xml version="1.0" encoding="utf-8"?>
<!-- Generator: Adobe Illustrator 21.1.0, SVG Export Plug-In . SVG Version: 6.00 Build 0)  -->
<svg version="1.1"
	 id="svg2" inkscape:version="0.91 r13725" sodipodi:docname="learn_door.svg" xmlns:cc="http://creativecommons.org/ns#" xmlns:dc="http://purl.org/dc/elements/1.1/" xmlns:inkscape="http://www.inkscape.org/namespaces/inkscape" xmlns:rdf="http://www.w3.org/1999/02/22-rdf-syntax-ns#" xmlns:sodipodi="http://sodipodi.sourceforge.net/DTD/sodipodi-0.dtd" xmlns:svg="http://www.w3.org/2000/svg"
	 xmlns="http://www.w3.org/2000/svg" xmlns:xlink="http://www.w3.org/1999/xlink" x="0px" y="0px" viewBox="0 0 408 308"
	 style="enable-background:new 0 0 408 308;" xml:space="preserve">
<style type="text/css">
	.st0{fill:#21A5FB;}
</style>
<sodipodi:namedview  bordercolor="#666666" borderopacity="1" gridtolerance="10" guidetolerance="10" id="namedview11" inkscape:current-layer="svg2" inkscape:cx="290" inkscape:cy="202.5" inkscape:pageopacity="0" inkscape:pageshadow="2" inkscape:window-height="480" inkscape:window-maximized="0" inkscape:window-width="699" inkscape:window-x="0" inkscape:window-y="0" inkscape:zoom="0.53448276" objecttolerance="10" pagecolor="#ffffff" showgrid="false">
	</sodipodi:namedview>
<g id="_x23_ffffffff">
</g>
<g id="_x23_686868ff">
	<path id="path6" d="M198.8,10.9c6.1-2.8,13.1-1.3,18.9,1.5c7.5,3.3,14.3,7.8,21.4,11.7c10.7,6,22.5,9.6,33.8,14.2
		c15.2,5.6,30.4,11.2,45.7,16.5c9.2,3,18.7-1.9,27.9,0.3c7.9,1.6,15.5,4.5,23.5,5.4c5.3,1,10.8,1,16.1,1.9
		c5.1,0.6,10.6-0.8,15.2,1.8c-13.6,0.8-27.4,0.9-40.7-2.4c-7.2-1.5-14.3-4.5-21.8-4.2c-8,1-16.7,2.5-24.4-0.8
		c-16.7-5.6-33.2-11.7-49.8-17.7c-7.3-3-14.9-5.4-22-8.9c-8.9-4.3-17-9.9-26-14.1c-4.6-2.1-9.8-3.5-14.9-2.2
		c-4.9,1.5-8.7,5.2-12.6,8.4c-8.8,7.8-17.4,16.1-27.3,22.6c-15.3,9.9-29.7,21.1-44.6,31.5c-4.6,2.9-7.2,8.1-7.1,13.5
		c-0.1,11.5,2.5,22.8,2.3,34.3c0.8,9.6-2.3,18.9-2.6,28.4c5.5-4.2,13.1-4.6,18.9-0.8c3.5-2.7,8.9-4.1,9.9-9
		c3-10.1,5.2-20.4,6.4-30.9c0-1.8,0.7-4-0.8-5.3c-2.6-2.8-5.4-5.4-7.6-8.5c3,2.2,6,4.5,9.1,6.6c8.2-2.5,16.3-6.2,22.1-12.7
		c-1.5-4.2-2-8.7-1.9-13.1c0.8,3.4,0.9,7.1,2.6,10.2c0.9,1.8,3,2.1,4.8,2.6c6.8,1.4,13.8,2.2,20.7,1.6c3.1,5.3,4.5,11.3,4.7,17.4
		c2.5-2.5,4.4-5.5,6.3-8.5c-3.3,10.5-12.5,17.1-21.1,23.1c-7.7,5.4-15.5,10.9-23.9,15.1c-10.8,4.7-22,9.2-31.3,16.8
		c-6.7,5.7-13.1,11.9-17.6,19.4c-1.6,2.9-3.2,6.1-2.8,9.5c0.4,2.9,2.6,5.1,4.6,7c0.3-3.2,0.1-6.5,1.5-9.5c3-6.9,9.3-11.5,15.4-15.5
		c5.1,4.3,8.7,10,11.8,15.8c7.3-0.6,14.6-2.2,21.7-4.1c10.6-3.7,21.1-8.5,32.3-10c9.6-1,19.2-2.7,28.7-4.1
		c7.1-0.9,14.2,1.1,21.2,1.3c16.1,1.1,32.9,1.2,48.2-4.6c4.8-1.6,9.9-1.6,14.8-2.5c7-1,13.9-2.8,20.6-4.9
		c14.1-4.5,28.7-7.6,43.5-7.5c7.8-1.3,15.7-0.8,23.6-0.9c0,0.5,0,1.5,0,2c-5.4,0-10.8-0.3-16.1,0.6c-4.9,0.8-10,0.1-14.9,1.1
		c-7.7,1-15.4,2.3-23,4.2c-8.8,2-17,5.9-25.9,7.3c-8,1.8-16.4,1.8-24.1,4.8c-8.6,2.9-17.6,4-26.6,4.3c-6.7,1.4-13.4-0.4-20.1-0.3
		c-5.7-0.1-11.2-1.4-16.9-1.6c-6.7,0.5-13.3,2.2-20,3.1c-7.8,1.4-15.9,1.4-23.4,4c-6.3,2.2-12.6,4.4-18.9,6.8
		c-6.2,2.4-12.8,3.3-19.2,4.4c-8.8,1.2-15.6,7.7-23.8,10.7c-3.4,1.2-7,0.5-10.5,0.2c-2.7,3.4-5.4,7.1-9.6,8.6
		c-4.4,1.8-9.1,0.4-13.5-0.7c-4.1,5.2-8.3,10.2-12,15.7c7.1,7.7,10.5,18.1,11.2,28.4c0.1,7.3-1.9,14.9-7.1,20.2
		c-5.9,6.1-12.2,11.8-18.1,17.9c-2.9,2.8-5.6,6.1-9.5,7.6c-6,2.4-12.2,4.3-18.2,6.7c-4.6,2.4-9.6-0.8-13.2-3.5
		c-7.1-6.4-11-15.8-12.6-25.1c-0.5-5.8-0.9-12.1,1.8-17.5c2.7-5.3,6.7-9.8,10.2-14.7c3.9-5.1,7.4-10.5,11.5-15.5
		c3.1-3.9,8.2-4.9,12.7-6.4c5.2-1.5,10.2-3.4,15.4-4.8c4.8-1.2,9.1,1.9,13.2,4c4.1-4.9,7.9-10.1,11.9-15.1
		c-3.7-5.6-5.7-13.4-1.7-19.4c5.5-7.8,11.8-14.9,17.3-22.6c3.4-6.5,3.3-14,4.6-21.1c2.8-12.9,0.9-26.2-0.4-39.1
		c-0.7-7-1.8-14.6,1.5-21.1c1.6-3.5,4.7-6.1,7.8-8.3c14.1-9.8,27.7-20.4,42.2-29.8c7.6-4.9,14.5-10.8,21.2-16.9
		C185.8,20.5,191.4,14.4,198.8,10.9 M163.3,99.3c-4.7,3.4-10.2,5.4-15.6,7.5c-0.1,4.3-0.4,8.6-0.6,12.9c7,3.7,13.4,8.3,19.1,13.8
		c7.4-4.5,14.9-9,21.8-14.3c-1.9-5.5-6.2-10.4-11.9-11.9c-3.7,0.9-7.2,2.6-11.1,2.8c2.7-1,5.6-1.5,8-3.1c3.6-2.7,4.9-7.3,6.1-11.4
		c-2.9-0.7-5.8-2.3-8.8-1.9C167.8,95.4,165.8,97.6,163.3,99.3 M177.1,105.3c5.4,3,9.8,7.3,12.6,12.8c2.2-1.7,4.6-3.2,6.4-5.4
		c0.8-1.9,0.3-4,0.5-6c-1-0.3-2.1-0.5-3.1-0.8c0.8-1.3,1.8-2.5,2.1-3.9c-0.6-2.2-1.7-4.2-2.6-6.3c-4,0-8-0.2-12-0.2
		C179,98.4,178.7,102.2,177.1,105.3 M147.7,124.8c-1.5,6.2-3.8,12.2-4.8,18.6c6.5-2.5,12.8-5.3,19-8.3
		C157.8,130.9,152.9,127.5,147.7,124.8 M107.7,162.5c-0.8,3.9-0.4,7.9,0,11.9c5.2-7.6,11.7-14.1,18.4-20.4c-2.9-0.6-5.9-1.9-8.9-0.8
		C112.7,154.4,109.6,158.5,107.7,162.5 M91.9,181.9c-2.1,2.8-4.5,5.6-5.2,9.1c-1,6.8,5.3,13.9,12.3,12.9c5.1,0.4,8.4-4.1,11.1-7.7
		c-2.1-2.8-4.6-5.5-5.4-9.1c-0.5-3.2,0.5-6.4-0.2-9.6c-0.7-2.9-1.5-5.8-2.1-8.8C98.8,173,95.4,177.5,91.9,181.9 M115.8,185.1
		c-1.2,3.1-0.2,6.4,0.7,9.4c2.9-0.1,5.8-0.2,8.4-1.6c5.3-2.7,10.5-5.5,15.4-8.7c-2.8-5.1-5.8-10.3-10.3-14.2
		C124.3,173.8,118.3,178.4,115.8,185.1 M50.5,222.9c3.8,3,7.6,6.2,10.2,10.4c4.7,7,6.5,15.5,7.6,23.7c0.4,7.3-1.5,15.2-6.8,20.6
		c-5.3,5.7-11.2,10.9-16.1,17.1c4.4-1.1,9-2.4,12.4-5.8c7-6.7,13.8-13.5,20.7-20.3c4-3.8,6.4-9,6.7-14.5c0.6-10.4-2.4-21.5-9.7-29.2
		c-2.2,2.7-4.1,5.6-6.9,7.8c-1.2,1.1-4,2-4.1-0.5c2.8-3.4,5.9-6.4,8.2-10.1c-3-1.6-6.1-4-9.8-3.3C58.7,219.5,54.6,221.3,50.5,222.9
		 M45.4,224.3c-3.7,0.7-7.1,2.7-9.3,5.8c-5.3,7.1-10.4,14.3-15.7,21.4c-2.5,3.3-5.1,6.8-5.7,11c-1.2,8.8,0.4,18.1,5.1,25.7
		c2.5,4.3,5.8,8.6,10.6,10.4c4.6,0.9,9.4-1.2,12.5-4.6c4.6-4.7,9.1-9.5,13.8-14.3c3.1-3.3,6.5-6.6,8.1-11c2-5.8,1.8-12.1,0.6-18
		c-1.8-9-5.8-18.1-13.2-23.9C50.2,225.4,48,223.5,45.4,224.3z"/>
</g>
<g id="_x23_21a5fbff">
	<path id="path9" class="st0" d="M42.4,247.3c2.1,0.1,4.8-0.5,5.8,1.9c1,2.7-1.9,5.4-4.6,4.3C41.2,252.3,41.9,249.4,42.4,247.3z"/>
</g>
</svg>
