<?xml version="1.0" encoding="UTF-8"?>
<!DOCTYPE svg PUBLIC "-//W3C//DTD SVG 1.1//EN" "http://www.w3.org/Graphics/SVG/1.1/DTD/svg11.dtd">
<!-- Creator: CorelDRAW X8 -->
<svg xmlns="http://www.w3.org/2000/svg" xml:space="preserve" width="210mm" height="210mm" version="1.1" style="shape-rendering:geometricPrecision; text-rendering:geometricPrecision; image-rendering:optimizeQuality; fill-rule:evenodd; clip-rule:evenodd"
viewBox="0 0 21000 21000"
 xmlns:xlink="http://www.w3.org/1999/xlink"
 inkscape:version="0.91 r13725"
 sodipodi:docname="xiaomi_button_icon.svg"
 xmlns:cc="http://creativecommons.org/ns#"
 xmlns:dc="http://purl.org/dc/elements/1.1/"
 xmlns:inkscape="http://www.inkscape.org/namespaces/inkscape"
 xmlns:rdf="http://www.w3.org/1999/02/22-rdf-syntax-ns#"
 xmlns:sodipodi="http://sodipodi.sourceforge.net/DTD/sodipodi-0.dtd"
 xmlns:svg="http://www.w3.org/2000/svg">
 <defs>
  <style type="text/css">
   <![CDATA[
    .fil0 {fill:#2B2A29;fill-rule:nonzero}
   ]]>
  </style>
 </defs>
 <g id="Слой_x0020_1">
  <metadata id="CorelCorpID_0Corel-Layer"/>
  <sodipodi:namedview bordercolor="#666666" borderopacity="1" gridtolerance="10" guidetolerance="10" id="namedview12" inkscape:current-layer="svg2" inkscape:cx="423.125" inkscape:cy="423.125" inkscape:pageopacity="0" inkscape:pageshadow="2" inkscape:window-height="728" inkscape:window-maximized="0" inkscape:window-width="1408" inkscape:window-x="0" inkscape:window-y="0" inkscape:zoom="0.2788774" objecttolerance="10" pagecolor="#ffffff" showgrid="false"/>
  <path class="fil0" d="M12876 582l-3347 513 -5006 763c-152,23 -246,64 -286,129 -40,64 -32,164 20,307 1111,3002 2229,5981 3370,8891 1142,2910 2307,5754 3512,8489 16,36 43,75 78,112 57,63 134,119 215,151 73,28 150,35 217,5 23,-10 46,-24 67,-44l3902 -3586 2 -2 2689 -2363c179,-157 84,-404 11,-594 -15,-37 -28,-73 -32,-83 -990,-2767 -1576,-4376 -2236,-6030 -662,-1658 -1405,-3376 -2708,-6359 -66,-151 -112,-243 -171,-283 -55,-38 -142,-40 -297,-16zm-8518 12840l1717 -450 -962 -2602 -1492 391c126,56 228,150 286,298l663 1685c99,250 -49,454 -187,643 -9,11 -17,23 -25,35zm1786 -262l-1910 500c0,12 0,23 3,34l76 196 222 -44 1234 -285c73,-17 177,20 177,97 0,75 -58,153 -132,170l-1399 325 221 567 228 -45 1234 -285c73,-17 177,20 177,97 0,76 -58,153 -133,171l-1404 326 216 554 217 -43 1234 -285c73,-17 177,20 177,97 0,75 -58,153 -132,170l-1394 324 221 569 189 -37 1234 -286c73,-17 178,20 178,97 0,76 -59,154 -133,171l-1366 317 11 27c34,90 104,179 187,240 67,49 141,77 206,66l1657 -299 -268 -724 -1028 -2782zm-3071 -2461l1971 -517 -1486 -4019c-90,44 -163,89 -205,142 -42,53 -52,126 -11,235l993 2687 1 5c17,52 -13,108 -65,125l-983 307c-170,53 -303,124 -374,220 -65,88 -77,207 -15,367l174 448zm2110 5978l-3 1 -2 -7 2 0 -1131 -2910c-1,-4 -3,-8 -4,-12 -47,-172 62,-321 177,-479 107,-147 221,-304 162,-453l-663 -1686c-46,-116 -137,-180 -250,-211 -128,-35 -285,-29 -443,-4 -48,8 -93,-20 -109,-64l-206 -529c-90,-232 -65,-413 40,-557 99,-135 268,-227 475,-292l883 -277 -957 -2588c-68,-185 -44,-319 42,-428 67,-85 170,-147 293,-206l-1052 -2846c-87,-236 -57,-405 51,-542 99,-126 261,-214 453,-302l952 -432c5,-2 10,-4 16,-5l327 -114c70,-34 155,-58 257,-74l5007 -763 3346 -513c209,-32 335,-23 440,49 100,68 160,183 241,369 1302,2980 2044,4697 2710,6365 668,1672 1253,3279 2239,6036 15,42 22,60 30,79 94,246 217,566 -65,815l-2688 2361 0 1 -3902 3586c-38,35 -79,62 -121,80 -121,53 -250,44 -370,-3 -74,-28 -145,-71 -207,-122l-456 417 -1340 211c-123,20 -251,-25 -360,-104 -112,-82 -207,-204 -252,-327l-1235 -3341 -1692 305c-123,22 -250,-22 -358,-101 -113,-83 -208,-206 -256,-329l-21 -54zm193 -52l24 -5c74,-18 120,-76 128,-167 4,-56 -48,-108 -250,-81l98 253zm-323 -831l52 -12c74,-17 119,-75 127,-167 5,-58 -53,-112 -278,-76l99 255zm-317 -817l62 -14c74,-18 119,-76 127,-168 5,-59 -55,-114 -289,-74l100 256zm-323 -831l56 -13c74,-17 119,-75 127,-167 5,-58 -53,-113 -283,-76l100 256zm-396 -12125l-25 9c-48,60 -66,133 -66,208 0,92 25,189 56,274l6402 17515c20,54 68,107 126,145 43,28 89,47 129,49l378 -363c-25,-35 -45,-70 -60,-104 -1206,-2735 -2373,-5582 -3516,-8496 -1143,-2914 -2261,-5894 -3371,-8896 -49,-132 -67,-245 -53,-341zm-283 124l-711 322c-167,76 -304,149 -378,243 -64,82 -80,190 -21,350l6308 17068c33,88 101,175 183,235 68,50 145,79 212,69l993 -157c-55,-52 -99,-115 -123,-180l-6402 -17515c-38,-103 -68,-222 -68,-342 0,-31 2,-62 7,-93z"/>
 </g>
</svg>
